<?xml version="1.0" encoding="utf-8"?>
<!-- Generator: Adobe Illustrator 25.0.0, SVG Export Plug-In . SVG Version: 6.00 Build 0)  -->
<svg version="1.1" id="Layer_1" xmlns="http://www.w3.org/2000/svg" xmlns:xlink="http://www.w3.org/1999/xlink" x="0px" y="0px"
	 viewBox="0 0 283.5 283.5" style="enable-background:new 0 0 283.5 283.5;" xml:space="preserve">
<style type="text/css">
	.st0{fill:#FFFFFF;}
	.st1{fill:#C2895F;}
	.st2{fill:#87AD50;}
	.st3{fill:#BBA78E;}
	.st4{fill:#EE663C;}
	.st5{fill:none;stroke:#010101;stroke-width:1.7763;stroke-linecap:round;stroke-linejoin:round;}
</style>
<g id="g7184" transform="translate(385.44614,91.2171)">
	<g>
		<path class="st0" d="M-243.7-91.2c46.9,0,93.8,0,140.7,0c0.9,0,1.1,0.2,1.1,1.1c0,93.8,0,187.5,0,281.3c0,0.9-0.2,1.1-1.1,1.1
			c-93.8,0-187.5,0-281.3,0c-0.9,0-1.1-0.2-1.1-1.1c0-93.8,0-187.5,0-281.3c0-0.9,0.2-1.1,1.1-1.1
			C-337.5-91.2-290.6-91.2-243.7-91.2z"/>
		<path class="st1" d="M-255.3,94.3c0.5,0.6,1,1.2,1.5,1.8c0.5,0.6,1.2,0.6,1.8,0.1c0.6-0.5,0.4-1.2-0.1-1.7
			c-2.8-2.9-5.4-6.1-8.7-8.5c-0.9-0.6-1.6-1.5-2.5-2c-0.3-0.2-0.3-0.5-0.3-0.8c0-1.4,0-2.7,0-4.1c1.9,0.2,2.2-0.3,1.8-2.1
			c-1.8-6.8-4.6-13.2-7.1-19.8c-1.1-3-2.2-6-3.4-9c-0.5-1.2-1.4-1.4-2.2-0.4c-2.1,2.5-4.7,4.6-6.8,7.2c-1.2,1.5-2.7,2.8-4.2,4.2
			c-1.1,1-1.3,2-0.8,3.3c0.8,1.9,0.5,3.9,0.4,5.9c-0.2,3.4-0.4,6.9,0,10.2c0.3,2.5,1.5,4.9,2.3,7.4c0.9,2.5,1.7,5,2.6,7.5
			c0.8,2.2,1.8,2.4,3.5,1.5c0.3-0.2,0.6-0.5,1.1-0.4c0,0.1,0.1,0.2,0.1,0.3c0,1,0,2,0,3.1c-0.7-0.7-1.4-0.7-2.2-0.7
			c-1.9,0-3.8,0-5.7,0c-1.2,0-1.6,0.4-1.6,1.6c0,1.5,0,2.9,0,4.4c0,0.6-0.2,0.9-0.8,0.9c-1.1-0.1-2.1-0.1-3.2,0
			c-0.8,0.1-1-0.3-0.9-1c0-6.3,0-12.7,0-19c0-3-2-5.6-4.7-7c-3.6-1.8-7.5-2.1-11.4-1.8c-4.3,0.3-8.5,1.5-12.2,3.8
			c-2.6,1.6-5,3.5-5.9,6.7c-0.3,0.9-0.5,1.9-0.4,2.9c0.1,5.8-0.1,11.6,0.1,17.3c0,0.5-0.4,0.7-0.6,0.9c-1.2,1-1.9,2.1-1.4,3.9
			c0.3,1.3,0.1,2.8,0,4.2c0,0.9-1,1.2-1.4,1.8c-0.4-0.2-0.2-0.6-0.2-0.9c0-0.9,0.1-1.7,0-2.6c-0.1-0.7,0-1.5-1-1.8
			c-0.9-0.3-1.3,0.3-1.8,0.8c-1.1,1-2.1,2.1-3.2,3.2c-0.4,0.4-0.6,0.9-0.6,1.6c0,1.5-0.1,3.1,0,4.6c0.2,1.6-0.4,2.8-1.9,3.7
			c0-1.5-0.4-2.8-0.3-4.3c0.1-0.6-0.1-1.2-0.7-1.4c-0.6-0.3-1.1,0-1.6,0.4c-1.4,1.4-2.8,2.8-4.2,4.2c-0.4,0.4-0.4,0.8-0.4,1.2
			c0,1.9-0.1,3.8,0,5.7c0.1,1.2-0.2,2.1-1.3,2.7c-0.5-0.8-0.4-1.7-0.4-2.6c0-0.7,0.1-1.5,0-2.2c-0.2-1.2-1.2-1.5-2.2-0.7
			c-1.2,1-2.3,2.1-3.4,3.2c-0.7,0.6-1,1.3-1,2.3c0.1,1.8-0.1,3.6,0,5.4c0.1,1.4-0.3,2.4-1.6,3.2c-0.6-1.4-0.3-2.9-0.3-4.4
			c0-0.8-0.1-1.7-0.9-2c-0.8-0.3-1.4,0.2-1.9,0.7c-1,1-1.9,2.1-3.1,2.9c-0.7,0.5-1,1.2-1,2.1c0.1,2.3,0,4.6,0,6.8
			c0,0.9-0.2,1.6-1.2,2.2c0-1.6,0-3.1,0-4.6c0-0.5,0.1-1,0-1.4c-0.1-0.5-0.3-1.1-0.9-1.3c-0.5-0.2-0.9,0.1-1.4,0.5
			c-1.2,1-2.3,2.1-3.4,3.2c-0.6,0.6-0.9,1.3-0.9,2.2c0.1,2.1,0.1,4.2,0,6.3c0,1.3-0.1,2.6-1.6,3.4c-0.1-1.6-0.2-3.2-0.3-4.8
			c0-0.5,0-1,0-1.5c-0.1-1.1-1-1.5-1.9-0.9c-1.6,1.1-2.8,2.6-4.2,4c-0.3,0.3-0.3,0.8-0.3,1.3c0,2.4,0,4.9,0,7.3c0,1.6,0,1.6-1.2,2.7
			c-0.3-0.2-0.2-0.6-0.2-0.8c0.1-2.1-0.4-4.1-0.2-6.2c0-0.5-0.2-0.9-0.6-1c-0.5-0.1-1-0.2-1.4,0.2c-0.5,0.5-1,1.1-1.7,1.9
			c0-0.8,0-1.2,0-1.5c0-76,0-152,0-228c0-1.4,0-1.4,1.3-0.8c2,0.9,4,1.8,6,2.7c1.5,0.6,2.3,0,2.3-1.6c0-1.1,0-2.2,0-3.5
			c1.1,0.5,2.2,1,3.2,1.4c0.5,0.2,0.3,0.6,0.3,0.9c0,1.2,0,2.4,0,3.7c0,0.9,0.2,1.6,1.2,2c2.1,0.8,4.1,1.8,6.1,2.7
			c1.6,0.6,2.3,0.1,2.3-1.7c0-0.5,0-1.1-0.2-1.6c-0.2-0.5,0-1,0-1.6c1.3,0.3,2.4,1,3.6,1.4c0.3,0.1,0.2,0.3,0.2,0.5
			c-0.1,1.4,0.4,2.9,0.2,4.3c-0.1,0.9,0.3,1.5,1.1,1.8c2.2,1,4.3,2,6.5,2.9c1.1,0.5,2-0.2,2-1.5c0-1.2,0-2.3,0-3.5
			c0.5-0.1,0.7,0.3,1,0.3c2.3,0.4,2.6,1.8,2.5,3.9c-0.2,3.4-0.5,2.8,2.7,4.2c1.6,0.7,3.2,1.4,4.8,2c1.2,0.5,2,0,2.1-1.4
			c0-1.1,0-2.3,0-3.5c1.1,0.4,2,0.8,3,1.2c0.4,0.1,0.4,0.4,0.5,0.8c0.3,1.4,0.2,2.9,0.2,4.3c0,0.7,0.2,1.2,0.9,1.5
			c2.4,1,4.7,2.2,7.3,3c0.9,0.3,1.5-0.1,1.5-1c0-1.3,0-2.6,0-4c1.3,0.5,2.4,1,3.5,1.5c0.4,0.2,0.2,0.5,0.2,0.8c0,1.3,0,2.6,0,3.9
			c0,0.9,0.4,1.5,1.2,1.8c2,0.8,3.9,1.6,5.9,2.5c1.6,0.7,2.4,0.2,2.4-1.6c0-1,0-2,0-3c1.1,0.2,2.1,0.9,3.1,1.2
			c0.5,0.1,0.4,0.5,0.4,0.8c0,1.1,0,2.2,0,3.3c-0.1,1.3,0.4,2.1,1.6,2.6c2.2,0.8,4.3,1.8,6.4,2.7c1.1,0.5,2-0.1,2.1-1.4
			c0.1-1.1,0-2.2,0-3.4c1.3,0.5,2.5,1.1,3.7,1.5c0.5,0.2,0.6,0.6,0.6,1c0,1.5,0,3,0,4.5c0,1,0.3,1.8,1.3,2.2c1.9,0.7,3,1.8,2.5,4
			c-0.2,0.8,0.2,1.8-0.9,2.3c-0.6,0.3-0.4,1-0.1,1.4c2.7,3.8,5.2,7.7,7.8,11.6c0.6,0.9,1.7,0.8,2.5-0.3c1.5-1.9,2.9-3.8,4.3-5.7
			c1.4-1.8,2.7-3.6,4.1-5.5c0.6-0.8,0.6-1.6-0.4-2.1c-0.4-0.2-0.5-0.5-0.5-0.9c0-0.7,0-1.3,0-2c-0.1-0.7,0.2-1,0.8-0.9
			c1.1,0.1,1.2-0.6,1.3-1.4c0-1.3,0-2.5,0-3.8c0-0.6,0.2-0.7,0.7-0.7c1.8-0.1,1.8-0.1,1.9,1.7c0.1,1,0.2,2,0.2,3
			c0,0.9,0.8,1.1,1.5,1.1c2.2,0,4.4,0,6.6,0c1.1,0,1.6-0.5,1.5-1.7c-0.1-1.2,0-2.4,0-3.5c0-0.5,0.2-0.7,0.7-0.7c0,0,0.1,0,0.1,0
			c3-0.1,3-0.1,3,2.8c0,0.5,0,0.9,0,1.4c0.1,1.1,0.7,1.6,1.8,1.6c2.1,0,4.2,0,6.4,0c1.2,0,1.7-0.5,1.7-1.7c0-1.1,0-2.3,0-3.4
			c0-0.5,0.1-0.7,0.7-0.8c2.8-0.2,2.8-0.2,2.8,2.7c0,3,0,3,3,3c1.7,0,3.5,0,5.2,0c1.4,0,1.7-0.3,1.7-1.7c0-1.1,0-2.1,0-3.2
			c0-0.6,0.2-0.7,0.7-0.8c2.8-0.2,2.8-0.2,2.8,2.7c0,3.4-0.1,3.3,3.3,3.2c1.6,0,3.1,0,4.7,0c1.4,0,1.7-0.3,1.7-1.7
			c0-1.1,0-2.3,0-3.4c0-0.6,0.2-0.8,0.7-0.7c0.5,0,1.1,0.1,1.6,0c1.3-0.2,1.6,0.5,1.6,1.6c0,0.9,0,1.9,0,2.8c0,1,0.5,1.5,1.5,1.5
			c2.1,0,4.2,0,6.2,0c1.2,0,1.7-0.5,1.7-1.7c0-1.1,0-2.3,0-3.4c0-0.6,0.2-0.8,0.7-0.7c0.2,0,0.5,0,0.7,0c0.8,0.1,1.9-0.4,2.2,0.2
			c0.4,0.8,0.2,1.9,0,2.9c-0.4,1.8,0.2,3,2.1,2.8c1.9-0.1,3.8,0,5.7,0c1.4,0,1.7-0.3,1.7-1.7c0-1.1,0-2.3,0-3.4
			c0-0.6,0.2-0.8,0.8-0.8c2.7-0.1,2.7-0.1,2.7,2.6c0,0.4,0,0.9,0,1.3c0,1.4,0.3,1.6,1.7,1.8c2,0.3,4,0.2,6.1,0.2
			c1.6,0,2.1-0.6,2.2-2.2c0-1,0-2,0-2.9c0-0.6,0.2-0.8,0.8-0.8c3-0.1,3-0.1,3,2.9c0,0.8,0.3,1.4,0.3,2.2c0,0.5,0.5,0.9,1,0.8
			c2.5-0.1,4.9,0.3,7.4-0.2c0.9-0.2,1.3-0.6,1.3-1.5c0-1.1,0-2.2,0-3.3c-0.1-0.8,0.4-0.9,1-0.8c0.5,0,1.2-0.2,1.2,0.8
			c-0.1,1.5,0,3.1,0,4.6c0,0.5-0.2,0.9-0.6,1.2c-0.5,0.4-0.5,0.9-0.2,1.5c3.5,5.7,7.1,11.5,10.6,17.2c0.2,0.3,0.3,0.7,0.6,1
			c0.8,1,1.7,0.8,2.3-0.5c1.2-2.3,2.4-4.6,3.6-6.9c1.8-3.5,3.6-6.9,5.4-10.4c0.5-1,0.6-1.8-0.5-2.5c-0.5-0.3-0.3-0.8-0.3-1.2
			c0-3,0-6.1,0-9.1c0-0.7-0.6-1.6,0.1-2.1c0.6-0.4,1-1.1,1.8-1.5c0,1.8,0,3.6,0,5.3c0,0.7,0.2,1.3,0.8,1.6c0.5,0.3,0.9-0.1,1.3-0.5
			c1.8-1.5,3.6-3,5.5-4.5c0.5-0.5,0.7-1.1,0.7-1.8c0-2.1,0.1-4.2,0-6.3c-0.1-1.4,0.7-2,1.9-2.7c0,1.8,0,3.5,0,5.2
			c0,1.6,0.9,2,2.3,1.1c0.1,0,0.2,0,0.2-0.1c1.8-1.5,3.6-3.1,5.4-4.6c0.5-0.4,0.6-0.8,0.6-1.4c0-2.1,0-4.2,0-6.4c0-1,0-1.9,1.1-2.4
			c0.4-0.2,0.6-0.8,0.9-1.2c0.1,0.1,0.2,0.2,0.4,0.3c0,1.9,0,3.8,0,5.7c0,0.6,0,1.3,0.7,1.6c0.7,0.3,1.2-0.1,1.7-0.6
			c2.2-2,4.3-3.9,6.6-5.9c0,75.8,0,151.4,0,227.1c0,0-0.1,0-0.1,0c0-1.4-0.1-2.9,0-4.3c0.1-1.8-0.2-3.3-1.5-4.6
			c-1.1-1-1.9-2.3-2.9-3.5c-0.4-0.5-1-0.6-1.5-0.4c-0.5,0.2-0.8,0.7-0.8,1.3c0,0.9,0,1.8,0,3c-1-1.1-2-2-1.9-3.5
			c0.1-0.9-0.1-1.9,0-2.8c0.2-1.8-0.4-3.3-1.6-4.7c-1.2-1.3-2.3-2.7-3.4-4.2c-0.4-0.5-0.8-0.6-1.3-0.5c-0.5,0.1-0.7,0.5-0.9,0.9
			c-0.4,1,0,2-0.3,3c-0.5-0.6-0.9-1.2-1.4-1.7c-0.4-0.4-0.5-0.8-0.5-1.3c0-1.3-0.1-2.6,0-3.9c0.1-1.3-0.4-2.3-1.1-3.3
			c-1.1-1.3-2.2-2.7-3.3-4.1c-0.4-0.5-0.8-0.7-1.4-0.5c-0.5,0.2-0.8,0.6-0.8,1.2c0,0.8,0,1.5,0,2.5c-1.5-1.3-2.3-2.7-2.4-4.5
			c0-0.1,0-0.2,0-0.4c0.5-2.8-0.5-5.1-2.4-7c-0.5-0.5-0.9-1.2-1.4-1.8c-0.4-0.5-0.9-1.1-1.5-1c-0.8,0.1-1,0.9-1.2,1.6
			c-0.1,0.5,0,1,0,1.8c-1.1-1.5-2.6-2.5-2.2-4.5c0-0.2,0-0.3,0-0.5c0.5-2.6-0.7-4.5-2.4-6.2c-1.9-2-1.9-2.1,0.5-3.3
			c2.4-1.3,4.8-2.6,7.2-3.8c1-0.5,1.4-1.1,1.4-2.3c-0.1-2.8,0-5.7,0-8.5c0-0.6,0.1-1,0.7-1.3c1.5-0.8,1.6-1.3,0.6-2.8
			c-2.6-3.8-5.1-7.5-7.7-11.3c-1-1.4-1.4-1.5-2.9-0.7c-3.8,2-7.7,4-11.5,6c-2.2,1.2-4.4,2.3-6.6,3.6c-0.7,0.4-1.2,0.2-1.6-0.4
			c-0.6-0.8-1.2-1.5-1.8-2.3c-0.3-0.3-0.3-0.6-0.3-1c0-6,0-12,0-17.9c0-0.6,0.2-1,0.8-1.3c2.5-1.4,2.6-1.7,0.9-4
			c-3-3.9-5.9-7.8-8.8-11.6c-0.5-0.7-1.1-1.3-1.5-2c-0.6-0.8-1.5-0.9-2.2-0.1c-1.6,1.9-3.2,3.8-4.8,5.7c-1.9,2.3-3.8,4.7-5.7,7.1
			c-0.5,0.6-1,1.2-1.5,1.8c-0.8,1-0.6,2,0.5,2.5c1.6,0.7,2.2,1.7,2.1,3.6c-0.2,3.3-0.1,6.6,0,9.9c0,0.8-0.3,1.3-0.8,1.7
			c-5.4,4.1-10.8,8.1-16.2,12.2c-0.7,0.5-1.4,0.8-2.3,0.8c-2.9-0.1-5.9,0-8.8,0c-0.8,0-1.1-0.1-1.1-1c0-5.5,0-11,0-16.5
			c0-0.7,0.2-1.1,0.8-1.3c0.5-0.2,0.9-0.4,1.4-0.7c0.8-0.4,1.1-1.2,0.5-2c-2.6-3.5-5.2-6.9-7.8-10.4c-1.2-1.6-2.4-3.2-3.6-4.8
			c-0.8-1.1-1.6-1-2.4,0c-3.1,3.7-5.9,7.7-8.8,11.5c-1,1.3-1.9,2.5-2.8,3.8c-0.6,0.9-0.3,1.8,0.5,2c2.5,0.7,2.6,2.4,2.5,4.5
			c-0.1,2.9,0,5.9,0,9.1c-1.1-1.8-2-3.4-2.9-5c-0.4-0.7-0.7-1.4-1.1-2c-0.7-1.1-1.7-1.1-2.4,0c-2.1,3.2-4.3,6.4-6.3,9.7
			c-0.4,0.7-0.9,1.5-0.1,2.3c0.2,0.2,0.2,0.5,0.2,0.8c0,2.2,0,4.5,0,6.7c0,1.1-0.7,0.8-1.3,0.8c-0.6,0-1.2,0.2-1.1-0.8
			c0.1-1.5,0-3,0-4.5c0-1.1-0.5-1.6-1.5-1.5c-1.4,0-2.8,0-4.2,0c-0.8,0-1.2-0.1-1.1-1c0.1-0.5,0-1.1,0-1.6
			C-255.5,94.4-255.4,94.3-255.3,94.3z"/>
		<path class="st2" d="M-376.6,189.6c2.3-2.3,4.5-4.4,6.6-6.5c6.3-6.6,12.9-12.9,19.2-19.5c4.8-5,9.8-9.8,14.6-14.8
			c5.7-6,11.6-11.7,17.3-17.6c1.2-1.3,2.3-1.4,3.9-1.1c6.1,1.2,12,1.1,17.6-1.9c2.3-1.2,4.5-2.7,6.4-4.6c0.4-0.4,0.9-0.6,1.5-0.6
			c14.3,0,28.5,0,42.8,0c0.7,0,1.1,0.3,1.6,0.7c3.1,2.9,6.9,3.8,11,3.1c1.6-0.3,3,0.4,4.5,0.8c3.6,0.8,7.2,0.9,10.7-0.4
			c1.8-0.7,3.3-1.8,4.6-3.3c0.4-0.5,0.9-0.7,1.5-0.7c2.9,0,5.9-0.1,8.8,0.1c2.3,0.2,3.9-0.7,5.6-2.1c3.3-2.7,6.8-5.3,10.2-7.9
			c1.6-1.3,3.2-2.5,4.8-3.8c1-0.8,2-0.2,2.8,0c1.8,0.4,3.7,0.6,5.5,0.8c2.2,0.1,4.4-0.3,6.5-1.1c0.3-0.1,0.8-0.5,1.3,0.1
			c5.7,7.3,11.4,14.6,17.1,22c4.4,5.6,8.8,11.3,13.1,16.9c5.1,6.6,10.1,13.1,15.2,19.7c4.3,5.5,8.6,10.9,12.8,16.4
			c0.7,0.9,1.3,1.8,2,2.7c0.9,1.1,1.5,1.2,2.6,0.4c0,0.1,0.1,0.1,0.1,0.2c0,2.3,0,2.3-2.2,2.3c-89.4,0-178.9,0-268.3,0
			C-375.4,189.6-375.8,189.6-376.6,189.6z"/>
		<path class="st2" d="M-369.8-88.8c0.7,0,1.1,0,1.6,0c87.5,0,174.9,0,262.4,0c0.5,0,1.2-0.4,1.4,0.3c0.2,0.6-0.1,1.1-0.6,1.7
			c-3.2,2.9-6.3,6-9.5,9c-3.8,3.5-7.6,7-11.3,10.6c-2.2,2.1-4.5,4.1-6.7,6.2c-2.7,2.6-5.5,5-8.1,7.7c-0.6,0.6-1.2,0.5-1.7,0.3
			c-1-0.3-2.1-0.3-3.1-0.4c-2-0.1-4,0.3-6,1.1c-2.6,1-4.5,2.9-6.2,5.1c-0.3,0.4-0.7,0.6-1.2,0.6c-36.8,0-73.7,0-110.5,0
			c-0.8,0-1.4-0.3-1.8-0.8c-1.9-1.8-4.2-2.4-6.7-2.5c-0.3,0-0.6,0-0.8,0c-3.4,0.5-6.4-0.8-9.4-2.2c-5.8-2.7-11.7-5.3-17.6-7.9
			c-4.2-1.9-8.3-3.8-12.5-5.6c-5.4-2.4-10.9-4.8-16.3-7.3c-4.1-1.8-8.1-3.7-12.2-5.5c-5.2-2.3-10.3-4.6-15.5-6.9c-2-0.9-4-1.8-6-2.6
			C-368.6-88.2-369-88.4-369.8-88.8z"/>
		<path class="st3" d="M-295.8-35.4c-1.5-0.7-3-1.3-4.5-1.9c-0.5-0.2-0.4-0.5-0.4-0.8c0-1.3,0-2.5,0-3.8c0-0.8-0.3-1.4-1.1-1.7
			c-1.9-0.8-3.8-1.7-5.8-2.5c-0.8-0.3-1.6,0.3-1.6,1.2c0,1.2,0,2.4,0,3.8c-1.5-0.6-2.9-1.3-4.4-1.8c-0.4-0.2-0.3-0.5-0.3-0.8
			c0-1.3-0.1-2.6,0-3.9c0.1-0.9-0.4-1.5-1.2-1.8c-1.8-0.8-3.6-1.6-5.3-2.3c-1.1-0.5-1.9,0.1-2,1.3c0,1.2,0,2.3,0,3.6
			c-1.6-0.6-3-1.2-4.5-1.8c-0.5-0.2-0.5-0.6-0.5-1c0-1.2,0-2.4,0-3.7c0-0.9-0.3-1.6-1.3-2c-1.8-0.7-3.6-1.6-5.5-2.4
			c-0.9-0.4-1.7,0.1-1.7,1.2c0,1.2,0,2.5,0,3.9c-1.6-0.7-3-1.3-4.4-1.9c-0.5-0.2-0.6-0.6-0.6-1c0-1.3,0-2.7,0-4
			c0-0.7-0.3-1.2-0.9-1.5c-1.8-0.8-3.6-1.5-5.4-2.3c-1.3-0.6-2.1,0-2.2,1.6c-0.1,0.9,0,1.8,0,2.7c0,0.6-0.1,0.8-0.7,0.5
			c-1.1-0.5-2.3-1-3.4-1.5c-0.5-0.2-0.6-0.5-0.6-1c0-1.2,0-2.4,0-3.5c0-1.1-0.4-1.9-1.5-2.4c-1.8-0.7-3.6-1.6-5.4-2.3
			c-1-0.4-1.8,0.1-1.9,1.3c-0.1,1,0,2,0,3.1c0,0.5-0.1,0.7-0.7,0.4c-0.7-0.4-1.4-0.8-2.1-0.9c-1.8-0.4-2.2-1.5-1.9-3.1
			c0.1-0.3,0-0.7,0-1.1c0-2.6,0-2.6-2.3-3.7c-1.3-0.6-2.7-1.2-4.1-1.7c-1.2-0.5-2,0.1-2.1,1.4c0,0.9,0,1.8,0,2.7
			c0,0.8-0.1,1.1-1,0.7c-1.9-0.8-3.7-1.8-5.7-2.4c-0.4-0.1-0.4-0.4-0.4-0.7c0-5,0-9.9,0-14.9c0-0.6,0.2-0.7,0.8-0.7
			c1.9,0,3.8,0,5.7,0c1.3,0,2.3,0.8,3.5,1.3c5.6,2.5,11.2,5.1,16.8,7.6c6.1,2.7,12.3,5.4,18.4,8.2c3.4,1.6,6.8,3.1,10.2,4.6
			c6.3,2.8,12.5,5.6,18.8,8.4c3.2,1.4,6.4,2.9,9.7,4.4c4.8,2.2,9.6,4.4,14.5,6.5c0.4,0.2,0.7,0.2,0.7,0.8c0,6,0,12,0,18.1
			c-0.9-0.2-1.6-0.7-2.3-1.1c-0.4-0.2-0.3-0.7-0.3-1.1c0-1.6,0-3.1,0-4.7c0-0.8-0.3-1.3-1-1.6c-2-0.9-4.1-1.8-6.1-2.6
			c-1.2-0.5-1.9,0-1.8,1.3C-295.4-37.8-295.6-36.7-295.8-35.4z"/>
		<path class="st3" d="M-213.8-44.2c18.3,0,36.7,0,55,0c1.1,0,1.5,0.3,1.4,1.4c-0.1,2.5-0.1,5,0,7.5c0,0.8-0.2,1-1,1
			c-3.9-0.1-3.5-0.1-3.5,3.5c0,2.2,0,2.2-2.2,2.2c-2.8,0-2.8,0-2.8-2.8c0-0.4,0-0.8,0-1.2c-0.1-1.2-0.6-1.6-1.8-1.7
			c-1.8,0-3.6,0-5.4,0c-1.2,0-1.7,0.5-1.7,1.7c0,1.1,0,2.1,0,3.2c0,0.6-0.2,0.8-0.7,0.8c-1.1,0-2.3,0-3.4,0c-0.6,0-0.8-0.2-0.8-0.8
			c0-1.2,0-2.4,0-3.6c0-0.9-0.6-1.2-1.4-1.2c-1.8,0-3.6-0.1-5.4,0c-1,0-1.6,0.5-1.5,1.6c0.1,1.1,0,2.3,0,3.4c0,0.6-0.2,0.9-0.8,0.8
			c-1.2-0.1-2.8,0.5-3.7-0.2c-0.8-0.7-0.2-2.3-0.3-3.5c0-1.9-0.3-2.2-2.2-2.2c-1.6,0-3.2,0-4.8,0c-1.2,0-1.7,0.5-1.7,1.7
			c0,1.1,0,2.3,0,3.4c0,0.5-0.2,0.8-0.7,0.8c-1,0-2,0-2.9,0c-0.6,0-0.8-0.2-0.8-0.8c0-1.1,0-2.3,0-3.4c0-1.1-0.5-1.6-1.7-1.7
			c-1.8,0-3.6,0-5.4,0c-1.1,0-1.6,0.6-1.6,1.7c0,1.1,0,2.2,0,3.3c0,0.8-0.3,0.9-1,0.9c-1,0-2,0-3.1,0c-0.7,0-1-0.2-1-0.9
			c0.1-1.1,0-2.3,0-3.4c0-1.1-0.5-1.6-1.6-1.6c-1.7,0-3.5,0-5.2,0c-1,0-1.5,0.5-1.5,1.5c0,1.1,0,2.3,0,3.4c0,0.5-0.2,0.8-0.7,0.8
			c-1.2,0-2.4,0-3.7,0c-0.6,0-0.8-0.2-0.8-0.8c0-1.1,0-2.3,0-3.4c0.1-1.1-0.5-1.4-1.4-1.4c-1.8,0-3.6,0-5.4,0c-1,0-1.5,0.5-1.5,1.5
			c0,1.2,0,2.4,0,3.7c0,0.6-0.3,0.8-0.8,0.7c-1.1-0.3-2.2-0.2-3.4-0.2c-0.6,0-0.8-0.2-0.8-0.8c0-1.2-0.1-2.4-0.2-3.6
			c-0.1-0.9-0.5-1.3-1.3-1.3c-1.8,0-3.7,0-5.5,0c-1,0-1.6,0.6-1.6,1.6c0,1.2,0,2.4,0,3.5c0,0.6-0.2,0.8-0.7,0.7
			c-1.1-0.2-2.3-0.3-3.4-0.2c-0.6,0-0.8-0.2-0.8-0.8c0-1,0-2,0-2.9c0-1.5-0.5-1.9-1.9-1.9c-1.4,0-2.7,0-4.1,0c-1,0-1.5,0.5-1.5,1.5
			c0,1.2,0,2.4,0,3.7c0,0.8-0.4,0.8-1,0.8c-0.6,0-0.9-0.1-0.9-0.8c0-4.7,0-9.4,0-14.2c0-0.8,0.4-0.9,1-0.9c3.9,0,7.8,0,11.7,0
			C-243-44.2-228.4-44.2-213.8-44.2z"/>
		<path class="st3" d="M-381.5,162.8c0.2,2.4-0.1,4.7,0.2,6.9c0.1,0.6,0.3,0.9,0.8,1.1c0.5,0.2,0.9,0,1.2-0.4c0,0,0.1-0.1,0.1-0.1
			c3.2-2.4,4.8-5.4,4.1-9.5c-0.2-1,0.1-2,0-3.1c-0.1-1.3,0.3-2.1,1.7-2.6c-0.2,1.9,0.3,3.8,0.2,5.7c0,0.7,0,1.4,0.7,1.7
			c0.8,0.3,1.2-0.2,1.7-0.7c1.1-1.1,2.1-2.1,3.2-3.2c0.5-0.5,0.8-1.1,0.8-1.9c0-2.2,0.1-4.3-0.1-6.5c-0.1-1.6,0.7-2.4,1.9-3.4
			c0,2,0,3.8,0,5.5c0,0.7,0,1.5,0.8,1.8c0.8,0.3,1.2-0.3,1.7-0.7c2.8-2,4-4.7,3.4-8.2c-0.1-0.8,0.1-1.6,0-2.4
			c-0.3-1.8,0.7-2.8,2.2-3.8c-0.2,1.9,0.2,3.6,0.2,5.3c0,0.7,0.1,1.4,0.9,1.6c0.7,0.2,1.2-0.1,1.6-0.6c1.1-1.2,2.2-2.4,3.4-3.6
			c0.4-0.4,0.5-0.9,0.5-1.5c0-2,0-4,0-6c0-1.7,0.1-1.9,1.8-2.9c0.1,1.5,0.2,3,0.3,4.4c0,0.7,0.1,1.4,0.8,1.6
			c0.7,0.2,1.1-0.3,1.6-0.7c3.1-2.2,4.4-5.1,3.7-8.9c-0.1-0.4,0-0.8,0-1.2c-0.3-1.7,0.6-2.6,2.1-3.3c0,1.3,0,2.4,0,3.6
			c0,0.5,0.1,0.9,0.2,1.4c0.4,0.9,1.2,1.1,1.9,0.5c1.4-1.4,2.8-2.8,4.3-4.2c0.3-0.3,0.5-0.7,0.4-1.2c-0.2-2.2,0.3-4.3,0.2-6.5
			c0-1.1,0.8-1.3,1.7-1.9c0,1.1,0,2.1,0,3.1c0,0.5,0.1,1,0.3,1.5c0.3,0.8,1.2,1.1,1.9,0.4c1.2-1.2,2.5-2.4,3.7-3.7
			c0.4-0.4,0.6-1,0.6-1.6c0-1.3,0.1-2.7,0-4c-0.2-1.6,0.3-2.8,1.9-3.7c0,1.2,0.1,2.3,0.2,3.4c0.1,0.6,0.1,1.2,0.8,1.4
			c0.6,0.2,1.1-0.1,1.5-0.5c0.5-0.5,1-1,1.4-1.5c0.5,0.2,0.3,0.5,0.3,0.8c0,5.2,0,10.4,0,15.6c0,0.6-0.2,1.1-0.6,1.5
			c-2.9,2.8-5.8,5.6-8.6,8.6c-4.9,5.3-10.2,10.2-15.2,15.4c-5.3,5.6-10.9,10.9-16.2,16.5c-5.6,5.9-11.4,11.5-17,17.3
			c-1,1-2,2.2-3,3.2c-0.4,0.4-2.7,0.8-3.2,0.5c-0.4-0.3-0.2-0.7-0.2-1.1c0-6.7,0-13.4,0-20.2c0-1.2,0-2.4,0-3.7
			C-382.9,163.7-382.4,163.2-381.5,162.8z"/>
		<path class="st3" d="M-165.4,91.6c1.6,1.9,2.9,3.6,4.3,5.2c0.2,0.2,0.2,0.5,0.2,0.8c0.1,1.3,0.2,2.7,0.2,4c0.1,1,0.8,1.5,1.4,2.2
			c1.2,1.5,2.4,3,3.6,4.5c0.3,0.4,0.7,0.8,1.3,0.5c0.5-0.3,0.9-0.6,0.9-1.3c0-0.3,0.1-0.6,0.3-0.8c1.6,1.2,2.1,2.8,1.8,4.7
			c-0.4,2.6,1.4,4.2,2.8,6.1c0.4,0.6,1,1.1,1.4,1.7c0.5,0.8,1.1,1.2,1.9,1c0.7-0.2,0.7-1,0.7-1.7c0-0.3,0-0.6,0-0.9
			c2.2,1.4,2.4,3.6,2.3,5.7c-0.1,2.1,0.9,3.5,2,4.9c0.7,0.9,1.5,1.9,2.3,2.8c0.4,0.5,0.8,1.1,1.7,0.8c0.9-0.3,0.9-0.9,0.9-1.7
			c0-0.4,0-0.8,0-1.5c1,1.2,2.2,2,1.9,3.6c0,0.1,0,0.2,0,0.4c-0.5,3,0.6,5.5,2.6,7.6c0.8,0.8,1.5,1.8,2.2,2.7
			c0.3,0.4,0.8,0.5,1.3,0.4c0.5-0.2,0.7-0.6,0.7-1.1c0.1-0.8,0.2-1.5,0.3-2.3c1.4,1,1.7,2.5,1.8,4c0,0.4,0.1,0.9,0,1.3
			c-0.5,2.4,0.6,4.2,2.1,5.9c0.7,0.8,1.4,1.7,2,2.5c0.5,0.7,1.1,0.7,1.7,0.6c0.6-0.2,0.7-0.8,0.7-1.4c0-0.8,0-1.6,0-2.5
			c0.9,0.8,1.4,1.7,2.1,2.5c0.4,0.4,0.5,0.9,0.5,1.5c0,0.9,0.1,1.9,0,2.8c-0.2,2,0.2,3.7,1.7,5.1c1,0.9,1.7,2.1,2.5,3.2
			c0.4,0.5,0.9,0.8,1.4,0.5c0.6-0.2,0.9-0.8,0.9-1.4c0-0.9,0-1.9,0-2.9c1.5,1.2,2.2,2.5,1.9,4.4c-0.1,0.7,0.1,1.3,0,2
			c-0.4,2.3,0.5,4.1,2.3,5.5c0.3,0.2,0.3,0.5,0.3,0.8c0,3.8,0,7.6,0,11.7c-1.3-1.6-2.4-3.1-3.6-4.5c-3.3-4.2-6.5-8.4-9.8-12.6
			c-4-5.2-8-10.3-12-15.5c-4-5.2-8.1-10.3-12.1-15.5c-3.1-4-6.2-8.1-9.3-12.1c-4.2-5.5-8.5-10.9-12.8-16.3c-1.1-1.3-1.6-2.6-1.5-4.3
			c0.1-4.1,0-8.2,0-12.3C-165.4,92.6-165.4,92.3-165.4,91.6z"/>
		<path class="st3" d="M-293.3,89c0,1.1,0.2,1.9-0.6,2.6c-0.3,0.3-0.4,0.9-0.3,1.4c0,1.3,0,2.6,0,3.9c0,0.7,0.1,1.4,0.7,1.8
			c0.4,0.3,0.3,0.6,0.3,0.9c0,7.3,0,14.5,0,21.8c0,1.4-1.2,1.8-2,2.4c-4.4,3.3-9.4,4.7-14.9,4.4c-1.7-0.1-3.4-0.5-5.2-0.7
			c-0.8-0.1-1.1-0.5-1.1-1.4c0-6,0-11.9,0-17.9c0-0.5,0-1-0.3-1.5c-0.5-0.8-1.2-0.9-1.8-0.3c-0.6,0.6-1.1,1.3-1.8,1.9
			c-0.5-1.1-0.3-2.1-0.3-3.1c0-1.5-0.3-1.7-1.7-1.8c-0.7,0-0.4-0.5-0.4-0.8c0.3-2.3,0.2-4.5,0.2-6.8c0-1-0.5-2-0.2-3.1
			c4.6,3.2,9.8,3.6,15.2,2.8C-302.3,94.8-297.3,93.2-293.3,89z"/>
		<path class="st3" d="M-268.6,120.5c-7,0-14,0-21,0c-0.9,0-1.2-0.2-1.2-1.2c0.1-3.9,0-7.9,0-11.8c0-0.7,0.2-1,1-1
			c1.4,0.1,2.7,0,4.1,0c1.8,0,2.2-0.4,2.2-2.2c0-1.3,0-2.7,0-4c0-0.6,0.2-0.9,0.9-0.9c1,0,2,0.1,2.9,0c0.7,0,1,0.2,0.9,0.9
			c-0.1,1.5,0,2.9,0,4.4c0,1.3,0.5,1.8,1.8,1.8c1.7,0,3.5,0,5.2,0c1.3,0,1.8-0.5,1.8-1.8c0-1.4,0.1-2.8,0-4.1
			c-0.1-1,0.3-1.3,1.3-1.2c0.3,0,0.6,0,0.8,0c0.9,0.1,2.3-0.4,2.7,0.2c0.6,0.9,0.3,2.3,0.1,3.4c-0.1,0.7-0.2,1.3-0.1,2
			c0.1,0.9,0.7,1.5,1.7,1.4c1.8,0,3.5,0,5.3,0c1.2,0,1.7-0.5,1.7-1.7c0-1.5,0-3,0-4.5c0-0.7,0.2-0.9,0.9-0.9c1.3,0,2.5,0,3.8,0
			c0.6,0,0.8,0.2,0.8,0.8c-0.1,1.4,0.1,2.8-0.1,4.2c-0.2,1.2,0.5,2,1.7,2c0.8,0,1.6,0,2.4,0c0.6,0,0.8,0.1,0.8,0.8
			c0,4.1,0,8.3,0,12.4c0,0.9-0.6,0.8-1.1,0.8C-254.5,120.5-261.6,120.5-268.6,120.5z"/>
		<path class="st3" d="M-231.3,101.9c0-7.2,0-14.3,0-21.5c0-0.8,0.1-1.1,1-0.8c4.2,1.4,8.5,1.2,12.7-0.1c1.4-0.4,1.4-0.5,1.4,1
			c0,13.6,0,27.3,0,40.9c0,0.8-0.2,1.3-0.9,1.8c-2.3,1.7-4.9,2.4-7.8,2.2c-1.9-0.1-3.7-0.2-5.5-0.8c-0.7-0.2-0.9-0.5-0.9-1.3
			C-231.3,116.2-231.3,109.1-231.3,101.9z"/>
		<path class="st3" d="M-111.2-54.5c0-2.1,0-4.1,0-6c0-0.6,0-1.1-0.6-1.4c-0.6-0.3-1.1,0-1.5,0.3c-1.6,1.2-3.1,2.7-4.6,4.1
			c-0.4,0.4-0.4,0.8-0.4,1.3c0,2.3,0,4.6,0,6.8c0,0.6-0.1,1.1-0.6,1.4c-1,0.8-2,1.6-3.2,2.6c0-2,0-3.7,0-5.4c0-0.6,0.1-1.3-0.6-1.6
			c-0.7-0.3-1.3,0-1.9,0.6c-0.9,0.9-1.9,1.7-2.9,2.5c-0.9,0.8-1.6,1.7-1.5,3c0.1,2,0,4.1,0,6.1c0,0.6-0.1,1-0.6,1.3
			c-0.8,0.7-1.7,1.4-2.7,2.2c0-1.8,0-3.4,0-5c0-0.7,0.1-1.4-0.7-1.8c-0.7-0.4-1.2,0.1-1.8,0.5c-1.6,1.2-3,2.8-4.8,4
			c0-4.1,0-8,0-11.9c0-0.8,0.7-1.2,1.2-1.6c1.8-1.3,3.2-3.1,4.9-4.5c3.3-3,6.5-6.1,9.7-9.2c3.8-3.5,7.5-7,11.3-10.6
			c2.3-2.2,4.8-4.4,7.1-6.7c0.2-0.2,0.4-0.6,0.7-0.4c0.3,0.2,0.2,0.6,0.2,0.9c0,7.2,0,14.3,0,21.5c0,0.7-0.3,1.2-0.8,1.6
			c-1.8,1.6-3.6,3.2-5.4,4.9C-110.6-54.8-110.8-54.8-111.2-54.5z"/>
		<path class="st3" d="M-182.1,88.6c0-5.5,0-11.1,0-16.6c0-1.1,0.3-0.9,1.1-0.7c2.5,0.8,5,1.3,7.7,1.1c2-0.2,3.9-0.6,5.7-1.3
			c0.8-0.4,0.7,0.2,0.7,0.7c0,3.1,0,6.1,0,9.2c0,1.5,0,3.1,0,4.6c0,0.8,0.2,1.5-0.7,2.1c-0.4,0.2-0.2,0.8-0.2,1.2c0,5.3,0,10.7,0,16
			c0,0.8-0.2,1.3-1,1.7c-2.9,1.1-5.8,1.2-8.8,0.8c-1.1-0.1-2.2-0.5-3.3-0.6c-1-0.1-1.2-0.6-1.2-1.6
			C-182.1,99.6-182.1,94.1-182.1,88.6z"/>
		<path class="st3" d="M-184.7,95.2c0,4,0,7.7,0,11.5c0,0.5-0.2,0.8-0.6,1c-3.8,2.9-7.6,5.8-11.3,8.8c-1.6,1.2-3.2,2.5-4.7,3.8
			c-0.4,0.3-0.8,0.4-1.3,0.4c-3.5,0-6.9,0-10.4,0c-0.8,0-1-0.3-1-1c0-4,0-7.9,0-11.9c0-0.9,0.3-1,1.1-1c3,0,6.1-0.2,9.1,0.1
			c2.6,0.2,4.5-0.8,6.4-2.3C-193.3,101.4-189.1,98.4-184.7,95.2z"/>
		<path class="st3" d="M-304.7,77.5c3,0,5.8,0.4,8.3,1.7c3.4,1.8,4.3,4.7,1.5,8c-1.8,2-4.1,3.3-6.6,4.3c-3.2,1.3-6.5,1.8-9.9,2
			c-3,0.2-6-0.5-8.7-1.9c-3.3-1.7-3.8-5.1-1.2-7.9c2.9-3,6.5-4.6,10.5-5.5C-308.6,77.8-306.6,77.5-304.7,77.5z"/>
		<path class="st3" d="M-139-35.7c0,2.6,0,4.9,0,7.3c0,0.6-0.1,0.8-0.7,0.5c-2.6-1.1-5.3-1.1-8.1-0.9c-2.2,0.2-4.4,0.7-6.4,1.6
			c-0.7,0.3-0.9,0.2-0.9-0.6c0-6,0-12,0-17.9c0-0.6,0.2-1.1,0.6-1.6c2.2-2.2,4.7-3.5,7.9-3.5c1.2,0,2.4,0,3.6,0.2
			c1,0.2,1.1,0.6,1.1,1.4c0,4.1,0,8.3,0,12.4c0,1.5,0.9,2.3,2,1.8C-139.6-35.2-139.4-35.4-139-35.7z"/>
		<path class="st4" d="M-155.8,104.4c-0.8-1-1.5-1.9-2.3-2.8c-0.2-0.3-0.3-0.5-0.3-0.9c0-0.5,0-0.9,0-1.4c0.1-1.7,0-3.3-1.3-4.5
			c-0.5-0.4-0.4-0.6,0.1-0.9c4.5-2.4,9-4.8,13.6-7.1c1.2-0.6,2.3-1.2,3.5-1.8c0.5-0.3,0.7-0.3,1.2,0.3c2.1,3.1,4.3,6.1,6.4,9.1
			c0.4,0.6,0.5,1-0.3,1.4c-4.9,2.6-9.7,5.3-14.5,8c-1.9,1-1.9,1-3.3-0.6c-0.5-0.5-1-1.3-1.8-0.9
			C-155.7,102.5-155.7,103.5-155.8,104.4z"/>
		<path class="st4" d="M-266.8,69.7c-0.3,0.3-0.7,0.7-1.1,1.1c-3.1,2.6-6.1,5.2-9.2,7.8c-1.1,0.9-1.1,0.9-1.5-0.4
			c-1.8-5.5-3.5-10.9-5.3-16.4c-0.2-0.5-0.1-0.8,0.2-1.2c2.2-2.3,4.5-4.6,6.7-6.9c0.8-0.9,1.7-1.9,2.5-2.7c0.3-0.3,0.5-0.6,0.7,0.1
			c2.2,5.9,4.4,11.7,6.6,17.6C-267,69-266.9,69.2-266.8,69.7z"/>
		<path class="st3" d="M-244.1,97c3.5,0.7,6.9,0.3,10.4-0.5c0,0.6,0,1.1,0,1.6c0,8.3,0,16.7,0,25c0,0.7,0,1.1-1,1.3
			c-3.4,0.4-6.4-0.4-9-2.6c-0.3-0.3-0.4-0.6-0.4-1C-244.1,112.8-244.1,105-244.1,97z"/>
		<path class="st3" d="M-272.6-39.5c0.2,3.5-0.4,7.5-0.2,11.4c0,1.1,0.2,2,1.6,2.1c1,0.1,0.4,0.9,0.5,1.4c0,0.7-0.5,0.4-0.8,0.2
			c-3.4-1.5-6.7-1.2-10.1,0.1c-0.3,0.1-0.8,0.6-1,0c-0.2-0.4-0.3-1,0.2-1.4c0.8-0.6,0.9-1.4,0.9-2.3c0-6.2,0-12.3,0-18.5
			c0-1,0.3-1.3,1.3-1.2c1.9,0.1,3.7-0.1,5.5,0.7c0.2,0.1,0.4,0.1,0.5,0.2c1,0.6,1.9,1.3,1.7,2.8C-272.7-42.6-272.6-41.3-272.6-39.5z
			"/>
		<path class="st4" d="M-174.5,53.9c1.2,1.6,2.4,3,3.6,4.6c2,2.6,3.9,5.2,5.9,7.7c0.3,0.5,0.4,0.6-0.1,1c-5.2,3.2-10.7,3.9-16.4,1.4
			c-0.9-0.4-1.9-0.8-2.8-1.4c-0.4-0.3-0.5-0.5-0.1-0.9c3.1-3.8,6.2-7.6,9.3-11.4C-174.9,54.6-174.7,54.3-174.5,53.9z"/>
		<path class="st4" d="M-214,75.6c-2.7,1.2-5.5,2-8.4,2.5c-4,0.6-7.5-0.7-11-2.2c-0.6-0.3-0.4-0.5-0.1-0.8c1.6-2.1,3.2-4.3,4.8-6.4
			c1.5-1.9,3-3.8,4.5-5.8c0.4-0.5,0.5-0.6,0.9,0c2.9,3.9,5.8,7.8,8.8,11.8C-214.4,75-214.2,75.3-214,75.6z"/>
		<path class="st4" d="M-146-8.8c-1.8-2.9-3.5-5.8-5.3-8.7c-1.2-1.9-2.3-3.8-3.5-5.7c-0.4-0.7-0.6-0.9,0.4-1.4c3-1.3,6.1-2.2,9.4-2
			c2.3,0.1,4.5,0.7,6.5,1.9c0.5,0.3,0.6,0.5,0.3,1.1c-1.4,2.7-2.8,5.5-4.2,8.2C-143.7-13.2-144.6-10.9-146-8.8z"/>
		<path class="st4" d="M-265.6,96.6c-3.1-2.2-6.2-4.4-9.3-6.6c-0.3-0.2-0.4-0.4-0.2-0.8c1.4-2.6,2.8-5.3,4.2-7.9
			c0.2-0.3,0.3-0.5,0.7-0.2c2.6,2.2,5.3,4.4,8,6.6c0.6,0.5,0.7,1,0.4,1.7C-263.2,91.7-264.4,94.1-265.6,96.6z"/>
		<path class="st4" d="M-200.1,103.5c-0.2-1.4-0.4-2.6-0.5-3.8c-0.1-0.8-0.1-1.5,0.8-2.2c5.1-3.7,10-7.5,15.2-11.5c0,2.1,0,4,0,6
			c0,0.3-0.2,0.4-0.4,0.5C-190.1,96.1-195.1,99.8-200.1,103.5z"/>
		<path class="st3" d="M-150.1,106.7c4.8-2.7,9.5-5.3,14.4-7.9c0,2.7,0,5.2,0,7.7c0,0.5-0.3,0.6-0.6,0.8c-3.3,1.8-6.7,3.5-10,5.2
			c-0.3,0.1-0.6,0.3-0.8,0.4c-1.8,1-1.8,1-1.8-1.1c0-0.2,0-0.4,0-0.6C-148.9,109.6-148.7,108-150.1,106.7z"/>
		<path class="st4" d="M-283.2-20.7c4.5-2.8,8.9-3.2,13.3,0c-2.3,3-4.6,6.2-7.1,9.4C-279.1-14.5-281.2-17.6-283.2-20.7z"/>
		<path class="st4" d="M-208.3,104.2c-1.6,0-3.3,0-4.9,0c-0.6,0-0.8-0.2-0.7-0.7c0,0,0-0.1,0-0.1c0-1.3-0.5-3.1,0.2-3.9
			c0.7-0.8,2.5-0.2,3.8-0.3c2,0,4,0,6,0c0.7,0,0.8,0.2,0.9,0.8c0.2,1.1,0.1,2.2,0.4,3.2c0.2,0.6,0,1-0.8,1
			C-205,104.2-206.7,104.2-208.3,104.2z"/>
		<path class="st3" d="M-259.6,90.1c1.4,1,1.9,2.3,1.6,3.9c-0.2,1.3,0.6,2.7-0.9,3.7c-0.2,0.1-0.1,0.6-0.1,0.9c0,1.5,0,3,0,4.5
			c0,0.7-0.2,0.9-0.9,0.9c-2.9,0.1-2.9,0.1-2.9-2.8c0-1.3,0.4-2.6-0.4-3.8c-0.1-0.1,0.1-0.3,0.1-0.4
			C-262,94.6-260.7,92.4-259.6,90.1z"/>
		<path class="st3" d="M-277.9,89c0.1-2.2,0.3-4.2,0.4-6.3c0-0.5,0.2-0.8,0.6-1.1c2.5-2.1,4.9-4.2,7.4-6.2c1.1-0.9,2.1-1.8,3.3-2.7
			c0,2.9,0,5.7,0,8.6c-1.3-1.1-2.5-2.1-3.8-3c-1.1-0.8-1.6-0.6-2.2,0.6c-1.6,3.1-3.5,6.2-5,9.4C-277.4,88.5-277.7,88.7-277.9,89z"/>
		<path class="st4" d="M-239,86.6c1.4,2.5,2.9,5,4.4,7.6c-3,0.7-5.8,1.4-8.8,0.4c-0.4-0.1-0.8-0.2-0.5-0.7c1.5-2.3,3.1-4.7,4.6-7
			C-239.2,86.7-239.1,86.6-239,86.6z"/>
		<path class="st3" d="M-280.4,87.2c-1.1-3.1-2.3-6-3.1-9.1c-0.5-2.1-0.2-4.3,0.2-6.5c0.7,2.3,1.5,4.6,2.2,6.9
			c0.1,0.4,0.3,0.9,0.5,1.3c1.1,2.2,0.4,4.6,0.5,6.9C-280.1,86.9-280.3,87-280.4,87.2z"/>
		<path class="st3" d="M-269.1,97.1c-0.7,0-1.1,0-1.5,0c-1.3,0-1.7,0.4-1.7,1.7c0,1.5,0,3,0,4.5c0,0.5-0.2,0.7-0.7,0.7
			c-0.4,0-0.9,0.2-0.9-0.5c0-3.2,0-6.3,0-9.8C-272.3,94.8-270.8,95.9-269.1,97.1z"/>
		<path class="st0" d="M-315.2,50.5c0,4.4,0,8.7,0,12.9c0,1.5-0.2,1.9-1.9,2.4c-2.9,0.8-5.8,1.9-8.7,2.7c-3.6,1-2.4,1.6-5.2-1.2
			c-1.6-1.6-3.3-3.3-5-5.1c-0.1,0.7-0.2,1.3-0.7,1.7c-0.5,0.4-1.1,0.3-1.7,0.3c-6.2,0-12.3,0-18.5,0c-1.7,0-2.1-0.4-2.1-2.1
			c0-2.6,0-5.3,0-7.9c0-0.8-0.2-1.1-1-1.1c-1.8,0-2.1-0.5-1.4-2.2c1.1-2.7,2.1-5.4,3.2-8.1c0.4-1,1.3-1.6,1.9-2.5
			c1.5-2.1,3.4-2.6,5.8-2.4c3.3,0.2,6.7,0,10,0.1c0.7,0,1.1-0.2,1.4-0.9c1.9-4.1,3.9-8.1,5.8-12.1c0.6-1.2,1.4-1.3,2.3-0.4
			c4.1,4,8.1,8,12.2,11.9c0.8,0.8,1,1.8,1.5,2.7c1.6,3.4,3.1,6.8,4.6,10.3c0.1,0.3,0.3,0.5,0.3,0.9c0,0.5-0.2,1-0.7,1.2
			c-0.5,0.2-0.9,0.1-1.2-0.3C-314.8,51-314.9,50.8-315.2,50.5z"/>
		<path class="st0" d="M-225,42.4c0,3.3,0,6.4,0,9.6c0,1-0.3,1.6-1.2,2c-2.9,1.3-5.8,2.5-8.6,4c-1.8,1-3.6,1.9-5.4,2.8
			c-3.6,1.8-7.2,3.4-10.7,5.2c-0.8,0.4-1.5,0.4-2.1-0.1c-4.7-3.4-9.3-6.8-14-10.1c-0.6-0.4-0.8-0.9-0.8-1.7c0-2.4,0-4.9,0-7.3
			c0-0.8-0.2-1.3-0.9-1.7c-1.3-0.8-1.4-1.6-0.3-2.7c2.6-2.8,5.2-5.6,7.9-8.3c0.4-0.4,0.7-0.8,1-1.3c0.8-1,1.7-0.9,2.6-0.3
			c1.7,1.1,3.5,2.2,5.2,3.3c0.6,0.4,0.8,0.3,1.1-0.3c2.1-3.2,4.2-6.4,6.4-9.5c0.8-1.2,1.2-1.3,2.4-0.6c2.6,1.5,5.2,3.1,7.8,4.6
			c1.1,0.6,2.1,1.4,3.2,1.9c1.6,0.8,3,1.9,4.1,3.4c1.5,2,3.1,3.7,4.6,5.7c0.4,0.5,1.1,1.1,0.2,1.9c-0.8,0.8-1.4,0.3-2-0.2
			C-224.6,42.6-224.7,42.6-225,42.4z"/>
		<path class="st0" d="M-295.9,97.1c0,0.8,0,1.6,0,2.5c0,0.8-0.5,1.3-1.2,1.4c-0.8,0.1-1.2-0.6-1.3-1.2c-0.1-1.8-0.1-3.7,0-5.5
			c0-0.6,0.5-1.2,1.3-1.2c0.9,0,1.1,0.7,1.2,1.3C-295.8,95.3-295.9,96.2-295.9,97.1C-295.9,97.1-295.9,97.1-295.9,97.1z"/>
		<path class="st0" d="M-321.1,99.4c0-0.9,0-1.7,0-2.4c0.1-0.7,0.3-1.4,1.2-1.5c0.9-0.1,1.2,0.5,1.3,1.2c0.2,1.9,0.2,3.7,0,5.6
			c-0.1,0.8-0.6,1.1-1.3,1.1c-0.7,0-1-0.5-1.1-1.1C-321.2,101.3-321,100.3-321.1,99.4z"/>
		<path class="st0" d="M-312.6,100.7c0,0.9,0,1.7,0,2.4c0,0.9-0.5,1.7-1.4,1.7c-1,0-1.2-0.9-1.2-1.7c0-1.6,0-3.1,0-4.7
			c0-0.8,0.4-1.3,1.2-1.5c0.9-0.1,1.1,0.5,1.3,1.2C-312.5,99-312.7,99.9-312.6,100.7z"/>
		<path class="st0" d="M-307,100.8c0,0.9,0,1.8,0,2.7c0,0.8-0.5,1.2-1.1,1.3c-0.6,0.1-1.2-0.4-1.2-1c-0.1-2-0.1-3.9,0-5.9
			c0-0.6,0.6-1.1,1.4-1c0.7,0.1,1,0.5,1,1.2C-307,99-307,99.9-307,100.8z"/>
		<path class="st0" d="M-303.4,99.3c0-0.9,0-1.7,0-2.6c0-0.8,0.4-1.2,1.2-1.3c0.8-0.1,1.1,0.5,1.2,1.1c0.1,1.9,0.1,3.8,0,5.6
			c0,0.5-0.4,1.2-1.1,1.1c-0.7-0.1-1.2-0.4-1.2-1.3C-303.4,101.1-303.4,100.2-303.4,99.3z"/>
		<path class="st0" d="M-222.6,93.7c0,1.3,0,2.7,0,4c0,0.9-0.5,1.4-1.2,1.4c-0.7,0-1.1-0.6-1.1-1.4c0-2.8,0-5.5,0-8.3
			c0-0.9,0.5-1.2,1.2-1.3c0.8,0,1.2,0.5,1.2,1.3C-222.6,91-222.6,92.4-222.6,93.7z"/>
		<path class="st0" d="M-176.2,82.8c0,1.5,0,2.8,0,4c0,0.9-0.5,1.4-1.2,1.5c-0.8,0.2-1-0.5-1.2-1.1c-0.1-0.4-0.2-0.7-0.2-1.1
			c0-2.2,0-4.3,0-6.5c0-0.5,0.1-1,0.3-1.5c0.2-0.5,0.7-0.8,1.2-0.8c0.4,0,0.7,0.4,0.9,0.9C-176,79.9-176.4,81.5-176.2,82.8z"/>
		<path class="st0" d="M-173.9,97.5c0-1.3,0-2.7,0-4c0-0.8,0.3-1.3,1.1-1.3c0.9,0,1.2,0.5,1.2,1.2c0,1.6,0,3.3,0,4.9c0,1,0,2,0,2.9
			c0,0.9-0.2,1.7-1.2,1.7c-1.1,0-1.2-0.9-1.2-1.7C-173.8,100-173.9,98.7-173.9,97.5z"/>
		<path class="st0" d="M-238.2,114.9c0,1.3,0,2.6,0,3.9c0,0.9-0.5,1.4-1.2,1.4c-0.8,0-1.2-0.6-1.1-1.4c0-2.7,0-5.3,0-8
			c0-0.9,0.5-1.4,1.2-1.4c0.7,0,1.1,0.6,1.2,1.4C-238.2,112-238.2,113.4-238.2,114.9z"/>
		<path class="st0" d="M-144.4,108.3c-0.1,0.4,0.1,0.9-0.2,1.4c-0.3,0.5-0.7,0.8-1.2,0.8c-0.5,0-0.9-0.3-1.1-0.9
			c-0.3-0.9-0.2-1.9-0.1-2.8c0.1-0.6,0.4-1.2,1.2-1.2c0.8,0,1.2,0.6,1.3,1.2C-144.3,107.3-144.4,107.7-144.4,108.3z"/>
		<path class="st0" d="M-139,105.2c0,0.4,0,0.9,0,1.3c0,0.6-0.3,1-0.9,1c-0.5,0-1,0-1.2-0.7c-0.4-1-0.3-2.1-0.2-3.1
			c0.1-0.6,0.5-1,1.3-0.9c0.7,0.1,1.1,0.4,1,1.2C-139,104.4-139,104.8-139,105.2z"/>
		<path class="st4" d="M-329.2,52.1c-3.2-3.2-6.2-6.3-9.3-9.3c-0.4-0.4-0.5-0.7-0.2-1.2c1.7-3.4,3.4-6.8,5-10.2
			c0.6-1.1,1.1-2.3,1.6-3.5c0.2-0.6,0.4-0.7,1-0.2c3.3,3.3,6.6,6.6,9.9,9.9c0.5,0.5,0.2,0.8,0,1.2c-1.5,2.5-3,5-4.5,7.5
			C-326.9,48.1-328,50.1-329.2,52.1z"/>
		<path class="st3" d="M-319.6,40.6c1.4,2.4,2.2,4.8,2.1,7.6c-0.2,4.7-0.1,9.4,0,14c0,0.8-0.2,1.2-1.1,1.5c-2.3,0.6-4.5,1.3-6.8,2.1
			c-0.9,0.3-0.9,0-0.9-0.7c0-4.2,0-8.4,0-12.6c0-1.3,1-2.2,1.5-3.2C-323.1,46.4-321.3,43.5-319.6,40.6z"/>
		<path class="st3" d="M-347.7,61.7c-2.6,0-5.3,0-7.9,0c-0.8,0-1.2-0.2-1.1-1.1c0.1-2.2,0.1-4.4,0-6.6c0-0.8,0.2-1.1,1-1.1
			c5.4,0,10.7,0,16.1,0c0.7,0,1,0.2,1,1c-0.1,2.3-0.1,4.6,0,6.8c0,0.8-0.3,1-1,1C-342.3,61.7-345,61.7-347.7,61.7z"/>
		<path class="st4" d="M-358.8,50.6c0.9-2.2,1.8-4.2,2.6-6.3c0.2-0.5,0.4-0.5,0.8-0.5c4.6,0,9.3,0,13.9,0c0.3,0,0.6,0,0.9,0.3
			c1.5,1.5,3,3,4.5,4.5c0.7,0.6,0,1.2,0,1.8c0,0.4-0.6,0.2-0.9,0.2c-6.9,0-13.9,0-20.8,0C-358.2,50.6-358.5,50.6-358.8,50.6z"/>
		<path class="st3" d="M-328.6,66.2c-1.2-0.9-2-2.1-2.9-3c-1.4-1.4-2.7-2.7-4.1-4.1c-0.4-0.4-0.6-0.8-0.6-1.4c0-1,0-2,0-3.1
			c0-0.9-0.2-1.8,1.3-1.7c0.9,0,0.8-1.1,1.3-1.8c1,1.1,2.1,2.2,3.1,3.3c0.4,0.4,0.8,0.9,1.4,0.9c0.4,0,0.4,0.2,0.4,0.5
			C-328.6,59.2-328.6,62.6-328.6,66.2z"/>
		<path class="st4" d="M-354,41.3c0.5-0.9,1.2-1.1,2.2-1.1c3.6,0,7.2,0,10.9,0c-0.2,0.7-0.3,1.2-1.1,1.2c-3.9,0-7.8,0-11.8,0
			C-353.8,41.4-353.9,41.3-354,41.3z"/>
		<path class="st4" d="M-245.7,42.6c-0.2,0.5-0.6,0.8-0.8,1.1c-2.2,2.8-4.4,5.5-6.6,8.4c-0.4,0.5-0.4,0.4-0.8,0.1
			c-4-2.7-8.1-5.5-12.1-8.2c-0.4-0.3-0.7-0.5-0.2-0.9c0.1-0.1,0.2-0.3,0.3-0.5c2.2-2.4,4.4-4.7,6.6-7.1c0.6-0.6,1.1-0.7,1.7-0.3
			c1.4,0.9,2.8,2,4.4,2.8c2.3,1.2,4.5,2.5,6.7,3.9C-246.2,42.1-246,42.4-245.7,42.6z"/>
		<path class="st4" d="M-237.1,45c-3.1-1.9-6.2-3.9-9.4-5.8c-0.6-0.4-1.2-0.9-1.9-1.2c-1.2-0.5-0.8-1-0.3-1.8c1.7-2.5,3.5-5,5.1-7.5
			c0.5-0.7,0.8-0.6,1.4-0.3c3.4,2,6.8,4.1,10.2,6c0.6,0.3,0.5,0.6,0.2,1c-1.5,2.7-3,5.4-4.5,8.2C-236.6,44-236.9,44.4-237.1,45z"/>
		<path class="st3" d="M-250.7,63.1c0-3.5-0.1-6.8,0.2-10.1c0-0.4,0.2-0.7,0.4-1c2-2.6,4.1-5.2,6.1-7.8c0.3-0.4,0.5-0.4,0.9-0.1
			c1.8,1.1,3.5,2.3,5.4,3.3c1,0.5,1.2,1.1,1.1,2.1c-0.1,2,0,4.1,0,6.1c0,0.6-0.2,0.8-0.7,1.1c-3.4,1.6-6.8,3.3-10.2,4.9
			C-248.4,62.1-249.5,62.6-250.7,63.1z"/>
		<path class="st3" d="M-253,62.9c-3.8-2.8-7.4-5.4-11.1-7.9c-1.2-0.8-1.5-1.7-1.4-3c0.1-1.4,0-2.9,0-4.6c1.5,1,2.8,1.8,4.1,2.7
			c2.7,1.7,5.2,3.7,8.1,5.2c0.3,0.2,0.3,0.4,0.3,0.7C-253,58.2-253,60.5-253,62.9z"/>
		<path class="st3" d="M-233.9,54.9c0-3.5,0-6.8,0-10.1c0-0.8,0.4-1.3,0.7-1.9c1-1.9,2.2-3.8,3.2-5.7c0.4-0.8,0.7-0.7,1.1,0
			c0,0,0,0.1,0,0.1c1.7,1.4,1.7,3.2,1.6,5.2c-0.1,2.8,0,5.6,0,8.4c0,0.7-0.2,1.2-0.9,1.5C-230.1,53.1-231.9,54-233.9,54.9z"/>
		<path class="st0" d="M-320.6,52.3c0,0.4,0,0.8,0,1.2c0,0.6-0.3,1.1-0.9,1.1c-0.6,0-1-0.1-1.2-0.8c-0.3-1-0.2-2.1-0.1-3.1
			c0.1-0.7,0.7-0.9,1.3-0.8c0.7,0.1,0.9,0.5,0.9,1.1C-320.6,51.5-320.6,51.9-320.6,52.3z"/>
		<path class="st0" d="M-343,57c0,0.4,0.1,1-0.2,1.5c-0.2,0.4-0.5,0.8-1.1,0.8c-0.5-0.1-0.9-0.3-1.1-0.8c-0.3-1-0.3-1.9-0.2-2.9
			c0.1-0.6,0.4-1.3,1.2-1.2c0.7,0.1,1.2,0.5,1.3,1.3C-343,56.1-343,56.5-343,57z"/>
		<path class="st0" d="M-352.5,56.8c0.1-0.6-0.1-1.1,0.2-1.6c0.2-0.4,0.5-0.9,1-0.8c0.6,0.1,1,0.2,1.2,0.9c0.3,1,0.2,1.9,0.1,2.9
			c-0.1,0.7-0.5,1.1-1.2,1.1c-0.7,0-1.1-0.5-1.2-1.2C-352.4,57.7-352.4,57.2-352.5,56.8z"/>
		<path class="st0" d="M-240.1,54.1c0,0.5,0.1,1,0,1.4c-0.1,0.5-0.3,1.1-1.1,1c-0.7-0.1-1.2-0.4-1.2-1c-0.1-0.9-0.1-1.9,0-2.8
			c0-0.7,0.6-1,1.1-1c0.6,0,1.1,0.3,1.2,1C-240,53.2-240.1,53.7-240.1,54.1C-240.1,54.1-240.1,54.1-240.1,54.1z"/>
		<path class="st0" d="M-245,56.6c0,0.5,0,0.9,0,1.4c0,0.5-0.4,0.9-0.9,0.9c-0.5,0-1,0-1.2-0.6c-0.4-1.1-0.2-2.2-0.2-3.4
			c0-0.6,0.7-0.8,1.3-0.8c0.5,0,1,0.3,1,0.9C-245,55.5-245,56.1-245,56.6z"/>
		<path class="st0" d="M-229.7,49.4c0,0.5,0,0.9,0,1.4c0,0.5-0.3,0.9-0.9,0.9c-0.5,0.1-1,0-1.3-0.6c-0.4-1.1-0.3-2.3-0.2-3.5
			c0.1-0.7,0.9-0.8,1.4-0.8c0.4,0,0.9,0.5,0.9,1.1C-229.7,48.5-229.7,49-229.7,49.4z"/>
	</g>
	<rect id="rect3315-5-7-8-3-1-6" x="-384.3" y="-90.1" class="st5" width="281.2" height="281.2"/>
	<path id="path4161-9-2" class="st5" d="M-379.2,190.6l61.2-62.2c8.7,2,17.5,2.8,27-6.5l45.6,0c2.8,3.3,6.9,4.6,12.5,3.6
		c10,3.1,15.3,1,18.6-3.4l12.8,0l18.6-14.5c5.1,1.4,10.2,2.3,15.7-0.2l61.7,79.5"/>
	<path id="path4163-3-3" class="st5" d="M-174.4,52.1l11.6,15.2c-8.2,5.8-16.1,5.3-23.9,0L-174.4,52.1z"/>
	<path id="path4165-8-9" class="st5" d="M-223.9,60.4l11.7,15.8c-12,5.9-17.9,3-23.8,0L-223.9,60.4z"/>
	<path id="path4935-6-7" class="st5" d="M-215.1,78.1l0,44.1"/>
	<path id="path4937-7-0" class="st5" d="M-232.7,125.2l0-47.3"/>
	<path id="path4939-4-2" class="st5" d="M-239.1,84.3l-6.9,10.5c2.1,1.4,4.4,2.7,13.2,0.4L-239.1,84.3z"/>
	<path id="path4941-1-0" class="st5" d="M-245.3,122.1V95.8"/>
	<path id="path4943-1-0" class="st5" d="M-292.2,82.7c0.9,4.8-5.6,10.1-14.4,11.7c-8.8,1.6-16.7-1-17.5-5.8
		c-0.9-4.8,5.6-10.1,14.4-11.7C-300.9,75.3-293.1,77.9-292.2,82.7L-292.2,82.7z"/>
	<path id="path4945-1-0" class="st5" d="M-292.2,122.3l0-39.5"/>
	<path id="path4947-2-4-9" class="st5" d="M-317.8,128.6v-21.2"/>
	<path id="path4949-9-9" class="st5" d="M-324.2,87.6l0,18.4"/>
	<path id="path4951-1-0" class="st5" d="M-317.9,107.4l-3.9,3.9l-0.3-6.7l-4.3,4.1l0.1,7.1l-3.8,3.9l-0.3-7.1l-4,3.7l-0.1,7.7
		l-4.4,4.4l-0.1-7.8l-4.6,4.4l0,8.1l-3.7,3.7l-0.3-8l-4.1,3.8l-0.1,8.7l-3.9,4l-0.4-8.5l-4.4,4.1l0,9.1l-3.6,3.6l-0.1-9.1l-4.1,4
		l-0.1,9.5l-3.9,3.9l-0.3-9.5l-3.9,3.7l-0.1,10.1l-3.8,3.8l-0.1-10.2l-3.2,3.2"/>
	<path id="path4983-6-2-6" class="st5" d="M-292,105.4h7.2l0.1-7l7.1,0.1l0,6.9l6.4,0l0-7l7.2,0.1l-0.1,6.9h6.2l0-7l7.9,0l-0.1,7
		h4.2"/>
	<path id="path4985-4-9" class="st5" d="M-214.7,98.1h12.3l19-14.4l0,23.8"/>
	<path id="path4987-8-7" class="st5" d="M-214.9,105.7h14l17.2-12.6"/>
	<path id="path4989-7-3" class="st5" d="M-202.1,98.2l0.8,7.1"/>
	<path id="path4991-8-5" class="st5" d="M-183.5,85.1V69.6"/>
	<path id="path4993-5-4" class="st5" d="M-166.6,107.9l0-19.5"/>
	<path id="path4995-9-9" class="st5" d="M-165.6,69.3v20.5"/>
	<path id="path4997-8-7-49" class="st5" d="M-166.5,88.4l6.9,8.5l0.1,4.8l4.8,6.2l0.4-4.5l4.2,5.2l0,5.1l4.3,5.5l0.1-5.1l4.5,5.6
		l0.1,5.6l4.4,5.6l0.3-5.5l4.1,5.3l0.1,6l4.4,5.7l0.1-6.1l4.2,5.3l0.1,6.5l4.2,5.3l0.2-6.3l4.8,6.1l0,6.6l4.2,5.3l0.2-6.7l4.2,5.2
		l0,7.2l1.7,2.2"/>
	<path id="path5001-1-5" class="st5" d="M-332.3,25.2l12.8,12.7l-9.7,16.3l-11.5-11.5L-332.3,25.2z"/>
	<path id="path5003-1-0" class="st5" d="M-319.6,37.9l5.6,12.7"/>
	<path id="path5005-1-0-2" class="st5" d="M-335.4,51.8l-25.5,0.1l3.7-9.2l16.8,0"/>
	<path id="path5007-7-0" class="st5" d="M-357,42.6l3.2-3.5l13.8,0"/>
	<path id="path5009-8-6" class="st5" d="M-358,52.9V63l20.4,0l0.1-11"/>
	<path id="path5011-8-3" class="st5" d="M-316.7,64.4l-12.2,3.8l-8.4-8.7"/>
	<path id="path5013-6-6" class="st5" d="M-316.5,64.3V45.5"/>
	<path id="path5015-2-0" class="st5" d="M-327.7,51.6v15.8"/>
	<path id="path5017-1-0" class="st5" d="M-243.6,26.3l13.7,8.1l-6.9,12.4l-14.5-9.1L-243.6,26.3z"/>
	<path id="path5019-6-9" class="st5" d="M-230,34.3l6.5,8"/>
	<path id="path5021-2-3-3" class="st5" d="M-226.3,38.9v13.8l-9,4.3V44.3"/>
	<path id="path5023-8-1" class="st5" d="M-244.3,42.8l-9,11.5L-268.7,44l9.8-10.6l7.2,4.5"/>
	<path id="path5025-1-1" class="st5" d="M-266.7,46.1l-0.1,8.7l14.7,10.6l15.9-7.6"/>
	<path id="path5027-0-7" class="st5" d="M-251.8,52.4l-0.2,12.7"/>
	<path id="path5029-9-0" class="st5" d="M-273.6,48.4l-12,12.6l6.7,20.8l13.6-11.5L-273.6,48.4z"/>
	<path id="path5031-7-1" class="st5" d="M-265.3,70.3l2.4,7.7"/>
	<path id="path5033-0-3" class="st5" d="M-284.7,63.7l-0.2,14.6l5.4,15.7l0.8-12"/>
	<path id="path5035-6-5" class="st5" d="M-271.1,79.1l12,9.9l6.2,6.5"/>
	<path id="path5037-1-3" class="st5" d="M-260.2,88.3l-4.7,9.5"/>
	<path id="path5039-7-3" class="st5" d="M-266.5,97.7l-10.6-7.5l5.9-11"/>
	<path id="path5041-0-1" class="st5" d="M-256.9,91.6l0,5.7"/>
	<path id="path5045-6-3" class="st5" d="M-335.4,51.9l0.5-3.2"/>
	<path id="path5047-1-1" class="st5" d="M-265,72.3v10.9"/>
	<path id="path5049-3-0" class="st5" d="M-275.3,92.7v11.5"/>
	<path id="path5051-9-1" class="st5" d="M-279.2,94.3l3.2-1.7"/>
	<path id="path5053-99-0" class="st5" d="M-177.5,78.7v8.6"/>
	<path id="path5053-9-48-7-5" class="st5" d="M-172.7,93.4v8.6"/>
	<path id="path5053-9-7-4-9" class="st5" d="M-223.9,89.6v8.6"/>
	<path id="path5053-9-4-8-4" class="st5" d="M-239.5,110.6l0,8.6"/>
	<path id="path5053-9-6-3-5" class="st5" d="M-320,96.8v5.6"/>
	<path id="path5053-9-6-9-3-7" class="st5" d="M-314.1,98.2v5.6"/>
	<path id="path5053-9-6-9-5-9-6" class="st5" d="M-308.2,98.2v5.6"/>
	<path id="path5053-9-6-9-7-9-7" class="st5" d="M-302.5,96.7v5.6"/>
	<path id="path5053-9-6-9-8-3-8" class="st5" d="M-297.3,94.4v5.6"/>
	<path id="path5053-9-6-9-6-3-9" class="st5" d="M-293.1,92.3V98"/>
	<path id="path5053-9-6-9-1-4-1" class="st5" d="M-323.9,95.1v5.6"/>
	<path id="path5169-4-7" class="st5" d="M-161.3,93.6l20-10.5l8.9,12.7l-18.4,10.1"/>
	<path id="path5171-1-5" class="st5" d="M-134.5,97.7v10.2l-14.4,7.5"/>
	<path id="path5053-4-0-5" class="st5" d="M-145.7,106.9v2.6"/>
	<path id="path5053-4-7-57-3" class="st5" d="M-140.1,104v2.6"/>
	<path id="path5053-4-7-5-2-2" class="st5" d="M-246.2,55.3v2.6"/>
	<path id="path5053-4-7-6-4-0" class="st5" d="M-241.3,53v2.6"/>
	<path id="path5053-4-7-9-8-3" class="st5" d="M-230.9,48.2v2.6"/>
	<path id="path5053-4-7-97-8-4" class="st5" d="M-321.9,51.1v2.6"/>
	<path id="path5053-4-7-4-4-5" class="st5" d="M-351.4,55.7v2.6"/>
	<path id="path5053-4-7-3-1-1-9" class="st5" d="M-344.5,55.7v2.6"/>
	<path id="path5292-7-5" class="st5" d="M-103.9-86.2l-37,34.7c-5.6-1.3-11.9-1.3-16.5,6.1l-113.4,0c-3.4-3.1-4.3-3.5-12.9-3.3
		l-92.1-41.2"/>
	<path id="path5294-4-5" class="st5" d="M-145.9-6.2l-11.3-18.4c8.7-4.7,16.2-3.8,20.8,0L-145.9-6.2z"/>
	<path id="path5296-7-4-7" class="st5" d="M-277.1-9.2l9-11.9c-4.3-2.6-8.4-5.3-17,0L-277.1-9.2z"/>
	<path id="path5298-7-3" class="st5" d="M-103.9-59.3l-8.4,7.6l0-9.2c-1.4,1.2-3.3,2.9-4.7,4.2l0,8.8l-6.1,5.2l0-8.6l-4.4,3.9l0,8.6
		l-5.8,4.9l0-8.5l-7.1,6.3"/>
	<path id="path5302-4-5" class="st5" d="M-140.6-51.8l0,15.5"/>
	<path id="path5304-4-0" class="st5" d="M-137.7-26.2v-11.3"/>
	<path id="path5308-6-6" class="st5" d="M-156.2-46.5l0,21.7"/>
	<path id="path5310-6-4" class="st5" d="M-156.4-33.1h-4.4v5.7l-7.3,0.1l0-5.8l-6.4,0v5.8l-7.4,0l0-5.7l-5.9,0l0,5.9l-7.2,0l0-5.8
		h-6.2l0,5.8l-7,0l0-5.8l-6.2,0l0,5.9l-7.4,0v-5.9h-5.9v5.7l-7.4,0v-5.7h-6l0,5.8l-7.4,0l0-5.8l-6.1,0v5.8l-7.4,0l-0.1-5.8h-5.1l0,6
		l-4.3,0l0.1-18.3"/>
	<path id="path5312-0-1" class="st5" d="M-269.5-22.7v-3.2"/>
	<path id="path5314-5-9" class="st5" d="M-283.9-21.8l-0.1-4"/>
	<path id="path5316-9-5" class="st5" d="M-282.9-48.6v21.8l-4.8-2.8v-6.7l-6.7-2.9l-0.1,5.7l-7.6-3.2l0-5.7l-6.1-2.6l0,5.7l-7-3
		l0-5.8l-6.1-2.6l0,5.8l-7.4-3.2l-0.1-5.9l-6-2.6l-0.1,5.9l-7.3-3.2l0.1-5.8l-6-2.6l0,6l-7.2-3.2l-0.2-6l-6.2-2.7l0.1,5.9l-7.1-3
		l0-6l-6-2.6l0,6.1l-8.2-3.6"/>
</g>
</svg>
