<?xml version="1.0" encoding="utf-8"?>
<!-- Generator: Adobe Illustrator 25.0.0, SVG Export Plug-In . SVG Version: 6.00 Build 0)  -->
<svg version="1.1" id="Layer_1" xmlns="http://www.w3.org/2000/svg" xmlns:xlink="http://www.w3.org/1999/xlink" x="0px" y="0px"
	 viewBox="0 0 283.5 283.5" style="enable-background:new 0 0 283.5 283.5;" xml:space="preserve">
<style type="text/css">
	.st0{fill:#FFFFFF;}
	.st1{fill:#87AD50;}
	.st2{fill:#C3895F;}
	.st3{fill:#BBA78E;}
	.st4{fill:#EE663C;}
	.st5{fill:#BAA68E;}
	.st6{fill:#BBA78F;}
	.st7{fill:#BBA890;}
	.st8{fill:none;stroke:#010101;stroke-width:1.7793;stroke-linejoin:round;}
	.st9{fill:none;stroke:#010101;stroke-width:1.7793;stroke-linecap:round;stroke-linejoin:round;}
	.st10{fill:none;stroke:#010101;stroke-width:1.7793;stroke-linecap:round;stroke-linejoin:round;stroke-miterlimit:5.0267;}
	.st11{fill:none;stroke:#010101;stroke-width:1.7793;}
</style>
<g id="g3363" transform="translate(385.66459,-56.086318)">
	<g>
		<path class="st0" d="M-244,339.5c-46.9,0-93.8,0-140.6,0c-0.9,0-1.1-0.3-1.1-1.1c0-93.7,0-187.4,0-281.2c0-1.1,0.3-1.2,1.2-1.2
			c93.7,0,187.4,0,281,0c1.1,0,1.2,0.3,1.2,1.2c0,93.7,0,187.4,0,281c0,1.1-0.3,1.2-1.2,1.2C-150.3,339.5-197.1,339.5-244,339.5z"/>
		<path class="st1" d="M-104.6,65.7c0,0.4,0,0.8,0,1.2c0,89.5,0,179,0,268.5c0,1.2-0.2,1.5-1.5,1.5c-91.8,0-183.7,0-275.5,0
			c-1.2,0-1.5-0.3-1.5-1.5c0-91.8,0-183.7,0-275.5c0-1.1,0.2-1.4,1.4-1.5c2.2-0.2,3.6,0.6,5.1,2.1c5.6,5.5,11.3,10.9,16.9,16.5
			c0.5,0.5,1,0.9,1.5,1.3c1.6,1.1,1.7,2.5,1.2,4.3c-0.4,1.5-0.6,3-0.8,4.5c-0.1,0.5,0.2,1.1,0.7,1.5c0.8,0.8,1.7,1.6,2.4,2.4
			c0.8,0.9,1.6,0.9,2.5,0.4c1.2-0.7,2.4-1.5,3.7-2.2c0.5-0.3,0.9-0.4,1.4,0.2c2.9,2.9,5.8,5.7,8.7,8.5c0.5,0.5,0.7,0.8,0.5,1.6
			c-0.4,1.8-0.6,3.6-0.8,5.4c0,0.1,0,0.2,0,0.4c0.6,1.9,2.2,3,3.6,4.2c0.9,0.8,1.9-0.1,2.8-0.7c0.1-0.1,0.3-0.1,0.4-0.2
			c1-0.5,2-1.6,2.9-1.4c0.9,0.1,1.7,1.4,2.5,2.2c3.1,3.2,6.3,6.3,9.4,9.5c0.6,0.6,1.3,0.8,2.2,0.8c3.1-0.2,6.1-0.2,9.2-0.1
			c4.6,0.1,9.3-0.2,13.9-0.3c0.8,0,1.1,0.3,1.3,1c1.9,6.5,3.7,13,5.8,19.5c0.6,1.9,0.7,3.7,0.9,5.7c0.1,2.3,0.1,4.6,0.3,6.9
			c0.2,2.4,1.9,4.1,3.9,5.2c2.6,1.5,5.4,1.9,8.4,1.6c3.2-0.4,6.1-1.6,9.1-2.8c1.3-0.5,3-0.1,4.6,0c0.3,0,0.5,0.2,0.8,0.1
			c0.6,0,0.5,0.2,0.4,0.7c-0.2,1.7-0.1,3.4-0.3,5c-0.1,0.9,0.4,1.5,1.5,1.6c1.2,0.1,2.4,0.1,3.6,0.2c0.9,0.1,1.5-0.1,1.8-0.8
			c1.1-2,2.7-3.8,3.4-6c0.1-0.3,0.2-0.3,0.4-0.2c0.9,0.3,1.9,0.1,2.8,0.1c0.6,0,0.8,0.2,0.8,0.8c-0.1,1.6-0.2,3.1-0.2,4.7
			c0,1.1,0.5,1.5,1.6,1.6c1.3,0.2,2.6,0.2,3.8,0.2c0.6,0,1.1-0.2,1.4-0.8c0.9-1.5,1.8-3,2.8-4.5c0.8-1.3,1.7-1.6,3.2-1.3
			c0.2,0,0.4,0.2,0.5,0.2c2.9-0.5,5.4,1.1,8.1,1.6c4.3,0.8,8.3,0.3,11.8-2.4c1-0.8,1.8-1.8,2.1-3c0.3-1.3,1.1-2.1,2.1-2.8
			c4.4-3,8.8-6,13.1-9c0.7-0.5,1.2-0.7,1.8,0.1c0.1,0.2,0.4,0.2,0.6,0.4c0.7,0.6,1.2,1.6,2.3,1.4c0.9-0.2,1.5-1,2.3-1.5
			c0.8-0.5,1.6-1,2.2-1.7c0.4-0.4,0.5-0.7,0.3-1.3c-0.3-0.8-0.3-1.8-0.6-2.6c-0.3-0.7,0.1-1,0.5-1.3c3.6-2.5,7.3-4.9,10.9-7.4
			c0.5-0.4,0.9-0.4,1.3,0.1c0.6,0.6,1.2,1.1,1.8,1.6c0.6,0.5,1.3,0.5,1.9,0.1c1.1-0.8,2.3-1.6,3.4-2.5c0.6-0.5,1.2-1.1,0.7-2
			c0,0,0-0.1,0-0.1c-0.7-3.2-0.7-3.2,1.9-5c2.6-1.7,5.2-3.5,7.8-5.2c0.6-0.4,1-0.4,1.5,0c0.5,0.4,0.9,0.9,1.4,1.2
			c1.6,1.2,1.8,1.2,3.3-0.1c0.8-0.6,1.5-1.3,2.3-1.8c0.9-0.5,0.9-1.2,0.9-2.1c0-0.1,0-0.2,0-0.2c-1-2.1-0.5-3.5,1.2-5.1
			c2.6-2.5,4.9-5.2,7.3-7.9c0.5-0.6,1-0.7,1.7-0.3c0.7,0.4,1.5,0.8,2.3,1.1c0.9,0.4,1.6,0.4,2.2-0.6c0.5-0.8,1.4-1.4,1.9-2.2
			c0.3-0.6,0.5-1.1,0.3-1.7c-0.3-1.1-0.5-2.3-0.9-3.5c-0.3-1.1,0.2-1.7,0.8-2.4c2-2.2,4-4.3,6-6.5c0.6-0.6,0.9-1.7,1.8-1.8
			c0.8-0.1,1.5,0.8,2.2,1.1c2.1,1,2.5,0.9,3.9-1.1c0.2-0.2,0.4-0.4,0.6-0.6c0.9-0.8,1.3-1.7,0.8-2.9c-0.4-1-0.5-2.1-0.7-3.1
			c-0.2-0.9,0-1.4,0.7-2.1c2-2.1,3.9-4.3,5.8-6.5c0.3-0.3,0.6-0.6,0.9-1C-104.8,65.7-104.7,65.7-104.6,65.7z"/>
		<path class="st2" d="M-262.7,111.3c2.4,0.7,4.6,1.3,6.8,2.1c1.1,0.4,1.9,0.3,2.9-0.2c4.1-2.3,8.3-4.7,12.4-7
			c0.6-0.3,0.9-0.9,0.9-1.6c-0.1-1.7,0-3.4,0-5.1c0-0.5,0.1-0.8,0.6-1c1.2-0.5,1.3-1.4,0.9-2.5c-1.5-4.1-3-8.3-4.4-12.4
			c-0.4-1.2-0.9-2.4-1.3-3.6c-0.4-1.1-1-1.4-2-0.8c-4.6,2.6-9.2,5.1-13.8,7.8c-1.2,0.7-1.9,2.1-2.7,3.2c-2.1,2.7-4.2,5.6-6.3,8.3
			c-0.2,0.3-0.4,0.7-0.6,1c-0.4,0.6-0.2,1.1,0.3,1.5c0.5,0.4,1,0.2,1.5-0.1c0.5-0.4,0.9-0.8,1.2-1.3c0,2.2,0,4.3,0,6.6
			c-0.9-0.5-1.2-1.4-1.7-2.2c-1.5-1.9-2.8-3.8-4.2-5.8c-0.6-0.8-1.7-0.8-2.2,0.1c-2.1,3.4-4.2,6.7-6.3,10.1
			c-0.2,0.4-0.5,0.7-0.9,1.2c-0.8-1.4-1-2.9-1.5-4.3c0-0.1,0-0.2-0.1-0.3c-0.3-0.7-0.5-1.5-1.5-1.5c-0.7,0-1.1,0.5-1.4,1.7
			c-1.1-2.2-0.9-4.5-0.8-6.8c0.1-1.7-0.4-3.2-1.6-4.4c-0.3-0.3-0.6-0.4-1-0.4c-0.9,0-1.9,0-2.8,0c-1.2,0-1.9,0.8-1.9,1.9
			c0,1.1-0.3,2.1-0.3,3.1c0,0.6-0.3,0.9-1,0.9c-3,0.1-3,0.1-3-2.8c0-3.2,0.1-3.2-3.1-3.1c-0.9,0-1.7,0-2.6,0c-1,0-1.4,0.5-1.4,1.4
			c0,1.2,0,2.4,0,3.5c0,0.7-0.1,1-0.9,1c-1.9,0-2-0.1-1.6-2.1c0.2-0.9,0.1-1.8,0-2.7c0-0.5-0.3-1-0.9-1.2c-1.1-0.2-1.9-0.9-2.6-1.6
			c-0.5-0.5-0.9-0.9-1.5-1.3c-0.5-0.3-0.9-0.4-1.4-0.2c-0.6,0.3-0.6,0.7-0.6,1.3c0,0.6,0.1,1.1-0.2,1.7c-0.2,0.5-0.1,1.1-0.1,1.6
			c-1.8-0.8-1.8-2.4-1.6-3.9c0.3-1.3,0.1-2.7,0.2-4c0-0.5-0.3-0.9-0.6-1.2c-1.1-1.1-2.1-2.1-3.2-3.2c-0.3-0.3-0.7-0.7-1.3-0.4
			c-0.5,0.3-0.8,0.6-0.8,1.3c-0.1,1.4-0.3,2.8-0.2,4.4c-1.4-0.9-2.1-1.9-2-3.6c0.2-1.6,0-3.3,0-5c0-0.7-0.2-1.3-0.7-1.8
			c-1.5-1.4-2.9-2.9-4.3-4.3c-0.5-0.5-1.1-0.9-1.9-0.6c-0.7,0.3-0.6,1-0.6,1.6c0,1.4,0,2.8,0,4.3c-2-0.9-2.3-2.6-2.4-4.5
			c0-1.5,0-2.9,0-4.4c0-0.9-0.3-1.6-0.9-2.2c-1.1-1.1-2.2-2.2-3.3-3.3c-0.5-0.5-1-1-1.8-0.7c-0.8,0.3-0.8,1.1-0.8,1.8
			c0,1.4,0,2.8,0,4.3c-1.1-0.3-1.7-0.8-1.7-2c0.1-2,0-4,0-6c0-1.1-0.1-2.2-1.2-3c74,0,147.8,0,221.7,0c-1,1.6-0.4,3.4-0.5,5.1
			c0,0.7-0.2,1.2-0.9,1.6c-0.3-0.8,0.1-1.7-0.3-2.5c-0.5-1-1.2-1.2-2-0.5c0,0-0.1,0.1-0.1,0.1c-3.1,2.3-4.8,5.2-4.1,9.3
			c0.2,0.8,0,0.8-1.2,1.7c0-0.8,0-1.5,0-2.3c0-0.6-0.2-1.2-0.8-1.4c-0.6-0.2-1.2-0.1-1.7,0.5c-1.1,1.5-2.5,2.7-3.8,4
			c-0.4,0.4-0.6,0.9-0.6,1.5c0,1.3-0.1,2.5,0,3.8c0.1,1.2-0.4,2.1-1.4,3.1c0-1.1,0-2,0-2.8c0-0.6-0.1-1.2-0.8-1.4
			c-0.6-0.2-1.1,0-1.6,0.4c-1.3,1.4-2.7,2.7-4,4c-0.7,0.7-1.1,1.5-1,2.5c0.1,1.3-0.1,2.5,0,3.8c0.1,1.2-0.4,1.9-1.4,2.6
			c0-1.1,0-2,0-3c0-0.6-0.1-1.1-0.7-1.3c-0.6-0.3-1.1-0.1-1.6,0.4c-1.4,1.4-2.5,3.2-4.4,4.2c-0.4,0.2-0.5,0.8-0.5,1.3
			c0,0.9-0.1,1.8,0,2.7c0.3,1.8-0.6,2.7-2.1,3.2c0-1.1,0-2.1,0-3.2c0-1.3-1-1.8-2.1-1.1c-1.4,0.9-2.8,1.9-4.2,2.8
			c-0.7,0.5-1.1,1-1,1.9c0.1,1.4-0.1,2.9-0.2,4.3c-0.1,0.7-0.4,1-1.9,1.6c0-1,0-2,0-3.1c0-1.2-0.9-1.9-1.9-1.3
			c-1.7,1-3.3,2.2-4.9,3.3c-0.5,0.3-0.6,0.8-0.5,1.3c0,1,0,2.1,0,3.1c0.1,1.1-0.1,2-1.2,2.5c-0.4,0.2-0.8,0.6-1.4,1c0-1.1,0-2,0-2.9
			c0-0.8-0.1-1.6-0.8-1.9c-0.7-0.3-1.3,0-1.8,0.5c-0.2,0.2-0.5,0.3-0.9,0.5c0-1.7,0-3.3,0-4.9c0.2-0.1,0.3,0.1,0.4,0.2
			c0.5,0.5,1.1,0.6,1.6,0c0.5-0.5,0.5-1.2,0-1.7c-1.3-1.5-2.6-3-4-4.4c-1.2-1.4-2.5-2.7-3.8-4c-0.3-0.3-0.3-0.5-0.3-1
			c0.1-2.9,0.1-5.8,0.1-8.7c0-0.5-0.4-0.8-0.7-1.2c-1.6-1.5-3.2-3-4.8-4.5c-0.5-0.5-1.1-0.7-1.9-0.4c-3,1-3.1,0.4-3.2,4.4
			c0,0.6,0,1.3,0,2c-1.1-0.4-1.7-1.3-2.5-1.9c-0.9-0.7-1.5-0.7-2.3,0.2c-3.6,4.4-7.3,8.7-10.9,13.1c-0.5,0.6-0.6,1.3,0,1.9
			c0.4,0.4,0.9,0.9,1.4,1.2c0.8,0.6,1.5,1.2,1.4,2.5c-0.2,1.7-0.1,3.5-0.1,5.6c-1.5-2.3-2.8-4.4-4.1-6.4c-0.1-0.1-0.1-0.2-0.2-0.3
			c-0.9-1.5-2-1.6-3-0.1c-0.8,1.1-1.6,2.3-2.3,3.5c-2.4,4-5.2,7.8-7.7,11.7c-0.4,0.7-0.9,1.4-1.3,2c-0.6,0.8-0.3,1.4,0.2,2
			c0.6,0.6,1.3,1.2,2.1,1.5c1,0.4,1.2,1.1,1.2,2.1c0,4.5-0.1,8.9,0,13.4c0,1-0.3,1.2-1.2,1.1c-1.8-0.1-3.7-0.2-5.5-0.2
			c-0.5,0-0.7-0.2-0.7-0.7c0-1.2,0-2.4,0-3.7c0-1.6-0.6-2.2-2.3-2.3c-1.8-0.1-3.6,0.2-5.4-0.2c-0.8-0.2-1.5,0.7-1.6,1.6
			c0,1.3,0,2.6,0,3.9c0,0.6-0.1,0.8-0.8,0.8c-2.8,0.1-2.8,0.1-2.8-2.6c0-0.7,0-1.4,0-2.1c-0.1-1.4-0.6-1.8-1.8-1.9
			c-2-0.1-4.1,0-6.1-0.2c-1.8-0.2-2.2,0.4-2.2,2.1c0,1.1,0,2.2,0,3.3c0,0.8-0.2,0.9-0.9,0.9c-1.4,0-2.8-0.2-4.2-0.3
			c-0.5,0-0.5-0.3-0.5-0.7c0-4.8,0-9.5,0-14.3c0-0.6,0.3-0.8,0.7-1.1c0.5-0.3,1-0.6,1.5-0.9c0.8-0.6,0.8-1.4,0.2-2.2
			c-1.1-1.4-2.1-2.9-3.2-4.4C-262.4,112-262.5,111.7-262.7,111.3z"/>
		<path class="st3" d="M-189.6,117.5c0.4,1,0.3,2.1,0.3,3.1c0,1.4,1,2,2.2,1.2c1.3-0.8,2.5-1.7,3.8-2.6c0.5-0.4,0.7-0.9,0.7-1.6
			c0-1.3,0.1-2.6,0-3.9c-0.1-0.9,0.2-1.5,1-1.8c0.5-0.2,0.9-0.8,1.6-0.8c0,1,0,1.9,0,2.9c0,0.6,0,1.3,0.7,1.6
			c0.6,0.3,1.2,0.2,1.7-0.3c1.3-1,2.7-1.8,4.1-2.8c0.7-0.5,1.2-1.1,1-2.1c-0.1-0.8,0-1.7,0-2.5c0-2.2,0.2-2.5,2.6-3.5
			c0,1,0,1.9,0,2.8c0,0.7,0.2,1.3,0.8,1.7c0.6,0.3,1.1-0.1,1.6-0.4c1.2-0.8,2.3-1.6,3.4-2.4c0.7-0.5,1-1.2,1-2c0-0.7,0.1-1.5,0-2.2
			c-0.4-2.1,0.6-3.2,2.6-3.9c0,1.2,0,2.3,0,3.4c0,1.1,0.8,1.7,1.8,1c1.5-0.9,2.9-2,4.3-3c0.6-0.4,0.8-0.9,0.7-1.6
			c-0.1-0.8,0.1-1.6,0-2.4c-0.4-2,1.1-2.8,2.2-4c0,1.2-0.1,2.3,0,3.3c0,0.4,0.1,1.1,0.7,1.2c0.6,0.1,1.3,0,1.7-0.5
			c0.8-1.2,1.9-2.1,2.9-3.1c0.7-0.7,1-1.5,1-2.4c0-1.3,0-2.5,0.2-3.8c0.3-2.1,0.3-2.1,2.2-3.7c0,0.9,0,1.7,0,2.4
			c0,0.8,0.2,1.5,0.9,1.8c0.7,0.3,1.2-0.2,1.6-0.7c1.1-1.2,2.3-2.4,3.4-3.6c0.5-0.6,0.7-1.3,0.6-2.1c-0.2-1.4-0.2-2.8-0.1-4.1
			c0.1-1,1-1.6,1.8-2.4c0,1,0,1.8,0,2.5c0,0.6,0.1,1.2,0.8,1.4c0.6,0.3,1.1,0,1.6-0.4c0.8-0.9,1.7-1.7,2.6-2.6
			c0.8-0.8,1.4-1.8,1.3-3c-0.1-1,0-2.1,0-3.1c-0.1-1.1,0.5-1.8,1.4-2.6c0.1,1,0,1.9,0.3,2.7c0.4,1.2,1.1,1.4,2,0.7
			c1.3-1.1,2.2-2.4,3.4-3.6c0.3-0.3,0.4-0.8,0.3-1.2c0-0.7,0.1-1.5,0-2.2c-0.3-1.9,0.9-2.8,2.4-4c0,0.9,0,1.5,0,2.2
			c0,0.6,0.1,1.2,0.7,1.4c0.6,0.3,1.1-0.1,1.6-0.5c0.8-0.8,1.6-1.6,2.4-2.4c0.3-0.4,0.7-0.6,1.2-0.6c2.4,0,4.9,0,7.3,0
			c0.6,0,0.8,0.2,0.9,0.9c0.5,2.3-0.9,3.6-2.2,5c-1.9,2.1-3.8,4.2-5.7,6.2c-0.1,0.1-0.3,0.3-0.5,0.4c-0.1-0.4-0.3-0.8-0.3-1.1
			c0-2.3-1.3-3.5-3.3-4.2c-0.9-0.3-1.7-0.5-2.3,0.5c0,0.1-0.1,0.1-0.2,0.2c-1.8,1.2-2,3.1-1.8,5c0.4,2.4,0,4.7,0.2,7.1
			c0.1,1.2-0.4,1.9-1.1,2.6c-2.3,2.3-4.2,4.9-6.7,7.2c-0.1-0.6-0.3-1.1-0.3-1.7c-0.1-2.5-2.1-3.1-3.9-4c-0.2-0.1-0.5-0.1-0.7,0
			c-1.1,0.3-2.9,2.9-2.9,4c0,3,0.2,6,0.3,9.1c0,1.6-1,2.3-1.7,3.2c-2.2,2.6-4.6,5-6.9,7.5c-0.1,0.1-0.2,0.2-0.5,0.3
			c-0.4-1.4-0.9-2.6-1-4c-0.2-1.8-1.4-2.6-2.7-3.5c-0.2-0.2-0.5-0.3-0.8-0.3c-1.4,0.3-2.5,1.4-3.7,2.1c-0.6,0.4-0.5,1.2-0.5,1.8
			c0,3.1,0.4,6.2,0.3,9.3c0,0.6-0.2,1-0.7,1.3c-3.2,2.2-6.5,4.3-9.8,6.6c-0.6-1.4-0.9-2.8-1.1-4.3c-0.3-1.7-1.4-2.7-2.7-3.6
			c-0.6-0.4-1.2-0.4-1.8,0c-0.5,0.3-1,0.6-1.5,0.9c-1.6,0.8-2.1,2.1-1.8,3.8c0.4,2,0.1,4,0.2,6c0,0.7-0.1,1.5,0.2,2.2
			c0.1,0.3,0.2,0.8-0.3,1.2c-3.8,2.5-7.5,5.1-11.4,7.7c-0.6-1.9-0.6-4-1.5-5.7c-1.1-2.1-2.9-3.4-4.9-1.7c-0.3,0.3-0.7,0.6-1,0.7
			c-1.2,0.6-1.6,1.6-1.4,2.8c0.4,1.9,0.1,3.8,0.2,5.6c0,0.9,0,1.8,0.2,2.7c0.2,0.8,0,1.5-0.8,2.1c-4.3,2.8-8.5,5.8-12.7,8.7
			c-0.2,0.1-0.4,0.2-0.6,0.3c-0.3-0.3-0.2-0.6-0.2-0.9c0-6.2,0-12.4,0-18.7c0-0.4-0.2-0.8,0.2-1.1c2.2-1.5,4.4-3,6.9-4.6
			c0,1.2,0,2.1,0,3c0,1.9,1,2.4,2.5,1.4c1.2-0.8,2.4-1.6,3.6-2.4c0.6-0.4,1.1-1,1-1.9c-0.1-0.9,0-1.7,0-2.6
			C-192.6,119.2-192.1,118.5-189.6,117.5z"/>
		<path class="st3" d="M-339.4,67.8c1.8,1,2.4,2.4,2.1,4.2c-0.7,3.9,0.5,7,3.8,9.3c0.4,0.3,0.8,0.8,1.2,1.2c0.4,0.4,0.8,0.5,1.4,0.3
			c0.5-0.2,0.7-0.6,0.7-1.2c0-1.5,0-3,0-4.8c1.5,1.5,3.3,2.5,2.9,4.9c-0.2,1.4,0,2.9-0.1,4.4c0,0.8,0.2,1.4,0.8,1.9
			c1,1,2.1,2,3.1,3.1c0.5,0.5,1,0.9,1.8,0.7c0.8-0.2,0.8-1,0.9-1.5c0.1-1.3,0-2.6,0-4.1c0.9,0.5,1.3,1.1,1.3,2c-0.1,1.8,0,3.7,0,5.6
			c0,0.7,0.2,1.2,0.6,1.7c1.1,1.1,2.2,2.2,3.3,3.3c0.5,0.4,1,0.8,1.7,0.5c0.7-0.3,0.7-0.9,0.7-1.6c0.1-1.1,0.2-2.2,0.3-3.4
			c0.5,0.4,1,0.8,1.5,1.1c0.4,0.3,0.6,0.6,0.6,1.1c0,1.2,0,2.4,0,3.7c0,1.1,0.4,1.6,1.5,1.6c1.5,0,2.9,0,4.4,0
			c0.9,0,1.4-0.5,1.4-1.5c0-1.2,0-2.4,0-3.7c0-1,0.7-0.8,1.2-0.8c0.5,0,1.2-0.2,1.2,0.8c-0.1,1.1,0,2.3,0,3.4c0,1.3,0.3,1.7,1.6,1.7
			c1.8,0,3.5,0,5.3,0c1.1,0,1.4-0.4,1.6-1.4c0.2-1.1,0.2-2.2,0.3-3.2c0.1-1.3,0.9-1.1,1.6-1c0.8,0,1.1,0.7,1.1,1.4
			c0,1.6,0,3.3-0.3,4.9c-0.2,1.2-0.2,2.5-0.3,3.7c-0.4,3.3-0.6,6.5-0.7,9.8c0,0.8-0.4,1-1.1,1c-2.8,0-5.5-0.2-8.3,0
			c-4.7,0.4-9.5,0.1-14.2,0.2c-0.6,0-1.1-0.2-1.5-0.6c-3.6-3.7-7.1-7.3-10.7-11c-0.6-0.6-0.6-1.2-0.6-1.9c0-4.6,0-9.2,0-13.8
			c0-1.2-0.3-2.2-1.3-2.9c-0.6-0.4-1.1-1-1.7-1.4c-0.6-0.4-1.1-0.6-1.8-0.3c-0.4,0.2-0.9,0.4-1.4,0.6c-1.8,0.4-2.3,1.7-2.5,3.3
			c-0.2,2-0.6,3.9-0.9,5.9c-0.1,0.5-0.3,0.5-0.6,0.2c-0.3-0.3-0.7-0.5-1-0.8c-2.3-2.2-4.7-4.5-7-6.8c-0.5-0.5-0.6-0.9-0.6-1.6
			c0-4,0-8,0-12.1c0-1.2-0.3-2.3-0.3-3.5c0-0.8-0.8-1.1-1.2-1.6c-1.7-2.3-3.6-1.8-5.7-0.7c-1,0.5-1.3,1.3-1.4,2.2
			c-0.4,2.2-0.7,4.4-1.1,6.7c-6.4-6.2-12.7-12.3-19-18.4c0.4-0.4,0.7-0.2,1.1-0.2c5,0,10.1,0.1,15.1,0c1.3,0,2.2,0.4,2.9,1.4
			c0.9,1.3,2.2,2.2,3.1,3.5c0.4,0.6,1.1,0.7,1.7,0.5c0.7-0.2,0.8-0.9,0.8-1.4c0.1-0.9,0-1.7,0-2.6c0-0.5-0.3-1.2,0.3-1.3
			c0.7-0.1,1.5-0.3,2.1,0.2c1.1,0.9,1.9,1.9,1.8,3.6c-0.2,1.8,0,3.7,0,5.6c0,0.9,0.3,1.7,0.9,2.3c1,1,2,2,3,3
			c0.5,0.5,1.1,0.9,1.8,0.6c0.7-0.3,0.9-0.9,0.9-1.7C-339.4,70.7-339.4,69.3-339.4,67.8z"/>
		<path class="st3" d="M-281.1,122.1c5.8,2.6,11.5,1.9,17.2-0.7c0,0.4,0.1,0.7,0.1,1c0,10.2,0,20.5,0,30.7c0,0.8-0.2,1.3-1,1.6
			c-3.9,1.7-7.9,2.6-12,1.4c-2.4-0.7-4.6-2.6-4.5-5.7c0.1-2.4-0.2-4.8-0.1-7.2c0.2-7,0-14,0.2-21
			C-281.3,122.2-281.2,122.2-281.1,122.1z"/>
		<path class="st3" d="M-209.1,122c0,1.8,0,3.5,0,5.3c0,7.7,0,15.4,0,23c0,3.5-1.8,5.8-5.3,6.7c-2.8,0.7-5.5,0.4-8.2-0.3
			c-0.5-0.1-0.7-0.4-0.7-1c0-10.8,0-21.6,0-32.4c0-0.7,0.1-0.9,0.8-0.6c3.9,1.5,7.8,1.2,11.6-0.2c0.5-0.2,0.9-0.4,1.4-0.5
			C-209.4,122-209.3,122-209.1,122z"/>
		<path class="st4" d="M-261.5,117.3c-3.3,2-6.7,3.5-10.6,3.8c-4.2,0.4-7.9-0.8-11.2-3.3c-0.5-0.4-0.6-0.5-0.2-1
			c2.9-4.6,5.8-9.3,8.7-13.9c1.4-2.1,1.4-2.1,2.9,0C-268.5,107.7-265,112.5-261.5,117.3z"/>
		<path class="st4" d="M-190.4,94c-0.6,0.8-1.2,1.6-1.8,2.4c-2.3,2.9-4.6,5.9-6.8,8.8c-0.4,0.5-0.6,0.7-1.1,0.3
			c-2.5-2.1-5-4.3-7.6-6.4c-0.9-0.8-1.8-1.5-2.8-2.3c-0.3-0.2-0.4-0.4-0.1-0.8c1.8-2.1,3.5-4.2,5.2-6.4c1.2-1.4,2.4-2.9,3.6-4.3
			c0.3-0.4,0.6-0.7,1.2-0.2c2.6,2.3,5.4,4.5,8.1,6.8c0.6,0.5,1.1,1,1.7,1.4C-190.5,93.6-190.3,93.7-190.4,94z"/>
		<path class="st4" d="M-246.2,81.9c0.3,0.1,0.4,0.3,0.5,0.6c1.6,4.4,3.1,8.8,4.7,13.2c0.2,0.6,0.2,0.9-0.3,1.3
			c-3.2,1.9-6.4,3.9-9.5,5.8c-0.6,0.4-0.8,0.4-1.2-0.4c-1.8-4.4-3.6-8.9-5.5-13.3c-0.3-0.6,0-0.8,0.3-1c3.6-2,7.1-4,10.7-6.1
			C-246.4,82-246.3,81.9-246.2,81.9z"/>
		<path class="st4" d="M-216.3,102.2c3.1,4.9,6.2,9.8,9.3,14.7c0.3,0.5,0.2,0.8-0.2,1c-3.4,2.2-7,3.8-11.2,3.4
			c-2.9-0.2-5.4-1.6-7.8-3.2c-0.5-0.3-0.3-0.7-0.1-1.1c2.2-3.3,4.4-6.6,6.6-10C-218.5,105.5-217.4,103.9-216.3,102.2z"/>
		<path class="st3" d="M-188.2,95.4c1.2,1.5,2.7,2.7,3.8,4.2c0.5,0.7,1,1.1,0.9,2.2c-0.2,2.5-0.1,5-0.1,7.4c0,0.9-1.4,2.7-2.2,2.9
			c-3.4,1-6.9,2-10.3,3c-1.4,0.4-1.4,0.4-1.4-1.1c0-1.3,0.1-2.5,0-3.8c-0.1-1.8,0.3-3.3,1.5-4.8c2.6-3.1,4.9-6.3,7.3-9.5
			C-188.6,95.7-188.4,95.6-188.2,95.4z"/>
		<path class="st3" d="M-247.4,138.6c-1.8,0-3.3,0-4.8,0c-0.5,0-0.9,0-1.1,0.5c-1,1.9-2.3,3.5-2.3,5.9c0,2.6-0.4,5.1-0.4,7.7
			c0,0.7-0.3,1.2-1.1,1.1c-1.2-0.1-2.4,0.1-3.6-0.2c-0.5-0.1-0.7-0.2-0.7-0.7c0-4.6,0-9.1,0-13.7c0-0.6,0.2-0.8,0.8-0.7
			c1.9,0.1,3.7-0.2,5.6,0.2c1,0.2,1.9-0.3,1.9-1.5c0-1.3,0-2.6,0-3.9c0-0.6,0.1-1,0.8-0.9c1.1,0.1,2.1,0,3.2,0
			c0.9,0,1.2,0.4,1.2,1.3c-0.1,1.3,0,2.6,0,3.9C-248.1,137.8-248.2,138.3-247.4,138.6z"/>
		<path class="st3" d="M-232.9,139.3c2.2,0.5,4.4,0.2,6.6,0.3c0.8,0,0.6,0.6,0.6,1c0,3.4,0,6.8,0,10.3c0,1.3,0,2.6,0,3.9
			c0,0.7-0.2,1-0.9,0.9c-1.6,0-3.3-0.4-4.9-0.3c-0.6,0.1-0.8-0.3-0.8-0.9c0-0.9,0-1.7,0-2.6c0.2-3.7-0.4-7.4-0.2-11.2
			C-232.5,140.3-232.7,139.9-232.9,139.3z"/>
		<path class="st3" d="M-247,138.9c1.9-0.3,3.7,0.2,5.5,0.1c1.5,0,2-0.5,2-2c0-1.2,0-2.4,0-3.5c0-0.6,0.2-0.9,0.8-0.9
			c3.2-0.1,3.2-0.1,3.2,3c0,1.1-0.2,2.2,0.4,3.4c-1,0-2,0-2.9,0c-0.6,0-1,0.2-1.3,0.6c-1.3,2-2.4,4-2.4,6.6c0,2.6-0.3,5.2-0.4,7.8
			c0,0.6-0.3,0.6-0.8,0.6c-1-0.1-2-0.2-3-0.2c-0.7-0.1-0.5-0.6-0.5-1c0-3.8,0-7.6,0-11.3C-246.4,141-246.4,140-247,138.9z"/>
		<path class="st3" d="M-264.1,102c0-1.3,0.1-2.5,0-3.8c-0.1-1.5,0.2-2.7,1.3-3.8c1-1,1.7-2.3,2.6-3.4c0.1-0.2,0.3-0.4,0.5-0.4
			c0.3,0,0.3,0.4,0.4,0.6c1.3,3.1,2.6,6.2,3.9,9.2c0.3,0.6,0,1.1,0,1.7c0,2.6,0,5.3,0,7.9c0,0.3,0.3,0.9-0.4,0.9
			c-0.7,0-0.6-0.5-0.6-1c0-2,0-4.1,0-6.1c0-1.1-0.5-1.8-1.6-2c-1.1-0.2-2.1-0.5-3.2-0.7c-1.4-0.3-1.9,0.1-1.9,1.6c0,1.7,0,3.4,0,5.1
			c0,0.3,0.2,0.9-0.5,0.8c-0.5,0-0.7-0.3-0.7-0.9C-264.1,105.8-264.1,103.9-264.1,102z"/>
		<path class="st3" d="M-199.9,114c-2.8-2.5-5.3-5-7.8-7.5c-0.3-0.3-0.5-0.7-0.4-1.2c0-1.1,0-2.1,0-3.3c1.1,0.2,1.7,1.1,2.4,1.7
			c1.9,1.4,3.7,3,5.5,4.5c0.3,0.2,0.3,0.5,0.3,0.8C-199.9,110.8-199.9,112.3-199.9,114z"/>
		<path class="st3" d="M-252.8,110.2c0-1.2,0-2.3,0-3.3c0-0.3-0.1-0.6,0.3-0.7c2-0.4,3.5-2,5.2-2.9c1.7-0.9,3.3-1.9,5-3
			c0,1.2,0,2.3,0,3.4c0,0.2,0,0.4-0.3,0.6C-245.8,106.3-249.2,108.2-252.8,110.2z"/>
		<path class="st3" d="M-251.6,147.7c-0.1,4.2-0.5,8.4-0.5,12.7c0,0.5-0.1,1.2-0.7,1.1c-0.6-0.1-1.5,0.1-1.4-1.1
			c0.3-3.3,0.3-6.7,0.7-10c0.2-1.6,0-3.1,0.3-4.7c0.1-0.6,0.1-0.9,0.8-1c0.8,0,0.9,0.4,0.9,1C-251.6,146.4-251.6,147.1-251.6,147.7z
			"/>
		<path class="st3" d="M-240.1,159.4c0.2-3.1,0.5-6.4,0.8-9.7c0.1-1.3-0.1-2.6,0.2-3.9c0.1-0.7,0.5-0.6,1-0.7c0.6,0,0.8,0.2,0.7,0.8
			c-0.2,2.9-0.2,5.9-0.4,8.8c-0.1,1-0.1,2,0,3.1c0.1,1.2-0.3,2.4-0.3,3.6c0,0.5-0.2,0.5-0.7,0.5C-240.8,162-239.9,160.6-240.1,159.4
			z"/>
		<path class="st3" d="M-332.4,106c-0.3-1.3,0.1-2.4,0.2-3.6c0.2-2.7,0.6-5.3,0.9-8c0.1-1.2,0.3-2.5,0.5-3.7c0-0.4,0.2-0.6,0.6-0.6
			c0.4,0,0.3,0.4,0.4,0.6c0.4,1.8,0.2,3.7,0.2,5.5c0,2.3,0,4.6,0,6.8c0,0.8,0,1.5-1,1.8C-331.3,105.2-331.8,105.6-332.4,106z"/>
		<path class="st3" d="M-348.6,81.9c0,1.1,0,1.9,0,2.7c0,2.2-0.1,2.3-2.1,3.2c-0.6,0.3-0.8,0.1-0.7-0.5c0.2-1.8,0.4-3.6,0.5-5.3
			c0.2-1.8,0.4-3.6,0.6-5.4c0.1-1.2,0.3-2.5,0.5-3.7c0.1-0.5,0.4-0.6,0.7-0.6c0.4,0,0.2,0.5,0.2,0.7
			C-349,76.1-348.4,79.2-348.6,81.9z"/>
		<path class="st3" d="M-333.3,89.8c-0.1,1-0.1,2-0.2,3c-0.2,1.8-0.4,3.5-0.6,5.3c-0.3,2.4-0.5,4.8-0.7,7.2c0,0.3-0.1,0.7-0.4,0.5
			c-0.4-0.3-1-0.6-0.9-1.2c0.2-1.5,0.5-3,0.8-4.5c0.5-3,1.1-5.9,1.5-8.9c0.1-0.5,0.2-0.9,0.3-1.3C-333.5,89.8-333.4,89.8-333.3,89.8
			z"/>
		<path class="st3" d="M-352.2,72c-0.6,5.3-1.2,10.6-1.8,15.9c-1.8-0.6-1.1-1.9-0.9-3c0.6-4.1,1.4-8.1,2.1-12.2
			C-352.8,72.4-352.8,72-352.2,72z"/>
		<path class="st3" d="M-186.6,140.7c-0.4-3-0.9-5.9-1.3-8.8c0-0.2,0-0.5,0-0.7c0-0.3,0.1-0.5,0.4-0.5c0.3-0.1,0.3,0.3,0.3,0.5
			c0.6,2.5,1.2,5,1.9,7.4C-184.9,139.8-185.5,140.3-186.6,140.7z"/>
		<path class="st3" d="M-167.8,117.9c0-0.4,0-0.9,0.4-0.9c0.6-0.1,0.3,0.5,0.4,0.8c0.6,2.5,1.2,5.1,1.9,7.7c0.1,0.4-0.7,1.5-1.1,1.5
			c-0.3,0-0.3-0.2-0.3-0.4c-0.3-2.4-0.6-4.8-1-7.2C-167.7,118.8-167.8,118.3-167.8,117.9z"/>
		<path class="st3" d="M-147.5,114c-0.4-3.1-1-6.2-1.2-9.3c0-0.3-0.2-0.5,0.2-0.6c0.4-0.1,0.4,0.2,0.5,0.5c0.6,2.5,1,5,1.7,7.5
			C-145.9,113.2-146.6,113.5-147.5,114z"/>
		<path class="st4" d="M-258.7,109.9c-1.7,0-2-0.8-1.9-2.2c0.1-1.3,0-2.6,0-3.9c0.2,0,0.4,0.1,0.6,0.1c1,0,1.4,0.4,1.4,1.5
			C-258.8,106.9-258.7,108.4-258.7,109.9z"/>
		<path class="st3" d="M-133.4,87.5c0.5,3.2,1,6.4,1.5,9.7c-1.2-0.2-1.5-0.8-1.6-2C-133.7,92.6-133.5,90.1-133.4,87.5z"/>
		<path class="st3" d="M-116.5,79.9c-1.2-0.2-1.5-0.8-1.6-1.9c-0.3-2.6-0.1-5.2,0-7.8C-117.5,73.5-117,76.7-116.5,79.9z"/>
		<path class="st4" d="M-194.9,83.2c2.4,1,2.1,3.2,2.3,5.1C-195,87-195,86.8-194.9,83.2z"/>
		<path class="st3" d="M-248.8,145.9c0,3.5,0,7,0,10.6c0,0.7-0.7,1-0.8,1.6c0.2-4.1,0.3-8.1,0.5-12.2
			C-249,145.9-248.9,145.9-248.8,145.9z"/>
		<path class="st3" d="M-235.1,145.3c0.1,0.4,0.2,0.5,0.2,0.5c0.1,3.4,0.2,6.9,0.3,10.3c0,0.8-0.2,1.5-1,2.2
			C-235.3,154.1-235.1,149.9-235.1,145.3z"/>
		<path class="st4" d="M-189.6,85.2c0,1.9,0,3.9,0,5.7C-190.5,90.3-190.6,85.8-189.6,85.2z"/>
		<path class="st5" d="M-190.1,133.2c0.3,2.3,0.6,4.7,0.9,7c-0.7-0.3-0.9-0.8-0.9-1.5C-189.8,136.8-190.4,135-190.1,133.2z"/>
		<path class="st3" d="M-169.1,126.4c-0.7-0.3-0.9-0.8-0.9-1.5c0.2-1.8-0.4-3.6-0.1-5.5C-169.7,121.8-169.4,124.1-169.1,126.4z"/>
		<path class="st3" d="M-150.9,107.2c0.3,2,0.6,4,0.8,5.9c-0.1,0-0.2,0-0.4,0C-151.4,111.3-151,109.2-150.9,107.2z"/>
		<path class="st6" d="M-250.1,141.1c-0.6,0.7-0.8,1.6-1.8,1.3c-0.3-0.1-0.3-0.3-0.2-0.6C-251.8,140.7-251,141-250.1,141.1z"/>
		<path class="st3" d="M-236,141.5c-0.7,0.5-0.6,1.6-1.7,1.1c-0.2-0.1-0.5-0.1-0.3-0.4C-237.7,141.4-237,141.4-236,141.5z"/>
		<path class="st4" d="M-194.1,80.3c1.4,0.5,2.1,1.8,3.1,2.7C-192.2,82.2-193.3,81.4-194.1,80.3z"/>
		<path class="st3" d="M-129.5,96.4c-0.2-1.4-0.6-2.8-0.4-4.2c0.3,1.4,0.6,2.7,0.8,4.1C-129.2,96.4-129.3,96.4-129.5,96.4z"/>
		<path class="st3" d="M-114.1,79.2c-0.2-1.4-0.4-2.7-0.7-4.1c0.1,0,0.1,0,0.2,0c0.3,1.4,0.6,2.7,0.9,4.1
			C-113.9,79.1-114,79.1-114.1,79.2z"/>
		<path class="st7" d="M-284.1,111.2c0.4,1.2,0.4,1.2-0.2,1.9C-284.6,112.5-284.2,111.9-284.1,111.2z"/>
		<path class="st0" d="M-160.7,143.2c-0.2,0.1-0.2,0.1-0.3,0.1c-0.5,0.8-1.2,1.7-2.3,1.4c-1-0.3-1.3-1.3-1.4-2.2
			c-0.1-1-0.6-1.1-1.3-1c-1.3,0.1-2.6,0.3-3.8,0.9c-0.7,0.3-1.2,0.7-0.5,1.6c0.4,0.5,0.5,1.1-0.1,1.6c-0.6,0.5-1.1,0.4-1.7-0.1
			c-1.5-1.5-1.5-3.6,0.4-4.8c2.3-1.3,4.7-1.9,7.3-1.4c1,0.2,1.6,0.8,1.8,1.9c0.4-0.3,0.7-0.6,0.9-0.9c0.5-0.7,1.2-1,2-0.9
			c0.8,0.1,0.9,0.7,1.1,1.4c0.4,1.3,0,2.7,0.4,4.1c0.2,0.9,0.4,1.6,1,2.3c1,1.1,0.7,2.1-0.7,2.5c-1.4,0.4-2.7,0.7-4.1,1.1
			c-0.6,0.1-1.1-0.1-1.3-0.6c-0.2-0.6-0.2-1.2,0.5-1.6c0.7-0.4,1.4-0.5,2.2-0.6c0.6-0.1,0.9-0.3,0.5-0.9
			C-160.8,145.8-160.8,144.5-160.7,143.2z"/>
		<path class="st0" d="M-324,290.8c2.5-0.1,4.6,0.4,5.5,2.8c0.4,1,0.7,2,0.6,3c0,0.7,0.2,1,0.9,1.1c0.9,0.2,1.9,0.4,2.8,0.6
			c0.6,0.2,1.2,0.6,1,1.3c-0.2,0.7-0.7,1.2-1.5,1c-1.3-0.3-2.6-0.4-3.8-0.9c-1.2-0.5-1.7-1.4-1.7-2.5c0-0.7-0.2-1.4-0.3-2.1
			c-0.3-1.6-1-2.1-2.8-2.1c-2.3-0.1-4.6,0.7-6.8,1.1c-0.6,0.1-1.3,0.2-1.9,0.4c-0.9,0.2-1.4-0.4-1.5-1.1c-0.1-0.6,0.4-1.1,1-1.3
			c2.1-0.4,4.1-0.8,6.2-1.2C-325.6,290.9-324.7,290.7-324,290.8z"/>
		<path class="st0" d="M-348.6,123.6c0,1.3-0.8,1.7-1.7,1.1c-0.9-0.6-1.7-1.4-2.5-2.1c-0.3-0.3-0.6-0.5-0.9-0.7
			c-0.7-0.5-0.9-0.2-1.1,0.5c-0.3,1.2-0.7,2.3-1.3,3.3c-0.3,0.6-0.7,1-1.2,1.4c-0.8,0.6-1.6,0.5-2-0.3c-0.4-0.6-0.6-0.5-1-0.2
			c-0.5,0.3-1.1,0.7-1.5,1c-1.2,1-2.6,0.8-4,0.7c-0.6-0.1-1.2-0.6-1.1-1.3c0.1-0.8,0.6-1.1,1.4-1c1.4,0.2,2.4-0.4,3.5-1.2
			c1-0.8,2.2-1.8,3.7-1c0.6,0.3,0.7-0.4,0.8-0.7c0.2-0.8,0.4-1.6,0.8-2.4c0.7-1.5,2.1-2,3.6-1.3c1,0.5,1.9,1,2.6,1.9
			c0.4,0.5,0.8,0.9,1.4,1.2C-348.8,122.8-348.4,123.2-348.6,123.6z"/>
		<path class="st0" d="M-360.3,206.2c-1.4,0-2.1-0.6-2.6-1.9c-0.7-2.1-0.7-2.1-2.6-1c-0.5,0.3-1.1,0.5-1.7,0.8
			c-0.8,0.5-1.3-0.1-1.7-0.6c-0.4-0.6-0.1-1.2,0.6-1.6c1.1-0.6,2.2-1.2,3.4-1.8c1.4-0.7,2.9,0,3.5,1.4c1.1,2.6,1.1,2.6,3.8,1.5
			c1.9-0.8,3.8-1.7,5.8-2.1c0.7-0.2,1.3-0.2,2-0.1c0.5,0.1,1,0.3,0.9,1c0,0.6-0.3,1.2-0.8,1.2c-3.4,0.2-6.3,2.2-9.5,3
			C-359.5,206.2-359.9,206.2-360.3,206.2z"/>
		<path class="st0" d="M-303.8,150.4c0.2,0.9,0,1.4-1.3,1c-0.8-0.2-1.6-0.1-2.4,0.4c-2.5,1.6-5.4,2-8.2,2.4c-1.4,0.2-2.8,0.4-4,1
			c-0.6,0.3-0.9,0.1-1-0.4c-0.1-0.6-1.1-1.2,0-1.8c1.3-0.7,2.7-1,4.1-1.1c3.6-0.3,6.9-1.3,10-3.2c0.3-0.2,0.6-0.4,1.1-0.4
			C-304.1,148.3-303.7,148-303.8,150.4z"/>
		<path class="st0" d="M-254,250.6c2.5-0.3,4,1.4,5.4,3c0.4,0.4,0.6,1.1,0,1.7c-0.6,0.6-1.2,0.3-1.8,0c-0.6-0.4-0.9-1.1-1.5-1.6
			c-1.1-0.8-2.1-0.9-3.3-0.6c-2,0.5-4.1,1.1-6.1,1.6c-0.9,0.3-1.5,0-1.8-0.8c-0.3-0.8,0.1-1.3,0.9-1.4
			C-259.4,251.9-256.8,250.8-254,250.6z"/>
		<path class="st0" d="M-272.9,178.1c-0.8,0.1-1.4-0.2-1.8-0.8c-0.4-0.7-0.9-0.6-1.6-0.4c-2.2,0.7-4.2,1.5-6.5,1.9
			c-0.9,0.1-1.8,0-2.6-0.4c-0.7-0.3-0.9-0.9-0.6-1.6c0.2-0.6,0.7-0.8,1.5-0.6c1.2,0.3,2.4,0,3.6-0.4c1.8-0.5,3.6-1.2,5.4-1.6
			c0.4-0.1,0.7,0,1.1,0.1c1.1,0.3,1.6,1.5,2.8,1.8c0.5,0.2,0.3,0.9,0.2,1.4C-271.7,178.1-272.3,178.2-272.9,178.1z"/>
		<path class="st0" d="M-317.2,283.2c0-0.6,0.3-0.9,0.8-1.1c1.9-0.6,3.8-1.4,5.9-1.4c1,0,1.5,0.5,1.5,1.4c0.1,1,0.6,1.2,1.3,1.2
			c1.1,0.1,2.1,0.4,3.1,0.7c1,0.3,1.5,1.1,1.1,1.8c-0.4,0.9-1.1,0.9-1.9,0.5c-0.9-0.4-1.9-0.5-2.9-0.7c-1.3-0.3-2.5-0.6-2.9-2.1
			c-0.1-0.6-0.5-0.3-0.8-0.3c-1.3,0.3-2.6,0.7-3.9,1C-316.5,284.5-317.2,283.9-317.2,283.2z"/>
		<path class="st0" d="M-366.7,269.3c-0.6,0-0.8,0-1,0c-0.7-0.1-1.1-0.5-1.1-1.2c0-0.7,0.4-1.1,1.1-1.2c2.9-0.2,5.6-0.9,8.4-1.7
			c1.4-0.4,2.8-0.7,4.2-1.1c0.8-0.2,1.3,0.1,1.5,0.8c0.2,0.7,0,1.3-0.9,1.5c-1.6,0.4-3.2,0.9-4.8,1.3
			C-361.8,268.5-364.4,269.2-366.7,269.3z"/>
		<path class="st0" d="M-110.9,282.9c-2.3-0.5-4.5-1.2-5.7-3.5c-0.3-0.6-0.6-0.8-1.2-0.3c-0.6,0.6-1.3,1.1-2,1.6
			c-0.6,0.4-1.2,0.4-1.7-0.1c-0.6-0.6-0.2-1.2,0.1-1.6c1.1-1.2,2.5-2.3,4-3c0.9-0.4,1.9,0.1,2.5,1.4c0.8,1.8,2.3,2.5,4,3
			c0.2,0.1,0.4,0.1,0.6,0.2c0.7,0.2,0.9,0.7,0.8,1.4C-109.7,282.7-110.3,282.8-110.9,282.9z"/>
		<path class="st0" d="M-213.8,296.9c0-0.1,0.1-0.5,0.5-0.7c1.7-0.9,3.2-2.2,5.1-2.9c1.4-0.5,2.6-0.5,3.9,0c1.1,0.4,2.2,0.9,3.3,1.4
			c0.9,0.4,0.9,1.1,0.6,1.8c-0.3,0.8-1,0.7-1.6,0.4c-0.9-0.3-1.7-0.8-2.5-1.1c-1.7-0.8-3.2-0.3-4.6,0.7c-0.9,0.6-1.8,1.2-2.7,1.8
			c-0.5,0.3-1.1,0.3-1.6,0C-213.8,298.1-213.9,297.6-213.8,296.9z"/>
		<path class="st0" d="M-176.3,314c1.3,0.3,2.7,0.8,4.1,1.1c2.3,0.5,4.6,1,6.9,1.4c1.2,0.3,1.7,1.1,1.2,1.9c-0.4,0.6-1,0.6-1.5,0.5
			c-3.8-0.8-7.6-1.4-11.3-2.6c-0.6-0.2-1.1-0.6-0.9-1.3C-177.7,314.3-177.3,313.9-176.3,314z"/>
		<path class="st0" d="M-303.1,246.7c1.6-0.2,3.2,0.1,4.8,0.5c0.8,0.1,1.5,0.4,1.4,1.4c-0.1,1-0.8,1-1.6,0.9
			c-1.7-0.2-3.4-0.6-5.2-0.5c-1.3,0.1-2.7,0.1-3.8,1c-0.4,0.3-0.8,0.2-1.2-0.1c-0.4-0.4-0.7-0.8-0.4-1.3c0.3-0.7,0.8-1.2,1.6-1.5
			C-306.1,246.6-304.6,246.6-303.1,246.7z"/>
		<path class="st0" d="M-243.4,213.3c-0.7-0.1-1.6,0.2-2.4-0.2c-0.5-0.2-0.8-0.5-0.8-1.1c0-0.6,0.3-0.9,0.9-1.1
			c0.6-0.2,1.3-0.2,1.9-0.1c1.8,0.3,3.8,0,5.5,1c1,0.6,1.7,1.4,2.2,2.5c0.3,0.7,0,1.1-0.5,1.5c-0.6,0.4-1.2,0.2-1.6-0.3
			C-240.2,213.3-240.2,213.3-243.4,213.3z"/>
		<path class="st0" d="M-147.9,193.5c-2-0.2-3.8-0.7-5.6-0.7c-0.8,0-1.3,0.1-1.6,1c-0.2,0.8-0.9,0.8-1.5,0.6
			c-0.7-0.2-0.8-0.8-0.6-1.5c0.4-1.7,1.2-2.4,3-2.5c2.2-0.1,4.4,0.3,6.6,0.7c0.7,0.1,1.2,0.6,1.1,1.3
			C-146.7,193.1-147.4,193.4-147.9,193.5z"/>
		<path class="st0" d="M-344.4,130.8c0.8,0.1,1.6,0.2,2.2,0.8c0.3,0.3,0.6,0.6,0.3,1.2c-0.3,0.5-0.7,0.9-1.3,0.8
			c-2.7-0.7-5,0.4-7.3,1.4c-0.4,0.2-0.8,0.4-1.2,0.3c-0.5-0.1-0.9-0.5-1.1-1c-0.2-0.6,0.3-1,0.7-1.2c1.8-1,3.8-1.7,5.8-2
			C-345.7,131-345.1,130.7-344.4,130.8z"/>
		<path class="st0" d="M-142.7,236.2c1.3-0.1,2.7,0.1,3.9,1.2c0.5,0.5,0.7,1,0.3,1.6c-0.4,0.5-0.9,0.7-1.5,0.4
			c-0.9-0.5-1.9-0.9-3-0.8c-1,0.1-1.9,0-2.5,1.1c-0.3,0.4-1,0.6-1.6,0.2c-0.6-0.5-0.6-1.1-0.3-1.8c0.6-1.3,1.9-1.6,3.1-1.8
			C-143.8,236.2-143.4,236.2-142.7,236.2z"/>
		<path class="st0" d="M-193.1,192.8c0,0.7-1,1.6-1.9,1.3c-1.6-0.4-3.1-0.7-4.8-0.7c-0.6,0-1.1-0.4-1.1-1.2c0-0.8,0.4-1,1.1-1.1
			c1.3-0.3,2.5,0.1,3.7,0.3c0.6,0.1,1.1,0.1,1.7,0.2C-193.6,191.6-193.1,192.2-193.1,192.8z"/>
		<path class="st0" d="M-189.9,201.5c-1.7-0.1-3.3-0.7-4.9-1.3c-0.4-0.2-0.9-0.7-0.6-1.3c0.3-0.6,0.8-1.1,1.4-0.9
			c1.7,0.5,3.3,1.1,5.1,1.2c0.4,0,0.7,0.4,0.7,0.9c0,0.5,0.1,0.9-0.5,1.2C-189,201.5-189.4,201.5-189.9,201.5z"/>
		<path class="st0" d="M-277.8,132.5c0-1.3,0-2.5,0-3.8c0-1,0.5-1.6,1.3-1.6c0.8,0,1.2,0.7,1.2,1.4c0.1,2.7,0.1,5.4,0,8
			c0,0.7-0.4,1.4-1.4,1.3c-0.9-0.1-1.1-0.8-1.2-1.5C-277.8,135.1-277.8,133.8-277.8,132.5z"/>
		<path class="st0" d="M-270.5,144.7c0-1.3,0-2.6,0-3.9c0-0.7,0.1-1.4,1-1.4c0.9,0,1.3,0.6,1.3,1.4c0.1,2.8,0,5.5,0,8.3
			c0,0.8-0.7,1.2-1.3,1.2c-0.7,0-1-0.5-1-1.2C-270.5,147.5-270.5,146.1-270.5,144.7z"/>
		<path class="st0" d="M-215.7,131.8c0-1.3,0-2.7,0-4c0-0.9,0.4-1.3,1.1-1.3c0.8-0.1,1.2,0.6,1.2,1.3c0,2.7,0.1,5.5,0,8.2
			c0,0.6-0.3,1.3-1.1,1.2c-0.8-0.1-1.3-0.4-1.2-1.4C-215.7,134.5-215.7,133.2-215.7,131.8z"/>
		<path class="st0" d="M-187.9,106.1c0,0.7,0,1.3,0,2c0,0.8-0.4,1.3-1.2,1.4c-0.9,0.1-1.3-0.5-1.3-1.2c-0.1-1.6-0.1-3.1,0-4.7
			c0-0.7,0.6-1.3,1.4-1.3c0.8,0,1,0.7,1.1,1.3C-187.8,104.4-187.9,105.3-187.9,106.1C-187.9,106.1-187.9,106.1-187.9,106.1z"/>
	</g>
	<rect id="rect3315-5-7-8-3-3" x="-384.8" y="57" class="st8" width="281.7" height="281.7">
	</rect>
	<path id="path11663-5-4" class="st9" d="M-316.2,118.3l26-0.3l6.7,22.6"/>
	<path id="path11669-2-1" class="st9" d="M-224.6,157.4c9.1,3.2,15.7,0,16.6-5.1"/>
	<path id="path11671-8-6" class="st9" d="M-262.6,154.8c-11.3,6-19.6,2.2-20.3-3.4"/>
	<path id="path11673-1-9" class="st9" d="M-283,139.4l0.3,12.4"/>
	<path id="path11675-4-6" class="st9" d="M-273.8,98.5l13.9,19c-10.4,7-19.4,5.9-25.9,0L-273.8,98.5z"/>
	<path id="path11677-4-5" class="st9" d="M-216.4,99.8l11.4,17.9c-10.7,7.8-17.7,4.7-23.4,0.2L-216.4,99.8z"/>
	<path id="path11679-4-4" class="st9" d="M-282.9,120.7v19.8"/>
	<path id="path11681-2-7" class="st9" d="M-224.6,120.7v36.5"/>
	<path id="path11683-6-4" class="st9" d="M-207.9,152.3v-32.6"/>
	<path id="path11685-0-0" class="st9" d="M-259.5,87.7l14.1-8l6.1,17.1l-13,8L-259.5,87.7z"/>
	<path id="path11687-1-5" class="st9" d="M-259.8,87.9l-9,11.9"/>
	<path id="path11689-7-9" class="st9" d="M-265.4,95.3v13.6"/>
	<path id="path11691-2-2" class="st9" d="M-241.1,98.2l0,6.6l-13.2,7.5v-11"/>
	<path id="path11693-0-9" class="st9" d="M-254.8,112.4l-11.2-3.6"/>
	<path id="path11695-5-4" class="st9" d="M-261.9,109.6V102l4.2,1.1v7"/>
	<path id="path11697-4-1" class="st9" d="M-179.7,102.8l-8.6-9.5l-10.9,14.3l-13.3-11.1l11.4-13.7l12.6,10.5"/>
	<path id="path11699-2-0" class="st9" d="M-191.4,90.4l-0.2-6.2l-4.7-4.1v6.7"/>
	<path id="path11701-2-4" class="st9" d="M-182.3,101l0,9.1"/>
	<path id="path11703-2-9" class="st9" d="M-198.7,106.7l0,10.3l-10.7-10.5v-6.1"/>
	<path id="path11705-3-8" class="st9" d="M-262.9,120v34.8"/>
	<path id="path11707-0-8" class="st9" d="M-262.7,136.9l8.1,0.3l-0.1-6.4l7.6,0.3l0,6.4l6.1,0.2l0-6.4l6.6,0.2l0,6.5l9.4,0.3"/>
	<path id="path11711-1-6" class="st9" d="M-282.8,111.7l-2.4-7.3l-0.6,8.2l-2.9-10.1l0-5.9l-1.1-1.9l-3.7,0.1l-0.6,5.8h-6.1v-6
		l-4.7-0.1l-0.1,6.1h-4.9l0.1-6.1l-1.3-0.2l-3.4-3l-0.2,6.8l-4-4l0.1-7.4l-3.5-3.5l-0.4,7.3l-4-3.9l0-7.8l-5.3-5.3l0.1,8l-4.6-4.5
		l-0.3-8.3l-4.4-4.4l-0.1,8.1l-4-3.8l0-8.6l-2.8-3"/>
	<path id="path11713-4-1" class="st9" d="M-184,112.7l-14.6,4.2"/>
	<path id="path12241-0-8" class="st9" d="M-190.8,84l2.6-0.5v8.9"/>
	<path id="path12243-7-9" class="st9" d="M-188.3,83.5l-5.3-5l-2.7,0.9"/>
	<path id="path11709-7-3" class="st9" d="M-207.6,127.8l9.1-6l0.2,6l4.5-3.1l-0.1-6l5.6-4l0.1,6.1l4.3-2.9l0.1-6.3l5.1-3.3l0,6.1
		l5-3.4l0-5.9l5-3.3l0.1,5.9l4.3-3l0.2-6l4.9-3.3l-0.1,5.9l4.6-3.1l-0.1-5.6l1.3-0.8l3.5-3.7l-0.2,6.8l4-4.2l0.1-6.6l4.8-5l-0.2,6.4
		l4.1-4.3l-0.1-6l4.4-4.6l-0.1,6.1l3.7-3.9l0-5.9l3.9-4l0.1,5.6l3.4-3.6l0-5l2.7-2.6"/>
	<path id="path12261-5-5" class="st9" d="M-352,57.5v5.1l-4.7-5.1"/>
	<path id="path12263-2-7-9" class="st9" d="M-290.3,118l1.6-18.7"/>
	<path id="path12285-7-4" class="st9" d="M-276.7,128.2v8.5"/>
	<path id="path12285-4-1-7" class="st9" d="M-269.5,140.4v8.5"/>
	<path id="path12285-3-8-5" class="st9" d="M-214.6,127.5v8.5"/>
	<path id="path12285-47-8-2" class="st9" d="M-189.1,103.3v5"/>
	<g id="g10437-7-0-5" transform="matrix(-1.0650606,0,0,1.0582684,786.20218,93.037259)">
		<g id="g10432-9-31-1">
			<path id="path9550-6-6-5" class="st9" d="M1070.4-2.4l2.9-3.1l-2.8-16.7l-2.6,1.7l-3-0.9l2.6-2.2"/>
			<path id="path9552-1-3-2" class="st9" d="M1068.1-20.5l2,17.9l-5.3-3.1l0.2-15.5"/>
			<path id="path10427-8-1-7" class="st9" d="M1067.6-23.6l2.9,1.2"/>
		</g>
	</g>
	<path id="path12545-4-4" class="st9" d="M-255.4,155.1l-7.3-0.4"/>
	<g id="g12553-2-5-3" transform="matrix(1.256663,0,0,1.2566665,-72.139956,59.875692)">
		<g id="g12549-2-8-4">
			<path id="path9550-6-8-4-3-39" class="st10" d="M-131.3,82.3l-3.6-0.3l1-15.2l3.2,0.1l2-2.9l-3.5-0.1"/>
			<path id="path9552-1-1-0-9-2" class="st10" d="M-130.6,66.6l-0.7,15.7l2.8-4.6l-0.2-13.5"/>
		</g>
		<path id="path10427-8-9-7-6-6" class="st10" d="M-132.3,63.9l-1.6,2.7"/>
	</g>
	<path id="path12591-6-2" class="st9" d="M-247,155.6l5.7,0.3"/>
	<path id="path12593-8-5" class="st9" d="M-233.5,156.4l8.6,0.5"/>
	<path id="path12809-7-8" class="st9" d="M-117.3,57.1v3.5l3.2-3.2"/>
	<g id="g12678-38-9" transform="matrix(1.256663,0,0,1.2566665,-80.094066,59.288376)">
		<g id="g12671-4-4" transform="translate(-0.41084676,0.06162701)">
			<path id="path9431-9-0-1-85-3" class="st10" d="M-84.3,55l-2.2,1.4"/>
			<g id="g12666-5-8">
				<path id="path9433-9-7-5-1-6" class="st10" d="M-84.3,55l2.3,9.4l-3,2.2l-1.4-10.2"/>
				<path id="path9435-8-5-2-39-2" class="st10" d="M-88.3,55.1l0.3,9.1l2.9,2.4"/>
				<path id="path9439-3-8-9-7-8" class="st10" d="M-88.2,55l2.3-1.5l1.5,1.2"/>
			</g>
		</g>
		<path id="path9437-6-2-8-7-4" class="st10" d="M-86.4,56.2L-88,55"/>
	</g>
	<g id="g12678-3-3-6" transform="matrix(1.256663,0,0,1.2566665,-68.790446,51.547889)">
		<g id="g12671-8-7-0" transform="translate(-0.41084676,0.06162701)">
			<path id="path9431-9-0-1-8-8-7" class="st10" d="M-77.3,50.2l-2.2,1.4"/>
			<g id="g12666-0-0-2">
				<path id="path9433-9-7-5-4-9-5" class="st10" d="M-77.3,50.2l2.3,9.4l-3,2.2l-1.4-10.2"/>
				<path id="path9435-8-5-2-3-8-8" class="st10" d="M-81.3,50.3l0.3,9.1l2.9,2.4"/>
				<path id="path9439-3-8-9-9-2-1" class="st10" d="M-81.2,50.2l2.3-1.5l1.5,1.2"/>
			</g>
		</g>
		<path id="path9437-6-2-8-4-0-2" class="st10" d="M-79.4,51.4l-1.6-1.2"/>
	</g>
	<g id="g12678-39-3-6" transform="matrix(1.256663,0,0,1.2566665,-58.051494,44.242258)">
		<g id="g12671-82-2-9" transform="translate(-0.41084676,0.06162701)">
			<path id="path9431-9-0-1-2-0-3" class="st10" d="M-70.6,45.6l-2.2,1.4"/>
			<g id="g12666-6-7-2">
				<path id="path9433-9-7-5-8-6-9" class="st10" d="M-70.6,45.6l2.3,9.4l-3,2.2L-72.8,47"/>
				<path id="path9435-8-5-2-9-9-9" class="st10" d="M-74.6,45.7l0.3,9.1l2.9,2.4"/>
				<path id="path9439-3-8-9-90-0-5" class="st10" d="M-74.6,45.6l2.3-1.5l1.5,1.2"/>
			</g>
		</g>
		<path id="path9437-6-2-8-9-8-3" class="st10" d="M-72.7,46.8l-1.6-1.2"/>
	</g>
	<g id="g12678-6-4-5" transform="matrix(1.256663,0,0,1.2566665,-48.190246,35.129629)">
		<g id="g12671-2-3-1" transform="translate(-0.41084676,0.06162701)">
			<path id="path9431-9-0-1-0-4-5" class="st10" d="M-64.9,39.4l-1.2,1.5"/>
			<g id="g12666-2-0-4">
				<path id="path9433-9-7-5-6-7-3" class="st10" d="M-64.8,39.4l2,9.3l-2,2.3l-1.6-9.9"/>
				<path id="path9435-8-5-2-92-3-6" class="st10" d="M-68.5,40.1l0.3,9.1l3.1,1.6"/>
				<path id="path9439-3-8-9-0-8-9" class="st10" d="M-68.5,40l1.5-1.7l1.9,0.9"/>
			</g>
		</g>
		<path id="path9437-6-2-8-1-5-1" class="st10" d="M-66.5,41l-1.7-1"/>
	</g>
	<g id="g12678-6-5-8-4" transform="matrix(1.256663,0,0,1.2566665,-39.529375,25.46124)">
		<g id="g12671-2-2-0-1" transform="translate(-0.41084676,0.06162701)">
			<path id="path9431-9-0-1-0-3-5-5" class="st10" d="M-59.6,33.4l-1.2,1.5"/>
			<g id="g12666-2-3-8-2">
				<path id="path9433-9-7-5-6-4-6-5" class="st10" d="M-59.4,33.4l2,9.3l-2,2.3l-1.6-9.9"/>
				<path id="path9435-8-5-2-92-4-8-1" class="st10" d="M-63.2,34l0.3,9.1l3.1,1.6"/>
				<path id="path9439-3-8-9-0-2-4-9" class="st10" d="M-63.1,34l1.5-1.7l1.9,0.9"/>
			</g>
		</g>
		<path id="path9437-6-2-8-1-7-4-2" class="st10" d="M-61.2,35l-1.7-1"/>
	</g>
	<path id="path12811-0-8" class="st9" d="M-207.7,151.7l16.8-11.5"/>
	<path id="path12813-5-4" class="st9" d="M-184.4,135.6l13.2-9"/>
	<path id="path12815-8-2" class="st9" d="M-164.2,121.7l11.7-8"/>
	<path id="path12817-6-6" class="st9" d="M-144.9,108.4l10.2-11.2"/>
	<path id="path12819-0-9" class="st9" d="M-128.3,90l8.8-9.7"/>
	<path id="path12821-0-2" class="st9" d="M-112.9,72.8l9.5-10.5"/>
	<g id="g10437-7-3-3-2" transform="matrix(-1.0650606,0,0,1.0582684,796.87719,103.09772)">
		<g id="g10432-9-3-4-8">
			<path id="path9550-6-2-4-3" class="st9" d="M1062.6,5l2.9-3.1l-2.8-16.7l-2.6,1.7l-3-0.9l2.6-2.2"/>
			<path id="path9552-1-17-8-8" class="st9" d="M1060.3-13.1l2,17.9l-5.3-3.1l0.2-15.5"/>
			<path id="path10427-8-0-1-0" class="st9" d="M1059.8-16.2l2.9,1.2"/>
		</g>
	</g>
	<path id="path12909-2-1" class="st9" d="M-316.4,118l-12.5-12.7"/>
	<path id="path12911-5-9" class="st9" d="M-336.8,97.9l-11-10.6"/>
	<path id="path12913-7-2" class="st9" d="M-356.2,78.8L-378.6,57"/>
	<path id="path12915-7-9" class="st9" d="M-366.2,127.1c2.9,0.7,3.7-1.2,5.8-2.2c1.6-0.8,1.5,1.5,1.7,1.4c3.6-1.8,0.3-10.9,8.6-2.5"
		/>
	<path id="path12917-7-5" class="st9" d="M-352,134c1.9-1.1,7.5-2.8,8.6-1.7"/>
	<path id="path12919-3-5" class="st11" d="M-321.1,154.4c3.8-2.2,7.4-0.9,11.7-3.1c0.3-0.2,3.9-2.3,4.2-2c0.2,0.2,0,1.6,0,2"/>
	<path id="path12921-5-3" class="st9" d="M-285.2,177.3c2.3,1.5,9.4-2.8,10.6-1.7c1,1,0.2,1.4,1.9,1.4"/>
	<path id="path12923-8-0" class="st9" d="M-368.2,203.2c1.3-0.4,2.3-1.5,3.6-2c2.2-0.7,1.9,3.9,3.3,3.9c3.7,0,6.6-3.1,10.9-3.1"/>
	<path id="path12925-0-4" class="st9" d="M-262.1,253.9c6.6-1.4,9-3.9,12.5,0.8"/>
	<path id="path12927-6-0" class="st9" d="M-245.7,212.1c3.1,0.1,7.1-0.5,8.4,2.8"/>
	<path id="path12929-0-8" class="st9" d="M-199.8,192.3c2.5-0.4,3.8,0.9,5.6,0.6"/>
	<path id="path12931-0-7" class="st9" d="M-194.2,199.3c1.7,0.5,3.2,1.1,5,1.1"/>
	<path id="path12933-8-6" class="st9" d="M-171.1,144.6c-3.8-3.7,6.3-5.4,7.2-3.9c0.4,0.6,0.4,2.4,0.8,2.8c0.5,0.5,2.6-3.8,3.3-3.1
		c0.1,0.1,0.3,3.6,0.3,3.6c0,5.5,5.4,3.3-2.8,5.3"/>
	<path id="path12935-9-4" class="st9" d="M-156.1,193.4c0.2-3.5,6.1-1.1,8.4-1.1"/>
	<path id="path12937-8-4" class="st9" d="M-146.3,239.1c0.4-2.2,5.9-1.9,7-0.6"/>
	<path id="path12939-8-0" class="st9" d="M-332.8,293.8c3.9-0.5,11.5-3.4,12.8,0.6c1.6,4.7-1.1,4.5,5.3,5.6"/>
	<path id="path12941-9-9" class="st9" d="M-316.4,283.5c8.7-2.5,4.6-1.2,6.7,0.8c0.5,0.5,3.9,0.6,5,1.4"/>
	<path id="path12943-2-2" class="st9" d="M-368.2,268.4c5-0.2,8.7-1.9,13.1-2.8"/>
	<path id="path12945-9-9" class="st9" d="M-212.8,297.7c5.7-3.7,5.8-4.2,11.4-1.4"/>
	<path id="path12947-4-0" class="st9" d="M-176.7,315.5c3.7,1.4,7.4,1.7,11.7,2.8"/>
	<path id="path12949-8-5" class="st9" d="M-120.4,280.1c7.4-6.3,1.3,0.2,10,2"/>
	<path id="path12951-9-3" class="st9" d="M-308.3,249.2c0.4-1.2,5.8-1.6,10-0.6"/>
	<g id="g12553-2-5-7-1" transform="matrix(1.256663,0,0,1.2566665,-80.088373,59.620978)">
		<g id="g12549-2-8-9-6">
			<path id="path9550-6-8-4-3-3-3" class="st10" d="M-136.2,82.1l-3.6-0.3l1-15.2l3.2,0.1l2-2.9l-3.5-0.1"/>
			<path id="path9552-1-1-0-9-8-0" class="st10" d="M-135.5,66.4l-0.7,15.7l2.8-4.6l-0.2-13.5"/>
		</g>
		<path id="path10427-8-9-7-6-0-8" class="st10" d="M-137.2,63.7l-1.6,2.7"/>
	</g>
</g>
</svg>
