<?xml version="1.0" encoding="utf-8"?>
<!-- Generator: Adobe Illustrator 25.0.0, SVG Export Plug-In . SVG Version: 6.00 Build 0)  -->
<svg version="1.1" id="Layer_1" xmlns="http://www.w3.org/2000/svg" xmlns:xlink="http://www.w3.org/1999/xlink" x="0px" y="0px"
	 viewBox="0 0 283.5 283.5" style="enable-background:new 0 0 283.5 283.5;" xml:space="preserve">
<style type="text/css">
	.st0{fill:#FFFFFF;}
	.st1{fill:#87AD50;}
	.st2{fill:#C3895F;}
	.st3{fill:#BBA78E;}
	.st4{fill:#EE663C;}
	.st5{fill:#BAA78E;}
	.st6{fill:#214E26;}
	.st7{fill:none;stroke:#010101;stroke-width:1.777;stroke-linecap:round;}
	.st8{fill:none;stroke:#010101;stroke-width:1.777;stroke-linecap:round;stroke-linejoin:round;}
	.st9{fill:none;stroke:#010101;stroke-width:1.777;stroke-linejoin:round;}
	.st10{fill:none;stroke:#010101;stroke-width:1.777;}
</style>
<g id="g3240" transform="translate(-184.55401,-80.868714)">
	<g>
		<path class="st0" d="M326.3,364.3c-46.9,0-93.8,0-140.6,0c-0.9,0-1.1-0.2-1.1-1.1c0-93.8,0-187.5,0-281.3c0-0.9,0.2-1.1,1.1-1.1
			c93.8,0,187.5,0,281.3,0c0.9,0,1.1,0.2,1.1,1.1c0,93.8,0,187.5,0,281.3c0,0.9-0.2,1.1-1.1,1.1
			C420.1,364.3,373.2,364.3,326.3,364.3z"/>
		<path class="st1" d="M326.4,361.7c-45.9,0-91.8,0-137.7,0c-1.2,0-1.6-0.2-1.6-1.5c0-43.9,0-87.8,0-131.7c0-1.1,0-1.5,1.3-1.2
			c4,0.9,8,1,12,1.7c4.5,0.7,8.8,2.1,13.1,3.7c5.5,2.1,10.9,4.5,16.5,6.3c2.8,0.9,5.5,0.9,8.4,0.7c2.5-0.2,4.9-0.5,7.4-0.8
			c2.5-0.3,5-0.6,7.5-1c2.1-0.3,4.1-0.7,6.2-0.9c3.1-0.3,6.3-0.6,9.4-0.7c3.1-0.1,6.2,0.4,9.3,1.2c0.6,0.2,1.2,0.1,1.7,0.1
			c1.8,0,3.6,0.4,5.3,0.9c4.3,1.4,8.7,1.4,13.1,1c2.5-0.2,5-0.5,7.5-0.8c2.6-0.3,5.2-0.9,7.7-1.9c5.1-2.1,9.3-5.4,13.4-9
			c2.8-2.5,5.4-5.2,8-7.9c1.3-1.4,2.9-2.3,4.5-3.2c3.5-2,7.1-3.8,10.5-5.8c1.2-0.7,2.5-0.8,3.8-0.9c2.3-0.1,4.6-0.1,7,0
			c7.8,0.2,15.4,1.4,22.5,4.9c4,2,7.9,4,12,5.6c5.1,2.1,10.4,3.6,15.9,4.8c3.2,0.7,6.5,1.1,9.7,1.4c7.4,0.8,14.9,0.4,22.3,0.4
			c4.6,0,9.2-0.6,13.8-0.6c2.7,0,5.4,0,8,0.6c0.5,0.1,0.8,0.3,0.7,0.8c0,0.3,0,0.6,0,0.8c0,43.7,0,87.5,0,131.2
			c0,1.2-0.3,1.5-1.5,1.5C418.3,361.7,372.3,361.7,326.4,361.7z"/>
		<path class="st1" d="M187.2,85.5c3.4,3.9,6.6,7.6,9.9,11.3c2,2.3,4,4.5,6,6.7c2.9,3.3,5.8,6.6,8.6,9.8c1.6,1.8,3.2,3.5,4.7,5.2
			c2.7,3,5.3,6.1,8,9.1c1.3,1.5,2.7,3,4.1,4.5c3,3.4,5.9,6.7,8.9,10.1c2.2,2.4,4.4,4.8,6.5,7.2c2.6,3,5.2,6,7.8,9
			c1.7,1.9,3.3,4,5.3,5.4c2.1,1.5,4.6,2.6,7.4,2.7c3.3,0.2,6.2-0.9,8.9-2.7c0.8-0.6,1.6-1.2,2.4-1.9c0.2-0.2,0.4-0.4,0.8-0.3
			c1.9,0.4,3.8,0.8,5.8,1.1c0.6,0.1,0.7,0.3,0.7,0.9c0,0.4,0,0.8-0.1,1.3c-0.1,0.7,0.1,1.4,0.9,1.6c1.2,0.4,2.4,0.7,3.7,0.9
			c0.8,0.2,1.6,0,2.1-0.9c0.5-0.8,1.3-1.4,2-2.1c0.4-0.4,4.6,0.3,4.8,0.8c0.2,0.6,0.1,1.2,0,1.7c-0.4,1.7-0.1,2.4,1.6,2.8
			c1,0.3,1.9,0.5,2.9,0.7c1.3,0.3,2-0.7,2.6-1.5c1.3-1.9,2.6-2.5,4.9-1.7c1.3,0.5,1.2,1.2,1.1,2c-0.4,2.3-0.2,2.1,1.9,2.9
			c2.6,1,4.3,0.1,6-1.7c0.5-0.6,1-0.5,1.6-0.3c4.2,1.2,8.4,2.6,12.6,3.5c4.1,0.9,8-0.2,11.5-2.7c0.7-0.5,1.4-1.1,2.3-1.5
			c2.3-0.9,4.3-0.9,6.4,0.6c0.6,0.4,1.3,0.7,1.9,1c0.4,0.2,0.9,0.4,1.3,0.3c1.8-0.2,3.4-0.8,5.1-1.5c0.6-0.2,1-0.9,0.7-1.7
			c-0.2-0.6-0.2-1.2-0.3-1.8c0-0.4-0.6-0.9,0-1.1c0.6-0.3,1.3-0.7,2-0.4c1.7,0.8,3.4,1.6,5.1,2.5c0.7,0.3,1.3,0.4,2,0.1
			c1.2-0.5,2.6-0.8,3.8-1.2c0.9-0.3,1.2-0.9,1-1.8c-0.3-1.1-0.5-2.3-0.7-3.4c-0.1-0.5,0-0.7,0.6-1c1.8-0.9,3.3-0.4,4.9,0.5
			c3.5,1.9,6.9,0.7,10.2-0.8c0.5-0.2,0.5-0.6,0.5-1.1c-0.1-2.1,0.2-4.2-0.2-6.3c-0.2-0.9,0.2-1.6,1.1-2.1c4.2-2.4,8.4-4.8,12.6-7.2
			c3.5-2,7-4,10.5-6c4.2-2.4,8.4-4.8,12.6-7.2c1-0.6,2.1-1.2,3.1-1.7c2.5-1.1,3.7-3.5,5.5-5.3c1.9-2,3.6-4.2,5.4-6.3
			c2.3-2.7,4.5-5.3,6.8-8c1.6-1.9,3.3-3.8,4.9-5.6c2.3-2.7,4.6-5.4,6.9-8.1c1.7-2,3.4-4,5.1-5.9c0.5-0.5,0.9-1,1.4-1.6
			c0.3,0.3,0.2,0.7,0.2,1c0,38.7,0,77.3,0,116c0,1-0.3,1.3-1.2,1.2c-3.7-0.3-7.5-0.4-11.2-0.5c-2.8-0.1-5.5-0.4-8.3-0.5
			c-3.9-0.1-7.8-0.4-11.6-0.7c-2.1-0.2-4.2-0.3-6.3-0.5c-3.3-0.3-6.6-0.6-9.8-0.8c-2.9-0.2-5.7-1.4-8.6-1.4c-4.6,0-8.6-1.9-12.8-3.4
			c-3.2-1.2-6.3-2.8-9.4-4.1c-5.3-2.2-10.7-3.8-16.2-5.1c-3.1-0.7-6.2-1.3-9.3-1.8c-3.1-0.4-6.2-1.1-9.3-0.8
			c-3.5,0.4-6.8,1.4-10.2,2.5c-4,1.4-7.8,3.2-11.4,5.2c-3.3,1.9-6.1,4.4-8.3,7.6c-2,2.9-4.3,5.6-6.9,8c-2.9,2.7-6.4,4.3-10.3,4.9
			c-2.9,0.5-5.8,0.6-8.7,0.8c-2.5,0.1-5.1,0-7.6-0.1c-4-0.1-8-0.4-11.8-1.7c-2.6-0.9-5.2-1.2-7.9-1.3c-5.1-0.2-10.2,0.1-15,1.9
			c-2.7,1-5.4,2.2-8.2,3c-1.8,0.6-3.7,1-5.6,1.2c-1.8,0.2-3.5-0.4-5.1-1.2c-3.1-1.3-6.2-2.6-9.5-3c-2.3-0.3-4.5-0.5-6.8-0.7
			c-1.1-0.1-2.1-0.4-3.1-0.8c-2.8-1.1-5.6-1.6-8.6-1.6c-3.1,0-6.3,0.1-9.4-0.3c-2.4-0.3-4.9-0.5-7.1-1.7c-0.6-0.3-1.3-0.6-1.9-0.5
			c-1,0-1-0.4-1-1.2c0-40.1,0-80.2,0-120.3C187.2,86.3,187.2,86.1,187.2,85.5z"/>
		<path class="st2" d="M446.1,89c-0.1-0.7,0-1.4-0.2-2c-0.4-1-1.5-1.4-2.2-0.5c-1.3,1.7-3.1,3-4.3,4.8c-0.3,0.4-0.4,0.8-0.4,1.3
			c0,0.8-0.1,1.6,0,2.4c0.4,2.1-0.7,3.4-2.3,4.5c-0.2-0.7,0-1.4-0.3-2c-0.4-1-1.4-1.4-2.1-0.6c-1.6,1.7-3.1,3.4-4.6,5.1
			c-0.8,1-0.2,2.2-0.1,3.3c0.1,2.2,0.2,2.2-1.6,3.7c-0.4-0.3-0.3-0.8-0.4-1.2c-0.1-1.3-1-1.8-2.1-1.1c-1.7,1-3.3,2.2-4.9,3.2
			c-0.9,0.6-1.2,1.4-0.9,2.5c0,0.1,0.1,0.3,0.1,0.4c0.2,1.7,0.1,2.1-1.5,2.9c-0.7,0.4-1.4,0.7-2.3,1.2c0-0.9,0-1.7,0-2.5
			c-0.1-1.4-1.1-1.9-2.3-1.2c-1.3,0.7-2.5,1.5-3.8,2.2c-0.9,0.5-1.6,1.2-1.4,2.3c0,0.3,0,0.6,0,0.8c-0.1,0.9,0.4,2.2-0.2,2.7
			c-1,0.8-2.2,1.6-3.5,2c-0.1-0.9-0.2-1.8-0.3-2.6c-0.1-1.1-0.9-1.6-1.8-1.1c-1.7,0.8-3.3,1.8-5,2.7c-0.3,0.2-0.5,0.5-0.5,0.9
			c0,1.3-0.2,2.6-0.2,3.8c0,0.5-0.1,0.9-0.5,1.2c-0.1,0.1-0.3,0.1-0.4,0.2c-2.1,1.1-4.1,2.2-6.4,3.4c0-1,0-1.8,0-2.7
			c0-0.5,0.2-0.6,0.6-0.7c0.7-0.2,1.3-0.6,1.9-0.8c1-0.4,1-1.2,0.6-2c-1.6-2.7-3.3-5.3-5-7.9c-1.3-2.1-2.6-4.2-3.9-6.3
			c-1.1-1.8-2-1.8-3.1,0.1c-2.5,4.3-5.1,8.5-7.7,12.8c-1.1,1.7-1,2.3,0.7,3.2c0.8,0.4,0.9,0.9,0.9,1.7c-0.1,2,0,4,0,6
			c0,0.7-0.2,1-0.9,1.2c-0.9,0.2-1.7,0.5-2.6,0.6c-1.3,0.2-1.7,0.9-1.7,2c-0.1,2.3-0.1,2.3-2.3,2.7c-0.2,0-0.4,0.1-0.8,0.2
			c0-0.8,0-1.5,0-2.2c-0.1-1.3-0.7-1.8-2-1.5c-1.3,0.3-2.7,0.6-4,1c-0.9,0.3-1.2,0.9-1.3,1.7c0,0.3,0,0.6,0,0.9c0,2.2,0,2.2-2.2,2.8
			c-0.7,0.2-1,0.1-0.9-0.7c0-0.3,0-0.6,0-0.8c-0.1-2.1-0.7-2.5-2.7-2c-1.1,0.3-2.2,0.5-3.2,0.8c-0.7,0.2-1.3,0.5-1.2,1.4
			c0,0.2,0,0.3,0,0.5c0,3,0,3-3.1,3.8c-0.5,0.1-1,0.3-1.7,0.5c0-2.2,0-4.4,0-6.5c0-0.5,0.2-0.6,0.7-0.8c1.5-0.6,1.6-1.2,0.9-2.6
			c-1.3-2.7-2.9-5.2-4.4-7.8c-1.9-3.5-3.9-6.9-5.9-10.4c-0.5-0.9-1.5-1-2.1-0.1c-0.5,0.7-0.9,1.4-1.3,2.2c-2.7,5-5.5,10-8.2,15
			c-0.9,1.7-0.9,1.7,0.5,3.1c0.3,0.3,0.5,0.6,0.5,1c0,2.7,0,5.4,0,8.2c-2.5-0.5-4.9-0.9-7.4-1.5c-0.6-0.1-0.7-0.3-0.7-0.8
			c0.1-4.1-0.1-3.3-3.5-4.2c-1.1-0.3-2.1-0.6-3.2-0.9c-1.4-0.3-1.9,0-2,1.4c0,0.4-0.2,0.8-0.2,1.1c0,0.4,0,0.8,0,1
			c-0.1,0.4-0.2,0.2-0.3,0.2c-2.4-0.3-2.8-1-2.3-3.3c0.1-0.3,0.2-0.7,0.4-0.8c1.4-1,2.5-2.4,3.7-3.6c0.5-0.5,0.9-0.5,1.4-0.3
			c2.3,0.8,4.7,0.9,7.1,0.4c2.1-0.5,3.8-1.8,5.2-3.5c0.1-0.1,0.1-0.2,0.2-0.3c1.6-1,1.5-2.6,1.5-4.3c0-6,0-12,0-18.1
			c0-0.8,0.1-1.4,0.8-1.9c0.2-0.2,0.5-0.4,0.7-0.7c1-1.1,1.1-1.6,0.2-2.8c-3-4.1-5.9-8.3-8.9-12.4c-1.1-1.5-1.7-1.4-2.8,0
			c-2.2,3.1-4.3,6.2-6.5,9.3c-0.9,1.3-1.8,2.5-2.6,3.8c-0.4,0.6-0.6,0.7-1,0c-0.1-0.1-0.2-0.3-0.3-0.4c-1.4-2-1.8-1.9-3.7-0.3
			c-2.7,2.4-5.4,4.6-8.2,6.8c-1.4,1.1-2.1,2.5-2.9,4c-2.1,3.8-4.2,7.7-6.3,11.6c-0.3,0.5-0.7,1-0.4,1.6c0.4,0.9,1.5,1,2.1,0.2
			c0.4-0.6,0.7-1.3,1.3-2.2c0,1.1,0,1.9,0,2.7c0,2.8,0,5.6,0,8.4c0,0.3,0.3,1.1-0.4,0.9c-0.5-0.1-1.5,0.1-1.5-0.9
			c0-0.4,0-0.9,0.1-1.3c0.2-1-0.3-1.7-1.3-2c-2-0.4-3.9-0.8-5.9-1.1c-0.6-0.1-0.7-0.4-0.7-0.8c0-2.2,0-4.3,0-6.5
			c0-0.5,0.2-0.9,0.7-1.1c0.5-0.2,1-0.5,1.5-0.9c0.7-0.5,1.2-1.1,0.7-2.1c-0.9-1.6-1.8-3.2-2.6-4.9c-2.3-4.3-4.6-8.6-6.8-12.9
			c-0.9-1.7-1.7-1.8-2.9-0.2c-3.9,5.3-7.7,10.7-11.5,16.1c-0.5,0.7-1.1,1.4-1.6,2.1c-0.6,0.8-0.5,1.8,0.5,2c1.6,0.4,2,1.3,1.9,2.8
			c-0.1,1.9,0,3.8,0,5.9c-1.3-0.9-2.1-2-2.9-3.1c-0.4-0.5-0.3-1.5-0.1-2.2c0.3-1.2,0-2-0.8-2.8c-1-0.9-2.1-1.9-3.1-2.8
			c-0.4-0.4-0.8-0.9-1.5-0.7c-0.8,0.3-1,0.8-0.9,1.7c-1.4-0.9-2.3-2-2.1-3.6c0.2-1.6-0.4-2.8-1.4-3.9c-1.3-1.4-2.6-2.9-3.9-4.4
			c-0.5-0.6-1.1-1.1-1.8-0.7c-0.7,0.3-0.8,1.1-0.8,1.8c0,0.1,0,0.2,0,0.4c-1.6-1-1.8-1.2-1.4-3.2c0.2-1.1-0.2-2.1-0.9-2.9
			c-1.1-1.2-2-2.6-2.9-3.9c-0.4-0.6-0.9-1.2-1.6-1.2c-0.7,0.1-1.2,0.7-1.2,1.5c0,0.1-0.2,0.3-0.3,0.4c-0.4-0.4-0.7-0.9-1.1-1.3
			c-1.1-1.1-1.1-2.4-0.8-3.7c0.2-1.1-0.1-1.9-0.7-2.5c-1.2-1.3-2.3-2.6-3.4-3.9c-0.3-0.4-0.7-0.9-1.4-0.6c-0.7,0.2-1,0.7-0.9,1.4
			c0,0.4-0.4,0.7-0.3,1.2c-1.2-1.2-2.6-2.1-1.9-4.2c0.3-1-0.7-1.8-1.3-2.6c-0.6-0.8-1.3-1.5-1.9-2.3c-0.5-0.7-1-1.3-2-1.1
			c-1,0.2-0.8,1.1-0.9,1.8c-1.4-1-1.8-2.5-1.1-3.9c0.1-0.2,0.3-0.3,0.5-0.3c0.4,0,0.7,0,1.1,0c77.9,0,155.8,0,233.7,0
			c1.5,0,1.4,0,1.6,1.6C448.1,86.8,447.8,88.1,446.1,89z"/>
		<path class="st3" d="M465.6,216.5c0,2.6,0,5.1,0,7.7c0,0.6,0,0.9-0.9,0.8c-4.2-0.6-8.5-0.7-12.8-0.5c-2.3,0.1-4.5,0.3-6.8,0.5
			c-5.9,0.4-11.8,0.2-17.6,0.1c-4.3-0.1-8.6-0.5-12.9-1.3c-5.3-0.9-10.5-2.2-15.5-4c-4.5-1.6-8.8-3.7-13-5.8
			c-4.5-2.2-9.1-4.1-14.1-5c-2.3-0.4-4.7-0.6-7.1-0.8c-3.5-0.3-7.1,0-10.6-0.2c-2.4-0.1-4.5,0.4-6.6,1.6c-4.2,2.4-8.5,4.5-12.6,7.2
			c-1.7,1.1-3,2.7-4.4,4.2c-1.9,2.1-4,4-6.1,5.9c-2,1.7-4,3.3-6.1,4.8c-3.2,2.2-6.6,3.9-10.5,4.7c-3.4,0.7-6.9,0.8-10.4,1.3
			c-4.8,0.6-9.3,0-13.8-1.5c-1.8-0.6-3.6-0.3-5.4-0.6c-2-0.4-3.9-0.9-5.9-1.1c-2.3-0.2-4.5-0.2-6.8,0c-1.2,0.1-2.4,0.2-3.6,0.3
			c-2.6,0.1-5.2,0.5-7.7,0.9c-2.6,0.4-5.2,0.7-7.7,1c-3.5,0.4-6.9,0.8-10.4,1.2c-1.6,0.2-3.1,0-4.6-0.5c-5.5-1.7-10.7-4-16-6.1
			c-5-1.9-10-3.5-15.3-4.3c-4.1-0.6-8.3-0.9-12.3-1.8c-0.7-0.2-0.9-0.4-0.9-1.1c0-4.2,0-8.3,0-12.5c0-0.7,0.1-0.9,0.9-0.7
			c1.9,0.6,3.6,1.5,5.6,1.8c2.2,0.3,4.3,0.6,6.5,0.6c3.1,0.1,6.1-0.2,9.2,0.3c1.5,0.2,2.9,0.5,4.3,1c2.3,1,4.7,1.4,7.1,1.5
			c4.3,0.3,8.5,1.1,12.4,3c3.6,1.8,7.2,1.8,11,0.8c4-1.1,7.7-2.9,11.6-4.1c2.6-0.8,5.2-1.2,7.9-1.2c2.8,0,5.6-0.3,8.4,0.2
			c0.5,0.1,1.1,0.1,1.6,0.3c3,1.3,6.2,1.7,9.4,2.1c4.2,0.5,8.3,0.8,12.5,0.7c4.5-0.2,9.1-0.4,13.5-1.9c2.9-1,5.5-2.7,7.7-4.9
			c3.4-3.2,6.1-7,8.9-10.7c1.4-1.8,3.4-2.9,5.2-4.1c3.7-2.2,7.7-4,11.8-5.4c2.8-0.9,5.7-1.8,8.7-2.1c3.4-0.4,6.7,0.4,9.9,0.8
			c4.4,0.6,8.8,1.6,13.1,2.8c4.8,1.4,9.5,2.9,14,5c5,2.4,10.1,4.4,15.4,5.9c1.6,0.4,3.4,0.5,5.1,0.6c0.7,0.1,1.5,0.1,2.2,0.4
			c2.1,0.8,4.3,0.8,6.5,1c3.7,0.4,7.4,0.7,11,0.9c1.2,0.1,2.5,0.2,3.7,0.2c3.2,0.1,6.4,0.5,9.6,0.6c2.8,0.1,5.7,0.3,8.5,0.5
			c3.2,0.2,6.5,0.3,9.7,0.5c1.5,0.1,3,0.2,4.6,0.2c0.8,0,0.8,0.4,0.8,1C465.6,211.4,465.6,213.9,465.6,216.5z"/>
		<path class="st3" d="M188.8,83.7c0.4-0.3,0.7-0.2,1-0.2c5.8,0,11.6,0,17.4,0c1.1,0,1.5,0.4,1.3,1.4c-0.4,2.1,0.7,3.5,2,4.8
			c0.4,0.4,0.8,1,1.2,1.4c0.5,0.6,1.1,1.1,1.9,0.9c0.8-0.2,0.7-1,0.8-1.7c1.2,0.9,1.7,2,1.2,3.4c-0.3,0.9,0.3,1.5,0.7,2.1
			c1.2,1.5,2.5,2.9,3.8,4.3c0.5,0.6,1.1,0.8,1.8,0.6c0.8-0.2,0.7-0.9,0.7-1.6c0-0.3,0-0.6,0.1-1.2c1,1,1.9,1.7,1.8,3
			c-0.1,0.7,0,1.5-0.1,2.2c-0.1,1,0.6,1.6,1.2,2.3c0.8,1.1,1.7,2.1,2.5,3.2c0.5,0.6,0.9,1.5,1.9,1.3c1-0.2,1.1-1.1,1.1-2.1
			c0.8,1,1.5,1.8,2.1,2.7c0.4,0.7,0.1,1.6-0.1,2.3c-0.1,0.7,0,1.2,0.4,1.6c1.2,1.4,2.5,2.8,3.7,4.2c0.5,0.5,1.1,0.8,1.8,0.6
			c0.7-0.3,0.6-0.9,0.6-1.5c0-0.2,0-0.4,0.1-0.6c1.3,1.5,3.4,2.5,3,5.1c-0.3,1.5,0.4,2.8,1.6,3.8c0.9,0.7,1.6,1.6,2.4,2.4
			c0.5,0.5,1.1,1,1.8,0.8c0.8-0.2,0.7-1,0.8-1.8c1,0.7,1.9,1.5,1.6,2.9c-0.4,2.1,0.4,3.6,2,4.9c1.1,1,2,2.2,3.1,3.2
			c0.3,0.3,0.3,0.6,0.3,1c0,6.8,0,13.5,0,20.4c-0.8-0.4-1.3-1.1-1.8-1.6c-2.3-2.6-4.7-5.3-7-7.9c-3.3-3.7-6.5-7.5-9.8-11.2
			c-2.1-2.4-4.2-4.7-6.3-7.1c-2.8-3.1-5.5-6.3-8.3-9.4c-2-2.2-4-4.4-5.9-6.7c-2.9-3.3-5.8-6.6-8.8-9.9c-1.3-1.4-2.5-2.9-3.8-4.3
			c-3-3.4-6-6.8-9-10.2c-2.2-2.4-4.3-4.8-6.5-7.2C189.2,84.2,189,84,188.8,83.7z"/>
		<path class="st3" d="M389.7,148c0-0.9,0-1.7,0-2.4c0-3.3,0-6.6,0-9.9c0-1,0.3-1.5,1.1-1.9c2.5-1.3,5-2.7,7.5-4
			c0.9-0.5,1.3-1.2,1.3-2.2c0-0.5,0-0.9,0-1.4c0-2.7,0-2.7,2.7-3.7c0.2,1,0,1.9,0.3,2.9c0.4,1,1.1,1.4,2,0.9c1.7-1,3.5-2,5.2-3
			c0.8-0.5,1.2-1.1,1-2.1c-0.1-1,0-2-0.1-3.1c0-0.3,0.1-0.6,0.4-0.7c0.8-0.3,1.4-1,2.3-1.2c0.4,0.8,0,1.7,0.3,2.6
			c0.4,1.1,0.9,1.5,2,0.9c2-1,4-2.1,6-3.2c1-0.6,0.6-1.7,0.5-2.5c-0.3-2.4-0.4-2.4,1.7-3.6c0.4-0.2,0.8-0.5,1.3-0.8
			c0.3,0.8,0,1.6,0.3,2.3c0.4,1.1,1.2,1.5,2.1,0.8c1.5-1.3,2.9-2.7,4.2-4.2c0.8-1,0.2-2.2,0.1-3.3c-0.2-1.9,0.4-3.4,2.4-4.5
			c0,0.5,0,1,0,1.4c0.1,0.6,0.3,1,0.9,1.3c0.6,0.3,1,0,1.4-0.4c1.4-1.3,2.8-2.7,4.1-4.1c0.5-0.5,0.8-1.2,0.8-2c0-0.9,0.1-1.8,0-2.7
			c-0.3-1.8,0.8-2.8,2.2-3.9c0,0.8,0,1.3,0,1.9c0,0.5,0.2,1,0.7,1.1c0.5,0.1,1,0.2,1.4-0.3c1.4-1.5,2.8-3,4.3-4.5
			c0.3-0.3,0.2-0.6,0.2-0.9c0-0.8,0-1.7,0-2.5c0-1,0.7-1.7,1.7-1.7c4.4,0,8.8,0,13.3,0c-0.1,1.1-1.1,1.6-1.7,2.4
			c-2.1,2.6-4.4,5.1-6.7,7.7c-2.2,2.6-4.4,5.2-6.7,7.8c-1.7,2-3.4,3.9-5.1,5.9c-2.2,2.6-4.5,5.2-6.7,7.8c-1.7,2-3.4,3.9-5.1,5.8
			c-0.9,1.1-1.8,2.1-2.7,3.2c-1.2,1.5-2.9,2.2-4.5,3.1c-6,3.5-11.9,6.9-17.9,10.3c-5.2,3-10.5,6-15.7,8.9
			C391.6,146.9,390.8,147.4,389.7,148z"/>
		<path class="st3" d="M310.6,144.5c1,0.3,2.1,0.6,3.1,0.8c0.6,0.1,0.8,0.4,0.8,1c0,0.5,0,0.9,0,1.4c0,1.8,0.1,2,1.9,2.3
			c2.6,0.6,5.1,1.1,7.7,1.6c0.7,0.1,0.8,0.4,0.8,1c0,5.3,0,10.5,0,15.8c0,0.7,0,1.1-1,0.8c-1.5-0.5-3-0.9-4.5-1.2
			c-0.8-0.2-0.7-0.7-0.7-1.3c0-4.1,0-8.3,0-12.4c0-0.4,0-0.8-0.1-1.2c-0.1-1.1-0.7-1.8-1.8-1.9c-0.3,0-0.5-0.1-0.8-0.2
			c-0.9-0.2-1.9-0.8-2.7-0.2c-1.2,0.9-2.4,1.9-2.6,3.6c-0.3,2.3-0.5,4.6-0.7,7c-0.1,1-0.3,2-0.2,3c0,0.6-0.3,0.8-0.9,0.6
			c-0.1,0-0.3-0.1-0.5-0.1c-2.6-0.7-2.6-0.7-2.6-3.5c0-3.1,0-6.2,0-9.3c0-0.8-0.2-1.5-0.3-2.3c-0.1-0.7-0.6-0.9-1.1-1.1
			c-0.4-0.1-0.7-0.2-1.1-0.3c-1-0.1-2-1-3-0.2c-1.5,1.2-2.7,2.6-2.7,4.7c0,2.9-0.7,5.8-0.7,8.7c0,0.7-0.5,0.8-0.9,0.7
			c-1-0.1-1.9-0.3-2.9-0.5c-0.6-0.1-0.7-0.6-0.7-1.2c0-4.3,0-8.7,0-13c0-1.1-0.3-1.8-1.5-1.9c-0.4,0-0.7-0.2-1.1-0.3
			c-2.9-0.8-5.1,0.9-5.4,4c-0.3,3.3-0.7,6.6-0.9,9.9c0,0.7-0.4,1.1-1.2,0.9c-1.5-0.3-3-0.7-4.6-0.9c-0.8-0.1-0.9-0.5-0.9-1.1
			c0-2.8,0-5.6,0-8.4c0-3.8,0-7.6,0-11.3c0-0.7,0.1-0.9,0.9-0.7c1.3,0.3,2.7,0.5,4,0.7c0.6,0.1,0.5,0.4,0.6,0.8
			c0.1,2.8,0.1,2.8,3,3.5c0.7,0.2,1.3,0.4,2,0.5c1.3,0.3,2-0.2,2.1-1.6c0-1.9,0-1.7,1.9-1.5c1.1,0.1,1.2,0.6,1.2,1.5
			c0,2.7,0,2.7,2.6,3.3c0.9,0.2,1.7,0.4,2.6,0.6c1.3,0.3,2-0.2,2.1-1.6c0-2.4,0-2.4,2.4-1.8c0.9,0.2,1,0.5,0.8,1.4
			c-0.2,0.7-0.1,1.6-0.1,2.3c0,0.7,0.6,1,1.2,1.1c1.5,0.4,3.1,0.6,4.7,0.9c0.9,0.2,1.6-0.4,1.7-1.3
			C310.3,146.2,310.2,145.3,310.6,144.5z"/>
		<path class="st3" d="M258.9,128.3c3,1.2,5.9,1.9,8.9,1.7c1.9-0.1,3.8-0.4,5.5-1.2c0.8-0.3,0.8-0.1,0.8,0.6c0,3.2,0,6.4,0,9.7
			c0,6.6,0,13.1,0,19.7c0,0.9-0.2,1.5-0.9,2c-2.5,2-5.1,3.5-8.4,3.5c-2.1,0-3.9-0.9-5.7-1.9c-0.5-0.3-0.3-0.8-0.4-1.3
			c0-9.2,0-18.5,0-27.7C258.9,131.7,258.9,130.1,258.9,128.3z"/>
		<path class="st3" d="M327.2,156c0-4.3,0-8.7,0-13c0-0.9,0.1-1.2,1.1-0.8c2.4,1,4.9,1.1,7.4,0.8c1.8-0.2,3.4-0.7,5.1-1.1
			c0.9-0.2,1,0,1,0.8c0,4,0,8.1,0,12.1c0,4.3,0,8.6,0,12.9c0,0.8-0.2,1.3-0.9,1.7c-4.3,2.9-8.7,2.5-13.3,0.9
			c-0.6-0.2-0.5-0.7-0.5-1.2C327.2,164.8,327.2,160.4,327.2,156z"/>
		<path class="st3" d="M377.2,142.9c0-4.3,0-8.6,0-12.9c0-0.9,0.2-1.1,1.1-0.8c2.4,0.7,4.8,1,7.3,0.3c1.5-0.4,1.5-0.3,1.5,1.2
			c0,3.1,0,6.1,0,9.2c0,4.8,0,9.5,0,14.3c0,1,0.1,2,0.2,3c0,0.4-0.1,0.6-0.5,0.9c-3.1,1.3-6,1.2-8.8-0.7c-0.6-0.4-0.9-0.9-0.9-1.6
			C377.2,151.5,377.2,147.2,377.2,142.9z"/>
		<path class="st3" d="M322.5,122.1c0,2.3-0.2,4.7,0,7c0.2,2.4-1.1,3.9-2.7,5.3c-2.4,2.1-5.2,1.8-8.1,1c-0.5-0.1-0.7-0.5-0.6-1
			c0-0.5,0-1.1,0-1.7c0.2-2.9-0.2-5.8-0.3-8.7c0-0.7,0.2-1.2,0.7-1.8c1.7-1.7,1.7-2.3,0.3-4.2c-1.1-1.5-2-3-3-4.5
			c-0.1-0.2-0.4-0.4-0.2-0.6c0.2-0.3,0.5,0,0.7,0.1c2,0.8,4,1.4,6.2,1.5c2.1,0.1,4.1-0.4,6-1.3c0.7-0.3,0.9-0.3,0.9,0.6
			C322.5,116.5,322.5,119.3,322.5,122.1z"/>
		<path class="st4" d="M268.5,108.5c1.1,2,2.1,3.8,3.1,5.7c1.7,3.3,3.4,6.5,5.2,9.8c0.3,0.5,0.2,0.6-0.2,0.9
			c-3.3,1.7-6.8,3-10.6,2.8c-2.3-0.1-4.5-0.8-6.5-1.7c-2.7-1.2-2.6-1.2-0.8-3.6C262,117.7,265.2,113.1,268.5,108.5z"/>
		<path class="st4" d="M300.3,131.5c-2.1-4.7-4.2-9.4-6.3-13.9c-0.5-1.1-0.3-1.7,0.5-2.3c2.5-2.1,5-4.2,7.5-6.3
			c0.5-0.4,0.9-0.4,1.2,0.2c2.2,3.5,4.4,6.9,6.7,10.3c0.4,0.6,0.4,1-0.1,1.5c-2.2,2.5-4.5,5-6.7,7.4
			C302.1,129.3,301.3,130.4,300.3,131.5z"/>
		<path class="st4" d="M334.4,122.8c2,3.5,3.9,6.9,5.8,10.2c0.9,1.6,1.8,3.2,2.7,4.8c0.3,0.6,0.3,0.8-0.4,1.1c-3,1-6.1,1.9-9.3,2
			c-2.3,0-4.5-0.7-6.4-1.9c-0.5-0.3-0.8-0.7-0.4-1.5C329.1,132.6,331.7,127.7,334.4,122.8z"/>
		<path class="st4" d="M316,112c-3-0.3-5.7-1.1-8.3-2.6c-0.7-0.4-0.1-0.5,0-0.8c2.2-3.2,4.3-6.4,6.5-9.5c0.5-0.7,1-1.4,1.4-2.1
			c0.4-0.6,0.7-0.7,1.1-0.1c1.4,1.9,2.7,3.8,4.1,5.7c1,1.4,2.1,2.9,3.1,4.3c0.4,0.5,0.4,1-0.1,1.4c-1.9,1.7-4,3.4-6.7,3.4
			C316.7,111.8,316.4,112.2,316,112z"/>
		<path class="st3" d="M291.9,118.7c1.6,3.6,3.1,7,4.7,10.4c0.2,0.4,0.3,0.9,0.3,1.4c0,3.9,0,7.8,0,11.7c0,0.4,0.2,1.1-0.4,0.9
			c-0.6-0.1-1.7,0.2-1.7-1c0-0.7-0.1-1.3,0-2c0.1-1-0.5-1.4-1.3-1.6c-1.1-0.3-2.3-0.5-3.4-0.7c-0.9-0.1-1.2-0.5-1.2-1.4
			c0.1-3.7,0-7.5,0-11.2c0-0.4,0-0.8,0.2-1.3C289.9,122.2,290.8,120.6,291.9,118.7z"/>
		<path class="st4" d="M382.3,113.5c2.5,3.9,4.9,7.8,7.4,11.6c0.4,0.7,0.1,0.8-0.4,1c-4.5,1.7-9,2.1-13.4-0.3
			c-0.7-0.4-0.6-0.7-0.3-1.3c1.6-2.7,3.2-5.3,4.9-8C381,115.5,381.7,114.5,382.3,113.5z"/>
		<path class="st3" d="M350.3,148.9c0.7-0.5,1-1.2,0.9-2.1c0-0.5,0-1,0-1.5c0-1.2,0.5-1.7,1.7-1.7c0.6,0,0.4,0.4,0.4,0.6
			c0.1,0.8-0.1,1.5,0.2,2.3c0.3,0.9,0.8,1.1,1.6,0.9c1.7-0.4,3.4-0.9,5.2-1.3c0.8-0.2,1.1-0.6,1.1-1.4c0-0.8,0-1.7,0-2.5
			c0-0.8,1.7-1.7,2.4-1.3c0.3,0.1,0.2,0.4,0.2,0.6c0,0.4,0,0.9,0,1.3c-0.1,0.9,0,1.7,1.2,1.9c-1.9,0.7-2,0.9-2.1,2.9
			c-0.2,2.8-0.6,5.6-0.9,8.5c-0.2,1.8-0.4,3.6-0.5,5.3c0,1.3-1.1,1.2-1.8,1.4c-0.8,0.2-0.5-0.6-0.6-1.1c-0.7-3.4-1.4-6.8-2.1-10.2
			c-0.3-1.4-1.1-2.4-2-3.3c-0.5-0.5-1.2-0.3-1.8-0.1C352.4,148.3,351.3,148.6,350.3,148.9L350.3,148.9z"/>
		<path class="st3" d="M350.3,148.8c-0.8,0.6-0.8,1.5-0.9,2.3c-0.3,2.6-0.5,5.3-0.8,7.9c-0.2,2.3-0.5,4.6-0.7,6.8
			c0,0.4-0.3,0.5-0.6,0.6c-1,0.3-2.1,0.6-3.2,0.9c0-5.5,0-10.9,0-16.3c0-0.4,0.1-0.7,0.5-0.8C346.6,149.8,348.5,149.3,350.3,148.8
			C350.3,148.9,350.3,148.8,350.3,148.8z"/>
		<path class="st3" d="M308.6,125.9c-0.2,3.1,0.4,5.9,0.2,8.8c0,0.3,0,0.6-0.3,0.9c-1.7,1.3-3.1,3-4.7,4.5c-0.4,0.4-0.8,0.4-1.3,0.3
			c-0.4-0.1-0.7-0.2-1.1-0.3c-2.4-0.6-2.4-0.6-2.4-3.2c0-0.4,0-0.7,0-1.1c0-0.5-0.2-1.2,0.8-0.9c0.3,0.1,0.7-0.2,1-0.5
			c2-2.3,4.1-4.6,6.1-6.9C307.5,127,307.9,126.5,308.6,125.9z"/>
		<path class="st3" d="M368.1,143.8c1-0.3,1.8-0.4,2.6-0.7c0.7-0.2,1.2-0.7,1-1.5c0-0.3,0-0.5,0-0.8c0-1.6,0.7-2.3,2.3-2.3
			c0.6,0,0.5,0.5,0.5,0.8c0,1.7,0,3.5,0,5.2c0,4,0,7.9,0,11.9c0,0.6,0.1,1-0.7,1.3c-0.7,0.2-1,0.3-1.2-0.7
			c-0.6-3.5-1.3-6.9-2.1-10.3C370.3,145.5,369.5,144.5,368.1,143.8z"/>
		<path class="st3" d="M357.9,167.8c-0.1,0.8-1.1,0.6-1.8,0.8c-0.7,0.3-0.6-0.5-0.6-0.8c-0.3-2.4-0.5-4.7-0.8-7.1
			c-0.3-2.4-0.6-4.8-0.9-7.2c-0.1-0.4-0.3-0.9,0.5-1.1c0.9-0.2,0.6,0.5,0.7,0.8c0.9,4.4,1.8,8.9,2.8,13.3
			C357.9,167,357.9,167.3,357.9,167.8z"/>
		<path class="st3" d="M371.6,163.6c0.1,1.2-1,1-1.6,1.2c-0.7,0.2-0.7-0.5-0.7-1c-0.4-3.2-0.8-6.5-1.1-9.7c-0.2-1.5-0.3-3-0.5-4.5
			c-0.1-0.5,0.1-0.8,0.6-0.9c0.5-0.1,0.5,0.3,0.6,0.6c1,4.7,1.9,9.5,2.9,14.2C371.6,163.5,371.6,163.6,371.6,163.6z"/>
		<path class="st3" d="M351.7,154.7c0.4,3.8,0.8,7.7,1.3,11.5c0.1,0.6,0.6,1.4,0.1,1.8c-0.5,0.4-1.1-0.4-1.7-0.6
			c-0.9-0.3-1-0.9-0.9-1.7c0.3-2.6,0.7-5.2,0.9-7.8C351.3,156.8,351.5,155.8,351.7,154.7z"/>
		<path class="st3" d="M365.3,151c0.5,4.6,1,8.9,1.5,13.3c-1-0.1-1.7-0.6-2.5-1c-0.7-0.4-0.3-1.1-0.3-1.7c0.2-2,0.4-4.1,0.7-6.1
			C364.9,154,364.9,152.6,365.3,151z"/>
		<path class="st3" d="M313.6,158.2c-0.1,3.5-0.5,6.9-0.5,10.4c0,0.5,0.1,1.5-0.7,1.4c-1-0.1-0.7-1-0.6-1.6
			c0.5-3.9,0.8-7.9,1.1-11.8c0-0.4,0-0.8,0.4-0.8c0.5,0,0.2,0.5,0.3,0.8C313.6,157.1,313.6,157.7,313.6,158.2z"/>
		<path class="st3" d="M300.6,155.8c-0.2,3.6-0.5,7.5-0.7,11.3c0,0.2,0.1,0.7-0.4,0.5c-0.4-0.1-0.9-0.1-0.8-0.8
			c0.1-1.2,0.2-2.5,0.3-3.7c0.2-2,0.5-4.1,0.6-6.1c0.1-1.1,0.4-2.2,0.3-3.3c0-0.3,0.1-0.5,0.4-0.5c0.2,0,0.3,0.3,0.3,0.6
			C300.6,154.3,300.6,154.9,300.6,155.8z"/>
		<path class="st3" d="M285.3,163.8c0.3-2.7,0.6-5.4,0.9-8.1c0.1-1.6,0.2-3.2,0.5-4.7c0.1-0.3,0-0.7,0.5-0.6
			c0.4,0.1,0.3,0.5,0.2,0.7c-0.5,1.6-0.2,3.3-0.4,5c-0.2,2.6-0.3,5.2-0.5,7.8c0,0.4,0.1,0.9-0.5,0.8
			C285.3,164.6,285.2,164.2,285.3,163.8z"/>
		<path class="st3" d="M290,150c0,4,0,8,0,12c0,0.6-0.5,0.8-1,1.5c0.3-4.7,0.6-9.1,0.8-13.5C289.8,150,289.9,150,290,150z"/>
		<path class="st3" d="M302.5,166.2c0-3.9,0.6-7.7,0.7-11.5c0,3.6,0,7.1,0,10.7C303.2,165.8,303,166,302.5,166.2z"/>
		<path class="st5" d="M316.1,157.6c0,3,0,5.9,0,8.9c0,0.4-0.1,0.8-0.7,0.8C315.7,164.1,316,160.8,316.1,157.6z"/>
		<path class="st0" d="M243.9,301c-0.6-2.7-0.9-5.3,0.1-7.9c0.5-1.2,1.2-2.2,2.3-2.9c1.2-0.8,2.2,0,3,0.8c1.8-3,4.2-5.1,7.8-5.2
			c1.1,0,2.4-0.1,3.4,0.8c1.1,1,2.5,1.1,3.9,1.2c1.8,0.1,3.6,0.2,5.4,0.7c2.1,0.6,2.9,1.7,3.1,4.4c1.2-0.6,2.4-1.3,3.6-1.8
			c3.9-1.6,5.5-1,7.4,2.5c0.7,1.2,1.3,2.5,0.9,4c-0.1,0.4,0.5,0.6,0.8,0.7c1.7,0.9,2.9,2.2,3.3,4.2c0.6,2.8-0.2,5.3-1.8,7.6
			c-2.2,3.3-6.6,2.7-9.1,0.8c-0.8-0.6-1.8-0.4-2.7-0.5c-1.1-0.1-2.2-0.4-3.2-0.8c-0.5-0.2-0.8-0.2-1.2,0.2c-1.3,1.5-3.1,2.1-5.1,2.5
			c-1.5,0.3-3,0.8-4.5,1.1c-2.4,0.6-4.7,0.5-7.1-0.2c-2.2-0.7-4.5-0.5-6.8-0.7c-1.4-0.1-2.8-0.4-4-1.2c-0.3-0.2-0.6-0.4-0.7-0.6
			c-0.5-1.3-1.6-2.2-2.2-3.4c-1-1.9-0.7-4.2,0.6-5.4C241.9,301.2,242.9,301,243.9,301z"/>
		<path class="st0" d="M379.8,226.4c-1.4,0.5-2.8,0.1-3.9,1c-0.5,0.4-1,0.2-1.4-0.3c-0.5-0.5-0.3-0.9,0-1.4c0.4-0.8,1.2-1.3,2-1.3
			c1.5,0,2.9-0.6,4.4-0.8c1.4-0.2,2.1,0.7,1.8,2c-0.2,1-0.9,1.8-0.6,2.9c0.1,0,0.2,0,0.2-0.1c2.7-1.4,3.5-0.5,4.6,1.8
			c0.8,1.5,0.7,3.2,0.9,4.9c0.2,1.9,1,3.2,2.9,3.7c0.1,0,0.3,0.2,0.4,0.2c0.9,0.2,1.6,0.6,1.4,1.6c-0.3,1-1.3,0.8-2,0.7
			c-2.9-0.8-4.7-2.1-5.1-5.6c-0.2-1.4-0.2-2.8-0.7-4.2c-0.4-1.1-0.7-1.3-1.7-0.7c-0.9,0.5-1.7,0.9-2.6,0.2c-1-0.8-1.2-1.9-1-3.1
			C379.4,227.5,379.6,227,379.8,226.4z"/>
		<path class="st0" d="M348.2,322.9c-0.4,1.3-0.8,2.6-1.2,3.8c-0.3,0.7-0.2,1.3-0.1,2c0,0.5,0.4,0.9,1,0.7c2.4-0.7,4.4,0.4,6.3,1.4
			c0.3,0.2,0.6,0.4,0.9,0.5c0.5,0.3,0.9,0.7,0.6,1.4c-0.3,0.7-0.7,0.9-1.4,0.7c-1.2-0.2-2-1.1-3.1-1.4c-1.1-0.3-2.1-0.7-3.2-0.1
			c-0.8,0.4-2.3-0.4-3-1.5c-0.3-0.5-0.4-0.8-1.1-0.5c-0.4,0.2-1,0.2-1.3-0.4c-0.4-0.6-0.2-1.2,0.1-1.6
			C344.1,325.8,345.5,323.7,348.2,322.9z"/>
		<path class="st0" d="M427.4,268.4c0,0.8-0.6,1.3-1.6,1.1c-1.8-0.3-3.3-1-4.2-2.7c-0.4-0.6-0.7-0.7-1.3-0.4
			c-0.4,0.2-0.8,0.2-1.2,0.3c-1.8,0.4-2.7,0-3.3-1.8c-0.2-0.6-0.1-1.4-1.2-1.4c-0.5,0-0.8-0.7-0.5-1.4c0.4-0.9,1.2-1.4,2.2-1.6
			c0.9-0.2,1.6,0.4,1.7,1.4c0.2,2.5,0.2,2.4,2.7,1.7c1-0.3,2-0.4,2.5,0.8c0.6,1.6,1.7,2.3,3.2,2.7
			C427.1,267.2,427.4,267.6,427.4,268.4z"/>
		<path class="st0" d="M405.2,301.8c-0.6,0.1-1.2-0.1-1.5-0.6c-0.5-0.8-1.2-0.7-1.9-0.4c-0.6,0.2-1.2,0.4-1.9,0.4
			c-1.1-0.1-1.9-0.6-2.1-1.8c-0.2-1.2,0.6-1.7,1.4-2.2c0.5-0.4,0.7,0.3,0.9,0.5c0.9,1.1,1,1.2,2.1,0.2c0.7-0.6,1.5-1,2.3-0.6
			c0.7,0.3,1.2,1,1.1,1.9c0,0.4,0.3,0.6,0.5,0.8c0.3,0.4,0.6,0.7,0.3,1.4C406,301.7,405.7,301.8,405.2,301.8z"/>
		<path class="st0" d="M316.3,333.4c3.1,0.1,5.8,1.2,8.5,2.7c0.8,0.5-0.1,1.3-0.3,1.9c-0.1,0.6-0.5,0.4-0.9,0.2c-2-1-4-1.9-6.2-2.3
			c-0.6-0.1-1.2-0.1-1.7-0.1c-1,0.1-1.2-0.3-1.1-1.2c0-0.8,0-1.4,1.1-1.2C315.8,333.4,316,333.4,316.3,333.4z"/>
		<path class="st0" d="M430,327.5c-0.7,0.1-1.5-0.1-2.3,0.2c-0.6,0.2-1.1,0.4-1.4,1c-0.2,0.5-0.7,0.8-1.3,0.6
			c-0.6-0.2-0.8-0.6-0.8-1.2c0.1-1.1,0.9-2.3,2.3-2.6c2-0.4,4-0.6,6-0.3c0.5,0.1,1,0.5,0.9,1c0,0.7-0.5,1.2-1.3,1.3
			C431.4,327.6,430.7,327.5,430,327.5z"/>
		<path class="st0" d="M435.9,344.5c-1,0.2-2.1-0.4-3.3-0.5c-0.6-0.1-1.2-0.2-1.8-0.2c-0.8,0.1-1.3-0.2-1.4-1
			c-0.2-0.8,0.3-1.1,0.9-1.4c0.9-0.4,1.7-0.2,2.6,0c1.5,0.4,3,1,4.6,0.5c0.6-0.2,1,0.4,1.2,0.9c0.2,0.5,0,1-0.4,1.3
			C437.6,344.6,436.8,344.5,435.9,344.5z"/>
		<path class="st0" d="M224.4,277.9c1.2,0.3,2.5,0.5,3.7,0.9c0.3,0.1,0.6,0.1,0.9,0.2c0.4,0,1-0.2,1.2,0.4c0.3,0.7,0.1,1.4-0.2,2
			c-0.1,0.4-0.5,0.2-0.8,0.1c-1.5-0.3-3-0.6-4.5-1c-0.3-0.1-0.5-0.1-0.7,0.1c-0.5,0.7-0.9,0.3-1.4,0c-1.2-0.6-1.3-1.1-0.2-2
			C223,278.2,223.6,277.8,224.4,277.9z"/>
		<path class="st0" d="M281.3,334.9c0.6-2.2,1-2.4,3.2-2.5c1.3,0,2.5,0.3,3.8,0.3c1.1,0,0.7,1,0.6,1.5c0,0.3,0.1,1.2-1,0.9
			c-1.2-0.3-2.6-0.6-3.8-0.2C283.1,335.2,282.3,335.2,281.3,334.9z"/>
		<path class="st0" d="M421.4,158.5c0.5,0.1,0.7,0,0.9,0c1.4-0.4,1.9,0,2.4,1.4c0.1,0.4,0.3,0.7,0.4,1.1c0.4,1.3,1.2,1.6,2.3,0.8
			c2.2-1.5,2.9-1.4,4.9,0.4c0.3,0.2,0.6,0.4,0.8,0.6c0.5,0.5,0.6,1.1,0.2,1.7c-0.4,0.6-1,0.6-1.6,0.3c-0.6-0.3-1-1-1.6-1.3
			c-0.5-0.2-0.8-0.3-1.2,0.1c-1.4,1.4-3.1,1.4-4.7,0.5c-0.9-0.5-1.1-1.4-1.4-2.2c-0.2-0.7-0.5-0.9-1.2-0.9c-0.9,0-1.5-0.4-1.5-1.4
			C420.2,158.4,421,158.6,421.4,158.5z"/>
		<path class="st0" d="M445.4,152.4c-2.4,0.2-3.7-0.9-4.3-3.2c-0.1-0.6-0.3-0.6-0.8-0.4c-0.5,0.2-0.9,0.1-1.5,0
			c-0.6-0.2-0.8-0.7-0.8-1.1c0-0.5,0.3-0.9,0.9-1.1c0.9-0.3,1.8-0.3,2.6-0.2c1.1,0.1,1.7,0.8,1.8,1.9c0.3,1.7,0.4,1.8,2.1,1.9
			c1.3,0,2.6-0.5,3.9-0.5c0.8,0,1.5,0.2,1.5,1.1c0,0.9-0.6,1.2-1.4,1.3C448.2,152.1,446.8,152.5,445.4,152.4z"/>
		<path class="st0" d="M410.9,174.6c-2.8,0.1-5-1-7.3-2c-1.1-0.5-2.2-0.9-3.4-1.2c-0.9-0.2-1.3-0.7-1-1.6c0.3-0.9,1-1,1.8-0.8
			c1.9,0.4,3.6,1.4,5.4,2.2c1.5,0.6,3,1.1,4.6,1.1c0.9,0,1.7,0.2,1.8,1.2c0.1,1.2-0.9,1.3-1.8,1.2
			C410.9,174.6,410.7,174.6,410.9,174.6z"/>
		<path class="st0" d="M212.6,197.5c0.6,0.1,2,1.9,2.1,2.7c0,0.3-0.1,0.8,0.3,0.9c0.3,0.1,0.6-0.4,0.8-0.6c1.4-2.1,2.9-1.9,4.3-0.7
			c0.6,0.5,0.8,0.9,0.4,1.6c-0.4,0.8-1.1,0.8-1.6,0.5c-0.9-0.7-1.2-0.1-1.6,0.5c-1.1,1.5-2.8,1.9-3.9,1.1c-0.6-0.5-0.8-1.2-0.9-1.9
			c-0.1-0.7-0.4-1.2-1.1-1.4c-0.7-0.2-1.1-0.8-0.9-1.5c0.2-0.7,0.6-1.1,1.4-0.8C212.1,197.9,212.4,197.6,212.6,197.5z"/>
		<path class="st0" d="M202,143c0.8-0.2,1.6,0.2,2.4,0.5c0.7,0.2,1.4,0.5,2.2,0.5c0.8,0,1.3,0.3,1.3,1.2c0,1-0.6,1.1-1.4,1.1
			c-1.1,0-2.3-0.1-3.3-0.6c-1-0.5-1.9-0.5-2.8,0.1c-0.3,0.2-0.7,0.3-1.1,0.3c-0.5,0-0.8-0.3-1-0.7c-0.2-0.4-0.2-0.8,0.2-1.2
			C199.5,143.3,200.6,142.8,202,143z"/>
		<path class="st0" d="M296.9,200.1c1.2-0.1,2.1,0.4,2.9,1c0.9,0.7,1.9,1.3,3,1.8c0.6,0.3,0.9,0.8,0.8,1.4c-0.1,0.7-0.7,0.8-1.3,0.8
			c-1.1-0.1-2-0.7-2.9-1.3c-1-0.7-2-1.6-3.4-1.1c-0.6,0.2-1.3,0-1.5-0.9c-0.1-0.8,0.1-1.3,1-1.5C296,200.2,296.5,200,296.9,200.1z"
			/>
		<path class="st0" d="M232,176.2c2,0.1,3.8,0.9,5.7,1.4c0.7,0.2,0.9,0.7,0.8,1.3c-0.1,0.6-0.5,0.8-1.2,0.8c-1.6,0-3-0.8-4.5-1
			c-0.4-0.1-0.7-0.2-1.1-0.2c-0.8,0-1.5-0.3-1.6-1.2c0-1,0.7-1.3,1.6-1.2C231.8,176.2,231.9,176.2,232,176.2z"/>
		<path class="st0" d="M270.4,139.1c0,1.5,0,3,0,4.5c0,0.7-0.2,1.3-1,1.3c-0.8,0-1.4-0.4-1.4-1.2c0-3,0-6,0-9.1
			c0-0.7,0.5-1.2,1.2-1.2c0.8,0,1.2,0.5,1.2,1.3C270.4,136.1,270.4,137.6,270.4,139.1z"/>
		<path class="st0" d="M264.3,138.7c0,1.5,0,2.9,0,4.4c0,0.8-0.3,1.4-1,1.4c-0.7,0-1.3-0.5-1.3-1.4c0-3,0-6,0-9
			c0-0.7,0.4-1.3,1.3-1.2c0.9,0.1,1.1,0.6,1.1,1.3C264.3,135.8,264.3,137.3,264.3,138.7z"/>
		<path class="st0" d="M339,151.2c0,0.9,0,1.7,0,2.6c0,0.9-0.5,1.3-1.2,1.4c-0.7,0.1-1.2-0.5-1.2-1.2c-0.1-1.8-0.1-3.7,0-5.5
			c0-0.7,0.4-1.2,1.3-1.2c0.8,0.1,1.1,0.5,1,1.3C339,149.4,339,150.3,339,151.2z"/>
		<path class="st0" d="M332.9,151.5c0,0.9,0,1.7,0,2.6c0,0.7-0.4,1.3-1,1.3c-0.7,0-1.3-0.5-1.3-1.2c-0.1-1.9-0.1-3.8,0-5.6
			c0-0.6,0.5-1.1,1.2-1.1c0.7,0,1.1,0.5,1.1,1.2C332.9,149.6,332.9,150.5,332.9,151.5z"/>
		<path class="st0" d="M383.8,136.7c0,0.8,0,1.6,0,2.5c0,0.8-0.4,1.4-1.2,1.4c-0.7,0-1.1-0.6-1.1-1.4c0-1.7,0-3.5,0-5.2
			c0-0.8,0.5-1.4,1.3-1.4c0.8,0,1.1,0.6,1.1,1.4C383.8,134.9,383.8,135.8,383.8,136.7z"/>
		<path class="st0" d="M315.7,120.8c0-0.9,0-1.7,0-2.6c0-0.6,0.2-1.1,0.9-1.2c0.7-0.1,1.2,0.2,1.4,0.9c0.2,0.7,0.1,1.5,0.1,2.2
			c0,1.1,0,2.3,0,3.4c0,0.7-0.3,1.3-1.2,1.2c-0.8,0-1.2-0.5-1.1-1.3C315.7,122.6,315.7,121.7,315.7,120.8z"/>
		<path class="st0" d="M291.2,130.6c0-0.9,0-1.8,0-2.7c0-0.8,0.4-1.4,1.2-1.4c0.8,0,1.1,0.6,1.1,1.3c0,1.8,0,3.5,0,5.3
			c0,0.8-0.3,1.4-1.1,1.3c-0.8,0-1.2-0.6-1.2-1.4C291.2,132.2,291.2,131.4,291.2,130.6z"/>
		<path class="st6" d="M274.1,308c-0.3-0.2-0.4-0.2-0.5-0.3c-2.2-1.4-3.8-0.5-5.3,1.2c-0.8,0.9-1.9,0.8-2.9,1.1
			c-1.8,0.5-3.6,0.8-5.3,1.3c-0.6,0.2-1.2,0-1.9,0.2c0.1-0.4,0.3-0.7,0.3-1.1c0.2-0.9,0.1-1.7-1-2.1c-0.6-0.3-1.3-0.5-1.9-0.6
			c-2.6-0.4-3.3-2.6-2.3-4.5c0.8-1.6,0.4-2.6-0.7-3.8c-0.8-0.8-1.2-1.7-1.1-2.9c0-0.4,0-0.9-0.1-1.3c-0.5-2.1,0.1-4.1,1.7-5.4
			c1.4-1.1,2.9-1.7,4.7-1.6c0.8,0,1.4,0.4,1.9,0.8c0.9,0.7,2,1,3.2,1.1c2.8,0.1,3.2,0.5,3.9,3.3c0.6,2.3,1.4,4.6,1.5,7
			c0,1.1,0.9,1.5,2,1.2c0.5-0.2,1-0.4,1.5-0.6c1.1-0.4,1.6-0.1,1.9,1C274.2,304,274.3,305.9,274.1,308z"/>
		<path class="st6" d="M270.8,299c-0.6-2.4-1.2-4.8-1.8-7.2c-0.1-0.2-0.2-0.5-0.4-0.7c1.4,0,1.8,0.4,1.8,1.8c0,0.5,0,1.1,0.2,1.6
			c0.5,1.3,1.3,1.7,2.6,1.2c1.5-0.7,2.9-1.7,4.5-2.3c0.9-0.3,1.8-0.9,2.6-0.3c1.1,0.8,1.8,2.1,2.1,3.4c0.1,0.4-0.3,0.5-0.5,0.8
			c-1.1,1.2-0.9,2.1,0.6,2.7c1,0.3,1.9,0.7,2.7,1.4c1.6,1.4,1.6,3.2,1,5c-0.2,0.7-0.4,1.5-0.9,2.2c-1.4,2-4.4,2.4-6.1,0.7
			c-0.5-0.5-1.1-0.8-1.9-0.7c-0.4,0-0.7,0-0.7-0.5c0.1-1.1-0.3-2.1-0.2-3.2c0.1-1.4-0.3-2.7-0.8-4c-0.8-1.9-2.2-2.5-4.3-1.9
			C271.2,298.8,271,298.9,270.8,299z"/>
		<path class="st6" d="M256,310.4c-0.2,0.7-0.3,0.9-1.2,0.7c-2-0.6-4.1-0.9-6.3-0.8c-0.8,0.1-1.5,0-2.3-0.2
			c-0.7-0.2-1.8-0.1-1.2-1.5c0.1-0.2-0.2-0.8-0.7-0.9c-1.1-0.3-1.6-1.1-1.9-2.1c-0.2-0.7-0.2-1.4,0.3-1.8c0.5-0.5,1.2-0.4,1.9-0.3
			c0.2,0,0.3,0.2,0.5,0.2c0.7,0.3,1.4,0.3,1.9-0.2c0.5-0.5,0.5-1.3,0-1.9c-1.6-2.2-1.3-4.5-0.9-7c0-0.2,0-0.4,0.1-0.6
			c0.4-0.5,0.5-1.4,1.1-1.4c0.5,0,0.6,0.8,0.8,1.3c0.6,1.2,1.1,2.4,1.1,3.9c0,1.3,0.8,2.3,1.6,3.3c0.4,0.5,0.4,0.8,0.1,1.3
			c-0.9,2.2-0.4,5.2,1.1,6.4C253.3,309.7,254.7,310,256,310.4z"/>
	</g>
	<path id="path8903-8-6" class="st7" d="M185.6,225.7c4.4,1,7.7,1.4,12,1.8c12.8,1.4,22.8,7.6,33.9,10.9c7,2.1,34.9-5.6,45.1-2.2
		c2.4,0.8,5,0.2,7.4,1c7.6,2.6,10.6,1.9,22.1,0.6c12.2-1.4,21.2-11.7,29.4-19.8c0.8-0.8,13-7.5,14.7-8.3c2-1,6.8-0.6,9-0.6
		c14.6,0,20.1,2.6,31,8c11.8,5.9,25.5,9.1,38.7,9.3c5.9,0.1,14.5,0.2,19.8-0.3c4.8-0.5,13.4-0.7,18.1,0.5"/>
	<path id="path8905-8-7" class="st7" d="M185.4,209.3c2.4-0.2,2.8,0,4.7,1c3.3,1.7,13.2,1.6,16,1.6c2.8,0,3.8,0.2,6.7,1
		c5,2.4,10.1,1.2,16.3,3.2c3.8,1.3,7.1,3.9,11.8,2.9c11.9-2.4,11.3-6.1,25.9-6.1c2.5,0,6.5,0.4,7,0.7c3.6,2.3,24.3,4.3,34.5,0.9
		c7.2-2.4,11.5-9.1,16.4-15.3c3.9-5,21.7-12.9,29.9-12.1c14.3,1.5,27,5,38.9,10.9c2.8,1.4,7.4,2.7,10.7,3.8c1.5,0.5,6.1,0.3,8,1.2
		c2.8,1.3,49.7,3.7,54.5,3.7"/>
	<path id="path8907-0-0" class="st8" d="M243.5,309c-2.7-0.2-4.2-6-0.8-6.5c0.6-0.1,1.7-0.1,2.3,0.1c0,0,0.6,0.5,0.6,0.4
		c0.6-0.6-0.7-1.4-1-2.2c-0.7-2.9-1-7.2,1.6-9.2c1.7-1.4,3.3,3.7,3.3,3.6c0.2-0.9-0.3-2,0.2-3c1.7-3.4,4.7-5.5,8.6-5
		c1.1,0.2,1.7,1.2,2.6,1.5c3,1,6.8,0.1,9.6,1.9c1.3,0.8,0.3,3.1,1.3,4.1c0.3,0.3,5.9-3.8,8.5-3c1.3,0.4,3,3.6,3.2,4.9
		c0.2,1.3-1.5,1.9-1.4,1.9c2.6,0.9,5.2,2,5.5,5.3c0.2,2.5-1.2,6.9-4,7.6c-1.5,0.4-4.9-0.3-5.6-1.6c-0.1-0.2-4.1-0.4-4.3-0.4
		c-0.5-0.1-2.6-1.5-3.1-1.1c-0.8,0.8-1.8,1.8-2.7,2.4c-3.5,0.5-7.6,2.4-11,2.1c-1.9-0.2-3.7-1-5.6-1.2c-2.3-0.2-4.4,0.2-6.6-0.6
		C244,311,241.9,309.3,243.5,309L243.5,309z"/>
	<path id="path8909-4-4" class="st8" d="M264.2,289.3c3.7,0,3.8,5.9,4.9,9c0.4,1.1,0.2,2.5,0.2,2.5c1.3,0,2.5-1.5,4-0.8
		c2.2,0.9,2,7.4,2,9.3"/>
	<path id="path8911-8-2" class="st8" d="M249.9,295.4c0.1,0.8,0.1,3,0.5,3.8c0.5,0.8,1.1,1.5,1.7,2.1c0.2,0.2,0.4,0.6,0.2,0.8
		c-1.1,1.1-1.3,4.8,0.3,6.1c1,0.8,4.2,1.2,4.4,1.5c0.2,0.2-0.8,2.4-0.5,3"/>
	<path id="path9421-6-0" class="st8" d="M467.2,83.4l-36.6,42.4l-42.2,24.1l0.2,8.6c-4.1,1.4-6.3,2.9-11.8-0.8l-0.7,0.2"/>
	<path id="path9423-9-5" class="st7" d="M186.8,83.4l67.8,76.7c7.2,7.2,14.1,6.3,20.7,0l8.5,1.6"/>
	<path id="path9429-9-7" class="st8" d="M316.2,168.1l9.9,2.8c8.8,3.4,12.9,1.3,16.7-1.4"/>
	<path id="path9431-4-3" class="st8" d="M298.8,151.4l2.9,0.6"/>
	<path id="path9433-0-8" class="st8" d="M298.7,151.9l-1.6,16.2l3.7,1l0.9-16.6"/>
	<path id="path9435-88-4" class="st8" d="M304.3,150.6v15.2l-3.2,3.4"/>
	<path id="path9437-2-6" class="st8" d="M301.6,152.2l2.3-2"/>
	<path id="path9439-2-4" class="st8" d="M304.3,149.9l-3.5-0.9l-1.9,2"/>
	<path id="path9431-9-0-7" class="st8" d="M311.9,153.9l2.9,0.6"/>
	<path id="path9433-9-7-0" class="st8" d="M311.7,154.5l-1.6,16.2l3.8,0.8l0.9-16.5"/>
	<path id="path9435-8-5-6" class="st8" d="M317.3,153.1v15.2l-3.2,3.1"/>
	<path id="path9437-6-2-2" class="st8" d="M314.6,154.7l2.3-2"/>
	<path id="path9439-3-8-1" class="st8" d="M317.3,152.4l-3.5-0.9l-1.9,2"/>
	<path id="path9431-8-4-9" class="st8" d="M285.4,148.4l2.9,0.6"/>
	<path id="path9433-6-6-9" class="st8" d="M285.3,149l-1.6,16.2l3.7,1l1-16.6"/>
	<path id="path9435-1-3-8" class="st8" d="M290.9,147.6v15.2l-3.2,3.4"/>
	<path id="path9437-0-6-0" class="st8" d="M288.1,149.2l2.3-2"/>
	<path id="path9439-8-2-6" class="st8" d="M290.9,147l-3.5-0.9l-1.9,2"/>
	<path id="path9488-2-7" class="st8" d="M310,166.5l-4.8-1.2"/>
	<path id="path9490-9-3" class="st8" d="M291.6,162.8l5.6,1"/>
	<path id="path9492-3-0" class="st8" d="M275.3,160.2v-33.2"/>
	<path id="path9494-7-38" class="st8" d="M254.8,124.8l13.6-19.2l10,18.9"/>
	<path id="path9496-2-4" class="st8" d="M278.2,124.7c-10.8,6.5-16.8,3.4-23.6,0.1"/>
	<path id="path9492-0-2-1" class="st8" d="M257.3,162.8v-36"/>
	<path id="path9518-5-7" class="st7" d="M262.8,133.8v9.3"/>
	<path id="path9518-4-2-8" class="st7" d="M269,134.2c0,5.5,0,8.9,0,9.3"/>
	<path id="path9538-0-2" class="st8" d="M291.7,115.4l8.1,18l12-13.5l-9-13.8L291.7,115.4z"/>
	<path id="path9540-9-1" class="st8" d="M291.7,115.7l-7.8,14.2"/>
	<path id="path9542-9-0" class="st8" d="M297.8,129.5v14.1"/>
	<path id="path9544-3-0" class="st8" d="M305.5,109.3l10.6-15.6l9.9,13.6C320,114.9,312.6,113.6,305.5,109.3z"/>
	<path id="path9546-2-3" class="st7" d="M323.5,110v22"/>
	<path id="path9548-0-3" class="st8" d="M323.5,131.6c-3.5,5.5-7.6,6.2-13.5,4.1l-0.3-12.9"/>
	<g id="g10437-7-9" transform="matrix(0,1.0665735,-1.0597712,0,810.36113,230.48183)">
		<g id="g10432-9-2">
			<path id="path9550-6-1" class="st8" d="M-56.5,429.8l-1.4-4.4l-17,3.5l1,3.2l-1.8,1.6l-0.9-3.4"/>
			<path id="path9552-1-8" class="st8" d="M-73.8,432l17.3-2l-2.6,5.4l-16.5-1.7"/>
			<path id="path10427-8-2" class="st8" d="M-76.7,430.2l1.7-1.2"/>
		</g>
	</g>
	<path id="path9579-3-1" class="st8" d="M334.3,119.9l10.8,19c-7,2.7-14.5,5-20.7-0.7L334.3,119.9z"/>
	<path id="path9581-1-6" class="st8" d="M325.9,140.3v30"/>
	<path id="path9583-5-5" class="st8" d="M343,140.5v28.8"/>
	<path id="path9585-7-2" class="st8" d="M382.4,110.7l-8.8,14.6c4.5,3,9.8,4.7,18.4,0.6L382.4,110.7z"/>
	<path id="path9587-6-9" class="st8" d="M388.6,150.3v-22.6"/>
	<path id="path9589-1-5" class="st8" d="M376,157.8v-30.2"/>
	<path id="path9591-1-3" class="st8" d="M451.2,81.8l-1.7,1.6l0,3.9l-4.4,4.5l-0.1-5.1l-4.5,4.8l0,5.8l-4.5,4.7l-0.5-4.8l-4.7,5.3
		l0.6,4.8l-4.3,4.3l-0.4-4.5l-5.6,3.6l0.4,4.4l-6.2,3.3l-0.3-4.9l-5.1,3l0.1,5l-6,3.5l-0.5-4.9l-5,2.7l-0.1,5.3l-9.4,5.1"/>
	<path id="path9593-1-3" class="st8" d="M208.2,81.7l1.3,1.4l-0.2,3.2l3.6,4.1l0.2-3.9l3.7,4.5l-0.3,2.9l4.7,5.3l0.1-5l4.2,4.9
		l-0.2,3.9l4.2,5.4l0.6-4l4.3,5.6l-0.4,3.2l4.2,4.6v-4.6l5.4,6.2c0,3.6,0.1,2.3,0.1,4.2l4.1,4.2l0.2-3.5l4,3.8l-0.1,4.1l4.8,5.2"/>
	<path id="path9595-4-7" class="st8" d="M276.6,136.3l6.7,1.3l-0.2,3.6l4.8,1.1l-0.1-4l5.7,1.3l-0.1,3.9l4.9,1.1l0-4.3l5.8,1.3
		l-0.4,4.2l5.2,1.1l0.2-4.3l6.4,1.6v4.1l9.9,2.1"/>
	<path id="path9599-7-7" class="st7" d="M287.4,124.1v16.5"/>
	<path id="path9601-4-1" class="st7" d="M309.8,135.5l-6.2,6"/>
	<rect id="rect3315-5-7-7-92" x="185.4" y="81.8" class="st8" width="281.9" height="281.6">
	</rect>
	<path id="path9627-6-1" class="st7" d="M343.4,329.1c6-7.7-0.8-0.2,3.6,1.9c1,0.5,1.3-2.1,7.5,1.7"/>
	<path id="path9629-0-7" class="st7" d="M399.3,299.8c0-0.4-0.4-1.1,0-1.1C399.7,298.7,399,299.7,399.3,299.8c0.9,0.5,2.1,0,3.1-0.3
		c0.6-0.2,1.1-1.5,1.7-1.1c1.5,1-0.7,2,1.4,2.5"/>
	<path id="path9631-0-2" class="st7" d="M415.5,262.6c3.1-2.7,0.6,2.1,2.5,3.1c1,0.5,4-1.2,4.2-0.8c1.4,2.8,1.8,2.9,4.4,3.6"/>
	<path id="path9633-6-7" class="st7" d="M375.4,226.4c1.2-1.4,2.4-0.5,3.9-1.1c5-2.1-0.3,2.5,1.9,4.7c0.7,0.7,2.7-1.7,3.6-0.8
		c3.6,3.6-0.9,9.6,6.7,11.1"/>
	<path id="path9635-7-8" class="st9" d="M282.3,335.5c-0.2-2.7,4-1.1,6.4-1.1"/>
	<path id="path9637-9-46" class="st9" d="M314.5,334.9c4-0.1,5.6,0.6,10,2.8"/>
	<path id="path9639-5-7" class="st7" d="M425.5,328.5c0.4-2.4,4.6-1.9,7-1.9"/>
	<path id="path9641-3-7" class="st7" d="M430.7,343c1.7-0.8,3.6,1.3,7.2,0.6"/>
	<path id="path9643-8-6" class="st9" d="M222.2,280.6c1.1-2.9,3.6-0.3,7.5-0.3"/>
	<path id="path9645-9-6" class="st7" d="M198.9,144.6c3.6-2,3.5,0.3,7.5,0.3"/>
	<path id="path9647-6-3" class="st7" d="M211.1,198.8c2.6,1.2-1.7-2.3,1.7,0.6c0.5,0.4,0.3,2.9,1.1,3.1c2.6,0.7,2.6-4.3,5.3-1.7"/>
	<path id="path9649-8-0" class="st7" d="M230.8,177.1c2.2,0,4.2,1,6.1,1.4"/>
	<path id="path9651-6-2" class="st7" d="M295.3,201.3c3.6-0.9,4,1.8,7,2.5"/>
	<path id="path9653-5-2" class="st7" d="M400.4,169.9c4.7,0.9,5.7,3.3,11.4,3.3"/>
	<path id="path9655-2-1" class="st7" d="M421.6,159.3c0.3,0.6,1.6-0.4,1.9,0c0.6,0.6,0.6,3.2,1.9,3.6c4,1.3,2.6-4.1,7.2,0.6"/>
	<path id="path9657-0-0" class="st7" d="M439.6,147.4c4.6-0.8,1.9,1.1,3.9,3.1c1.3,1.3,5.2,0,6.7,0"/>
	<path id="path9518-4-4-20-1" class="st7" d="M292.2,127.3c0,3.3,0,5.4,0,5.6"/>
	<path id="path9518-4-4-7-7-9" class="st7" d="M331.7,148.3c0,3.3,0,5.4,0,5.6"/>
	<path id="path9518-4-4-2-5-1" class="st7" d="M337.9,148c0,3.3,0,5.4,0,5.6"/>
	<path id="path9518-4-4-8-5-5" class="st7" d="M382.8,133.4c0,3.3,0,5.4,0,5.6"/>
	<path id="path9518-4-4-3-8-48" class="st7" d="M316.7,117.7c0,3.3,0,5.4,0,5.6"/>
	<path id="path10423-3-0" class="st10" d="M371.3,159.5l4.7-1.5"/>
	<path id="path10425-8-2" class="st8" d="M375.6,136.6l-4.8,1.2l-0.1,3.8l-5.5,1.6l0-4.3l-4.9,1.2l0,4.6l-5.6,1.4l-0.1-4.4l-4.7,1.2
		l0,4.6l-6.6,1.8"/>
	<g id="g10437-3-2-1" transform="matrix(0,1.0665735,-1.0597712,0,812.53075,238.1893)">
		<g id="g10432-0-6-8">
			<path id="path9550-8-2-97" class="st8" d="M-67.4,418.9l-1.4-4.4l-17,3.5l1,3.2l-1.8,1.6l-0.9-3.6"/>
			<path id="path9552-2-7-61" class="st8" d="M-84.7,421.1l17.3-2l-2.6,5.4l-16.5-1.7"/>
			<path id="path10427-9-5-4" class="st8" d="M-87.4,419.1l1.7-1.2"/>
		</g>
	</g>
	<path id="path10473-0-5" class="st10" d="M342.9,168.8l6.5-1.9"/>
	<path id="path10475-9-2" class="st10" d="M358.5,164.4l4.5-1.5"/>
</g>
</svg>
