<?xml version="1.0" encoding="utf-8"?>
<!-- Generator: Adobe Illustrator 25.0.0, SVG Export Plug-In . SVG Version: 6.00 Build 0)  -->
<svg version="1.1" id="Layer_1" xmlns="http://www.w3.org/2000/svg" xmlns:xlink="http://www.w3.org/1999/xlink" x="0px" y="0px"
	 viewBox="0 0 283.5 283.5" style="enable-background:new 0 0 283.5 283.5;" xml:space="preserve">
<style type="text/css">
	.st0{fill:#FFFFFF;}
	.st1{fill:#C2895F;}
	.st2{fill:#EE663C;}
	.st3{fill:#BBA78E;}
	.st4{fill:#0353E2;}
	.st5{fill:#BAA78E;}
	.st6{fill:none;stroke:#010101;stroke-width:1.7793;stroke-linecap:round;stroke-linejoin:round;}
	.st7{fill:#7F1416;stroke:#010101;stroke-width:1.7793;stroke-linecap:round;stroke-linejoin:round;}
	.st8{fill:none;stroke:#010101;stroke-width:1.7793;}
	.st9{fill:none;stroke:#010101;stroke-width:1.7793;stroke-linecap:round;}
	.st10{fill:none;stroke:#010101;stroke-width:1.7793;stroke-linejoin:round;}
</style>
<g id="g16322" transform="translate(-665.65075,385.32461)">
	<g>
		<path class="st0" d="M807.4-101.9c-46.9,0-93.8,0-140.6,0c-0.9,0-1.1-0.2-1.1-1.1c0-93.8,0-187.5,0-281.3c0-0.9,0.2-1.1,1.1-1.1
			c93.8,0,187.5,0,281.3,0c0.9,0,1.1,0.2,1.1,1.1c0,93.8,0,187.5,0,281.3c0,0.9-0.2,1.1-1.1,1.1
			C901.1-101.9,854.3-101.9,807.4-101.9z"/>
		<path class="st1" d="M807.4-104.2c-45.9,0-91.7,0-137.6,0c-1.5,0-1.5,0-1.5-1.6c0-91.8,0-183.6,0-275.4c0-1.2,0.3-1.5,1.5-1.5
			c91.8,0,183.7,0,275.5,0c1.3,0,1.5,0.4,1.5,1.5c0,91.8,0,183.6,0,275.4c0,1.8,0.3,1.6-1.5,1.6
			C899.3-104.2,853.3-104.2,807.4-104.2z"/>
		<path class="st0" d="M798.2-270.5c-2,0.4-3.7,0.9-5.4,1.5c-2.8,1-5.3,2.7-7.8,4.2c-2.2,1.3-4.3,2.4-7,2.1c-3.7-0.5-6.7,1.2-9.7,3
			c-1.5,0.9-3,1.6-4.5,2.4c-1.2,0.6-2.5,0.1-3.5-0.1c-2.8-0.7-5.1-0.2-7.5,1.3c-2.2,1.4-4.6,2.7-6.9,4c-0.7,0.4-1.3,0.3-2,0
			c-4.9-1.8-9.9-3.6-14.8-5.5c-0.7-0.3-1-0.8-1-1.6c0-5.1-0.1-10.2,0-15.2c0-1.5,1-2.8,1.5-4.2c2-5.1,4.2-10.2,6.2-15.4
			c0.4-1,1-1.4,2-1.1c4.6,1.2,9.1,2.5,13.7,3.8c0.8,0.2,1.2,0.8,1.4,1.6c0.8,3.6,1.8,7.3,2.5,10.9c0.2,1,0.6,0.9,1.2,0.6
			c3-1.4,6-2.9,9-4.4c0.5-0.2,0.4-0.6,0.4-1c0.1-1.6-0.1-3.1-0.2-4.7c-0.2-2.1,0.9-4,1.4-6c0.5-1.8,1-3.5,1.5-5.2
			c0.4-1.6,1.2-2,2.7-1.3c0.4,0.2,0.7,0.3,1.1,0.4c1.7,0.6,1.6,0.6,2.1-1.1c1.2-4.2,2.4-8.4,3.6-12.6c0.1-0.4,0.2-0.9,0.4-1.3
			c0.4-0.8,1-1.2,2-0.8c3.8,1.5,7.6,2.9,11.5,4.3c0.8,0.3,1.5,0.5,2.3,0.8c1.2,0.4,1.5,1.5,1.9,2.5c1.2,2.6,2.4,5.2,3.7,7.8
			c0.1,0.2,0.1,0.6,0.5,0.5c0.5-0.1,0.3-0.5,0.3-0.8c0-3.2,0.1-6.3,0-9.5c0-1.1,0.5-1.7,1.5-1.8c0.6,0,0.7-0.4,0.7-0.8c0-1,0-2,0-3
			c0-1.4,0.6-1.9,1.9-1.9c1.2,0,2.5-0.4,3.7-0.3c1,0.1,1.4,0.5,1.4,1.4c0,1,0,2,0,3.1c0,0.5,0.1,0.7,0.6,0.7c1.1,0,1.5,0.7,1.5,1.8
			c0,3.2,0,6.3,0,9.5c0,0.9,0.1,1.3,1.2,1.3c1,0,1.3-0.3,1.2-1.2c-0.1-2,0-4,0-6c0-1,0.1-1.9,1.4-1.8c0.6,0,0.5-0.4,0.5-0.7
			c0-1.6,0-3.3,0.2-4.9c0.1-1,0.6-1.5,1.6-1.4c1.1,0,2.3,0,3.4,0c1.1,0,1.6,0.5,1.7,1.6c0,1.2,0,2.4,0,3.7c0,0.5,0,0.8,0.7,0.9
			c1.6,0.2,1.9,0.6,1.9,2.3c0,9.2,0,18.4,0,27.5c0,1.1-0.4,1.8-1.2,2.3c-2.6,1.6-5.2,3.2-7.8,4.7c-0.7,0.4-1.1,0.7-0.4,1.6
			c0.8,1.1,1.4,2.3,2.1,3.5c0.5,0.9,0.4,1.7-0.5,2.2c-0.4,0.2-0.6,0.5-0.6,1c0,2.7,0,5.4,0,8.3c1-1.5,2.6-2,3.9-2.8
			c5.1-3.1,10.1-6.2,15.2-9.3c0.3-0.2,0.7-0.4,1-0.5c0.8-0.3,1.5-0.1,1.8,0.9c1.1,3.7,2.2,7.3,3.3,11c0.2,0.7,0.5,1.4,0.6,2.1
			c0.1,1.3,0.7,0.9,1.4,0.4c1.8-1.3,2.3-1.1,3.4,0.9c0.8,1.5,1.5,3.1,2.2,4.6c0.2,0.4,0.3,0.6,0.7,0.2c0.7-0.5,1.4-1,2.1-1.4
			c1-0.7,1.6-0.6,2.2,0.4c2.2,3.7,4.5,7.5,6.7,11.2c1.1,1.9,2.1,3.8,3.3,5.6c0.7,1,0.4,1.9-0.4,2.3c-2,1-2.4,2.5-2.3,4.6
			c0.2,4.1,0,8.3,0.1,12.4c0,0.8-0.3,1.3-0.9,1.8c-5.1,3.5-10.2,6.9-15.2,10.4c-1.1,0.8-1.9,0.6-3,0c-4.8-3-9.7-5.9-14.6-8.8
			c-5-3-10.1-6-15.1-9c-0.2-0.1-0.6-0.3-0.6-0.5c-0.3-1.6-1.1-0.7-1.8-0.4s-1.5,0.7-2.2,1.1c-0.8,0.5-1.6,0.4-2.3-0.1
			c-2.7-1.8-5.4-3.7-8.2-5.5c-0.8-0.5-0.8-1.3-0.8-2c0-8.4,0-16.8,0-25.2c0-4.4,0-8.8,0-13.2c0-0.3,0.1-0.7,0-0.8
			C796.1-267.8,797.4-269,798.2-270.5z"/>
		<path class="st0" d="M788.4-184.2c0,1.3-0.1,2.4,0,3.6c0.1,1-0.4,1.5-1.2,1.8c-5.1,2.1-10.1,4.2-15.2,6.3
			c-2.2,0.9-4.3,1.8-6.5,2.8c-0.8,0.3-1.4,0.3-2.1-0.2c-3.8-2.8-7.6-5.6-11.4-8.4c-0.3-0.2-0.6-0.5-0.9-0.7c-0.8-0.4-1-1.1-1-1.9
			c0-2.6,0-5.2,0-7.8c-0.9-0.1-1.6,0.6-2.4,0.8c-0.8,0.2-1.5,0.2-2.3-0.3c-1.7-1.1-3.6-2.2-5.3-3.3c-0.5,1.9-0.9,2.1-2.7,1.1
			c-4-2.3-7.9-4.7-11.8-7.1c-0.6-0.4-0.9-1-0.9-1.7c0-2.8-0.2-5.6,0-8.4c0.4-4.6,0-9.3,0.2-13.9c-0.7,0.2-1.4,0.3-1.8-0.3
			c-0.4-0.6-0.1-1.3,0.2-1.9c1.9-3.3,4-6.6,5.6-10c1.3-2.7,3.2-4.4,5.8-5.6c4.3-2.1,8.5-4.4,12.7-6.6c0.9-0.5,1.7-0.3,2.4,0.4
			c2.6,2.5,5.2,4.9,7.9,7.4c1,0.9,2.8,0.4,3.2-0.9c0.1-0.4,0.3-0.7,0.6-1c2.7-2.8,5.3-5.6,8-8.5c1.8-1.9,3.5-3.8,5.2-5.7
			c1-1,1.6-1,2.6,0c2.2,2.3,4.3,4.6,6.4,6.9c1.7,1.8,3.4,3.7,5,5.5c0.9,0.9,1,1.7,0.1,2.4c-1.9,1.4-2.1,3.2-2,5.4
			c0.1,3.8,0,7.6,0,11.5c0,0.7,0.2,1.1,0.8,1.5c2,1.2,3.8,2.7,5.8,3.8c2.6,1.4,4.2,3.6,5.9,5.8c2.1,2.7,4.2,5.4,6.3,8.1
			c0.6,0.7,0.8,1.4,0.2,2.1c-0.4,0.4-0.3,0.9-0.3,1.3c0,3.3,0,6.5,0,9.8c0,0.8-0.3,1.2-1,1.5c-4,1.8-7.9,3.7-11.9,5.5
			c-0.9,0.4-1.9,0.3-2.7-0.3C789.6-183.6,789.1-183.9,788.4-184.2z"/>
		<path class="st0" d="M902.4-203.2c0,2.6-0.2,5,0,7.4c0.3,3.5,0,6.9,0.2,10.3c0.1,1.4-0.5,2.3-1.6,3c-2.4,1.6-4.9,3.3-7.3,4.9
			c-0.8,0.5-1.4,0.5-2.2,0.1c-3.5-2.2-7-4.4-10.5-6.6c-0.4-0.3-1.1-0.3-1.2-1c0,1.9,0,3.9,0,5.8c0,2.7,0,5.4,0,8
			c0,0.7-0.3,1.2-0.8,1.6c-3.5,2.4-7,4.7-10.5,7.2c-0.9,0.7-1.8,0.5-2.6,0.1c-6-3.4-11.9-6.8-17.9-10.2c-0.9-0.5-1.2-1.4-1.2-2.3
			c0-3,0-6.1,0-9.1c0-0.4,0.3-1.1-0.7-0.7c-0.5,0.2-0.9-0.4-1.1-0.7c-0.3-0.4-0.2-0.9,0.1-1.3c1.5-1.8,2.9-3.7,4.4-5.6
			c0.8-1,1.6-2.1,2.4-3.1c0.4-0.5,0.9-0.8,1.4-1.1c2.7-1.3,5.2-2.8,7.9-3.8c0.4-0.2,0.5-0.5,0.6-0.9c0.4-1.4,1.2-2.2,2.5-2.8
			c3.9-1.6,7.7-3.5,11.5-5.2c0.6-0.3,0.9-0.6,1.2-1.2c2.7-5.1,5.4-10.1,8.1-15.2c0.7-1.3,1.3-1.5,2.5-0.7c4.4,2.9,8.8,5.8,13.2,8.7
			c0.7,0.5,0.9,1.3,1.1,2.1c1,4.6,2.1,9.2,3.2,13.7c0.2,0.8,0.1,1.5-0.8,1.8c-0.8,0.3-1.3-0.3-1.6-1
			C902.8-201.7,902.9-202.5,902.4-203.2z"/>
		<path class="st0" d="M831.3-294.9c-0.7,0.2-1.2,0.2-1.7-0.4c-0.5-0.8-0.1-1.5,0.3-2.2c2.2-4,4.5-8,6.5-12c0.7-1.4,1.6-2,2.9-2.5
			c2.6-1,5.3-2.1,8-3.1c-0.4-0.6-0.9-0.8-1.4-1.1c-0.9-0.6-1.1-1.3-0.6-2.3c1.6-3.2,3.1-6.4,4.7-9.6c1.1-2.3,2.3-4.7,3.4-7
			c0.7-1.4,1.2-1.5,2.6-0.8c2.7,1.5,5.3,3.1,8,4.7c1.2,0.7,2.4,1.5,3.6,2.1c0.7,0.4,1.3,0.9,1.5,1.7c1.7,4.9,3.5,9.7,5.2,14.6
			c0.4,1.1-0.1,2-1.1,2c-0.5,0-0.8-0.3-1.4-1.8c0,1.8,0,3.3,0,4.8c0,2.3,0,4.6,0,7c0,0.8-0.3,1.4-1,1.8c-3.1,1.8-6.1,3.6-9.2,5.4
			c-0.7,0.4-1.5,0.5-2.2,0.1c-0.4-0.2-0.9-0.4-1.5-0.7c0,3.5,0,6.9,0,10.4c0,1.1-0.4,1.8-1.3,2.4c-3.7,2.3-7.3,4.8-11,7.1
			c-0.7,0.5-1.4,0.5-2.2,0.2c-3.5-1.4-6.9-2.8-10.5-4c-1.3-0.4-1.5-1.2-1.5-2.3c0-4.6,0-9.2,0-13.8
			C831.3-294.4,831.3-294.6,831.3-294.9z"/>
		<path class="st0" d="M892.6-233.2c-1.1,0.3-1.9,1-2.8,1.5c-0.7,0.3-1.3,0.4-2,0c-2.2-1.3-4.5-2.6-6.7-3.9c-1-0.5-1.2-1.3-1.1-2.3
			c0-5.3,0-10.6,0-15.8c0-0.4,0-0.7,0-1.3c-0.7,0.9-0.8,1.7-1.2,2.5c-0.3,0.8-0.8,1.3-1.7,1.1c-0.9-0.3-0.8-1.1-0.6-1.9
			c1-2.6,2.1-5.1,3.1-7.7c0.7-1.6,1.3-3.2,1.9-4.8c0.4-0.9,1.1-1.5,1.9-2.1c4.8-3.2,9.6-6.4,14.5-9.7c1.1-0.8,1.8-0.5,2.3,0.7
			c2,5.7,3.9,11.5,5.9,17.2c0.4,1,0.2,1.8-0.8,2.3c-0.7,0.4-1,0.9-0.9,1.7c0.1,1.5,0,2.9,0,4.4c0,0.6,0.2,0.9,0.8,1.1
			c2.3,0.9,4.5,1.9,6.7,2.8c0.9,0.4,1.2,1.1,1.5,1.9c0.9,2.3,1.9,4.7,2.8,7c0.2,0.4,0.4,0.9,0.1,1.2c-0.9,1-0.5,2.3-0.6,3.4
			c0,1,0,2,0,3.1c0,0.7-0.3,1.3-0.9,1.6c-2.4,1.3-4.7,2.6-7.1,3.9c-0.9,0.5-1.7,0.5-2.6,0c-3.8-2-7.7-4-11.5-6
			C893-231.8,892.7-232.4,892.6-233.2z"/>
		<path d="M712.2-366.2c0.1,4.6-0.3,9.4-0.3,14.2c0,2-1,3.9-1.7,5.7c-1.6,4.2-3.7,8.2-6.4,11.8c-1.7,2.2-3.5,4.1-5.6,6
			c-1,0.9-1.8,0.3-2.4-0.3c-3.3-2.9-6-6.3-8.1-10.1c-2.2-3.9-3.9-8.1-5-12.4c-0.1-0.3-0.1-0.5-0.1-0.8c0-4.7-0.4-9.4-0.2-14.1
			c0.1-1.6-0.1-3.2-0.2-4.8c-0.1-1.6,0.8-2.2,2.3-1.6c2.5,0.9,4.9,2,7.5,2.7c3.8,0.9,7.5,0.7,11.3-0.2c2.4-0.6,4.6-1.5,6.8-2.5
			c1.4-0.6,2.3-0.1,2.3,1.5C712.2-369.7,712.2-368,712.2-366.2z"/>
		<path class="st0" d="M803-171.5c-0.9,0.4-1.5,1-2.3,1.3c-0.7,0.2-1.3,0.5-1.7-0.3c-0.5-0.8-0.1-1.3,0.6-1.7
			c3.5-2.3,6.9-4.8,10.6-6.9c2.4-1.4,5.1-2.3,7.7-3.4c3.3-1.4,6.7-2.8,10-4.2c1.2-0.5,1.9-0.4,2.9,0.6c2.9,3.2,6,6.2,9,9.3
			c0.9,0.9,1.7,1.9,2.5,2.8c0.9,0.9,0.8,1.9-0.3,2.2c-1.7,0.6-1.9,1.7-1.8,3.2c0.1,0.8-0.1,1.6,0,2.4c0.3,1.5-0.5,2.2-1.6,2.8
			c-4.1,2.2-8.1,4.4-12.2,6.7c-1,0.6-2,1.2-3,1.8c-0.8,0.5-1.6,0.7-2.5,0.3c-5.7-2.2-11.3-4.4-17-6.6c-0.7-0.3-1-0.8-1-1.5
			C803-165.6,803-168.4,803-171.5z"/>
		<path class="st2" d="M853.4-248.2c2.4,4.1,4.8,8.1,7.2,12.1c0.6,1,1.2,2,1.8,3c0.2,0.4,0.1,0.5-0.3,0.8c-3.5,2.6-7,5.3-10.4,7.9
			c-1.3,1-2.5,1.9-3.8,2.9c-0.6,0.4-0.8,0.3-1-0.4c-1.4-6-2.8-12-4.3-17.9c-0.2-0.6,0-0.9,0.4-1.1
			C846.5-243.3,849.9-245.7,853.4-248.2z"/>
		<path class="st3" d="M800-273.5c0-4.2,0-8.2,0-12.2c0-0.6,0.5-0.7,0.8-0.8c4-1.7,8.1-3.4,12.1-5.1c3-1.3,6-2.5,9-3.8
			c1.4-0.6,1.4-0.6,1.4,0.9c0,4.5,0,9,0,13.5c0,0.8-0.3,1.3-1,1.7c-2.5,1.4-5,2.9-7.4,4.4c-0.5,0.3-0.6,0.2-0.9-0.2
			c-1.7-2.9-3.4-5.7-5.1-8.5c-0.9-1.4-1.7-1.3-2.6,0.1c-1.9,3.1-3.8,6.2-5.7,9.4C800.5-274.1,800.3-273.9,800-273.5z"/>
		<path class="st2" d="M826.4-242.3c-0.9-2.1-1.8-4.1-2.7-6.2c-0.9-2.2-1.8-4.4-2.8-6.6c-0.4-0.9-0.4-1.4,0.6-2c5-3,10-6.1,15-9.1
			c0.7-0.4,0.9-0.1,1.1,0.5c1.1,3.7,2.2,7.4,3.3,11c0.3,1.1,0.5,1.7-0.8,2.4c-4,2.4-7.8,5.1-11.8,7.6
			C827.3-244.1,827.1-243.1,826.4-242.3z"/>
		<path class="st3" d="M818.7-253.8c1.1,2.6,2.3,5.1,3.4,7.7c1.3,3.2,2.7,6.4,4.2,9.5c0.4,0.8,0.6,1.7,0.6,2.6c0,6,0,12.1,0,18.1
			c0,0.4,0,0.8,0,1.3c-1.5-0.7-2.7-1.6-4-2.4c-0.4-0.2-0.2-0.6-0.2-1c0-1.7,0-3.3,0-5c0-1-0.4-1.6-1.3-2c-0.9-0.4-1.7-0.8-2.5-1.2
			c-1.1-0.6-2.3-0.2-2.1,1.3c0.1,1.1,0,2.3,0,3.4c0,0.7-0.2,0.8-0.7,0.5c-0.8-0.4-1.2-0.9-1.2-1.9c0.1-6.9,0-13.7,0-20.6
			c0-0.9,0.1-1.9,0.5-2.7C816.4-248.7,817.6-251.2,818.7-253.8z"/>
		<path class="st2" d="M749.7-288.9c-0.5,1.5-0.9,2.9-1.4,4.3c-1.4,3.9-2.8,7.8-4.2,11.7c-0.5,1.4-0.7,1.5-2.1,1.1
			c-3.4-1.1-6.8-2.2-10.3-3.3c-0.7-0.2-0.8-0.4-0.5-1.1c2.1-5.2,4.2-10.4,6.2-15.6c0.2-0.4,0.3-0.7,1-0.5c3.5,1,7,2,10.5,2.9
			C749.4-289.2,749.6-289.2,749.7-288.9z"/>
		<path class="st2" d="M776.2-298.7c1.3-4.4,2.6-8.9,3.9-13.4c0.3-0.9,0.4-1.2,1.5-0.8c3.4,1.4,6.9,2.6,10.4,3.9
			c0.7,0.3,0.9,0.5,0.7,1.3c-0.9,4.2-1.7,8.5-2.5,12.8c-0.3,1.4-0.3,1.4-1.7,0.9C784.5-295.5,780.3-297.1,776.2-298.7z"/>
		<path class="st3" d="M800-226.9c0-12.6,0-25.2,0-37.9c2.3,1.5,4.4,2.9,6.5,4.3c0.4,0.3,0.3,0.7,0.3,1.1c-0.1,2.7,0,5.4-0.1,8.1
			c-0.2,5.8-0.1,11.7-0.1,17.5c0,3.7,0,7.5,0,11.3c-0.7-0.6-0.5-1.2-0.4-1.8c0.4-1.7,0.1-3.4,0.2-5.2c0-0.8-0.3-1.4-1.2-1.8
			c-0.9-0.4-1.7-0.8-2.5-1.3c-1.3-0.8-2.4-0.1-2.4,1.4c0,1.4,0,2.8,0,4.2C800.1-226.9,800.1-226.9,800-226.9z"/>
		<path class="st2" d="M834.3-228.3c-0.9-3.1-1.7-6-2.5-8.9c-0.4-1.6-0.7-3.3-1.3-4.9c-0.3-0.8,0-1.1,0.6-1.5
			c3.8-2.5,7.7-5,11.5-7.4c0.6-0.4,1.4-0.7,1.9-1.2c0.9-0.8,1.3-0.5,1.6,0.4c0.5,1.3,1.3,2.4,1.7,3.8c0.2,0.5,0.1,0.6-0.3,0.9
			c-2.1,1.5-4.1,3.2-6.3,4.5c-1.4,0.9-1.9,2.2-2.5,3.5C837.4-235.6,835.9-232,834.3-228.3z"/>
		<path class="st3" d="M730.3-272.9c1.1,0.3,2.2,0.6,3.3,0.9c2.9,0.9,5.8,1.8,8.8,2.7c0.7,0.2,1,0.5,1,1.3c-0.1,4,0,8.1,0,12.1
			c0,0.8-0.2,1-1,0.7c-3.8-1.4-7.6-2.8-11.5-4.2c-0.5-0.2-0.6-0.5-0.6-0.9C730.3-264.4,730.3-268.6,730.3-272.9z"/>
		<path class="st3" d="M745.7-254.9c0-3.5,0.1-6.9,0-10.3c-0.2-3.2,0.4-6.2,1.5-9.2c1.3-3.4,2.4-6.8,3.6-10.1
			c0.1-0.3,0.1-0.7,0.5-0.9c0.7,3.1,1.6,6.1,2.1,9.1c0.3,1.7-0.1,3.5,0.2,5.2c0.5,3.6,0.4,7.2,0.4,10.8c0,0.5,0,1-0.5,1.3
			c-0.4,0.2-0.8,0.6-1.1,0.5c-0.5-0.1-0.2-0.8-0.2-1.1c0-1,0-2,0-3.1c0-1.2-0.8-1.7-1.9-1.2c-0.9,0.4-1.7,1-2.5,1.5
			c-0.4,0.2-0.4,0.7-0.4,1.1c0,1.5-0.1,2.9,0,4.4C747.4-255.8,747.1-255.1,745.7-254.9z"/>
		<path class="st3" d="M794.9-305.1c1.3,2.7,2.6,5.2,2.5,8.4c-0.2,7.5-0.1,15,0,22.5c0,1-0.3,1.5-1.3,1.6c-1,0.2-2,0.6-3,0.9
			c-0.6,0.2-0.7,0.1-0.7-0.5c0-1,0-2,0-3c0-4.6,0.1-9.3,0-13.9c-0.1-3.7,0.7-7.2,1.3-10.8c0.3-1.4,0.6-2.9,0.8-4.3
			C794.6-304.4,794.6-304.7,794.9-305.1z"/>
		<path class="st3" d="M768.3-287c3.8,1.4,7.3,2.8,10.9,4c1.2,0.4,1.4,0.9,1.4,2c-0.1,4.8,0,9.7,0,14.5c0,0.8,0,1.2-1,1.4
			c-1.5,0.2-2.9,0-4.3,0.1c-0.5,0-0.5-0.3-0.5-0.7c0-2,0-4,0-6c0-0.7,0.5-0.9,1-1.2c2.5-1.4,2.5-2,0.2-3.7c-2.4-1.7-4.7-3.5-7-5.3
			c-0.3-0.2-0.5-0.5-0.5-0.9C768.3-284.1,768.3-285.5,768.3-287z"/>
		<path class="st3" d="M784.4-292.6c1.6,0.9,2.6,2.4,4,3.4c1.2,0.8,1.4,1.9,1.4,3.4c-0.1,4.8,0,9.7,0,14.5c0,0.7-0.2,1.1-0.9,1.4
			c-2,1.1-3.9,2.2-6,3.4c0-0.6,0-1,0-1.4c0-6.3,0.1-12.5,0-18.8C782.9-288.8,783.9-290.6,784.4-292.6z"/>
		<path class="st3" d="M812.1-239.3c0.5,3.8,0.3,7.5,0.4,11.3c0,0.4,0,0.7,0,1.1c0,3.4,0,3.4-3.5,4.6c0-2,0-4,0-6
			c0-3.3-0.1-6.6,0-9.9c0.4-7,0.1-13.9,0.2-20.9c0-0.7,0.4-1.2,0.9-1.5c1.4-0.9,2.8-1.8,4.1-2.8c0.6-0.4,0.7-0.2,0.7,0.4
			c0,3.9,0,7.9,0,11.8c0,0.8-0.5,1.5-0.8,2.2c-1.1,2.7-2.4,5.3-3.6,7.9c-0.3,0.6-0.6,1.1-0.1,1.7
			C810.8-238.9,811.4-238.8,812.1-239.3z"/>
		<path class="st3" d="M843.5-204.6c-0.7-0.2-0.9-0.7-0.9-1.4c0-1.8,0-3.7,0-5.6c0-0.5,0-1-0.4-1.4c-1.2-1.2-2.7-1.8-4.3-2.3
			c-0.8-0.3-1.4,0.6-1.5,1.8c0,1.5,0,3,0,4.6c-0.8-0.2-1-0.6-1-1.3c0-4.7,0-9.5,0-14.2c0-1.2,0.6-2.2,1.1-3.2
			c1.3-3.2,2.7-6.3,4.1-9.6c0.9,3.7,1.8,7.2,2.6,10.8c0.1,0.3,0,0.6,0,0.9c0,6.4,0,12.7,0,19.1C843.4-205.7,843.8-205.2,843.5-204.6
			z"/>
		<path class="st2" d="M782.2-293.7c-0.5,1.5-0.9,2.9-1.4,4.3c-0.4,1.1-0.8,2.1-1,3.2c-0.1,0.7-0.4,0.8-0.9,0.6
			c-3.3-1.2-6.6-2.5-9.9-3.8c-0.3-0.1-0.7-0.1-0.4-0.8c0.8-2.4,1.5-4.8,2.1-7.3c0.2-0.6,0.2-0.6,0.8-0.4c3.4,1.3,6.7,2.5,10.1,3.8
			C781.8-294,782.1-294,782.2-293.7z"/>
		<path class="st3" d="M859.9-227.3c0,4.3,0,8.4,0,12.5c0,0.6-0.3,0.8-0.7,1.1c-4.4,3-8.7,6-13.2,9.1c0-2.3,0-4.5,0-6.7
			c0-1.7,0-3.5,0-5.2c0-0.6,0-0.9,0.9-1.2c1.2-0.3,2.1-1.4,3.1-2.2c3.1-2.4,6.2-4.7,9.3-7.1C859.4-227.2,859.6-227.2,859.9-227.3z"
			/>
		<path class="st2" d="M774.1-274.8c-3.5,2.1-6.7,4-10,6c-0.4,0.3-0.6,0.2-0.8-0.1c-2-2.1-4-4.1-5.9-6.2c-0.3-0.4-0.3-0.5,0.1-0.7
			c2.9-1.3,5.8-2.7,8.6-4.1c0.4-0.2,0.8-0.4,1.1-0.1C769.5-278.4,771.7-276.7,774.1-274.8z"/>
		<path class="st3" d="M818.7-296.8c-2.6,1.1-5.3,2.3-7.9,3.4c-3.3,1.4-6.7,2.8-10,4.2c-0.8,0.3-1.1,0.3-1.1-0.7c0-2.2,0-4.5,0-6.7
			c0-1.1,0.4-1.4,1.4-0.9c0.9,0.4,1.7,0.9,2.7,1.1c2.6,0.5,4.9-0.3,7.3-1.1c1.4-0.5,2.7-0.5,4.1,0
			C816.3-297.1,817.4-296.8,818.7-296.8z"/>
		<path class="st2" d="M806.4-279.1c0.1,5.2,0.7,10.4,0.7,15.9c-1.3-0.9-2.5-1.7-3.7-2.5c-1-0.7-2-1.3-3-2c-0.3-0.2-0.8-0.3-0.5-0.9
			C802-272,804.2-275.5,806.4-279.1z"/>
		<path class="st2" d="M809-279c2.3,3.7,4.4,7.3,6.5,10.8c0.3,0.5,0,0.8-0.3,1c-1.7,1.2-3.4,2.3-5.1,3.5c-0.5,0.4-0.6,0.1-0.7-0.3
			c0-0.1,0-0.2,0-0.4c-0.1-3.5-0.1-7-0.3-10.6C809.1-276.1,808.8-277.4,809-279z"/>
		<path class="st3" d="M772.1-270.8c0,2.2,0,4.1,0,6.1c0,0.4-0.3,0.5-0.5,0.6c-2.5,1.4-5.1,2.7-7.8,4.2c0-1.9,0-3.7,0-5.5
			c0-0.3,0.2-0.5,0.4-0.6C766.8-267.6,769.4-269.1,772.1-270.8z"/>
		<path class="st3" d="M828.4-240.7c1,3.8,2.1,7.6,3.2,11.6c-0.6,0-1.2-0.4-1.7,0.1c-0.6,0.5-0.4,1.1-0.4,1.7c0,1.3,0,2.7,0,4
			c0,0.7,0.2,1.3,0.8,1.5c0.5,0.2,1.1-0.1,1.5-0.7c0.2,0.6-0.2,1-0.4,1.4c-0.5,1.2,0.1,2.1,1.4,1.9c0.5-0.1,0.6,0,0.6,0.4
			c0,2.6,0,5.2,0,8c-1.2-0.7-2.3-1.2-3.3-1.8c-0.6-0.3-0.7-0.9-0.7-1.6c0-6.5,0-13.1,0-19.6c0-1.6-0.2-3.1-1.1-4.5
			C827.6-239.1,827.5-240,828.4-240.7z"/>
		<path class="st2" d="M823.3-303.1c0,0.6-0.1,1.2,0,1.8c0.2,1.1-0.3,1.6-1.3,1.7c-1.4,0.2-2.8,0.4-4.2,0.3
			c-0.7-0.1-1.2-0.3-1.2-1.3c0.1-1.6,0-3.2,0-4.8c0-0.6,0.1-0.9,0.7-0.7c1.7,0.5,3.3,0.2,4.9-0.2c0.7-0.2,1-0.1,1,0.7
			C823.3-304.7,823.3-303.9,823.3-303.1z"/>
		<path class="st3" d="M756.3-267.3c1.7,0.5,3.2,0.9,4.7,1.3c0.5,0.1,0.5,0.5,0.5,0.8c0,1.6,0,3.2,0,4.8c0,0.6-0.1,0.8-0.8,0.7
			c-1-0.2-2.1-0.3-3.1-0.3c-0.9,0-1.3-0.4-1.3-1.3C756.3-263.3,756.3-265.2,756.3-267.3z"/>
		<path class="st2" d="M820.7-311.1c0,0.5-0.1,1.1,0,1.6c0.2,1-0.3,1.2-1.2,1.2c-0.7,0-1-0.2-0.9-0.9c0.1-1.4,0.2-2.8,0.2-4.2
			c0-0.8,0.6-0.6,1-0.6s1-0.2,0.9,0.6C820.7-312.5,820.7-311.8,820.7-311.1z"/>
		<path class="st2" d="M807.4-315.6c0.2,1.5,0,3,0.1,4.5c0.1,0.8-1,0.4-1.5,0.7c-0.4,0.2-0.7-0.2-0.7-0.6c0-1.3,0-2.5,0-3.8
			c0-0.4,0.2-0.6,0.6-0.5C806.4-315.3,806.9-315.3,807.4-315.6z"/>
		<path class="st2" d="M820.2-218.4c-2.1-1.4-0.7-3.3-1.3-4.8c1,0.1,1.4,0.5,1.3,1.5C820.2-220.8,820.2-219.8,820.2-218.4z"/>
		<path class="st2" d="M840.1-206.7c-0.8-0.2-1-0.7-1-1.4c0.1-1.3,0-2.6,0-3.9c0.7,0.1,1,0.3,1,1C840-209.6,840.1-208.2,840.1-206.7
			z"/>
		<path class="st2" d="M802.8-229.5c0.7,0.1,1,0.4,1,1c0,1.4,0,2.7,0,4.1c-0.7-0.2-1-0.6-1-1.4C802.8-227,802.8-228.2,802.8-229.5z"
			/>
		<path class="st3" d="M731.7-233.3c1.5,3.8,2.8,7.4,4.2,11c0.3,0.7,0.4,1.5,0.8,2.2c0.9,1.7,0.9,3.4,0.9,5.2c0,6.3,0,12.7,0,19
			c0,0.9-0.4,1.8-0.1,2.8c-1.6-0.9-3-1.8-4.4-2.6c-1.7-1-3.3-2.1-5-3c-0.6-0.4-0.9-0.8-0.9-1.5c0-8.2,0-16.4,0-24.7
			c0-0.4,0-0.8,0.2-1.1C728.9-228.4,730.3-230.8,731.7-233.3z"/>
		<path class="st2" d="M748-194.7c0.2-1.2,1.2-1.7,2-2.4c1.9-1.7,3.9-3.3,5.9-5c1.2-1,2.4-2.1,3.6-3.1c0.4-0.4,0.6-0.2,0.9,0.1
			c3.4,2.4,6.9,4.8,10.3,7.2c0.7,0.5,1.9,0.9,2.1,1.7c0.1,0.7-1,1.4-1.6,2.1c-2.4,2.8-4.7,5.6-7.1,8.3c-1.3,1.5-1.3,1.5-2.9,0.4
			c-4.1-2.7-8.3-5.5-12.5-8.1C748.2-193.8,748-194.1,748-194.7z"/>
		<path class="st2" d="M744.4-228.5c5.9-2.5,11.8-5.1,17.7-7.7c0.3,0.3,0.2,0.6,0.2,0.9c0,5.2,0,10.3,0,15.5c0,0.7-0.2,1.1-0.9,1.4
			c-3.6,1.8-7.1,3.7-10.6,5.6c-0.7,0.4-0.9,0.4-1.1-0.4c-1.6-4.8-3.3-9.6-5-14.3C744.5-227.8,744.4-228.1,744.4-228.5z"/>
		<path class="st3" d="M766-172.6c0-3.8,0-7.5,0-11.1c0-0.5,0.2-1,0.6-1.4c2.7-3.1,5.5-6.2,8.1-9.4c0.8-0.9,1.6-0.6,2.4-0.5
			c2.6,0.2,5.2,0.6,7.9,0.9c0.8,0.1,1.1,0.3,1.1,1.1c0,3.7,0,7.5,0,11.2c0,0.6-0.2,0.9-0.8,1.1c-1.9,0.8-3.8,1.6-5.9,2.5
			c0-1.3,0-2.5,0-3.6c0-1.6-0.8-2.1-2.2-1.4c-0.4,0.2-0.8,0.4-1.3,0.6c-1.1,0.5-1.6,1.4-1.5,2.7c0,0.2,0,0.3,0,0.5
			c0.5,2.5-0.4,4-2.9,4.6C769.7-174.3,767.9-173.4,766-172.6z"/>
		<path class="st2" d="M794.3-213.7c-0.4,1.2-0.8,2.4-1.2,3.5c-1.1,3-2.2,6-3.3,9c-0.2,0.6-0.3,1.1-1.2,0.5c-4.5-3-9-6-13.6-9
			c-0.5-0.4-0.7-0.6-0.2-1.3c2.3-3.3,4.4-6.7,6.7-10.1c0.4-0.5,0.6-0.8,1.3-0.3c3.5,2.4,7.1,4.7,10.7,7.1
			C793.7-214.2,794-213.9,794.3-213.7z"/>
		<path class="st3" d="M764.8-235.2c2.2,1.6,4.4,3.2,6.6,4.8c1,0.7,2,1.5,3,2.2c0.5,0.3,0.6,0.6,0.6,1.1c0,3.5,0,7.1,0,10.6
			c0,1.2-0.9,1.9-1.4,2.9s-1.2,1.8-1.8,2.7s-0.3,1.5,0.4,2.1c0.2,0.2,0.4,0.3,0.7,0.5c1.8,1.2,1.8,1.2,1.6,3.4
			c-0.9-0.2-1.6-0.7-2.2-1.2c-1.4-0.9-2.8-1.3-4.4-1.3c-0.8,0-1.6-0.3-2.4-0.3c-0.8,0-0.8-0.6-0.8-1.3c0-4.6,0-9.2,0-13.8
			c0-3.8,0-7.6,0-11.3C764.6-234.4,764.4-234.8,764.8-235.2z"/>
		<path class="st2" d="M756.3-236.3c-2.8,1.2-5.6,2.4-8.3,3.6c-1.5,0.6-2.9,1.3-4.4,1.9c-1.3,0.5-2.3,1.3-2.6,2.8
			c-0.5,2.3-1.3,4.5-2,6.9c-0.8-2-1.5-3.9-2.3-5.8c-1-2.6-1.9-5.2-3-7.7c-0.3-0.7-0.3-1,0.5-1.4c4.5-2.3,9-4.6,13.4-6.9
			c0.5-0.3,0.8-0.4,1.3,0.1c1.6,1.5,3.3,3,4.9,4.5C754.6-237.7,755.4-236.9,756.3-236.3z"/>
		<path class="st3" d="M796.1-211.7c2.3,2.9,4.5,5.7,6.7,8.5c0.4,0.5,0.5,1,0.5,1.6c0,3.2-0.1,6.4,0,9.6c0,1.1-0.2,1.8-1.4,2
			c-0.4,0.1-0.7,0.3-1.2,0.6c0-1.2,0-2.3,0-3.3c0-0.8,0-1.6-0.8-2.1s-1.3,0.2-2,0.4c-1.7,0.7-2.5,1.9-2.2,3.8c0,0.3,0,0.6,0,0.9
			c0,2.8,0,2.8-2.8,3.7c0-0.3-0.1-0.7-0.1-1c0-4.3,0-8.6,0-12.9c0-1.9,0.2-3.8,1-5.6C794.6-207.4,795.3-209.5,796.1-211.7z"/>
		<path class="st3" d="M745.4-191.1c-1.7-1-3.2-1.9-4.8-2.8c-0.4-0.2-0.5-0.5-0.5-0.9c0-7.1,0-14.3,0-21.4c0-0.9,0.5-1.9,0.7-2.8
			c0.6-2,1.3-3.9,1.9-6c0.5,0.5,0.6,1.2,0.8,1.8c0.6,1.6,1.1,3.2,1.6,4.8c0.2,0.6,0.3,1.1,0.3,1.7c0,6.5,0,12.9,0,19.4
			c0,0.8-0.2,1.3-0.8,1.8c-0.8,0.6-0.9,1.8-0.1,2.3C745.4-192.7,745.5-192.1,745.4-191.1z"/>
		<path class="st3" d="M748.1-198.6c0-3.8,0-7.5,0-11.2c0.9,0.7,1.6,0.4,2.5-0.1c2.8-1.6,5.7-3.1,8.6-4.5c1-0.5,1.8-1.2,3-1.5
			c0,2.5,0,4.9,0,7.3c0,0.7-0.5,0.7-0.9,0.6c-1.4-0.6-2.4,0.1-3.4,0.9c-2.6,2.2-5.2,4.5-7.8,6.8
			C749.5-199.8,748.9-199.3,748.1-198.6z"/>
		<path class="st2" d="M774.9-231c-1.6-0.7-2.7-1.9-4.1-2.8c-2-1.3-3.8-2.9-5.8-4.2c-1-0.7-0.9-1.2-0.2-1.9c1.2-1.2,2.3-2.4,3.5-3.7
			c1.9-2.1,3.9-4.1,5.8-6.3c0.1-0.2,0.3-0.5,0.6-0.4s0.3,0.4,0.3,0.7c0,2.8,0,5.6,0,8.4C774.9-237.8,774.9-234.4,774.9-231z"/>
		<path class="st2" d="M777.4-230.8c0-6.7,0-13.1,0-19.8c0.9,1.3,2.1,2.3,3.2,3.5c1.7,2,3.4,4,5.3,5.8c0.8,0.7,0.8,1.2,0,1.9
			C783-236.8,780.6-233.7,777.4-230.8z"/>
		<path class="st3" d="M763.6-172.9c-3.1-2.3-5.8-4.5-8.8-6.4c-2.1-1.3-2.6-2.8-2.3-5c0.1-1.2,0-2.4,0-3.9c2.4,1.5,4.5,2.9,6.6,4.3
			c1,0.7,2,1.7,3.2,1.9c1.8,0.3,1.3,1.4,1.3,2.4C763.6-177.3,763.6-175.3,763.6-172.9z"/>
		<path class="st3" d="M777.3-219.8c0-2.3,0-4.5,0-6.8c0-0.3,0.1-0.5,0.3-0.7c2.4-2.2,4.8-4.4,7-6.3c0,3,0,6.7,0,10.4
			c-0.8-0.1-1.2-0.7-1.9-1.1c-1.3-0.6-1.6-0.6-2.4,0.6c-0.9,1.4-1.8,2.7-2.7,4.1C777.5-219.8,777.4-219.8,777.3-219.8z"/>
		<path class="st3" d="M790.5-186c-2.1-0.8-2.1-0.8-2.1-2.8c0-1.1,0-2.2,0-3.3c0-0.7-0.2-1.5,0.9-1.9c0.8-0.3,0.7-1.4-0.3-2
			c-2-1.3-4.1-2.5-6.1-3.7c-1.8-1.1-3.6-2.1-5.4-3.2c-0.6-0.3-1-1.7-0.6-2.3c0.3-0.5,0.7,0,0.9,0.1c1.7,1.1,3.4,2.3,5,3.4
			c1.9,1.3,3.9,2.5,5.9,3.8c0.2,0.1,0.4,0.3,0.6,0.3c1.6-0.3,1.2,0.8,1.2,1.6C790.5-192.7,790.5-189.4,790.5-186z"/>
		<path class="st2" d="M764.4-205.2c3.1,0.2,5.8,0.6,8.2,2.2c2.9,2,6.1,3.6,9.1,5.4c0.4,0.2,0.8,0.5,1.4,0.9c-2.7-0.3-5.1-0.6-7.5-1
			c-1.3-0.2-2.2-1.3-3.3-2C769.7-201.4,767.2-203.2,764.4-205.2z"/>
		<path class="st2" d="M899.2-215.9c-0.1,0.2-0.2,0.4-0.3,0.6c-3.4,5-6.8,9.9-10.1,14.9c-0.5,0.8-0.8,0.8-1.6,0.2
			c-2.4-1.9-4.7-4-7.3-5.6c-0.5-0.3-1-2.7-0.7-3.3c2.5-4.7,5-9.5,7.4-14.2c0.3-0.5,0.5-0.5,1-0.2c2.6,1.7,5.1,3.4,7.7,5.1
			c1.1,0.7,2.3,1.5,3.4,2.2C898.9-216.1,899.1-216,899.2-215.9z"/>
		<path class="st2" d="M881.3-189.4c0.3,0.6,0,0.6-0.2,0.7c-3.3,1.6-6.5,3.3-9.8,4.9c-0.6,0.3-0.7-0.2-0.8-0.5
			c-0.9-2.8-1.7-5.6-2.6-8.3c-0.8-2.8-1.6-5.7-2.5-8.5c-0.2-0.6,0-0.8,0.4-1c3.4-1.5,6.8-3,10.2-4.6c0.7-0.3,0.9-0.2,1,0.5
			c0.8,3.1,1.6,6.2,2.3,9.2c0.6,2.3,1.1,4.6,1.8,6.9C881.3-189.8,881.3-189.5,881.3-189.4z"/>
		<path class="st3" d="M863.5-198.2c0.9,3.2,2.6,6.1,2.5,9.6c-0.1,7.4,0,14.7,0,22.1c0,0.3,0.2,0.8-0.1,1s-0.7-0.2-1-0.4
			c-1.2-0.7-2.4-1.4-3.6-2.1c-0.5-0.3-0.6-0.6-0.6-1.1c0-6.8,0-13.5,0-20.3c0-1,0.5-1.8,0.7-2.7C862-194.2,862.8-196.2,863.5-198.2z
			"/>
		<path class="st3" d="M900-212.6c0,5.4,0,10.4,0,15.4c0,3.8-0.3,7.6,0.2,11.4c0.1,0.6-0.1,1-0.7,1.3c-1.8,1.2-3.5,2.4-5.4,3.7
			c-0.1-1.7-0.3-3.2-0.3-4.7c0-5.3,0-10.6,0-15.9c0-1.6,0.3-2.9,1.2-4.1C896.7-207.8,898.2-210.1,900-212.6z"/>
		<path class="st3" d="M891.4-200.1c0,6.6,0,12.9,0,19.5c-3.2-2-6.2-3.9-9.3-5.8c0.3-0.2,0.6-0.3,0.8-0.4c1-0.5,1.4-1.1,1.1-2.3
			c-1.2-4.2-2.2-8.4-3.3-12.6c0-0.1,0-0.3,0-0.6c2.3,1.8,4.6,3.6,6.8,5.3c0.8,0.7,1.5,0.5,2.1-0.3
			C890.2-198.2,890.7-199,891.4-200.1z"/>
		<path class="st3" d="M868.6-181.7c0.7,1.2,1.3,1.4,2.4,0.9c1.8-0.9,3.6-1.8,5.4-2.7c0.3-0.2,0.7-0.4,1.1-0.4c0,3.9,0,7.8,0,11.7
			c0,0.4-0.1,0.7-0.5,1c-2.6,1.8-5.3,3.6-7.9,5.4c-0.4,0.3-0.6,0.2-0.6-0.3c0-0.1,0-0.2,0-0.4C868.6-171.5,868.6-176.5,868.6-181.7z
			"/>
		<path class="st3" d="M858.2-169.9c-1.4-0.3-1.8-1.1-1.7-2.4c0.1-1.7,0-3.4,0-5.1c0-0.7-0.2-1.2-1-1.6c-1-0.4-1.8-1-2.8-1.5
			c-1.4-0.6-2.2-0.1-2.2,1.4s0,3.1,0,4.6c-0.9-0.1-1.2-0.5-1.2-1.3c0-3.9,0-7.8,0-11.7c0-0.7,0.2-1.3,0.7-1.8c0.9-1,1.6-2.1,2.5-3.1
			c0.3-0.4,0.6-0.8,0.9,0.1c0.7,2.2,1.5,4.4,2.3,6.6c0.3,0.9,0.7,1.9,2,1.7c0.6-0.1,0.3,0.4,0.3,0.6
			C858.2-178.9,858.2-174.4,858.2-169.9z"/>
		<path class="st2" d="M860.7-197.5c-1.1,3.1-2.1,6-3.2,9.1c-0.7-2-1.4-3.8-2-5.6c-0.1-0.3-0.3-0.7,0.2-0.9
			C857.3-195.8,858.9-196.6,860.7-197.5z"/>
		<path class="st2" d="M853-177.4c0.9,0.1,1.3,0.6,1.2,1.5c-0.1,1.2,0,2.4,0,3.7c-0.8-0.1-1.2-0.5-1.2-1.4
			C853.1-174.9,853-176.1,853-177.4z"/>
		<path class="st2" d="M859.1-310.4c-3.6-2.4-7.1-4.7-10.6-7.1c-0.5-0.3-0.8-0.6-0.5-1.3c2.3-4.7,4.6-9.3,6.8-14
			c0.4-0.8,0.6-0.7,1.2-0.3c3.1,1.9,6.3,3.7,9.4,5.5c0.7,0.4,0.8,0.8,0.4,1.5c-2.3,5-4.5,10.1-6.8,15.1
			C859.2-310.8,859.2-310.6,859.1-310.4z"/>
		<path class="st2" d="M857.5-297.9c-3.6,1.5-7.2,3.1-10.8,4.6c-0.6,0.3-0.7,0-0.8-0.5c-2-5.1-4-10.1-6.1-15.2
			c-0.2-0.5-0.1-0.6,0.4-0.8c2.9-1.1,5.8-2.3,8.7-3.5c0.4-0.2,0.6,0,0.8,0.3c1.1,2,2.1,4,3.2,6C854.4-303.9,856-300.9,857.5-297.9z"
			/>
		<path class="st3" d="M835.1-280c-0.9,0-1.2-0.4-1.2-1.2c0-5.9,0-11.7,0-17.6c0-0.4,0.1-0.8,0.3-1.2c1.1-2.1,2.2-4.1,3.3-6.2
			c0.1-0.2,0.3-0.3,0.5-0.6c1,2.5,2,5,2.9,7.4c0.3,0.7,0.5,1.3,0.8,1.9c0.8,1.8,1.2,3.6,1.1,5.5c-0.2,4.6,0.4,9.2,0.2,13.8
			c0,0.4,0.4,1.1-0.3,1.1c-0.7-0.1-1.8,0-1.8-1.2c0-1.7,0-3.4,0-5.1c0-1.1-0.3-1.8-1.5-2c-0.9-0.2-1.8-0.6-2.7-0.8
			c-1.2-0.3-1.8,0.1-1.8,1.4C835.1-283.2,835.1-281.6,835.1-280z"/>
		<path class="st3" d="M867.7-324c0.7,2.2,1.7,4,1.6,6.1c0,5.2,0,10.4,0,15.6c0,0.9-0.3,1.4-1.1,1.9c-2.2,1.2-4.3,2.5-6.5,3.8
			c-0.3-0.5-0.2-0.9-0.2-1.3c0-3.9-0.1-7.8-0.1-11.7c0-0.9,0.6-1.7,1-2.5C864.1-316,865.9-319.8,867.7-324z"/>
		<path class="st3" d="M855.2-294.1c0,3.4,0,6.8,0,10.1c0,0.3-0.1,0.5-0.3,0.7c-3,1.9-6,3.9-9,5.8c-0.1,0-0.1,0-0.3,0
			c0-4.1,0-8.1,0-12.1c0-0.3,0-0.5,0.4-0.7c3-1.2,5.9-2.5,8.9-3.8C854.9-294.1,855-294.1,855.2-294.1z"/>
		<path class="st3" d="M853.7-311.1c1.6,1.1,3.2,2.2,4.9,3.3c0.4,0.3,0.4,0.7,0.4,1.1c0,1.9,0,3.9-0.2,5.9c-1.8-3.3-3.5-6.7-5.3-10
			C853.6-310.9,853.6-311,853.7-311.1z"/>
		<path class="st2" d="M838.7-278.6c-0.9-0.2-1.3-0.6-1.2-1.5c0.1-0.8,0-1.6,0-2.5c0-0.3-0.3-0.9,0.4-0.8c0.4,0,0.9,0.1,0.8,0.8
			C838.6-281.2,838.7-279.9,838.7-278.6z"/>
		<path class="st2" d="M903.8-259.6c0,0.3-0.3,0.5-0.6,0.7c-3.9,2.6-7.7,5.2-11.6,7.8c-0.6,0.4-0.8,0.5-1.1-0.4
			c-1.7-4.7-3.5-9.4-5.4-14.1c-0.2-0.5-0.2-0.6,0.3-0.9c4.1-2.7,8.3-5.5,12.4-8.3c0.8-0.5,0.8-0.1,1,0.4c1.5,4.3,2.9,8.6,4.4,12.9
			C903.3-260.8,903.5-260.2,903.8-259.6z"/>
		<path class="st2" d="M910.1-245.5c-0.1,0.2-0.1,0.3-0.2,0.5c-1.3,2.7-2.6,5.4-3.8,8.1c-0.2,0.5-0.4,0.8-1.1,0.4
			c-3.3-1.6-6.7-3.1-10-4.7c-0.4-0.2-0.6-0.4-0.3-0.9c1.4-2.5,2.8-5,4.2-7.6c0.3-0.6,0.7-0.6,1.2-0.4c3.1,1.3,6.3,2.7,9.4,4
			C909.6-245.9,910-245.8,910.1-245.5z"/>
		<path class="st3" d="M887.5-234.8c-1.7-0.9-3.1-1.8-4.6-2.6c-0.4-0.2-0.3-0.6-0.3-0.9c0-7.6,0-15.2,0-22.8c0-0.8,0.2-1.5,0.8-2.1
			c1.3,3.3,2.6,6.6,3.8,9.9c0.2,0.4,0.3,0.9,0.3,1.4C887.5-246.3,887.5-240.6,887.5-234.8z"/>
		<path class="st3" d="M911.8-243.2c2.3,3.6,1.2,7.6,1.4,11.4c0,0.6-0.3,0.8-0.7,1.1c-1.5,0.8-2.9,1.6-4.4,2.4
			c-0.5,0.3-0.5,0-0.5-0.4c0.1-2.9-0.5-5.9,1.3-8.7c1.1-1.6,1.7-3.6,2.5-5.4C911.5-242.9,911.5-243.1,911.8-243.2z"/>
		<path class="st3" d="M905.2-228.1c-2.1-1.1-4.2-2.1-6.1-3.2c-1.1-0.6-2.2-1.2-3.3-1.7c-0.5-0.3-0.8-0.5-0.7-1.1c0-1.1,0-2.2,0-3.3
			c0-0.7,0.2-0.8,0.8-0.5c2,1,4,1.9,6,2.8c0.2,0.1,0.5,0.3,0.7,0.3c2.4,0.5,3,2.1,2.6,4.3C905.1-229.9,905.2-229.1,905.2-228.1z"/>
		<path class="st3" d="M897.3-251.9c-1.9,3.5-3.6,6.8-5.4,10c-0.5,0.9-0.6,1.6,0.5,2.1c0.3,0.2,0.3,0.4,0.3,0.7s0,0.6,0,0.8
			c0,2.3-0.2,2.6-2.6,3.4c0-4,0-8,0-12c0-0.2,0-0.5,0.3-0.6C892.7-248.6,894.7-250.5,897.3-251.9z"/>
		<path class="st4" d="M709.8-370.1c0.2,4.5-0.4,8.8-0.2,13.2c0,1,0.5,2.4-0.2,3c-0.6,0.5-1.9,0.2-3,0.2c-2.5,0-5,0-7.6,0
			c-0.8,0-1-0.2-1-1c0-3.9,0-7.7,0-11.6c0-0.6,0.1-0.9,0.8-0.9c3.3-0.2,6.4-1.2,9.5-2.3C708.7-369.7,709.2-369.9,709.8-370.1z"/>
		<path class="st0" d="M684.6-369.8c0.9,0,1.6,0.6,2.4,0.9c2.5,0.9,5.1,1.6,7.8,1.9c0.5,0,0.6,0.3,0.6,0.7c0,4.1,0,8.1,0,12.2
			c0,0.6-0.3,0.6-0.7,0.6c-3.1,0-6.1,0-9.2,0c-0.4,0-0.7-0.1-0.7-0.6C684.9-359.4,684.3-364.6,684.6-369.8z"/>
		<path class="st0" d="M698-331.9c0-2.3,0-4.4,0-6.4c0-4,0-8,0-11.9c0-0.7,0.1-1.1,0.9-1.1c3.4,0,6.8,0,10.1,0
			C708.9-347,702.6-335.8,698-331.9z"/>
		<path class="st4" d="M695.4-332.5c-2.4-2.5-4.2-5-5.6-7.7c-1.8-3.3-3.3-6.7-4.4-10.3c-0.2-0.7-0.1-0.8,0.6-0.8c2.9,0,5.8,0,8.7,0
			c0.4,0,0.7,0,0.7,0.6C695.4-344.7,695.4-338.7,695.4-332.5z"/>
		<path class="st2" d="M813-177.7c5.2-2.2,10.4-4.3,15.6-6.5c0.4-0.2,0.6-0.1,0.9,0.2c3.1,3.5,6.4,6.8,9.6,10.1
			c0.7,0.7,0.4,0.8-0.3,1.1c-5.2,2.5-10.4,5.1-15.5,7.7c-0.4,0.2-0.7,0.3-1.1-0.1C819.2-169.4,816.1-173.5,813-177.7z"/>
		<path class="st3" d="M821.2-157.2c-1.7-0.6-3.2-1.2-4.7-1.8c-0.8-0.3-1.1-0.7-1-1.6c0.1-1.4,0-2.8,0-4.1c0-0.9-0.3-1.5-1.1-1.9
			s-1.7-0.9-2.5-1.3c-1.6-0.8-2.5-0.3-2.5,1.5c0,1.5,0,2.9,0,4.5c-1.2-0.4-2.3-0.9-3.4-1.3c-0.5-0.2-0.6-0.5-0.6-1
			c0-2.8,0-5.5,0-8.3c0-0.4,0.1-0.8,0.4-1c1.5-1,3-1.9,4.5-2.9c0.3-0.2,0.5-0.2,0.7,0.1c2.2,2.9,4.4,5.8,6.6,8.8
			c0.9,1.2,1.9,2.5,2.8,3.7c0.5,0.6,0.8,1.2,0.7,2C821.1-160.2,821.2-158.8,821.2-157.2z"/>
		<path class="st3" d="M837.9-167.3c0.4,1.2-0.4,1.8-1.6,2.5c-4,2.1-7.9,4.4-11.8,6.6c-0.3,0.1-0.5,0.5-0.8,0.3s-0.1-0.6-0.1-0.9
			c-0.6-2.7,0.5-4.2,3.1-5.2c3.5-1.4,6.7-3.2,10.1-4.9c1.2-0.6,1.2-0.6,1.2,0.8C837.9-168,837.9-167.8,837.9-167.3z"/>
		<path class="st5" d="M812-164.8c0.8,0,1.1,0.4,1,1.1c-0.1,0.8,0,1.6,0,2.5c0,0.3,0.1,0.7-0.4,0.7c-0.4,0-0.5-0.3-0.5-0.7
			C812-162.4,812-163.6,812-164.8z"/>
		<path class="st0" d="M821-233.5c0-0.9,0-1.9,0-2.8c0-0.7,0.2-1.2,1-1.2c0.7-0.1,1.3,0.3,1.4,1c0.1,2.2,0.1,4.3,0,6.5
			c0,0.7-0.7,1-1.3,1s-1-0.5-1.1-1.2C820.9-231.4,821-232.4,821-233.5z"/>
		<path class="st0" d="M816.7-236c0-1,0-2,0-2.9c0-0.7,0.3-1.1,1-1.2c0.8,0,1.3,0.3,1.4,1.1c0.1,2,0,4,0,6c0,0.9-0.6,1.3-1.3,1.3
			c-0.6,0-1-0.6-1-1.3C816.7-234.1,816.7-235.1,816.7-236z"/>
		<path class="st0" d="M802.1-256.2c0-0.9,0-1.9,0-2.8c0-0.7,0.1-1.4,1-1.4c0.9-0.1,1.3,0.6,1.3,1.2c0.1,2.1,0.1,4.2,0,6.3
			c0,0.6-0.5,1.1-1.2,1s-1.1-0.4-1.1-1.3C802.1-254.2,802.1-255.2,802.1-256.2z"/>
		<path class="st0" d="M801.8-245.8c0-1,0-2,0-2.9c0-0.8,0.5-1.2,1.1-1.3s1.1,0.4,1.2,0.9c0.2,2.2,0.2,4.4,0,6.6
			c0,0.6-0.6,1.1-1.4,0.9c-0.7-0.1-0.9-0.6-0.9-1.3C801.9-243.8,801.8-244.8,801.8-245.8z"/>
		<path class="st0" d="M738.1-263c0-0.6,0-1.2,0-1.8c0-0.7,0.3-1.2,0.9-1.3c0.7-0.1,1.3,0.4,1.4,1c0.1,1.4,0.1,2.9,0,4.3
			c0,0.6-0.7,1-1.2,0.9c-0.6-0.1-1-0.5-1.1-1.2C738.1-261.7,738.1-262.4,738.1-263z"/>
		<path class="st0" d="M734.8-265c0,0.6,0,1.3,0,1.9c0,0.7-0.4,1.1-1,1.2c-0.7,0.1-1.1-0.3-1.2-1c-0.2-1.4-0.1-2.9-0.1-4.4
			c0-0.7,0.7-0.9,1.2-0.9s1.1,0.3,1.1,1C734.8-266.4,734.8-265.7,734.8-265z"/>
		<path class="st0" d="M787.2-283.9c0,0.6,0,1.3,0,1.9s-0.2,1.1-0.9,1.2s-1.3-0.2-1.4-0.9c-0.1-1.4-0.1-2.8,0-4.2
			c0-0.7,0.5-1.1,1.3-1c0.7,0.1,1,0.5,1,1.2C787.2-285.1,787.2-284.5,787.2-283.9z"/>
		<path class="st0" d="M813.4-254.8c0,0.8,0,1.6,0,2.5c0,0.8-0.3,1.4-1.1,1.5c-0.8,0.2-1.2-0.4-1.3-1.1c-0.3-2-0.2-4.1-0.1-6.1
			c0-0.6,0.5-1.4,1.3-1.2c0.8,0.1,1.2,0.8,1.2,1.6C813.4-256.7,813.4-255.8,813.4-254.8z"/>
		<path class="st0" d="M840.5-220.4c0,1,0,2,0,2.9c0,0.6-0.2,1.1-0.9,1.1c-0.6,0.1-1.1-0.1-1.3-0.8s-0.1-1.3-0.1-2
			c0-1.4,0-2.7,0-4.1c0-0.8,0.4-1.5,1.3-1.5c0.8,0,1.1,0.7,1.1,1.5C840.5-222.3,840.5-221.3,840.5-220.4z"/>
		<path class="st0" d="M858.7-217.8c0,0.5,0,1,0,1.5c0,0.8-0.2,1.5-1,2s-1.5,1.1-2.3,1.7c-1.1,0.8-2.1,0.4-2.1-1
			c-0.1-1.4-0.1-2.8,0-4.1c0-1.1,1.2-1.4,1.8-2.1c0.4-0.5,0.9-0.8,1.4-1.2c1-0.7,2.1-0.3,2.2,1C858.8-219.3,858.7-218.6,858.7-217.8
			L858.7-217.8z"/>
		<path class="st0" d="M852.1-213.3c1,3.1-1.6,4.1-3.4,5.4c-0.6,0.4-1.5,0.3-1.8-0.7c-0.4-1.6-0.4-3.2-0.1-4.8
			c0.2-1.2,1.6-1.5,2.3-2.4c0.2-0.2,0.5-0.3,0.6-0.5c0.4-0.5,1-0.7,1.6-0.4s0.7,0.8,0.7,1.5C852.1-214.6,852.1-213.9,852.1-213.3z"
			/>
		<path class="st0" d="M731.3-215.3c0,0.8,0,1.6,0,2.4c0,0.9-0.4,1.5-1.2,1.6c-0.9,0.1-1.3-0.7-1.3-1.4c-0.1-1.8-0.1-3.6,0-5.4
			c0-0.6,0.4-1.3,1.3-1.2c0.8,0.1,1.1,0.7,1.2,1.4C731.3-217.1,731.3-216.2,731.3-215.3L731.3-215.3z"/>
		<path class="st0" d="M733.2-213.1c0-0.7,0-1.5,0-2.2s0.5-1.3,1.2-1.4c0.7-0.1,1.1,0.4,1.2,1.1c0.3,1.7,0.2,3.4,0.1,5
			c0,0.7-0.6,1.1-1.3,1.1c-0.7-0.1-1.1-0.6-1.2-1.3C733.1-211.5,733.2-212.3,733.2-213.1L733.2-213.1z"/>
		<path class="st0" d="M772.6-184.8c0,0.6,0,1.2,0,1.8c0,0.8-0.6,1.1-1.2,1.2c-0.6,0.1-1.1-0.2-1.2-1c-0.3-1.4-0.4-2.8,0-4.3
			c0.2-0.6,0.5-1.1,1.2-1s1.1,0.6,1.2,1.3C772.6-186.2,772.6-185.5,772.6-184.8L772.6-184.8z"/>
		<path class="st0" d="M782.5-189c0,0.5,0,1,0,1.5c0,0.8-0.4,1.4-1.2,1.4c-0.9,0-1.1-0.6-1.1-1.4c0-1.1,0-2.3,0-3.4
			c0-0.9,0.5-1.3,1.3-1.3c0.7,0,1,0.6,1.1,1.3C782.5-190.3,782.5-189.7,782.5-189L782.5-189z"/>
		<path class="st0" d="M770.9-221c0,0.9,0,1.9,0,2.8c0.1,1-0.6,1.3-1.3,1.3c-0.6,0-1.1-0.5-1.1-1.3c0-2,0-3.9,0-5.9
			c0-0.7,0.3-1.2,1.1-1.2c0.9-0.1,1.2,0.5,1.3,1.2C771-223.1,770.9-222.1,770.9-221L770.9-221z"/>
		<path class="st0" d="M798.5-200.8c0,0.6,0,1.1,0,1.7c0,0.8-0.5,1.3-1.2,1.3s-1.1-0.5-1.1-1.2c0-1.3,0-2.5,0-3.8
			c0-0.7,0.4-1,1.1-1.1c0.8-0.1,1.2,0.4,1.3,1.1C798.6-202.3,798.5-201.5,798.5-200.8L798.5-200.8z"/>
		<path class="st0" d="M741.7-208.2c0-0.7,0-1.4,0-2.1c-0.1-0.9,0.5-1.3,1.1-1.4c0.6-0.1,1.1,0.5,1.2,1.1c0.1,1.6,0.1,3.3,0,4.9
			c0,0.6-0.5,1.1-1.3,1s-1-0.6-1-1.3S741.7-207.5,741.7-208.2z"/>
		<path class="st0" d="M898.6-198.7c0,0.9,0,1.8,0,2.7s-0.4,1.4-1.3,1.5c-0.9,0.1-1.2-0.6-1.2-1.2c-0.1-2-0.1-4,0-6
			c0-0.6,0.5-1.2,1.3-1.2c0.9,0,1.1,0.7,1.2,1.3C898.6-200.5,898.6-199.6,898.6-198.7L898.6-198.7z"/>
		<path class="st0" d="M872.4-176.3c0-0.7-0.1-1.3,0-2c0.1-0.6,0.3-1.2,1.1-1.1c0.7,0,1.2,0.4,1.2,1.1c0,1.4,0,2.7,0,4.1
			c0,0.8-0.7,1-1.2,1s-1.1-0.3-1.1-1S872.4-175.6,872.4-176.3z"/>
		<path class="st0" d="M864.8-309.7c0-1,0-2,0-2.9c0-0.7,0.2-1.3,1-1.3c0.9,0,1.3,0.5,1.3,1.3c0,2,0,3.9,0,5.9
			c0,0.9-0.6,1.2-1.3,1.2c-0.6,0-1.1-0.5-1.1-1.3C864.8-307.7,864.8-308.7,864.8-309.7z"/>
		<path class="st0" d="M849.5-284.9c0,0.7,0.1,1.3,0,2s-0.4,1.4-1.3,1.4c-0.9,0-1.2-0.7-1.3-1.4c-0.1-1.4-0.1-2.7,0-4.1
			c0-0.8,0.4-1.5,1.3-1.5c0.9,0,1.2,0.8,1.3,1.5C849.6-286.4,849.5-285.6,849.5-284.9L849.5-284.9z"/>
		<path class="st0" d="M853.5-286.7c0,0.7,0,1.3,0,2c0,0.8-0.6,1.3-1.3,1.4c-0.8,0.1-1.1-0.5-1.2-1.2c-0.2-1.6-0.2-3.1,0-4.7
			c0-0.6,0.4-1.2,1.2-1.2c0.9,0,1.2,0.6,1.2,1.3C853.6-288.3,853.5-287.5,853.5-286.7L853.5-286.7z"/>
		<path class="st0" d="M883.7-247.2c0-1,0-2,0-2.9c0-0.8,0.5-1.2,1.1-1.3c0.7-0.1,1.2,0.5,1.2,1.1c0.1,2.2,0.1,4.3,0,6.5
			c0,0.6-0.6,0.8-1.2,0.8c-0.8,0-1.1-0.5-1.1-1.1C883.7-245.1,883.7-246.1,883.7-247.2L883.7-247.2z"/>
		<path class="st2" d="M855.7-216c-0.1-0.7-0.2-1.3,0.7-1.7C856.2-217,856.7-216.4,855.7-216z"/>
		<path class="st2" d="M849.1-211.4c-0.1-0.7-0.1-1.2,0.6-1.5C849.7-212.3,850.1-211.6,849.1-211.4z"/>
	</g>
	<path id="path6009-6-6" class="st6" d="M883.5-266.7l15.7-10.5l6.2,18.2l-15.1,10.2L883.5-266.7z"/>
	<path id="path6011-5-8" class="st6" d="M810.9-178.1l18.3-7.7l12.5,13l-19.5,9.6L810.9-178.1z"/>
	<path id="path6013-6-5" class="st6" d="M811-178.3l-11.2,7.3"/>
	<path id="path6015-6-2" class="st6" d="M886.8-225.8l13.9,9.2l3.6,15.4"/>
	<path id="path6017-6-0" class="st6" d="M888.5-197.8l12.2-18"/>
	<path id="path6019-6-6" class="st6" d="M886.6-225.7l-8.7,16.5"/>
	<path id="path6021-0-5" class="st6" d="M883-188.2l-5.3-20.7l-14,6.4l6.2,20.8L883-188.2z"/>
	<path id="path6023-0-5" class="st6" d="M878.9-185.6v14.6l-11.5,7.8l-0.1-27.2"/>
	<path id="path6025-1-0" class="st6" d="M863.6-202l-6,16.9"/>
	<path id="path6027-2-3" class="st6" d="M859.4-189.7v22.1l7.7,4.4"/>
	<path id="path6029-1-7" class="st6" d="M861.5-199.4l-7.7,3.9l3.6,10.2"/>
	<path id="path6031-3-8" class="st6" d="M853.4-195.2l-7.3,9.1"/>
	<path id="path6033-0-7" class="st6" d="M848.2-188.7v14.6l10.5,6.1"/>
	<path id="path6035-9-0" class="st6" d="M901.2-213.7l0.3,29.4l-8.6,6l-0.2-25"/>
	<path id="path6037-9-5" class="st6" d="M888.6-197.8l-8.9-7"/>
	<path id="path6039-1-0" class="st6" d="M892.7-178.3l-11.5-7.2"/>
	<path id="path6041-5-7" class="st6" d="M822.2-162.7v7l16.9-9.4v-5.6"/>
	<path id="path6043-9-3" class="st6" d="M804-173.4v11l17.9,7"/>
	<path id="path6045-4-8" class="st6" d="M832.2-220.4l8.7-20.6l12.8-9.1l10.4,17.7l-17.8,13.5l-5.3-21.8"/>
	<path id="path6047-4-9" class="st6" d="M829.1-243.8l17-11l3.3,6.7"/>
	<path id="path6049-1-3" class="st6" d="M828.8-243.7l5.1,18.7"/>
	<path id="path6051-9-0" class="st6" d="M842.1-254.2l-4.3-14.4l-19.2,11.7l7.2,16.7l2.1,4.7"/>
	<path id="path6053-7-3" class="st6" d="M818.6-257l-7.5,16.7"/>
	<path id="path6055-6-3" class="st6" d="M813.4-245l0.2,23.8l31.1,18.7l-0.1-23.6"/>
	<path id="path6057-8-5" class="st6" d="M844.8-202.5l16.3-11.2v-15.5"/>
	<path id="path6059-5-8" class="st6" d="M827.9-236v23.2"/>
	<path id="path6061-1-1" class="st6" d="M834.4-224.5l0.1,15"/>
	<path id="path6063-4-7" class="st6" d="M808.1-261.1l9.2-6.3l-9.8-16.5l-9.8,15.9L808.1-261.1z"/>
	<path id="path6065-4-0" class="st6" d="M807.4-283.6l0.9,22.2"/>
	<path id="path6067-3-7" class="st6" d="M798.7-266.5v40.3l8.9,6l0.3-41"/>
	<path id="path6069-0-9" class="st6" d="M816-266v15.1"/>
	<path id="path6071-0-7" class="st7" d="M807.7-220.4l5.2-2.6"/>
	<path id="path6073-5-0" class="st6" d="M883.2-266.5l-5.6,13.7"/>
	<path id="path6075-5-8" class="st6" d="M881.3-261.7v24.7l7.6,4.4v-3.6"/>
	<path id="path6077-4-8" class="st6" d="M898.5-252.1l13.6,5.8l3.4,8.4"/>
	<path id="path6079-9-8" class="st6" d="M906.5-234.8l5.3-11.4"/>
	<path id="path6081-5-8" class="st6" d="M898.8-252l-6,11l13.7,6.4"/>
	<path id="path6083-6-2" class="st6" d="M914.7-240l0.1,9.4l-7.8,4.3"/>
	<path id="path6085-8-2" class="st6" d="M903.4-257.1v6.2"/>
	<path id="path6087-8-1" class="st6" d="M775.9-253.9l12.3,13.4l-11.8,12.3l-14.5-10.6L775.9-253.9z"/>
	<path id="path6089-0-0" class="st6" d="M775.8-253.5l0.2,25.3"/>
	<path id="path6091-2-1" class="st6" d="M789.9-198.8l5.6-15.4l9.4,12.2"/>
	<path id="path6093-5-8" class="st6" d="M795.4-214.4l-14-9.3l-9.1,13.7l17.1,11.3"/>
	<path id="path6097-5-4" class="st6" d="M785.7-237.5v16.5"/>
	<path id="path6099-3-9" class="st6" d="M775.9-228.5v12.5"/>
	<path id="path6101-2-7" class="st6" d="M763.1-236.7v29.8"/>
	<path id="path6103-0-4" class="st6" d="M761.4-237.4l-19,8.2l-3.6,11.7l-7.2-18.9l-7.8,13.9"/>
	<path id="path6105-0-3" class="st6" d="M731.6-236.4l16.8-8.7l9.2,8.6"/>
	<path id="path6107-7-6" class="st6" d="M748.9-210.5l13.9-7.5"/>
	<path id="path6109-7-2" class="st6" d="M742.6-228.9l6.3,18.3"/>
	<path id="path6111-4-1" class="st6" d="M725.8-225.4l-0.2,26.7l12.8,7.8l0.1-27"/>
	<path id="path6113-7-9" class="st6" d="M746.4-217.6v28.9"/>
	<path id="path6115-3-8" class="st6" d="M739.1-193.2l7.4,4.4l2.7-1.1"/>
	<path id="path6117-4-9" class="st6" d="M744.9-194.3l17.9,11.6l11.8-13.7L759.5-207L744.9-194.3"/>
	<path id="path6119-6-9" class="st6" d="M759.5-207.1l10.4,1.3l18.5,11l-13.8-1.5"/>
	<path id="path6121-8-2" class="st6" d="M787-193.7v13.5l-22.4,9.4V-184"/>
	<path id="path6123-1-7" class="st6" d="M751.1-190.3v9.9l13.3,9.8"/>
	<path id="path6125-1-2" class="st6" d="M791.6-183.9l12.7-5.8v-13.1"/>
	<path id="path6127-6-2" class="st6" d="M830.5-296.2l7.9-14.4l11.6-4.6l9.2,17.7l-13.8,5.9l-7.4-18.8"/>
	<path id="path6129-9-0" class="st6" d="M832.6-299.7v19.9l11.7,4.5l-0.1-19.8"/>
	<path id="path6131-2-1" class="st6" d="M844.4-275.3l12.1-7.8l0.1-12.8"/>
	<path id="path6133-3-4" class="st6" d="M846.2-317.9l8.6-17.7l13,7.7l5.6,15.6"/>
	<path id="path6135-8-4" class="st6" d="M846.1-317.9l13.4,9l8-18.3"/>
	<path id="path6137-1-7" class="st6" d="M870.6-319.8v19.1l-10.3,6v-15.1"/>
	<path id="path6139-1-4" class="st6" d="M799.7-299.1h2.1v-12l2.2,0.2v-5.8l4.6-0.3v5.5l2.1-0.2v12.5h4.8v-9.1h1.9l0.2-7h4.3v6
		l2.6,0.3v29.5l-9.7,5.9"/>
	<path id="path6141-2-3" class="st6" d="M798.5-287.2l25.8-10.9"/>
	<path id="path6143-6-3" class="st6" d="M798.3-300l0.1,12.1"/>
	<path id="path6145-7-7" class="st6" d="M779.5-315.2l14.6,5.4l5,10.5"/>
	<path id="path6147-0-8" class="st6" d="M794.1-309.1l-3.3,16.9l-5.4-1.9"/>
	<path id="path6151-2-6" class="st6" d="M783.4-294.5L780-284l-13.4-5.1l3.1-10.6"/>
	<path id="path6153-5-5" class="st6" d="M766.8-288.3l0.2,6.6"/>
	<path id="path6155-3-3" class="st6" d="M781.6-289.1v24.6l9.4-5.4v-22.5"/>
	<path id="path6157-8-5" class="st6" d="M791.1-269.9l7.4-2.3V-288"/>
	<path id="path6159-5-2" class="st6" d="M776.1-274.9l-9.2-7l-12.2,5.8l8.6,8.9L776.1-274.9z"/>
	<path id="path6161-9-7" class="st6" d="M762.6-266.9l-8-2.3v-7"/>
	<path id="path6163-2-7" class="st6" d="M773.2-272.4v8.6l7.9-0.3"/>
	<path id="path6165-7-0" class="st6" d="M773.9-264.3l-11,6l-7.2-0.9l-11.1,6.2l-15.7-5.8v-15.8l7.9-19.5l14.4,4l-7,20.1l-15-4.7"/>
	<path id="path6167-5-2" class="st6" d="M751.2-290.2l3.2,13.7"/>
	<path id="path6169-4-7" class="st6" d="M744.3-271.5v18"/>
	<path id="path6171-4-5" class="st6" d="M754.9-268.6v8.9"/>
	<path id="path6173-8-2" class="st6" d="M801.4-298.9c3.1,2.1,6.2,1.1,9.2,0"/>
	<path id="path6175-6-3" class="st6" d="M815.1-299.1c2.9,1.3,5.8,0.9,8.7,0"/>
	<path id="path6685-5-8" class="st8" d="M775.5-207.2v4.2"/>
	<path id="path6687-6-8" class="st8" d="M791.5-202.9v18.7"/>
	<path id="path6689-8-2" class="st8" d="M791.5-183.8l-4-2.3"/>
	<path id="path6691-2-0" class="st8" d="M888.9-252.7v18.3"/>
	<path id="path6693-0-5" class="st9" d="M894.1-240v7.3"/>
	<path id="path6695-5-3" class="st8" d="M889.1-232.8l4.4-2.6"/>
	<path id="path6697-0-2" class="st6" d="M894.1-232.8l12.4,6.5v-8.5"/>
	<path id="path6699-5-4" class="st9" d="M828.6-243.5l-2.3,3.4"/>
	<path id="path6701-1-0" class="st9" d="M762.4-266.2v7.4"/>
	<path id="path6703-7-8" class="st9" d="M769.8-299.9l14.9,5.5"/>
	<path id="path6707-2-2" class="st9" d="M774.8-299.1l4.6-15.8"/>
	<path id="path6709-6-0" class="st8" d="M784.5-294.4l6.3,5.7"/>
	<path id="path6713-5-0" class="st8" d="M860.5-294.6l-3-1.5"/>
	<path id="path6715-3-7" class="st9" d="M742.5-210.6v4.7"/>
	<path id="path6717-5-7" class="st9" d="M729.7-218.3v5.7"/>
	<path id="path6719-0-1" class="st9" d="M734.1-215.6v4.9"/>
	<path id="path6727-3-1" class="st6" d="M775.6-175.5v-5.5l2.4-1.4v5.5"/>
	<path id="path6727-6-4-8" class="st6" d="M796.8-186.9v-5.5l2.4-1.4v5.5"/>
	<path id="path6747-4-6" class="st6" d="M810.6-160.5v-6.5l3.6,1.9v6.2"/>
	<path id="path6747-9-1-4" class="st6" d="M851.9-173.1v-6.5l3.6,1.9v6.8"/>
	<path id="path6747-5-62-7" class="st6" d="M817.8-219v-6.5l3.6,1.9v6.8"/>
	<path id="path6774-57-8" class="st9" d="M817.7-239.2v6.2"/>
	<path id="path6774-8-2-0" class="st9" d="M822-236.6v6.2"/>
	<path id="path6796-8-0" class="st9" d="M830.5-228.3v5.2"/>
	<path id="path6747-5-1-7-5" class="st6" d="M837.8-207.7v-6.5l3.6,1.9v6.8"/>
	<path id="path6774-3-8-3" class="st9" d="M803.1-259.5v6.2"/>
	<path id="path6774-5-7-7" class="st9" d="M812-258.3v6.2"/>
	<path id="path6774-6-9-1" class="st9" d="M802.8-249v6.2"/>
	<path id="path6747-5-6-2-0" class="st6" d="M801.4-225.3v-6.5l3.6,1.9l-0.1,7.4"/>
	<path id="path6870-0-8" class="st6" d="M847.9-208.9l3-2.2v-4.5l-3,2.5l0.1,3.8"/>
	<path id="path6870-8-7-6" class="st6" d="M854.5-213.6l3-2.2v-4.5l-3,2.5v3.8"/>
	<path id="path6774-8-3-5-3" class="st9" d="M839.4-223.6v6.2"/>
	<path id="path6774-8-8-3-2" class="st9" d="M885-250.4v6.2"/>
	<path id="path6774-8-31-8-4" class="st9" d="M897.4-201.7v6.2"/>
	<path id="path6774-8-9-8-9" class="st9" d="M866-313.1v6.2"/>
	<path id="path6747-5-67-5-4" class="st6" d="M836.2-279.6v-5.8l3.6,1.1v6.8"/>
	<path id="path6774-8-9-0-6-0" class="st9" d="M848.2-287.6v4.8"/>
	<path id="path6774-8-9-0-8-5-7" class="st9" d="M852.2-289.4v4.8"/>
	<path id="path6994-8-21-2" class="st9" d="M771.1-186.9v3.9"/>
	<path id="path6994-8-3-8-6" class="st9" d="M781.1-191.1v3.9"/>
	<path id="path6994-8-9-9-4" class="st9" d="M797.2-203v3.9"/>
	<path id="path6994-8-7-4-8" class="st9" d="M873.6-178.2v3.9"/>
	<path id="path6994-8-8-0-5" class="st9" d="M733.4-267.2v3.9"/>
	<path id="path6994-8-2-1-1" class="st9" d="M738.9-265.1v3.9"/>
	<path id="path6727-0-7-7" class="st6" d="M748.2-256.2v-5.5l2.4-1.4v5.5"/>
	<path id="path6994-8-8-1-7-0" class="st9" d="M785.9-286.1v3.9"/>
	<rect id="rect3315-5-7-8-3" x="666.5" y="-384.4" class="st10" width="281.7" height="281.7"/>
	<path id="path6774-6-2-6-2" class="st9" d="M769.5-224.3v6.2"/>
	<path id="path3255-5" class="st6" d="M802.4-310.8c3.1,2.2,5.3,1,7.5,0.2"/>
	<path id="path3255-9-2" class="st6" d="M815.8-308.2c3.2,1.8,5.3,0.7,7.5,0.2"/>
</g>
</svg>
