<?xml version="1.0" encoding="utf-8"?>
<!-- Generator: Adobe Illustrator 25.0.0, SVG Export Plug-In . SVG Version: 6.00 Build 0)  -->
<svg version="1.1" id="Layer_1" xmlns="http://www.w3.org/2000/svg" xmlns:xlink="http://www.w3.org/1999/xlink" x="0px" y="0px"
	 viewBox="0 0 283.5 283.5" style="enable-background:new 0 0 283.5 283.5;" xml:space="preserve">
<style type="text/css">
	.st0{fill:#FFFFFF;}
	.st1{fill:#C2895F;}
	.st2{fill:#87AD50;}
	.st3{fill:#BBA78E;}
	.st4{fill:#EE663C;}
	.st5{fill:none;stroke:#010101;stroke-width:1.788;stroke-linecap:round;stroke-linejoin:round;}
	.st6{fill:none;stroke:#010101;stroke-width:1.788;}
</style>
<g>
	<path class="st0" d="M283.4,141.9c0,46.8,0,93.7,0,140.5c0,0.9-0.2,1.1-1.1,1.1c-93.8,0-187.5,0-281.3,0c-0.9,0-1.1-0.2-1.1-1.1
		C0,188.6,0,94.8,0,1.1C0,0.2,0.2,0,1.1,0c93.8,0,187.5,0,281.3,0c0.9,0,1.1,0.2,1.1,1.1C283.4,48,283.4,94.9,283.4,141.9z"/>
	<path class="st1" d="M252.9,226.5c-1-0.8-1.9-1.5-2.7-2.2c-0.3-0.2-0.4-0.4-0.4-1c0.4-2.4,0.6-4.8,0.8-7.3c0.1-0.8-0.2-1.4-0.9-2
		c-1.5-1.1-2.9-2.3-4.3-3.5c-0.5-0.4-1.1-0.7-1.7-0.5c-0.6,0.3-0.9,0.9-0.9,1.6c0.1,1.4-0.4,2.7-0.2,4.1c0,0.3-0.2,0.6-0.4,0.8
		c-0.2,0.1-0.4-0.2-0.6-0.3c-0.7-0.5-1.3-1.1-2-1.6c-1.3-0.9-0.8-2.3-0.7-3.5c0.1-1.1,0-2.3,0.2-3.4c0.2-1.7,0-3-1.4-4.3
		c-1.2-1.2-2.4-2.5-3.6-3.7c-0.7-0.7-1.6-0.4-1.9,0.5c-0.5,1.5-0.1,3-0.5,4.5c-0.1,0.3,0,0.7-0.2,1.1c-0.7-1.5-2.7-2.3-2.4-4.3
		c0.4-2.4,0.3-4.8,0.7-7.2c0.4-2.1-0.8-3.6-1.7-5.2c-0.5-1-1.2-2-1.7-3c-0.4-0.7-0.7-1.4-1.7-1.2c-1,0.2-1.1,1.1-1,1.9
		c0.1,1.8-0.5,3.5-0.3,5.3c-0.9-1.3-1.8-2.6-1.5-4.2c0.3-1.5-0.1-3,0.2-4.4c0.6-2.8-1.2-4.6-2.3-6.8c-0.3-0.6-0.7-1.1-1-1.7
		c-0.3-0.7-0.9-1-1.6-0.9c-0.8,0.1-0.9,0.8-1,1.5c-0.2,1.8-0.4,3.6-0.6,5.6c-1.1-1.1-1.7-2.3-2.5-3.4c-1.1-1.5-1.8-2.9-1.6-5
		c0.4-3.1,0.1-6.2,0.1-9.3c0-0.9,0.3-1.3,1.1-1.4c1.5-0.3,1.9-0.9,1.1-2.3c-1.6-3-3.3-6-4.9-8.9c-1.7-3-3.4-6.1-5.1-9.1
		c-1-1.8-2-3.6-3.1-5.4c-0.8-1.3-1.6-1.3-2.4,0c-2.6,4-5,8.1-7.5,12.1c-2.1,3.4-4.2,6.8-6.3,10.1c-0.6,1-0.6,1.8,0.5,2.4
		c0.5,0.3,0.6,0.6,0.6,1.1c0,2.1,0,4.3-0.4,6.6c-0.7-0.8-1.4-1.5-2-2.4c-0.7-1-1.5-1.5-2.7-1.4c-10.5,0-21,0-31.5,0
		c-1,0-1.3-0.3-1.2-1.2c0.1-1.5,0.1-3,0-4.5c0-0.7,0.3-0.9,0.9-1.1c1.9-0.5,2.3-1.7,1.2-3.3c-2.6-3.7-5.1-7.4-8-10.9
		c-1.9-2.4-3.6-5-5.7-7.5c2.4,0.1,3.1-1.8,4.2-3.2c0.4-0.5,0.8-1,1.2-1.5c0.7-0.7,0.9-1.7,0.7-2.6c-0.4-2.6,0-5.2-0.2-7.8
		c-0.3-3.2-0.1-6.4-0.3-9.6c-0.1-1.7-0.3-3.3,0-5c0.2-1-0.4-1.4-1.3-1.4c-2.3-0.2-4.6-0.2-6.9-0.3c-4.2-0.2-8.4-0.3-12.5-0.5
		c-1.8-0.1-3.5-0.2-5.3-0.2c-0.7,0-0.9-0.3-0.8-0.9c0-1.8-0.1-3.6,0-5.4c0.1-1.3-0.3-2.5-0.9-3.7c-1.3-2.6-2.8-5.1-3.7-7.9
		c-0.6-1.8-1.8-2.3-3.1-3c-4.5-2.2-9.1-4.4-13.6-6.5c-1.4-0.7-1.9-0.5-2.5,0.9c-2.5,5.4-5,10.7-7.4,16.1c-0.3,0.7-0.8,1.5,0.1,2.2
		c0.1,0.1,0.1,0.2,0.1,0.4c0,4.3-0.3,8.5-0.4,12.8c-0.1,1.9-0.2,3.8-0.1,5.6c0,1.3-0.3,2.3-1.1,3.2c-1.7,1.9-2.2,4.1-2.1,6.7
		c0.2,3.5,0.1,7,0,10.5c0,1,0.3,1.5,1.2,1.8c4,1.4,8,2.6,11.8,4.2c1.8,0.7,2.8,0.2,4.2-0.7c3.9-2.6,7.9-5,12.1-7.6
		c0,0.5,0,0.8,0,1.2c0,1.2,0.5,1.6,1.7,1.7c6.4,0.3,12.9,0.2,19.3,0.2c0.2,0,0.4,0,0.8,0.1c-0.9,1.2-1.7,2.3-2.5,3.4
		c-3.6,4.8-7.3,9.6-10.9,14.5c-0.8,1.1-0.5,2.1,1,2.8c1.1,0.5,1.3,1.1,1.2,2.2c-0.3,5.3-0.2,10.7-0.3,16c0,0.7-0.4,1.4-0.2,2.2
		c0,0.1-0.1,0.4-0.1,0.4c-1.9,0.7-2.9,2.5-4.4,3.7c-1.7,1.3-3.1,2.9-4.7,4.4c0-4.7,0-9.3,0-13.8c0.5-0.1,1,0.4,1.5,0.4
		c0.7,0.1,1.2-0.1,1.4-0.7c0.2-0.6-0.1-1.2-0.6-1.5c-0.8-0.4-1.6-0.8-2.4-1.2c-3.4-1.7-6.8-3.2-10.1-5.1c-3.7-2-7.2-4.3-10.8-6.5
		c-2.4-1.4-4.8-2.9-7.1-4.3c-0.5-0.3-1.1-0.3-1.6,0.1c-1.7,1.4-3.5,2.9-5.2,4.3c-0.4,0.3-0.9,0.7-1.3,1c-1.4,1.3-1.4,1.3-2.1-0.6
		c-1.6-4.1-3.2-8.2-4.8-12.3c-0.5-1.3-1.3-1.6-2.5-0.9c-3.6,2-7.3,3.7-11,5.6c-1.5,0.8-2.9,1.6-4.4,2.2c-0.6,0.2-0.8,0.6-0.9,1.1
		c-1,4.3-1.8,8.6-2.9,12.9c-0.7,2.8-0.4,5.5-0.2,8.3c0.1,3.1,0,6.2,0,9.3c0,1.9,0.1,2.1,2,2.7c2.3,0.9,4.7,1.8,7,2.7
		c0.8,0.3,1.5,0.3,2.4,0c2.9-1.2,5.9-2.1,8.8-3.3c0.6-0.2,0.9,0.1,1.3,0.3c2.8,1.7,5.5,3.4,8.3,5.1c3.3,2,6.5,4.1,9.8,5.9
		c-0.8,1.3-1.9,2.4-1.9,4.1c0,0.8,0.1,1.6,0.1,2.4c0,1.1-1,0.8-1.5,1c-0.5,0.2-0.5-0.5-0.6-0.9c-0.1-0.7-0.1-1.3-0.3-2
		c-0.2-1-0.9-1.5-1.8-1.3c-1.2,0.3-2.4,0.4-3.6,0.7c-1,0.2-1.4,0.7-1.2,1.8c0.1,0.8,0.1,1.6,0.2,2.4c0.3,1.1-1.4,2.4-2.5,2.1
		c-0.4-0.1-0.2-0.4-0.3-0.7c-0.2-1.2-0.3-2.4-0.5-3.6c-0.1-0.8-0.7-1-1.5-0.8c-0.5,0.1-1.1,0.2-1.4,0.4c-1.6,1-2.9,0.1-4.3-0.6
		c-3.1-1.7-6.3-3.3-9.4-5.1c-0.9-0.5-1.5-0.3-2.2,0.3c-2.7,2.6-5.4,5.2-8.1,7.8c-0.7,0.7-1,1.4-0.2,2.2c0.3,0.3,0.3,0.7,0.3,1.1
		c0,3,0,6.1,0,9.1c0,0.9-0.3,1.3-1.2,1.5c0-0.8,0.1-1.6,0-2.3c-0.1-1.3-1-1.7-2.1-1c-0.2,0.1-0.4,0.2-0.6,0.3
		c-3.1,1.8-3.1,1.8-3.1,5.3c0,2.4,0,2.4-3,4.2c-0.1-0.9-0.2-1.8-0.3-2.7c-0.1-1.2-1-1.6-1.9-0.9c-1,0.8-2,1.7-3,2.5
		c-0.9,0.7-0.7,1.8-0.9,2.8c-0.1,0.3-0.1,0.7-0.1,1c0.1,2-1.5,2.8-2.7,4.1c-0.1-0.8-0.3-1.4-0.3-2c0-1-0.9-1.5-1.7-0.9
		c-1.3,0.9-2.4,1.9-3.6,2.9c-0.4,0.3-0.6,0.8-0.6,1.4c0,0.7-0.1,1.5,0,2.2c0.4,2.2-0.7,3.3-2.6,4c-0.2-0.6,0.1-1.3-0.2-2
		c-0.4-1.1-1.2-1.5-2.2-0.8c-1,0.7-1.9,1.6-2.9,2.4c-0.5,0.4-0.7,0.8-0.6,1.6c0.2,1-0.1,2,0.3,3c0.1,0.2-1.6,1.8-1.8,1.9
		c-0.5,0-0.3-0.4-0.3-0.6c0-0.8,0.1-1.5-0.2-2.3c-0.4-0.9-1.1-1.1-1.8-0.5c-1,0.8-1.9,1.6-2.9,2.4c-0.6,0.5-1,1.2-0.6,2.1
		c0.3,0.9,0,1.8,0.2,2.8c0.1,0.6-1.1,0.7-1.3,1.6c-0.4-0.7-0.2-1.1-0.2-1.6c0-67,0-134,0-200.9c0-15.3,0-30.7,0-46
		c0-1,0.2-1.3,1.3-1.3c92.1,0,184.1,0,276.2,0c1.1,0,1.3,0.3,1.3,1.3c0,83.3,0,166.5,0,249.8c0,0.3,0,0.7,0,1.1
		c-1.4-1-1.7-1.7-1.4-3.4c0.3-1.8,0.5-3.6,0.5-5.5c0-0.6-0.3-1-0.7-1.4c-1.3-1.3-2.7-2.7-4-4c-0.3-0.3-0.7-0.8-1.3-0.5
		c-0.5,0.2-0.9,0.5-0.9,1.2c-0.1,1.6-0.4,3.2-0.6,5c-0.9-1-2-1.8-2.7-2.8c-0.6-1-0.2-2.2-0.2-3.3c0.1-1.7,0.3-3.5,0.4-5.2
		c0-0.4-0.2-0.8-0.5-1c-1.3-1.4-2.6-2.8-3.9-4.2c-0.8-0.8-2-0.5-2.2,0.6c-0.2,1.3-0.4,2.7-0.5,4c0,0.6-0.1,1.1-0.4,1.8
		c-1-1-1.9-2-2.8-2.9c-0.2-0.2-0.3-0.4-0.3-0.7c0.5-1.9,0-3.8,0.4-5.7c0.5-2.1-0.6-3.6-2.2-4.8c-0.7-0.5-1.4-1.2-2-1.8
		c-0.4-0.4-0.9-0.8-1.5-0.6c-0.6,0.3-0.8,0.9-0.9,1.6C253.3,222.7,253.4,224.6,252.9,226.5z"/>
	<path class="st2" d="M5.4,280.8c6.5-6.4,12.8-12.7,19.2-18.9c3.7-3.6,7.3-7.3,11.1-10.9c2.8-2.8,6-5.2,9.1-7.6
		c2.8-2.2,5.7-4.5,8.5-6.7c1.6-1.3,3.2-2.7,5-3.8c1.8-1.2,4-1.5,6-2.2c6.2-2.1,12.4-4.1,18.6-6.1c0.7-0.2,1.2-0.2,2,0.1
		c3.8,1.3,7.7,1.9,11.6,0.7c1.8-0.5,3.5-1.4,4.9-2.8c3.8-3.8,7.6-7.4,11.5-11.1c3-2.8,5.9-5.6,8.9-8.4c1.5-1.5,3.1-2.9,4.6-4.4
		c0.8-0.9,1.6-0.2,2.3-0.1c3.8,0.6,7.5,0.5,11.2-0.5c2.6-0.7,5.1-1.7,7-3.8c0.3-0.4,0.8-0.6,1.4-0.5c3.4,0.1,6.7-0.4,10.1-0.2
		c1.2,0.1,2.2-0.4,3-1.2c1.2-1.2,2.8-2.2,3.4-3.7c0.6-1.4,0.2-3.2,0.2-4.9c0-0.6,0-1.3,0-1.9c0-1.4,0-1.4,1.5-1.4
		c1.6,0,2.6,1,3.8,1.9c1.3,1,1.7,2.2,1.6,3.9c-0.1,1.7,0.1,3.4,0.2,5.1c0.1,1.6,1.1,2.3,2.3,2.2c3.4-0.2,6.9,0.2,10.3,0.2
		c0.4,0,0.8,0.1,1,0.4c1.7,2.7,4.5,3.7,7.4,4.5c3.3,0.9,6.7,0.8,10.1,0.7c1.4-0.1,2.8-0.4,4.2-0.8c0.6-0.2,0.8-0.1,1.2,0.5
		c3.8,6.2,7.6,12.3,11.4,18.5c2.5,4.1,4.9,8.2,7.4,12.2c1,1.6,2.6,2.5,3.9,3.7c1.7,1.6,3.5,3,5.2,4.6c3.3,2.9,6.6,5.8,9.9,8.7
		c2.6,2.3,5,4.7,7.4,7.2c4.3,4.4,8.6,8.8,12.9,13.2c4.3,4.5,8.7,8.9,13.1,13.5C188.4,280.8,97,280.8,5.4,280.8z"/>
	<path class="st3" d="M14.6,240.9c0,0.7,0.1,1.4,0.3,2.1c0.3,1,0.9,1.3,1.7,0.8c1.5-1,3-2,4.5-3.1c0.5-0.3,0.6-0.9,0.6-1.5
		c0-1.1,0-2.3,0-3.4c0-0.2,0-0.5,0-0.7c0.1-0.7,0.6-1.3,1.2-1.3c0.5,0,0.5,0.8,0.5,1.3c0,0.6-0.1,1.3,0.6,1.6
		c0.7,0.3,1.3-0.1,1.8-0.6c1.3-1.2,2.5-2.5,3.8-3.7c1-0.9,0.7-2.2,0.8-3.3c0.1-1.4,0.5-2.5,1.9-3.2c0.1,0.9,0.2,1.8,0.3,2.7
		c0.1,1.1,0.8,1.5,1.8,0.9c1.6-1.1,3.1-2.3,4.7-3.5c0.4-0.3,0.6-0.9,0.6-1.5c0-0.9,0-1.9,0-2.8c0-1.5,0-1.5,1.5-2.2
		c0.1,0.8,0.2,1.7,0.4,2.5c0.2,1.2,0.9,1.6,1.9,0.9c1.4-1.1,3.1-1.8,4.4-3.1c0.5-0.5,0.9-1,0.7-1.8c-0.3-1,0.1-2.2-0.3-3.3
		c-0.1-0.3,1.8-1.7,2.1-1.7c0.4,0.1,0.5,0.4,0.4,0.7c-0.1,0.9,0.2,1.8,0.2,2.7c0.1,1.2,1,1.6,2,1c1.2-0.8,2.4-1.7,3.5-2.5
		c1.4-1.1,0.9-2.6,0.8-3.9c-0.1-1.3,0.7-2.4,2.1-2.2c0.4,0,0.4,0.3,0.4,0.6c0,0.7,0.1,1.5,0.2,2.2c0.1,1.1,0.7,1.3,1.6,1.2
		c1.3-0.3,2.6-0.6,4-1c1-0.3,1.4-1,1.3-1.9c0-0.2-0.1-0.5-0.1-0.7c-0.5-2,0.2-3,2.3-3.4c0.4-0.1,0.5,0.1,0.5,0.4c-0.1,1,0.3,2,0.3,3
		c0,1.3,0.8,1.8,2.1,1.5c1.2-0.4,2.5-0.7,3.7-1c1.4-0.4,1.8-1,1.5-2.4c-0.2-0.9,0.1-1.8-0.4-2.6c-0.1-0.2,0-0.4,0.1-0.5
		c0.6-0.4,1.3-0.3,1.9-0.4c0.4,0,0.4,0.7,0.5,1.1c0.1,0.6,0.2,1.3,0.3,2c0.2,1.1,0.8,1.5,1.9,1.1c2.1-0.6,2.1-0.6,2.1,1.5
		c0,2.3,0,4.6,0,6.8c0,1.6,0.3,3.1,0.3,4.7c0,0.8-0.2,1.1-1,1.4c-8.2,2.6-16.4,5.3-24.6,8c-1.4,0.5-2.3,1.7-3.5,2.5
		c-5.9,4.6-11.8,9.3-17.7,13.9c-0.2,0.1-0.3,0.3-0.4,0.4c-6.4,6.3-12.7,12.7-19.2,18.9c-4.5,4.3-8.8,8.9-13.4,13.2
		c-0.4,0.3-0.7,0.6-1.3,1.1c0-0.6,0-1,0-1.4c0-7.2,0.1-14.3-0.1-21.5c0-2,0.8-3.1,2.2-4c1.5-1,2.1-2.2,1.5-4
		c-0.2-0.7-0.3-1.5,0.2-2.1c0.2-0.2,0.3-0.5,0.6-0.4c0.4,0.1,0.2,0.5,0.2,0.7c0,0.6,0,1.2,0,1.8c0,0.5,0.2,0.9,0.7,1.1
		c0.5,0.2,0.8,0,1.2-0.3c1.1-0.9,2.2-1.8,3.4-2.7c1.4-1,1.2-2.4,1-3.7C13.1,241.9,13,241.8,14.6,240.9z"/>
	<path class="st3" d="M281.1,278.4c-5.5-5.6-10.8-10.9-16.1-16.4c-2.2-2.3-4.5-4.5-6.6-6.8c-2-2.2-4-4.4-6.2-6.4
		c-3.2-3-6.5-5.8-9.8-8.7c-1.6-1.4-3.1-2.8-4.7-4.2c-2.5-2.2-5-4.3-7.4-6.6c-1.1-1-1.7-2.5-2.5-3.8c-4-6.4-8-12.8-11.9-19.2
		c-1.5-2.5-2.9-5-4.6-7.4c-0.1-0.2-0.3-0.5-0.2-0.8c0.5-6.1,0.5-12.2,0.4-18.5c1.2,1.8,2.4,3.5,3.5,5.1c0.2,0.3,0.4,0.6,0.7,0.8
		c0.9,0.8,1.6,0.6,2-0.6c0.4-1.2,0.2-2.5,0.4-3.7c0.1-0.6,0-1.3,0.4-1.9c1.8,1.7,1.5,4.1,1.3,6.2c-0.2,2.3-0.3,4.6,0.8,6.7
		c0.9,1.7,1.6,3.4,2.5,5.1c0.3,0.6,0.7,1.2,1.5,0.9c0.8-0.2,0.8-0.8,0.9-1.4c0.3-2.1,0.5-4.2,0.5-6.6c1,1.7,1.8,2.9,1.5,4.9
		c-0.4,2.1-0.3,4.4-0.6,6.5c-0.3,1.7,0.7,2.9,1.5,4.1c1,1.4,2,2.8,3,4.2c0.4,0.6,1,1,1.7,0.8c0.7-0.2,0.9-0.9,0.9-1.6
		c0.1-1.7,0.1-3.5,0.5-5.2c2.1,1.3,2.9,3.1,2.3,5.8c-0.4,1.5,0,3.1-0.3,4.7c-0.2,0.8,0.7,1.4,1.5,1.9c1.6,1.2,3.1,2.5,4.7,3.7
		c0.4,0.3,0.8,0.7,1.5,0.3c0.6-0.3,0.8-0.8,0.8-1.4c0.1-1.4,0.2-2.9,0.2-4.3c0-0.3-0.1-0.6,0.2-0.7c0.3-0.2,0.4,0.3,0.7,0.4
		c2.2,1.1,2.6,2.9,2,5.2c-0.3,1.4-0.2,2.9-0.5,4.3c-0.4,1.7,1,2.3,2,3.2c1.1,1,2.3,1.9,3.4,2.8c0.5,0.5,1.1,0.8,1.8,0.5
		c0.6-0.3,0.9-1,0.8-1.7c-0.1-1.5,0.4-2.9,0.2-4.4c0-0.2-0.1-0.4,0.2-0.5c0.2-0.1,0.4,0.1,0.5,0.2c1.1,0.9,1.7,1.9,1.4,3.5
		c-0.4,2-0.3,4-0.4,6.1c0,0.5,0.3,0.9,0.7,1.3c1.6,1.5,3.1,3,4.7,4.5c0.4,0.4,1,0.7,1.6,0.5c0.6-0.2,0.7-0.8,0.7-1.3
		c0.2-1.7,0.5-3.4,0.7-5.1c0.1-0.1,0.2-0.2,0.3-0.3c0.5,0.6,1,1.3,1.5,1.9c0.2,0.3,0.3,0.6,0.2,0.9c-0.5,2.3-0.3,4.7-0.7,7.1
		c-0.1,0.6,0.1,1.2,0.5,1.6c1.6,1.7,3.1,3.3,4.7,4.9c0.4,0.4,0.9,0.9,1.5,0.7c0.7-0.3,1-1,1-1.7c0.1-1.5,0.2-2.9,0.5-4.4
		c0.1,0.1,0.2,0.1,0.2,0.1c2.6,1.7,2.1,4.2,1.7,6.6c-0.2,1,0,2.1-0.2,3.1c-0.1,0.4,0.2,1,0.7,1.4c0.9,0.7,1.7,1.5,2.6,2.2
		c0.4,0.3,0.7,0.6,0.7,1.1C281.1,265,281.1,271.6,281.1,278.4z"/>
	<path class="st3" d="M145.4,175.9c0,5.2,0,10.3,0,15.5c0,1-0.3,1.6-1.1,2.1c-2.7,1.8-5.7,2.6-8.8,3c-2.3,0.3-4.6,0-6.8-0.3
		c-0.7-0.1-1-0.4-1-1.1c-0.3-4.4-0.6-8.7-0.7-13.1c0-1.5-0.6-2.2-2.1-2.7c-2.3-0.8-2.3-0.8-2.3-3.2c0-2.6-0.1-5.1,0-7.7
		c0.1-3,0.3-5.9,0.2-8.9c0-0.7,0.1-0.8,0.9-0.6c4.7,1.2,9.6,1.4,14.4,1.2c2.2-0.1,4.3-0.4,6.5-0.8c1.1-0.2,0.9,0.4,0.9,0.9
		C145.4,165.4,145.4,170.7,145.4,175.9z"/>
	<path class="st3" d="M188.1,162.5c2.4,0.7,4.7,1.3,7.1,1.5c2.9,0.2,5.7,0.6,8.6,0.2c1.6-0.3,3.2-0.2,4.7-0.7c0.4-0.1,0.8,0,0.7,0.6
		c-0.1,2.3,0.2,4.5-0.2,6.8c-0.1,0.3,0,0.7,0,1.1c0,4.4,0.1,8.8,0,13.2c-0.1,3.3-0.3,6.6-0.2,9.9c0,0.6-0.3,0.8-0.7,1
		c-1.1,0.5-2.2,0.7-3.4,0.9c-4.5,0.6-9,0.4-13.4-1.2c-1.4-0.5-2.6-1.2-3.4-2.5c-0.4-0.6-0.6-1.2-0.6-2c-0.1-4.7,0.2-9.4,0.3-14.1
		c0.1-2.7-0.1-5.3,0.2-8C188.1,166.9,188,164.8,188.1,162.5z"/>
	<path class="st3" d="M108.1,179.4c0,2.6,0,5.1,0,7.7c0,0.7-0.2,1.2-0.7,1.6c-2.7,2.5-5.3,5-8,7.5c-0.6,0.6-0.8,0.2-1-0.2
		c-1.6-2.3-3.2-4.7-4.8-7c-1.1-1.6-1.9-1.6-2.9,0c-1.1,1.7-2.1,3.3-3.2,5c-0.1,0.2-0.3,0.4-0.4,0.6c-0.4,0.4-0.9,0.5-1.4,0.4
		c-0.5-0.1-0.3-0.7-0.2-1c0.2-4.5-0.3-8.9-0.3-13.4c0-0.7,0.2-1.2,0.7-1.6c3.9-4,7.8-8,11.6-12.2c0.8-0.9,1.2-0.9,2.2-0.4
		c2.5,1.3,5,2.6,7.5,3.8c0.7,0.3,0.9,0.7,0.9,1.5C108.1,174.2,108.1,176.8,108.1,179.4z"/>
	<path class="st4" d="M139.2,107.7c-0.9,4.4-1.7,8.8-2.6,13.2c-0.1,0.5-0.3,0.9-1,0.9c-7.8,0-15.5-0.4-23.3-0.3
		c-0.1,0-0.1-0.1-0.2-0.1c1-4.6,2-9.3,3-13.9c0.1-0.6,0.3-0.9,0.9-0.8c3.3,0.2,6.6,0.1,9.8,0.5c0.1,0,0.2,0,0.4,0
		c2.9-0.2,5.8,0.3,8.7,0.2C136.3,107.3,137.8,107.5,139.2,107.7z"/>
	<path class="st4" d="M65.9,168.7c2.2-1.8,4.3-3.5,6.4-5.3c2.9-2.5,5.9-4.9,8.8-7.4c0.5-0.4,0.9-0.3,1.4,0c3.1,1.9,6.3,3.8,9.5,5.7
		c1.4,0.9,2.8,1.7,4.3,2.6c-1,1.2-2,2.2-3,3.3c-2.9,3.2-6,6.2-9,9.3c-0.5,0.5-0.9,0.5-1.5,0.2C77.2,174.3,71.6,171.5,65.9,168.7z"/>
	<path class="st3" d="M124.6,183.4c0.2,3.6,0.1,7.1,0.6,10.5c0.3,2.3-0.6,3.4-2.1,4.7c-3.1,2.8-6.1,5.8-9.1,8.7
		c-2.9,2.8-5.8,5.6-8.8,8.3c-1.4,1.3-2.8,2.7-4.3,4c-0.4-0.2-0.2-0.6-0.2-0.8c0-4,0-7.9,0-11.9c0-0.7,0.2-1.2,0.7-1.6
		c5.2-4.9,10.4-9.9,15.6-14.9C119.5,188,122,185.8,124.6,183.4z"/>
	<path class="st3" d="M166.6,176.3c5.8,0,11.6,0,17.3,0c1,0,1.3,0.2,1.3,1.3c0,4.3-0.4,8.6-0.3,12.9c0,0.7-0.2,1-0.9,0.9
		c-3-0.5-5.9-0.2-8.9-0.2c-0.6,0-0.8-0.2-0.8-0.8c0.2-2.1-0.3-4.2-0.2-6.3c0-1-0.6-1.6-1.2-2.2c-1.5-1.8-3.2-3.1-5.5-3.6
		c-2.4-0.5-4.3,0.4-6,1.8c-0.8,0.7-1.6,1.5-2.3,2.3c-0.6,0.6-0.9,1.3-0.8,2.2c0.1,1.9,0,3.8,0,5.7c0,0.9-0.3,1.1-1.1,1.1
		c-1.6-0.1-3.3,0-5,0c-1.1,0-2.1,0.3-3.3,0.3c-0.8,0-1.1-0.2-1.1-1c0-4.4,0-8.7,0-13.1c0-0.9,0.3-1,1.1-1
		C154.9,176.3,160.8,176.3,166.6,176.3z"/>
	<path class="st4" d="M95.3,124.9c-1.6-4-3.1-8-4.7-12c-0.3-0.8-0.2-1.1,0.5-1.5c3.3-2.1,6.5-4.2,9.8-6.3c2.1-1.3,4.1-2.7,6.2-4.1
		c0.5-0.4,0.8-0.3,1.1,0.2c1.3,1.9,2.7,3.8,4.1,5.6c0.7,1,0.3,1.9,0.1,2.8c-0.4,1.7-0.8,3.4-1.1,5.2c-0.1,0.4-0.3,0.8-0.7,1.1
		c-4.7,2.8-9.3,5.6-14,8.4C96.1,124.6,95.7,124.7,95.3,124.9z"/>
	<path class="st4" d="M133.9,137.1c4.4,6.5,9.4,12.4,13.8,18.9c-1.8,0.7-3.6,1-5.4,1.2c-2.9,0.3-5.8,0.7-8.7,0.5
		c-3.5-0.2-7.1-0.4-10.5-1.6c-2.7-0.9-2.6-0.9-1-3.1C126,147.7,130,142.4,133.9,137.1z"/>
	<path class="st4" d="M199.5,139c1.8,3.2,3.5,6.3,5.3,9.4c2,3.6,4,7.2,6,10.7c0.5,0.8,0.5,1.2-0.6,1.4c-2.4,0.6-4.7,1.1-7.2,1.2
		c-1.9,0.1-3.8,0.2-5.8,0c-3.3-0.3-6.6-0.8-9.8-2.1c-0.6-0.2-0.5-0.4-0.3-0.8c2.9-4.7,5.9-9.5,8.8-14.2
		C197.2,142.7,198.4,140.9,199.5,139z"/>
	<path class="st4" d="M93.3,79.4c0.6,0.3,1.2,0.4,1.8,0.7c3.8,1.9,7.6,3.8,11.5,5.6c0.8,0.4,0.4,0.8,0.3,1.2
		c-1.5,3.7-3,7.4-4.5,11.1c-0.4,1-0.8,1.9-1.1,2.9c-0.2,0.6-0.4,0.7-1,0.4c-4.1-1.9-8.1-3.8-12.2-5.7c-1.7-0.8-1.7-0.8-1-2.5
		c1.1-2.6,2.3-5.2,3.5-7.7c0.8-1.7,1.6-3.5,2.4-5.2C93.1,79.8,93.2,79.6,93.3,79.4z"/>
	<path class="st4" d="M57.8,170.7c-0.5,0.2-0.5-0.3-0.6-0.5c-1.8-5.1-3.5-10.1-5.2-15.2c-0.2-0.5-0.1-0.7,0.4-1
		c3.4-1.9,7-3.5,10.4-5.3c0.6-0.3,1.3-0.6,1.8-1c0.8-0.6,1-0.1,1.3,0.5c1.5,4,3.1,7.9,4.7,11.9c0.4,0.9,0.3,1.5-0.5,2.1
		c-2.2,1.7-4.3,3.5-6.5,5.3c-0.3,0.3-0.7,0.5-0.8,1c-0.1,1-0.9,1.2-1.7,1.5C59.9,170.2,58.8,170.4,57.8,170.7z"/>
	<path class="st4" d="M166.8,173.9c-5.9,0-11.8,0-17.7,0c-0.9,0-1.2-0.2-1.1-1.1c0.1-1.4,0.1-2.9,0-4.4c-0.1-1,0.4-1,1.1-1
		c7.4,0,14.9,0,22.3,0c2.9,0,5.8,0.1,8.7,0c0.9,0,1.5,0.4,2,1c1,1.3,2,2.5,3.1,3.8c0.4,0.5,0.4,1,0.3,1.4c-0.1,0.5-0.7,0.2-1,0.2
		C178.5,173.9,172.7,173.9,166.8,173.9z"/>
	<path class="st3" d="M85.8,203.5c4.1,1.2,8.3,2,12.5-0.1c0.3,0.2,0.1,0.5,0.1,0.8c0,5.5,0,11,0,16.5c0,1.1-0.4,1.6-1.3,1.9
		c-3.5,1.4-7.1,1.1-10.6,0c-0.5-0.1-0.6-0.4-0.6-0.8c0.1-6-0.4-12-0.2-18C85.7,203.7,85.8,203.6,85.8,203.5z"/>
	<path class="st3" d="M88.3,113.8c0.7,1.8,1.4,3.5,2,5.1c1,2.6,2,5.2,3,7.8c0.2,0.6,0.3,1.1,0.3,1.7c0,2.3,0,4.6,0,7
		c0,0.9,0.4,1.8,0.3,2.7c-0.1,0.6-0.2,0.8-0.8,0.5c-0.8-0.3-1.5-0.6-2.3-0.8c-0.6-0.2-0.5-0.7-0.5-1.1c0-2.1,0-4.2,0-6.4
		c0-1-0.3-1.7-1.4-2c-0.7-0.2-1.3-0.5-1.9-0.8c-1.4-0.6-2.2-0.1-2.1,1.5c0.1,2.2-0.5,4.3,0,6.5c-2-0.2-2.2-0.3-2.2-2.1
		c0-3.3,0-6.6,0-9.9c0-1,0.2-1.8,0.8-2.6C85.1,118.6,86.7,116.3,88.3,113.8z"/>
	<path class="st3" d="M117.8,123.9c5.7,0.2,11.5,0.3,17.2,0.2c0.6,0,1,0,0.9,0.8c-0.2,2.6,0.2,5.2,0.3,7.7c0,1-0.3,1.2-1.2,1.2
		c-1.1-0.1-2.3-0.1-3.4,0c-1,0.1-1.4-0.2-1.3-1.3c0.1-1.6,0-3.1,0-4.7c0-1.6-0.4-2.1-2.1-2.1c-1.4,0-2.8,0-4.1,0
		c-1.9,0-3.7-0.2-5.6-0.2c-1.8,0-2.1,0.3-2.1,2c0,1.7,0,3.4,0,5.1c0,0.7-0.2,0.9-0.9,1c-3.4,0.1-3.3,0.1-3.4-3.2
		c0-1.8-0.1-3.6-0.2-5.4c-0.1-0.9,0.3-1.1,1.1-1.1C114.6,124,116.2,123.9,117.8,123.9z"/>
	<path class="st3" d="M110.2,119.1c-0.9,2.9-0.6,6-0.7,9c0,0.2-0.1,0.4,0,0.6c0.7,1.5-0.3,2-1.4,2.7c-3.9,2.4-7.7,4.8-11.5,7.2
		c-0.2-0.1-0.3-0.2-0.3-0.4c0-3.3-0.4-6.6-0.3-10c0-0.6,0.2-0.9,0.7-1.2c4.4-2.6,8.9-5.3,13.3-7.9C110,119,110.1,119,110.2,119.1z"
		/>
	<path class="st3" d="M83,193.7c-1.1-0.7-1.9-1.3-2.9-1.8c-0.7-0.4-0.8-0.8-0.8-1.5c0-2.4-0.1-4.8,0.1-7.2c0.2-2-0.6-3.1-2.3-4
		c-2.1-1-4.1-2.2-6.2-3.3c-1.1-0.6-2.1,0.1-2.1,1.5c0,2.1,0,4.2,0,6.3c0,0.3,0.2,0.8-0.2,1c-0.3,0.2-0.5-0.3-0.8-0.4
		c-1.2-0.5-1.4-1.3-1.4-2.6c0-3.1,0.5-6.1,0.3-9.2c0-0.7,0.2-0.8,0.8-0.5c4.9,2.5,9.8,4.9,14.8,7.4c0.5,0.3,0.7,0.6,0.7,1.2
		c0,1.4,0,2.8,0,4.1C82.7,187.7,83.3,190.6,83,193.7z"/>
	<path class="st4" d="M55,212.3c-1-0.8-1.9-1.3-2.7-2.2c-0.6-0.6-1.8-0.8-2.6-1.3c-0.8-0.5-1.5-1.1-2.3-1.5
		c-0.4-0.2-0.4-0.4-0.1-0.7c2.3-2,4.3-4.1,6.4-6.2c0.3-0.3,0.6-0.1,0.8,0c3.2,1.7,6.4,3.4,9.5,5.1c0.4,0.2,0.5,0.5,0.4,0.9
		c0,0.8,0,1.7,0,2.5c0,0.5-0.1,0.8-0.8,0.9c-1.8,0.4-1.8,0.4-1.8-1.4c0-0.5-0.1-0.9-0.2-1.4c-0.2-0.9-0.9-1.1-1.6-0.9
		c-1.4,0.4-2.9,0.9-4.3,1.4c-0.7,0.3-1.1,0.8-0.9,1.7C55.1,210.1,55,211.1,55,212.3z"/>
	<path class="st3" d="M99,103.4c-3.4,2.2-6.5,4.3-9.8,6.2c-1.4,0.8-2.3,1.9-3.1,3.3c-0.4-0.9,0.1-1.6,0.1-2.3c0-4,0.1-7.9,0.2-11.9
		c0-1.2,0.1-1.3,1.2-0.8c3.4,1.6,6.8,3.2,10.2,4.7C98.1,102.9,98.5,103.1,99,103.4z"/>
	<path class="st4" d="M123.3,181.3c-7.5,7.1-14.9,14.1-22.4,21.2c-0.3-1.3,0.2-2.6-0.4-3.8c-0.2-0.3,0.3-0.6,0.6-0.8
		c1.8-1.3,3.2-3.1,4.9-4.5c1.8-1.5,3.4-3.2,5.1-4.8c2.8-2.6,5.6-5.3,8.4-7.9c0.3-0.3,0.6-0.5,1-0.3
		C121.4,180.6,122.3,180.9,123.3,181.3z"/>
	<path class="st3" d="M57.6,180.7c0.2-2.2-0.3-4.3-0.3-6.4c0-0.7,0.2-1.1,0.9-1.2c1.7-0.4,3.4-0.9,5.1-1.4c0.7-0.2,1-0.1,0.9,0.7
		c-0.2,3.9-0.3,7.7-0.2,11.6c0,0.5-0.2,0.6-0.6,0.8c-1.6,0.6-3.2,1.1-4.8,1.7c-0.5,0.2-0.7,0.2-0.8-0.5
		C57.7,184.2,57.5,182.5,57.6,180.7z"/>
	<path class="st3" d="M50.4,157.9c1.1,3.1,2,6.2,3.2,9.2c1.2,2.9,1.3,5.9,1.4,8.9c0.1,3.1,0.2,6.3,0.2,9.4c0,0.3,0.2,0.6,0.2,0.9
		c0,0.3,0.3,0.7-0.2,0.8c-0.4,0.1-0.7-0.2-0.7-0.7c0.1-1.8-0.3-3.6-0.2-5.4c0.1-1.4,0-2.8,0-4.1c0-1-0.3-1.9-1.5-2.2
		c-0.9-0.2-1.6-0.7-2.5-1.1c-0.8-0.3-1.6-0.5-2.3,0c-1.2-5.6,1.4-10.5,2-15.8C50.2,158,50.3,158,50.4,157.9z"/>
	<path class="st4" d="M92.2,191.1c1.6,2.3,3.1,4.4,4.5,6.6c0.5,0.7,0.8,1.4,1.4,2c0.4,0.5,0.3,0.6-0.2,1c-2.1,1.6-4.4,1.7-6.9,1.4
		c-1.7-0.2-3.4-0.7-5.1-1.1C88,197.7,90,194.5,92.2,191.1z"/>
	<path class="st3" d="M112.7,103.5c-1.2-1.7-2.3-3.2-3.3-4.6c-0.9-1.2-1.6-1.3-2.9-0.5c-0.7,0.5-1.4,0.9-2.3,1.5
		c1.6-3.9,3-7.5,4.5-11.2c0.6,0.6,0.8,1.3,1.1,1.9c0.4,0.8,0.6,1.7,1.1,2.4C113.2,96.2,112.9,99.7,112.7,103.5z"/>
	<path class="st4" d="M71.1,178.9c1.9,1,3.7,1.9,5.5,2.8c0.4,0.2,0.4,0.6,0.4,1c0,2.4,0,4.7,0,7.2c-1.9-1.2-3.7-2.4-5.6-3.5
		c-0.3-0.2-0.3-0.4-0.3-0.7C71.1,183.6,71.1,181.3,71.1,178.9z"/>
	<path class="st4" d="M124.2,130.9c0,0,0-0.1,0-0.1c0-2.7,0-2.7,2.7-2.6c0.6,0,0.9,0.2,0.9,0.8c-0.1,1.4,0,2.7,0,4.1
		c0,0.5-0.1,0.7-0.7,0.7C124.2,134,124.2,134,124.2,130.9z"/>
	<path class="st4" d="M121.8,131c0,0.6-0.1,1.3,0,1.9c0.1,0.8-0.3,1-1,0.9c-2.1-0.3-2.1-0.3-2.1-2.4c0-0.5,0-1,0-1.5
		c0-1.7,0-1.7,1.5-1.7c1.5,0,1.5,0,1.5,1.6C121.8,130.2,121.8,130.6,121.8,131z"/>
	<path class="st4" d="M51.9,185.9c-1.2-0.1-1.3-0.7-1.5-1.6c-0.3-2.2-0.1-4.5-0.2-6.7c0-0.4-0.3-1,0.3-1c0.6,0,1.3,0.3,1.3,1.2
		c0,1,0,2,0,3.1C51.9,182.5,51.9,184.2,51.9,185.9z"/>
	<path class="st3" d="M162.6,185.7c0.1,1,0.2,2.4-1.2,3.3c-0.2,0.1-0.3,0.4-0.6,0.2c-0.1-0.1-0.1-0.3-0.1-0.5c0-1.3,0-2.6,0-3.9
		c0-0.9,0.7-1.5,1.3-2c0.5-0.5,0.6,0,0.6,0.4C162.6,183.9,162.6,184.6,162.6,185.7z"/>
	<path class="st4" d="M88.3,136.7c-1,0-1.5-0.4-1.4-1.5c0.1-1.7,0-3.5,0.3-5.2c1.1,0.2,1.1,0.2,1.1,1.3
		C88.3,133.1,88.3,134.9,88.3,136.7z"/>
	<path class="st3" d="M47.1,210.2c0.7,0.1,1.2,0.6,1.8,1c-0.6,0.4-1.1,0.8-1.8,1.2C47.1,211.6,47.1,210.9,47.1,210.2z"/>
	<path class="st0" d="M156.9,52.6c2.9-2.8,5.8-5.5,8.7-8.2c0.7-0.7,1.5-1.3,2.3-2c1-0.9,1.7-0.8,2.3,0.4c1.4,2.7,2.7,5.4,4,8.1
		c0.1,0.2,0.2,0.4,0.4,0.7c1.2-1.2,2.4-2.4,3.5-3.5c1.2-1.2,1.9-1,2.7,0.4c1.5,2.8,3.2,5.6,4.8,8.3c1.8,3.1,3.5,6.2,5.3,9.3
		c0.5,0.9,0.3,1.6-0.4,2.1c-1.3,0.9-0.8,2.1-0.9,3.2c0,0.3,0.2,0.4,0.5,0.4c2.3,0.2,4.6,0.5,6.9,0.7c2.1,0.2,4.2,0.5,6.3,0.7
		c0.5,0.1,0.8,0.4,0.8,0.8c0,0.8,0.3,1.5,0.2,2.2c-0.1,2.7,0.2,5.3,0.3,8c0.1,3.6,0.4,7.2,0.4,10.9c0,1.2,0.2,1.3,1.3,0.6
		c0.4-0.2,0.7-0.4,1.1-0.7c1.9-1.3,2.3-1.2,3.4,0.8c1.6,3,3.3,5.9,4.9,8.9c0.4,0.7,0.8,0.8,1.5,0.8c7.4,0,14.8,0,22.2,0
		c1.9,0,2.3,0.4,2.5,2.5c0.1,0.5,0,0.9,0,1.4c-0.3,3,0.6,6,0.1,9c-0.1,0.3,0.2,0.5,0.4,0.7c0.8,0.8,1.5,1.7,2.5,2.3
		c1,0.7,1.5,1.7,2.1,2.7c1.8,3.3,3.5,6.6,5.2,10c0.2,0.5,0.4,0.9,0.4,1.4c-0.1,3.7-0.2,7.4-0.2,11.1c0,0.8-0.4,1.2-1,1.5
		c-4,1.9-8,3.8-12.1,5.5c0,0-0.1,0-0.1,0.1c-2.1,1-2.6,0.8-4.3-0.7c-2.6-2.4-5-5-7.7-7.4c-1.3-1.2-1.6-2.6-1.7-4.1
		c0-0.9,0-1.9,0-2.8c-0.1-2.3,0.1-4.6-0.2-6.9c-0.2-1.6-0.3-3.4,1-5c-1,0-1.8,0-2.5,0c-3,0.2-5.9-0.3-8.9-0.3
		c-0.7,0-1.2,0.2-1.8,0.5c-4,2.5-8,5-12,7.5c-0.8,0.5-1.5,0.3-2.4,0c-2.8-0.7-5.7-1.3-8.6-1.9c-1.5-0.3-2.9-0.6-4.4-1
		c-0.8-0.2-1.2-0.7-1.2-1.6c0-4.1,0-8.1,0-12.2c0-0.4,0.1-0.7,0.3-1c1.7-3.5,3.5-6.9,5.2-10.4c0.6-1.3,2-1.1,2.8-1.9
		c0.3-0.3,0.9-0.2,0.9-0.6c-0.1-0.5-0.7-0.3-1.1-0.4c-5.7-1.6-11.4-3.1-17.2-4.6c-0.8-0.2-1.3-0.7-1.2-1.6c0.1-0.7-0.1-1-0.9-1.1
		c-4-0.5-8-1.2-12-1.8c-1-0.1-1.3-0.6-1.3-1.5c0.1-1.1,0-2.3,0-3.4c0-0.5-0.1-0.6-0.6-0.7c-3.4-0.6-6.8-1.2-10.1-1.9
		c-0.8-0.2-1.9-0.2-1.8-1.5c0-0.4-0.4-0.3-0.6-0.3c-3.1-0.6-6.1-1.3-9.2-1.9c-1.7-0.3-3.3-0.7-5-1c-1-0.2-1.5-0.9-1.5-1.9
		c0-3.9,0-7.7,0-11.6c0-1.5,1-2.6,1.7-3.9c1.3-2.5,2.7-4.9,4-7.4c1.2-2.3,3.1-3.8,4.9-5.6c0.2-0.2,0.4-0.3,0.6-0.4
		c2.1-2,4.2-4,6.3-6c1.1-1.1,1.7-1,2.7,0.2C153,47.9,154.9,50.2,156.9,52.6z"/>
	<path class="st0" d="M74.1,129.3c0,1.4,0,2.8,0,4.1c0,0.9-0.4,1.6-1.1,2c-3.4,1.9-6.7,3.8-10.1,5.7c-1,0.6-1.9,0.6-2.9-0.2
		c-4-3-8-5.8-12.1-8.7c-1-0.7-0.9-1.6-0.8-2.5c0.3-1.4,0.1-2.8,0.4-4.2c0.1-0.6,0-1.3,0.2-2c0.2-0.7,0.2-1.5-0.7-2
		c-0.9-0.5-0.7-1.4-0.2-2.1c1.6-2.2,3.2-4.5,4.8-6.7c0.7-1,1.4-2,2.1-2.9c0.7-1,1.5-1.1,2.6-0.5c3.8,2.2,7.5,4.4,11.3,6.6
		c1.3,0.7,1.9,2,2.7,3.1c1.1,1.4,2.1,2.8,3.2,4.3c0.4,0.6,0.7,1.2,0.7,2C74.1,126.7,74.1,128,74.1,129.3z"/>
	<path class="st0" d="M195.8,263.6c-0.2,1-0.4,1.8-0.6,2.6c-0.1,0.9-0.6,1.5-1.5,1.7c-0.9,0.2-1.5-0.4-2-1c-1.5-2.2-0.8-5,1.5-6.3
		c0.4-0.2,0.5-0.6,0.5-1.1c0.1-0.8,0.1-1.7,1.3-1.8c1-0.1,1.4,0.6,1.8,1.4c0.9,2,1.3,4,1.6,6.1c0.2,1,0.6,1.5,1.7,1.5
		c1.4,0,2.8-0.1,4.1-0.5c0.3-0.1,0.6,0,0.9,0c0.9-0.1,1.3,0.5,1.4,1.1c0.1,0.7-0.5,1.1-1.1,1.2c-1,0.2-2,0.4-3.1,0.5
		c-1.1,0.1-2.2,0.1-3.3,0c-1.7-0.1-2.7-1.4-3-3.3C196,265.1,195.9,264.4,195.8,263.6z"/>
	<path class="st0" d="M51.5,266.6c0.7-2,0.9-3.7,0.9-5.6c0-0.7,0.4-1.1,0.9-1.4c0.4-0.2,1-0.1,1.3,0.3c0.4,0.5,0.6,1.1,0.4,1.6
		c-0.3,0.9,0,1.7-0.2,2.5c-0.1,0.9,0.4,1.3,1.2,1.3c0.7,0,1.5,0.1,2.2-0.1c0.9-0.3,1.9,0.2,2,0.9c0.2,0.7-0.5,1.5-1.5,1.6
		c-1.4,0-2.8,0.3-4.2-0.2c-0.6-0.2-0.8,0-1.2,0.4c-0.8,1.1-1.8,1.4-3,0.8c-0.5-0.3-1.1-0.6-1.7-0.7c-0.5-0.1-0.9-0.6-0.8-1.3
		c0.3-1.6,0.6-3.2,1-4.7c0.2-0.8,0.6-1.1,1.4-1c0.8,0.1,0.9,0.7,0.9,1.4c0,0.9-0.4,1.8-0.3,2.8C51,265.7,51.1,266.1,51.5,266.6z"/>
	<path class="st0" d="M105,248.6c0.4-1.7-0.3-3.4-0.8-5.1c-0.1-0.4-0.1-0.7-0.1-1c0.1-0.9,0.4-1.6,1.4-1.7c1.1-0.1,1.4,0.9,1.6,1.7
		c0.1,0.5,0.2,1,0.3,1.5c0.4,2.7,2.1,4.3,4.9,4.6c0.7,0.1,1.4,0.3,2.2,0.3c0.7,0,1.2,0.4,1.2,1.3c0,0.8-0.5,1-1.2,1.1
		c-2.2,0.1-4.2-0.5-6.1-1.6c-0.8-0.4-1-0.3-1,0.6c0,0.5,0,1,0,1.5c0,0.6-0.3,1-0.9,1c-0.6,0.1-1.1,0-1.3-0.8
		C104.9,250.9,105.2,249.8,105,248.6z"/>
	<path class="st0" d="M118,217c-0.1,1.3-0.7,2.3-1.8,3c-0.5,0.4-1.1,0.7-1.7,0.3c-0.6-0.4-1.1-1.1-1.2-1.8c-0.1-0.5,0.4-1.1,1.1-1.2
		c0.8-0.2,1.1-0.8,1-1.6c-0.1-0.8,0-1.6,0-2.4c0-0.7,0.3-1.3,1-1.6c0.7-0.2,1.2,0.2,1.6,0.8c0.7,1.1,1.2,2.2,2.2,3.1
		c0.8,0.7,1.6,1.2,2.7,1.3c0.7,0,1,0.4,1.1,1.1c0.1,0.8-0.4,1.2-1.1,1.2c-1.4,0.2-2.6-0.5-3.7-1.3c-0.4-0.3-0.6-0.7-0.8-1.1
		C118.2,216.8,118.1,216.9,118,217z"/>
	<path class="st0" d="M185,229.6c0.7-1.1,1.3-2,2.4-2.6c0.8-0.4,1.3-0.3,1.8,0.4c0.5,0.7-0.1,1.4-0.4,1.6c-1.3,0.5-1.5,1.8-2.1,2.8
		c-0.8,1.2-1.6,1.9-2.9,0.8c-0.1-0.1-0.3-0.2-0.4-0.2c-1.8-0.4-1.8-0.4-1.8-2.3c0-1.2-0.2-2.4,0.2-3.6c0.2-0.7,0.5-1,1.2-1
		c0.8-0.1,1.2,0.4,1.4,1C184.5,227.5,184.7,228.5,185,229.6z"/>
	<path class="st0" d="M102.9,248c0.2,0,0.3,0,0.5,0c1.5,0,1.9,0.2,1.4,1.6c-0.6,1.6-2.2,0.4-3.3,0.7c-0.7,0.2-0.7-0.4-0.7-0.9
		C100.8,248,100.8,248,102.9,248z"/>
	<path class="st0" d="M127.5,167.9c0-1.1,0-2.1,0-3.2c0-0.9,0.5-1.3,1.2-1.4c0.7-0.1,1.2,0.5,1.2,1.2c0.1,2.3,0.1,4.5,0,6.8
		c0,0.6-0.5,1.2-1.3,1.1c-0.7-0.1-1.1-0.5-1-1.3C127.5,170.1,127.5,169,127.5,167.9z"/>
	<path class="st0" d="M194.5,171c0,0.9,0,1.9,0,2.8c0,0.9-0.3,1.6-1.2,1.7c-0.9,0.1-1.2-0.6-1.3-1.3c-0.2-2.2-0.3-4.4,0.1-6.7
		c0.1-0.8,0.6-1.1,1.3-1.1c0.7,0.1,1.1,0.6,1.1,1.3C194.5,168.9,194.5,169.9,194.5,171C194.5,171,194.5,171,194.5,171z"/>
	<path class="st0" d="M178.4,184.1c0-1.3,0-2.5,0-3.8c0-0.8,0.3-1.6,1.3-1.6c1,0,1.3,0.8,1.3,1.6c0,2.5,0,5.1,0,7.6
		c0,0.6-0.1,1.3-0.8,1.7c-0.5,0.2-0.9,0.1-1.2-0.2c-0.5-0.4-0.6-1-0.6-1.6C178.4,186.6,178.4,185.3,178.4,184.1z"/>
	<path class="st0" d="M153.6,183.6c0,1.3,0,2.6,0,3.9c0,0.9-0.4,1.5-1.2,1.5c-0.9,0-1.1-0.7-1.1-1.6c0-2.7,0-5.3,0-8
		c0-0.8,0.1-1.4,1-1.5c1,0,1.3,0.7,1.3,1.4C153.7,180.8,153.6,182.2,153.6,183.6z"/>
	<path class="st0" d="M92.3,210.3c0,0.9,0,1.9,0,2.8c0,0.6-0.3,1.1-0.9,1.1c-0.7,0.1-1.3-0.2-1.4-1c-0.1-2-0.1-4,0-6
		c0-0.5,0.4-1.1,1.2-1c0.7,0.1,1.1,0.5,1.2,1.2C92.3,208.4,92.3,209.4,92.3,210.3z"/>
	<path class="st0" d="M107.4,125.4c0.6,2.3-0.6,3.5-2.4,4.4c-0.8,0.4-1.4,1-2.2,1.4c-0.8,0.5-1.5,0.1-1.5-0.8c0-1.5,0-3,0-4.5
		c0-0.4,0.1-0.7,0.5-0.9c1.4-0.9,2.7-1.8,4.1-2.7c0.9-0.6,1.6-0.2,1.6,0.9C107.4,124,107.4,124.7,107.4,125.4z"/>
	<path class="st4" d="M216.3,110.8c0,0.2-0.3,0.2-0.5,0.3c-2.3,1.8-4.7,3.5-7.1,5.2c-2.8,2-5.6,4-8.4,6.1c-0.4,0.3-0.6,0.3-0.8-0.2
		c-2.3-4.7-4.5-9.4-6.8-14.1c-0.3-0.6,0.1-0.8,0.5-1.1c4.2-2.7,8.4-5.4,12.6-8.2c0.6-0.4,1.3-0.7,1.8-1.2c0.9-0.8,1.4-0.4,1.9,0.5
		c2.2,4,4.4,8.1,6.7,12.1C216.2,110.4,216.2,110.6,216.3,110.8z"/>
	<path class="st4" d="M201.5,75.3c-1.6,4.7-3.2,9.3-4.8,13.9c-0.1,0.4-0.2,0.7-0.8,0.5c-3.1-0.6-6.3-1-9.5-1.6
		c-2.6-0.4-5.2-0.9-7.7-1.3c-1.1-0.2-2.1-0.3-3.2-0.5c-0.5-0.1-0.6-0.2-0.4-0.7c2.2-4,4.3-8.1,6.5-12.1c0.1-0.2,0.1-0.4,0.6-0.3
		c2.7,0.3,5.4,0.6,8.1,0.9c3.2,0.4,6.4,0.8,9.7,1.2C200.4,75.3,200.9,75.3,201.5,75.3z"/>
	<path class="st4" d="M177.4,76.4c-3.3-5-6.4-9.8-9.6-14.6c-0.3-0.5-0.2-0.7,0.1-1c3.5-3.2,7-6.5,10.4-9.9c0.4-0.4,0.7-0.6,1.1,0.1
		c1.7,3.1,3.5,6.1,5.3,9.2c1.1,1.9,2.2,3.7,3.2,5.6c0.4,0.6,0.4,1.1-0.2,1.6c-1,0.9-2,1.9-2.9,2.9c-0.7,0.7-1.4,0.8-2.2,0.6
		c-1.8-0.5-2.3-0.2-3.2,1.4C178.9,73.7,178.2,74.9,177.4,76.4z"/>
	<path class="st3" d="M166.3,64c2,3,4,5.9,5.9,8.9c1.1,1.7,2.3,3.4,3.4,5.2c0.2,0.3,0.5,0.6,0.2,1.2c-1.1,2.1-2.2,4.3-3.4,6.5
		c-0.9-1.4-2.3-1.1-3.5-1.5c-0.6-0.2-1.3-0.2-2-0.3c-1.6-0.3-2.3,0.1-2.3,1.8c0,1.9,0,3.8,0,5.7c0,0.9-0.2,1.1-1.2,1
		c-1.4-0.1-1.4-0.8-1.4-1.9c-0.1-5.3,0.5-10.7,0.2-16c0-0.6,0.3-1.1,0.5-1.6c0.9-2.7,1.9-5.4,2.8-8C165.8,64.6,165.9,64.3,166.3,64z
		"/>
	<path class="st4" d="M217.7,107.9c7,0,13.9,0,20.9,0c0.5,0,0.7,0.1,0.8,0.7c0.4,2.6,0.1,5.1,0.2,7.7c-1.7-0.9-2.7-2.5-4.2-3.5
		c-1-0.7-1.5-0.4-2.1,0.5c-0.7,1.1-1.2,2.2-1.8,3.4c-0.4,0.8-0.9,1.4-2,1.2c-3.3-0.5-6.7-0.1-10.1-0.2c-0.8,0-1.5-0.1-2.3-0.2
		c-0.2,0-0.4,0-0.5-0.1c-0.7-0.6-0.4-3.6,0.4-4.1c2.3-1.5,2.3-1.6,0.9-4.2C218,108.6,217.6,108.4,217.7,107.9z"/>
	<path class="st3" d="M138.9,58.4c2.7,3.4,5.4,6.7,8,10.1c0.2,0.3,0.3,0.6,0.3,1c0,4.1,0,8.3,0,12.4c0,0.5,0,1-0.7,0.6
		c-0.2-0.1-0.5,0-0.8-0.1c-1-0.2-2.4-0.2-3-0.8c-0.7-0.7-0.2-2.1-0.2-3.2c0-0.9,0-1.9,0-2.8c0-2-0.4-2.5-2.4-2.8
		c-1.2-0.2-2.4-0.3-3.6-0.5c-1.1-0.2-1.8,0.3-1.8,1.4c0,1.8,0,3.6,0,5.4c0,0.3,0.3,0.9-0.4,0.9c-0.6,0-0.8-0.4-0.8-1
		c0-3.5,0-7,0-10.5c0-1.1,0.9-2,1.4-3C136.2,63.1,137.6,60.8,138.9,58.4z"/>
	<path class="st4" d="M237.2,136.3c-3.1-2.6-5.9-5-8.9-7.4c-0.5-0.4-0.2-0.7-0.1-1c2.1-3.9,4.2-7.8,6.3-11.8
		c0.2-0.4,0.4-0.5,0.8-0.2c0.1,0.1,0.3,0.1,0.4,0.2c2.4,2.3,4.8,4.5,7.3,6.8c0.3,0.3,0.5,0.5,0.3,1C241.2,128,239.1,132,237.2,136.3
		z"/>
	<path class="st4" d="M161.8,68.8c-1.8-4.1-3.6-8-5.3-11.9c-0.2-0.4-0.1-0.5,0.2-0.8c3.2-3.1,6.5-6.1,9.8-9.1
		c0.6-0.5,1.1-1.1,1.7-1.7c0.4-0.4,0.6-0.3,0.9,0.2c1.1,2.4,2.2,4.7,3.3,7.1c0.2,0.4,0.2,0.7-0.1,1c-2.3,2.1-4.6,4.3-6.9,6.4
		c-0.9,0.8-1,2.1-1.4,3.1C163.1,64.9,162.5,66.8,161.8,68.8z"/>
	<path class="st3" d="M154.7,58.9c1.9,4.2,3.8,8.4,5.7,12.7c0.2,0.3,0.2,0.7,0,1c-0.5,1-0.4,2.1-0.4,3.2c-0.1,3.3-0.2,6.6-0.2,9.8
		c0,0.3,0.1,0.7-0.4,0.7c-0.5,0-0.3-0.5-0.3-0.7c0-2.2,0-4.3,0-6.5c0-1.4-0.4-1.8-1.7-2c-1.1-0.2-2.2-0.4-3.3-0.6
		c-1.6-0.3-2.6,0-2.5,2c0.1,1.8,0,3.5,0,5.3c0,0.4,0.1,1-0.6,0.9c-0.6-0.1-1.3,0-1.3-0.9c0-5,0-10,0-15c0-0.3,0.1-0.5,0.2-0.8
		c1.5-3,3-5.9,4.5-8.9C154.4,59,154.4,58.8,154.7,58.9z"/>
	<path class="st3" d="M238.3,151.5c0.8-4.4-0.2-8.7,0.6-12.9c0.2-1.3,1-2.5,1.6-3.7c1.4-2.9,2.8-5.7,4.3-8.6
		c0.1-0.1,0.2-0.2,0.3-0.5c1.6,3.1,3.3,6.2,4.8,9.3c0.6,1.2,0.3,2.6,0.2,3.8c-0.2,1.8-0.1,3.5-0.2,5.3c0,2.2-0.1,2.3-2.4,2.9
		c0-2.9,0-5.7,0-8.6c0-0.8-0.1-1.6-0.8-2c-0.7-0.4-1.3,0.1-2,0.4c-0.1,0.1-0.2,0.2-0.4,0.3c-2.7,0.7-3,2.7-2.8,5.1
		c0.2,2.4,0.1,4.8-0.2,7.1c-0.1,0.5-0.2,0.8-0.7,1C240,150.8,239.2,151.1,238.3,151.5z"/>
	<path class="st4" d="M155.1,54.3c-2.3,1.6-3.1,4.1-4.3,6.3c-1,1.8-1.8,3.6-2.7,5.5c-2-2.6-3.9-5.2-5.8-7.7c-0.4-0.5-0.9-1-1.4-1.5
		c-0.5-0.5-0.5-0.9,0.1-1.4c3-2.4,5.6-5.1,8.2-7.8c0.4-0.4,0.5-0.4,0.9,0.1C151.6,50,153.4,52.1,155.1,54.3z"/>
	<path class="st3" d="M188.3,129.7c-1.4,0.1-1.7-0.5-1.7-1.7c0.1-2.9,0-5.8,0-8.7c0-0.6,0.1-1.2,0.4-1.8c1.2-2.4,2.4-4.9,3.8-7.5
		c1,2,2,3.8,2.9,5.7c1.3,2.8,2.6,5.6,4,8.3c0.4,0.8,0.6,1.6,0.6,2.5c0,1.5-0.1,3,0.2,4.4c0.2,0.9-0.2,1.3-1.2,1
		c-2.1-0.6-2.1-0.5-2.1-2.7c0-1.9,0-3.8,0-5.7c0-1.1-0.3-1.7-1.5-1.9c-1.2-0.2-2.3-0.7-3.5-1c-1.2-0.3-1.9,0.2-1.9,1.4
		C188.3,124.5,188.3,127.1,188.3,129.7z"/>
	<path class="st3" d="M227.8,131.5c2.8,2.3,5.3,4.4,7.9,6.6c0.3,0.2,0.6,0.5,0.6,1c0,3.9,0.1,7.7-0.4,11.7c-1.6-1.6-3.2-3.1-4.8-4.7
		c-0.3-0.3-0.7-0.7-1.1-0.9c-2.2-1.3-2.1-3.6-2.2-5.6C227.7,136.9,227.8,134.3,227.8,131.5z"/>
	<path class="st3" d="M200.8,131.7c0-1.5,0.1-2.8-0.2-4.1c-0.4-1.9,0.7-2.9,2.1-3.9c3.4-2.4,6.8-4.9,10.1-7.3
		c0.3-0.2,0.7-0.4,1.1-0.6c0.5,2.5,0.4,4.9,0.4,7.3c0,0.4-0.3,0.6-0.6,0.8C209.5,126.3,205.3,128.9,200.8,131.7z"/>
	<path class="st3" d="M176.3,92.8c0-1,0-2,0-3.1c0-0.6,0.1-0.9,0.8-0.7c5.6,0.9,11.2,1.9,16.7,2.8c0.9,0.1,1.4,0.4,1.4,1.5
		c0.1,2.7,0.4,5.3,0.6,8c0,0.5,0,0.6-0.6,0.5c-1.6-0.5-3.3-0.9-4.9-1.3c-0.6-0.2-0.8-0.5-0.8-1.1c0-1.8,0.1-3.7-0.1-5.5
		c-0.2-1.2-0.8-1.6-1.8-1.8c-2.4-0.4-4.8-0.8-7.2-1.2c-1.3-0.2-1.9,0.3-1.9,1.6c0,1.3,0,2.5,0,3.8c0,0.4,0.2,1.1-0.4,0.9
		c-0.6-0.1-1.6,0.1-1.7-1C176.3,95,176.3,93.9,176.3,92.8z"/>
	<path class="st3" d="M202.2,81.6c0.1,1.8,0.1,3.7,0.2,5.5c0.1,2.9,0.2,5.7,0.4,8.6c0.2,1.9-0.5,2.8-2,3.6c-0.6,0.3-1.2,0.7-1.8,1.1
		c-0.8,0.7-1.1,0.2-1.1-0.5c0-1.4-0.1-2.7-0.3-4.1c-0.1-0.9,0.1-1.8-0.2-2.7c-0.1-0.2-0.1-0.6,0.1-0.7c1.6-1.3,1.6-3.3,2.2-5
		c0.8-1.9,1.4-3.9,2.1-5.9C202,81.6,202.1,81.6,202.2,81.6z"/>
	<path class="st3" d="M229.5,120.2c-0.1,0.3-0.3,0.5-0.4,0.8c-0.8,2.9-2.7,3.7-5.6,3.4c-2-0.2-4-0.4-6-0.3c-0.2,0-0.5,0-0.6-0.2
		c-0.4-1.2-0.3-2.5-0.2-3.7c0-0.4,0.4-0.3,0.7-0.3C221.4,119.9,225.4,119.8,229.5,120.2z"/>
	<path class="st4" d="M167.3,86.5c0.9,0.2,2.1-0.1,2.5,0.6c0.4,0.6,0.1,1.7,0.1,2.5c0,0.9,0,1.7,0,2.6c0,0.6,0.1,1.3-0.8,1
		c-0.7-0.2-1.8,0.3-1.8-1.1C167.4,90.2,167.3,88.4,167.3,86.5z"/>
	<path class="st4" d="M156.7,85.8c-0.9-0.2-2.1-0.1-2.4-0.6c-0.4-0.6-0.2-1.7-0.2-2.6c0-0.9,0-1.9,0-2.8c0-0.7,0.3-0.9,0.8-0.6
		c0.3,0.2,0.7,0.1,1,0.2c0.4,0.1,0.8,0.2,0.8,0.8c0,1.5,0,3.1,0,4.6C156.7,85.1,156.7,85.5,156.7,85.8z"/>
	<path class="st4" d="M192.8,127.3c0,0.9,0,1.7,0,2.6c0,0.3,0.2,1-0.4,0.8c-0.6-0.2-1.6,0.3-1.7-0.8c-0.1-2.1,0-4.1,0-6.2
		c0-0.2,0-0.4,0.3-0.5c1.1-0.1,1.8,0.5,1.8,1.6C192.8,125.7,192.8,126.5,192.8,127.3z"/>
	<path class="st4" d="M137.2,74.7c0.8,0.2,2-0.1,2.4,0.6c0.4,0.6,0.1,1.7,0.1,2.5c0,0.7,0,1.5,0,2.2c0,0.4,0.3,1-0.5,0.9
		c-0.7-0.1-1.7,0.2-1.8-0.9C137.3,78.3,136.9,76.5,137.2,74.7z"/>
	<path class="st4" d="M187.2,97.6c0,0.2,0,0.3,0,0.3c0,1.9-0.2,2-2,1.3c-0.5-0.2-0.3-0.5-0.3-0.7c0-1.1,0-2.3,0-3.4
		c0-0.3-0.2-0.9,0.5-0.8c0.6,0.1,1.5-0.1,1.6,0.7C187,95.8,187.4,96.8,187.2,97.6z"/>
	<path class="st4" d="M245.2,139.7c0,2.8,0,5.4,0,8.1c0,0.8-0.6,0.8-1.2,1.1c0-2.7,0-5.3,0-7.9C244,140.1,244.4,139.9,245.2,139.7z"
		/>
	<path class="st3" d="M172.3,91c0-0.5,0-1.1,0-1.6c0-0.4-0.3-1,0.4-1c0.5,0.1,1.3-0.1,1.2,1c-0.1,1.3,0,2.6,0,3.9
		c0,0.3,0.1,0.8-0.4,0.7c-0.4-0.1-1.2,0.1-1.3-0.7C172.3,92.5,172.3,91.7,172.3,91C172.3,91,172.3,91,172.3,91z"/>
	<path class="st4" d="M182.4,98.2c-1.3,0.2-1.5-0.5-1.4-1.5c0.1-0.9,0-1.7,0-2.6c0-0.4,0-0.7,0.5-0.7c0.5,0,0.6,0.1,0.7,0.6
		C182.5,95.5,182.4,96.9,182.4,98.2z"/>
	<path class="st4" d="M65.4,117.8c-0.2,0.3-0.3,0.6-0.5,0.9c-1.5,2.7-3.1,5.4-4.6,8.1c-0.3,0.6-0.5,0.7-1.1,0.3
		c-3-2.1-6.2-4.2-9.2-6.3c-0.5-0.3-0.7-0.6-0.2-1.3c1.8-2.4,3.5-4.9,5.2-7.3c0.3-0.4,0.5-0.4,0.8-0.2c3.1,1.8,6.1,3.6,9.2,5.4
		C65.1,117.6,65.4,117.5,65.4,117.8z"/>
	<path class="st3" d="M60.3,138.1c-2.7-1.9-5.2-3.7-7.6-5.4c-0.4-0.3-0.8-0.6-1.3-0.8c-1.5-0.8-2.2-1.9-1.8-3.6
		c0.4-1.4,0-2.9,0.6-4.4c2,1.3,3.9,2.7,5.8,4c1.2,0.8,2.4,1.7,3.7,2.4c0.5,0.3,0.7,0.6,0.8,1.2C60.5,133.6,60,135.7,60.3,138.1z"/>
	<path class="st3" d="M67.4,119.3c1.3,1.8,2.6,3.5,3.9,5.2c0.3,0.4,0.3,0.7,0.3,1.1c0,2.3,0,4.6,0,7c0,0.9-0.3,1.3-1.2,1.4
		c0-1.7,0-3.3,0-5c0.1-1.8-0.8-2.5-2.4-1.6c-0.8,0.4-1.5,0.8-2.2,1.3c-0.7,0.4-0.9,1-1,1.8c-0.3,2.2-0.2,4.3-0.2,6.5
		c0,1.3-1.2,1.1-2,1.9c0.5-3.9,0.2-7.4,0.4-10.9c0.1-1.4,1.2-2.4,1.8-3.6C65.5,122.4,66.5,120.9,67.4,119.3z"/>
	<path class="st4" d="M67.7,130.3c0,1.7,0,3.3,0,5c0,0.5-0.4,0.6-0.7,0.7c-0.4,0.1-0.3-0.4-0.3-0.6c0-1.5,0.4-2.9,0.2-4.4
		C67,130.6,67.2,130.4,67.7,130.3z"/>
	<path class="st4" d="M105.4,125.1c0.8,2.1-0.9,2.6-2.1,3.4C102.9,126.4,103,126.4,105.4,125.1z"/>
	<path class="st0" d="M169.2,75.8c0,0.8,0.1,1.4,0,2c-0.1,0.6-0.4,1.2-1.1,1.3c-0.8,0.1-1.2-0.4-1.3-1c-0.2-1.5-0.3-2.9,0.1-4.4
		c0.2-0.6,0.6-0.9,1.1-0.9c0.5,0,0.9,0.2,1.1,0.8C169.3,74.4,169.2,75.2,169.2,75.8z"/>
	<path class="st0" d="M140.2,65.5c0,0.4,0,0.9,0,1.3c0,0.7-0.3,1.1-1,1.2c-0.8,0.1-1.2-0.3-1.3-1c-0.1-1-0.1-2.1,0-3.2
		c0.1-0.7,0.7-1,1.3-1c0.6,0,1,0.5,1,1.1C140.2,64.4,140.2,65,140.2,65.5C140.2,65.5,140.2,65.5,140.2,65.5z"/>
	<path class="st0" d="M153.7,69.3c0-0.6,0-1.2,0-1.9c0-0.7,0.4-1,1.1-1.1c0.7-0.1,1.1,0.3,1.2,0.8c0.2,1.4,0.2,2.8,0,4.2
		c0,0.5-0.5,1-1.2,0.9c-0.6-0.1-1-0.5-1.1-1.2C153.6,70.5,153.7,69.9,153.7,69.3z"/>
</g>
<g id="g9434" transform="translate(-6.6129748,16.651694)">
	<rect id="rect3069-6-9" x="6.7" y="-16.7" class="st5" width="283.4" height="283.2">
	</rect>
	<path id="path3845-9-7-4" class="st5" d="M154.7,158.7h38.5"/>
	<path id="path3847-1-1" class="st5" d="M194,144.5l-0.9,30.2c-0.3,8.4,18.9,8.7,23.5,5.8"/>
	<path id="path3849-3-3" class="st5" d="M217.7,146l-0.5,35.2"/>
	<path id="path3851-8-3" class="st5" d="M192.3,143.4c7.6,4.2,21.5,4,27.7,0.9"/>
	<path id="path3853-8-9" class="st5" d="M192.3,143.2l14.3-23.2l13.7,24.5"/>
	<path id="path3855-9-0" class="st5" d="M200.2,151.2v6.8"/>
	<path id="path3857-4-4-5" class="st5" d="M153.3,141.8v34.8"/>
	<path id="path3861-9-7-9" class="st5" d="M126,139.1c6.8,4.5,23,3.7,30.2,1.2"/>
	<path id="path3863-5-4" class="st5" d="M135.3,148.2v6.8"/>
	<path id="path3865-1-1" class="st5" d="M153.3,176.7c-3.6,4.1-11,6.1-20.1,4.1"/>
	<path id="path3867-7-8" class="st5" d="M154,149.9h34.7l4.8,5.8"/>
	<path id="path3869-4-0" class="st5" d="M154,176.4l12.2-0.3"/>
	<path id="path3871-5-8" class="st5" d="M180.5,176l13,0.3"/>
	<path id="path3873-1-8" class="st5" d="M166.4,175.9l-0.1-8.3c4.5-6.2,9.1-6,13.6-0.3l0.3,8.2"/>
	<path id="path3875-4-1" class="st5" d="M166.8,175.7l3.9-3.7l-0.2-7.5"/>
	<path id="path3879-6-7" class="st5" d="M159.1,162.8v8.8"/>
	<path id="path3879-0-0-2-4" class="st5" d="M186.6,163.5v8.8"/>
	<path id="path3917-3-3" class="st5" d="M132.3,165.1l0.9,15.7L106,206.6v-22.1c-3.3,4.2-10.3,2.9-15.3,1l0.3,21.8
		c5,1.8,10.7,2.3,15-0.7"/>
	<path id="path3919-2-0" class="st5" d="M90.7,184.9l7.8-12.2l7.5,10.9"/>
	<path id="path3921-2-6" class="st5" d="M97.5,191.3v5.8"/>
	<path id="path3923-1-0" class="st5" d="M106.4,189l25.8-24.5l-5.8-2l-21.1,19.7"/>
	<path id="path3925-4-4" class="st5" d="M90.4,207l-26.2,8.5l-20.7,16.3l-35.7,35"/>
	<path id="path3947-7-8" class="st5" d="M216.5,181.7l19.6,32l22.7,20.1l30.5,31.4"/>
	<path id="path3949-7-0" class="st5" d="M118.9,154.9l-14.3-7.2l-14.3,15l-20.4-10.2l18.1-15l16.9,10.2"/>
	<path id="path3951-0-3" class="st5" d="M90.3,163.4l0.3,16.3l-19.4-11.9l0.3-13.3"/>
	<path id="path3953-9-9" class="st5" d="M115.8,154.5v17.7"/>
	<path id="path3955-5-4" class="st5" d="M61.4,197.9l-10.5-6.9l8.9-8.5l12.5,6.6"/>
	<path id="path3957-7-5" class="st5" d="M51.8,192.1V204"/>
	<path id="path3959-2-1" class="st5" d="M70.2,153.9l-7.5,2l-6.5-18.7l16-8.2l6.1,15.7"/>
	<path id="path3961-9-1-5" class="st5" d="M62,154.5c0.2-0.1,0.5,12.4,0.7,17.8l9.2-3.4"/>
	<path id="path3963-7-0" class="st5" d="M55.9,137.2l-3.4,15.3"/>
	<path id="path3965-6-7" class="st5" d="M61.9,172.6l-9.1-3.4l-0.3-17.7"/>
	<path id="path3967-8-0" class="st5" d="M258.9,118.5l-6.5-12.3l-7.5,15.3l-0.3,15.3l14-6.5L258.9,118.5z"/>
	<path id="path3969-2-4-6" class="st5" d="M252.6,106.5l-10.7-9.8l-8.2,15.3l11.2,9.5"/>
	<path id="path3971-9-5" class="st5" d="M233.7,112l0.3,15l9.5,9.3"/>
	<path id="path3973-9-1-90" class="st5" d="M225.2,94.3l-18.7,13.6l-8.5-17.7l18.4-11.9L225.2,94.3z"/>
	<path id="path3975-8-4" class="st5" d="M206.5,108.6l0.3,8.5l16-9.9l-0.3-10.6"/>
	<path id="path3977-3-2" class="st5" d="M198.3,89.5l-5.8,11.6v12.6l13.6,3.1"/>
	<path id="path3979-7-4" class="st5" d="M223.2,89.9H248l0.3,11.2"/>
	<path id="path3981-1-0" class="st5" d="M222.8,101.8l15.7,0.3"/>
	<path id="path3983-2-6" class="st5" d="M221.8,108.6l13.7,0.3"/>
	<path id="path3985-6-7-0" class="st5" d="M204.4,74.2l-24.5-4.1l8.2-15.3l22.1,2.4L204.4,74.2z"/>
	<path id="path3987-1-1" class="st5" d="M210.2,58.5l1,22.1"/>
	<path id="path3989-7-5" class="st5" d="M203.4,74.9l0.7,10"/>
	<path id="path3991-6-9" class="st5" d="M181.9,70.8v9.9l21.5,5.7"/>
	<path id="path3993-5-1-0" class="st5" d="M186.4,31.3l10.6,18.4l-5,5.2"/>
	<path id="path3995-0-5" class="st5" d="M184,60.9l-11.2-17l13.6-12.9"/>
	<path id="path3997-4-0-1" class="st5" d="M172.6,43.8L168,56.8l-0.3,19.4l14,2"/>
	<path id="path3999-5-0" class="st5" d="M180.6,35.4l-4.8-9.9l-14.3,13.3l6.8,15.3"/>
	<path id="path4001-1-5" class="st5" d="M160.8,39.5L155,51v17.4l12.6,2.4"/>
	<path id="path4003-2-9" class="st5" d="M163.2,36.7l-6.8-8.5l-10.9,10.6l8.9,11.6"/>
	<path id="path4005-3-4" class="st5" d="M145.1,39.5L139,50.7v12.9l14.6,3.1"/>
	<path id="path4007-7-3" class="st5" d="M195.2,52.4v2.2"/>
	<path id="path4015-2-4" class="st5" d="M121,88.5l-3.7,17.4l27,0.4l3.3-16.7L121,88.5z"/>
	<path id="path4017-4-4-4" class="st5" d="M117.2,107.2l0.3,10.9l26.6,0.3l-0.1-11.9"/>
	<path id="path4019-1-4" class="st5" d="M147.2,90.3l0.6,23.5l-3.1,4.3"/>
	<path id="path4021-8-4-9" class="st5" d="M116.2,115l-14.6,9.2l-0.3-14.3l17-10.2"/>
	<path id="path4023-2-3" class="st5" d="M101.2,110.3l-6.1-15.7L114.5,82l6.1,8.5"/>
	<path id="path4025-6-5" class="st5" d="M95,94.4l-7.1,10.5v14.3l13.6,4.8"/>
	<path id="path4027-0-7" class="st5" d="M108,86.4l7.2-18l5.4,11.2v7.8"/>
	<path id="path4029-3-7" class="st5" d="M115.7,68.6l-16.5-8L91,78.3l16.2,7.5"/>
	<path id="path4031-9-7" class="st5" d="M91.7,79.6L91,99.4"/>
	<path id="path4033-4-2" class="st5" d="M73.3,100.4L61,93.3l-7.5,10.6l12.9,8.8L73.3,100.4z"/>
	<path id="path4035-9-4-7" class="st5" d="M73.6,100.5l5.5,7.4v9.5l-11.6,6.5l0.3-13.6"/>
	<path id="path4037-6-2" class="st5" d="M54.9,105.9l-0.7,8.5l13.1,9.3"/>
	<path id="path4064-5-9" class="st5" d="M6.6,239.1l4.1-3.5l-0.4-4.4l3.3-2.9l0.2,5.3l4.3-3.5l-0.4-4.5l3.5-2.7l0.4,4.4l4.7-3.2
		v-5.6l3.7-3.1l0.2,4.7l4.7-4.5l0.6-4.8l3.5-3.1l0.6,5.2l4.9-3.7v-5.3l3.7-2.4l0.4,4.8l4.9-3.4l-0.4-5l4.5-2.9l0.6,5.8l4.3-3.1
		l-0.4-5l4.7-1.5l0.4,4.5l4.7-1.1l-0.2-4.8l4.9-1.6l0.6,5.6l5.1-1.5l-0.6-5.3L86,186l0.8,4.7l3.7-1.1"/>
	<path id="path4091-1-9" class="st5" d="M290.1,241.6l-4-3.3l0.7-8.5l-4.6-4.8l-0.9,8l-5.3-5.6l0.7-8.7l-4.3-4.6l-1,8.5l-5.4-5.3
		l0.5-8.8l-4.3-4.1l-0.7,8.7l-5.6-4.6l1-9l-5.4-4.4l-0.7,8.2l-6-4.8l0.5-9l-4.8-4.9l-0.7,9l-4.8-6.6l0.9-10.4l-3.7-6.6l-0.9,11
		l-3.6-7.5l0.4-8.4l-3.6-6.1l-1,9.7l-6-8.8"/>
	<path id="path4093-3-3" class="st5" d="M142.9,64l-0.2-8l5.2,0.9V65"/>
	<path id="path4093-0-2-7" class="st5" d="M159.5,69.2v-8.7l5.2,0.9v8.1"/>
	<path id="path4093-8-6-0" class="st5" d="M172.8,76.7v-8.7l5.2,0.9v8.1"/>
	<path id="path4120-9-0" class="st5" d="M174.7,56.7v4.1"/>
	<path id="path4120-0-0-6" class="st5" d="M161.5,50.1v3.7"/>
	<path id="path4120-6-0-6-2" class="st5" d="M145.8,46.8l0,2.9"/>
	<path id="path4147-3-2" class="st5" d="M186.6,81.6v-6.7l8.5,1.6l0.3,7.2"/>
	<path id="path4149-9-5" class="st5" d="M190.4,76l0.1,6.8"/>
	<path id="path4151-5-8" class="st5" d="M124.1,117.9v-7.8l11.7,0.2v7.8"/>
	<path id="path4153-3-6" class="st5" d="M129.7,110.3v7.6"/>
	<path id="path4155-1-1" class="st5" d="M92.2,120.3c-0.2-2.6,0-5.1,0.2-8.8l3.3,1.4v8.5"/>
	<path id="path4177-6-4" class="st5" d="M71.8,121.1l0.2-8l3.2-1.9l0,8.2"/>
	<path id="path4179-9-7" class="st5" d="M55.2,169.4L55,158.2l4,1.6l0.3,11.3"/>
	<path id="path4181-1-8-0" class="st5" d="M91.4,180.2l2.4-0.7"/>
	<path id="path4183-9-0" class="st5" d="M76.1,170.6v-10l8.2,4.4v10.7"/>
	<path id="path4185-0-2" class="st5" d="M196.5,114.2v-9.5l4.5,1.3v8.7"/>
	<path id="path4189-6-7" class="st5" d="M250.2,134l0.2-11.2l3.5-1.8v10.5"/>
	<path id="path4485-5" class="st5" d="M108.7,109.2v4.6l4.3-2.9v-4.6L108.7,109.2z"/>
	<path id="path4487-1" class="st6" d="M127.8,162.2l0.4-21.9"/>
	<path id="path4489-6" class="st5" d="M125.5,138.7l15.2-20.3l15.2,21.1"/>
	<path id="path4491-4-4" class="st5" d="M55.1,251.4c2.9-11-1.5-0.4,2.1,0.8c2.6,0.9,2.4-7.1,2.5-7.1c0.2,0-0.2,4,0,4.6
		c0.7,2,3.7,1.3,5.4,1.3"/>
	<path id="path4493-0-3" class="st5" d="M200.1,250.9C202.9,241.7,197.1,248,200.1,250.9c1.9,1.9,1.3-9.9,2.5-7.5
		c3.6,7.2-1.4,10.3,10,8.4"/>
	<path id="path4495-5" class="st5" d="M189.6,215.4c-0.1-11.9,0.9,2.8,2.5,0.4c1.8-2.7,1-2.8,2.9-3.8"/>
	<path id="path4497-8" class="st5" d="M121.1,202.5c4-1.9-2.2,3,2.1-0.4c0.3-0.2,0-4.5,0-4.6c0-3,1.3,4.6,6.3,4.6"/>
	<path id="path4499-9" class="st5" d="M112.8,235.9c0.8-21.1-6-1.7,8.4-1.7"/>
	<path id="path4501-2" class="st6" d="M111.1,233.4c-1.3,0-2.5,0-3.8,0"/>
</g>
</svg>
