<?xml version="1.0" encoding="utf-8"?>
<!-- Generator: Adobe Illustrator 25.0.0, SVG Export Plug-In . SVG Version: 6.00 Build 0)  -->
<svg version="1.1" id="Layer_2_1_" xmlns="http://www.w3.org/2000/svg" xmlns:xlink="http://www.w3.org/1999/xlink" x="0px" y="0px"
	 viewBox="0 0 283.5 283.5" style="enable-background:new 0 0 283.5 283.5;" xml:space="preserve">
<style type="text/css">
	.st0{fill:none;stroke:#000000;stroke-width:2.7744;stroke-miterlimit:10;}
	.st1{fill:%user-color%;stroke:#000000;stroke-width:2.7744;stroke-miterlimit:10;}
	.st2{fill:none;}
	.st3{font-family:'ff-brokenscript-web';}
	.st4{font-size:92px;}
</style>
<g>
	<line class="st0" x1="12.6" y1="125.8" x2="63.9" y2="168.8"/>
	<line class="st0" x1="83.7" y1="59" x2="142.3" y2="113.1"/>
	<line class="st0" x1="112.4" y1="7.1" x2="167.1" y2="62.4"/>
	<path class="st1" d="M18.9,215.7l58.9,54.6l5.9,5c11.3,5.6,31.5,2.1,47.5-0.3c36.8-5.5,44.5-67.1,44.5-67.1
		c28.2,55.3,53.1,49,89,40.3s-29.9-82.9-29.9-82.9c40-21.5,45.4-39.2,39.1-49.1l-57.3-52.7c-5.9-7.1-19.5-11.6-32.6-14.4l-39.2-37.3
		l3.1,3.1C142,8.4,134.2,3,117.1,6.1C73.4,14,83.7,59,83.7,59C20.9,86.9,3.5,104.1,5.3,114.7c2.8,16.1,39.8,31.4,36,36.8
		C15.9,188.9,13,206.1,18.9,215.7L18.9,215.7l58.9,54.6"/>
	<line class="st0" x1="144.8" y1="11.8" x2="197.4" y2="61.5"/>
	<line class="st0" x1="12.6" y1="125.8" x2="63.9" y2="168.8"/>
	<line class="st0" x1="118.8" y1="5.2" x2="173.5" y2="60.5"/>
	<line class="st0" x1="144.8" y1="11.8" x2="197.4" y2="61.5"/>
	<path class="st1" d="M114.1,185.8c0,0-130.1-2.4,28.2-72.7c0,0-10.3-45,33.4-52.9s35.1,38.7,35.1,38.7s134.3,7.1,24,66.3
		c0,0,65.9,74.2,29.9,82.9c-36,8.7-60.8,15-89-40.3c0,0-7.7,61.6-44.5,67.1C94.4,280.5,35.4,291.6,114.1,185.8z"/>
	<line class="st0" x1="83.7" y1="59" x2="142.3" y2="113.1"/>
</g>
<rect x="151.2" y="125.8" class="st2" width="71.7" height="68.1"/>
<text transform="matrix(0.9447 -0.1471 3.360150e-03 1 140.9003 190.4552)" class="st3 st4">%meeple-initials%</text>
</svg>
