<?xml version="1.0" encoding="utf-8"?>
<!-- Generator: Adobe Illustrator 25.0.0, SVG Export Plug-In . SVG Version: 6.00 Build 0)  -->
<svg version="1.1" id="Layer_1" xmlns="http://www.w3.org/2000/svg" xmlns:xlink="http://www.w3.org/1999/xlink" x="0px" y="0px"
	 viewBox="0 0 283.5 283.5" style="enable-background:new 0 0 283.5 283.5;" xml:space="preserve">
<style type="text/css">
	.st0{fill:#FFFFFF;}
	.st1{fill:#87AD50;}
	.st2{fill:#C3895F;}
	.st3{fill:#BBA78E;}
	.st4{fill:#EE663C;}
	.st5{fill:#214E26;}
	.st6{fill:none;stroke:#010101;stroke-width:1.7793;stroke-linecap:round;stroke-linejoin:round;}
	.st7{fill:none;stroke:#010101;stroke-width:1.7793;stroke-linecap:round;stroke-linejoin:round;stroke-miterlimit:5.0267;}
</style>
<g id="g8093" transform="translate(34.923233,214.21988)">
	<g>
		<path class="st0" d="M248.5-72.4c0,46.8,0,93.7,0,140.5c0,0.9-0.2,1.1-1.1,1.1c-93.8,0-187.5,0-281.3,0c-0.9,0-1.1-0.2-1.1-1.1
			c0-93.8,0-187.5,0-281.3c0-0.9,0.2-1.1,1.1-1.1c93.8,0,187.5,0,281.3,0c0.9,0,1.1,0.2,1.1,1.1C248.5-166.2,248.5-119.3,248.5-72.4
			z"/>
		<path class="st1" d="M230.9,43.7c-1.4-1.6-2.8-3.1-4.2-4.7c-2-2.2-3.9-4.5-5.9-6.7c-0.9-1.1-1.8-2.1-2.7-3.2
			c-1-1.2-2.2-1.9-3.5-2.7c-4.7-3.1-9.4-6.1-14.1-9.1c-7.9-5.1-15.9-10.2-23.8-15.4c-5.2-3.3-10.3-6.7-15.4-10.2
			c-1.9-1.3-3.8-2.6-6-3.2c-4.1-1.2-8.1-0.7-12.1,0.9c-1,0.4-1.9,0.7-3,0.7c-16.1,0-32.1,0-48.2,0c-1.8,0-3.3-0.7-5-0.9
			c-3.5-0.5-6.8-0.2-9.8,1.7c-0.4,0.2-0.7,0.5-1.2,0.4c-2.7-0.6-5-0.1-7.2,1.7c-2,1.6-4.2,2.9-6.2,4.5c-4.6,3.7-9.5,7.1-14.3,10.7
			c-6.3,4.7-12.6,9.3-18.9,14c-5.7,4.2-11.5,8.3-17.1,12.5c-7,5.2-14,10.4-21.1,15.6c-5.4,4-10.8,7.9-16.2,11.8
			c-1.9,1.4-3.8,2.9-5.8,4.3c-0.3,0.2-0.5,0.4-0.8,0.5c-0.6,0.2-1.3,0.3-1.2-0.7c0-0.2,0-0.5,0-0.7c0-91.9,0-183.7,0-275.6
			c0-1.5,0-1.5,1.6-1.5c91.9,0,183.7,0,275.6,0c0.5,0,1.3-0.4,1.5,0.3c0.2,0.7,0.2,1.5-0.4,2.3c-2.5,2.8-5,5.7-7.4,8.6
			c-1.9,2.2-3.9,4.3-5.8,6.5c-2.5,2.8-4.9,5.7-7.4,8.5c-1.4,1.6-2.7,3.1-4.1,4.6c-0.7,0.7-1.2,1.5-1.5,2.4
			c-3.3,9.6-6.7,19.2-10.1,28.8c-3.2,9.3-6.5,18.6-9.7,27.9c-0.3,0.9-0.7,1.8-1.1,2.8c-0.9-1-1.9-1.7-3.3-1.2
			c-0.4,0.1-0.6-0.4-0.8-0.6c-0.9-0.9-1.8-1.7-3-2.1c-1.3-0.4-2.2,0-2.8,1.2c-0.9,1.6-1.4,3.3-1.2,5.1c0.1,0.5-0.1,0.6-0.6,0.7
			c-1.4,0.3-2.7,0.7-3.5,2.1c-0.8,1.5-0.3,3.4,1.1,4.2c0.3,0.2,0.7,0.3,0.6,0.6c-0.4,0.7,0.1,1.8-1,2.3c-1.4,0.6-2.9,1.1-3.7,2.6
			c-0.8,1.4-0.5,2.8,1,3.5c0.6,0.3,0.9,0.4,0.4,1.2c-1.2,2.1-1.2,4.8,0.7,6.5c0.8,0.7,1.7,0.6,2.5,0.7c0.3,1.7-0.6,3.4,0,5.1
			c0.5,1.6,1.5,2.7,3.1,2.9c1.2,0.1,2.1,0.5,3,1.4c0.7,0.7,1.7,0.8,2.7,0.7c1.5-0.1,3-0.2,3.9-1.8c0.7,3.6,1.3,7,2,10.5
			c1,5,2,10,3,15.1c0.9,4.7,1.9,9.3,2.8,14c0.5,2.5,0.9,5,1.4,7.5c0.2,0.9-0.1,1.8-0.3,2.7c-0.5,3.3-0.3,6.4,1.9,9.3
			c0.9,1.2,0.8,3,1.2,4.5c0.9,4.4,1.8,8.7,2.7,13.1c0.8,4.1,1.7,8.2,2.5,12.3c0.8,4,1.6,8,2.5,12c0.4,2.1,0.9,4.1,1.3,6.2
			c0.2,1,0.7,1.7,1.2,2.5c3.7,5.8,7.4,11.7,11.1,17.5C230.9,43.3,231.1,43.4,230.9,43.7z"/>
		<path class="st2" d="M81.4,30.5c0.3,0.4,0.5,0.8,0.7,1.1c0.6,0.8,1.7,0.8,2.3,0c2.7-4.3,5.4-8.7,8-13c0.3-0.5,0.4-1.1,0.1-1.7
			c16.1,0,32.1,0,48.1,0c0,0.1,0,0.2,0,0.2c-2.2,0.9-2.3,1.1-1.2,3.2c3.4,6.5,6.8,13,10.2,19.4c0.3,0.5,0.6,1.1,1.3,1
			c0.7,0,1.2-0.4,1.5-1c2.5-4.3,5-8.6,7.5-12.9c1.4-2.4,2.9-4.8,4.3-7.3c0.5-0.9,0.3-1.9-0.7-2c-2-0.4-2.3-1.6-2.1-3.3
			c0.1-1.2,0-2.5,0-3.9c1,0.7,2,1.3,3,1.9c0.4,0.2,0.3,0.6,0.3,0.9c0,0.8,0.1,1.6,0,2.4c-0.2,1.7,0.4,2.9,1.9,3.7
			c1.9,1,3.6,2.3,5.4,3.5c1.1,0.7,2,0.2,2.1-1.1c0-0.9,0-1.8,0-2.8c1.1,0.7,2.1,1.4,3.1,2c0.4,0.3,0.5,0.7,0.5,1.1
			c0,1.1,0,2.3,0,3.4c0,0.7,0.3,1.3,0.9,1.7c2.2,1.5,4.5,2.9,6.7,4.4c1.5,1,2.1,0.5,2.3-1.2c0.1-0.4,0-0.8,0-1.2c0-0.4,0-0.8,0-1.3
			c1.1,0.7,2.1,1.4,3.1,2c0.4,0.3,0.5,0.7,0.4,1.1c0,1.1,0,2.2,0,3.3c0,0.8,0.3,1.3,0.9,1.8c2.1,1.4,4.1,2.8,6.2,4.1
			c0.5,0.4,1.1,0.6,1.8,0.2c0.6-0.3,0.6-0.9,0.6-1.5c0-0.7,0-1.4,0-2.3c1.4,0.6,2.5,1.6,3.6,2.3c0.3,0.2,0.1,0.5,0.2,0.8
			c0,0.7,0.1,1.4,0,2c-0.7,2.8,1.5,3.6,3.2,4.7c2.2,1.4,4.5,2.6,6.2,4.8c0.4,0.6,0.9,1.4,1.9,0.9c0.9-0.4,0.8-1.2,0.8-2
			c0-0.1,0-0.3,0-0.6c0.8,1,1.9,1.7,1.6,3.1c-0.1,0.3,0,0.6,0,0.9c-0.2,1.6,0.3,2.9,1.3,4c1.3,1.4,2.6,2.9,3.8,4.4
			c0.2,0.3,0.7,0.7,1.2,0.4c0.5-0.2,1-0.5,1-1.2c0-0.5,0-0.9,0-1.6c0.9,1,1.5,2,2.4,2.7c1.3,1.1,1.2,2.5,1.4,3.9
			c0.1,0.6-0.2,0.8-0.7,0.7c-0.2,0-0.5,0-0.7,0c-74.2,0-148.3,0-222.5,0c-0.4,0-0.8,0-1.2,0c0.5-2.2,0.2-4.4,0.2-6.5
			c0-0.7,0.2-1.1,0.8-1.5c1.2-0.6,2.1-1.7,3.5-2.3c-0.2,1.5,0.2,2.8-0.2,4.2c-0.1,0.5,0.1,1.1,0.7,1.4c0.4,0.2,1,0.2,1.4-0.1
			c2-1.5,4.1-2.9,6.1-4.5c0.8-0.6,1.3-1.2,1.2-2.4c-0.1-1.5,0-3.1,0-4.6c0-0.4,0-0.9,0.4-1.2c1.2-0.8,2.3-1.6,3.6-2.5
			c0,1.4,0,2.6,0,3.9c0,0.7,0,1.4,0.8,1.8c0.8,0.5,1.2-0.1,1.7-0.5c2.1-1.5,4.1-3,6.2-4.5c0.6-0.4,0.8-0.9,0.8-1.7
			c-0.1-1.7,0-3.3,0-5c0-0.4,0-0.8,0.3-1.1c1.1-0.8,2.1-1.6,3.4-2.4c0,1.3,0,2.4,0,3.5c0,0.7,0.1,1.5,0.8,1.8c0.6,0.3,1.2,0,1.8-0.5
			c2-1.5,4.1-3,6.2-4.4c0.6-0.4,0.8-1,0.8-1.7c0-1.7,0-3.4,0-5.1c0-0.6,0.1-0.9,0.6-1.2c0.8-0.5,1.7-1.1,2.4-1.8
			c0.8-0.8,0.9,0.2,0.9,0.4c0.1,0.9,0.1,1.9,0.1,2.8c0,0.7-0.1,1.4,0.7,1.7c0.7,0.2,1.2-0.1,1.8-0.5c1.8-1.4,3.7-2.7,5.6-4.1
			c0.7-0.5,1.2-1.1,1.1-2.1c-0.1-1.6,0-3.1,0-4.7c0-0.6,0.2-1.1,0.8-1.4c0.9-0.5,1.7-1.2,2.8-2c0,1.3,0,2.5,0,3.6
			c0,0.7,0,1.4,0.7,1.8c0.7,0.4,1.3,0,1.9-0.4c1.4-1,2.8-1.9,4.3-3c0,3,0,5.8,0,8.6c0,0.1,0,0.2,0,0.2c-1.6,1.7,0.1,3,0.7,4.3
			c1.2,2.3,2.5,4.4,3.8,6.6c0.7,1.1,1.7,1.1,2.4,0c2-3,3.9-6,5.8-9.1C81.2,30.7,81.3,30.6,81.4,30.5z"/>
		<path class="st2" d="M219.9-87c0.1,0.2,0.2,0.5,0.3,0.7c0.5,1.1,1.3,1.4,2.2,0.8c3.4-2.2,6.9-4.3,10.3-6.4
			c3.1-1.9,6.2-3.8,9.3-5.8c1.2-0.7,1.2-1.7,0-2.4c-3.2-1.9-6.5-3.8-9.8-5.7c-3.3-1.9-6.6-3.8-9.9-5.6c-1.2-0.6-1.7-0.4-2.3,0.7
			c-0.7,1.3-0.7,1.3-2.5,1.1c0.7-1.8,1.3-3.5,2-5.3c0.7-1.8,0.4-2.5-1.6-2.5c-1.1,0-2.3,0-3.5,0c0.2-1.3,0.8-2.5,1.2-3.7
			c0.2-0.5,0.6-0.3,0.9-0.3c1.4,0,2.8,0,4.1,0c0.8,0,1.2-0.2,1.4-1c0.7-2.3,1.6-4.6,2.4-6.9c0.4-1,0-1.6-1.1-1.6
			c-1.2,0-2.5,0.1-3.7-0.2c-0.4-0.1-0.6-0.2-0.3-0.6c0.1-0.2,0.2-0.4,0.3-0.6c0.3-0.8,0.2-2,1-2.2c1-0.3,2.2-0.2,3.3,0
			c1.9,0.4,2.6,0,3.2-1.7c0.7-2.1,1.6-4.2,2.3-6.3c0.5-1.5,0.1-2-1.5-2c-1.3,0-2.5,0-3.8,0c0.1-1.2,0.8-2.2,1-3.3
			c0.1-0.5,0.5-0.3,0.8-0.3c1.3,0,2.7,0,4,0c1,0,1.6-0.4,1.9-1.4c0.7-2.1,1.5-4.2,2.3-6.3c0.6-1.7,0.2-2.3-1.5-2.3
			c-1.1,0-2.2,0-3.3,0c-0.1,0-0.2,0-0.4-0.1c0.3-0.9,0.5-1.7,0.8-2.6c0.2-0.7,0.6-1,1.4-0.9c1.3,0.1,2.5,0,3.8,0
			c0.8,0,1.3-0.2,1.6-1c0.8-2.3,1.7-4.6,2.5-6.8c0.4-1.1-0.3-1.7-1.7-1.8c-1.2-0.1-2.3,0-3.5,0c0.1-2.4,1.7-3.8,3.1-5.5
			c0.1-0.1,0.3-0.2,0.5-0.2c0.3,0,0.6,0,0.8,0c3,0.4,5.7-0.3,7.5-2.9c0.1-0.1,0.2-0.2,0.4-0.4c0,70,0,139.9,0,209.9
			c-0.8-0.6-1.1-1.6-1.4-2.3c-1-2.2-2.2-2-4.5-1.7c-1.2,0.2-1.9,0.2-2.4-1.1c-0.3-0.8-1-1.5-1.3-2.6c1,0,1.9,0,2.9,0
			c1.1,0,1.7-0.8,1.2-1.9c-0.2-0.4-0.3-0.9-0.6-1.3c-1.6-2.1-1.9-4.6-2.3-7.1c-0.3-1.5-0.6-1.8-2.1-1.8c-0.8,0-1.7-0.1-2.5,0
			c-1.1,0.2-1.4-0.4-1.5-1.2c-0.1-0.8-0.3-1.7-0.4-2.6c1,0,2,0,3,0c1.9,0,2.2-0.3,1.9-2.2c-0.3-2.1-0.8-4.2-1.1-6.4
			c-0.2-1-0.8-1.3-1.7-1.4c-1.1,0-2.1,0-3.2,0c-0.6,0-1.1-0.1-1.1-0.9c0-0.9-0.9-2.1-0.3-2.7c0.6-0.6,1.8-0.1,2.7-0.2
			c1.8,0,2.2-0.6,1.8-2.3c-0.4-2-0.8-4.1-1.2-6.1c-0.2-0.8-0.6-1.3-1.5-1.3c-1.2,0-2.3,0-3.5-0.2c-0.6-0.1-0.8-0.4-0.9-0.9
			c-0.3-1.6-0.6-3.2-0.9-4.8c1.9,0,3.8,0,5.7,0c2,0,3.7-1.1,4.4-3c1.3-3.6,1.5-7.1,0-10.7c-0.8-1.8-2.1-3.5-4.7-3.3
			c-0.7,0-1-0.1-1.2-1c-1-5.1-2.1-10.1-3.2-15.2c-1.3-6.2-2.6-12.5-3.9-18.7c-0.8-4-1.7-8-2.6-12C219.7-87,219.8-87,219.9-87z"/>
		<path class="st3" d="M68.3-3.4c0,2.3,0,4.4,0,6.6c0,4.4,0,8.7,0,13.1c0,0.6-0.2,1-0.7,1.3c-1.2,0.8-2.3,1.6-3.6,2.5
			c0-1.4,0-2.5,0-3.7c0-0.7,0-1.4-0.8-1.8c-0.8-0.5-1.3,0.1-1.8,0.4c-1.8,1.2-3.6,2.5-5.3,3.8c-1.3,1-0.9,2.5-0.8,3.8
			c0.1,1,0.1,2,0.1,2.9c0.1,0.6-0.4,0.9-0.7,1.1c-1,0.8-2.1,1.5-3.1,2.2c-0.6,0.5-0.6,0.1-0.6-0.4c0-0.9,0-1.9,0-2.8
			c0-0.7-0.1-1.5-0.8-1.8c-0.7-0.4-1.3,0.1-1.9,0.6c-1.7,1.3-3.4,2.5-5.1,3.7c-0.7,0.5-0.9,1-0.9,1.8c0,1.7,0,3.3,0,5
			c0,0.7-0.2,1-0.8,1.4c-1.3,0.9-2.5,1.8-4,2.9c0-1.2,0-2.2,0-3.2c0-0.6,0-1.1-0.3-1.6c-0.4-0.8-1-1.1-1.7-0.6
			c-2.1,1.4-4.1,3-6.1,4.5c-0.5,0.4-0.7,0.9-0.7,1.5c0,1.7,0,3.3,0,5c0,0.5,0,0.9-0.5,1.3c-1.3,0.9-2.5,1.9-4,3c0-1.4,0-2.7,0-3.9
			c0-0.7,0-1.4-0.7-1.7c-0.7-0.3-1.2-0.1-1.8,0.4c-1.7,1.3-3.5,2.5-5.2,3.7c-0.8,0.5-1.3,1.2-1.2,2.2c0.1,1.6,0,3.1,0,4.7
			c0,0.6-0.2,1.1-0.7,1.4c-1.2,0.9-2.5,1.8-3.8,2.7c0-1.3,0-2.5,0-3.6c0-0.7,0.1-1.5-0.7-1.8c-0.8-0.4-1.4,0-2,0.5
			c-1.7,1.3-3.4,2.6-5.2,3.7c-0.8,0.5-1.1,1.1-1.1,2c0,1.6,0,3.2,0,4.8c0,0.6-0.2,1-0.7,1.3c-1.3,1-2.6,1.4-4.2,1.4
			c-7.6-0.1-15.2,0-22.8,0c-0.4,0-0.8,0-1.2,0c0-0.1-0.1-0.2-0.1-0.2C4.7,43.3,36.4,20,68.3-3.4z"/>
		<path class="st3" d="M246.2-206.1c0,4.2,0,8.3,0,12.3c0,3,0,6,0,9c0,0.7-0.2,1.3-0.7,1.7c-1,0.9-1.9,1.8-2.7,2.8
			c-0.7,0.9-1.7,1.2-2.7,1.1c-2.8-0.4-5,0.5-6.7,2.8c-0.6,0.8-0.9,1.6-1.3,2.5c-0.4,1-0.8,2-1.1,3.1c-0.5,1.3,0.2,2.3,1.6,2.3
			c0.9,0,1.9,0,2.8,0c0.6,0,0.8,0.1,0.6,0.8c-0.4,1-0.8,2.1-1.1,3.2c-0.2,0.5-0.5,0.8-1.1,0.8c-1.3,0-2.7,0-4,0
			c-0.7,0-1.2,0.1-1.4,0.8c-0.7,1.9-1.5,3.8-2.1,5.7c-0.4,1.3,0.2,1.8,1.5,1.8c1.1,0,2.1,0,3.2,0c0.5,0,0.7,0.1,0.4,0.7
			c-0.5,1.1-0.9,2.3-1.3,3.5c-0.2,0.8-0.6,1.1-1.4,1c-1.3-0.1-2.6,0-3.9,0c-0.8,0-1.3,0.2-1.6,1.1c-0.6,1.7-1.2,3.4-1.8,5.2
			c-0.5,1.5,0,2.2,1.6,2.3c1,0,2,0,3,0c0.6,0,0.8,0.2,0.5,0.8c-0.5,1.2-0.9,2.3-1.3,3.5c-0.2,0.5-0.5,0.7-1,0.7c-1.3,0-2.5,0-3.8,0
			c-1.1,0-1.7,0.3-2.1,1.5c-0.5,1.6-1.1,3.1-1.7,4.6c-0.6,1.6,0,2.4,1.6,2.4c0.8,0,1.6,0.1,2.4,0c1-0.1,1.1,0.3,0.8,1.1
			c-0.4,1-0.8,2-1.1,3c-0.2,0.5-0.4,0.7-0.9,0.7c-1.3,0-2.7,0-4,0c-0.9,0-1.5,0.3-1.8,1.2c-0.7,1.9-1.4,3.8-2,5.7
			c-0.3,1,0.3,1.8,1.5,1.8c1.3,0,2.5,0,3.8,0c-0.4,1.7-1.1,3.3-1.7,4.8c-0.1,0.4-0.4,0.6-0.9,0.6c-5.5,0-10.9,0-16.5,0
			c2.2-6.3,4.4-12.6,6.6-18.8c1.6-4.5,3.3-9,4.7-13.5c2.4-7.3,5-14.4,7.5-21.6c1.6-4.9,3.4-9.7,5.1-14.5c0.5-1.4,1.7-2.3,2.6-3.4
			c2.6-2.9,5.1-5.9,7.8-8.8c3-3.4,6-6.9,9-10.3C242.7-202.4,244.4-204.1,246.2-206.1z"/>
		<path class="st3" d="M223,57.7c-1.7-1.5-3-2.9-2.6-5.2c0.3-1.7-0.4-3.1-1.7-4.2c-0.8-0.7-1.4-1.5-2.1-2.3
			c-0.4-0.5-0.8-1.1-1.6-0.9c-0.9,0.3-1,1-0.9,1.8c0,0.2,0,0.4-0.1,0.7c-1.7-1.1-3.1-2.3-4.8-3.1c-2.1-1-2.8-2.6-2.4-4.8
			c0.3-1.6-0.4-2.6-1.8-3.4c-1.5-0.8-2.9-1.9-4.4-2.9c-0.5-0.3-1-0.6-1.6-0.3c-0.6,0.3-0.7,0.9-0.7,1.5c0,0.8,0,1.5,0,2.5
			c-1.5-1-2.8-1.9-4.1-2.8c-0.3-0.2-0.4-0.3-0.4-0.6c0-0.1,0-0.2,0-0.4c0.7-3.4-0.7-5.7-3.9-7.1c-0.9-0.4-1.7-1.2-2.7-1.7
			c-1.2-0.6-2-0.1-2,1.2c0,0.8,0,1.6,0,2.7c-1.8-1.2-3.5-2.1-4.9-3.4c-0.6-0.5-0.3-1.7-0.2-2.6c0.4-1.9,0.2-2.6-1.4-3.6
			c-1.5-1-3-2.1-4.6-3.1c-0.5-0.4-1.1-0.7-1.8-0.4c-0.7,0.4-0.6,1-0.6,1.7c0,0.7,0,1.5,0,2.4c-1.5-1-2.9-1.9-4.3-2.7
			c-0.2-0.1-0.2-0.3-0.2-0.5c0-0.1,0-0.2,0-0.2c0.1-6.1,0.5-4.3-4.7-7.9c-0.9-0.6-1.3-1.2-1.3-2.3c0.1-3.6,0-7.2,0-11.1
			c1.6,1,3,1.8,4.3,2.8c5.9,4.3,12.2,8,18.3,12c7.3,4.8,14.7,9.5,22,14.3c2.7,1.8,5.5,3.5,8.3,5.2c1.8,1.1,2.9,2.9,4.4,4.4
			c1.5,1.6,2.9,3.3,4.3,4.9c2.6,3,5.2,6,7.8,8.9c1.9,2.1,3.8,4.3,5.7,6.4c2.6,3,5.2,6,7.8,9c0.5,0.5,1,1,1.5,1.5
			c0.5,0.6,0.5,1.3,0.5,2c0,0.5-0.2,0.7-0.7,0.7c-4.4,0-8.8,0-13.2,0c-0.6,0-0.8-0.2-0.7-0.8c0.5-2.7-0.9-4.6-2.7-6.3
			c-1.2-1.2-2.2-2.5-3.3-3.8c-0.5-0.6-1-0.9-1.7-0.7c-0.8,0.3-0.7,1-0.7,1.7C223,57.2,223,57.3,223,57.7z"/>
		<path class="st3" d="M237.7,19.5c-1.1,0.4-1.9-0.1-2.8-0.1c-1.7,0.1-2.3,0.9-1.5,2.4c0.9,1.8,1.9,3.5,2.9,5.2c0.4,0.7,1,1.2,2,1.1
			c0.7-0.1,1.4,0.1,2.1,0c1.5-0.3,2.2,0.4,2.8,1.6c0.3,0.7,0.7,1.3,1.1,1.9c0.3,0.5,0.2,0.7-0.4,0.7c-0.7,0-1.3,0-2,0
			c-1.5,0.1-2,1-1.3,2.4c1,1.8,2,3.5,2.9,5.3c0.4,0.8,0.9,1.3,1.9,1.3c0.5,0,0.8,0.1,0.8,0.7c0,6.2,0,12.4,0,18.6c0,0-0.1,0-0.2,0.1
			c-1.6-1.7-3.2-3.5-4.5-5.5c-2.6-4.1-5.2-8.3-7.9-12.4c-4.1-6.5-8.3-13.1-12.4-19.6c-0.7-1.1-0.7-2.4-0.9-3.6
			c-1.5-6.9-2.9-13.9-4.3-20.8c-1.1-5.3-2.1-10.6-3.2-16c-0.5-2.4-1-4.8-1.5-7.3c3.6,0,7.2,0,10.7,0c0.5,0,0.6,0.2,0.6,0.6
			c0.4,2.4,0.9,4.7,1.4,7.1c0.3,1.3,0.8,1.8,2.2,1.8c0.7,0,1.5,0.1,2.2,0c1.2-0.2,1.6,0.3,1.7,1.4c0.1,1.1,0.9,2.5,0.4,3.1
			c-0.5,0.7-2,0.1-3.1,0.2c-1.5,0.1-2,0.8-1.6,2.2c0.4,1.7,0.7,3.3,1,5c0.3,1.5,0.8,1.9,2.3,2c0.9,0,1.8,0.1,2.7,0
			c0.7-0.1,1,0.3,1.1,0.9c0.2,1,0.4,1.9,0.5,2.9c0.1,0.7-0.1,1.1-0.9,1c-0.9-0.1-1.8,0-2.7,0c-0.9,0-1.4,0.4-1.3,1.3
			c0.4,2.1,0.8,4.3,1.3,6.4c0.1,0.5,0.7,0.9,1.4,0.9c1.1,0,2.2,0,3.3,0c0.4,0,0.8,0,1,0.6C235.9,15.1,236,17.6,237.7,19.5z"/>
		<path class="st3" d="M116.4-7.5c7.9,0,15.9,0,23.8,0c1,0,1.4,0.2,1.3,1.3c-0.1,3.2,0,6.4,0,9.6c0,0.7-0.2,1-1,1
			c-16.2,0-32.4,0-48.6,0c-0.8,0-1-0.3-1-1C91,0,91-3.2,91-6.4c0-1,0.4-1.1,1.2-1.1C100.2-7.5,108.3-7.5,116.4-7.5z"/>
		<path class="st3" d="M214.3-37.5c-1.5,0-2.9,0-4.4,0c-0.6,0-0.9-0.2-1-0.8c-1.1-5.5-2.2-10.9-3.3-16.4c-1.8-9.6-3.7-19.2-5.7-28.8
			c-0.2-0.8-0.2-1.5-0.4-2.3c-0.3-1.5-0.4-1.5,1.1-1.5c2.6,0,5.1,0,7.7,0c0.7,0,1.1,0.1,1.3,1c1.3,6.7,2.8,13.4,4.1,20.2
			c1.6,7.7,3.1,15.4,4.7,23.1c0.3,1.6,0.6,3.2,1,4.8c0.1,0.6-0.1,0.8-0.7,0.8C217.2-37.5,215.8-37.5,214.3-37.5z"/>
		<path class="st4" d="M116.3,14.4c-8.1,0-16.1,0-24.2,0c-0.8,0-1.2-0.2-1.1-1.1c0.1-1.8,0.1-3.5,0-5.3c0-1,0.2-1.2,1.2-1.2
			c14.5,0,29,0,43.5,0c1.6,0,3.2,0,4.8,0c0.7,0,1,0.2,1,1c-0.1,1.8-0.1,3.7,0,5.5c0,0.9-0.2,1.1-1.1,1.1
			C132.4,14.4,124.3,14.4,116.3,14.4z"/>
		<path class="st3" d="M218.6-89.7c-2.6,0-5,0-7.5,0c-3.7,0-7.4,0-11.1,0c-0.6,0-1-0.2-1.4-0.7c-0.6-0.8-1.5-1.4-1.7-2.4
			c-0.7-2.4-2-4.6-1.8-7.3c0.2-2.3,1.1-4.4,1.7-6.6c0.1-0.4,0.5-0.4,0.9-0.4c6.6,0,13.2,0,19.8,0c0.5,0,0.8,0,0.5,0.7
			c-1.4,3.7-1.5,7.6-0.8,11.5C217.6-93.2,218.3-91.6,218.6-89.7z"/>
		<path class="st3" d="M143.9,3.8c0-3.7,0-7.3,0-11c0-0.7,0.1-1.1,0.8-1.3c4.7-1.8,9.3-1.7,13.7,1.1c0.5,0.3,0.7,0.7,0.7,1.2
			c0,7,0,13.9,0,20.9c0,0.6,0,1.1-0.9,0.8c-4.3-1.3-8.6-1.1-12.9,0c-1.3,0.4-1.3,0.3-1.3-1C143.9,10.9,143.9,7.4,143.9,3.8z"/>
		<path class="st4" d="M211.9-87.4c1.6,0,3.1,0,4.6,0c0.5,0,0.7,0.2,0.8,0.7c1.2,5.9,2.5,11.7,3.7,17.6c1.1,5.5,2.2,11,3.4,16.5
			c0.8,3.9,1.7,7.7,2.5,11.6c0.2,0.9,0.1,1.4-0.9,1.7c-1.2,0.3-2.3,0.7-3.5,1.1c-0.6,0.2-0.7,0.2-0.8-0.5
			c-1.2-6.2-2.5-12.3-3.8-18.5c-1.2-5.8-2.4-11.7-3.5-17.5C213.7-78.8,212.8-83,211.9-87.4z"/>
		<path class="st3" d="M88.6,3.5c0,3.4,0,6.8,0,10.3c0,0.9-0.1,1.2-1.1,0.9c-2.8-1-5.6-0.8-8.3,0.1c-0.8,0.3-1,0.2-1-0.7
			c0-6.6,0-13.3,0-19.9c0-0.8,0.3-1.3,1.1-1.6c2.7-1.3,5.5-1.2,8.4-0.7c0.7,0.1,1,0.4,1,1.2C88.6-3.5,88.6,0,88.6,3.5z"/>
		<path class="st4" d="M239.3-98.9c-4.5,2.8-8.8,5.5-13.2,8.2c-1.2,0.7-2.4,1.4-3.5,2.2c-0.5,0.4-0.8,0.2-1-0.3
			c-1.5-3.7-2.7-7.6-2.4-11.7c0.2-2.9,0.9-5.7,2.5-8.2c0.1-0.2,0.2-0.4,0.5-0.2c4.1,2.4,8.2,4.8,12.4,7.2
			C236.2-100.8,237.8-99.9,239.3-98.9z"/>
		<path class="st4" d="M150.9,37.1c-3.1-5.8-6-11.5-9-17.1c-0.3-0.5-0.4-0.7,0.3-1c3.7-1.5,7.5-2.3,11.5-1.9c2.4,0.2,4.7,0.9,7,1.9
			c0.5,0.2,0.8,0.2,0.4,1c-3.2,5.3-6.2,10.6-9.3,15.9C151.5,36.2,151.3,36.5,150.9,37.1z"/>
		<path class="st3" d="M70.9,11c0-5.3,0-10.6,0-15.9c0-0.7,0.5-0.9,0.9-1.2c0.5-0.3,1.1-0.4,1.6-0.5c1.8-0.3,2.2,0,2.2,1.9
			c0,6.6,0,13.2,0,19.8c0,0.6,0,1.1-0.7,1.4c-0.8,0.4-0.8,1.2-0.4,1.9c1,1.7,1.9,3.5,2.9,5.2c0.7,1.2,0.4,2.5,0.4,3.8
			c0,0.6-0.4,0.4-0.7,0.3c-1.9-0.4-3.8-0.6-5.7,0c-0.6,0.2-0.7-0.1-0.7-0.6c0-1.3,0-2.6,0-3.9C70.9,19.2,70.9,15.1,70.9,11
			C70.9,11,70.9,11,70.9,11z"/>
		<path class="st3" d="M227.8-37.3c-1.6,4.1-1.6,7.9,0.1,11.8c-1,0-1.8,0-2.7,0c-0.2,0-0.4,0-0.5-0.2c-0.6-1.2-1.6-1-2.6-1
			c-3.5,0-7.1,0-10.6,0c-1.1,0-1.7-0.4-2.1-1.3c-0.8-1.7-1-3.5-0.6-5.4c0.4-1.8,0.4-1.8,2.4-1.8c1.6,0,3.2-0.1,4.7,0
			c3.7,0.2,7.2-0.2,10.6-1.8C226.8-37.1,227.2-37.1,227.8-37.3z"/>
		<path class="st5" d="M186.9-105.5c-0.3-1.5,0.4-2.7,0.7-3.9c0.1-0.4,0.6-0.5,1-0.6c0.7-0.2,1.4-0.5,1.5-1.4c0.1-0.8-0.4-1.1-1-1.4
			c-0.8-0.4-1.5-0.3-2.1,0.2c-0.2,0.2-0.5,0.4-0.7,0.7c-0.3,0.3-0.6,0.5-1,0.1c-0.4-0.5-0.1-0.8,0.3-1.1c0.9-0.6,2-0.6,3-0.9
			c0.9-0.2,1.8-0.2,2.7-0.6c0.7-0.3,0.9-0.9,0.8-1.4c-0.2-0.6-0.6-1.4-1.4-1.3c-1.3,0.2-1.2-0.6-1-1.4c0.8-2.6,0.8-2.6,2.7-0.7
			c0.3,0.4,0.6,0.7,0.5,1.2c0,0.8,0,1.6,1,1.8c1,0.2,1.4-0.3,1.7-1.1c0.1-0.2,0.1-0.6,0.5-0.7c0.3,0.3,0.3,0.7,0.4,1.2
			c0.4,3.4-1.1,6.4-2.1,9.4c-0.7,2.1-1.5,4.2-1.7,6.5c-0.1,0.8-1.6,2.5-2.4,2.6c-0.8,0.2-1.5-0.5-1.6-1.4c-0.2-1.5,0.4-2.9,1.3-4
			c0.3-0.4,0.7-0.7,0.9-1.2c0.2-0.4,0.3-0.9-0.1-1.3c-0.4-0.3-0.7-0.7-1.3-0.4C188.8-106.2,187.9-105.9,186.9-105.5z"/>
		<path class="st5" d="M191.9-84.8c0.7-0.5,0.9-1,0.9-1.6c0-0.6-0.2-1-0.8-1.3c-0.6-0.2-1.2-0.2-1.5,0.4c-0.6,1.2-1.5,0.8-2.4,0.5
			c-0.9-0.3-1-1-1-1.9c0-1.9,0.1-3.7,0.7-5.5c0.2-0.6-0.2-1.1-0.6-1.5c-0.5-0.5-0.9-0.1-1.4,0.1c-0.1,0-0.2,0.2-0.3,0.2
			c-0.6,0.2-1,1.2-1.8,0.5c-0.7-0.6-0.8-1.5-0.6-2.3c0.4-1.3,1.1-2.4,2.2-3.1c0.7-0.4,0.9-1,0.7-1.7c-0.2-0.6-0.8-0.7-1.4-0.7
			c-0.8,0-1.6,0.6-2.4-0.2c0.4-0.8,1.3-0.9,2-1.4c0.1-0.1,0.3-0.1,0.3-0.1c0.4,0.9,1.2,1,2.1,1.2c0.4,0.1,0,0.4-0.1,0.7
			c-0.5,1.8-0.6,3.6,0.6,5.2c1.1,1.6,2.4,1.7,4.2,1.2c0.6-0.2,0.9-0.1,1.3,0.3c0.9,0.9,1.3,1.9,1,3.2c-0.3,1.4,0.1,2.1,1.4,2.7
			c0.5,0.2,0.8,0.6,1,1c0.5,0.6-0.4,0.7-0.5,1c-0.2,0.4-0.3,0.8-0.3,1.2c0,1.9-0.8,2.5-2.8,2C192.5-84.8,192.3-84.8,191.9-84.8z"/>
		<path class="st4" d="M89.5,18.5c-0.2,0.3-0.5,0.8-0.8,1.3c-1.7,2.7-3.4,5.3-5,8c-0.4,0.6-0.6,0.7-1,0c-1.6-2.9-3.3-5.9-5-8.8
			c-0.4-0.6-0.2-0.9,0.3-1.2c3.2-1.6,7.8-2,11.2,0.1C89.4,18,89.6,18,89.5,18.5z"/>
		<path class="st4" d="M233.9-31.4c-0.2,1.8-0.3,3.8-1.7,5.4c-0.5,0.5-0.9,0.7-1.5,0.1c-0.9-0.9-1.2-1.9-1.4-3.1
			c-0.5-2.5-0.5-5,0.8-7.3c0.9-1.7,1.7-1.7,2.6-0.2C233.6-34.9,233.8-33.2,233.9-31.4z"/>
		<path class="st4" d="M74.1,37.3c-1.3-2.2-2.5-4.3-3.7-6.4c2.4-1.3,4.7-1.4,7.1-0.4c0.4,0.2,0.9,0.2,0.4,0.9
			C76.7,33.3,75.4,35.2,74.1,37.3z"/>
		<path class="st0" d="M163.8-93.7c-2,0-2.9-0.8-3.3-2.8c-0.1-0.5-0.3-0.6-0.7-0.5c-1.6,0.1-2.5-0.8-2.9-2.2
			c-0.5-1.4-0.3-2.8,0.8-3.8c0.7-0.6,0.7-1,0.1-1.7c-1.2-1.4-1.3-3.8,1.1-4.6c0.5-0.2,0.6-0.6,0.7-1c0.7-1.8,3.4-2.5,5-2
			c1.5,0.5,2,1.4,1.4,2.9c-0.3,0.7,0,0.9,0.4,1.2c0.8,0.5,1.6,1.2,1.9,2.1c0.7,1.8-0.1,3.3-1.2,4.7c-0.4,0.5-0.6,0.9-0.5,1.7
			c0.2,1.3,0.3,2.6-0.1,4C165.9-94.3,165.3-93.7,163.8-93.7z"/>
		<path class="st0" d="M132.3-123c-0.1,1.4-0.9,2.6-2.2,3.3c-0.9,0.5-1.3,1-1.1,2c0.1,0.7-0.1,1.5-0.2,2.2c-0.2,1-1,1.7-2.1,1.7
			c-1.7-0.1-3.3,0-4.3,1.8c-0.3,0.5-1.2,0.8-1.8,0.2c-0.6-0.6-0.5-1.3,0-1.8c0.8-0.8,1.4-1.7,2.4-2.2c0.7-0.3,1.3-0.7,2.2-0.4
			c0.6,0.2,1.4,0.3,1.3-0.9c0-0.5,0.2-1,0.2-1.5c-0.1-1.6,1-2.4,2.2-3.1c1.3-0.8,1.4-1.4,0.7-2.7c-0.9-1.6-2.3-2.9-3.6-4.1
			c-0.9-0.8-1.9-1.4-2.7-2.2c-0.5-0.4-0.7-1-0.3-1.6c0.4-0.6,0.9-0.7,1.5-0.4c0.9,0.4,1.6,1.1,2.3,1.7c2.2,1.9,4.6,3.7,5.5,6.7
			C132.3-123.9,132.3-123.5,132.3-123z"/>
		<path class="st0" d="M98.7-80c-0.1-1-0.6-1.8-0.3-2.7c0.2-0.4-0.5-0.9-0.8-1.3c-0.8-0.9-1-1.9-0.5-3c0.4-0.8,0.7-1.6,1-2.4
			c0.9-2.1,1.6-2.6,3.8-2.3c0.9,0.1,1.9,0.2,2.8,0.2c0.7,0,1.3,0.3,1.3,1c0,0.7-0.4,1.2-1.2,1.3c-1.1,0.1-2.1,0.1-3.1-0.2
			c-0.7-0.2-1.1,0-1.3,0.7c-0.1,0.3-0.2,0.6-0.3,0.9c-0.6,1.2-1,2.3,0.3,3.3c0.5,0.4,0.6,1.1,0.6,1.8c0,0.7,0,1.3,0.2,2
			c0.4,1.7-0.7,3.1-2.5,3.1c-2.9,0-5.7,0-8.6,0c-0.9,0-1.5-0.3-1.6-1.3c0-1.1,0.7-1.1,1.5-1.1C92.8-80,95.7-80,98.7-80z"/>
		<path class="st0" d="M196.1-156.8c-0.9-0.6-1.5-1-2.2-1.4c-1.4-0.8-1.8-3.1-0.1-4c1.8-1,1.4-2.6,1.2-4.1c-0.1-0.9-0.1-1.7,0.1-2.6
			c0.1-0.5,0.4-0.8,0.8-0.9c0.5-0.1,1,0.1,1.2,0.5c0.2,0.3,0.3,0.6,0.3,1c0,1.8,0,3.5,0,5.3c0,1-0.8,1.6-1.5,2.1
			c-0.8,0.6-0.6,0.7,0.1,1.1c1.1,0.7,2.3,1.2,3.5,1.8c0.7,0.4,1.5,0.9,1.3,1.9c-0.2,0.9-0.9,1.2-1.8,1.4c-1.9,0.4-3.7,0.1-5.6,0.2
			c-0.6,0-1.1-0.5-1.1-1.2c0-0.7,0.4-1.1,1.2-1.2C194.3-156.8,195.1-156.8,196.1-156.8z"/>
		<path class="st0" d="M192.1-34.8c0,2.4-0.6,3.1-2.9,3.4c-0.5,0.1-0.9,0.2-0.7,0.8c0,0.1,0,0.2,0,0.3c-0.5,1.3,0.1,2.2,1,3
			c0.4,0.4,0.6,1.1,0.3,1.6c-0.3,0.6-0.9,0.9-1.7,0.8c-1.3-0.2-2.5-0.7-3.7-1.2c-0.4-0.2-0.7-0.6-0.6-1c0.1-0.5,0.3-1,0.9-1.1
			c0.3-0.1,0.8,0.2,0.9-0.3c0-0.7,0.7-1.3,0.3-2.1c-1.3-2.3,0.2-3.4,2.3-3.3c1.5,0.1,1.5,0,1.3-1.5c-0.1-0.7,0-1.4,0-2.1
			c0-0.9,0.7-1.3,1.4-1.2c0.6,0,1,0.6,1,1.4C191.8-36.4,192-35.5,192.1-34.8z"/>
		<path class="st0" d="M73.7-39.7c0.2,0.7-0.1,1.5-0.3,2.2c-0.3,1.4-2.2,2-3.9,1.5c-0.3-0.1-0.6-0.3-0.9-0.3c-0.7-0.2-1.5-0.7-2,0.4
			c-0.2,0.6-1,0.7-1.6,0.7c-1,0-1.9,0.2-2.7,0.8c-0.6,0.4-1.5,0.8-2.1-0.1c-0.6-0.9,0.1-1.4,0.8-2c0.8-0.6,1.7-0.8,2.6-1.1
			c0.4-0.1,0.6-0.2,0.6-0.6c0.1-1.4,0.8-1.8,2.2-1.4c1.1,0.4,2.3,0.7,3.4,1.1c0.4,0.2,1,0.4,1.2,0c0.2-0.4,0.6-0.9,0.2-1.4
			c-0.1-0.2-0.1-0.4-0.1-0.6c0-0.8,0.2-1.5,1.1-1.6c1-0.1,1.3,0.6,1.5,1.4C73.8-40.3,73.7-40,73.7-39.7z"/>
		<path class="st0" d="M158.6-146.3c-0.2,0.4-0.2,0.9-0.5,1.2c-0.7,0.8-0.3,1.4,0.1,2c0.9,1.3,1.1,1.7-0.3,3.3c-0.9,1-1.5,2.3-2,3.5
			c-0.4,0.9-1.1,1.3-2,0.9c-0.8-0.4-0.6-1.3-0.3-1.9c0.7-1.3,1.1-2.8,2.2-3.8c0.3-0.3,0.3-0.6,0-1c-0.6-0.8-1-1.8-0.9-2.8
			c0-0.3,0-0.7,0.3-1c0.8-0.5,0.7-1.1,0.5-1.9c-0.2-0.7-0.4-1.4-0.3-2.2c0-0.7,0.5-1,1-1.1c0.5-0.1,1,0.2,1.1,0.7
			C157.9-149,158.3-147.7,158.6-146.3z"/>
		<path class="st0" d="M81.8-138.4c0.1,1.2-0.7,1.8-1.4,2.3c-1.8,1.4-3.8,2.4-5.9,3.4c-0.9,0.4-0.7,0.9-0.2,1.5
			c0.5,0.6,0.9,1.2,1.4,1.7c0.7,0.7,0.5,1.4,0,1.9c-0.6,0.5-1.3,0.3-1.8-0.3c-0.3-0.4-0.7-0.7-1-1.1c-2.4-2.8-2.1-4.9,1.3-6.3
			c1.8-0.7,3.3-1.8,4.9-2.8c0.3-0.2,0.3-0.4,0.4-0.6c0.3-0.7,0.9-1,1.6-0.8C81.7-139.4,81.9-138.9,81.8-138.4z"/>
		<path class="st0" d="M115.4-47.1c0.8,2.4-0.7,3.7-3,3.2c-0.6-0.1-1,0-1.5,0.5c-0.4,0.5-1.1,0.6-1.5,0.1c-0.4-0.4-0.6-1.1-0.2-1.7
			c0.2-0.3,0.4-0.6,0.5-0.9c0.3-0.7,0.7-1,1.5-0.7c0.4,0.1,0.7,0.2,1.1,0.3c0.6,0.1,0.8-0.2,0.7-0.7c-0.3-1.5,0.4-2.4,1.8-2.6
			c1.5-0.2,3,0.1,4.4,0.3c0.7,0.1,1.3,0.6,1.1,1.5c-0.2,0.9-0.8,0.8-1.6,0.8C117.6-46.9,116.5-47.5,115.4-47.1z"/>
		<path class="st0" d="M159.5-84.9c-0.2,1-0.4,2.1-1.4,2.8c-0.6,0.3-0.5,0.9-0.5,1.3c0.2,1.6-0.5,2.5-1.9,3.1
			c-0.6,0.2-1.1,0.6-1.6,0.9c-0.6,0.3-1.4,0.4-1.8-0.3c-0.3-0.6-0.3-1.3,0.4-1.7c0.1,0,0.1-0.1,0.2-0.1c0.5-0.4,2.2-2.7,2.4-3.3
			c0.1-0.4,0.2-0.8,0.6-1.1c1.3-0.9,1.1-2.2,0.8-3.4c-0.2-0.9,0.1-1.4,0.7-1.7c0.8-0.3,1.5,0.2,1.7,1
			C159.4-86.7,159.4-85.9,159.5-84.9z"/>
		<path class="st0" d="M28.7-7.1c0.5,0.9,0.9,1.7,1.3,2.5c0.5,0.8,0.2,1.4-0.4,1.8c-0.7,0.5-1.3-0.1-1.6-0.5
			c-0.7-1.1-1.3-2.3-1.9-3.5c-0.7-1.5,0.1-2.6,1.7-2.7c0.8,0,1.6,0,2.4,0c0.8,0,1.5,0.2,2.1-0.8c0.4-0.7,1.4-0.5,1.8,0.3
			c0.9,1.5,0.2,2.9-1.6,2.9C31.2-7.1,30-7.1,28.7-7.1z"/>
		<path class="st0" d="M5.5-20.6c0,1.6-0.5,2.2-2.2,2.2c-0.7,0-0.9,0.2-0.8,1c0.2,1.5,0.6,3.1-0.1,4.7c-0.3,0.6-0.7,1-1.4,0.9
			c-0.7-0.1-1.1-0.5-0.9-1.2c0.5-1.8,0-3.5,0-5.2c0-2.1,0.3-2.4,2.3-2.7c0.3,0,0.5,0,0.5-0.4C3-22.2,3.2-23,4.2-22.9
			c1.1,0.1,1.2,1,1.3,1.9C5.5-20.8,5.5-20.7,5.5-20.6z"/>
		<path class="st0" d="M21.3-141c0.2,1.5-0.3,3.5-0.3,5.5c0,0.7-0.3,1.3-1.1,1.3c-0.8,0-1.2-0.6-1.2-1.4c-0.1-2.4,0.3-4.8,0.3-7.3
			c0-1.1-0.4-2.1-0.3-3.1c0.1-0.7,0.2-1.4,1.2-1.4c1,0,1.1,0.6,1.2,1.4C21.4-144.5,21.3-143,21.3-141z"/>
		<path class="st0" d="M142-186.1c1.5,0.4,1.4,1.8,2,2.8c0.4,0.7,0.1,1.3-0.4,1.6c-0.7,0.3-0.6,0.6-0.4,1.2c0.6,1.5-1.2,3.7-2.8,3.5
			c-0.5-0.1-1.1-0.3-1.2-1c-0.1-0.7,0.4-1.3,0.9-1.5c0.9-0.3,0.6-0.6,0.2-1.1c-0.4-0.5-0.8-1-0.9-1.7c-0.1-0.4,0.1-0.9,0.3-1
			c1.4-0.5,0.8-2.3,2-2.9C141.8-186,141.9-186,142-186.1z"/>
		<path class="st0" d="M127.4-36.4c0-0.6-0.1-1.2,0.2-1.7c0.7-1.2,0.3-2.2-0.4-3.3c-0.3-0.5-0.5-1.1-0.8-1.7
			c-0.4-0.8-0.1-1.4,0.5-1.8c0.7-0.4,1.3,0,1.6,0.6c0.7,1.3,1.3,2.6,1.9,4c0.1,0.2,0.2,0.4,0.2,0.5c-0.4,1.6-0.8,3.3-1.3,4.9
			c-0.2,0.6-0.8,0.3-1.2,0.3c-0.4,0-0.7-0.4-0.7-0.8C127.3-35.7,127.4-36,127.4-36.4z"/>
		<path class="st0" d="M7.8-146.9c0.1,0.6-0.2,1-0.8,1.2c-1.1,0.4-1.3,1.3-1.3,2.3c0,0.5,0,1-0.1,1.4c-0.2,0.6-0.6,1.2-1.4,1
			c-0.9-0.2-1.2-0.9-1.1-1.7c0.2-1.5,0.1-3.2,1.5-4.2c0.6-0.4,0-0.7-0.2-0.9c-0.6-0.5-1-1.1-0.9-1.9c0.1-0.6,0.6-0.9,1.1-0.9
			C5.7-150.5,7.9-147.9,7.8-146.9z"/>
		<path class="st0" d="M44.4-13.7c1.9,0.1,1.9,0.1,1.3-1.8c-0.1-0.3-0.2-0.6-0.3-0.9c0-0.6,0.1-1.1,0.8-1.4c0.6-0.2,1.1,0,1.3,0.4
			c0.7,1.5,1.5,3.1,0.9,4.9c-0.3,0.9-0.9,1.3-1.9,1.4c-0.9,0-1.8-0.3-2.6,0.6c-0.3,0.3-0.9,0.2-1.3-0.2c-0.5-0.5-0.4-1.2-0.2-1.7
			C42.8-13.1,43.5-13.6,44.4-13.7z"/>
		<path class="st0" d="M145.7-54.5c1.2-0.1,1.9,0.6,2.4,1.5c0.5,0.8,0.1,1.5-0.6,1.8c-0.7,0.3-0.7,0.6-0.4,1.3
			c0.3,0.8,0.5,1.7,0.7,2.5c0.2,0.8,0,1.4-0.8,1.7c-0.7,0.2-1.2-0.2-1.4-0.9c-0.6-2.1-1.3-4.2-1.2-6.4
			C144.4-54.1,144.7-54.7,145.7-54.5z"/>
		<path class="st0" d="M-11.5,44.3c0.2,1.5-0.7,2.3-1.6,3.3c-1,1-2,1.5-3.3,1.8c-0.9,0.1-1.4-0.2-1.6-0.9c-0.2-0.7,0.1-1.4,0.9-1.4
			c1.4,0,1.9-1.4,3-1.9c0.5-0.2,0.3-1,0.2-1.5c-0.3-0.9-0.2-1.7,0.7-2c1.1-0.3,1.4,0.6,1.6,1.4C-11.5,43.4-11.5,43.9-11.5,44.3z"/>
		<path class="st0" d="M36.3-59.5c0.8-0.1,1.4,0.5,1.2,1.1c-0.3,0.9,0.2,1.4,0.4,2.1c0.3,0.9,0,1.7-0.7,2c-1,0.4-1.4,1.2-1.5,2.1
			c-0.1,0.7-0.4,1-1.1,1.1c-0.8,0-1.2-0.5-1.2-1.1c-0.1-1.2,0.2-2.5,1.2-3.2c0.7-0.6,0.6-1,0.2-1.7C34.2-58.5,34.8-59.5,36.3-59.5z"
			/>
		<path class="st0" d="M29.6-75.8c0,1.7-0.8,2.5-2.4,2.6c-0.6,0-0.9,0-1,0.7c-0.1,0.8-0.7,1.4-1.6,1.1c-0.8-0.3-1-0.9-0.8-1.8
			c0.5-2,0.7-2.2,2.8-2.4c0.5,0,0.8-0.1,0.5-0.7c-0.2-0.4-0.1-0.8-0.1-1.3c-0.1-0.7,0.3-1.2,1-1.3c0.8-0.1,1.2,0.4,1.3,1
			C29.4-77.1,29.7-76.4,29.6-75.8z"/>
		<path class="st0" d="M8.3-172.1c0-1.2,0.6-2.2,0.9-3.3c0.3-0.9,0.8-1.8,0.5-2.9c-0.1-0.6,0.3-1.1,1.1-1.3c0.7-0.2,1,0.2,1.2,0.7
			c0.7,1.5-0.1,2.9-0.5,4.2c-0.3,1-0.8,2-0.9,3.1c0,0.6-0.5,1.1-1.2,1C8.6-170.7,8.2-171.3,8.3-172.1z"/>
		<path class="st0" d="M136.1-51.4c0.2,1.3-0.3,2.4-0.5,3.6c-0.1,0.7-0.6,1.2-1.4,1.1c-0.8-0.1-0.9-0.7-0.9-1.4
			c0.1-0.6,0.1-1.3,0.3-1.8c0.4-1.4,0.2-2.6-0.5-3.8c-0.5-0.8-0.2-1.5,0.5-1.9c0.7-0.4,1.2,0.2,1.6,0.7
			C135.9-53.8,136.3-52.7,136.1-51.4z"/>
		<path class="st0" d="M52.3-25.2c-0.1,1.5-0.7,2.2-2.1,2.3c-0.5,0-1,0-1.5,0c-0.8,0-1.5-0.1-1.9,0.9c-0.2,0.4-0.7,0.8-1.2,0.5
			c-0.5-0.2-0.9-0.6-0.9-1.3c0-1.3,1.1-2.3,2.7-2.5c0.4,0,0.9,0,1.3,0c0.7,0,1.3,0.1,1.7-0.7c0.2-0.4,0.7-0.6,1.3-0.3
			C52.3-26,52.3-25.5,52.3-25.2z"/>
		<path class="st0" d="M13-190.4c0.1,0.5-0.1,0.9-0.4,1.2c-0.4,0.6-0.9,1.2-1.2,1.8c-0.4,0.7-1.1,0.7-1.7,0.4
			c-0.6-0.2-0.8-0.7-0.5-1.4c0.1-0.2,0.2-0.4,0.2-0.6c0.2-0.6,1.1-1,0.8-1.6c-0.2-0.6-0.8-1.1-1.2-1.5c-0.6-0.6-0.8-1.2-0.2-1.8
			c0.7-0.7,1.3-0.4,1.9,0.2c0.7,0.7,1.4,1.3,1.9,2.2C12.9-191.1,13.2-190.8,13-190.4z"/>
		<path class="st0" d="M-3.5-5.3c-0.1,1-0.3,1.8-1.4,1.7c-0.4,0-0.3,0.3-0.4,0.4c-0.3,0.4-0.5,0.9-0.7,1.3C-6.2-1.3-6.7-1-7.4-1.2
			c-0.7-0.2-1-1-0.7-1.5C-7.6-4-7.4-5.5-6.3-6.5c0.5-0.4,0.8-1.1,1.7-0.7C-3.8-6.8-3.7-6-3.5-5.3z"/>
		<path class="st0" d="M39.5-173.3c0.3,1.5-1.1,2.8-2.6,2.6c-0.6-0.1-1-0.2-1.2-0.8c-0.2-0.6,0.1-1.1,0.6-1.4
			c0.6-0.3,0.9-0.5,0.6-1.3c-0.2-0.7-0.1-1.5,0-2.2c0.1-0.6,0.5-1,1.2-1c0.7,0,1.2,0.4,1.1,1.1C39.2-175.3,39.5-174.4,39.5-173.3z"
			/>
		<path class="st0" d="M147.6-40.5c0.4-0.9,0.3-1.8,0.3-2.7c0-0.5,0.5-0.9,1-1c0.5-0.1,0.9,0.2,1.2,0.7c0.4,0.8,0.2,3.2-0.3,3.9
			c-0.3,0.4-0.8,0.6-1.3,0.4C147.8-39.3,147.8-40,147.6-40.5z"/>
		<path class="st5" d="M163.4-110c-0.2,0.5-0.5,0.9-0.7,1.3c-0.4,1-0.2,1.7,0.8,1.9c0.6,0.2,1.2,0.4,1.7,0.8
			c0.4,0.3,0.9,0.8,0.7,1.3c-0.2,0.5,0.1,1.5-1.2,1.4c-0.6-0.1-1.1,0.8-1,1.7c0.2,1.4,0.4,2.8,0.4,4.2c0,0.5,0,1-0.4,1.3
			c-0.3,0.2-0.7-0.1-0.8-0.2c-0.3-0.3-0.2-0.8,0-1.2c0.5-1.4,0-2.1-1.5-2.1c-0.4,0-0.8,0-1.2,0c-0.4,0-1,0.2-1.2-0.4
			c-0.2-0.5,0-1.1,0.4-1.5c0.5-0.6,1.1-1,1.4-1.7c0.4-0.7,0.3-1.2-0.2-1.8c-0.1-0.1-0.2-0.2-0.2-0.3c-1.4-1.5-1.4-1.5,0.4-2.3
			c0.5-0.2,1.1-0.4,1-1.2C161.7-109.9,162.5-110,163.4-110z"/>
	</g>
	<path id="path3331-7-7" class="st6" d="M-30.7,67.9L68.1-4.8c2.4-0.9,2.3-3.7,8.8-2.4c3.4-2.5,7.7-3.2,13.5-1.3h51.8
		c5-2.5,11.9-4,18.8,1.6L216.5,29l30.8,35.3"/>
	<path id="path3335-5-1" class="st6" d="M151,39.8l-11.1-21.1c12.1-5,17.4-2.3,23.5,0L151,39.8z"/>
	<path id="path3337-9-4" class="st6" d="M83.1,31.2l-7.7-13.5c8.7-4.4,12-1.7,16.1,0L83.1,31.2z"/>
	<path id="path3339-4-7" class="st6" d="M74,39.8l-5.3-9.3c3.2-1.9,6.7-2.9,11.4,0L74,39.8z"/>
	<path id="path3341-5-1" class="st6" d="M69.6-4.8v34.7"/>
	<path id="path3343-6-5" class="st6" d="M76.9-6.6v24"/>
	<path id="path3345-2-5" class="st6" d="M89.9-8.7v24.7"/>
	<path id="path3347-6-7" class="st6" d="M142.8-8.8v26.1"/>
	<path id="path3349-0-4" class="st6" d="M160.3-6.3v23.6"/>
	<path id="path3351-8-1" class="st6" d="M79.1,29v-5.2"/>
	<path id="path3353-9-4" class="st6" d="M90.6,15.7h51.8"/>
	<path id="path3355-1-6" class="st6" d="M142.6,5.6H90"/>
	<path id="path3357-4-7" class="st6" d="M69.2,18l-6.5,4.7l0-6.9l-6.1,4.4l0.1,6.9l-6.9,5l-0.1-6.9l-6.3,4.6l0,6.9l-7.2,5.2l0-6.9
		l-6.3,4.6l0,6.9l-7,5.3l0-7.2l-6.6,4.8l0,6.9l-6.9,5.1l0-7L3,59l0,7l-3.1,2.1"/>
	<path id="path3359-5-9" class="st6" d="M160.4,8.1l5.7,3.8l0,5.4l7,4.6l-0.1-5.4l6.1,4.1l-0.1,5.2l7.5,5l0.1-5.3l6,4l0,5.3l7,4.6
		l0.1-5.2l6.1,4.1l-0.1,5.3l5.2,3.4l1.1,0.7l1.5,1.1l2,2.3l0.1-4.8l4,4.6l0.1,4.7l4.9,5.8l0.1-4.8l6,6.9l0,4.9"/>
	<path id="path3361-0-6" class="st6" d="M241.5,57.4L220,23.6L210-25.3c-2.4-2.1-3-5.8-1.7-10.9l-10.3-52.5
		c-5.7-9.5-4.1-12.9-1.5-20.1l24.7-70.4l26.4-30.2"/>
	<path id="path3363-7-9" class="st6" d="M242.1-99l-20.4-11.8c-4,6.2-5.2,13.8,0,24.4L242.1-99z"/>
	<path id="path3365-8-1" class="st6" d="M210.7-88.6l10.6,52.5h-12.6"/>
	<path id="path3367-4-7" class="st6" d="M211.2-88.6h-13.1"/>
	<path id="path3369-5-2" class="st6" d="M218.4-88.5l10.5,50.2"/>
	<path id="path3371-8-7" class="st6" d="M210-25.3h13.7l1.9,9.4l5.5,0.1l1.5,7.3l-5.4,0l1.3,6.4l5.5,0l1.3,7.2l-5.4,0l1.3,6.3l5.4,0
		l1.1,5.5l2.3,4.1l-5.4-0.1l3.4,6.2l5.3,0l3.8,6.8l-5.4,0.1l3.6,6.5l2.4,0"/>
	<path id="path3373-1-0" class="st6" d="M220.2-108.5h-23.5"/>
	<path id="path3375-8-0" class="st6" d="M216.1-108.5l2.9-7.8l-6.1-0.1l2.3-6.3l6,0l2.6-7.2l-6.1,0l2.2-6l6,0.1l2.8-7.5l-6.2,0
		l2.1-5.9l6.1,0l2.8-7.5l-6.1,0l2.2-6l6,0l2.6-7.2l-6,0l1.9-5.2l3-3l5.5-0.1l5.1-5.2"/>
	<path id="path3377-5-1" class="st6" d="M219.1-88.6h-8"/>
	<path id="path3379-2-4" class="st7" d="M231.7-24.1c-2,0-3.7-3.3-3.7-7.3s1.6-7.3,3.7-7.3s3.7,3.3,3.7,7.3S233.7-24.1,231.7-24.1z"
		/>
	<path id="path4149-5-8" class="st6" d="M224.9-24.1h7"/>
	<path id="path4151-1-7" class="st6" d="M228.8-38.7l-7.5,2.6"/>
	<path id="path4189-0-1" class="st6" d="M231.6-38.7H229"/>
	<rect id="rect3315-5-7-0-0-8" x="-34" y="-213.3" class="st6" width="281.7" height="281.7">
	</rect>
	<path id="path4236-2-3" class="st6" d="M156.7-149.9c0.2,1.3,0,0.7,0.4,1.8c1.2,4.3-1.6,1.8-0.7,3.9c1.3,2.9,2.5,1.8,0.4,3.9
		c-0.9,0.9-1.3,2.6-2,3.7"/>
	<path id="path4238-0-9" class="st6" d="M123.9-131.9c2,1.7,9.8,7.1,6.4,10.5c-0.5,0.5-1.6,0.9-2,1.3c-0.9,0.9,0,3.9-1,4.8
		c-0.3,0.3-2.5-0.1-3,0c-1.3,0.2-2.2,1.6-3,2.4"/>
	<path id="path4240-2-9" class="st6" d="M158-87.5c1.1,5.3-1.2,3.5-1.6,5.9c-0.1,0.4,0.2,1.5,0,1.9c-0.2,0.4-2.6,1.4-3.1,1.8"/>
	<path id="path4242-0-2" class="st6" d="M190.9-37.3c-0.3,1.3,0.4,2.9,0,4.1c-0.5,1.5-3.9,0.6-4.1,1.1c-0.2,0.7,0.5,1.4,0.7,1.9
		c0.3,0.8-0.7,1.1-0.4,2.1c0.2,0.7,1.8,1.7,1.8,2.3c0,0.4-3.4-0.8-3.7-1"/>
	<path id="path4244-1-3" class="st6" d="M134.1-54.4c1.5,2,0.9,4.3,0.4,6.6"/>
	<path id="path4246-0-6" class="st6" d="M145.6-53.3c0.4-0.1,1.9,0.6,1.6,1.2c-0.3,0.4-1.3-0.6-1.6-0.1c-0.3,0.6,1,5,1.2,5.5"/>
	<path id="path4248-5-8" class="st6" d="M149.2-42.9c0.4,1.4-0.2,1.6-0.2,2.8"/>
	<path id="path4250-0-9" class="st6" d="M127.4-43.7c4,7.6,1.1,2.3,1.1,8.3"/>
	<path id="path4252-4-6" class="st6" d="M119.3-47.9c-8.7-1.6-3.4,2-5.2,2.9c-1.2,0.6-3.7-0.4-3.4-0.4c0.5,0-0.4,1.2-0.6,1.3"/>
	<path id="path4254-6-9" class="st6" d="M104.9-90.5c-1.3,0.5-3.5-0.6-4.8,0c-0.5,0.2-0.9,1.7-1.1,2.2c-1.9,3.7-0.4,2.7,0.7,5.1
		c0.3,0.5-0.3,1.2-0.1,1.7c1.3,3.6-1.2,2.7-5.1,2.7c-1.7,0-3.4,0-5.1,0"/>
	<path id="path4256-5-3" class="st6" d="M80.6-138.6c0.1,1.1-0.9,1.3-1.7,1.9c-4.6,3.5-9.6,2.5-4,8.1"/>
	<path id="path4258-8-5" class="st6" d="M72.4-40.8c0.6,6.3-2.6,3.5-6.9,2.4c-0.7-0.2,0.8,2.1,0.1,2.1c-1.5,0-3.4,0.4-4.5,1.4"/>
	<path id="path4260-7-9" class="st6" d="M28-77.6c1.5,6.2-3.1,0.6-3.1,5.2"/>
	<path id="path4262-4-4" class="st6" d="M36.3-58.3c-1.1-0.2-0.5,0.8-0.1,1.3c1.9,3-1.7,0.5-1.7,4.7"/>
	<path id="path4264-9-5" class="st6" d="M51.1-25c0.1,2.6-5.3-0.4-5.3,2.5"/>
	<path id="path4266-3-3" class="st6" d="M46.5-16.4c3,7.9-3.1,2.3-3.1,5.2"/>
	<path id="path4268-4-4" class="st6" d="M32.9-9.2c0.4,1.4,0.3,1.1-1.6,1.2c-5.9,0.2-5.1-0.9-2.4,4.5"/>
	<path id="path4270-6-1" class="st6" d="M4-21.5c-0.1,0.2,0.2,2,0,2.1c-0.3,0.1-2.7-0.2-2.8,0c-0.7,2,1,5-0.2,6.6"/>
	<path id="path4272-4-3" class="st6" d="M-4.9-5.2c-0.9-1.8,0.2,0.9,0,0.7C-5.1-4.7-4.7-5.1-4.9-5.2c-1.4-1.2-1.3,1.9-2.3,2.9"/>
	<path id="path4274-1-1" class="st6" d="M9.5-193.3c3.5,4,2.3,2,0.6,5.3"/>
	<path id="path4276-1-2" class="st6" d="M10.9-178.6c0.5,2.4-1.6,4.3-1.6,6.8"/>
	<path id="path4278-5-1" class="st6" d="M38-176.3c-0.2,2,1.2,4.3-1.2,4.3"/>
	<path id="path4280-8-1" class="st6" d="M4.5-149.4c4.9,5-0.2,0-0.2,7"/>
	<path id="path4282-3-2" class="st6" d="M19.8-146.2c0.4,3.4,0,6.9,0,10.7"/>
	<path id="path4284-7-2" class="st6" d="M142.1-185c0.1,0.2,0.3,1.1,0.5,1.3c1.2,2.1-0.8,0-1.8,1c-0.9,0.9,3.9,3-0.4,4.5"/>
	<path id="path4288-2-8" class="st6" d="M196.4-168.7c-0.4,1.8,0.5,3.9,0,5.7c-0.3,1.2-2.8,1.5-2.3,3c0.7,2,11.4,4.3,1.6,4.3
		c-0.7,0-1.4,0-2,0"/>
	<path id="path4290-3-5" class="st6" d="M-13.1,42.9c1,3.9-1.4,3.7-1.4,3.9c-0.5,1.5-0.8,1.1-2.6,1.6"/>
	<path id="path3106-3" class="st6" d="M197.9-113.8c-0.1-1.3,0.6-5.1-1.2-5.6c-1.8-0.4-1.9,2-2.2,2c0,0,0-1.5,0-1.7
		c-0.4-1-3.1-3.6-4.3-2.9c-0.9,0.6-2,4.6-1.3,5.6c0.5,0.7,2.4-0.2,2.4,0.6c0,0.8-8.5-0.1-6.7,4.4c0.7,1.8,4.8-0.3,4.8-0.3
		c-2-2-4,5.3-3.4,6.6c0.7,1.8,4.9-1,4.3-0.5c-5.8,5.9-0.2,12.3,3.7,5.7"/>
	<path id="path3876-4" class="st6" d="M185.7-106c-1-0.1-5.5,1.9-4.5,3.6c1,1.7,4.4,0.5,4,0.8c-5.8,3.9-2.4,10.8,1.5,6.9
		c0.2-0.2-0.1,0.6-0.1,0.9c-0.5,2-0.6,3.7-0.6,5.7c0,3.7,6.7,3.2,5.8,1.5c-0.3-0.6-0.7,1.5-0.7,1.7c0,2.1,3.9,1.7,4.9,1.1
		c1.1-0.6,0.6-3.2,0.7-3.3c1.1-0.7,1.7-0.5,1.3-2.1c-0.3-1.4-2.2-1.4-2.8-2.1c-0.4-0.4,0.3-2.5,0.1-3.2c-0.4-1.4-1.9-2.1-2.4-3.3"/>
	<path id="path3878-8" class="st6" d="M160.8-108.8c-1.2-2.3,3.8-3.4,4.2-1.8c0.2,0.9-1.8,2.7-0.9,2.7c1.3,0,3.3,1.6,3.3,3
		c0,0.6-1,4-2.2,2.7c0,0,0.2,2.5,0.3,3c0.2,1.9,0.5,5.6-3,3.9c-0.7-0.4-0.9-1.6-0.7-2.4c0-0.1,0.5-0.7,0.4-0.8
		c-1-0.3-3.1,0.7-3.7-0.5c-1.7-2.8,1-3.9,1.6-5.1C160.2-104.3,155.2-107.7,160.8-108.8L160.8-108.8z"/>
</g>
</svg>
