<?xml version="1.0" encoding="utf-8"?>
<!-- Generator: Adobe Illustrator 25.0.0, SVG Export Plug-In . SVG Version: 6.00 Build 0)  -->
<svg version="1.1" id="Layer_1" xmlns="http://www.w3.org/2000/svg" xmlns:xlink="http://www.w3.org/1999/xlink" x="0px" y="0px"
	 viewBox="0 0 283.5 283.5" style="enable-background:new 0 0 283.5 283.5;" xml:space="preserve">
<style type="text/css">
	.st0{fill:#FFFFFF;}
	.st1{fill:#87AD50;}
	.st2{fill:#C3895F;}
	.st3{fill:#BBA78E;}
	.st4{fill:#EE663C;}
	.st5{fill:#BAA78E;}
	.st6{fill:#BAA68E;}
	.st7{fill:#EA663D;}
	.st8{fill:#BBA88F;}
	.st9{fill:#B7A48D;}
	.st10{fill:none;stroke:#010101;stroke-width:1.7763;stroke-linejoin:round;}
	.st11{fill:none;stroke:#010101;stroke-width:1.7763;stroke-linecap:round;stroke-linejoin:round;}
	.st12{fill:none;stroke:#010101;stroke-width:1.7763;stroke-linecap:round;stroke-linejoin:round;stroke-miterlimit:5.0352;}
	.st13{fill:none;stroke:#010101;stroke-width:1.7763;}
	.st14{fill:none;stroke:#010101;stroke-width:1.7763;stroke-linecap:round;stroke-linejoin:round;stroke-miterlimit:4.4874;}
	.st15{fill:none;stroke:#010101;stroke-width:1.7763;stroke-linecap:round;}
</style>
<g id="g7720" transform="translate(705.01926,-45.659342)">
	<g>
		<path class="st0" d="M-705,187.4c0-46.9,0-93.8,0-140.7c0-0.9,0.2-1.1,1.1-1.1c93.8,0,187.5,0,281.3,0c0.9,0,1.1,0.2,1.1,1.1
			c0,93.8,0,187.5,0,281.3c0,0.9-0.2,1.1-1.1,1.1c-93.8,0-187.5,0-281.3,0c-0.9,0-1.1-0.2-1.1-1.1C-705,281.2-705,234.3-705,187.4z"
			/>
		<path class="st1" d="M-695.1,48.3c87.3,0,174.7,0,262.2,0c-4.2,3.9-8.3,7.7-12.5,11.5c-2.2,2-4.4,4.1-6.6,6.1
			c-3.7,3.4-7.3,6.9-11,10.3c-2.9,2.7-5.8,5.3-8.6,7.9c-4.2,3.9-8.4,7.8-12.6,11.6c-3,2.7-5.9,5.5-8.9,8.2c-4.3,4-8.7,7.9-13,12
			c-2,1.8-3,4.3-3.4,6.9c-0.7,4.8,0.7,9.2,2.4,13.6c0.3,0.7,0.1,1.3,0.1,2c0,0.6-0.5,0.4-0.8,0.4c-0.7,0-1.3-0.2-2-0.3
			c-1.2-0.1-1.6,0.6-1.7,1.5c-0.2,1.9-0.3,3.8-0.5,5.7c-0.1,0.9,0.3,1.5,1.3,1.7c0.1,0,0.1,0.1,0.2,0.1c2.7,0.9,2.7,0.9,2,3.6
			c-0.2,0.6-0.1,1.2-0.2,1.8c-0.1,0.9-0.7,0.9-1.2,0.8c-0.7-0.2-1.3-0.1-2-0.2c-1.2-0.2-1.7,0.5-1.9,1.5c-0.2,1.8-0.3,3.7-0.5,5.6
			c-0.1,0.9,0.3,1.3,1.1,1.6c0.2,0.1,0.5,0.2,0.8,0.3c2.8,0.9,2.7,0.9,2.1,3.8c-0.2,1.1-0.3,2.2-0.4,3.3c0,0.5-0.1,0.8-0.8,0.7
			c-1-0.2-2.1-0.2-3.1-0.3c-1-0.1-1.7,0.4-1.8,1.3c-0.2,1.9-0.3,3.7-0.5,5.6c-0.1,1,0.3,1.5,1.2,1.8c1,0.4,2,0.7,3,1
			c0.5,0.1,0.8,0.3,0.6,0.8c-0.5,1.9-0.3,3.8-1.5,5.6c-1.6,2.5-2.6,5.3-2.7,8.2c-0.2,3.5,1.1,6.6,3,9.4c1.5,2.2,1.7,4.9,2.7,7.3
			c0.2,0.4-0.1,0.7-0.4,1c-0.9,0.9-1.8,1.8-2.7,2.7c-0.7,0.6-0.8,1.3-0.6,2.1c0.4,1.3,0.8,2.6,1.3,3.9c0.4,1.2,1,1.6,2.2,1.3
			c0.7-0.2,1.5-0.3,2.1-0.5c1.2-0.5,1.4,0.1,1.7,1c0.5,1.6,0.8,2.8-0.7,4.2c-2.9,2.5-2.8,2.7-1.6,6.4c0.1,0.4,0.3,0.7,0.4,1.1
			c0.4,1.7,0.9,1.7,2.5,1.5c0.9-0.1,1.8-0.2,2.6-0.5c1.1-0.4,1.1,0.1,1.1,0.9c0,2.2,0.3,4.4,1.1,6.5c1.4,3.6,4,5.3,7.7,5.7
			c0.8,0.1,1.2,0.6,1.5,1.1c2.4,3.7,4.7,7.5,7.1,11.3c3.6,5.7,7.2,11.4,10.8,17.1c3.5,5.5,6.9,11,10.3,16.5c0.9,1.4,2.3,2.1,3.5,3
			c5.3,4,10.7,7.9,16,11.8c5.4,4,10.8,8.1,16.3,12c1.2,0.8,2.4,1.5,3.4,2.5c0.1,0.1,0.1,0.1,0.2,0.1c2.1,0.2,0.9,1.8,1.2,2.7
			c0.1,0.3-0.1,0.5-0.5,0.5c-0.3,0-0.6,0-0.9,0c-91.9,0-183.7,0-275.6,0c-1.2,0-1.4-0.3-1.5-1.5c-0.2-2.1,0.6-3.5,2.1-5
			c5.7-5.8,11.4-11.8,17.2-17.6c0.1-0.1,0.3-0.2,0.3-0.3c1.1-2.3,2.9-2.3,5-1.7c1,0.3,2,0.4,3.1,0.6c1.3,0.3,2.3,0,3.2-1.1
			c0.6-0.7,1.2-1.3,1.9-1.9c0.8-0.8,0.8-1.6,0.3-2.5c-0.7-1.2-1.4-2.4-2.1-3.6c-0.3-0.4-0.4-0.8,0.1-1.2c0.2-0.2,0.4-0.5,0.6-0.7
			c2.3-2.4,4.8-4.7,7-7.3c1.3-1.5,2.6-1.6,4.2-1.2c1.1,0.3,2.3,0.5,3.4,0.6c0.8,0.1,1.4,0,2-0.7c0.7-0.8,1.6-1.5,2.4-2.2
			c0.8-0.7,1-1.5,0.4-2.5c-0.7-1.3-1.4-2.6-2.2-3.8c-0.2-0.4-0.2-0.7,0.1-1.1c3.6-3.6,7.1-7.2,10.8-10.7c1.1-1,1.5-2,1.5-3.4
			c-0.1-2.7,0.2-5.5-0.1-8.2c-0.4-4.7,0-9.5-0.2-14.2c0-0.9,0.3-1.2,1.1-1.5c6.7-2,13.4-3.8,20-6c1.7-0.6,3.4-0.6,5.1-0.7
			c2.3-0.1,4.5,0.3,6.8-0.2c3.2-0.7,5-2.8,6-5.6c1.5-4.2,0.9-8.3-0.6-12.3c-0.3-0.7-0.6-1.4-0.9-2.1c-0.5-1-1-2-0.6-3.3
			c0.3-1.3-0.1-2.6,0.3-3.9c0.1-0.4,0.2-0.5,0.6-0.5c1,0.1,2-0.1,3,0.2c0.6,0.2,1.3,0.1,1.9,0.1c0.8-0.1,1.3-0.6,1.3-1.3
			c0-1.7,0.4-3.4,0.3-5.1c0-0.7-0.2-1.2-1-1.5c-1.5-0.6-3.1-1.3-4.6-1.9c-0.6-0.3-1.5-0.5-0.9-1.6c0.1-0.2,0-0.5,0-0.7
			c0-1.5,0.3-1.8,1.9-1.4c1.3,0.3,2.6,0.1,4,0.2c0.7,0,1.2-0.5,1.2-1.1c0-1.8,0.4-3.6,0.3-5.4c0-0.7-0.4-1.2-1-1.4
			c-1.6-0.7-3.2-1.3-4.8-1.9c-0.5-0.2-0.9-0.5-0.9-1.2c0.1-1.9,0-3.8,0.3-5.6c0.2-1.3,1-2.5,1.2-3.8c0.9-4.1,0.9-8.1-1.6-11.8
			c-0.9-1.4-2.1-2.6-3.9-3.1c-1.3-0.3-2-1.3-2.7-2.3c-3-4.4-6-8.8-9-13.1c-0.3-0.5-0.4-0.8,0-1.3c0.7-0.7,1.2-1.5,1.8-2.3
			c0.4-0.5,0.3-1,0-1.5c-0.8-1.2-1.6-2.3-2.5-3.5c-0.5-0.7-1.1-1.1-2.1-0.6c-1.9,0.8-3.4,0.7-4.6-1.5c-1.9-3.3-4.3-6.4-6.5-9.6
			c-0.3-0.4-0.2-0.6,0-0.9c0.6-0.7,1.1-1.4,1.7-2.1c0.6-0.7,0.7-1.4,0.1-2.1c-0.8-1-1.5-2.1-2.3-3.2c-0.5-0.7-1.1-1.1-2-0.7
			c-0.5,0.2-1.1,0.1-1.6,0.4c-1.3,0.7-2,0-2.7-1c-2-3-4-6.1-6.1-9.1c-0.4-0.5-0.3-0.8,0-1.3c0.5-0.8,1.3-1.4,1.8-2.1
			c0.5-0.7,0.4-1.3,0-1.9c-0.8-1.1-1.7-2.2-2.5-3.3c-0.5-0.6-1-0.9-1.9-0.7c-3.2,0.9-3.2,0.8-5.7-1.5c-2.6-2.5-5.3-4.9-8-7.3
			c-0.4-0.4-0.3-0.6-0.1-1c0.5-1,0.9-2,1.5-3c0.4-0.6,0.2-1.2-0.2-1.5c-0.7-0.5-1.3-1.1-1.8-1.6c-1.2-1.2-2.6-1.2-4.1-0.7
			c-0.4,0.1-0.7,0.2-1.1,0.3c-1.5,0.5-2.6,0.2-3.8-1c-2.3-2.3-4.8-4.5-7.3-6.6c-0.6-0.6-0.6-1-0.2-1.6c0.5-0.7,0.8-1.6,1.2-2.4
			c0.4-0.8,0.2-1.6-0.5-2.1c-0.7-0.5-1.2-1.1-1.8-1.6c-0.8-0.7-1.7-0.9-2.7-0.6c-1,0.3-2.1,0.4-3.1,0.7c-0.9,0.3-1.3,0-1.9-0.6
			c-2.2-2-4.5-4-6.7-6c-0.3-0.3-0.6-0.5-0.9-0.7C-695.3,48.5-695.2,48.4-695.1,48.3z"/>
		<path class="st2" d="M-445.4,82.7c1.2-1.7,2.9-2.6,4.1-4c0.3-0.3,0.7-0.2,1-0.2c1.4,0,2.8,0,4.1,0c0.6,0,1.1-0.1,1.5-0.5
			c2-1.8,3.9-3.6,5.9-5.4c0.4-0.4,0.8-0.8,1.2-1.1c0.6-0.4,0.9-1,0.7-1.7c-0.2-0.7-0.9-0.8-1.5-0.8c-0.7,0-1.4,0-2.3,0
			c1.3-1.2,2.3-2.3,3.5-3.1c0.8-0.5,2-0.2,3-0.1c0.2,0,0.2,0.3,0.3,0.5c0,0.3,0,0.5,0,0.8c0,77.9,0,155.9,0,233.8c0,0.3,0,0.6,0,1
			c-1.1-0.1-1.6-1-2.2-1.6c-1.3-1.2-2.6-1.9-4.4-1.6c-1.8,0.3-2.7-1.1-3.9-1.9c0-0.3,0.2-0.2,0.3-0.2c0.7,0.1,1.1-0.3,1.3-0.8
			c0.3-0.5-0.1-1-0.5-1.3c-1.2-1-2.4-1.9-3.7-2.9c-0.2-0.1-0.4-0.3-0.6-0.4c-1.2-0.9-2.4-1.8-4.1-1.5c-1.1,0.2-2,0-2.9-0.9
			c-0.3-0.3-0.6-0.9-1.2-1.1c0.3-0.1,0.7-0.2,0.9-0.4c0.5-0.4,0.8-1,0.2-1.6c-0.6-0.6-1.1-1.2-1.8-1.7c-1.1-0.7-1.7-1.7-2.3-2.7
			c-0.8-1.3-1.7-2.1-3.3-1.8c-2.2,0.5-3.2-0.8-3.9-2.5c0-0.1-0.1-0.2-0.1-0.4c0.6,0,1.1,0,1.7,0c1.1-0.1,1.6-1.1,1-2
			c-1.5-2.3-3.1-4.5-4.7-6.8c-0.5-0.7-1.1-1.1-2-0.9c-2.2,0.5-3.7-0.4-4.6-2.4c-0.2-0.4-0.7-0.7-0.6-1.2c0.6-0.2,1.3-0.3,2-0.4
			c0.7-0.1,1.2-0.7,0.7-1.5c-1.5-2.5-3.2-4.9-5-7.2c-0.5-0.6-1.1-0.7-1.8-0.6c-2.1,0.4-3.5-0.3-4.5-2.3c-0.5-1.1-1.4-1.9-2-3.1
			c1.3,0,2.6,0.1,3.8,0c0.7,0,0.6,0.5,0.8,0.8c0.6,1.5,1,1.6,2.4,1c5.6-2.6,11-5.4,16.5-8.1c0.1-0.1,0.3-0.1,0.4-0.2
			c0.6-0.3,1.1-0.6,1.1-1.4c0-0.7-0.5-1-1-1.3c-2.3-1.3-4.6-2.7-6.9-4c-3.4-1.9-6.8-3.7-10.2-5.5c-1.3-0.7-1.8-0.4-2.1,1
			c-0.2,0.7-0.5,1.1-1.3,1c-2.6-0.1-5.3,0-7.9,0c-0.7,0-1-0.1-1.2-0.9c-2-6-4.2-12-6.3-18c-0.7-2.1-1.4-4.2-2.2-6.3
			c-0.2-0.6-0.1-0.8,0.5-0.8c1.1,0,2.2,0,3.3,0c0.7,0,0.9,0.2,1.1,0.9c0.3,1.4,1.2,2.1,2,1.6c0.6-0.4,1.2-0.6,1.7-0.9
			c3.6-2.1,7.3-4.2,10.9-6.3c2.8-1.6,5.6-3.1,8.4-4.8c1.2-0.7,1.1-1.7-0.1-2.4c-4.8-2.8-9.5-5.6-14.3-8.3c-2.1-1.2-4.2-2.4-6.3-3.6
			c-1.1-0.6-2-0.3-2.2,1c-0.2,1.5-0.9,1.8-2.2,1.7c-1.1-0.1-2.1,0-3.2,0c-0.5,0-0.7-0.1-0.6-0.7c0.6-3.4,1-6.9,1.6-10.3
			c0.5-3.4,1.1-6.8,1.6-10.3c0.5-3.4,1-6.9,1.5-10.3c0.1-0.6,0.3-1.1,0.3-1.7c0.3,1.5-0.1,3.1-0.2,4.6c-0.1,1.4-0.1,2.9-0.3,4.3
			c-0.1,0.5,0.3,1.1,0.8,1.5c2.4,2.3,4.7,4.7,7,7c0.4,0.4,0.7,0.8,0.4,1.5c-1.5,4.1-0.4,8,0.9,11.9c0.3,0.9,1.1,1.1,2,1.1
			c6.6,0,13.1,0,19.7,0c0.9,0,1.5,0.1,1.8,1.2c0.3,1,1.2,1.3,2.2,0.6c3.1-2,6.2-4,9.3-6c1.2-0.8,2.5-1.6,3.7-2.4
			c1-0.7,1.1-1.5,0.1-2.2c-2.2-1.6-4.4-3.1-6.5-4.6c-2.1-1.5-4.3-2.9-6.4-4.3c-0.5-0.3-0.4-0.6,0-0.9c0.1-0.1,0.2-0.1,0.3-0.2
			c2.5-1.8,2.5-2,0.4-4.3c-3-3.3-5.9-6.6-8.8-9.8c-0.9-0.9-2.1-1.3-3.2-2c-2.8-1.6-5.6-3.2-8.4-4.8c-1.5-0.8-2.1-0.6-2.4,1.1
			c-0.1,0.5-0.5,0.3-0.7,0.3c-2.8,0-5.7,0-8.5,0c-0.7,0-1.5-0.1-2.1,0.5c0.3-2.1,0.6-4,0.9-5.9c0.1-1,0.4-1.4,1.5-1.4
			c2.7,0.1,5.3,0,8,0c0.6,0,0.9,0.2,1,0.8c0.1,0.7,0.4,1.4,0.6,2.1c0.3,1.3,1.4,1.6,2.5,0.9c5.1-3.1,10.3-6.2,15.5-9.3
			c1.9-1.2,3.9-2.3,5.7-3.5c1.3-0.8,1.5-1.8-0.1-2.8c-3-1.8-5.8-3.6-8.7-5.5c-4.2-2.6-8.3-5.3-12.5-7.9c-0.4-0.2-0.8-0.3-1.2-0.5
			c0.1-0.1,0.1-0.2,0.2-0.3c0.5-0.5,1.3-1,0.9-1.9c-0.4-0.8-1.2-0.9-2-0.9c-0.5,0-1,0-1.7,0c1.6-1.2,2.7-2.7,4.2-3.8
			c0.3-0.2,0.7-0.2,1-0.2c1.2,0.1,2.5-0.1,3.7,0.2c0.6,0.2,1.4-0.2,1.9-0.7c2.4-2.2,4.7-4.3,7-6.5c0.4-0.4,1-0.8,0.7-1.5
			c-0.3-0.9-1-0.9-1.7-0.9c-0.6,0-1.2,0-1.9,0c1.2-1.3,2.3-2.4,3.6-3.4c0.3-0.2,0.5-0.1,0.8-0.1c0.7,0,1.4-0.1,2.1,0
			c2.1,0.3,3.8-0.4,5.3-2.1c1.7-1.8,3.7-3.3,5.4-5c0.4-0.4,1-0.8,0.7-1.6c-0.3-0.8-0.9-0.8-1.6-0.8C-444,82.7-444.6,82.7-445.4,82.7
			z"/>
		<path class="st2" d="M-687.4,75.8c-0.9,0-1.7,0-2.5,0c-0.6,0-1.1,0.1-1.3,0.7c-0.3,0.6-0.1,1.1,0.4,1.6c1.4,1.3,2.8,2.7,4.3,4
			c0.4,0.4,0.8,0.6,1.4,0.5c1.4-0.1,2.9,0.2,4.3-0.2c1.1-0.3,1.5,0.9,2.5,1.6c-1.2,0-2.1,0-3,0c-0.6,0-1,0.1-1.3,0.8
			c-0.2,0.6,0,1.2,0.4,1.5c1.6,1.2,2.8,2.7,4.2,4.1c0.6,0.5,1.2,0.9,2,0.8c1.8-0.2,3.5,0.4,5.3,0.2c0.8-0.1,1.1,0.8,1.9,1.4
			c-1.4,0-2.5,0-3.6,0c-0.6,0-0.9,0.2-1.2,0.7c-0.2,0.5,0,0.9,0.3,1.2c1.4,1.6,3.2,2.8,4.4,4.6c0.3,0.4,0.6,0.5,1.1,0.5
			c0.9,0,1.8,0,2.7,0c2.1,0,2.1,0,3.4,2c-1.1,0.3-2.1,0.1-3.1,0.1c-1.5,0-1.9,0.7-1.2,2c0.9,1.5,1.9,3.1,3,4.6
			c0.4,0.5,0.9,0.8,1.6,0.8c1.2,0,2.4,0,3.7,0c0.7,0,1.4,0,1.7,0.8c0.1,0.3,0.7,0.7,0.5,1c-0.2,0.4-0.7,0.4-1.2,0.3
			c-0.6,0-1.3,0-1.9,0c-1.2,0-1.7,0.9-1.1,1.9c1,1.6,2.1,3.2,3.2,4.8c0.3,0.4,0.8,0.6,1.3,0.6c0.8,0,1.6,0.1,2.4,0
			c2.2-0.4,3.4,0.5,4.1,2.6c-1,0-2,0-3,0c-0.7,0-1.2,0.1-1.6,0.8c-0.4,0.7,0.1,1.1,0.4,1.6c0.1,0.2,0.2,0.3,0.3,0.5
			c0.1,0.2,0.5,0.3,0.3,0.6c-0.2,0.2-0.4,0.1-0.7,0.1c-1.3,0-2.7,0-4.1,0c0-0.1,0-0.2,0-0.3c0.3-0.7,0.6-1.4-0.2-1.9
			c-0.7-0.4-1.3-0.1-2,0.5c-2.7,2.5-5.4,4.9-8.1,7.4c-0.2,0.2-0.3,0.3-0.7,0.3c-2.4-0.1-4.7,0.1-7.1-0.1c-1.9-0.2-3.2,0.5-4.2,1.9
			c-0.9,1.3-2.1,2.3-3.2,3.4c-0.7,0.7-1,1.5-0.4,2.4c0.1,0.2,0.2,0.5,0.3,0.8c0.7,2,0.8,2.2,3.1,2.2c1,0,2,0,3.2,0
			c-0.7,0.9-1.3,1.6-2,2.3c-0.9,1-0.9,1.6,0,2.5c2.1,1.8,4.2,3.6,6.3,5.3c2.1,1.7,4.2,3.4,6.3,5.2c1.3,1.2,2,1.1,3.1-0.3
			c1-1.3,2-2.4,3.9-2.1c1.4,0.2,2.9,0,4.7,0c-1.2,0.8-2.2,1.5-3.2,2.1c-1.3,0.8-2.6,1.6-3.8,2.4c-1.2,0.8-1.2,1.7,0,2.6
			c5.8,3.8,11.5,7.6,17.3,11.4c0.8,0.5,1.7,0.6,2.3-0.4c0.1-0.2,0.3-0.3,0.4-0.4c0.9-2.5,2.8-2.8,5.2-2.6c3.8,0.2,7.6,0.1,11.4,0
			c0.9,0,1.2,0.3,1,1.1c-0.4,1.8-0.2,3.7-0.2,5.5c0,0.9-0.3,1-1.1,1c-1.4-0.1-2.8,0-4.1,0c-0.9,0-1.5,0.4-1.4,1.3
			c0.1,1.9-0.4,3.8-0.3,5.7c0.1,1.4,0.5,1.9,1.9,1.9c1.2,0,2.4,0,3.7,0c0.7,0,0.8,0.2,0.9,0.9c0.1,2.7,0.1,2.7-2.6,2.7
			c-1,0-1.9-0.1-2.9,0.1c-0.7,0.2-1.1,0.6-1.1,1.3c0.1,2.4-0.4,4.8-0.3,7.1c0.1,1.1,0.5,1.6,1.6,1.6c1.3,0,2.6,0,3.9,0
			c0.7,0,1.1,0.2,0.9,0.9c-0.4,1.3-0.2,2.6-0.2,4c0,0.6-0.2,0.8-0.8,0.8c-4.8,0-9.5,0-14.3,0c-0.5,0-0.8-0.2-1.1-0.7
			c-1.7-2.9-2-2.7-4.2-1c-0.7,0.5-1.4,1-2,1.5c-0.7,0.5-1.4,1-2.3,1.6c0.6-2.1,1.1-4,1.8-5.9c0.7-1.7,0.7-3.2-0.3-4.8
			c-2.3-3.8-4.5-7.7-6.6-11.5c-0.4-0.7-1-1-1.8-1c-1.5,0.1-3.1,0-4.6,0c-0.7,0-1.1-0.2-1.4-0.8c-0.5-0.9-1.2-1.1-2.2-0.7
			c-5.4,1.9-10.7,3.8-16.1,5.7c-1.2,0.4-1.5,1.1-0.9,2.2c2.2,3.9,4.5,7.7,6.5,11.7c1.4,2.8,3.9,4.2,6.1,6c2.1,1.7,4.4,3.3,6.6,5
			c0.3,0.2,0.6,0.5,0.9,0.7c0.6,0.3,1.2,0.2,1.6-0.4c0.4-0.5,0.2-1-0.2-1.4c-0.4-0.5-1.1-0.5-1.4-1.3c2.3,0,4.6,0,7.1,0
			c-2.3,1.7-4.5,3.3-6.7,4.9c-0.6,0.5-1.3,0.9-1.8,1.4c-0.6,0.6-0.5,1.4,0.2,1.9c2.8,1.8,5.7,3.7,8.6,5.6c-1.7,1.2-3.3,2.3-4.9,3.4
			c-0.6,0.4-1.2,0.9-1,1.7c0.2,0.7,0.9,1,1.7,0.9c0.3,0,0.6,0,1.2,0c-1,0.7-1.7,1.3-2.8,1.2c-0.9-0.1-1.9-0.1-2.8-0.2
			c-1.7-0.3-3.1,0.6-4.4,1.7c-0.3,0.3-0.3,0.6-0.3,1c0,0.8,0,1.6,0,2.5c0,1.9,0.3,2.2,2.2,2.4c0.8,0.1,1.6,0.2,2.4,0.2
			c1.3-0.1,1.4,0.5,1.3,1.5c-0.1,2.3,0,2.3-2.3,2.3c-0.9,0-1.8-0.1-2.7,0.1c-0.8,0.2-1.1,0.7-1.1,1.4c0,1.4,0,2.8,0,4.2
			c0,1.2,0.9,1.5,1.8,1.5c1.2,0.1,2.4,0.1,3.5,0c1-0.1,0.8,0.7,0.8,1.2c0,0.5,0.3,1.2-0.7,1.2c-1.3-0.1-2.6,0-3.9,0
			c-0.9,0-1.4,0.3-1.5,1.2c-0.1,1.1-1.1,1.6-1.7,2.3c-0.6,0.6-1.1,1.1-0.8,1.9c0.3,0.8,1.2,0.9,1.9,0.9c0.7,0,1.4,0.3,2.2,0.3
			c0.6,0,0.7,0.3,0.3,0.7c-0.8,0.9-1.6,1.7-3,1.4c-0.3-0.1-0.6,0-0.9,0c-1.6,0-3.4-0.4-4.8,0.2c-1.4,0.6-2.4,2.3-3.7,3.4
			c-0.5,0.5-0.7,1.1-0.4,1.6c0.2,0.4,0.7,0.8,1.4,0.7c1.4-0.1,2.7,0.2,4.2,0.3c-0.8,1-1.5,1.7-2.9,1.6c-1.7-0.2-3.4,0-5.1,0
			c-0.9,0-1.6,0.3-2.3,0.9c-1.4,1.5-2.9,2.9-4.3,4.3c-0.5,0.5-0.9,1-0.7,1.6c0.3,0.7,0.9,0.9,1.7,0.9c1.4-0.1,2.8,0,4.3,0
			c-1,1.2-1.7,2.3-3.5,2.2c-2-0.2-4,0.4-6.1,0.2c-0.5,0-1,0.3-1.3,0.6c-1.2,1.3-2.5,2.5-3.7,3.8c-0.4,0.4-0.8,0.8-0.5,1.5
			c0.3,0.7,0.8,1,1.6,0.9c1.5-0.1,3,0,4.6,0c-0.6,1.1-1.3,1.8-2.7,1.7c-1.8-0.2-3.6,0-5.4,0c-1.7,0-1.7,0-3,1.1
			c0-73.9,0-147.8,0-221.7c1.5,1.4,3.3,0.7,5,0.8c0.8,0,1.4,0.3,2.1,1c-0.9,0-1.6,0-2.3,0c-0.7,0-1.1,0.3-1.4,1
			c-0.3,0.7,0.1,1.1,0.5,1.4c1.2,1.2,2.5,2.4,3.8,3.5c0.4,0.4,0.9,0.5,1.4,0.5c1.3,0,2.6,0,3.9,0C-688.5,74.6-687.9,74.9-687.4,75.8
			z"/>
		<path class="st3" d="M-431.3,71.6c-1.4,1.3-2.9,2.6-4.3,4c-0.5,0.5-1.2,0.6-1.8,0.5c-3.3-0.5-5.8,0.6-8,3.1
			c-1.1,1.3-2.3,2.5-3.8,3.5c-0.4,0.3-0.8,0.8-0.6,1.4c0.2,0.6,0.6,1.1,1.4,1c0.7-0.1,1.4,0,2.2,0.2c-1.6,1.5-3.3,2.9-5,4.4
			c-0.2,0.2-0.6,0.1-0.9,0c-1.4-0.3-2.7-0.1-4.1-0.1c-0.5,0-1,0.3-1.4,0.7c-1.9,1.7-3.8,3.5-5.7,5.2c-0.5,0.5-1,1.1-0.7,1.9
			c0.3,0.7,1.1,0.7,1.7,0.7c0.6,0,1.2,0,2.1,0c-1.4,1.3-2.7,2.3-3.8,3.5c-1.2,1.4-2.8,1.3-4.3,1.2c-2.1-0.2-3.6,0.4-5.1,2
			c-1.4,1.6-3.1,2.8-4.7,4.3c-0.5,0.4-1,0.8-0.8,1.7c0.3,0.9,1.1,0.8,1.7,1c0.5,0.2,1.2,0,1.8,0.1c-1.1,0.8-1.9,1.9-3,2.7
			c-0.1,0.1-0.2,0.1-0.3,0.2c-1.1,1.8-2.9,1.7-4.8,1.7c-6.5,0-13,0-19.8,0c1-1,1.7-1.9,2.6-2.6c1.5-1.1,2.7-2.5,4.1-3.7
			c2.7-2.3,5.2-4.9,7.8-7.3c4.1-3.8,8.3-7.5,12.3-11.4c2.9-2.8,5.9-5.5,8.9-8.2c3.3-3,6.6-6.1,9.8-9.1c2.8-2.6,5.6-5.2,8.5-7.8
			c4.2-3.8,8.3-7.6,12.4-11.5c2.2-2.1,4.5-4,6.7-6.1c0.6-0.6,1.3-0.7,2-0.7c1.1,0,2.1,0,3.2,0c0.6,0,0.9,0.1,0.9,0.8
			c0,4.5,0,9,0,13.4c0,0.7-0.3,1-0.9,0.9c-2.8-0.5-4.5,1-6.3,2.8c-1,1.1-2.2,2-3.2,3.1c-0.5,0.5-0.9,1-0.5,1.6
			c0.4,0.6,1,0.8,1.8,0.6c0.5-0.1,1.1-0.1,1.6-0.1C-431.4,71.4-431.4,71.5-431.3,71.6z"/>
		<path class="st3" d="M-643.5,133.1c1.2,0,2.3,0,3.4,0c1.3,0,1.8-0.9,1.1-2c-0.8-1.2-1.6-2.4-2.4-3.6c-0.5-0.7-1.1-1.1-2-1
			c-0.9,0.1-1.9,0-2.8,0c-2.3,0-2.8-0.4-3.7-2.8c1.2,0,2.3,0,3.4,0c1.3,0,1.8-0.9,1.2-1.9c-1-1.6-2.2-3.2-3.3-4.8
			c-0.3-0.4-0.7-0.6-1.3-0.6c-1.2,0-2.4-0.1-3.5,0c-1,0.1-1.7-0.2-2.1-1.2c-0.2-0.4-0.5-0.8-0.8-1.2c0.9-0.4,1.7-0.1,2.5-0.2
			c0.7,0,1.4,0,1.8-0.7c0.4-0.8,0-1.4-0.4-2c-0.7-1-1.5-2.1-2.3-3.1c-0.4-0.7-1-1-1.8-1c-0.7,0-1.4-0.1-2.1,0
			c-2.1,0.3-3.6-0.3-4.2-2.6c1,0,2,0,3,0c1.4,0,1.9-1,1.1-2.1c-0.7-1.1-1.5-2.3-2.2-3.4c-1-1.6-1.9-1.9-3.7-1.5
			c-0.3,0.1-0.5,0.1-0.8,0.2c-1.9,0.1-1.9,0.1-3.9-2.2c0.9-0.2,1.8-0.2,2.6,0c0.8,0.2,1.4,0.1,1.8-0.6c0.4-0.7,0-1.2-0.5-1.6
			c-1.3-1.2-2.6-2.4-3.9-3.6c-0.5-0.4-1.1-0.6-1.7-0.6c-1.1,0-2.2-0.1-3.3,0c-2,0.3-3.1-1-4.4-2.3c1.1,0,2,0,2.9,0
			c0.6,0,1.2-0.1,1.5-0.7c0.3-0.6,0.1-1.2-0.4-1.6c-1.4-1-2.4-2.4-3.8-3.5c-0.5-0.4-1-0.7-1.7-0.7c-1.6,0.1-3.1-0.2-4.7,0.2
			c-0.3,0.1-0.4,0-0.6-0.2c-0.6-0.5-1.1-1.1-1.9-1.8c1.2,0,2.1,0,3,0c0.6,0,0.9-0.2,1.2-0.7c0.3-0.5,0-1-0.2-1.3
			c-1.3-1.3-2.7-2.5-4-3.7c-0.3-0.3-0.7-0.3-1.1-0.3c-1.1,0-2.3-0.1-3.4,0c-1.4,0.2-2.2-0.5-3-1.7c0.9,0,1.6,0,2.3,0
			c0.7,0,1-0.4,1.3-0.8c0.3-0.5,0-1-0.3-1.3c-1.2-1.2-2.5-2.3-3.7-3.3c-0.9-0.8-2.1-0.5-3.2-0.4c-1.8,0.2-2.9-0.6-4-2.2
			c0.8,0,1.4,0,2,0c0.6,0,1.2-0.3,1.4-0.9c0.2-0.6-0.1-1.1-0.5-1.4c-2.6-1.8-3.4-4.3-3-7.3c0.2-1.2,0.1-2.5,0-3.8c0-0.8,0.3-0.9,1-1
			c1.7-0.2,2.9,0.5,4,1.6c2.1,2,4.4,4,6.6,5.9c0.3,0.2,0.6,0.4,0.9,0.7c-1,0.7-2.1,0.7-3,0.9c-0.7,0.2-1.2,0.6-1.6,1.2
			c-2.1,3.8-1.2,3.3,1.3,5.6c0.3,0.3,0.7,0.3,1.1,0.3c2.8,0,5.6,0.1,8.3-0.2c1.6-0.2,2.9,0.3,4,1.4c2.1,2,4.2,3.9,6.3,5.8
			c0.2,0.2,0.5,0.3,0.4,0.7c-0.8,0.2-1.5,0.4-2.3,0.6c-1.4,0.3-3.3,2.7-3.1,4.1c0,0.2,0.2,0.5,0.4,0.7c0.6,0.6,1.2,1.3,1.8,1.8
			c0.7,0.6,1.5,0.8,2.5,0.5c1.1-0.2,2.2-0.1,3.3-0.1c1.9,0.1,3.8-0.1,5.6-0.2c0.4,0,0.8,0.1,1.2,0.4c2.3,2.2,4.7,4.4,7,6.6
			c0.7,0.7,1.6,1.2,2.3,2.2c-1.6,0.4-3.2,0.8-4.7,1.2c-1.6,0.4-2.2,1.8-3,3.1c-0.1,0.2,0,0.5,0.1,0.8c0.5,1.1,1.3,2.2,2,3.1
			c0.7,0.9,1.9,0.7,2.9,0.5c1.8-0.3,3.7-0.1,5.5-0.2c0.9,0,1.8,0.1,2.7-0.2c0.3-0.1,0.7-0.1,0.9,0.3c2.3,3.4,4.7,6.9,7,10.4
			c-2,0.5-4,0.9-5.8,1.5c-2.1,0.7-2.8,3-1.6,4.8c0.2,0.3,0.3,0.5,0.5,0.8c0.9,1.6,1.1,1.7,2.9,1.6c1.1-0.1,2.2-0.1,3.3,0
			c1.9,0.1,3.8-0.3,5.7-0.3c0.7,0,1,0.2,1.4,0.8c2.3,3.4,4.6,6.7,6.9,10c0.4,0.6,0.6,0.9-0.4,1.1c-1.3,0.2-2.5,0.6-3.7,0.9
			c-1.8,0.3-2.7,1.7-3.6,3.1c0,0.1-0.1,0.2-0.1,0.2c0.2,1.2,1.1,2.1,1.7,3.2c0.8,1.3,1.2,1.4,2.9,1.1c1-0.2,2-0.1,2.9-0.1
			c2,0.1,3.9-0.1,5.9-0.2c0.4,0,0.7-0.1,1,0.4c3.1,4.6,6.3,9.2,9.6,14c-0.5,0-0.9,0-1.2,0c-6.1,0-12.3,0-18.4,0
			c-0.9,0-1.4-0.3-1.9-1c-1.1-1.7-2.1-3.6-3.4-5.1c-0.2-0.2-0.3-0.5-0.2-0.7c0.1-0.3,0.5-0.2,0.7-0.2c1-0.1,2,0.2,2.9-0.2
			c1-0.4,1.4-1.1,0.8-2c-0.9-1.5-1.9-2.9-3-4.3c-0.3-0.4-0.8-0.6-1.4-0.6c-1,0-2-0.1-2.9,0c-1.6,0.2-2.7-0.4-3.4-1.8
			C-642.9,134.2-643.4,133.8-643.5,133.1z"/>
		<path class="st3" d="M-490.2,248.3c3.8,0,7.3,0,10.9,0c0.6,0,0.9,0.3,1.2,0.8c1.4,2,2.8,4,4.1,6.1c0.5,0.7,1,1.1,1.8,1
			c2.5-0.5,4,0.6,5,2.7c0.3,0.7,0.9,1.3,1.4,2c-0.7,0.2-1.4,0-2,0.3c-1,0.4-1.3,1.1-0.8,2c1.4,2,2.8,4,4.2,6.1
			c0.3,0.4,0.7,0.6,1.1,0.5c2.6-0.6,4.3,0.5,5.4,2.8c0.3,0.7,1,1.3,1.2,2.1c-0.5,0.2-0.8-0.1-1.2-0.1c-0.7-0.1-1.3,0.2-1.6,0.7
			c-0.3,0.5-0.2,1,0.1,1.5c1.2,1.7,2.4,3.4,3.6,5.1c0.3,0.5,0.9,0.7,1.5,0.6c2.3-0.4,4.1,0.2,5,2.6c0.1,0.3,0.4,0.5,0.6,0.7
			c-0.5,0.2-1.2,0.1-1.4,0.9c-0.2,0.8,0.3,1.3,0.8,1.8c1.3,1.1,2.6,2.1,3.9,3.2c0.6,0.5,1.3,1,2.2,0.8c2.2-0.4,3.9,0.4,5.3,2
			c-0.5,0.3-1.3,0.1-1.4,1.1c-0.1,0.8,0.4,1.2,1,1.7c1.3,1,2.7,2,3.9,3.1c0.9,0.8,1.9,1.2,3.1,1c1.8-0.3,3.1,0.4,4.2,1.8
			c-1.7,0.8-1.5,1.8-0.3,2.7c1,0.7,1.8,1.6,2.8,2.3c0.4,0.3,0.7,0.6,0.7,1.2c0,4,0,8.1,0,12.1c-0.8,0-1.3-0.6-1.8-1
			c-2.6-2.2-5.4-4.1-8.1-6.1c-3.3-2.4-6.6-4.9-9.9-7.4c-4.1-3.1-8.2-6.1-12.3-9.1c-1.1-0.8-2.2-1.7-3.4-2.4c-2.5-1.4-3.8-3.8-5.2-6
			c-2.8-4.4-5.6-8.9-8.3-13.3c-4.3-6.9-8.7-13.8-13-20.7c-1.3-2-2.5-4-3.8-6C-490,248.9-490,248.6-490.2,248.3z"/>
		<path class="st3" d="M-645.4,260.6c-1.9,2-3.7,4-5.8,5.8c-1.4,1.2-2.7,2.6-4,3.9c-0.4,0.4-0.8,0.6-1.4,0.6
			c-5.1,0-10.2,0.4-15.3,0.2c-0.8,0-1.5,0.2-1.8,1c-0.1,0.2-0.3,0.3-0.5,0.5c-1.8,2.2-1.9,3.9-0.2,6.2c0.7,1,1.8,0.7,2.8,0.9
			c2,0.4,4.1,0.7,6.2,1c0,0.4-0.2,0.7-0.5,0.9c-2.2,2.2-4.5,4.4-6.5,6.8c-1,1.1-2.2,1.4-3.5,1.4c-4,0-8,0.2-12-0.1
			c-2.3-0.1-3.6,0.9-4.8,2.5c-0.8,1-1.1,2-0.3,3.1c0.3,0.4,0.4,0.9,0.5,1.4c0.3,0.9,0.9,1.4,1.9,1.5c2.3,0.3,4.6,0.8,7.1,1.2
			c-6.2,6.4-12.3,12.7-18.6,19.2c0-0.7,0-1.1,0-1.4c0-5,0.1-10,0-15c0-1.4,0.5-2.3,1.5-2.9c1.3-0.9,2.2-2.3,3.6-3.2
			c0.4-0.3,0.7-0.9,0.4-1.6c-0.3-0.7-0.8-0.8-1.4-0.8c-0.9,0-1.7,0-2.6,0c-0.5,0-1.2,0.3-1.3-0.3c-0.1-0.7-0.4-1.5,0.2-2.1
			c1-1.2,2.1-2.3,4-2c1.9,0.2,3.8,0,5.8,0.1c0.6,0,1.1-0.1,1.6-0.6c1-1.1,2.1-2.1,3.1-3.2c0.4-0.5,0.9-1,0.6-1.7
			c-0.3-0.7-1-0.9-1.7-0.8c-1.4,0-2.8,0-4.4,0c1.1-1.3,2-2.5,3.8-2.2c1.9,0.3,3.8-0.2,5.7-0.2c0.4,0,0.7-0.2,0.9-0.5
			c1.4-1.4,2.8-2.8,4.2-4.2c0.4-0.4,0.8-0.8,0.5-1.5c-0.3-0.7-0.8-0.7-1.4-0.7c-1.4,0-2.9,0-4.7,0c1.1-1,1.9-1.8,2.7-2.6
			c0.3-0.3,0.7-0.3,1.1-0.3c1.8,0,3.6,0,5.4,0c0.9,0,1.6-0.3,2.2-0.9c1-1.1,2.1-2.1,3.2-3.2c0.4-0.4,0.9-0.9,0.6-1.6
			c-0.3-0.7-0.9-0.9-1.6-0.9c-1.3,0.1-2.5-0.1-3.8-0.3c0.4-0.8,1-1.1,1.9-1.1c1.7,0,3.4,0.3,5,0.3c0.9,0,1.6-0.2,2.2-0.9
			c0.5-0.6,1.2-1.1,1.6-1.7c1.2-1.6,2.8-1.6,4.5-1.3c1.1,0.2,2.3,0.1,3.5,0.3c2.7,0.3,5.4,0.4,8.1,0.5
			C-646.8,260.3-646.2,260.8-645.4,260.6z"/>
		<path class="st3" d="M-490.1,118.7c4.8,0,9.6,0,14.4,0c0.8,0,1.1,0.1,0.9,1c-0.6,2.1-0.6,4.2-0.7,6.4c-0.1,2,0.1,4,0.5,6
			c0.2,0.9,0.2,1.9,0.5,2.7c0.2,0.5-0.1,0.6-0.5,0.6c-0.2,0-0.4,0-0.6,0c-9.4,0-18.7,0-28.1,0c-0.9,0-1.3-0.2-1.6-1.1
			c-1.4-3.6-2.2-7.2-1.9-11c0.1-1.5,0.7-2.8,1.4-4.2c0.3-0.6,0.9-0.5,1.3-0.5C-499.7,118.7-494.9,118.7-490.1,118.7z"/>
		<path class="st3" d="M-639.4,207.8c10.2,0,20.1,0,30,0c3.1,0,3.1,0,4.1,3c1.2,3.4,1.6,6.8,0.4,10.3c-1,2.7-2.6,3.9-5.5,4
			c-9,0.4-18.1,0.1-27.1,0.2c-0.4,0-0.9,0-1.5,0C-636.3,219.3-636.9,213.6-639.4,207.8z"/>
		<path class="st3" d="M-638.9,152.9c0.5,0,0.9,0,1.3,0c8.9,0,17.9,0.1,26.8,0c4-0.1,6.2,2.1,7,5.5c0.6,2.7,0.3,5.3-0.3,8
			c-0.2,0.8-0.7,0.7-1.3,0.7c-6.6,0-13.3,0-19.9,0c-4,0-8,0-12,0c-0.7,0-1-0.1-0.7-0.9c1.3-3.1,1.3-6.4,0.3-9.6
			C-638.1,155.3-638.5,154.2-638.9,152.9z"/>
		<path class="st3" d="M-485.8,203.1c-0.4,0.2-0.8,0.1-1.2,0.1c-7.5,0-15.1,0-22.6,0c-0.7,0-1.2-0.2-1.6-0.8
			c-1.6-2.3-2.7-4.9-2.7-7.7c0-2.7,1-5.3,2.4-7.7c0.2-0.3,0.5-0.3,0.8-0.3c8.3,0,16.5,0,24.8,0c0,0,0.1,0,0.2,0.1
			C-486.9,192.3-487,197.7-485.8,203.1z"/>
		<path class="st3" d="M-666.3,256.3c0.9-2.4,2.8-2,4.5-1.8c2.3,0.3,2.8-0.1,2.8-2.3c0-1.1,0-2.2,0-3.3c0-1.1-0.5-1.7-1.7-1.6
			c-1.3,0.1-2.6-0.3-3.9-0.3c-1,0-0.5-0.8-0.6-1.2c-0.1-0.5,0-0.9,0.7-0.9c1.1,0,2.3,0,3.4,0c1.4,0,2-0.7,2-2c0-1.6,0-3.1,0-4.7
			c0-1.6-0.5-2-2-2c-1.1,0-2.2-0.4-3.3-0.3c-0.8,0.1-0.5-0.6-0.6-1c-0.1-0.9,0.2-1.5,1.1-1.6c1.3-0.1,2.6-0.2,3.8,0
			c1.3,0.3,2.6,0.2,3.8,0.4c2.3,0.3,4.7,0.4,7,0.5c1.5,0.1,3,0.3,4.5,0.5c0.4,0,0.6,0.2,0.6,0.5c0.1,0.6,0.2,1.2,0.2,1.8
			c0,5.1,0,10.1,0,15.2c0,1.6,0.1,3.2,0.2,4.8c0.1,0.8-0.2,1.1-1,1c-2.5-0.2-5-0.5-7.5-0.7c-1.2-0.1-2.5-0.1-3.7-0.2
			c-2.9-0.3-5.7-0.4-8.6-0.7C-665.1,256.5-665.7,256.2-666.3,256.3z"/>
		<path class="st3" d="M-495.5,137.8c2.6,0,5.3,0,7.9,0c1,0,1.3,0.3,1.1,1.2c-0.6,3.8-1.2,7.6-1.8,11.5c-0.5,3.3-1,6.6-1.5,9.9
			c-0.5,3.5-1.1,7-1.6,10.4c-0.5,3.4-1,6.8-1.5,10.2c-0.1,1-0.3,2-0.5,3c-0.1,0.5-0.4,0.4-0.7,0.4c-5.2,0-10.4,0-15.6,0
			c-0.7,0-0.8-0.3-0.7-0.9c0.1-0.9,0.4-1.8,0.4-2.7c0-0.8,0.4-0.9,1-0.9c4.3,0,8.6-0.1,12.9,0.2c0.3,0,0.6,0,0.8,0
			c1.4-0.1,2-0.7,2.1-2.1c0.1-1,0.2-2,0.3-3c0.1-0.8-0.1-1.4-0.8-1.8c-1.8-1-3.7-1.3-5.7-1.5c-2.7-0.3-5.4-0.6-8.1-1
			c-0.8-0.1-1.2-0.4-1.1-1.4c0.3-1.8,0.5-3.5,0.7-5.3c0.1-0.5,0.2-0.6,0.7-0.6c3.4,0.1,6.8-0.2,10.2,0.2c1.8,0.2,3.6,0.3,5.4-0.1
			c0.6-0.1,0.9-0.5,0.9-0.9c0.2-1.5,0.4-3,0.5-4.5c0.1-0.7-0.4-1.1-0.9-1.4c-1.8-1-3.8-1.3-5.8-1.5c-3.1-0.3-6.2-0.8-9.4-1.2
			c-0.4,0-0.5-0.2-0.4-0.5c0.2-1.3,0.5-2.7,0.6-4c0.1-0.9,0.5-0.8,1.1-0.9c3.6-0.1,7.2,0.3,10.8,0.2c1.3,0,2.6,0,3.9,0
			c1.4,0,1.8-0.4,1.9-1.8c0.1-1,0.3-2.1,0.4-3.1c0.1-1-0.1-1.7-1.1-2.2c-1.8-0.9-3.8-1.2-5.7-1.4c-3.2-0.4-6.4-0.8-9.6-1.2
			c-0.4,0-0.5-0.2-0.5-0.6c0-0.4,0.1-0.8,0.6-0.8c0.5,0,1,0,1.5,0C-500.1,137.8-497.8,137.8-495.5,137.8z"/>
		<path class="st3" d="M-482.4,245.9c-3,0-6.1,0.1-9.1,0c-1.3,0-2.7-0.2-4-0.5c-2.8-0.8-4.1-2.9-4.7-5.6c-0.2-0.8-0.2-1.6-0.3-2.3
			c-0.2-0.8,0.1-0.8,0.7-0.7c1.4,0,2.8,0,4.2,0c4.5,0,9,0,13.4,0c1.9,0,2.3-0.4,2.1-2.2c-0.1-0.6,0.2-0.6,0.6-0.6c2.3,0,4.6,0,7,0
			c0.7,0,0.7,0.4,0.6,0.8c-0.5,2.3-0.5,4.6-0.4,7c0,1,0,2.1,0.3,3.1c0.3,1.1-0.1,1.1-0.9,1.1C-476.1,245.9-479.2,245.9-482.4,245.9z
			"/>
		<path class="st4" d="M-451.8,127.4c-2.9,1.8-5.8,3.6-8.7,5.3c-3.3,2-6.5,3.9-9.8,5.9c-0.6,0.3-0.7,0.5-0.9-0.3
			c-1.5-4.8-2.2-9.7-1.8-14.6c0.2-2.5,0.8-5,1.6-7.4c0.3-0.9,0.7-0.9,1.4-0.5c2.3,1.5,4.5,2.9,6.8,4.4
			C-459.5,122.5-455.7,124.9-451.8,127.4z"/>
		<path class="st4" d="M-660,217.3c5.5-4,11-8,16.4-12c2.1,3.1,3.4,6.5,3.9,10.1c0.4,2.7,0,5.3-1,7.8c-0.5,1.3-1.3,2.5-2.1,3.7
			c-0.5,0.8-0.9,0.8-1.5,0.4c-2.6-1.6-5.1-3.3-7.7-4.9C-654.6,220.7-657.2,219-660,217.3z"/>
		<path class="st3" d="M-499.2,234c3.4-0.7,6.7-1.4,10.1-2.2c1.7-0.4,3.1-1.8,2.9-2.9c-0.2-1.3-0.7-2.5-1.2-3.8
			c-0.3-0.6-0.8-0.6-1.4-0.6c-4.6,0-9.3,0-13.9,0c-0.9,0-1.4-0.2-1.6-1.1c0-0.1,0-0.2,0-0.2c-0.9-2.7-0.9-2.6,1.9-3.2
			c3-0.6,6.1-1.2,9.1-1.9c1.2-0.3,2.1-1,2.9-1.9c0.3-0.4,0.3-0.7,0.2-1.2c-0.3-0.9-0.7-1.8-0.9-2.8c-0.3-1.2-1.1-1.7-2.2-1.7
			c-2.7,0.1-5.5,0-8.2,0.1c-1.9,0.1-3.9,0.3-5.8,0.1c-0.5-0.1-0.8-0.2-0.9-0.7c-0.3-1.2-0.7-2.5-1.2-3.7c-0.2-0.7-0.1-0.9,0.6-0.9
			c3.2,0,6.4,0,9.7,0c1.9,0,3.8,0,5.7,0c0.7,0,1.1,0.2,1.3,0.9c2.3,6.8,4.7,13.6,7,20.3c0.7,2.1,1.5,4.2,2.3,6.4
			c0.2,0.5,0.5,0.9-0.5,0.9c-5.2,0-10.5,0-15.7,0C-499.2,234.1-499.2,234-499.2,234z"/>
		<path class="st4" d="M-676.2,144.8c2.8-3.3,5.5-6.6,8.2-9.9c0.5-0.6,0.9-1,1.8-0.2c3.4,2.7,6.9,5.3,10.4,7.9
			c0.3,0.2,0.5,0.5,0.8,0.8c-3.1,3.6-6.1,7.2-9.2,10.8c-0.2,0.3-0.3,0.5-0.7,0.2c-2.4-2-4.8-4-7.2-6
			C-673.4,147.1-674.8,146-676.2,144.8z"/>
		<path class="st4" d="M-657.7,195.3c0.1,0.4-0.2,0.2-0.3,0.3c-4.6,1.9-9.1,3.8-13.7,5.8c-0.5,0.2-0.8,0.1-1-0.4
			c-1.2-2.2-2.5-4.3-3.7-6.5c-0.8-1.4-1.5-2.8-2.3-4.1c-0.3-0.5-0.1-0.7,0.4-0.9c4.4-1.6,8.9-3.1,13.3-4.7c0.5-0.2,0.8-0.2,1.2,0.4
			c2,3.3,4.1,6.6,6.1,9.9C-657.8,195-657.8,195.2-657.7,195.3z"/>
		<path class="st4" d="M-464.9,195c-2.8,1.6-5.5,3.1-8.1,4.7c-3,1.7-6,3.4-9,5.2c-0.7,0.4-1,0.3-1.1-0.4c-0.4-2.3-0.9-4.6-1-7
			c-0.1-3.9,0.1-7.8,0.9-11.6c0.3-1.3,0.3-1.3,1.4-0.7c3.2,1.9,6.4,3.7,9.7,5.6C-469.8,192.2-467.4,193.5-464.9,195z"/>
		<path class="st4" d="M-658.5,160c4.3-2.7,8.5-5.4,12.8-8.1c0.4-0.2,0.8-0.5,1.2-0.7c1.3-0.8,1.3-0.8,2.1,0.6
			c1.2,1.9,2,3.9,2.6,6.1c0.8,3.1,0.3,5.9-1,8.7c-0.5,1.1-1.1,2.1-1.8,3.1c-0.4,0.7-0.6,0.5-1.1,0.2c-4.7-3.1-9.4-6.2-14.2-9.3
			C-658.1,160.5-658.3,160.2-658.5,160z"/>
		<path class="st3" d="M-454.3,166.8c-1.2,3.1-1.6,6.2-1.4,9.4c0.1,1.2,0.3,2.4,0.5,3.6c0.1,0.4,0.2,0.7-0.5,0.7
			c-6.3,0-12.6,0-18.9,0c-0.3,0-0.6,0-0.7-0.4c-1-2.9-1.4-5.9-0.6-9c0.2-0.6,0.4-0.8,1.1-0.8c2.5,0,5,0,7.4,0c0.6,0,1,0.2,1.3,0.6
			c0.2,0.2,0.3,0.5,0.5,0.7c1.4,1.5,1.8,2.4,4,0.6c2.1-1.8,4.4-3.3,6.6-5C-454.9,167-454.7,167-454.3,166.8z"/>
		<path class="st4" d="M-460.8,152.4c2.8,3.1,5.5,6.2,8.2,9.2c0.4,0.5,0.1,0.6-0.2,0.8c-3.4,2.6-6.8,5.1-10.2,7.7
			c-0.5,0.4-0.7,0.1-0.9-0.2c-1.6-1.9-3.3-3.7-4.8-5.7c-0.6-0.7-1.4-1.4-1.9-2.2c-0.3-0.4-0.3-0.6,0.1-0.9c2.2-2,4.4-4,6.6-5.9
			C-463,154.3-461.9,153.4-460.8,152.4z"/>
		<path class="st3" d="M-462.8,150.9c-2.2,2-4.4,3.9-6.5,5.8c-0.1,0.1-0.2,0.1-0.3,0.2c-1.4,2.1-3.5,2.2-5.8,2.1
			c-2.5-0.1-4.9-0.1-7.4,0c-0.8,0-1.1-0.3-1-1.1c0.4-2.4,0.3-4.9,0.7-7.3c0.2-0.9-0.1-1.8,0.1-2.7c0.1-0.5,0.3-0.8,0.9-0.8
			c4.2,0,8.3,0.2,12.5-0.1c0.1,0,0.3,0.1,0.4,0.1C-467.1,148.4-465,149.6-462.8,150.9z"/>
		<path class="st3" d="M-645.4,141.3c-2.6,0-5,0-7.5,0c-0.5,0-0.9-0.3-1.3-0.5c-3.6-2.7-7.1-5.5-10.7-8.2c-0.5-0.4-0.6-0.6-0.1-1
			c1.4-1.2,2.7-2.5,4-3.8c0.7-0.7,1.5-0.4,2.3-0.4c2.4,0,4.8,0,7.2,0.1c0.6,0,0.9,0.3,1.4,0.6c1.8,1.3,1.8,3.3,2.3,5
			C-646.9,135.8-646.2,138.5-645.4,141.3z"/>
		<path class="st3" d="M-613.2,169.4c2.4,0,4.7,0,7.1,0c0.8,0,1.1,0.3,0.9,1c-0.4,1.7-0.1,3.5-0.4,5.2c-0.2,0.8-0.7,0.8-1.2,0.8
			c-3.7,0.4-7.4,0.8-11.1,1.2c-0.9,0.1-1.8,0.1-2.6,0.4c-0.6,0.2-0.9-0.1-0.9-0.8c-0.1-2.4,0.4-4.8,0.3-7.3c0-0.8,0.5-0.6,1-0.6
			C-617.9,169.4-615.6,169.4-613.2,169.4z"/>
		<path class="st4" d="M-468.9,232.2c4.8,2.7,9.6,5.3,14.5,8.1c-4.9,2.5-9.7,4.8-14.5,7.2C-470.2,241.5-470.5,240.1-468.9,232.2z"/>
		<path class="st3" d="M-615.1,205.2c-2.2,0-4.4,0-6.6,0c-0.8,0-1.1-0.2-1-1c0.3-1.9,0.2-3.8,0.2-5.7c0-0.5,0.2-0.7,0.7-0.5
			c2.2,0.9,4.5,0.6,6.8,0.8c2.4,0.2,4.8,0.3,7.2,0.5c0.4,0,0.6,0.1,0.6,0.5c0.1,1.6-0.2,3.3-0.3,4.9c0,0.6-0.6,0.4-0.9,0.4
			C-610.5,205.2-612.8,205.2-615.1,205.2z"/>
		<path class="st4" d="M-453.5,174.7c0.1-1.9,0.4-4,1.1-6c0.2-0.7,0.4-0.9,1.1-0.4c3.1,2.2,6.3,4.4,9.5,6.5c0.6,0.4,0.5,0.6-0.1,1
			c-3,1.9-5.9,3.8-8.9,5.7c-1.2,0.8-1.3,0.7-1.7-0.7C-453,178.8-453.4,176.9-453.5,174.7z"/>
		<path class="st2" d="M-643.7,137.3c0.7,1.4,1.7,1.8,3.1,1.4c0.7-0.2,1.6,0.1,2.3-0.1c1.5-0.3,2,0.7,2.6,1.7
			c0.3,0.5,0.3,0.7-0.4,0.7c-0.8,0-1.7,0-2.5,0c-0.6,0-1.2,0-1.5,0.6c-0.3,0.6-0.1,1.1,0.3,1.6c1.5,2.3,3,4.6,4.6,7.2
			c-1.8,0-3.4,0.1-5.1,0c-0.7-0.1-0.9-0.9-1.2-1.5c-0.9-1.6-1.8-1.6-3.3-0.6c-2.4,1.6-4.9,3.2-7.4,4.7c0,0-0.1,0-0.3-0.1
			c0.2-0.2,0.4-0.5,0.6-0.7c2.8-2.9,5.7-5.9,8.5-8.7c0.6-0.6,0.6-1.3,0.4-2c-0.3-1.1-0.6-2.2-1-3.3
			C-643.8,138-643.9,137.7-643.7,137.3z"/>
		<path class="st3" d="M-654.4,231.5c0.5-0.6,1.2-0.8,1.8-1.2c0.6-0.4,1.1-0.8,0.9-1.6c-0.2-0.7-0.8-1-1.5-1c-0.6,0-1.2,0-2,0
			c1.1-0.8,2.1-1.5,3.1-2.2c0.5-0.4,0.8,0,1.2,0.2c2.1,1.3,4.1,2.7,6.2,4c1.4,0.9,2.4,1,3.3-0.6c0.7-1.3,1.7-1.7,3.3-1.7
			c3.7,0.1,7.5,0,11.2,0.2c-1.6,0.5-3.1,1-4.7,1.4c-3.6,1.1-7.2,2.1-10.8,3.2c-1.5,0.4-2.9-0.1-4.3-0.2c-1.3-0.1-2.6-0.1-3.8-0.3
			C-651.9,231.7-653.1,231.5-654.4,231.5z"/>
		<path class="st3" d="M-621.4,191.3c-0.5,0.1-0.7-0.2-0.6-1.1c0.2-1.8,0-3.6,0.1-5.4c0-0.6,0.2-0.6,0.5-0.4c2.2,1,4.6,0.8,6.9,1
			c2.5,0.1,5.1,0.5,7.6,0.4c0.7,0,0.8,0.3,0.7,0.9c0,0.3-0.2,0.5-0.2,0.8c-0.1,0.7,0.3,1.6-0.2,1.9c-0.6,0.4-1.5,0.4-2.2,0.4
			c-1.9,0.2-3.8,0.5-5.7,0.7C-616.6,190.7-618.8,191.1-621.4,191.3z"/>
		<path class="st3" d="M-670.5,203.4c3.5-1.5,6.8-2.9,10.2-4.3c0.2-0.1,0.5-0.1,0.7-0.1c3,0,6.1,0,9.1,0c0.2,0,0.8-0.3,0.6,0.4
			c-0.1,0.4-0.1,0.8-0.8,0.6c-2.2-0.4-4.5-0.2-6.7-0.1c-0.8,0-1.4,0.7-1.6,1.5c-0.2,1-0.5,2-0.7,2.9c-0.5,1.6,0,2.3,1.7,2.3
			c1.6,0,3.2,0,4.8,0c0.3,0,0.8-0.2,0.8,0.4c0,0.5-0.4,0.5-0.8,0.5c-3.8,0-7.6,0-11.4,0c-0.9,0-1.4-0.9-2.1-1.4
			C-668,205.4-669.3,204.6-670.5,203.4z"/>
		<path class="st3" d="M-514.3,174.9c0-0.2,0-0.3,0-0.3c0-2.3,0.3-2.5,2.6-2c2.1,0.4,4.1,0.6,6.2,0.8c2.2,0.3,4.4,0.6,6.7,0.9
			c0.7,0.1,0.8,0.3,0.7,1c-0.4,1.6-0.4,1.5-2,1.4c-1.6-0.1-3.2-0.2-4.8-0.2c-2.7-0.1-5.3-0.4-8-0.3
			C-513.8,176.2-515,176.3-514.3,174.9z"/>
		<path class="st3" d="M-509.3,143.6c-0.2-0.8,0.2-1.4,0.3-2.1c0-0.7,0.7-0.4,1-0.4c2.1,0.2,4.1,0.5,6.2,0.8
			c2.1,0.3,4.2,0.6,6.3,0.8c0.7,0.1,1.3,0.2,2,0.3c0.1,0,0.4,0.1,0.4,0.2c0.3,0.7-0.1,1.4-0.2,2.1c-0.1,0.6-0.6,0.3-1,0.3
			c-3.8-0.4-7.6-0.2-11.4-0.7c-0.8-0.1-1.6-0.1-2.4,0C-509.2,145-509.6,144.6-509.3,143.6z"/>
		<path class="st3" d="M-511.7,158.2c0-0.5,0.3-1.2,0.3-1.9c0-0.4,0.2-0.4,0.6-0.4c4.6,0.6,9.2,1.2,13.9,1.7
			c1.7,0.2,1.8,0.5,1.4,2.2c-0.2,0.9-0.7,0.7-1.2,0.6c-0.7-0.2-1.3-0.2-2-0.2c-4-0.2-8-0.3-12.1-0.5
			C-511.9,159.7-511.7,159-511.7,158.2z"/>
		<path class="st3" d="M-468.8,168c-2.2,0-4.3,0-6.3,0c-0.3,0-0.6,0-0.9-0.3c-2-2-4.1-4.1-6.4-6.3c2.8,0,5.4,0,7.9,0
			c0.8,0,0.7,0.8,1.1,1.2C-471.8,164.3-470.4,166.1-468.8,168z"/>
		<path class="st3" d="M-660.6,185.9c0.6,0,1.1,0.1,1.6,0c1.9-0.4,2.8,0.6,3.7,2.2c1.5,2.9,3.2,5.7,4.8,8.7c-1.3,0-2.4,0-3.6,0
			c-0.3,0-0.6,0-0.6-0.4c0-1.6-1.2-2.7-1.9-3.9C-657.8,190.2-659.2,188.2-660.6,185.9z"/>
		<path class="st3" d="M-646.6,144.2c-2.6,2.5-5.2,5-7.9,7.4c-0.2,0.2-0.5,0.3-0.9,0.3c-1.2,0-2.3,0-3.7,0c1.4-1.7,2.7-3.3,4-4.8
			c0.5-0.6,1.1-1.1,1.5-1.8c0.8-1.5,2.1-1.8,3.6-1.6c1,0.1,1.9,0,2.9,0C-646.8,143.9-646.7,144-646.6,144.2z"/>
		<path class="st3" d="M-608.2,181.4c2.8-0.2,5.6-0.3,8.4-0.5c0.9-0.1,1.3,0.2,0.9,1.1c-0.3,0.6,0.3,1.4-0.3,1.9
			c-0.6,0.4-1.3-0.1-1.9-0.2c-3.5-0.1-6.9-0.2-10.4-0.5c-1.9-0.2-3.7,0.1-5.6-0.4c-0.3-0.1-0.7,0-0.7-0.5c0-0.5,0.4-0.4,0.7-0.4
			C-614.2,181.7-611.2,181.5-608.2,181.4C-608.2,181.4-608.2,181.4-608.2,181.4z"/>
		<path class="st3" d="M-601.9,194.3c0,0,0.1,0,0.1,0c2.3,0,2.3,0,1.8,2.3c-0.1,0.5-0.4,0.5-0.8,0.5c-2.4,0-4.7-0.2-7.1-0.4
			c-1.6-0.1-3.1-0.1-4.7-0.2c-1.8-0.1-3.7-0.4-5.5-0.3c-0.3,0-0.8,0.2-0.8-0.4c-0.1-0.6,0.5-0.4,0.8-0.6c0.6-0.2,1.3-0.2,2-0.2
			c3.7,0,7.4-0.5,11.1-0.5C-604,194.5-603,194.4-601.9,194.3z"/>
		<path class="st3" d="M-506.5,233c-0.9-0.3-0.7-1.3-1-2c-0.3-0.8,0.5-0.6,0.8-0.6c2.4-0.3,4.7-0.5,7.1-0.8c2.5-0.3,4.9-0.4,7.4-0.9
			c0.2,0,0.5,0,0.7,0c0.5-0.1,0.6,0.2,0.7,0.6c0.1,0.5-0.3,0.5-0.6,0.5c-2.6,0.6-5.3,1.1-8,1.7c-2.1,0.4-4.3,0.9-6.4,1.3
			C-506,232.9-506.2,233-506.5,233z"/>
		<path class="st3" d="M-495,215.7c-0.1,0.4-0.6,0.4-0.9,0.5c-1.9,0.4-3.8,0.8-5.7,1.2c-2.9,0.6-5.8,1.2-8.6,1.8
			c-0.3,0.1-0.7,0.2-0.8-0.1c-0.3-0.7-0.7-1.3-0.6-2.1c0.1-0.4,0.6-0.2,0.9-0.2c2.5-0.3,5.1-0.6,7.6-0.9c1.7-0.2,3.4-0.4,5.1-0.5
			c0.7-0.1,1.4-0.1,2.1-0.2C-495.4,215-495.2,215.3-495,215.7z"/>
		<path class="st3" d="M-672.6,295.3c-2.2-0.2-4.1-0.4-6.1-0.7c-1.7-0.2-3.5-0.4-5.2-0.6c-1.4-0.2-2.7-0.4-4.1-0.5
			c-0.7-0.1-0.6-0.5-0.6-0.9c4.5-0.5,9-0.2,13.5-0.3c0.4,0,0.8,0.1,1,0.4C-673.6,293.5-673.2,294.3-672.6,295.3z"/>
		<path class="st3" d="M-654.8,276.3c-1.8-0.2-3.5-0.3-5.2-0.5c-1.7-0.2-3.5-0.5-5.2-0.7c-1.6-0.2-3.2-0.3-4.9-0.5
			c-0.5,0-0.7-0.4-0.7-0.8c-0.1-0.6,0.5-0.4,0.8-0.4c4.3,0,8.6,0,13-0.1c0.4,0,0.7,0.2,0.9,0.4
			C-655.7,274.6-655.3,275.4-654.8,276.3z"/>
		<path class="st3" d="M-623.3,197.2c-1.6,0-3.1,0-4.5,0c-0.8,0-1.1-0.3-0.9-1c0.3-1.1,0.2-2.2,0.2-3.2c0-0.8,0.3-1,1-1
			c1.3,0.1,2.6,0,3.9,0c0,1.2,0.1,2.5,0.1,3.7C-623.6,196.2-623.6,196.6-623.3,197.2z"/>
		<path class="st3" d="M-625.5,183.5c-0.9,0-2,0.3-2.5-0.1c-0.4-0.3-0.1-1.6-0.1-2.4c0-2-0.3-1.7,1.7-1.7c1,0,2,0,2.9,0
			c0.6,0,0.9,0.1,0.8,0.8c0,0.2,0,0.4,0,0.6C-622.6,183.5-622.6,183.5-625.5,183.5z"/>
		<path class="st3" d="M-654.9,278.8c-1,2-2.6,1-3.9,0.8c-4.1-0.6-8.2-1.4-12.4-2.1c0.5-0.4,5.7,0,8,0.4
			C-660.4,278.2-657.6,278.5-654.9,278.8z"/>
		<path class="st3" d="M-688.9,296.2c0.2-0.4,0.5-0.3,0.7-0.3c2.7,0.5,5.5,0.6,8.2,0.9c2.2,0.2,4.3,0.6,6.5,0.7
			c0.3,0,0.7,0.1,0.5,0.4c-0.3,0.5-0.6,1.1-1.3,1c-2.3-0.4-4.6-0.8-6.9-1.2c-2.2-0.4-4.3-0.7-6.5-1.1
			C-688.2,296.5-688.5,296.3-688.9,296.2z"/>
		<path class="st3" d="M-630.3,131c2.8-0.7,5.6-1.2,8.4-2c1.2-0.4,1.2,0.6,1.7,1.1c0.2,0.2-0.1,0.4-0.4,0.4
			c-1.8,0.1-3.5,0.5-5.3,0.7c-1,0.1-2.1,0.2-3.1,0.4C-629.5,131.7-630,131.7-630.3,131z"/>
		<path class="st3" d="M-644,111c2.9-0.7,5.7-1.3,8.5-2c1.1-0.3,1.1,0.6,1.5,1.1c0.2,0.3-0.2,0.4-0.5,0.4c-2.8,0.3-5.5,0.7-8.3,1.2
			C-643.3,111.7-643.7,111.7-644,111z"/>
		<path class="st3" d="M-646.9,91.3c-2.9,0.4-5.7,0.8-8.6,1.3c-0.2,0-0.4,0-0.6,0c-0.3,0-0.7,0.1-0.7-0.3c0-0.4,0.4-0.3,0.6-0.4
			c2.3-0.6,4.7-1.1,7-1.7C-647.8,89.7-647.3,90.1-646.9,91.3z"/>
		<path class="st4" d="M-653.9,202.6c0.7,0,1.4,0,2.1,0c0.3,0,0.9-0.2,0.8,0.3c-0.1,0.4,0,1.3-0.7,1.3c-1.6,0.1-3.3,0-4.9,0
			c-0.3,0-0.6-0.2-0.4-0.4c0.3-0.4-0.2-1.2,0.7-1.3C-655.6,202.6-654.7,202.6-653.9,202.6z"/>
		<path class="st5" d="M-680.8,60.2c-0.4,1.4-1.1,1.9-2.4,1.7c-2.5-0.3-5,0.4-7.5,0.2c0-0.1,0-0.2,0-0.3
			C-687.4,61.3-684.2,60.8-680.8,60.2z"/>
		<path class="st3" d="M-673.6,77.3c0.6-0.5,1.3-0.4,1.9-0.5c2.3-0.4,4.6-0.7,6.9-1c0.3,0,0.9-0.6,0.9,0c0.1,0.4-0.2,1.1-0.8,1.3
			c-0.1,0-0.2,0-0.3,0c-2.7,0.1-5.5,0.2-8.2,0.2C-673.3,77.5-673.4,77.4-673.6,77.3z"/>
		<path class="st4" d="M-677.5,138.7c0.8-2.5,3-2.1,4.9-2.3C-674.4,139.3-674.2,138.8-677.5,138.7z"/>
		<path class="st2" d="M-642.3,130.7c-1,0-1.8,0-2.7,0c-0.8,0-1.5-0.9-1.3-1.7c0-0.1,0.1-0.2,0.2-0.2
			C-644.8,128.2-643,129.1-642.3,130.7z"/>
		<path class="st3" d="M-505.6,227.9c0.5-0.7,0.8-1.1,1.4-1.1c2.2,0,4.5,0,6.7,0.2C-500.1,227.3-502.8,227.6-505.6,227.9z"/>
		<path class="st5" d="M-502,213.2c-2.6,0.2-5.1,0.9-7.8,0.9c0.4-0.6,0.7-1,1.3-0.9C-506.3,213.2-504.1,213.2-502,213.2z"/>
		<path class="st4" d="M-669.9,133.3c-0.1,0.5-0.5,0.7-1,0.7c-1.3,0-2.7,0-4,0c-0.3,0-0.6,0.1-0.6-0.4c0-0.4,0.3-0.4,0.6-0.4
			C-673.3,133.3-671.6,133.3-669.9,133.3z"/>
		<path class="st6" d="M-634.5,112.9c-0.3,0.4-0.3,0.9-0.9,0.9c-2.1,0-4.3,0-6.4,0.1C-639.4,113.5-637,113.2-634.5,112.9z"/>
		<path class="st3" d="M-620.8,132.9c-0.2,0.5-0.3,0.9-0.8,0.9c-2.1,0-4.2-0.1-6.3,0.1C-625.6,133.6-623.3,133.2-620.8,132.9z"/>
		<path class="st6" d="M-654.6,94.8c2.1-0.3,3.8-0.6,5.6-0.8c0.2,0,0.4,0,0.6,0c0.2,0,0.6-0.1,0.6,0.3c0,0.3-0.3,0.4-0.6,0.4
			C-650.3,94.5-652.3,95.2-654.6,94.8z"/>
		<path class="st7" d="M-680.6,138c0.7-1.2,1.6-2.2,2.8-3.4C-678.4,136.2-679.7,136.9-680.6,138z"/>
		<path class="st3" d="M-664.3,73.2c-1.5,0.3-3.1,0.5-4.6,0.8c0-0.1,0-0.2,0-0.2c1.5-0.3,3-0.6,4.6-1
			C-664.4,72.9-664.3,73.1-664.3,73.2z"/>
		<path class="st8" d="M-685.2,58.3c1.2-0.3,2.4-0.7,3.7-0.6C-682.8,58-684,58.5-685.2,58.3z"/>
		<path class="st9" d="M-495.4,175.1c0.4,0.7,0.2,1.4-0.2,2C-496.2,176.4-495.6,175.8-495.4,175.1z"/>
		<path class="st9" d="M-492.8,158.4c0.3,0.7,0.2,1.3,0.2,1.9c0,0.2-0.2,0.3-0.4,0.3c-0.4,0-0.2-0.2-0.1-0.4
			C-493,159.7-493.3,159.1-492.8,158.4z"/>
		<path class="st3" d="M-490.8,145.7c0.1-0.6,0.1-1.3,0.2-1.9C-490.2,144.5-490.1,145.2-490.8,145.7z"/>
		<path class="st0" d="M-629.2,306.4c0.1,0.5-0.2,0.9-0.7,1c-0.6,0.1-1.2,0.2-1.6-0.4c-0.3-0.4-0.5-0.9-0.7-1.3
			c-0.3-0.6-0.7-1-1.4-1c-0.9,0-1.3-0.6-1.5-1.3c-0.2-0.6-0.4-1.3-0.5-2c-0.1-0.6-0.4-0.9-0.9-0.9c-0.6,0-1.1-0.3-1.7-0.3
			c-1.1,0-1.6-0.7-1.7-1.7c-0.2-1.6-0.9-2-2.4-1.4c-0.8,0.4-1.5,0.4-2-0.5c-0.5-1,0.3-1.4,1-1.7c2.7-1.3,4.5-0.6,5.5,2.2
			c0.2,0.6,0.6,1,1.2,0.9c2.2,0,3.1,1.4,3.5,3.3c0.2,0.8,0.5,1,1.1,1.2C-630.8,302.9-629.2,305.2-629.2,306.4z"/>
		<path class="st0" d="M-566,182.3c-1.2,0.1-2.2-0.2-3.1-0.3c-1.8-0.3-2.1-0.2-2.3,1.7c-0.1,0.6-0.2,1.1-0.3,1.7
			c-0.1,0.6-0.6,0.9-1.2,1c-0.6,0-1.1-0.5-1.1-0.9c0.1-1.7,0-3.4,1.1-4.9c1-1.3,2.6-1.4,3.9-1c3.1,0.9,5.8-0.3,8.7-0.9
			c0.9-0.2,1.9-0.4,2.9-0.4c0.8,0,1.2,0.6,1.3,1.1c0,0.6-0.3,1.2-1.1,1.2c-2.5,0.2-4.8,1-7.2,1.5
			C-565.1,182.3-565.7,182.2-566,182.3z"/>
		<path class="st0" d="M-504.4,283.4c0,0.3-0.2,0.7,0.1,0.8c0.4,0.2,0.8-0.1,1.1-0.3c0.9-0.8,1.9-1.4,3.1-0.9
			c1.2,0.5,1.5,1.7,1.9,2.7c0.2,0.6,0.6,1.3,1,1.8c0.7,0.8,0.4,1.5-0.3,2c-0.7,0.5-1.4-0.1-1.8-0.7c-0.5-0.9-1-1.8-1.3-2.8
			c-0.2-0.5-0.4-0.9-1.1-0.3c-1.1,1-2.4,1.2-3.6,0.6c-0.7-0.3-0.9,0-1.1,0.5c-0.3,0.8-0.7,1.6-1,2.3c-0.3,0.7-0.7,1.1-1.5,1
			c-0.9-0.2-0.9-0.9-0.8-1.6c0.2-1.3,0.9-2.4,1.5-3.5c0.5-0.8,1-1.6,1.5-2.5c0.3-0.7,0.9-1.1,1.6-0.9
			C-504.6,282-504.2,282.7-504.4,283.4z"/>
		<path class="st0" d="M-609.2,255.6c-0.5,0.5-1.1,1-1.5,1.5c-0.6,0.6-1,1.3-1.1,2.1c-0.1,0.7-0.5,1.2-1.2,1.2
			c-0.7,0-1.2-0.4-1.1-1.3c0-0.7,0.1-1.4,0.5-2c1.2-1.8,2.4-3.5,4.2-4.7c1-0.7,2.2,0,2.4,1.2c0.1,0.9,0.2,1.8,0.4,2.7
			c0.1,0.7,0.4,1,1.2,0.9c1.2-0.1,2.3,0,3.5,0.2c0.8,0.1,1.3,0.6,1.3,1.2c0,0.7-0.5,1.2-1.3,1.1c-1.4-0.1-2.9,0.1-4.3-0.1
			c-1.9-0.3-2.6-1.7-2.8-3.6C-609.2,255.9-609.2,255.7-609.2,255.6z"/>
		<path class="st0" d="M-495.6,308.1c1.2-1.1,2.2-2.3,3.4-3.2c1.6-1.1,3.4-0.9,4.4,0.7c0.4,0.6,0.5,1.3-0.1,1.8
			c-0.6,0.5-1.1,0.4-1.6-0.2c-0.6-0.7-1.1-0.6-1.8,0c-1.1,1.1-2,2.3-3.3,3.1c-2,1.3-2.5,1.3-3.8-0.8c-0.2-0.3-0.3-0.1-0.4,0
			c-0.5,0.2-0.9,0.4-1.3,0.7c-0.8,0.5-1.5,0.2-1.9-0.5c-0.4-0.7,0.1-1.3,0.7-1.6c1-0.7,2.1-1.3,3.2-1.8
			C-496.7,305.8-495.9,306.4-495.6,308.1z"/>
		<path class="st0" d="M-514.1,264.1c2.3,0.3,4.8,0.3,6.5,2.4c0.7,0.9,0.3,1.8-0.7,2c-0.4,0.1-0.7-0.1-0.9-0.3
			c-1.1-1.1-2.5-1.4-4-1.4c-1.8,0-3.6-0.1-5.3,0.7c-1,0.4-2,0.8-2.7,1.7c-0.5,0.7-1.2,0.6-1.7,0.1c-0.6-0.5-0.5-1.2,0-1.8
			c1.6-1.9,3.8-2.7,6.2-3.1C-515.9,264.2-515,263.8-514.1,264.1z"/>
		<path class="st0" d="M-563.4,265.3c0,1.2-0.6,1.6-1.3,1.5c-2.2-0.4-4.5-0.1-6.7-0.2c-1.1,0-2.3,0-3.2-0.7
			c-0.4-0.3-0.5,0.1-0.7,0.2c-0.7,0.3-1.5,0.8-2.3,0.2c-0.4-0.3-0.7-0.7-0.6-1.2c0.1-0.4,0.3-0.9,0.9-0.9c0.6,0,1-0.4,1.4-0.8
			c0.3-0.3,0.6-0.6,1-0.8c1-0.7,1.9-0.4,2.2,0.7c0.2,0.7,0.6,0.9,1.2,0.9c2.2,0,4.3,0,6.5,0C-564.1,264.3-563.5,264.7-563.4,265.3z"
			/>
		<path class="st0" d="M-531,80.1c-1.1,0.1-2.1-0.2-3.2-0.4c-0.5-0.1-1.1-0.3-0.8,0.7c0.3,0.8-1,2.5-1.8,2.9c-0.5,0.2-0.8,0-1.1-0.2
			c-0.4-0.4-0.6-1-0.3-1.5c0.5-0.8,0.6-1.6,0.6-2.5c0-1,1-1.7,2.2-1.8c1.2-0.1,2.4,0.2,3.6,0.4c1.5,0.3,1.9,0.1,2.2-1.4
			c0.1-0.6,0.5-1.1,1.2-1.1c0.7,0,1.1,0.5,1.2,1.2C-527,78.2-527.9,80.3-531,80.1z"/>
		<path class="st0" d="M-581.6,153.8c0.5,0.1,1.1,0.1,1.6,0.3c1.1,0.4,2,0.2,2.9-0.5c1.4-0.9,4,0.4,4.1,2c0,0.5,0.1,0.9-0.5,1.3
			c-0.6,0.3-1.1,0.1-1.4-0.2c-0.7-1-1.4-0.8-2.4-0.3c-1.2,0.6-2.6,0.3-3.9,0c-0.8-0.2-0.9,0.1-1.1,0.7c-0.2,0.6-0.4,1.1-0.7,1.7
			c-0.3,0.7-0.9,1.1-1.6,0.7c-0.8-0.3-0.9-1-0.5-1.7c0.3-0.7,0.5-1.5,0.9-2.2C-583.6,154.5-582.9,153.8-581.6,153.8z"/>
		<path class="st0" d="M-541.6,160.9c1.6-0.1,2.4,0.7,2.8,1.7c0.5,1.2,1.4,1.6,2.5,1.5c2.1-0.1,3.4,1.2,4.9,2.3
			c0.5,0.4,0.7,1,0.3,1.6c-0.5,0.6-1.1,0.6-1.7,0.3c-0.3-0.2-0.5-0.3-0.7-0.6c-1.2-1.1-2.7-1.2-4.2-1.4c-1.4-0.2-2.5-1-3-2.3
			c-0.2-0.5-0.4-0.9-1.1-0.7c-0.9,0.3-1.8,0.5-2.2-0.7c-0.3-0.8,0.5-1.5,1.8-1.7C-541.9,160.9-541.6,160.9-541.6,160.9z"/>
		<path class="st0" d="M-621.5,290.4c0,0.6-0.3,1-0.9,1.2c-0.5,0.2-1,0-1.3-0.5c-0.4-1-1.2-1.1-2.1-1.1c-1.7,0-3.3,0.2-5-0.2
			c-1-0.2-1.4-0.8-1.6-1.7c-0.1-0.3-0.1-0.6-0.5-0.8c-0.5-0.4-0.8-1.1-0.4-1.7c0.4-0.7,1.3-0.9,2.1-0.9c0.7,0,1.2,0.5,1.3,1.3
			c0.1,0.5-0.3,1.3,0.2,1.5c0.4,0.3,1.1,0.1,1.7,0.1c1.4,0.1,2.9-0.2,4.3,0.2C-622.5,288.2-621.5,289.4-621.5,290.4z"/>
		<path class="st0" d="M-563.9,102.5c2.4,0.1,4.3,0.5,4.8,3c0.1,0.5,0.5,0.6,0.9,0.9c0.6,0.5,0.7,1.1,0.3,1.8
			c-0.4,0.6-1,0.6-1.6,0.2c-1-0.6-1.6-1.4-1.9-2.5c-0.2-0.6-0.5-0.9-1.1-0.8c-0.7,0.1-1.5,0-2.2,0c-0.7,0.1-1.4,0-1.7,1
			c-0.2,0.7-0.9,0.8-1.6,0.5c-0.7-0.4-0.8-1-0.6-1.8c0.4-1.4,1.7-1.7,2.8-2C-565.1,102.6-564.4,102.5-563.9,102.5z"/>
		<path class="st0" d="M-597.9,69.5c-1.9,0-2.8-1.1-3.4-2.4c-0.4-0.9-0.8-1.5-1.8-0.7c-0.6,0.5-1.2,0.3-1.6-0.4
			c-0.4-0.7-0.3-1.3,0.4-1.7c2.2-1.3,3.8-1.4,5,1.2c0.9,1.9,1.2,1.9,3,0.9c0.2-0.1,0.4-0.3,0.7-0.4c0.6-0.2,1.1,0,1.5,0.5
			c0.4,0.6,0.2,1-0.2,1.4C-595.4,69-596.7,69.2-597.9,69.5z"/>
		<path class="st0" d="M-529.5,215.9c-1.5,1.1-2.8,2.2-4.6,2c-0.6,0-1.2-0.2-1.8-0.5c-0.6-0.3-0.8-1-0.6-1.6
			c0.2-0.4,0.8-0.9,1.3-0.7c1.8,1,2.9-0.3,4.2-1.2c0.5-0.4,1-0.9,1.7-0.9c1.1-0.1,2,0.5,2.2,2.4c0.1,0.5,0,1.1,0,1.6
			c0.1,0.9-0.6,1.3-1.2,1.3c-0.6,0-1.3-0.4-1.2-1.3C-529.4,216.7-529.5,216.4-529.5,215.9z"/>
		<path class="st0" d="M-549.2,91.2c-1,1.9,0.6,2.6,2,3.4c1.6,0.9,2.5,2.1,2.6,3.9c0,0.8-0.3,1.3-1.1,1.5c-0.7,0.1-1.3-0.4-1.3-1
			c0-1.5-1-2.1-2.1-2.6c-2.8-1.5-3.1-3.3-2.4-5.6c0.2-0.6,0.6-1.1,1.3-0.9C-549.7,89.9-549.2,90.4-549.2,91.2z"/>
		<path class="st0" d="M-619.9,105.3c1.8-0.1,3.4,0,4.9,0.7c0.8,0.3,1.5,0.7,1.5,1.7c0,0.5,0,0.9-0.5,1.2c-0.4,0.3-0.9,0.1-1.2-0.1
			c-2.1-1.6-4.5-1.2-6.8-1c-0.5,0.1-1.1,0.1-1.6,0.2c-0.6,0.1-1.3-0.3-1.3-1.1c-0.1-0.8,0.5-1.3,1.2-1.4
			C-622.4,105.4-621,105.1-619.9,105.3z"/>
		<path class="st0" d="M-496.2,55.1c-1.8,0.3-3.2-0.4-3.9-2.1c-0.2-0.5-0.6-0.5-1-0.5c-0.8,0-1.3-0.6-1.3-1.3c0-0.7,0.6-1,1.2-1.2
			c1.1-0.3,2.4,0.2,3,1.3c0.9,1.5,1.5,1.8,3.2,1.3c0.4-0.1,0.8-0.1,1.2-0.1c0.6,0.1,0.9,0.6,1,1.2c0,0.5-0.3,0.9-0.8,1.1
			c-0.2,0.1-0.4,0.2-0.6,0.2C-495,55.1-495.6,55.1-496.2,55.1z"/>
		<path class="st0" d="M-557.3,81.8c0,1-0.8,1.7-1.6,1.1c-1-0.7-1.9-0.5-2.9-0.1c-1.3,0.5-2.6,0.8-3.9,0.8c-1,0-1.7-0.5-1.6-1.4
			c0-0.8,0.8-1,1.6-1c1.5,0,2.8-0.7,4.2-1.1c1.5-0.4,2.8-0.5,3.9,0.8C-557.3,81.4-557.3,81.4-557.3,81.8z"/>
		<path class="st0" d="M-586.8,116.6c0,0.1,0,0.3-0.1,0.4c-0.4,0.7-3.2,1.6-3.9,1.3c-0.1-0.1-0.3-0.1-0.4-0.2
			c-0.4-0.7-0.8-1.4-1.9-1.2c-0.1,0-0.3-0.2-0.3-0.3c-0.6-0.9-0.1-1.7,0.3-2.5c0.3-0.7,0.9-1.3,1.8-1.1c0.9,0.1,1.3,0.8,1.4,1.5
			c0.1,1.2,0.6,1.2,1.5,0.8C-587.5,115-586.8,115.5-586.8,116.6z"/>
		<path class="st0" d="M-616.3,214.4c-1.2,0-2.4,0-3.7,0c-0.8,0-1.3-0.4-1.4-1.1c-0.2-0.8,0.3-1.1,1.1-1.4c0.5-0.1,0.9-0.1,1.4-0.2
			c2.2,0,4.3,0,6.5,0c0.9,0,1.7,0.4,1.7,1.4c0,1-0.9,1.1-1.7,1.2c-0.2,0-0.4,0-0.6,0C-614.1,214.4-615.2,214.4-616.3,214.4z"/>
		<path class="st0" d="M-628.2,221.4c-1.3,0-2.7,0-4,0c-0.9,0-1.5-0.4-1.5-1.2c0-0.9,0.7-1.1,1.5-1.1c2.6,0,5.2,0,7.9,0
			c0.9,0,1.4,0.5,1.4,1.2c0,0.7-0.5,1.2-1.4,1.1C-625.6,221.4-626.9,221.4-628.2,221.4z"/>
		<path class="st0" d="M-629,159.5c-1.4,0-2.8,0-4.1,0c-0.7,0-1.2-0.2-1.3-0.9c-0.1-0.7,0.2-1.2,1-1.3c0.3-0.1,0.6-0.1,0.9-0.1
			c2.4,0,4.9,0,7.3,0c1,0,1.6,0.5,1.6,1.3c0,0.9-0.7,1.1-1.5,1.1C-626.5,159.5-627.7,159.5-629,159.5z"/>
		<path class="st0" d="M-474.7,153.8c-1.3,0-2.4,0-3.5,0c-0.8,0-1.6-0.3-1.6-1.3c0-1,0.8-1.2,1.5-1.2c2.3,0,4.7,0,7.1,0
			c0.7,0,1.2,0.3,1.3,1c0.1,0.8-0.3,1.2-1.1,1.4C-472.3,154-473.7,153.7-474.7,153.8z"/>
		<path class="st0" d="M-654.9,134c-0.8,0-1.7,0-2.5,0c-0.6,0-1-0.3-1.1-0.9c-0.1-0.6,0-1.2,0.8-1.3c1.8-0.4,3.6-0.2,5.4-0.1
			c0.6,0,1.2,0.6,1.1,1.3c-0.1,0.7-0.6,1-1.3,1C-653.4,134-654.2,134-654.9,134z"/>
	</g>
	<rect id="rect3315-5-7-8-1-6" x="-704.1" y="46.5" class="st10" width="281.7" height="281.7">
	</rect>
	<path id="path8996-8-7" class="st11" d="M-423.2,324.1l-39.7-29.9l-29.6-47.1c-5.5-0.2-9-2.7-9.3-11 M-511.8,203.7
		c-5.5-7.5-3.6-13.5,0.1-19.1c0.7-5.8,0-0.1,0.8-5.8 M-506,139.8c0.8-6.2-0.4,3,0.4-3.2c-4.9-11.1-3.4-17.8,1.8-21.8l74.2-68.4"/>
	<g id="g7355">
		<path id="path11663-5-0" class="st11" d="M-642.9,259.7l-0.3-26l22.6-6.7"/>
		<path id="path11669-8-2" class="st11" d="M-603.7,168.1c3.2-9.1,0-15.7-5.1-16.6"/>
		<path id="path11671-0-6" class="st11" d="M-606.3,206c6,11.3,2.2,19.6-3.4,20.3"/>
		<path id="path11673-9-6" class="st11" d="M-621.7,226.5l12.4-0.3"/>
		<path id="path11675-2-8" class="st11" d="M-662.6,217.3l19-13.9c7,10.4,5.9,19.4,0,25.9L-662.6,217.3z"/>
		<path id="path11677-4-4" class="st11" d="M-661.3,159.8l17.9-11.4c7.8,10.7,4.7,17.7,0.2,23.4L-661.3,159.8z"/>
		<path id="path11679-3-6" class="st11" d="M-640.4,226.3h19.8"/>
		<path id="path11681-3-4" class="st11" d="M-640.4,168h36.5"/>
		<path id="path11683-9-7" class="st11" d="M-608.8,151.4h-32.6"/>
		<path id="path11685-0-4" class="st11" d="M-673.4,203l-8-14.1l17.1-6.1l8,13.1L-673.4,203z"/>
		<path id="path11687-5-3" class="st11" d="M-673.2,203.3l11.9,9"/>
		<path id="path11689-5-4" class="st11" d="M-665.8,208.9h13.6"/>
		<path id="path11691-4-9" class="st11" d="M-662.9,184.6l6.6,0l7.5,13.2h-11"/>
		<path id="path11693-4-1" class="st11" d="M-648.7,198.3l-3.6,11.2"/>
		<path id="path11695-3-6" class="st11" d="M-651.6,205.4h-7.6l1.1-4.2h7"/>
		<path id="path11697-8-8" class="st11" d="M-658.3,123.2l-9.5,8.6l14.3,10.9l-11.1,13.3l-13.7-11.4l10.5-12.6"/>
		<path id="path11699-2-9" class="st11" d="M-670.7,134.9l-6.2,0.2l-4.1,4.7h6.7"/>
		<path id="path11701-2-2" class="st11" d="M-660.2,125.8l9.1,0"/>
		<path id="path11703-6-7" class="st11" d="M-654.4,142.2h10.3l-10.5,10.7h-6.1"/>
		<path id="path11705-4-2" class="st11" d="M-641.1,206.3h34.8"/>
		<path id="path11707-0-2" class="st11" d="M-624.2,206.2l0.3-8.1l-6.4,0.1l0.3-7.6l6.4,0l0.2-6.1l-6.4,0l0.2-6.6l6.5,0l0.3-9.4"/>
		<path id="path11711-0-0" class="st11" d="M-653.3,224.7l-5.9,4l6,0.3l-5.5,3.2l-5.9,0l-1.9,1.1l0.1,3.7l5.8,0.6v6.1h-6l-0.1,4.7
			l6.1,0.1v4.9l-6.1-0.1l-0.2,1.3l-2.5,2.5l6.3,1.1l-4,4l-7.4-0.1l-3.5,3.5l7.3,0.4l-3.9,4l-7.8,0l-5.3,5.3l8-0.1l-4.5,4.6l-8.3,0.3
			l-4.4,4.4l8.1,0.1l-3.8,4l-8.6,0l-3,2.8"/>
		<path id="path11713-0-0" class="st11" d="M-648.4,127.5l4.2,14.6"/>
		<path id="path12241-8-1" class="st11" d="M-677.1,134.2l-0.5-2.6h8.9"/>
		<path id="path12243-1-2" class="st11" d="M-677.6,131.7l-5,5.3l0.9,2.7"/>
		<path id="path11709-7-6" class="st11" d="M-633.3,151.1l-6-9.1l6-0.2l-3.1-4.5l-6,0.1l-4-5.7l6.1-0.1l-2.9-4.3l-6.3-0.1l-3.3-5.1
			l6.1,0l-3.4-5l-5.9,0l-3.3-5l5.9-0.1l-3-4.3l-6-0.2l-3.3-4.9l5.9,0.1l-3.1-4.6l-5.6,0.1l-0.8-1.3l-3.7-3.5l6.8,0.2l-4.2-4
			l-6.6-0.1l-5-4.8l6.4,0.2l-4.3-4.1l-6,0.1l-4.6-4.4l6.1,0.1l-3.9-3.7l-5.9,0l-4-3.9l5.6-0.1l-3.6-3.4l-5,0l-2.6-2.7"/>
		<path id="path12261-6-1" class="st11" d="M-703.6,295.4h5.1l-5.1,4.7"/>
		<path id="path12263-7-3" class="st11" d="M-643.1,259.6l-21-1.6"/>
		<path id="path12263-2-1-8" class="st11" d="M-643.1,233.7l-18.7-1.6"/>
		<path id="path12285-48-3" class="st11" d="M-632.9,220.2h8.5"/>
		<path id="path12285-4-1-4" class="st11" d="M-620.7,213h8.5"/>
		<path id="path12285-3-8-7" class="st11" d="M-633.6,158.1h8.5"/>
		<path id="path12285-47-5-9" class="st11" d="M-657.8,132.6h5"/>
		<g id="g10437-7-31-9" transform="matrix(0,1.0668714,1.0600679,0,-348.12178,407.41152)">
			<g id="g10432-9-9-1">
				<path id="path9550-6-3-5" class="st11" d="M-103.2-304.3l2.9-3.1l-2.8-16.7l-2.6,1.7l-3-0.9l2.6-2.2"/>
				<path id="path9552-1-9-4" class="st11" d="M-105.6-322.3l2,17.9l-5.3-3.1l0.2-15.5"/>
				<path id="path10427-8-1-9" class="st11" d="M-106-325.4l2.9,1.2"/>
			</g>
		</g>
		<g id="g12553-0-7" transform="matrix(0,-1.2587996,1.2588034,0,-381.87634,1274.7456)">
			<g id="g12549-4-7">
				<path id="path9550-6-8-9-8" class="st12" d="M859.4-172.3l-4.3-0.3l1-16.8l2.7,0l1-1.8l-3.1,0"/>
				<path id="path9552-1-1-00-6" class="st12" d="M858.6-189.4l0.9,17l1.9-4.6l-1.7-14.2"/>
			</g>
			<path id="path10427-8-9-0-1" class="st12" d="M856.7-191.2l-0.6,1.7"/>
		</g>
		<path id="path12545-3-3" class="st13" d="M-605.9,198.2l-0.5,7.9"/>
		<g id="g12553-2-2-1" transform="matrix(0,-1.2587996,1.2588034,0,-381.33968,1267.2129)">
			<g id="g12549-2-8-3">
				<path id="path9550-6-8-4-2-2" class="st12" d="M864-172l-4.3-0.3l1-16.8l2.7,0l1-1.8l-3.1,0"/>
				<path id="path9552-1-1-0-4-6" class="st12" d="M863.2-189l0.9,17l1.9-4.6l-1.7-14.2"/>
			</g>
			<path id="path10427-8-9-7-8-8" class="st12" d="M861.3-190.9l-0.6,1.7"/>
		</g>
		<path id="path12591-3-5" class="st13" d="M-605.5,190.5l0.3-5.7"/>
		<path id="path12593-5-9" class="st13" d="M-604.7,176.9l0.5-8.6"/>
		<path id="path12809-0-9" class="st11" d="M-704,60.8h3.5l-3.2-3.2"/>
		<g id="g12678-0-6" transform="matrix(0,-1.2587996,1.2588034,0,-381.92808,1275.1806)">
			<g id="g12671-6-9" transform="translate(-0.41084676,0.06162701)">
				<path id="path9431-9-0-1-7-4" class="st12" d="M910.2-199.2l-2.2,1.4"/>
				<g id="g12666-07-0">
					<path id="path9433-9-7-5-3-5" class="st12" d="M910.2-199.2l2.3,9.3l-3,2.2l-1.4-10.2"/>
					<path id="path9435-8-5-2-32-2" class="st12" d="M906.2-199.2l0.3,9.1l2.9,2.4"/>
					<path id="path9439-3-8-9-1-4" class="st12" d="M906.3-199.2l2.3-1.5l1.5,1.2"/>
				</g>
			</g>
			<path id="path9437-6-2-8-40-8" class="st12" d="M908.1-198l-1.6-1.2"/>
		</g>
		<g id="g12678-3-0-1" transform="matrix(0,-1.2587996,1.2588034,0,-389.68168,1263.8577)">
			<g id="g12671-8-8-6" transform="translate(-0.41084676,0.06162701)">
				<path id="path9431-9-0-1-8-7-4" class="st12" d="M917.1-204l-2.2,1.4"/>
				<g id="g12666-0-3-0">
					<path id="path9433-9-7-5-4-8-3" class="st12" d="M917.2-204l2.3,9.3l-3,2.2l-1.4-10.2"/>
					<path id="path9435-8-5-2-3-4-4" class="st12" d="M913.1-203.9l0.3,9.1l2.9,2.4"/>
					<path id="path9439-3-8-9-9-5-4" class="st12" d="M913.2-204l2.3-1.5l1.5,1.2"/>
				</g>
			</g>
			<path id="path9437-6-2-8-4-2-3" class="st12" d="M915.1-202.8l-1.6-1.2"/>
		</g>
		<g id="g12678-39-9-9" transform="matrix(0,-1.2587996,1.2588034,0,-396.9997,1253.1005)">
			<g id="g12671-82-0-7" transform="translate(-0.41084676,0.06162701)">
				<path id="path9431-9-0-1-2-9-1" class="st12" d="M923.8-208.6l-2.2,1.4"/>
				<g id="g12666-6-8-5">
					<path id="path9433-9-7-5-8-0-6" class="st12" d="M923.8-208.6l2.3,9.3l-3,2.2l-1.4-10.2"/>
					<path id="path9435-8-5-2-9-5-5" class="st12" d="M919.8-208.5l0.3,9.1l2.9,2.4"/>
					<path id="path9439-3-8-9-90-3-7" class="st12" d="M919.8-208.5l2.3-1.5l1.5,1.2"/>
				</g>
			</g>
			<path id="path9437-6-2-8-9-5-1" class="st12" d="M921.7-207.3l-1.6-1.2"/>
		</g>
		<g id="g12678-6-54-6" transform="matrix(0,-1.2587996,1.2588034,0,-406.1279,1243.2225)">
			<g id="g12671-2-5-4" transform="translate(-0.41084676,0.06162701)">
				<path id="path9431-9-0-1-0-1-8" class="st12" d="M929.4-214.7l-1.2,1.5"/>
				<g id="g12666-2-1-3">
					<path id="path9433-9-7-5-6-6-5" class="st12" d="M929.6-214.7l2,9.3l-2,2.3l-1.6-9.9"/>
					<path id="path9435-8-5-2-92-1-7" class="st12" d="M925.8-214.1l0.3,9.1l3.1,1.6"/>
					<path id="path9439-3-8-9-0-9-5" class="st12" d="M925.9-214.2l1.5-1.7l1.9,0.9"/>
				</g>
			</g>
			<path id="path9437-6-2-8-1-3-8" class="st12" d="M927.8-213.2l-1.7-1"/>
		</g>
		<g id="g12678-6-5-4-9" transform="matrix(0,-1.2587996,1.2588034,0,-415.81268,1234.5469)">
			<g id="g12671-2-2-7-4" transform="translate(-0.41084676,0.06162701)">
				<path id="path9431-9-0-1-0-3-9-7" class="st12" d="M934.8-220.7l-1.2,1.5"/>
				<g id="g12666-2-3-8-4">
					<path id="path9433-9-7-5-6-4-0-3" class="st12" d="M934.9-220.7l2,9.3l-2,2.3l-1.6-9.9"/>
					<path id="path9435-8-5-2-92-4-7-1" class="st12" d="M931.2-220.1l0.3,9.1l3.1,1.6"/>
					<path id="path9439-3-8-9-0-2-5-3" class="st12" d="M931.3-220.2l1.5-1.7l1.9,0.9"/>
				</g>
			</g>
			<path id="path9437-6-2-8-1-7-8-5" class="st12" d="M933.2-219.2l-1.7-1"/>
		</g>
		<path id="path12811-4-4" class="st11" d="M-609.4,151.2l-11.5-16.8"/>
		<path id="path12813-2-0" class="st11" d="M-625.5,127.9l-9-13.2"/>
		<path id="path12815-5-6" class="st11" d="M-639.5,107.7l-8-11.7"/>
		<path id="path12817-0-1" class="st11" d="M-652.7,88.3l-11.2-10.2"/>
		<path id="path12819-7-9" class="st11" d="M-671.1,71.8l-9.7-8.8"/>
		<path id="path12821-0-0" class="st11" d="M-688.3,56.4l-10.5-9.5"/>
		<g id="g10437-7-3-7-9" transform="matrix(0,1.0668714,1.0600679,0,-338.04422,396.71835)">
			<g id="g10432-9-3-6-1">
				<path id="path9550-6-2-8-2" class="st11" d="M-111-296.9l2.9-3.1l-2.8-16.7l-2.6,1.7l-3-0.9l2.6-2.2"/>
				<path id="path9552-1-17-2-8" class="st11" d="M-113.3-314.9l2,17.9l-5.3-3.1l0.2-15.5"/>
				<path id="path10427-8-0-3-9" class="st11" d="M-113.8-318l2.9,1.2"/>
			</g>
		</g>
		<path id="path12909-9-7" class="st11" d="M-643.1,259.9l-12.7,12.5"/>
		<path id="path12911-0-9" class="st11" d="M-663.2,280.3l-10.6,11"/>
		<path id="path12913-3-2" class="st11" d="M-682.3,299.7l-21.8,22.4"/>
		<path id="path9506-3-7" class="st11" d="M-484.9,136.4l-7.3,48.2"/>
		<path id="path9508-1-5" class="st11" d="M-491.7,204.3l10.8,31"/>
		<path id="path9510-0-6" class="st11" d="M-477.4,247.9l4.9,7.2l4.3,0l4.9,7.1l-4.3,0.1l4.3,6.3l4.2-0.1l5,7.3l-4.4-0.1l3.7,5.4
			l4.3-0.1l2.1,3.1l2.9,2.5l-3.7,0.2l5.3,4.2l4,0.1l6,4.5l-4.3,0l5.6,4.5l3.9,0l5.1,4.1l-3.6,0.1l4.2,3.5"/>
		<path id="path9512-0-3" class="st11" d="M-479.3,116.9l7.7-6.9l-5.9,0l7-6.4l5.8,0l7.9-7.2l-5.9,0.1l6.6-6.1l5.7,0.1l7.7-7l-5.8,0
			l7.2-6.6l5.8,0l7.8-7.1l-6,0.1l6.2-5.7l4.1-0.1l0.6-1"/>
		<path id="path9514-8-6" class="st11" d="M-473.5,117.2h-31.6"/>
		<path id="path9516-0-9" class="st11" d="M-473.4,136.4h-31.9"/>
		<path id="path9518-4-2" class="st11" d="M-484.3,185.4h-27.2"/>
		<path id="path9522-7-8" class="st11" d="M-511.1,204.3h26.8"/>
		<path id="path9524-6-8" class="st11" d="M-501.8,235.5h20.7"/>
		<path id="path9526-1-1" class="st11" d="M-492.6,247.1h21.2"/>
		<path id="path9528-6-8" class="st11" d="M-449.2,127.1l-22.3-14.1c-3.8,8.6-3.4,17.8,0,27.5L-449.2,127.1z"/>
		<path id="path9530-1-8" class="st11" d="M-462.3,194.8l-21.3-12.3c-1.8,6.8-2.9,14.1,0,24.5L-462.3,194.8z"/>
		<path id="path9532-4-1" class="st11" d="M-451.5,240.4l-18-10c-1.9,6.3-2.1,12.6,0,19L-451.5,240.4z"/>
		<g id="g12553-2-5-9-2" transform="matrix(-0.30933149,-1.0783705,-1.0783738,0.30933056,863.9063,1080.5293)">
			<g id="g12549-2-0-6-1">
				<path id="path9550-6-8-4-4-4-5" class="st14" d="M1079.5,967.6l-4.6-0.1l-1.2-16.8l3.1,0l1-1.8l-3.3-0.2"/>
				<path id="path9552-1-1-0-2-2-9" class="st14" d="M1076.6,950.7l2.8,16.8l2.4-4.3l-4.1-14.3"/>
			</g>
			<path id="path10427-8-9-7-7-8-3" class="st14" d="M1074.3,948.7l-0.7,2"/>
		</g>
		<path id="path9689-4-6" class="st11" d="M-511.6,204l2.4,7.8"/>
		<path id="path9691-4-7" class="st15" d="M-506.5,220.7l1.6,4.9"/>
		<path id="path9695-9-9" class="st15" d="M-502.4,233.4l0.8,2.2"/>
		<g id="g12553-2-5-3-8-7" transform="matrix(-0.30933149,-1.0783705,-1.0783738,0.30933056,866.26562,1088.286)">
			<g id="g12549-2-0-5-1-6">
				<path id="path9550-6-8-4-4-8-0-0" class="st14" d="M1073.9,967.5l-4.7-0.1l-1.2-16.8l3.1,0l1-1.8l-3.3-0.2"/>
				<path id="path9552-1-1-0-2-4-3-9" class="st14" d="M1071,950.6l2.8,16.8l2.4-4.3l-4.1-14.3"/>
			</g>
			<path id="path10427-8-9-7-7-2-7-9" class="st14" d="M1068.7,948.6l-0.7,2"/>
		</g>
		<path id="path9727-4-8" class="st11" d="M-438.8,175.1l-13.7,8.8c-2.8-6.7-2.5-12.7,0-18.2L-438.8,175.1z"/>
		<path id="path9729-3-9" class="st11" d="M-454.1,181.6h-22c-1.9-5.9-2-9.7-0.2-12.9"/>
		<path id="path9731-4-1" class="st11" d="M-460.6,150.3l10.3,11.6l-13.3,9.9l-9.1-10.7L-460.6,150.3z"/>
		<path id="path9733-8-9" class="st11" d="M-460.4,150.5l-12-6.8"/>
		<path id="path9735-1-6" class="st11" d="M-472.1,160h-13l8.9,8.9h9.8"/>
		<path id="path9737-2-0" class="st11" d="M-469.5,145.6H-484l-1.1,13.7"/>
		<g id="g9758-8-9" transform="matrix(0,1.2587996,-1.2588034,0,828.03111,142.60021)">
			<path id="path9739-3-8" class="st12" d="M9.2,1064.9l5,0.5l1.1-3.5"/>
			<path id="path9741-9-4" class="st12" d="M9.2,1064.8l1.9-14.7l3.9,0.5l-0.7,14.7"/>
			<path id="path9743-9-5" class="st12" d="M11.1,1050l0.9-2l3.6,0.4l-0.9,2.3"/>
			<path id="path9745-96-1" class="st12" d="M15.6,1048.6l-0.2,13.1"/>
		</g>
		<g id="g9758-7-1-3" transform="matrix(0,1.2587996,-1.2588034,0,826.51559,151.91017)">
			<path id="path9739-9-7-0" class="st12" d="M15,1065.8l5,0.5l1.1-3.5"/>
			<path id="path9741-1-3-4" class="st12" d="M14.9,1065.8l1.9-14.7l3.9,0.5l-0.7,14.7"/>
			<path id="path9743-3-9-6" class="st12" d="M16.8,1050.9l0.9-2l3.6,0.4l-0.9,2.3"/>
			<path id="path9745-9-8-9" class="st12" d="M21.3,1049.6l-0.2,13.1"/>
		</g>
		<g id="g9758-4-4-3" transform="matrix(0,1.2587996,-1.2588034,0,829.34421,134.2378)">
			<path id="path9739-6-0-4" class="st12" d="M4.1,1064.1l5,0.5l1.1-3.5"/>
			<path id="path9741-5-6-5" class="st12" d="M4,1064l1.9-14.7l3.9,0.5l-0.7,14.7"/>
			<path id="path9743-34-3-0" class="st12" d="M5.9,1049.2l0.9-2l3.6,0.4l-0.9,2.3"/>
			<path id="path9745-3-4-0" class="st12" d="M10.4,1047.8l-0.2,13.1"/>
		</g>
		<path id="path9811-6-4" class="st11" d="M-506.8,147.1l-0.9,7"/>
		<path id="path9813-9-3" class="st11" d="M-508.8,162.4l-1,8.2"/>
		<path id="path3945-7-8" class="st11" d="M-624,106.4c1.2-0.3,8.2-1,9.2,1"/>
		<path id="path3947-4-3" class="st11" d="M-592.7,115.6c1.4-4.6,1.7,0.9,2.1,1.3c0.3,0.3,1.9-0.8,2.5-0.8"/>
		<path id="path3949-9-8" class="st11" d="M-567.8,105.1c-0.3-2.2,6.1-2.1,6.7-1.3c0.9,1.3,0.4,2.3,2.1,3.1"/>
		<path id="path3951-4-8" class="st11" d="M-550.5,90.5c-1.6,5.3,4.6,3.4,4.6,8"/>
		<path id="path3953-1-5" class="st11" d="M-537.1,81.7c0.3-0.4,0.6-0.8,0.8-1.3c0.2-0.5-0.3-1.5,0-1.9c1.4-2.1,8,2.5,8-2.7"/>
		<path id="path3955-9-4" class="st11" d="M-566.3,81.9c3.1,0.4,6.4-2.7,7.8-0.4"/>
		<path id="path3957-6-5" class="st11" d="M-604.1,64.9c5.3-3.6,1.5,6,8.8,1.7"/>
		<path id="path3959-7-3" class="st11" d="M-501.2,50.7c3.9-0.7,0,3.9,7.1,2.5"/>
		<path id="path3961-0-7" class="st11" d="M-584.1,158.2c2-5.3,1.4-2.9,5.7-2.9c1.9,0,2.1-2.7,4.4,0.4"/>
		<path id="path3963-9-9" class="st11" d="M-573,185c0.4-1.1,0.1-3.6,1.3-4.2c2-1,4.3,0.5,6.1,0.2c3-0.5,5.1-1.7,8.2-1.7"/>
		<path id="path3965-7-3" class="st11" d="M-543,162.2c3.6-1.4,2.7,1.6,4.2,2.3c3.4,1.7,2-1,6.7,2.7"/>
		<path id="path3967-3-5" class="st11" d="M-535.4,216.2c4.6,2.4,7.1-6.8,7.1,0.8"/>
		<path id="path3969-1-6" class="st11" d="M-613.3,259.2c0.1-2.1,1.6-2.9,2.7-4.4c3.5-4.5,1.2,2.5,3.4,3.6c1.2,0.6,3.6,0,5,0.4"/>
		<path id="path3971-5-7" class="st11" d="M-577.2,265.5c0.9,0.5,2.5-1.9,3.1-1.9c0.1,0-0.3,1.6,0.2,1.7c2.8,0.7,6.4-0.1,9.2,0.4"/>
		<path id="path3973-6-3" class="st11" d="M-522.2,268.4c2.5-3.5,11.6-4.1,13.9-1"/>
		<path id="path3975-4-7" class="st11" d="M-508.8,289.2c0.9-2.2,0.7-2,1.9-4c3-5.1-0.7,0.4,2.7,0.4c1.3,0,1.5-0.4,2.3-1
			c2.2-1.6,2.4,2.8,3.8,4.2"/>
		<path id="path3977-5-0" class="st11" d="M-500.8,309.5c0.6-0.5,1.5-0.6,2.1-1c4.1-2.9-0.3,2.6,2.7,1.7c2.2-0.7,5.3-7.1,7.6-3.4"/>
		<path id="path3979-1-5" class="st11" d="M-643.5,296.3c4.7-2.3,4.5,2.7,4.6,2.7c4.8,0.8,3.4,0.3,4.8,4.6c0,0,1.4,0,1.7,0.2
			c0.7,0.5,1.3,2.2,1.7,2.7"/>
		<path id="path3981-2-5" class="st11" d="M-632.4,286.2c-0.1,0.8,0.8-0.5,1-0.2c0.6,0.6-0.7,2.3,0.4,2.7c2.5,1,7.4-1.2,8,1.9"/>
		<path id="path4529-6" class="st11" d="M-470.9,152.2h-7.8"/>
		<path id="path4531-4" class="st11" d="M-470.4,232.7h-11.5"/>
	</g>
</g>
</svg>
