<?xml version="1.0" encoding="utf-8"?>
<!-- Generator: Adobe Illustrator 25.0.0, SVG Export Plug-In . SVG Version: 6.00 Build 0)  -->
<svg version="1.1" id="Layer_1" xmlns="http://www.w3.org/2000/svg" xmlns:xlink="http://www.w3.org/1999/xlink" x="0px" y="0px"
	 viewBox="0 0 283.5 283.5" style="enable-background:new 0 0 283.5 283.5;" xml:space="preserve">
<style type="text/css">
	.st0{fill:#FFFFFF;}
	.st1{fill:#050203;}
	.st2{fill:#87AD50;}
	.st3{fill:#C3895F;}
	.st4{fill:#050204;}
	.st5{fill:#BBA78E;}
	.st6{fill:#EE663C;}
	.st7{fill:none;stroke:#010101;stroke-width:1.777;stroke-linecap:round;stroke-linejoin:round;stroke-miterlimit:4.1;}
	.st8{fill:none;stroke:#010101;stroke-width:1.777;stroke-linecap:round;stroke-linejoin:round;}
	.st9{fill:none;stroke:#010101;stroke-width:1.777;}
</style>
<g id="g8323" transform="translate(155.68247,118.81578)">
	<g>
		<path class="st0" d="M127.7,163.7c0.2,0.8-0.1,1-0.9,1c-93.8,0-187.6,0-281.5,0c-0.9,0-1-0.3-1-1c0-93.8,0-187.6,0-281.4
			c0-0.8,0.1-1,1-1c93.8,0,187.6,0,281.5,0c0.5,0,1.2-0.2,0.9,0.7c-0.2,0.2-0.6,0-0.6,0.2c0,1.3-1.2,1.8-1.7,2.7
			c-3.3,2.9-6.6,5.6-10,8.5c-6.7,5.7-13.4,11.4-20.1,17.1c-4.4,3.7-8.7,7.4-13.1,11.1c-6.2,5.3-12.5,10.6-18.7,16
			c-1.2,1-2.4,2.1-3.6,3c-1,0.8-1.7,1.8-2.1,3C55-48.7,52.4-40.8,49.6-33c-0.9,2.6-1.2,5.2-1.3,7.9c-0.2,5.4-0.4,10.7-0.7,16.1
			c0,0.2,0,0.5,0,0.7c-0.1,0.9,0.3,1.2,1.2,1.3c2.8,0.1,5.6-0.3,8.4-0.3c2.6,0.1,2.6,0,2.8-2.6c0.1-1,0.2-2,0.3-2.9
			c0.1-1,0.6-1.5,1.6-1.5c0.8,0,1.7,0,2.5,0c0.5,0,0.9-0.1,0.9-0.7c0-0.6-0.6-0.5-1-0.6c-0.7,0-1.3,0-2,0c-1.1-0.1-1.7-0.8-1.7-1.9
			c0-1.2,0-2.4,0-3.5c0.1-1.5,0.6-2,2-2c0.8,0,1.6,0,2.4,0c0.3,0,0.7-0.1,0.7-0.5c0-0.4-0.3-0.5-0.7-0.5c-0.9-0.1-1.7,0-2.6,0
			c-1.1-0.1-1.7-0.7-1.7-1.7c0-1.1,0.1-2.3,0.4-3.4c0.3-1.1,0.9-1.5,2-1.4c0.9,0.1,1.9,0.1,2.8,0.1c0.4,0,0.8,0,1.1-0.4
			c0.3-0.4,0.3-0.8-0.3-0.8c-0.6-0.1-1.3,0-1.9,0c-1.4-0.1-2-0.9-1.5-2.2c0.5-1.3,1-2.5,1.6-3.7c0.4-0.8,1.1-1.1,1.9-1.1
			c0.8,0.1,1.6,0,2.4,0c0.1,0,0,0-0.1,0c-3.6,0.3-3.6-1.3-2.6-3.7c0.1-0.3,0.2-0.5,0.3-0.8c0.7-1.8,1-2,2.9-2c0.8,0,1.7,0.1,2.5-0.2
			c-0.7-0.4-1.5-0.4-2.3-0.4c-1.4-0.1-2-0.8-1.6-2.1c0.4-1.6,1.1-3,1.8-4.5c0.5-0.9,1.3-1.2,2.3-1c0.8,0.1,1.5,0.2,2.5,0
			c-0.4-0.5-0.8-0.4-1.2-0.4c-0.5,0-1.1,0-1.6-0.1c-1.2-0.3-1.6-1.1-1.2-2.2c0.4-1.1,1-2.2,1.6-3.3c0.4-0.6,1-0.9,1.7-0.9
			c1.3,0,2.6,0,3.9,0.2c-0.3-0.1-0.7-0.2-1-0.2c-0.6-0.1-1.2-0.4-1.4-1.1c-0.2-0.7,0.2-1.2,0.6-1.7c1.4-1.2,2.8-2.4,4.2-3.4
			c1.1-0.8,2.5-0.5,3.7-0.4c0.8,0,1.6,0.1,2.3,0.1c-0.3,0-0.7,0-1.1,0c-1.2-0.1-1.8-1.1-1.1-2.1c1.1-1.4,2.5-2.5,4-3.5
			c1-0.6,2.1-0.3,3.1-0.2c0.6,0.1,1.3,0,2.2,0.1c-0.1,0-0.3-0.2-0.3-0.1c0,0,0,0.1-0.1,0.1c-0.7,0-1.4,0-2.1-0.1
			c-1.2-0.2-1.8-1.5-0.9-2.3c1.6-1.4,3.1-3,5.4-3.5c0.3-0.1,0.6-0.1,0.6-0.5c0-0.8,0.6-1.3,1.1-1.7c0.1-0.1,0,0,0.1-0.1
			c2.4-1.9,4.8-3.8,8.2-2.7c-0.3-0.1-0.5-0.1-0.7-0.1c-0.8,0.1-1.6-0.1-2-0.9c-0.3-0.9,0.3-1.5,0.9-2c1.2-1.1,2.5-2,3.8-3
			c0.6-0.5,1.3-0.7,2.1-0.7c1.2,0,2.4,0,3.4-0.2c-0.3,0-0.7,0-1.1-0.2c-1-0.5-1.4-1.6-0.6-2.3c1.9-1.6,3.5-3.6,6.1-4
			c0.3-0.1,0.5-0.1,0.5-0.5c-0.1-0.8,0.4-1.3,0.9-1.8c1-0.9,2.1-1.7,3.1-2.5c1-0.8,2.1-0.9,3.4-0.8c1.8,0.6,2.1,1.3,0.8,2.7
			c-0.4,0.4-0.5,0.8-0.2,1.3c0.8,1.1,0.3,2-0.4,2.8c-0.1,0.1-0.1,0.1-0.2,0.2c-1.7,2-4,2.2-6.4,1.8c-0.8-0.1-1.5-0.2-2.1,0.4
			c0,0.1,0,0.1,0.1,0.1c0.8,0,1.7,0,2.1,0.9c0.4,1-0.3,1.5-0.9,2.1c-0.1,0.1-0.2,0.2-0.3,0.3c-1.6,2-3.8,2.7-6.3,2.6
			c-0.9,0-1.9-0.1-2.8,0.7c0.5,0.2,1,0.1,1.4,0.2c1.3,0.3,1.8,1.5,0.9,2.5c-1,1.2-2.2,2.2-3.5,3.1c-0.5,0.4-1.2,0.4-1.8,0.3
			c-0.9-0.2-1.9-0.2-2.6-0.2c0.6,0,1.3,0,1.7,0.9c0.4,0.8-0.1,1.4-0.6,2c-1.8,2-3.8,3.3-6.6,2.5c-0.2-0.1-0.5,0-0.7,0
			c-0.3,0-0.5,0-0.9,0.1c0.6,0.2,1.1,0.2,1.6,0.3c1.4,0.2,1.9,1.5,1,2.5c-1,1-2.1,1.9-3.3,2.7c-0.7,0.4-1.4,0.4-2.2,0.3
			c-1-0.2-2-0.2-3.2-0.1c0.6,0.1,1.1,0,1.6,0.1c1.3,0.3,1.8,1.6,0.8,2.5c-1.8,1.7-3.7,3.5-6.6,3.1c-0.8-0.1-1.7,0-2.6,0
			c-0.7,0-1.3,0.2-1.9,0.7c0.5,0.1,1,0,1.5,0.1c1.2,0.3,1.7,1.5,0.9,2.4c-1.1,1.3-2.4,2.4-3.9,3.2c-1.1,0.6-2.3,0.3-3.5,0.2
			c-0.5,0-0.9-0.2-1.5,0.2c0.7,0.4,1.4,0.4,2.1,0.4c0.6,0.1,1.2,0.2,1.6,0.7c0.4,0.7,1,0.7,1.7,0.6c2-0.3,3.9-0.2,5.9-0.1
			c1.2,0,1.8,0.6,1.8,1.8c0,3.2,0.2,6.4-0.2,9.7c-0.2,1.4,0,2.9-0.1,4.4c0,1.9-0.5,2.5-2.3,2.8C80-35.9,74.5-34.9,69-35.2
			c-0.6,0-1.2-0.1-1.7,0.2c0.7,0.1,1.4,0.1,2.1,0.1c1.4,0.1,2.1,1,1.6,2.4c-0.5,1.4-1.1,2.7-1.8,4c-0.4,0.7-1,0.9-1.8,0.9
			c-1.1,0-2.2-0.2-3.2,0.3c0.7,0.4,1.5,0.2,2.2,0.3c2.1,0.1,2.7,0.7,2.5,2.8c-0.1,0.8,0,1.6-0.1,2.4c-0.1,1.4-0.8,2-2.2,1.9
			c-0.7-0.1-1.5-0.1-2.2,0c-0.4,0-0.7,0.2-0.7,0.6c0,0.5,0.3,0.6,0.7,0.6c0.6,0,1.3,0,1.9,0c1.4,0.1,2,0.7,2,2.1
			c0,1.2,0.1,2.4-0.1,3.5c-0.3,1.5-0.9,2-2.4,1.9c-2.4-0.2-2.4-0.2-2.8,2.2c-0.2,1.4-0.1,1.6,1.3,1.6c1.3,0,2.7,0.2,4-0.3
			c0.6-0.2,1.2,0.1,1.8,0.4C74-5.2,77.9-3,81.8-0.8c0.2,0.1,0.3,0.2,0.5,0.3c1.4,1,1.4,2.1-0.1,3.1c-1.4,0.9-2.8,1.6-4.2,2.4
			c-1,0.6-1.9,1.2-3,1.8c3.1,1.3,6.1,2.7,9,4.1c0.1,0,0.1,0.1,0.2,0.1c0.9,0.4,1.8,0.8,1.9,1.9c0,1.1-0.9,1.5-1.7,1.9
			c-2.8,1.5-5.5,3-8.2,4.6c-0.8,0.4-1.5,0.6-2.4,0.3c-1.1-0.4-2.3-0.2-3.4,0c-0.6,0.1-0.7,0.4-0.5,0.9c1.1,3.5,2.2,7.1,3.2,10.6
			c0.2,0.5,0.5,0.7,1,0.6c1.4-0.3,2.9-0.2,4.3-0.5c0.4-0.1,0.8-0.2,1.1-0.5c0.6-0.6,1.3-0.7,2.1-0.6c3.3,0.6,6.6,1.1,9.9,1.7
			c1.9,0.4,2.3,1.3,1.5,3.1c-2,4.2-4,8.4-6,12.7c1.1-0.9,2.2-1.8,3.3-2.7c0.9-0.8,1.9-1.1,3-0.9c0.6,0.1,1,0,1.4-0.5
			c0.5-0.7,1.2-0.8,2-0.4c2.5,1.2,5,2.6,7.5,4c0.4,0.2,0.7,0.6,1,1c3.2,4.1,6.4,8.3,9.6,12.4c1.3,1.7,1.1,2.6-1,3.4
			c-4.1,1.6-8.2,2.9-12.3,4.5c-1.2,0.4-2.3,0.1-3.5,0c-1.3-0.1-2.5-0.2-3.8-0.2c-1.2,0.1-2.1-0.4-2.8-1.3c-3-4-6-7.8-9-11.8
			c-0.2-0.2-0.3-0.5-0.5-0.6c-0.4-0.3-0.8-0.5-1.2-0.2c-0.4,0.3,0,0.7,0.1,1c1.5,4.4,2.9,8.8,4.4,13.2c1.6,4.8,3.1,9.6,4.7,14.3
			c1,3.1,1.3,6.4,1.9,9.6c0.1,0.4,0.1,0.9,0.2,1.3c0.3,1.6,0.6,2,2.2,1.5c1.8-0.6,3.2,0.1,4.6,0.9c3.4,2,7,4,10.4,6
			c0.4,0.2,0.8,0.5,1.1,0.9c0.5,0.8,0.2,1.8-0.9,2.4c-2.8,1.7-5.7,3.4-8.6,5c-1.1,0.6-2.1,1.3-3.3,1.9c-0.7,0.4-0.9,0.9-0.7,1.6
			c0.3,0.8,0.3,1.7,1.5,1.6c1.1-0.1,2.2,0.3,3.3,0.3c0.4,0,0.9,0.1,1.2,0.5c1,1.1,1.6,2.4,1.9,3.7c0.2,0.8-0.4,1.5-1.4,1.8
			c-0.5,0.1-1.1,0.1-1.7,0.2c1.2,0.2,2.4,0.5,3.6,0.4c1.3,0,2.3,0.3,3.1,1.3c0.8,0.9,1.8,1.6,2.7,2.5c0.5,0.6,0.9,1.2,0.6,2
			c-0.3,0.8-1,1-1.8,1c-0.4,0-0.8-0.1-1.2,0.1c0.2,0.4,0.6,0.4,1,0.5c0.4,0.1,0.9,0.1,1.3,0.1c5.4,0.2,4.1,0.1,7.9,3.7
			c0.5,0.5,0.7,1.1,0.4,1.8c-0.3,0.7-0.9,0.9-1.5,0.9c-0.5,0-0.9,0-1.4,0.1c0.4,0.5,0.9,0.7,1.5,0.7c1.2,0,2.3,0.3,3.5,0.3
			c0.7,0,1.3,0.2,1.7,0.7c0.7,0.7,1.4,1.2,2.1,1.9c0.6,0.7,0.7,1.5,0.4,2.4c-0.2,0.5-0.1,1,0.2,1.5c0.7,1.1,0.5,1.6-0.7,2.3
			c-1.6,0.3-3.1-0.1-4.3-1.3c-0.7-0.7-1.5-1.3-2.2-2c-0.5-0.6-1-1.2-0.6-2c0.3-0.9,1.1-0.7,1.8-0.7c0.2,0,0.4,0,0.5,0
			c-1.1-0.1-2.1,0.1-3.2,0c-0.8-0.1-1.6-0.3-2.2-0.9c-1.3-1.2-2.7-2.3-3.9-3.6c-0.4-0.5-0.7-0.9-0.5-1.6c0.3-0.7,0.8-0.9,1.5-1
			c0.6-0.1,1.2,0,2,0c-1.5-0.2-2.8-0.4-4.1-0.3c-1.3,0-2.4-0.4-3.3-1.4c-0.8-0.8-1.6-1.7-2.6-2.4c-0.7-0.5-1-1.3-0.7-2.1
			c0.3-0.8,1.1-0.9,1.9-0.9c0.4,0,0.8,0.1,1.2-0.1c-0.3-0.5-0.8-0.7-1.3-0.7c-1,0-2-0.2-2.9-0.2c-1.3,0-2.3-0.5-3.3-1.4
			c-0.9-0.8-1.6-1.6-2.5-2.4c-0.5-0.5-0.8-1.1-0.5-1.8c0.3-0.7,0.9-0.9,1.6-1c0.7-0.1,1.5,0,2.1,0.1c-1-0.1-2.1-0.2-3.2-0.2
			c-1,0-1.6-0.7-1.9-1.5c-0.4-0.9-0.6-1.8-0.9-2.7c-0.1-0.5-0.4-0.9-1-0.9c-3.1,0-6.2,0-9.4,0c0.7,2.2,1.6,4.1,2.2,6.1
			c0.7,2.6,2.7,4.2,4.5,5.9c1.4,1.3,2.8,2.7,4.2,4.1c8.6,8.6,17.2,17.2,25.8,25.7c1.7,1.7,3.4,3.2,5.1,4.9c0.3,0.4,0.5,0.8,0.9,1.1
			C127.2,161.7,127.7,162.6,127.7,163.7z"/>
		<path class="st1" d="M125.4,146c1.2-0.8,1.2-1.2,0.2-2.1c-0.5-0.4-0.4-1-0.2-1.2c0.6-0.9,0.5-1.7-0.1-2.5c-0.3-0.5-0.4-1-0.3-1.6
			c0-0.4,0-0.7,0-1.1c0-76.8,0-153.7,0-230.5c0-0.9-0.1-1.8,0.3-2.7c0.1-0.2,0.1-0.4,0.2-0.5c0.7-0.6,0.7-1.2,0.1-2
			c-0.6-0.6-0.3-1.4,0.5-1.8c0.5-0.2,0.7-0.6,0.6-1c0-0.3-0.2-0.9-0.7-0.9c-0.3,0-0.4-0.2-0.6-0.3c-0.4-0.4-0.4-1-0.4-1.5
			c0-3.4,0-6.9,0-10.3c0-0.6,0.1-1.1,0.3-1.6c0-0.4,0.3-0.7,0.5-0.8c1-0.5,1-1.3,0.8-2.3c0.4,0.2,0.7,0.3,1.1,0.5
			c0,93.9,0,187.8,0,281.8c-0.2-1.3-1.2-2-2-2.8c-0.2-0.2-0.4-0.4-0.4-0.7c-0.3-0.5-0.3-1.1-0.3-1.7c0-3.6,0-7.2,0-10.8
			C125,147.1,124.9,146.5,125.4,146z"/>
		<path class="st2" d="M122.3-116.2c-1.9,1.6-3.8,3.3-5.8,4.9c-2.4,2-4.8,4.1-7.2,6.1c-2.3,2-4.6,3.9-6.9,5.9
			c-2.5,2.1-5,4.2-7.5,6.3c-2.3,2-4.6,4-7,6c-2.9,2.5-5.9,4.9-8.8,7.4c-2.3,1.9-4.5,3.9-6.8,5.8c-3,2.5-6,5.1-9,7.6
			c-2.3,1.9-4.5,3.9-6.7,5.8c-0.9,0.8-1.1,2-1.5,3C52-48.5,49-39.7,46-30.8c-0.4,1.1-0.3,2.4-0.3,3.6c0,2.7-0.3,5.4-0.3,8.1
			c-0.1,4.1-0.3,8.3-0.5,12.4c0,0.3-0.1,0.5-0.2,0.8c-1.8,2.9-2.8,5.9-2.6,9.3c0.1,2.4,1,4.4,2.7,6.1c0.3,0.3,0.3,0.5,0.2,0.8
			c-0.3,1-0.7,2-0.9,3.1c-0.5,2.4,0.3,4.4,1.8,6.2c0.3,0.4,0.8,0.6,1.4,0.5c0.9-0.1,1.2,0.2,1.4,1c2,6.5,3.9,13.1,5.9,19.6
			c4.7,15,9.9,29.8,14.8,44.8c0.9,2.9,1.3,6,1.9,9c0.1,0.3,0.1,0.7,0.2,1c0.6,1.4-0.2,2.6-0.7,3.8c-0.8,1.8-1.3,3.7-1.4,5.6
			c-0.1,3.1,0.8,5.9,3.7,8c-2.4,0-2.3,1.3-1.9,2.8c0.2,0.7,0,1.6,0,2.3c0,0.4-0.1,0.7-0.5,0.9c-1.2,0.6-1.5,1.7-1.1,2.8
			c0.3,1,1.3,1.5,2.4,1.4c0.1,0,0.1,0,0.2,0.1c-1.7,1.4-1.9,2.4-1.1,3.7c0.2,0.3,0.3,0.6,0.6,0.2c0.4-0.6,1.8-0.3,1.5-1.6
			c0-0.1,0.8-0.4,1.2-0.6c0.8-0.4,1.8-0.4,2.5-1.1c0.4-0.4,0.5-0.6,0.2-1.2c-0.7-1.2-1.7-1.7-3.1-1.7c-0.4,0-0.9,0-1.2-0.3
			c0.1-0.2,0.3-0.1,0.4-0.2c0.4-0.3,1.2,0.1,1.3-0.6c0.1-0.7,0.1-1.5-0.7-2c-0.4-0.2-0.2-0.6-0.2-0.8c0-1.2,0.1-2.3-0.4-3.4
			c-0.2-0.4,0-0.7,0.5-0.6c1.6,0.4,3.2,0.2,4.9,0c1.9-0.2,1.9-0.2,2.6,1.5c1,2.6,1.9,5.2,2.9,7.9c0.1,0.4,0.4,0.8,0.7,1.1
			c6.1,6.1,12.1,12.3,18.4,18.3c6.8,6.6,13.4,13.3,20.2,20c0.1,0.1,0.1,0.2,0.2,0.3c-0.3,0.4-0.8,0.4-1.2,0.4c-0.5,0-1.1,0-1.7,0
			c-90.3,0-180.6,0-271,0c-3.1,0-3.2,0-3.2-3.2c0-40.5,0-81.1,0-121.6c0-0.8-0.1-1.6,0.1-2.3c0.3-0.7,1-0.6,1.5-0.6
			c2.5,0.1,4.9,0.4,7.4,0.6c4,0.3,7.9,0.7,11.9,1.1c3.9,0.4,7.8,0.7,11.7,1.1c2.3,0.2,4.6,0.4,6.9,0.5c5.9,0.4,11.8,0.8,17.8,0.7
			c2.2,0,4.3-0.2,6.4-0.6c1.8-0.3,3.3-1.2,4.8-2.2c4.4-2.9,8.3-6.5,11.8-10.4c4.1-4.5,7.9-9.1,12.3-13.3c2.1-2,4.5-3.9,7.1-5.2
			c2.4-1.2,4.2-3.1,5.9-5c1.5-1.7,2.8-3.6,4.3-5.3c1.5-1.7,3.2-3.1,5.4-3.8c4.2-1.5,8.3-3.3,12.1-5.8c6.4-4.4,10.4-10.3,11.6-18
			c0.4-2.6,0.6-5.3,0.6-8c0-3.4,0.1-6.8,0-10.3c-0.1-4.9,1-9.5,3.1-14c2.4-5.1,3.2-10.6,3.8-16.2c0.3-2.4,0.2-4.8,0.4-7.2
			c0.2-3.2-0.1-6.4-0.3-9.5c-0.2-4.1-0.6-8.2-1.1-12.3c-0.2-2.2-0.6-4.4-0.8-6.7c0-0.5-0.2-1,0.4-1.2c0.6-0.2,1.2-0.2,1.8-0.2
			c42.2,0,84.5,0,126.7,0C121-116.6,121.7-116.7,122.3-116.2z"/>
		<path class="st3" d="M125.3-95.7c0,0.4,0,0.9,0,1.3c0,77.7,0,155.5,0,233.2c0,0.4,0,0.9,0,1.3c-0.5-0.4-1.1-0.7-1.4-1.2
			c-0.8-1-1.8-1.3-3-1.2c-1.1,0-2.2-0.2-3.4-0.2c-0.8,0-1.1-0.9-1.7-1.4c0.7,0,1.4,0,2.2,0c0.6,0,1.1-0.1,1.3-0.7
			c0.3-0.6,0.1-1.1-0.4-1.6c-0.6-0.5-1.1-1-1.6-1.6c-1.2-1.7-3-2-4.9-2c-0.9,0-1.8,0-2.7-0.2c-0.8-0.2-1.1-0.6-1.8-1.2
			c1.1,0,1.8,0,2.6,0c0.5,0,1-0.2,1.2-0.7c0.2-0.6,0.2-1-0.3-1.5c-1.3-1.1-2.5-2.3-3.8-3.5c-0.3-0.3-0.7-0.5-1.2-0.4
			c-1.4,0.2-2.7-0.3-4.1-0.2c-0.7,0-1-0.3-1.4-1c0.8,0,1.6,0,2.3,0c1.3-0.1,1.8-0.9,1.2-2.1c-0.3-0.6-0.7-1.2-0.9-1.9
			c-0.4-1.1-1.1-1.5-2.3-1.5c-1.2,0-2.3-0.3-3.5-0.2c-0.4,0-0.5-0.2-0.6-0.5c-0.2-0.7-0.4-1.3-0.6-2c-0.2-0.7,0.4-1,0.8-1.2
			c2.1-1.2,4.2-2.4,6.3-3.6c2-1.2,4-2.3,6-3.5c1.1-0.6,1.1-1.7,0-2.4c-4.2-2.4-8.4-4.9-12.7-7.3c-0.5-0.3-0.9-0.4-1.5-0.2
			c-0.4,0.2-0.8,0.3-1.2,0.4c-2.1,0.2-2.5-0.2-2.8-2.8c-0.7-5.2-1.9-10.2-3.6-15.1c-2.6-7.7-5.1-15.4-7.7-23.1
			c-0.1-0.2-0.1-0.4-0.1-0.7c1.2-0.2,2,0.1,2.8,1.2c2.8,4,5.9,7.9,8.8,11.7c0.6,0.8,1.3,1.3,2.4,1.2c1.9-0.2,3.9,0,5.8,0.4
			c0.3,0.1,0.7,0,1-0.1c4.5-1.6,9-3.2,13.5-4.9c1.1-0.4,1.2-1.2,0.5-2.2c-3.4-4.4-6.8-8.8-10.2-13.2c-0.6-0.8-1.6-1.1-2.4-1.5
			c-1.9-1.1-3.8-2-5.7-3c-0.8-0.4-1.5-0.4-1.7,0.7c-0.1,0.7-0.6,0.5-0.9,0.4c-2-0.8-3.2,0.4-4.5,1.5c-1,0.8-1.9,1.7-3.1,2.4
			c0.5-1.1,0.9-2.2,1.4-3.2c1.7-3.6,3.4-7.1,5.1-10.7c0.6-1.3,0.3-2-1.2-2.3c-3.4-0.6-6.7-1.3-10.1-1.9c-0.4-0.1-1.1-0.3-1.4,0.1
			c-1.1,1.5-2.8,1.1-4.3,1.2c-0.7,0.1-1.4,0.3-2.2,0.3c-0.4,0-0.6-0.1-0.7-0.4c-1.2-3.9-2.4-7.7-3.5-11.6c-0.1-0.3-0.2-0.8,0.4-0.8
			c1.6,0,3.1-0.7,4.7,0.2c0.3,0.2,0.7,0,1-0.2c3.2-1.8,6.4-3.5,9.5-5.3c1.4-0.8,1.3-1.7-0.1-2.4c-2-1-4.1-1.9-6.1-2.8
			c-1-0.5-2.1-0.9-3.1-1.4c-0.5-0.2-0.9-0.4-1.5-0.5c1.3-0.7,2.5-1.5,3.8-2.2c1.5-0.9,3-1.7,4.5-2.6c0.9-0.6,0.9-1.6-0.1-2.3
			c-1.5-0.9-3.1-1.8-4.6-2.7c-2.5-1.4-5-2.9-7.5-4.3c-0.7-0.4-1.3-0.6-2.3-0.3C66.3-7,64.6-7.3,63-7.3c-0.5,0-0.3-0.4-0.3-0.7
			c0-1.1,0.4-2.2,0.2-3.3c-0.1-0.5,0.3-0.5,0.6-0.5c0.7,0,1.5,0,2.2,0c1.8,0.1,2.2-0.2,2.3-2.1c0-1.1,0-2.1,0-3.2
			c0.1-1.2-0.6-1.5-1.6-1.6c-0.8-0.1-1.7-0.1-2.5,0c-0.9,0.1-0.6-0.6-0.7-1c0-0.5,0-0.9,0.7-0.9c0.9,0.1,1.9-0.1,2.8,0.1
			c0.9,0.2,1.6-0.3,1.7-1.3c0.1-1.2,0-2.4,0.2-3.6c0.1-0.9-0.4-1.6-1.5-1.6c-0.9,0-1.8,0-2.7,0c-0.3,0-0.9,0.2-0.9-0.4
			c0-0.7,0.4-0.7,0.9-0.7c1.1,0,2.1,0,3.2,0c0.6,0,1-0.2,1.3-0.8c0.6-1.3,1.2-2.5,1.8-3.8c0.5-1.2-0.2-2.1-1.5-2.1
			c-0.5,0-0.9,0-1.4,0c-0.4,0-0.9,0-1.3,0c0-0.8,0.5-1,1.1-1c2.2,0,4.4,0,6.6,0c2.8,0,5.4-0.7,8.2-1.1c1.2-0.2,2.4-0.4,3.5-0.6
			c1-0.2,1.4-0.7,1.4-1.7c0-4.8,0.4-9.6,0.2-14.5c0-1.5-0.3-1.8-1.8-1.8c-2.1,0-4.3-0.1-6.4,0.2c-0.5,0.1-1,0.2-1-0.7
			c0-0.5-0.6-0.7-1-0.7c-0.8,0-1.5-0.2-2.3-0.3c-0.3,0-0.9,0.2-0.9-0.3c0-0.5,0.3-0.9,1-0.9c0.6,0,1.2,0.2,1.8,0.3
			c2.3,0.5,3.6-1.1,5.2-2.3c0.4-0.3,0.8-0.7,1.2-1.1c0.3-0.3,0.6-0.7,0.3-1.2c-0.3-0.5-0.5-0.8-1.2-0.8c-0.7,0-1.3,0-2,0
			c0.8-1.3,2-1.6,3.3-1.4c0.5,0,1-0.1,1.4,0c3,0.6,4.9-1.2,6.9-2.9c0.4-0.3,0.7-0.7,0.5-1.2c-0.3-0.5-0.6-0.9-1.3-0.9
			c-0.7,0-1.5,0-2.3,0c0.1-0.6,0.5-0.7,0.9-0.7c1.1,0.1,2.2-0.1,3.3,0.2c1.7,0.5,2.8-0.9,4-1.8c0.3-0.2,0.5-0.6,0.8-0.7
			c0.8-0.4,1-1,0.8-1.7c-0.2-0.6-0.9-0.7-1.5-0.7c-0.7,0.1-1.4-0.3-2.1-0.3c0.4-0.7,1.5-0.9,2.7-0.6c2.6,0.6,5.5-0.8,6.7-3
			c0.4-0.8-0.1-1.7-1-1.7c-0.5,0-1.1,0-1.6-0.1c1.2-0.6,2.6-0.5,3.8-0.3c0.9,0.2,1.6,0,2.2-0.6c0.9-0.8,1.8-1.6,2.7-2.4
			c0.5-0.4,0.7-0.9,0.5-1.6c-0.2-0.6-0.7-0.7-1.3-0.8c-0.6,0-1.2,0-2.1,0c0.8-0.9,1.5-1.5,2.6-1.4c1.4,0.1,2.7-0.2,4.1-0.3
			c0.9,0,1.4-0.7,2-1.2c0.7-0.6,1.4-1.3,2-2c0.3-0.4,0.6-0.7,0.3-1.3c-0.3-0.6-0.7-0.7-1.2-0.7c-0.5,0-1,0-1.7,0
			c0.9-1,1.8-1.3,3-1.1c2,0.3,4,0.6,5.6-1.2C124.7-95.4,125.1-95.5,125.3-95.7z"/>
		<path class="st4" d="M122.3-116.2c-0.5,0-1,0-1.5,0c-43.1,0-86.1,0-129.2,0c-0.4-0.1-0.5-0.5-0.6-0.8c-0.1-0.5-0.2-1-0.9-0.9
			c-0.5,0.1-0.6,0.6-0.6,1c0,0.6-0.2,0.9-0.7,1c-5.5,0.1-11,0.1-16.5,0c-0.6-0.1-0.7-0.6-1-1c-0.3-0.6-0.8-0.6-1.1,0
			c-0.2,0.4-0.4,0.9-1,1c-0.8,0.1-1.6,0.1-2.4,0.1c-39.1,0-78.2,0-117.2,0c-2.6,0-2.4-0.1-2.4,2.3c0,41.5,0,83,0,124.6
			c0,0.8,0,1.6-0.1,2.4c-0.1,0.5-0.4,0.7-0.7,1c-1,0.7-1,0.9,0,1.4c0.4,0.2,0.6,0.4,0.7,0.9c0.1,5.2,0.2,10.3,0,15.5
			c-0.1,0.5-0.6,0.6-1,0.7c-0.4,0.1-0.9,0.2-0.9,0.7c0,0.5,0.5,0.6,0.9,0.8c0.3,0.1,0.7,0,0.8,0.5c0,0.4,0,0.9,0,1.3
			c0,41.5,0,82.9,0,124.4c0,1.2,0.3,1.5,1.5,1.5c91.3,0,182.5,0,273.8,0c0.4,0,0.9,0,1.3,0c1.2,0.4,1.6,1.7,3,2.4
			c-0.7,0-1.1,0-1.5,0c-92.8,0-185.6,0-278.4,0c-1.8,0-2-0.2-2-2c0-93,0-186,0-279c0-1.7,0.2-1.9,1.9-1.9c92.5,0,185,0,277.5,0
			c0.3,0,0.7,0,1.2,0C124.3-117.5,123.4-116.7,122.3-116.2z"/>
		<path class="st5" d="M125.3-115.5c0,4.5,0,9,0.1,13.4c-1.9-0.1-3.3,0.8-4.7,2c-0.5,0.5-1.1,0.9-1.6,1.4c-1,0.9-1,0.9-0.8,2.3
			c-3,0-4.6,2.4-6.8,3.8c-0.5,0.3-0.5,0.8-0.3,1.3c0.2,0.5,0.7,0.8,1.3,0.9c0.6,0.1,1.2,0,1.8,0.1c-0.8,0.5-1.9,0.6-2.6,0.5
			c-2.9-0.5-4.7,1.2-6.6,2.8c-0.6,0.5-1.2,0.9-1.7,1.5c-0.3,0.3-0.6,0.7-0.3,1.1c0.3,0.4,0.6,0.8,1.2,0.8c0.8,0,1.7,0,2.5,0
			c-0.1,0.4-0.3,0.5-0.6,0.5c-0.4,0-0.8,0.1-1.2,0c-3.5-0.7-5.8,1.5-8.2,3.3c-0.6,0.5-0.7,1.1-0.1,1.8c-2.9-0.3-4.4,1.9-6.3,3.2
			c-1,0.7-0.6,1.6,0.5,2c1,0.3,2,0,3,0.4c-1.4,0-2.9,0-4.3,0c-0.8,0-1.4,0.2-2,0.7c-1,0.9-2,1.7-3,2.6c-0.5,0.4-0.6,0.9-0.3,1.5
			c0.2,0.5,0.7,0.7,1.2,0.7c0.6,0,1.2,0,1.9,0.2c-1.5,0-3.1,0-4.6,0c-1.1,0-2.1,0.1-3,1c-1.1,1.1-2.3,1.9-3.5,2.9
			c-0.5,0.4-0.6,0.8-0.4,1.4c0.2,0.5,0.6,0.6,1.1,0.7c0.7,0.1,1.3,0.2,2,0.2c-0.3,0.9-1.1,0.8-1.7,0.6c-1.1-0.3-2.3-0.1-3.4-0.2
			c-0.5,0-0.9,0.2-1.1,0.7c-0.5,1-1.1,2.1-1.6,3.1c-0.5,1.2,0,2,1.3,2.1c0.8,0.1,1.6-0.2,2.3,0.2c0.2,0.1,0.8-0.1,0.6,0.5
			c-0.1,0.3-0.2,0.6-0.6,0.6c-0.8-0.1-1.6,0.1-2.3-0.1c-1-0.3-1.7,0-2.1,0.9c-0.6,1.4-1.2,2.8-1.8,4.2c-0.4,1.3,0,1.8,1.4,1.8
			c0.8,0,1.6,0,2.3,0.2c0.3,0.1,0.7,0,0.6,0.5c-0.1,0.4-0.3,0.5-0.7,0.5c-1,0-2.1,0.1-3.1,0c-1-0.1-1.6,0.3-1.9,1.2
			c-0.3,0.9-0.7,1.8-1,2.7c-0.4,1.2,0.1,1.9,1.4,2c0.4,0,0.9,0,1.3,0c0.4,0,0.8,0,1.3,0c-0.1,0.4-0.1,0.6-0.6,0.5c-1-0.1-2,0-3.1,0
			c-0.6,0-1.2,0.1-1.5,0.8c-0.6,1.3-1.2,2.7-1.7,4.1c-0.3,0.9,0.2,1.5,1.1,1.5c0.7,0,1.3,0,2,0c0.4,0,1.2-0.3,1.1,0.4
			c0,0.6-0.2,1.5-1.2,1.5c-1.1,0-2.3,0-3.4-0.1c-0.9-0.1-1.5,0.2-1.7,1.1C61.2-28.2,61-27,61-25.9c0,0.7,0.3,1.5,1.4,1.4
			c0.9,0,1.9,0,2.8,0c0.6,0,0.9,0.1,0.9,0.8c0,0.7-0.2,0.9-0.9,0.9c-0.9,0-1.9,0-2.8,0c-1.1-0.1-1.4,0.5-1.5,1.5
			c-0.1,1.4,0,2.7-0.1,4.1c-0.1,0.8,0.6,1.2,1.4,1.3c0.8,0,1.6,0,2.4,0c0.6,0,1.1-0.1,1.1,0.8c-0.1,0.7-0.3,1.2-1.1,1.1
			c-0.9-0.1-1.7,0-2.6,0c-1.1-0.1-1.5,0.5-1.5,1.5c0,1.6-0.4,3.2-0.2,4.8C60.3-7.2,60.1-7,59.4-7c-3.6-0.2-7.1,0.3-10.7,0.2
			c-1.7,0-1.5,0.2-1.5-1.5c0.2-4,0.3-8,0.5-12.1c0.1-3,0.2-5.9,0.4-8.9c0.2-1.9,1-3.6,1.7-5.4c1.4-4.2,2.9-8.4,4.4-12.7
			c1.2-3.4,2.4-6.7,3.5-10.1c0.3-0.9,1-1.4,1.6-2c2.5-2.1,5-4.2,7.5-6.3c2.9-2.4,5.8-4.9,8.7-7.3c1.8-1.5,3.6-3.1,5.4-4.6
			c2.4-2.1,4.9-4.1,7.3-6.2c1.8-1.6,3.6-3.2,5.5-4.7c2.9-2.5,5.9-4.8,8.7-7.4c2.3-2.1,4.7-4,7.1-6.1c2.9-2.6,5.9-5,8.9-7.5
			C120.8-111.6,123-113.6,125.3-115.5z"/>
		<path class="st5" d="M54.4,19.9c1.7,0.2,3.6-0.4,5.6-0.3c0.7,0,1,0.1,1.3,0.9c1.4,5,3,9.9,4.5,14.8c3.4,11.4,7.4,22.6,11.1,33.9
			c1.6,5.1,3.3,10.1,5,15.2c0.9,2.7,1.2,5.6,1.8,8.4c0,0.1,0,0.2,0,0.2c0.2,0.9,0.9,2.1,0.4,2.6c-0.5,0.5-1.8,0.2-2.7,0.2
			c-2,0-3.9,0.3-5.9,0.3c-1,0-1.4-0.2-1.6-1.3c-1.4-8.8-4.5-17.2-7.3-25.6c-1.6-4.7-3.1-9.5-4.7-14.3c-2-5.7-3.7-11.5-5.5-17.3
			C54.5,32,52.8,26.3,51,20.7c-0.2-0.6-0.2-0.9,0.6-0.9C52.5,19.9,53.3,19.9,54.4,19.9z"/>
		<path class="st5" d="M125.4,146c0,4.7,0,9.4-0.1,14.1c-2.5-2.3-4.9-4.6-7.3-7c-7.9-7.9-15.9-15.9-23.8-23.8
			c-1.9-1.9-3.9-3.7-5.8-5.6c-1.1-1.1-2.1-2.2-2.6-3.8c-0.7-2.3-1.7-4.6-2.6-7c3.5,0,6.8,0,10.2,0c0.9,0,1,0.6,1.1,1.1
			c0.1,0.9,0.5,1.8,0.8,2.7c0.3,0.9,0.9,1.5,2,1.4c1.4-0.2,2.8,0.3,4.3,0.3c-0.3,0.6-0.7,0.4-1,0.4c-0.9,0-1.7,0-2.6,0
			c-0.6,0-1.2,0.1-1.4,0.8c-0.2,0.6,0.1,1.2,0.6,1.6c1.1,1,2,2.2,3.3,3c0.4,0.2,0.7,0.5,1.2,0.5c1.4-0.1,2.7,0.4,4.1,0.2
			c1-0.1,1.3,0.7,2,1.4c-0.9,0-1.6,0.1-2.2,0c-0.7-0.1-1.3,0-1.6,0.6c-0.3,0.7,0,1.4,0.6,1.8c1.1,0.7,1.9,1.7,2.7,2.6
			c0.8,0.8,1.8,1.3,2.9,1.2c1.3-0.1,2.6,0.2,4,0.3c0.4,0,0.7,0.2,0.9,0.7c-0.9,0-1.8,0-2.7,0c-0.6,0-1.1,0.2-1.3,0.8
			c-0.3,0.6,0.1,1,0.5,1.3c1.2,1.1,2.4,2.2,3.6,3.4c1.2,1.1,2.7,1,4.1,1.1c0.7,0.1,1.4,0,2.1,0.2c-0.6,0-1.2,0-1.7,0
			c-1.1,0.1-1.6,1.1-1,1.9c1.1,1.3,2.3,2.4,3.7,3.3C123.3,146.2,124.4,146,125.4,146z"/>
		<path class="st6" d="M87.9,95.5c-0.8,0.2-1.3,0-1.5-1.2c-0.6-3.5-1.2-7.1-2.2-10.6c-1.5-5-3.3-10-4.9-14.9
			c-2.8-8.4-5.6-16.8-8.4-25.3c-2.4-7.5-4.7-15.1-7-22.7c-0.4-1.2-0.2-1.5,1.2-1.5c1.8-0.1,1.8-0.1,2.3,1.7
			c2.4,7.7,4.7,15.5,7.1,23.1c2.2,7,4.6,13.9,6.9,20.8c2,6.2,4.1,12.4,6.1,18.6c0.8,2.6,1.1,5.3,1.6,8c0.2,1,0.2,2,0.5,2.9
			c0.4,1,0,1.1-0.8,1C88.5,95.5,88.3,95.5,87.9,95.5z"/>
		<path class="st5" d="M66.1-4.8c-2.4,4.2-1.1,8.3,0,12.4c-0.4,0.3-0.8,0.1-1.2,0.1c-3.6,0-7.2,0.1-10.7,0c-1.8,0-3.5,0.3-5.3,0.3
			c-2.3,0-3.7-1.1-4.2-3.4c-0.6-3,0.1-5.8,1.5-8.4c0.1-0.2,0.2-0.5,0.6-0.5c0.6,0,1.2-0.2,1.7-0.2c4.4,0.1,8.9-0.4,13.3-0.2
			C63.1-4.6,64.5-5.2,66.1-4.8z"/>
		<path class="st5" d="M93.4,97.9c-1.8,3.8-1.2,7.5-0.2,11.2c0.4,1.5,0.4,1.5-1.1,1.5c-5.4,0-10.8,0-16.3,0c-2.1,0-2.6-0.4-3.3-2.4
			c-0.8-2-0.6-4.1-0.1-6.1c0.2-0.6,0.4-1.2,0.6-1.8c0.6-1.9,0.8-2,2.7-2c4.1,0.1,8.2-0.3,12.3-0.3C89.8,98.1,91.6,97.9,93.4,97.9z"
			/>
		<path class="st6" d="M100.9,65.8c-0.3,0-0.4-0.2-0.6-0.5c-2.3-3.3-4.7-6.7-7.1-10c-0.5-0.7-0.6-1,0.3-1.3c3-1.2,6-2.4,9.1-3.7
			c0.4-0.1,0.7-0.3,1,0.1c2.7,3.5,5.4,7,8.1,10.5c0.4,0.5,0.4,0.7-0.2,0.9c-3.5,1.2-7,2.5-10.5,3.7C101.1,65.7,101,65.8,100.9,65.8z
			"/>
		<path class="st5" d="M72,16.8c-1.2,0-2.3,0.2-3.4,0.2c-4-0.1-7.9,0.2-11.9,0.4c-2.9,0.1-5.8-0.1-8.6,0.4c-0.7,0.1-1-0.3-1.2-0.9
			c-0.6-1.3-0.7-2.7-0.3-4.1c0.7-2.4,0.7-2.4,3.1-2.4c4.4,0.1,8.7-0.2,13-0.3c2.9,0,5.7,0.7,8.6,0.5c0.3,0,0.6,0,0.5,0.5
			C71.3,13,71.5,14.8,72,16.8z"/>
		<path class="st6" d="M76.3-44.4c0-1.2,0.1-2.4,0-3.5c-0.3-1.7,0.5-2.9,1.2-4.2c0.2-0.3,0.4-0.4,0.8-0.4c2.1,0.1,4.1,0,6.2-0.2
			c0.6-0.1,0.8,0.1,0.8,0.8c0,4-0.4,8.1-0.2,12.1c0,0.5-0.2,0.5-0.6,0.6c-2.4,0.4-4.8,0.8-7.2,1.1c-0.6,0.1-1,0-1-0.8
			C76.3-40.8,76.3-42.6,76.3-44.4z"/>
		<path class="st6" d="M76.7,43.2c0,0,0.2-0.3,0.3-0.5c1.4-3,2.9-5.9,4.2-9c0.3-0.7,0.8-0.8,1.4-0.7c2.2,0.4,4.4,0.8,6.6,1.2
			c1,0.2,1.2,0.5,0.7,1.4c-1.2,2.4-2.4,4.8-3.5,7.3c-0.5,1-0.9,2-1.4,2.9c-0.2,0.4-0.3,0.7-1,0.5c-2.2-0.6-4.4-1.2-6.6-1.7
			C76.8,44.5,76.8,44,76.7,43.2z"/>
		<path class="st6" d="M79.4,1.1c-3.5,2.1-7,4.1-10.4,6.1c-0.5,0.3-0.6,0-0.7-0.4c-0.5-2.1-1.1-4.3-1.1-6.4c0-1.7,0.4-3.5,1.6-4.9
			c0.2-0.3,0.4-0.4,0.9-0.1c3,1.8,6,3.5,9.1,5.2C78.9,0.7,79.1,0.9,79.4,1.1z"/>
		<path class="st6" d="M96,110.2c-0.8-2.7-1.5-5.4-1.3-8.2c0.1-1.4,0.7-2.6,1.5-3.8c0.3-0.5,0.7-0.1,1,0c2.4,1.4,4.9,2.8,7.3,4.2
			c0.6,0.3,1.2,0.7,1.8,1c0.6,0.3,0.5,0.6,0,0.9c-2.5,1.4-5,2.9-7.6,4.4C97.8,109.1,97,109.6,96,110.2z"/>
		<path class="st5" d="M86.1,55.3c1.3,0.4,2.4,0.2,3.6,0.2c0.6,0,1,0.2,1.3,0.7c2,2.9,4,5.9,6.2,8.7c0.2,0.2,0.3,0.5,0.5,0.9
			c-1.2,0-2.2,0-3.3,0c-0.7,0-1-0.7-1.3-1.1c-2.3-3-4.6-6-6.8-9C86.2,55.7,86.1,55.5,86.1,55.3z"/>
		<path class="st6" d="M82.1,13c-2.4,1.3-4.5,2.6-6.7,3.8c-0.3,0.2-0.5,0.1-0.7-0.2c-1-1.4-0.9-5.2,0.2-6.6c0.3-0.3,0.5-0.1,0.7,0
			c1.1,0.5,2.1,1,3.2,1.5C79.9,11.9,80.9,12.4,82.1,13z"/>
		<path class="st5" d="M92.1,47c3,0,6.1-0.5,8.9,1.5c-2.7,1.1-5.3,2.2-8,3.2c0-0.1-0.1-0.1-0.1-0.2c0.8-0.6,1.5-1.2,2.3-1.7
			c0.6-0.4,0.8-1,0.7-1.6c-0.2-0.7-0.8-0.8-1.4-0.8c-0.8,0-1.6,0-2.4,0C92,47.3,92.1,47.2,92.1,47z"/>
		<path class="st5" d="M75.6,40c-0.6-1.9-1.1-3.5-1.6-5.1c-0.1-0.3-0.1-0.5,0.3-0.5c1.1,0.1,2.2-0.4,3.3-0.3c0.5,0,0.7,0.1,0.4,0.6
			C77.2,36.5,76.5,38.2,75.6,40z"/>
		<path class="st5" d="M77.9,47.2c1.6,0.4,3,0.8,4.4,1.1c0.6,0.1,0.7,0.3,0.4,0.8c-0.4,0.6-0.9,1.2-1.3,1.8c-0.4,0.6-1,0.5-1.6,0.5
			c-0.6,0-0.6-0.5-0.8-0.9C78.7,49.5,78.3,48.4,77.9,47.2z"/>
		<path class="st5" d="M73.9-40.2c0,0.5,0,1.1,0,1.6c0,0.8-0.5,0.6-1,0.6c-0.7,0-0.3-0.5-0.2-0.7c0-0.2,0.2-0.4,0.2-0.7
			c0.3-1.4-0.2-2.1-1.7-2.1c-0.5,0-0.9,0-1.4,0c-0.3,0-0.7,0.2-0.7-0.2c0-0.4,0.1-0.9,0.7-0.9c1.2,0,2.3,0,3.5,0
			c0.5,0,0.6,0.3,0.6,0.7C73.9-41.4,73.9-40.8,73.9-40.2z"/>
		<path class="st5" d="M91.6,52.1c-2.2,1.6-4.4,0.7-6.7,1C87.1,51,89.3,52.3,91.6,52.1z"/>
		<path class="st5" d="M73.9-49.3c-0.2,0.3,0.3,1.2-0.5,0.9c-0.6-0.2-1.8,0.4-1.8-0.6c0-0.6,0.1-1.7,1.5-1.7
			C74.2-50.6,73.8-49.9,73.9-49.3z"/>
		<path class="st0" d="M-10.8-116.2c0.5-0.3,0-0.5,0-0.8c0-0.6,0.1-1.2,0.9-1.4c0.8-0.2,1.1,0.4,1.2,1c0.1,0.4,0,0.8,0.3,1.1
			c0.3,2.6,0.6,5.3,0.9,7.9c0.3,3,0.6,5.9,0.9,8.9c0.1,1.1,0.1,2.2,0.2,3.4c0.2,2.5,0.2,4.9,0.2,7.4c0,4.3-0.2,8.6-0.8,12.9
			c-0.8,5.6-2.4,10.8-4.7,15.9c-0.9,2-1.3,4.1-1.5,6.3c-0.4,4.9-0.1,9.7-0.2,14.6c-0.1,5.1-0.5,10.2-2.6,14.9
			c-1.6,3.7-4.1,6.7-7.1,9.3c-4.5,3.8-9.8,6.1-15.2,8c-1.9,0.7-3.4,2-4.8,3.6c-2.4,2.8-4.6,5.9-7.4,8.4c-1.5,1.3-3.4,2.1-5.1,3.2
			c-3.3,2.3-6.2,5-8.9,8.1c-1.5,1.7-3.1,3.4-4.6,5.1c-2.6,2.9-5.1,5.8-8,8.5c-3.3,3-6.7,5.8-10.7,7.7c-1.2,0.6-2.5,0.7-3.8,0.8
			c-3.1,0.3-6.3,0.4-9.4,0.3c-3.3-0.2-6.5-0.3-9.8-0.5c-3.6-0.2-7.1-0.6-10.7-0.9c-3.1-0.3-6.1-0.4-9.2-0.7c-3-0.3-5.9-0.6-8.9-0.9
			c-2.2-0.2-4.4-0.3-6.6-0.5c-2.2-0.2-4.5-0.5-6.7-0.5c-0.2-0.4-0.5-0.2-0.8-0.2c-0.8,0-1.3-0.5-1.3-1.1c0-0.7,0.6-1,1.4-1
			c0.2,0,0.5,0,0.7,0c1.2-0.6,2.5-0.3,3.7-0.2c4.2,0.4,8.4,0.7,12.7,1.1c4.7,0.4,9.3,0.9,14,1.3c3.2,0.3,6.3,0.5,9.5,0.7
			c5.2,0.4,10.3,0.6,15.5,0.7c2.3,0,4.7-0.2,7-0.5c1.9-0.2,3.5-1.3,5-2.3c2.2-1.5,4.3-3.1,6.2-5c4.2-4.1,8-8.5,11.9-12.7
			c4-4.3,8-8.6,13.3-11.3c2.3-1.2,3.9-3.2,5.5-5.1c1.3-1.5,2.5-3.2,3.8-4.6c2.1-2.3,4.7-3.8,7.6-4.8c4.2-1.4,8.2-3.5,11.7-6.2
			c5.3-4.2,8.3-9.6,9.1-16.3c0.5-4.8,0.4-9.6,0.3-14.5c-0.1-5.3,0.2-10.7,2.7-15.6c2.3-4.7,3.3-9.7,4-14.8
			c0.8-5.8,0.7-11.7,0.4-17.5c-0.3-6.6-1-13.2-1.9-19.8C-11-115.3-11.2-115.8-10.8-116.2z"/>
		<path class="st0" d="M-14.3,67.6c-1.4-0.7-2.5-3.3-1.9-4.5c0.4-0.7,1.2-0.2,1.8-0.3c0.4-0.1,0.5,0.2,0.5,0.6
			c0.2,1.7,0.2,1.7,1.9,1.2c1.6-0.5,3.1-0.5,4.7-0.1c0.6,0.1,0.5,0.3,0.4,0.8c-0.4,1.3-1.5,2-2.6,2.6c-0.9,0.5-1.8,1-2.7,1.3
			c-1.1,0.4-1.3,1.3-1.4,2.3c-0.3,1.5,0,3-0.4,4.5c-0.1,0.5-0.2,0.8-0.8,0.5c-0.5-0.3-1.7,0.2-1.6-0.8c0.2-2.1,0.1-4.2,0.7-6.2
			C-15.5,68.7-15.2,67.9-14.3,67.6z"/>
		<path class="st0" d="M45.4,120c0.3,0,0.6,0,0.9,0c1.5-0.2,2,0.3,1.9,1.8c0,0.2,0,0.4-0.1,0.5c-1.5,1.2-2.5,2.8-4,4.1
			c-1.1,0.9-1.6,2.1-1.6,3.6c0,0.5-0.2,1-0.2,1.5c-0.1,0.4-0.3,0.4-0.6,0.3c-2-0.3-1.9-0.3-1.6-2.4c0.2-1.5,0.6-2.8,1.6-3.9
			c0.4-0.4,0-0.6-0.3-0.8c-0.6-0.3-0.7-0.9-0.9-1.5c-0.1-0.3,0-0.7,0.3-0.7c1.3-0.2,0.9-1.2,0.9-2c0-0.4,0.1-0.7,0-1.1
			c-0.2-1.2,0.3-1.6,1.4-1.8c0.9-0.1,1.4,0.5,1.2,1.1C43.6,120.3,44.5,120.1,45.4,120z"/>
		<path class="st0" d="M-142.7,118.5c-0.4-0.7-1.1-0.8-1.7-0.8c-0.8-0.1-1.1-0.5-1.3-1.2c-0.4-1.6,0.2-3.4,1.6-4.3
			c0.6-0.4,0.9,0.3,0.9,0.6c0.1,0.6,0.1,1.1-0.1,1.7c-0.3,0.6-0.1,1.1,0.8,1c0.8-0.1,1.5-0.4,2.3-0.3c0.4,0.1,1.2-0.2,1.2,0.2
			c0.1,0.7,0.7,1.5,0.2,2.1c-0.3,0.4-0.2,0.5-0.1,0.8c0.4,0.9,0.1,1.5-0.7,1.8c-0.9,0.3-1.8,0.5-2.8,0.8c-1.5,0.4-1.9,0.7-1.8,2.2
			c0,0.3,0,0.6,0,0.9c0,1-1.1,1.7-2.1,1.3c-0.2-0.1-0.2-0.3-0.3-0.4c-0.5-3.2-0.2-5.2,3.4-6.3C-143,118.6-142.9,118.6-142.7,118.5z"
			/>
		<path class="st0" d="M33.4-26.6c1.4,0,1.5,0.2,1.2,1.4c-0.4,1.6-0.3,1.6,1.3,1.9c0.6,0.1,1.2,0.2,1.8,0.4c1.3,0.5,1.5,1.5,0.5,2.5
			c-0.3,0.3-0.8,0.4-0.5,1.1c0.2,0.5-0.6,0.9-1.1,1.3c-0.7,0.5-1.4,0.8-1.6,1.9c-0.1,0.8-1.3,0.5-2,0.6c-0.2,0-0.5-0.8-0.4-1.3
			c0-0.1,0.1-0.3,0.2-0.4c0.6-1,0.7-1.8-0.9-2.1c-0.6-0.1-1-0.8-1-1.5c-0.1-0.8,0.5-0.9,1-1.1c0.2-0.1,0.5-0.1,0.4-0.5
			c-0.4-0.9-0.1-1.9-0.2-2.9C32-26.3,32.4-26.8,33.4-26.6z"/>
		<path class="st0" d="M22.3,51.4c-0.6,0.3-1,0.6-1.4,0.7c-0.6,0.2-1.3,0.2-1.6-0.5c-0.2-0.5-0.8-1.2,0.1-1.7
			c0.2-0.1,0.5-0.3,0.4-0.7c-0.6-1.5,0.3-3,0.4-4.4c0.1-0.8,1.2-0.9,1.9-1c0.6-0.1,0.4,0.7,0.4,1.1c0.1,0.7-0.1,1.4-0.2,2.1
			c-0.1,0.8,0.3,1.2,1,0.9c0.8-0.3,1.6-0.1,2.4-0.2c0.5,0,0.7,0.1,0.5,0.7c-0.6,2.7-2.3,4.9-3.2,7.5c-0.1,0.4-0.4,0.3-0.6,0.2
			c-0.4-0.2-0.7-0.4-1-0.5c-0.8-0.2-0.6-0.5-0.3-1.1C21.4,53.6,21.8,52.6,22.3,51.4z"/>
		<path class="st0" d="M-131.8,91.9c-1.6-1.5-2-3.4-1.9-5.3c0.1-1,1.2-0.4,1.8-0.7c0.5-0.2,0.5,0.3,0.5,0.7c0,0.7,0.2,1.3,0.3,1.9
			c0.1,1,0.8,1.6,1.8,1.6c1.1,0,2.1,0.3,2.3,1.6c0.1,0.4,0.3,0.5,0.7,0.6c0.5,0.1,1,0.2,1.6,0.5c-1.6,0.6-3,1.6-4.8,1.6
			c-1.4,0-2.1,0.6-2.7,1.9c-0.4,0.9-1.3,0.4-2,0.5c-0.6,0-0.6-0.5-0.6-0.9c0.1-0.7,0.3-1.4,0.9-2c0.4-0.4,0.7-0.7,0.8-1.4
			C-132.9,91.6-132.1,92.2-131.8,91.9z"/>
		<path class="st0" d="M47.5,85.5c0.5,0.2,0.8,0.2,1,0.4c0.8,0.4,1.1,1.2,1.2,1.9c0.1,0.5-0.8,0.4-1.3,0.7c-0.8,0.5-1.8,0.1-2.7,0.5
			c-0.6,0.2-0.8-0.4-0.8-0.9c0.1-0.8-0.3-1.1-1-1.5c-0.5-0.3-1.3-0.7-0.7-1.5c0.8-1,0.5-2.1,0.3-3.1c-0.3-1.6,0.2-3.1,0.2-4.6
			c0-0.8,1.1-0.3,1.7-0.4c0.3-0.1,0.8,0,0.7,0.7c-0.1,1.4,0,2.7-0.1,4.1c-0.1,0.9,0.3,1.2,1.1,1.1c0.6-0.1,1.4-0.7,1.7,0.4
			C49.3,84.5,48.9,85.1,47.5,85.5z"/>
		<path class="st0" d="M-44.8,8c-1.8-0.9-2.2-4.1-0.8-5.5c0.4-0.4,0.7,0.1,1,0.2c1,0.3,1.4,0.7,0.8,1.8C-44.4,5.5-44,6-42.6,6.2
			c0.6,0.1,1.2,0,1.8,0.2c0.7,0.2,1,0.7,1.2,1.2c0.2,0.6-0.2,1-0.7,1.4C-41.1,9.5-42,9.7-43,10c-1.7,0.4-2,0.7-2,2.5
			c0,0.3,0,0.6,0,0.9c0,1.4-1,2.1-2.3,1.5c-0.4-0.1-0.3-0.4-0.3-0.7c0.3-1.4,0.2-2.8,0.5-4.2C-46.8,8.7-45.7,8.4-44.8,8z"/>
		<path class="st0" d="M48.3-83.3c0.4-0.2,0.8-0.4,1-0.5c1-0.7,1.5-0.6,2.1,0.6c0.3,0.7,0.3,1-0.3,1.3c-2.5,1-3.1,3.1-3.1,5.5
			c0,0.2,0,0.4,0,0.6c0,1.7-0.6,2.1-2.2,1.7c-0.2-0.1-0.4-0.1-0.4-0.3c0.5-1.7-0.1-3.5,0.6-5.2c0.3-0.8,0.6-1.5-0.1-2.4
			c-0.5-0.8-0.2-1.9-0.1-2.8c0.1-0.9,0.1-1.8,0.2-2.7c0.1-1.1,1.2-0.6,1.8-1c0.6-0.3,0.5,0.4,0.6,0.7c0.4,0.9-0.2,1.8-0.2,2.6
			C48.3-84.7,48.2-84.1,48.3-83.3z"/>
		<path class="st0" d="M-28.5,23.8c-1.1-0.5-1.4-1.4-1.4-2.4c0-0.9,0.3-1.8,0.3-2.8c0-0.4,1.5-1.2,2-1c0.6,0.2,0.6,0.8,0.6,1.4
			c0,0.4-0.2,0.8-0.2,1.2c-0.1,0.4-0.1,0.8-0.2,1.3c0.6-0.2,1.1-0.1,1.7-0.3c0.9-0.3,1.6,0.2,1.9,1c0.3,0.7,0.3,1.5-0.5,2.1
			c-0.8,0.7-1.8,1.1-2.7,1.6c-1.6,0.8-1.8,1.3-1.3,3c0.1,0.4,0,0.6-0.3,0.7c-0.4,0.1-0.7,0.3-1.1,0.4c-0.5,0.2-0.9,0-1.1-0.5
			c-0.8-2-0.1-4,1.9-5.3C-28.8,24-28.7,23.9-28.5,23.8z"/>
		<path class="st0" d="M1.2-14.2c-1-1.7-1-3.6-1.3-5.4c0-0.3,0.1-0.4,0.3-0.4c0.5,0,1.1,0,1.6-0.2c0.5-0.1,0.7,0.3,0.6,0.7
			c-0.1,1.6,0.4,3,1,4.5c0.7,1.8,0.5,2.3-1.2,3c-0.5,0.2-0.7,0.2-0.4,0.8c0.4,0.9-0.1,1.9-1,2C-0.4-9-1.6-9.3-2.5-9.8
			c-0.7-0.3-1-1.6-1.4-2.5c-0.1-0.2,0.3-0.3,0.4-0.5C-2.1-13.8-0.4-13.8,1.2-14.2z"/>
		<path class="st0" d="M54.6,79.6c-3.1-0.7-2.9-1.6-2.5-4.5c0.1-0.8,0.1-1.6,1.3-1.8c0.9-0.2,1.2-0.1,1.2,0.9c0,0.8-0.3,1.6-0.3,2.4
			c0,0.4,0,0.5,0.6,0.4c0.8-0.1,1.9-0.5,2.5,0.3c0.7,1,0.2,2-0.4,2.8c-1.1,1.5-1.9,2.9-1.8,4.9c0.1,1.1-0.9,0.4-1.4,0.6
			c-0.4,0.1-0.9,0.1-0.9-0.6C52.8,83,53.2,81.2,54.6,79.6z"/>
		<path class="st0" d="M-150.4,62c-1.1,0.2-1.3-0.1-1.1-1.3c0.2-1.4,0.4-2.8,0.9-4c0.3-0.8-0.1-1-0.6-1c-0.9,0-1.1-0.8-1-1.2
			c0.1-0.7-0.2-1.7,0.8-2.1c0.3-0.1,0.5-0.4,0.7-0.6c0.2-0.1,0.1-0.8,0.6-0.5c0.3,0.2,0.6,0.5,0.6,0.9c-0.1,0.8,0.1,1.2,1,1.1
			c0.8,0,1.4,1.1,1,2c-0.8,2-1.6,3.9-1.6,6.1C-149.1,62.4-149.9,61.9-150.4,62z"/>
		<path class="st2" d="M-153.1,13.9c0-42.9,0-85.7,0-128.6c0-1.5,0-1.5,1.6-1.5c39.9,0,79.8,0,119.7,0c0.5,0,0.9,0,1.4,0
			c0.4,0.4,0.3,1,0.3,1.4c-0.2,5.3,0.2,10.7,0.3,16c0.1,3.9-0.1,7.9,0.2,11.8c0.3,3.9,0.3,7.8,0.2,11.7c-0.2,6.9-0.2,13.7-1.4,20.5
			c-0.4,2.4-1,4.8-2.1,7.1c-2.1,4.7-3.7,9.6-5.3,14.5c-0.9,2.6-2,5.1-3.9,7c-1.5,1.4-3.1,2.5-5.2,2.9c-1.5,0.3-2.9,0.7-4.4,1.1
			c-1.2,0.3-2.3,0.9-3.2,1.7c-3.5,3.2-7.4,5.9-11.6,8.1c-3.4,1.8-5.9,4.4-8.2,7.3c-2.6,3.3-5,6.7-7.7,9.9
			c-3.7,4.4-7.8,8.3-12.9,11.1c-3.6,1.9-7.3,3-11.4,3.1c-5.7,0.2-11.3-0.9-16.8-1.9c-5.5-1-10.9-2.2-16.5-2.9
			c-3.9-0.5-7.9-0.6-11.9-0.2C-152.1,14.1-152.6,14.3-153.1,13.9z"/>
		<path class="st5" d="M-10.8-116.2c0.3,2.3,0.5,4.6,0.8,6.9c0.2,1.7,0.5,3.5,0.6,5.2c0.7,7.2,0.9,14.4,0.7,21.6
			C-8.8-80-9.1-77.5-9.5-75c-0.3,1.8-0.7,3.6-1.1,5.5c-0.6,2.9-1.9,5.5-3,8.2c-1,2.3-1.6,4.7-1.9,7.3c-0.3,2.3-0.4,4.6-0.3,6.9
			c0.1,3.1,0.2,6.2,0.1,9.3c-0.2,4.5-0.6,9-2.5,13.2c-2.2,4.8-5.9,8.3-10.4,11c-3.3,2-6.9,3.5-10.6,4.8C-42-8-43.9-6-45.7-4
			c-2.3,2.6-4.2,5.7-7,7.8c-0.9,0.7-2,1.2-3,1.8c-3.1,1.8-5.8,4.2-8.2,6.8c-1.3,1.4-2.8,2.8-4.1,4.2c-3.9,4.4-7.8,8.8-12.1,12.8
			c-2.6,2.4-5.4,4.4-8.5,6.1c-1.1,0.6-2.4,0.6-3.6,0.7c-4.4,0.4-8.8,0.2-13.1,0c-2.6-0.1-5.2-0.1-7.7-0.4c-3.5-0.4-7-0.5-10.5-0.9
			c-3-0.4-6-0.5-9-0.7c-3.8-0.4-7.7-0.9-11.5-1.1c-3-0.2-6.1-0.7-9.1-0.5c0-5.4,0-10.8,0.1-16.3c1.2-0.7,2.6-0.7,3.9-0.8
			c5.5-0.2,11,0.5,16.4,1.5c5.6,1,11.1,2.2,16.7,3.1c4.4,0.7,8.8,0.9,13.3,0.3c3.9-0.5,7.4-2.1,10.7-4.2c5.5-3.5,9.8-8.3,13.8-13.4
			c2.4-3.2,4.8-6.4,7.4-9.5c1.6-1.9,3.6-3.2,5.7-4.3c3.9-2.1,7.5-4.4,10.7-7.4c1.4-1.3,2.9-2.1,4.7-2.5c0.9-0.2,1.8-0.4,2.8-0.6
			c4-0.8,6.8-3.3,8.7-6.8c0.7-1.3,1.3-2.6,1.8-4c1.8-5.3,3.5-10.7,5.8-15.9c1.6-3.7,2-7.7,2.3-11.6c0.9-9.1,0.8-18.3,0.7-27.4
			c-0.1-6.6-0.3-13.3-0.5-19.9c-0.1-2.5-0.1-5.1-0.2-7.6c0-0.5-0.1-1,0.3-1.5C-22.3-116.2-16.5-116.2-10.8-116.2z"/>
		<path class="st0" d="M-28-116.2c0.1,5.4,0,10.7,0.3,16.1c0.4,9.2,0.6,18.5,0.4,27.7c-0.1,4.7-0.3,9.4-0.9,14.1
			c-0.4,3.5-0.7,7-2.2,10.2c-2.9,6.2-4.3,12.8-7.1,19c-2.2,4.9-6.1,7.6-11.4,8.4c-2.1,0.3-4,1.2-5.6,2.7c-2.8,2.7-5.9,4.9-9.3,6.6
			c-4.2,2.1-7.2,5.2-10,8.8C-77,1.6-80.2,6-83.9,9.9c-3.4,3.5-7.1,6.4-11.4,8.6c-3.3,1.6-6.9,2.5-10.7,2.6
			c-5.3,0.1-10.5-0.6-15.7-1.6c-4.7-0.9-9.4-1.9-14.1-2.6c-4.6-0.7-9.2-1.2-13.9-1c-1.2,0.1-2.3,0.3-3.5,0.4c-0.2-0.4-0.4,0-0.6-0.1
			c-0.5-0.1-0.9-0.5-1-1c-0.1-0.5,0.2-0.8,0.7-1c0.3-0.1,0.7-0.1,0.9-0.4c3.7-0.6,7.4-0.5,11.1-0.2c4,0.3,7.9,1,11.8,1.7
			c3.9,0.7,7.7,1.5,11.6,2.2c2.1,0.4,4.2,0.6,6.3,0.9c1.4,0.2,2.8,0.2,4.2,0.2c5.9,0.3,11.1-1.5,15.9-4.8c4.2-2.9,7.6-6.5,10.8-10.4
			c3.2-3.9,6-8.2,9.5-11.9c1.8-1.9,3.8-3.3,6.1-4.5c3.9-2.1,7.6-4.6,10.8-7.7c1.8-1.8,4.2-2.3,6.5-2.7c4.9-0.8,7.8-3.8,9.5-8.2
			c1.8-4.6,3-9.3,5-13.9c1-2.3,2.1-4.6,2.6-7.1c0.6-2.8,0.9-5.7,1.2-8.6c0.6-7.6,0.8-15.3,0.6-23c-0.1-4.2,0-8.4-0.2-12.6
			c-0.2-2.9,0.1-5.7-0.2-8.6c-0.4-3.7-0.1-7.4-0.2-11c0.3-0.1,0.2-0.4,0.2-0.7c0-0.6,0.4-1,1-1c0.6,0,0.9,0.4,0.9,1
			C-28.2-116.6-28.4-116.3-28-116.2z"/>
		<path class="st0" d="M78.2,93.7c-0.6,0-1.1,0.1-1.6-0.2c-0.4-0.2-0.8-0.5-0.7-1c0.1-0.5,0.2-1,0.8-1.2c1-0.3,2-0.3,3-0.1
			c0.8,0.1,1.1,0.7,1.1,1.3c0,0.6-0.4,0.9-1.1,1.1C79.1,93.7,78.6,93.6,78.2,93.7z"/>
		<path class="st0" d="M75.2,78.1c0.8,0.1,1.7-0.2,2.1,1c0.2,0.7,0.1,1.2-0.7,1.4c-1,0.3-2,0.3-3.1,0c-0.7-0.2-1-0.6-0.9-1.1
			c0-0.5,0.3-0.9,1-1.1C74.1,78.1,74.6,78.1,75.2,78.1z"/>
		<path class="st0" d="M58.9,31c-0.4,0-0.9,0-1.3-0.1c-0.5-0.2-1.1-0.4-1.1-1.2c0-0.8,0.5-1.1,1-1.2c0.9-0.2,1.8-0.2,2.7,0
			c0.6,0.2,1.2,0.5,1.1,1.3c-0.1,0.7-0.6,1-1.2,1.1C59.7,31,59.3,30.9,58.9,31C58.9,30.9,58.9,30.9,58.9,31z"/>
		<path class="st0" d="M68.9,62.3c-1.6,0-2.4-0.4-2.3-1.4c0.1-1.4,1.3-1.2,2.2-1.2c0.5,0,1-0.1,1.4,0.1c0.5,0.2,1.1,0.4,1.1,1.2
			c0,0.7-0.4,1-1.1,1.2C69.8,62.3,69.4,62.2,68.9,62.3z"/>
		<path class="st0" d="M65.7,52.9c-0.5,0-1,0-1.5-0.1c-0.6-0.2-0.8-0.8-0.7-1.3c0.1-0.5,0.4-0.9,1-1c0.8,0,1.6,0,2.5,0
			c0.7,0,1.4,0.2,1.3,1.1c-0.1,0.9-0.6,1.2-1.4,1.2C66.5,52.9,66.1,52.9,65.7,52.9C65.7,52.9,65.7,52.9,65.7,52.9z"/>
		<path class="st0" d="M70.3,66.5c-0.4,0-0.7,0-1.1,0c-0.8,0.1-1.3-0.5-1.4-1.1c-0.1-0.7,0.5-1.2,1.3-1.2c0.7-0.1,1.5,0,2.2,0
			c0.8,0,1.4,0.5,1.3,1.3c0,0.7-0.5,1.2-1.3,1.1C71,66.5,70.7,66.5,70.3,66.5z"/>
		<path class="st0" d="M62.8,43.7c-0.4,0-0.8,0-1.2,0c-0.8,0.1-1.3-0.5-1.3-1.2c-0.1-0.6,0.5-1.1,1.1-1.2c0.9-0.1,1.8-0.1,2.7,0
			c0.6,0.1,1.2,0.6,1.1,1.3c-0.1,0.7-0.5,1.1-1.3,1C63.6,43.6,63.2,43.7,62.8,43.7z"/>
		<path class="st0" d="M67.4,55.2c0.3,0,0.6,0,0.9,0c0.9-0.1,1.4,0.4,1.5,1.2c0,0.8-0.7,1.2-1.4,1.2c-0.7,0-1.3,0.1-2,0
			c-0.8-0.1-1.4-0.4-1.4-1.3c0-0.9,0.6-1.2,1.5-1.1C66.8,55.3,67.1,55.2,67.4,55.2z"/>
		<path class="st0" d="M61.4,39.4c-0.4,0-0.9,0-1.3,0c-0.7,0-1-0.3-1.1-1c-0.1-0.6,0.1-1.1,0.8-1.3c1-0.2,2-0.2,3,0
			c0.5,0.1,1.1,0.5,0.9,1.3c-0.2,0.6-0.4,1.1-1.2,1C62.2,39.4,61.8,39.4,61.4,39.4z"/>
		<path class="st0" d="M76.1,84.7c-0.4,0-0.8,0-1.2,0c-0.7-0.1-1.2-0.5-1.2-1.2c0-0.7,0.5-1.1,1.2-1.1c0.8,0,1.6,0,2.4,0
			c0.8,0,1.2,0.5,1.3,1.1c0.1,0.6-0.4,1-1,1.1C77.1,84.7,76.6,84.7,76.1,84.7C76.1,84.7,76.1,84.7,76.1,84.7z"/>
		<path class="st0" d="M64.2,48.4c-0.4,0-0.9,0-1.3,0c-0.7-0.1-1.2-0.5-1.2-1.2c0-0.6,0.5-1.1,1.1-1.1c0.9-0.1,1.7,0,2.6,0
			c0.7,0,1.1,0.6,1.1,1.2c0,0.6-0.4,1.2-1.2,1.2C65,48.4,64.6,48.4,64.2,48.4z"/>
		<path class="st0" d="M59.9,35.2c-0.4,0-0.9,0-1.3,0c-0.6,0-1-0.4-1-1c0-0.5,0-1,0.7-1.2c1-0.4,2.1-0.3,3.1-0.2
			c0.6,0.1,1,0.5,0.9,1.3c-0.1,0.7-0.5,1-1.2,1C60.8,35.2,60.4,35.2,59.9,35.2z"/>
		<path class="st0" d="M57.3,23.4c0.8-0.1,1.9-0.2,2.1,1.2c0.1,0.8-0.7,1.2-2.3,1.2c-0.5,0-0.9,0.1-1.4,0c-0.7-0.1-1.2-0.5-1.2-1.2
			c0-0.7,0.5-1,1.1-1.1C56.2,23.4,56.7,23.4,57.3,23.4z"/>
		<path class="st0" d="M71.6,71.3c-0.4,0-0.7,0-1.1,0c-0.8,0-1.3-0.5-1.3-1.2c0-0.7,0.5-1.1,1.3-1.1c0.8,0,1.6,0,2.4,0
			c0.8,0,1.1,0.6,1.3,1.2c0.1,0.7-0.5,1-1,1.1C72.7,71.3,72.1,71.2,71.6,71.3C71.6,71.3,71.6,71.3,71.6,71.3z"/>
		<path class="st0" d="M73.3,73.6c0.4,0,0.9,0,1.3,0c0.5,0,0.9,0.3,1,0.8c0.1,0.6,0,1.1-0.7,1.3c-1,0.4-2.1,0.3-3.1,0.1
			c-0.6-0.1-1.1-0.6-0.9-1.4c0.1-0.7,0.6-0.9,1.3-0.9C72.5,73.6,72.9,73.6,73.3,73.6z"/>
		<path class="st0" d="M77.3,86.6c0.3,0,0.6,0,0.8,0c0.9-0.1,1.5,0.3,1.5,1.2c0,0.9-0.7,1.1-1.4,1.2c-0.7,0-1.3,0-2,0
			c-0.8,0-1.3-0.4-1.4-1.2c0-0.9,0.6-1.2,1.4-1.2C76.6,86.6,77,86.6,77.3,86.6z"/>
		<path class="st0" d="M59.5,1.2c-0.4,0-0.9,0-1.3,0c-0.6,0-1-0.3-1.1-1c-0.1-0.6,0.2-1.1,0.8-1.2c1.1-0.3,2.2-0.3,3.2,0
			c0.5,0.1,1,0.6,0.8,1.3c-0.2,0.6-0.5,1.1-1.2,1C60.3,1.2,59.9,1.2,59.5,1.2z"/>
		<path class="st0" d="M87.9,101.9c0.9,0,1.7,0,2.6,0c0.6,0,1,0.3,1.1,0.8c0.1,0.6,0,1.1-0.8,1.3c-0.8,0.3-1.6,0.1-2.4,0.2
			c-0.9,0-1.9,0-2.8,0c-1,0-1.8-0.6-1.7-1.3c0.2-1,0.9-1,1.7-1C86.4,101.9,87.1,101.9,87.9,101.9z"/>
		<path class="st0" d="M61.2,14.7c-0.4,0-0.9,0-1.3,0c-0.5,0-0.8-0.4-0.9-0.9c0-0.5-0.1-1,0.6-1.2c1.1-0.3,2.3-0.3,3.4,0
			c0.5,0.1,0.8,0.5,0.7,1.1c-0.1,0.6-0.4,1-1,1.1C62.3,14.7,61.8,14.6,61.2,14.7C61.2,14.7,61.2,14.7,61.2,14.7z"/>
		<path class="st0" d="M-36.1-52.3c-0.1,0.7-0.5,1.2-0.9,1.7c0.5,0.4,1.2,0,1.7,0.4c-1.1,1.3-2.2,2.5-3.2,3.8
			c-0.3,0.4-0.7,0.3-1.1,0.2c-0.8-0.1-1.4,0.1-1.2,1.1c0,0.3,0.1,0.5-0.1,0.8c-0.4,0.5-0.9,1.3-1.3,1.1c-0.5-0.3-1.1-1-1.1-1.8
			c0-0.4,0-0.8-0.2-1.2c-0.3-1-0.1-1.8,0.7-2.4c0.5-0.3,0.9-0.8,0.1-1.2c-0.8-0.5-1-1.2-1-2.1c0-0.9,0.2-1.7,0.3-2.5
			c0.2-0.8,1.3-0.7,1.9-0.9c0.5-0.2,0.3,0.6,0.4,1c0,0.3,0.1,0.7,0,1.1c-0.4,1.3,0.2,1.4,1.2,1.1C-38.6-52.5-37.4-52.2-36.1-52.3z"
			/>
		<path class="st0" d="M-109.4-59.9c-1-0.9-1-1.8,0.1-2.5c0.2-0.1,0.4-0.3,0.1-0.5c-1-1-0.5-2.3-0.4-3.5c0-0.9,1-0.3,1.5-0.4
			c0.4-0.1,0.9-0.1,0.8,0.5c-0.3,1.4,0.3,1.9,1.7,2.2c1.8,0.5,1.8,1,0.8,2.7c-0.2,0.4,0.4,0.8,0,1.2c-1,1.1-1.6,2.6-2.9,3.5
			c-0.9,0.6-1.4,1.2-1.5,2.2c-0.2,1.2-1.2,0.4-1.7,0.6c-0.7,0.2-0.6-0.4-0.6-0.8c0.1-1,0.1-2,0.9-2.8c0.3-0.3,0.3-0.5,0.3-0.9
			C-110.5-59.2-110.2-59.7-109.4-59.9z"/>
		<path class="st0" d="M-104.6-45.3c0.3-0.2,0.7-0.4,1-0.6c1.3-0.9,1.6-2.1,1.5-3.6c0-0.3,0-0.6,0-0.9c0.1-0.4-0.3-1.1,0.2-1.3
			c0.6-0.2,1.2-0.1,1.9,0c0.4,0,0.2,0.4,0.2,0.7c0,0.9,0,1.8,0,2.7c0,0.5,0.1,0.7,0.6,0.5c1.3-0.5,2.5,0.1,3.8,0.3
			c-0.1,0.5-0.5,0.8-0.8,1c-2.7,1.7-3.1,4.5-3.6,7.2c-0.1,0.4-0.1,0.8-0.7,0.5c-0.5-0.2-1.4,0.3-1.6-0.3c-0.2-0.6-0.2-1.4,0.1-2.2
			c0.4-1,0.7-2.1,1-3.1c-1.1-0.2-2.3-0.4-3.4-0.6C-104.4-45.1-104.5-45.2-104.6-45.3z"/>
	</g>
	<rect id="rect2983-8-9" x="-154.8" y="-117.8" class="st7" width="281.7" height="281.5">
	</rect>
	<path id="path2985-4-2" class="st8" d="M-29.3-117.2c-0.3,12.7,3,58.2-2.6,69.3c-2.1,4.3-4,10.5-5.7,15.4c-1.1,3.4-3.3,7.3-7.2,9.2
		c-2.7,1.4-7.5,1.3-9.2,3.1c-3.2,3.2-9.1,7.1-13.4,9.2C-75.5-6.9-82.2,13-99.7,18.8c-14.3,4.8-37.7-6.9-54.4-3.6"/>
	<path id="path2987-2-4" class="st8" d="M-9.8-117.7c2.2,17.6,5,40.8-2.6,55.9c-8,16,10,41.7-26.7,53.9C-44.9-6-48,2.9-54,5.9
		c-11.7,5.9-20.5,23.9-34.4,30.8c-7.1,3.5-58.1-3.1-66.3-3.1"/>
	<path id="path2989-5-7" class="st8" d="M81.7,112.5l3.8,10.2l41.3,41"/>
	<path id="path3016-0-5" class="st8" d="M94.9,111.6l1.8,5.6l5.6,0.3l1.5,3l-6.1-0.1l3.7,3.4l5.6,0.4l3.9,3.7l-5.8-0.1l3.9,3.7
		l6.2,0.4l3.3,3.3l-6.2-0.3l4.7,4.1l5.2,0.1l2.9,2.6h-5.4l3.4,3.2l2.3,0.3"/>
	<path id="path3018-7-2" class="st8" d="M96.4,96.5l13.2,7.6l-14.4,8.4C94.9,108.3,91,102.2,96.4,96.5z"/>
	<path id="path3020-0-4" class="st8" d="M95.4,96.8l-22.1,0.7c-4.7,8.1-1.9,13.4,0.9,14.7L96,112"/>
	<path id="path3018-1-7-5" class="st8" d="M68.9-6.6L82.1,1L67.7,9.4C67.4,5.2,63.5-0.8,68.9-6.6z"/>
	<path id="path3020-4-6-7" class="st8" d="M67.9-6.2L45.8-5.5c-4.7,8.1-1.9,13.4,0.9,14.7L68.5,9"/>
	<path id="path3067-8-7" class="st8" d="M74.7,8.2c-2.5,3.4-2.4,8.6,0.2,10.3L85,12.8L74.7,8.2z"/>
	<path id="path3069-2-8" class="st8" d="M74,9.3l-5.1,0.2"/>
	<path id="path3071-3-6" class="st8" d="M73.6,18L47,18.9c-2.2-2.3-2.3-5.3-0.4-8.9"/>
	<path id="path3073-9-0" class="st8" d="M104,48.8l10.5,13.6l-14,5.1L90.9,54L104,48.8z"/>
	<path id="path3075-0-6" class="st8" d="M103.8,48.6l-7.6-4.1"/>
	<path id="path3077-3-3" class="st8" d="M91.7,54.5l-8-0.3L93.4,67l6.6,0.2"/>
	<path id="path3079-8-2" class="st8" d="M83.1,53.3l9.2-7.6l6.8,0.4"/>
	<path id="path3081-3-1" class="st8" d="M49.5,19.4l7.8,25.5l13.6,41.1l2.3,11.5"/>
	<path id="path3081-4-1-8" class="st8" d="M67.8,18.1L75.4,43L89,84.1l2.3,12.6"/>
	<path id="path3081-1-0-3" class="st8" d="M61.9,18.3l7.8,25.5l13.6,41.1l2.3,11.5"/>
	<path id="path3108-0-1" class="st8" d="M76.6,45.7l8.9,2.4l6.8-14.4L81,31.7l-5.5,11.7"/>
	<path id="path3110-8-2" class="st8" d="M79.8,32.8L74,33.4"/>
	<path id="path3114-0-9" class="st8" d="M85.1,48.2l-3.3,4.5l-2.3,0.1"/>
	<path id="path3116-4-8" class="st8" d="M46.1-6.2l1-24.1l10-29l69.1-58.7"/>
	<path id="path3143-7-1" class="st8" d="M61.5-7.1l0.2-6l5.1,0.2l0.2-4.5h-4.9l0.2-4.5l5.1,0.2l0.2-4.1h-5.3l0.4-3.7l5.3,0.2
		l1.9-4.3h-5.3l1.8-4.1l4.7,0.2l1-2.9l-4.7-0.2l1.4-3.5h5.1l1.2-3.3l-5.3-0.2l1.9-4.7l4.5,0.4l1.4-3.5l-5.3-0.4l1.8-3.5l5.1,0.4
		l3.7-3.1l-5.6-0.2l4.7-3.7h6.4l3.3-2.5h-6l3.7-3.1l5.5,0.2l3.1-2.5l-6.4-0.4l4.1-2.9l5.5,0.2l2.9-2.5l-6,0.2l4.5-3.1l4.9,0.2
		l3.3-2.9h-6l4.7-3.7l5.8-0.4l3.1-2.9h-5.5l4.7-3.5l5.3,0.4l2.9-2.3l-5.8-0.2l4.1-3.3l2.3-0.2"/>
	<path id="path3913-6-6" class="st8" d="M75.2-51.4v14.6l11.1-1.8l0.3-15.6l-9.2,0.2"/>
	<path id="path3917-1-2" class="st8" d="M67-37l7.8,0.2"/>
	<path id="path3919-6-7" class="st8" d="M90.7,103.3h-5.4"/>
	<path id="path3921-1-3" class="st8" d="M89.5,48.7h5.4L91.8,51l-4.7-0.2"/>
	<path id="path3927-49-8" class="st8" d="M55.8,24.6h2.5"/>
	<path id="path3927-7-6-0" class="st8" d="M57.7,29.7h2.5"/>
	<path id="path3927-6-4-1" class="st8" d="M58.9,34.1h2.5"/>
	<path id="path3927-0-2-0" class="st8" d="M60.2,38.4h2.5"/>
	<path id="path3927-2-8-9" class="st8" d="M61.6,42.6h2.5"/>
	<path id="path3927-8-4-2" class="st8" d="M62.9,47.3h2.5"/>
	<path id="path3927-4-4-4" class="st8" d="M64.7,51.8h2.5"/>
	<path id="path3927-48-9-1" class="st8" d="M66.2,56.4h2.5"/>
	<path id="path3927-01-8-5" class="st8" d="M67.8,61.1h2.5"/>
	<path id="path3927-5-1-1" class="st8" d="M69.2,65.6h2.5"/>
	<path id="path3927-1-0-9" class="st8" d="M70.5,70.2h2.5"/>
	<path id="path3927-11-3-9" class="st8" d="M72.1,74.9h2.5"/>
	<path id="path3927-51-7-3" class="st8" d="M73.8,79.6h2.5"/>
	<path id="path3927-70-4-3" class="st8" d="M75,83.6h2.5"/>
	<path id="path3927-85-3-7" class="st8" d="M76.2,87.9h2.5"/>
	<path id="path3927-3-4-8" class="st8" d="M77.1,92.6h2.5"/>
	<path id="path3927-00-8-8" class="st8" d="M60.2,13.5h2.5"/>
	<path id="path3927-14-1-1" class="st8" d="M58.3,0.1h2.5"/>
	<path id="path4059-2-0" class="st9" d="M47.3-88.6c0.7,1.2-1,5.1,0,6c0.9,0.9,4.7-1.7,3.6-1.1c-3.5,1.7-4.1,3.7-4.1,9.1"/>
	<path id="path4061-8-4" class="st9" d="M34.1-15.7c-1-3.5,4.7-3.1,1.1-4.1c-0.7-0.2-2.2,0-2.8-0.5c-1.3-1.3,5.2,0.4,5.2-1.4
		c0-0.3-3.6-0.6-4.1-0.8c-0.3-0.1,0-3.7,0-4.1"/>
	<path id="path4063-3-7" class="st9" d="M-3.1-10.7c0.5-0.7,3.2,0.6,3.6,0.3C1.2-11.2-3-12.2-2-12.4c8-1.6,3-0.3,3-7.7"/>
	<path id="path4065-9-9" class="st9" d="M-42.4-55c0.6,1-0.5,2.8,0,3.8c0.6,1.2,5.1-1,4.1,0c-0.4,0.4-2.8,0.9-2.8,1.6
		c0,0.1,3.1-0.2,3.3,0c0,0-1.5,1.8-1.7,1.9c-0.7,0.3-2.5-0.5-3,0c-0.9,0.9,1.6,2.2-0.6,3.3"/>
	<path id="path4067-9-9" class="st9" d="M-108.8-67.1c-0.5,4.7,0.2,2.7,3,4.1c0.5,0.3-3.5,1.3-3.6,1.4c-0.4,0.4,2.6,0.1,2.8,0.3
		c1.1,1.1-2.7,1.7-3,2.5c-0.2,0.5,1.7,0.3,1.4,0.5c-2.2,1.4-2.5,1.1-2.5,4.1"/>
	<path id="path4069-9-0" class="st9" d="M-101.3-52c0,0.9,0,1.8,0,2.7c0,0.1-0.1,2.7,0,2.7c1,0.3,4.1-0.5,3-0.5
		c-1.3,0-5.2,1.1-3.9,1.1c5.1,0,0.8,1.1,0.8,6.9"/>
	<path id="path4071-6-9" class="st9" d="M-44.6,2.7c-3.2,5.8,3.6,4.1,3.6,4.9c0,0.8-4.1,1.4-4.7,1.9c-0.7,0.7-0.6,4.1-0.8,5.2"/>
	<path id="path4073-1-4" class="st9" d="M-28.7,17.8c0.7,1.1-0.6,3.2,0,4.4c0.5,1.1,3.1-0.2,3.3,0c2.1,2.1-7,1.8-4.1,7.4"/>
	<path id="path4075-7-7" class="st9" d="M45.1,88c5.6-0.6,2.8-0.5-0.6-2.2c-0.7-0.4,4.1-1.6,4.1-1.6c0-0.2-3,0.3-3.3,0
		c-1-1-0.3-5.5-0.3-6.9"/>
	<path id="path4077-3-6" class="st9" d="M53.3,73.7c0.5,0.9-0.7,3.7,0,4.4c1.4,1.4,5.2-1.7,2.2,2.5c-1.4,2-1.4,2.7-1.4,5.2"/>
	<path id="path4079-9-1" class="st9" d="M21.1,44.2c0.7,0.9-0.8,4.1,0,4.9c0.4,0.4,4.4-0.4,4.4-0.3c0,0-3.2,1.3-3.6,1.4
		c-0.6,0.2-1.7,1.1-1.7,0.5c0-0.2,4-2.3,4.4-1.9c0.1,0.1-2.7,6.3-3,6.9"/>
	<path id="path4081-8-5" class="st9" d="M-15.2,62.9c0.1,5.9,1.3,2.5,6.3,2.5c2,0-3.2,2.4-5,3.3c-1.7,0.9-1,6.1-1.7,7.7"/>
	<path id="path4085-4-2" class="st9" d="M42.9,118.2c0.3,1-0.3,2.3,0,3.3c0.2,0.5,4.4-0.3,5,0c0.3,0.2-6.1,1.9-6.1,2.2
		c0,1.3,4.8-0.9,3.9,0c-2.9,2.9-4.4,2.8-4.4,8.2"/>
	<path id="path4087-0-7" class="st9" d="M72.6,127c-2-2.8,3.8-3,3.6-3.6c-0.6-1.7-4.7-0.3-5.2-1.9c-0.5-1.6,3.6-2.2,3.6-2.2
		c-0.8,0-1.9,0.6-1.9-0.8c0-1.7,0.2-3.4-0.6-4.9"/>
	<path id="path4089-6-2" class="st9" d="M-145.1,113.3c0.9,0.2-0.8,3.2,0.3,3.6c1.6,0.5,6.6,0,5,0c-6.9,0,1,2.3-0.8,2.7
		c-4.6,1.1-5.8,1-5,6"/>
	<path id="path4091-3-1" class="st9" d="M-133.8,96.8c-0.8-5,11.4-3.3,0.6-3.3c-1.6,0,4.7,0.2,4.7-1.4c0-1.6-4.4,1.6-4.4-5.8"/>
	<path id="path4093-4-9" class="st9" d="M-151.4,52.2c0.8,0.3-0.5,2,0,2.5c0.2,0.2,2,0,2.2,0c0.7,0-1.7,2.8-1.7,7.4"/>
</g>
</svg>
