<?xml version="1.0" encoding="utf-8"?>
<!-- Generator: Adobe Illustrator 25.0.0, SVG Export Plug-In . SVG Version: 6.00 Build 0)  -->
<svg version="1.1" id="Layer_1" xmlns="http://www.w3.org/2000/svg" xmlns:xlink="http://www.w3.org/1999/xlink" x="0px" y="0px"
	 viewBox="0 0 283.5 283.5" style="enable-background:new 0 0 283.5 283.5;" xml:space="preserve">
<style type="text/css">
	.st0{opacity:0.99;}
	.st1{fill:#050203;}
	.st2{fill:#87AD50;}
	.st3{fill:#C3895F;}
	.st4{fill:#BBA78E;}
	.st5{fill:#FFFFFF;}
	.st6{fill:#EE663C;}
	.st7{fill:none;stroke:#010101;stroke-width:1.7778;stroke-linecap:round;stroke-linejoin:round;stroke-miterlimit:4.1;}
	.st8{fill:none;stroke:#010101;stroke-width:1.7778;}
	.st9{fill:none;stroke:#010101;stroke-width:1.7778;stroke-linecap:round;stroke-linejoin:round;}
</style>
<g id="g8224" transform="translate(158.90761,108.5854)">
	<g class="st0">
		<path class="st1" d="M-17.3,174.9c-46.8,0-93.7,0-140.5,0c-0.9,0-1.1-0.2-1.1-1.1c0-93.8,0-187.5,0-281.3c0-0.9,0.2-1.1,1.1-1.1
			c93.8,0,187.5,0,281.3,0c0.9,0,1.1,0.2,1.1,1.1c0,93.8,0,187.5,0,281.3c0,0.9-0.2,1.1-1.1,1.1C76.6,174.9,29.6,174.9-17.3,174.9z"
			/>
		<path class="st2" d="M122.1-105c0,0.5,0,1,0,1.5c0,41.8,0,83.7,0,125.5c-0.4,0.8-1.2,0.8-1.9,0.8c-4.9,0.3-9.7-0.2-14.6-0.8
			c-3.7-0.5-7.5-0.9-11.3-1.1c-3.6-0.1-7.1,0.4-10.4,1.8c-2.5,1.1-5.2,1.5-7.9,1.8c-4.9,0.6-9.7,1.6-14.5,2.6
			c-2.5,0.5-5.1,0.1-7.6-0.2c-3.1-0.4-6.2-1-9.4-1.1c-3.9-0.1-7.4,1-10.3,3.6c-1.3,1.1-2.6,2-4.1,2.7c-2,1-3.6,2.6-5,4.2
			c-4.2,4.8-8,9.9-11.6,15.2c-3,4.3-6.2,8.7-9.5,12.8c-3.5,4.3-7.5,7.9-12.5,10.4c-2.8,1.4-5,3.6-7,5.9c-1.7,2-3.6,3.7-5.3,5.7
			c-4,4.6-7.8,9.5-10.8,14.9c-1.9,3.3-2.4,6.9-2.6,10.5c-0.2,3.2-0.1,6.4,0,9.5c0.1,3.5,0.5,6.9,0.8,10.3c0.3,3.6,0.7,7.3,1,10.9
			c0.5,4.4,0.8,8.8,1.1,13.2c0.2,4,0.7,7.9,0.1,11.9c-0.2,1.2-0.1,2.4-0.3,3.6c-0.1,0.5-0.2,1-0.8,1.2c-0.4,0-0.8,0-1.2,0
			c-40.5,0-81.1,0-121.6,0c-1.2,0-1.5-0.3-1.5-1.5c0-91,0-182.1,0-273.1c0-0.4,0-0.9,0-1.3c0.7-0.3,1,0.2,1.4,0.6
			c2.1,2.3,4.2,4.6,6.3,6.9c1.1,1.3,2.3,2.5,3.4,3.7c4.4,4.7,8.7,9.5,13.1,14.2c3.1,3.4,6.3,6.8,9.4,10.2c3.9,4.3,7.9,8.5,11.7,12.8
			c0.7,0.7,1.4,1.3,2.3,1.9c7.7,5.2,15.4,10.6,23,15.9c10.5,7.2,21,14.5,31.5,21.7c1.2,0.8,2.5,1.7,3.7,2.6c0.7,0.5,1.1,1.1,1,2
			c-0.1,1.2,0.5,2.1,1.5,2.8c2.3,1.8,4.8,3.1,7.8,3.2c3.1,0.1,5.7-1.1,8-2.9c0.7-0.6,1.4-0.9,2.3-0.9c7.3,0,14.6-0.2,22,0.1
			c4.5,0.1,9,0.1,13.4,0.2c1,0,1.8,0.2,2.6,0.9c2.2,1.9,4.7,3.1,7.6,2.9C19-5,21.7-6.5,23.8-9.1c0.3-0.3,0.4-0.7,0.4-1.1
			c0-0.2,0.1-0.5,0-0.7c-0.6-4.4,1-8.4,2.5-12.4c2.4-6.3,4.7-12.6,6.9-18.9c0.3-1,0.8-1.9,1.1-2.9c0.4-1.2,1.1-1.7,2.4-1.6
			c4.2,0,8.3,0,12.5,0c2.3,0,4.6-0.1,6.8,0c1.5,0.1,2.6-0.5,3.6-1.4c2.9-2.9,6-5.7,9-8.5c5-4.6,9.9-9.3,15-13.9c2.7-2.5,5.3-5,8-7.5
			c4.1-3.9,8.3-7.7,12.4-11.6c2.6-2.4,5.1-4.8,7.7-7.2c2.8-2.6,5.7-5.2,8.4-7.9C121.1-105,121.5-105.4,122.1-105z"/>
		<path class="st2" d="M122.1,44.7c0,0.4,0,0.9,0,1.3c0,41.7,0,83.4,0,125c0,1.2-0.3,1.5-1.5,1.5c-42.4,0-84.8,0-127.2,0
			c-0.4,0-0.9,0-1.3,0c-0.7-0.4-0.5-1-0.5-1.6c0-2.6,0.1-5.2,0.2-7.8c0.1-6.6,0.1-13.3,0-19.9c0-2.8-0.3-5.7-0.7-8.4
			c-0.4-2.3-1.4-4.2-2.5-6.2c-1.3-2.3-2.3-4.7-2.7-7.4c-0.4-2-0.1-3.8,0.9-5.6c2.7-5.2,5.7-10.3,9.4-15c5.9-7.7,13.1-14,21.8-18.4
			c2.4-1.2,4.1-3.1,5.4-5.5c1.9-3.4,3.1-7,4.2-10.6c0.9-2.9,1.9-5.7,3-8.6c1-2.6,2.8-4.4,5.2-5.8c3.8-2.2,7.8-4.3,11.3-7
			c0.9-0.7,2.1-1,3.3-1.2c3.8-0.8,7.7-1.1,11.6-1.2c3.5-0.1,7.1-0.4,10.6-0.2c4.2,0.2,8.3,0.1,12.5,0.3c3.9,0.1,7.9,0.2,11.8,0.5
			c6.1,0.3,12.2,0.7,18.2,1c1.6,0.1,3.3,0.1,4.9,0.2C120.9,44,121.7,44,122.1,44.7z"/>
		<path class="st3" d="M-137.2-106.2c0.5,0,1,0,1.5,0c77.4,0,154.8,0,232.2,0c0.5,0,1,0,1.5,0c0.3,0.6-0.1,1-0.5,1.3
			c-2.1,1.5-2.6,3.5-2.3,5.9c0.1,0.6,0.1,1.2-0.2,1.8c-0.2,0.5-0.6,0.9-1.2,0.8c-0.5-0.1-0.6-0.5-0.7-1c0-0.1,0-0.2,0-0.2
			c-0.1-0.6,0.1-1.5-0.7-1.7c-0.7-0.2-1.2,0.5-1.7,0.8c-2,1.3-2.6,3.1-2.4,5.3c0.1,1.1,0.2,2.2-0.8,3c-0.3,0.2-0.6,0.5-1.1,0.3
			c-0.4-0.2-0.5-0.5-0.6-0.9c-0.1-0.7,0.2-1.6-0.7-1.8c-0.8-0.2-1.2,0.6-1.8,0.9c-2,1.2-2.6,3-2.3,5.2c0.1,0.6,0,1.2,0,1.8
			c0,0.9-0.4,1.4-1.1,1.8c-0.8,0.5-1.4,0.2-1.6-0.7c-0.1-0.6,0.1-1.4-0.6-1.6c-0.8-0.3-1.1,0.5-1.6,0.9c-0.1,0-0.1,0.1-0.2,0.2
			c-1.7,1.3-2.5,3-2.2,5.1c0.1,1.1,0,2.3-1.1,3.1c-0.3,0.2-0.6,0.5-1.1,0.3c-0.4-0.2-0.5-0.5-0.6-1c0-0.5,0-0.9-0.1-1.4
			c-0.2-0.9-0.8-1.2-1.4-0.6c-1.5,1.3-3,2.6-2.6,4.9c0.1,0.6,0,1.2-0.1,1.8c-0.1,0.4-0.3,0.8-0.8,0.8c-0.4,0-0.6-0.3-0.7-0.7
			c-0.6-2.2-0.8-2.2-2.5-0.7c-1,1-1.5,2-1.4,3.4c0.1,0.9,0.1,1.7-0.1,2.6c0,0.4-0.2,0.7-0.6,0.7c-0.4,0-0.6-0.4-0.6-0.7
			c-0.1-0.7,0-1.3-0.1-2c0-0.4-0.1-0.8-0.5-1c-0.4-0.1-0.7,0.1-1,0.3c-1.4,1.1-2.4,2.4-2.1,4.3c0.1,0.3,0,0.6,0,0.9
			c0,0.6-0.2,1.2-1,1.2c-0.8,0-1-0.6-1-1.3c0-0.6,0-1.1,0-1.7c-0.1-1.1-0.4-1.5-1.5-1.5c-2.9,0-3.4-0.2-3.3,3c0,0.2,0,0.4,0,0.6
			c-0.1,0.9-0.5,1.3-1.4,1.3c-0.8,0-1.2-0.4-1.3-1.2c-0.1-0.8,0-1.6-0.1-2.4c-0.1-1.3-0.4-1.7-1.7-1.8c-3.5-0.1-3.4,0.3-3.3,3.1
			c0,0.4,0,0.7,0,1.1c-0.1,0.7-0.4,1.1-1.1,1.1c-0.6,0-1-0.4-1-1.1c-0.1-0.8,0-1.7-0.1-2.5c-0.1-1.3-0.4-1.6-1.7-1.5
			c-0.4,0-0.7,0-1.1,0c-1-0.1-1.8,0.3-1.9,1.5c0,0.5-0.3,0.8-0.8,0.9c-0.8,0.2-1.1,0.8-1.3,1.5c-0.7,1.7-1,3.5-0.9,5.4
			c0.1,1-0.1,1.8-1.4,2c-0.6,0.1-0.8,0.6-0.9,1.1c-0.4,1.6-1,3.2-1,4.9c0,0.5-0.1,1.1-0.6,1.3c-0.9,0.3-1.2,1.1-1.5,1.9
			c-0.2,0.6-0.4,1.2-1.1,1.3c-0.7,0.1-0.9-0.5-1.2-0.9c-2.3-3.5-4.3-7.2-6.6-10.8c-0.1-0.2-0.2-0.3-0.3-0.5c-0.6-0.9-1.2-0.9-1.8,0
			c-1.1,1.5-2.1,3-3.1,4.6c-0.4,0.6-0.8,1.2-1.2,1.8c-0.3,0.3-0.5,0.7-1,0.6c-0.5-0.4-0.6-0.9-0.6-1.4c0-3.5-0.1-6.9,0-10.4
			c0-0.7-0.1-1.3-0.6-1.9c-1.4-1.8-3-3.6-4.3-5.5c-2.4-3.6-6-5.9-9-8.8c-1-1-2.1-1.9-3.1-2.8c-0.4-0.4-0.9-0.8-1.4-1.1
			c-0.9-0.6-1.3-0.5-1.8,0.4c-0.7,1.3-1.4,2.6-2,3.9c-1.5,2.9-3.1,5.8-4.5,8.7c-0.4,0.9-0.7,1.7,0.1,2.6c0.4,0.4,0.3,1,0.3,1.6
			c0,2.1,0,4.2,0,6.3c0,0.9,0.4,1.6,1.1,2.2c2.7,2.5,5.5,4.9,8.2,7.4c0.8,0.8,1.7,1.5,2.5,2.3c0.8,0.8,1.7,0.9,2.7,0.5
			c3.3-1.3,6.6-2.5,9.8-3.6c0.8-0.3,1.6-1,2.5-0.2c0.4,0.6,0,1-0.3,1.4c-1,1.8-2.2,3.4-3.3,5.2C6-43.2,6-43,6.9-42
			c0.4,0.4,0.5,0.9,0.5,1.4c0.1,3.9,0.1,7.7,0,11.6c0,1.2-0.5,1.5-1.5,1.5c-1,0-1.4-0.4-1.5-1.6c-0.1-1.1,0-2.1,0-3.2
			c0-1.2-0.3-1.5-1.5-1.5c-1.1,0-2.2,0-3.3,0c-1.1,0-1.4,0.3-1.4,1.5c0,1.1,0,2.3,0,3.4c-0.1,1.2-0.5,1.5-1.8,1.5
			c-1.3,0-1.7-0.3-1.8-1.5c-0.1-1.2,0-2.4-0.1-3.7c-0.1-1.2-0.4-1.7-1.6-1.7c-1.7,0.1-2.6-0.7-3.4-2c-0.7-1.1-1.6-2.1-2.3-3.3
			c-0.7-1-1.5-1.4-2.8-1.4c-4.5,0-9,0-13.5,0c-0.5,0-1,0-1.5-0.1c-0.9-0.2-1.1-0.7-0.4-1.3c0.7-0.6,0.7-1.2,0.2-2
			c-3.1-4.5-6.2-9-9.3-13.5c-0.6-0.8-1.1-1.4-2.2-0.7c-0.5,0.3-1-0.1-1-0.7c0.2-2.8-1.8-4.6-2.9-6.8c-1.4-2.6-3.4-4.7-5.4-6.8
			c-2.1-2.1-4.2-4.2-6.3-6.3c-1.2-1.2-1.6-1.1-2.7,0.1c-2.5,2.8-4.9,5.6-7.4,8.4c-0.9,1-0.9,2.1-0.7,3.2c0.2,1.9,0.2,3.9,0.2,5.8
			c0,1.2,0.4,2.2,1.1,3c2.2,2.4,4.4,4.9,6.6,7.4c1.2,1.3,2.3,2.5,3.5,3.9c0.9,1.1,1.3,1.2,2.7,0.8c1.2-0.4,2.4-1,3.7-1.4
			c0.5-0.1,1-0.3,1.3,0.2c0.3,0.5,0,0.9-0.2,1.3c-0.2,0.3-0.4,0.7-0.6,1c-0.5,0.8-0.5,1.6,0.2,2.3c0.5,0.5,0.7,1.2,0.7,1.9
			c0,2.6,0,5.1,0,7.7c0,0.5,0.1,1.2-0.5,1.5c-0.6,0.3-1.1-0.2-1.6-0.4c-1.4-0.7-2-1.8-1.8-3.3c0.1-1.1,0-2.1,0-3.2
			c0-0.9-0.3-1.7-1.1-2.2c-1-0.7-2-1.4-3.1-2c-1-0.6-1.7-0.3-1.8,0.9c-0.1,0.9,0,1.8-0.1,2.7c-0.1,1-0.7,1.3-1.6,0.9
			c-1.2-0.6-1.9-1.4-1.8-2.8c0.1-1.4,0-2.8,0-4.1c0-0.8-0.3-1.4-0.9-1.9c-1.1-0.9-2.3-1.7-3.4-2.5c-0.4-0.3-0.9-0.7-1.4-0.4
			c-0.5,0.3-0.4,0.9-0.4,1.4c0,0.9,0,1.8-0.1,2.7c-0.1,1-0.7,1.3-1.6,0.9c-1.3-0.7-2.2-1.6-2.1-3.2c0.1-1.5,0-3,0-4.5
			c0-0.8-0.2-1.4-0.9-1.8c-1.3-0.9-2.5-1.8-3.9-2.7c-1.3-0.8-1.8-0.5-1.9,1.1c0,1.1,0,2.2,0,3.3c-0.1,1.2-0.7,1.5-1.7,0.9
			c-1.4-0.8-2.3-1.8-2.2-3.6c0.1-4-0.3-8.1-0.2-12.1c0-0.9,0-1.8,0.8-2.5c0.4-0.4,0.4-0.9,0.3-1.4c-0.5-2.5-0.9-5-1.3-7.4
			c-0.2-1-0.7-1.4-1.7-1.5c-4-0.4-7.9-0.1-11.9-0.2c-1.1,0-2.3,0-3.4,0c-1.1,0.1-1.6,0.5-1.4,1.7c0.2,1.3,0,2.7,0.3,4
			c0.1,0.4,0,0.8-0.4,1c-0.5,0.3-0.8,0-1.2-0.2c-1-0.7-2-1.5-3-2.3c-0.4-0.3-0.9-0.6-1.4-0.3c-0.5,0.3-0.5,0.8-0.5,1.3
			c0,0.7,0,1.3-0.1,2c-0.2,0.9-0.7,1.1-1.4,0.6c-0.6-0.5-1.3-1-1.9-1.6c-0.5-0.5-0.8-1.1-0.8-1.8c0-1.5,0-3.1,0-4.6
			c0-1-0.3-1.9-1-2.7c-0.6-0.7-1.1-1.5-1.7-2.1c-0.3-0.3-0.6-0.7-1.1-0.5c-0.5,0.2-0.5,0.6-0.5,1.1c0,0.7,0,1.5-0.1,2.2
			c0,0.4-0.1,0.8-0.5,1c-0.4,0.2-0.8,0-1.1-0.3c-0.9-0.7-1.4-1.5-1.4-2.7c0.1-1.2,0-2.4,0-3.5c0-0.9-0.2-1.7-0.8-2.4
			c-1.1-1.3-2.1-2.6-3.2-3.9c-0.3-0.4-0.7-0.9-1.3-0.6c-0.5,0.2-0.4,0.8-0.4,1.3c0,0.8,0,1.7,0,2.5c0,0.4-0.1,0.9-0.6,1.1
			c-0.5,0.2-0.9,0-1.3-0.3c-0.9-0.7-1.4-1.6-1.4-2.8c0.1-1.3,0-2.7,0-4c0-1-0.2-1.9-0.8-2.7c-0.7-1-1.4-2-2-3
			c-0.2-0.3-0.5-0.7-0.9-0.5c-0.5,0.1-0.5,0.6-0.5,1c-0.1,0.9,0,1.8-0.1,2.7c0,0.4-0.1,0.9-0.6,1.1c-0.5,0.2-0.8,0-1.2-0.3
			c-1.6-1.1-2.4-2.7-2.3-4.6C-137.7-105.3-137.7-105.9-137.2-106.2z"/>
		<path class="st4" d="M122.1,24.4c0,5.9,0,11.8,0,17.7c-0.3,0.5-0.8,0.5-1.2,0.5c-2.9,0.1-5.7-0.2-8.6-0.3
			c-1.7-0.1-3.4-0.2-5.1-0.3c-4-0.2-8.1-0.4-12.1-0.6c-4.9-0.2-9.9-0.3-14.8-0.5c-5.2-0.2-10.4-0.3-15.6-0.1
			c-5.1,0.1-10.3,0.3-15.3,1.6c-1,0.2-2,0.5-2.8,1.2c-3.5,2.6-7.2,4.8-11,6.8c-3.8,2-5.7,5.2-7,9.1c-1.7,4.9-3.1,9.9-5.2,14.7
			c-1.4,3.1-3.4,5.6-6.6,7.3C8.5,85.6,1.7,91.5-4,98.8c-3.6,4.6-6.6,9.7-9.5,14.7c-2.6,4.5-2.1,8.7-0.1,13.1
			c0.7,1.4,1.3,2.9,2.1,4.2c1.1,1.9,1.5,4,1.7,6.1c0.8,8.2,0.6,16.3,0.4,24.5c0,3.1-0.1,6.3-0.2,9.4c0,0.6,0.1,1.4-0.8,1.6
			c-5.8,0-11.6,0-17.4,0c-0.7,0-1.5,0-2.2,0c-0.5-0.4-0.4-1-0.3-1.5c0.4-3.1,0.5-6.2,0.4-9.3c-0.1-4.4-0.5-8.8-0.9-13.2
			c-0.4-4.6-0.9-9.2-1.3-13.9c-0.3-3-0.6-6-0.8-9c-0.4-6.5-0.8-13,0.4-19.4c0.3-1.8,1.3-3.4,2.1-5c2.4-4.4,5.5-8.4,8.8-12.3
			c2.7-3.2,5.6-6.1,8.6-9.1c1.9-2,4.1-3.7,6.6-4.9c4.7-2.4,8.2-6.1,11.5-10.1c5.7-7,10.5-14.6,16.1-21.7c2-2.6,4.2-5,6.4-7.4
			c0.9-0.9,1.9-1.6,3-2.2c1.8-1,3.5-2.2,5.1-3.5c3.2-2.6,7-3,10.9-2.6c4.2,0.4,8.3,1.4,12.5,1.3c1.7,0,3.3-0.2,4.9-0.6
			c4.7-1.3,9.5-1.7,14.3-2.4c2.5-0.4,4.9-1.1,7.2-2C89,22.2,92.5,22,96,22.3c4.2,0.3,8.4,0.8,12.5,1.3c2.3,0.3,4.6,0.4,6.9,0.7
			c1.9,0.2,3.7-0.2,5.5-0.2C121.4,24,121.9,23.9,122.1,24.4z"/>
		<path class="st5" d="M-137.2-106.2c-0.2,1.1,0.3,2.2,0.2,3.3c0,0.5,0.4,0.7,0.7,1c0.6,0.6,1.2,1.3,2.1,1.9c0-1.5,0-2.9,0-4.3
			c0-0.7,0.2-1.2,1-1.3c0.7-0.2,1.1,0.2,1.4,0.7c0.4,0.6,0.7,1.3,1.1,1.7c2.5,2.6,1.9,5.8,1.9,9c0,1.2,0.8,2.2,2.1,2.6
			c0-1.4,0-2.8,0-4.1c0-0.5,0.1-1.1,0.6-1.3c0.6-0.2,1.1-0.1,1.5,0.4c1.5,1.8,3,3.6,4.4,5.4c0.3,0.4,0.4,0.8,0.4,1.3
			c0,1.2,0.1,2.5,0,3.7c-0.2,1.6,0.6,2.5,1.9,3.5c0-1.3,0.1-2.5,0-3.6c0-0.8,0.3-1.3,0.9-1.5c0.6-0.2,1.1,0.1,1.5,0.7
			c0.7,1,1.5,1.9,2.3,2.8c0.5,0.6,0.8,1.3,0.8,2.1c-0.1,1.7,0,3.3,0,5c0,0.8,0.2,1.4,0.8,1.8c0.8,0.5,1.3,1.2,2.1,1.8
			c0.3-1,0.1-2,0.1-2.9c0-0.8,0.1-1.5,0.8-1.9c0.7-0.4,1.4,0.2,1.9,0.6c1.3,0.9,2.6,1.9,4.2,3.2c-0.7-1.8-0.2-3.4-0.6-4.9
			c-0.3-1.4-0.1-2.6,2-2.5c4.2,0.1,8.3,0,12.5,0c1.3,0,2.6,0.1,3.8,0.2c0.9,0.1,1,0.9,1.1,1.4c0.5,2.7,0.9,5.5,1.4,8.2
			c0.1,0.8,0.3,1.7-0.9,2.1c-0.4,0.1-0.3,0.5-0.3,0.8c0,2.6-0.2,5.3,0,7.9c0.2,2,0.2,4,0.2,6c0,0.7,0.2,1.1,0.9,1.5
			c0.6,0.4,1.1,0.9,2,1.3c0-1.7,0-3.3,0-4.8c0-0.6,0-1.2,0.6-1.5c0.7-0.4,1.2-0.1,1.7,0.3c1.5,1.1,3.1,2.1,4.7,3.2
			c0.5,0.4,0.8,0.9,0.8,1.6c-0.1,1.5,0.2,3-0.1,4.5c-0.3,2.1,0.9,3,2.6,3.7c0-1.5,0-3,0-4.5c0-1.3,0.9-1.8,1.9-1.1
			c1.6,1.1,3.2,2.3,4.8,3.5c0.5,0.4,0.6,0.9,0.6,1.6c0,1.4,0,2.8,0,4.3c0,2,0.3,2.3,2.4,3c0-1.3,0-2.5,0-3.8c0-0.6,0.1-1.1,0.7-1.5
			c0.6-0.4,1-0.2,1.6,0.2c1.2,0.9,2.5,1.6,3.7,2.4c0.8,0.5,1.2,1.2,1.1,2.2c-0.1,1.3,0.1,2.7,0,4c-0.1,1.1,0.3,1.7,1.2,2.2
			c0.5,0.3,1,0.6,1.7,1c0-3.3,0-6.4,0-9.5c0-0.5-0.3-0.8-0.6-1.1c-0.9-0.8-1-1.7-0.3-2.7c0.5-0.7,0.9-1.4,1.4-2.2
			c-1.7,0.3-3.1,1.2-4.7,1.7c-1.9,0.6-2.1,0.7-3.2-0.9c-0.9-1.2-2-2.2-2.9-3.3c-2.5-3-5.2-5.9-7.8-8.8c-0.4-0.5-0.6-1-0.6-1.6
			c0.1-2.8-0.1-5.6-0.3-8.3c0-0.6,0.1-1.1,0.6-1.6c2.5-2.8,5.1-5.7,7.6-8.6c1.9-2.1,1.9-2.1,3.9-0.1c2.4,2.4,4.8,4.9,7.3,7.3
			c2.9,2.8,4.7,6.5,6.8,9.8c0.6,1,0.2,2.2,0.3,3.3c0.6-0.3,0.9-1.2,1.7-0.9c0.7,0.2,1,0.9,1.4,1.5c0.2,0.3,0.4,0.5,0.6,0.7
			c3,4.3,6,8.7,9,13.1c0.9,1.3,0.8,1.7-1.1,2.8c0.5,0,0.8,0.1,1.1,0.1c4.8,0,9.6,0.1,14.4,0c1.7,0,2.7,0.5,3.5,1.9
			c0.9,1.4,2,2.7,2.9,4.1c0.4,0.6,0.8,0.8,1.4,0.7c0.4,0,0.8,0,1.2,0c1.3,0,1.8,0.5,1.8,1.9c0,1.4,0,2.8,0,4.1
			c0,0.7,0.2,0.9,0.9,0.9c1.8,0,1.8,0.1,1.8-1.7c0-1.1,0-2.2,0-3.3c0-0.9,0.3-1.4,1.3-1.4c1.5,0,3,0,4.5,0c1,0,1.6,0.3,1.6,1.5
			c-0.1,1.3,0,2.7,0,4C5-28.1,5.3-28,6-28c0.7,0,0.9-0.2,0.9-0.9c0-3.9,0-7.9,0-11.8c0-0.5-0.1-0.8-0.7-1c-0.8-0.3-1.2-0.9-0.6-1.8
			c1.4-2.1,2.7-4.3,4.1-6.5c0.2-0.3,0.4-0.6,0.5-0.9l0,0c1.7-2.6,3.4-5.1,5.2-7.7c0.7-1.1,1.5-1.1,2.2,0c2.1,3.4,4.2,6.9,6.2,10.3
			c0.5,0.8,1.1,1.7,1.6,2.6c0.5-0.7,0.6-1.4,0.8-2.1c0.2-0.5,0.4-1.2,1-1.2c1.1-0.1,0.9-0.8,0.9-1.5c0-1.9,0.7-3.6,1.2-5.4
			c0.2-0.8,1-1.2,1.9-0.7c0.3-0.4,0.2-0.9,0.2-1.3c-0.2-2.3,0.3-4.4,1.1-6.5c0.3-0.8,0.8-1.2,1.4-1.1c0.7,0,0.5-0.3,0.5-0.7
			c0.1-1.6,0.3-1.7,1.9-1.8c0.7,0,1.4,0.1,2.1-0.2c0.8-0.3,1.6,0.5,1.7,1.5c0,0.9,0,1.8,0,2.7c0,0.4-0.4,1.2,0.6,1.2
			c1,0,0.5-0.8,0.5-1.2c0.1-0.7,0-1.5,0-2.2c0-1.4,0.4-1.9,1.9-1.9c0.9,0,1.7,0,2.6,0c1.1,0,1.6,0.5,1.7,1.7c0,1,0,2,0,3.1
			c0,0.7,0.4,0.7,0.9,0.7c0.5,0,0.8-0.1,0.8-0.7c0-0.9,0-1.7,0-2.6c0-1.1,0.5-1.6,1.7-1.7c0.9,0,1.9-0.1,2.8-0.1
			c1,0,1.4,0.7,1.4,1.6c0,0.9,0,1.7,0,2.6c0,0.3,0,0.6,0.5,0.6c0.5,0,0.4-0.3,0.5-0.6c0-0.2,0-0.3,0-0.5c-0.5-2.5,0.6-4.3,2.5-5.7
			c0.4-0.3,0.7-0.8,1.4-0.5c0.7,0.3,0.8,0.9,0.9,1.5c0,0.9,0,1.9,0.2,2.8c0-1.3,0-2.6,0-4c0-0.9,0.2-1.7,0.9-2.3
			c0.6-0.5,1.1-1.1,1.7-1.7c0.4-0.4,0.9-0.7,1.5-0.4c0.6,0.3,0.8,0.8,0.8,1.4c0,0.5,0,1,0,1.5c0.4,0,0.5-0.3,0.5-0.5
			c0-0.2,0-0.4,0-0.6c-0.6-2.9,0.6-5,2.8-6.7c0.5-0.4,0.9-0.7,1.4-0.5c0.6,0.2,0.9,0.8,0.9,1.4c0,0.8,0,1.6,0,2.5
			c1-0.7,1.9-1.3,1.7-2.6c-0.5-2.7,0.4-4.9,2.7-6.5c0.3-0.2,0.6-0.5,0.8-0.8c0.4-0.5,0.9-0.5,1.4-0.3c0.5,0.2,0.7,0.6,0.7,1.1
			c0,0.6,0,1.3,0,1.9c1.2-0.2,1.7-0.7,1.7-1.7c0-1.2,0.1-2.4,0-3.5c-0.1-1.1,0.1-1.9,1.1-2.6c0.9-0.6,1.7-1.5,2.6-2.1
			c1.1-0.8,2-0.4,2.2,0.9c0.1,0.7,0,1.3,0,2.1c1-0.6,1.6-1.2,1.4-2.4c-0.1-0.9,0-1.9,0-2.8c-0.1-1.1,0.2-2,1.1-2.5
			c1-0.7,1.7-1.7,2.8-2.3c0.9-0.5,1.4-0.2,1.8,0.7c0.4,0.9,0,1.8,0.3,2.7c0.6-0.3,0.9-0.7,0.9-1.4c0-1.3,0-2.7,0-4
			c0-0.7,0.2-1.2,0.8-1.6c0.9-0.7,1.7-1.7,2.5-2.5c1.1-0.9,2.3,0.2,3.4,0c0.7-0.1,1.6,0.2,1.6-1.1c0-0.3,0.4-0.6,0.9-0.6
			c0.5,0,0.8,0.3,0.9,0.7c0.1,0.3-0.2,0.7,0.2,0.9c0.8,0.9,0.8,2.3,0,3.2c-1.3,1.5-2.8,2.9-4.3,4.2c-1.2,1.1-2.8,0.5-3.1-1.1
			c0-0.2,0-0.5-0.1-0.7c0,0.5,0,1,0,1.4c0.5,2.5-0.9,4.2-2.7,5.6c-0.3,0.2-0.6,0.4-0.8,0.7c-0.7,0.6-1.4,1.1-2.3,0.7
			c-1-0.4-1.2-1.3-1.1-2.1c0,1,0.1,2.2,0.1,3.3c0,0.7-0.2,1.2-0.7,1.7c-1.1,1.1-2.1,2.1-3.2,3.2c-0.6,0.6-1.3,1.2-2.3,0.8
			c-0.9-0.4-1-1.2-1.1-2.1c0-0.2,0-0.3-0.1-0.5c0,1.2-0.1,2.5,0,3.7c0,1.2-0.4,2.1-1.3,2.8c-1,0.8-2,1.6-3.1,2.4
			c-1.3,0.9-2.3,0.6-3-0.9c0,0.2,0,0.4,0.1,0.6c0.3,2.1-0.2,3.9-2,5.2c-0.9,0.7-1.7,1.7-2.5,2.5c-0.6,0.5-1.2,0.8-1.9,0.4
			c-0.7-0.3-0.7-1-0.7-1.6c0-0.4,0-0.9,0-1.3c0,0.8-0.1,1.6,0.1,2.4c0.3,0.9,0,1.7-0.6,2.4c-0.6,0.7-1.3,1.3-2,2
			c-0.6,0.7-1.4,1.1-2.3,0.8c-0.9-0.4-0.7-1.2-0.7-2c0,0.5,0,0.9,0.1,1.4c0.5,1.4,0.3,2.5-0.8,3.5c-0.6,0.5-1.1,1.1-1.7,1.7
			c-0.4,0.4-0.9,0.7-1.6,0.7c-0.4,0-0.7,0.1-1,0.4c-1.6,1.5-3.5,0.8-5.3,0.7c-0.7-0.1-1-0.8-1.1-1.5c-0.1-0.6-0.1-1.2-0.1-1.9
			c-0.1,0.7,0,1.3-0.1,1.9c-0.1,1.1-0.6,1.7-1.7,1.9c-1.3,0.1-2.6,0.1-3.9,0c-1.1-0.1-1.7-0.8-1.8-2c-0.1-0.7,0.1-1.5-0.1-2.2
			c0,0-0.1,0-0.2-0.1c-0.1,0.8,0,1.6-0.1,2.4c-0.1,1.3-0.6,1.8-1.9,2c-1,0.1-2,0.1-2.9,0c-1.5-0.1-2.1-0.8-2.1-2.3
			c0-0.4,0-0.9,0-1.1c0.5,1.8-1.1,3-2.1,4.4c-0.4,0.5-0.7,1.1-0.6,1.7c0.3,3.1-1.4,5.5-2.7,8c-0.2,0.4-0.5,0.7-0.6,1.1
			c-0.3,2.5-1.3,4.7-2.7,6.7c-0.2,0.3-0.4,0.7-0.4,1.1c0.3,2.5-0.9,4.5-1.9,6.6c-0.7,1.3-1,2.7-1,4.2c0.1,1.5,0.1,3.1-0.3,4.7
			c0.7-3.6,2.3-6.8,3.4-10.1c1.3-3.8,2.7-7.5,4.1-11.3c0.1-0.4,0.3-0.7,0.4-1.1c0.5-1.4,1.4-1.9,2.9-1.9c6.1,0,12.1,0,18.2,0
			c3.4,0,3.5,0.1,5.9-2.3c2.7-2.6,5.5-5.2,8.3-7.7c4.1-3.8,8.2-7.6,12.3-11.4c2.5-2.3,5-4.6,7.4-6.9c4.4-4.1,8.7-8.1,13.1-12.2
			c2.8-2.6,5.6-5.3,8.4-7.9c2.8-2.6,5.5-5.2,8.3-7.7c0.5-0.5,1.1-0.7,1.7-1c0.6,0,0.9-0.6,1.3-1c0.4-0.4,0.8-0.7,1.4-0.7
			c0.5,0,0.7,0.2,1,0.5c0.3,0.4,0,0.6-0.1,1c-0.2,0.6-1,0.7-1,1.4c-0.3,0.2-0.7,0.3-1,0.6c-3.1,3-6.2,5.9-9.3,8.8
			c-3.5,3.3-7.1,6.6-10.6,9.9c-3.3,3.1-6.7,6.2-10,9.3c-3.5,3.3-7,6.5-10.5,9.8c-3.4,3.1-6.7,6.2-10,9.4c-3.5,3.3-7,6.5-10.5,9.8
			c-0.9,0.8-1.9,1.3-3.2,1.3c-6.6-0.1-13.2,0-19.8-0.1c-1.1,0-1.6,0.4-1.9,1.3c-1.3,3.5-2.6,7.1-3.8,10.6
			c-2.1,5.8-4.3,11.7-6.4,17.5c-0.1,0.4-0.2,0.8-0.2,1.1c0,1.8,0,3.6,0,5.4c0,0.5-0.1,1-0.4,1.4c-1.9,2.2-4.2,3.8-7.1,4.4
			c-3.9,0.9-7.1-0.5-10-3C6.9-7.8,6.6-8,6-8C-2.9-8-11.8-8.1-20.8-8.2c-3.2,0-6.4,0-9.6,0c-0.6,0-1.1,0.2-1.5,0.6
			c-4.4,3.8-9.7,4.2-14.6,1.4c-0.7-0.4-1.3-0.9-2-1.4c-1.2-0.8-2-1.8-1.8-3.4c0.1-0.6-0.1-0.9-0.7-1.3c-5.5-3.8-11-7.6-16.5-11.4
			c-7.2-4.9-14.4-9.8-21.6-14.8c-4.5-3.1-8.9-6.2-13.4-9.3c-2.6-1.8-5.3-3.6-7.9-5.4c-1.6-1.2-2.7-2.8-4-4.3
			c-1.1-1.3-2.4-2.5-3.5-3.8c-2.2-2.6-4.6-4.9-6.9-7.4c-3.6-3.9-7.2-7.8-10.8-11.7c-2.6-2.8-5.2-5.7-7.8-8.5c-3.7-4-7.3-7.9-11-11.9
			c-0.8-0.8-1.5-1.7-2.3-2.5c-0.2-0.9-0.9-1.4-1.5-2c-0.6-0.6-1.1-1.2-0.4-1.9c0.8-0.8,1.2,0,1.7,0.5c0.3,0.3,0.5,0.7,1,0.7
			c0.8,0.3,1.4,0.8,2.1,1.5c2.2,2.3,4.4,4.7,6.6,7.1c4.1,4.5,8.2,8.9,12.3,13.4c2.1,2.3,4.2,4.6,6.3,6.9c3.2,3.5,6.5,7.1,9.7,10.6
			c1.9,2.1,3.8,4.2,5.7,6.3c0.9,0.9,1.8,1.9,2.6,2.9c1.7,2.1,4.1,3.4,6.3,5c6.4,4.4,12.8,8.8,19.1,13.2
			c10.8,7.5,21.7,14.9,32.5,22.4c0.4,0.3,0.8,0.9,1.3,0.6c0.5-0.3,0.2-0.9,0.2-1.4c0-3.2,0-6.5,0-9.7c0-1-0.3-1.6-1.1-2.2
			c-1-0.6-1.9-1.3-2.8-1.9c-0.8-0.5-1.2-1.3-1.2-2.3c0-1.3,0-2.5,0-3.8c0-0.4,0-0.7-0.1-1.1c-0.1-0.3-0.2-0.7-0.6-0.6
			c-0.5,0-0.3,0.5-0.3,0.8c0,0.6,0,1.2-0.1,1.8c-0.2,1.7-1.6,2.5-3.1,1.6c-1.4-0.8-2.7-1.6-4-2.4c-0.9-0.5-1.3-1.2-1.3-2.2
			c0-1.5,0-3,0-4.5c0-0.4,0-0.8-0.2-1.2c-0.2-0.4-0.5-0.9-1-0.8c-0.5,0.1-0.3,0.7-0.3,1c0,0.6,0,1.3-0.1,1.9
			c-0.2,1.6-1.4,2.4-2.8,1.6c-1.7-1-3.3-2.1-4.8-3.4c-0.6-0.5-0.7-1.2-0.8-1.9c0-1.5,0-3.1,0-4.6c0-0.4,0-0.8-0.1-1.2
			c-0.3-0.6-0.8-1.2-1.5-1.1c-0.6,0.1-0.3,0.9-0.3,1.3c0,0.8,0,1.7,0,2.5c-0.1,1.6-1.5,2.4-2.8,1.6c-1.8-1.1-3.5-2.4-5.1-3.8
			c-0.5-0.4-0.6-1-0.6-1.6c0-1.3,0-2.7,0-4c0-0.4,0-0.7-0.1-1.1c-0.1-0.5-0.4-1-0.9-0.9c-0.5,0.1-0.2,0.7-0.3,1c0,0.7,0,1.4-0.1,2.1
			c-0.1,1.2-1.3,2-2.4,1.4c-2.1-1.1-4-2.4-5.8-3.8c-0.5-0.4-0.6-1.2-0.6-1.8c0-1.5,0-3.1,0-4.6c0-0.5,0-1-0.5-1.4
			c-0.4,0.7-0.2,1.4-0.2,2c-0.1,2-1.4,2.8-3.2,1.9c-1.5-0.8-2.8-1.7-4.3-2.5c-0.8-0.4-1.1-1.2-1.1-2.1c0-1.3,0-2.6,0-3.9
			c0-0.5,0.1-0.9-0.3-1.5c-0.4,0.6-0.2,1.1-0.2,1.7c0,1-0.2,1.9-1.2,2.4c-1.1,0.5-1.9-0.1-2.6-0.8c-1-1.1-2.2-2.1-3.3-3
			c-2-1.5-2.2-3.5-2-5.7c0.1-0.9,0.2-1.7,0.1-2.6c0,0.4,0,0.8,0,1.2c0,0.7-0.1,1.4-0.8,1.7c-0.7,0.3-1.4,0.1-2-0.3
			c-0.7-0.5-1.3-1.2-1.9-1.8c-3.3-3.3-2.8-2.1-2.8-6.9c0-1.1,0.3-2.4-0.9-3.3c-0.3,0.6-0.1,1.1-0.2,1.7c-0.1,0.8-0.4,1.4-1.1,1.8
			c-0.8,0.4-1.4,0.1-2.1-0.4c-1.3-1-2.5-2.3-3.8-3.4c-0.7-0.5-0.9-1.2-0.9-2.1c-0.1-1.7,0-3.5,0.2-4.7c0,0.5,0.2,1.5-0.9,2
			c-1.1,0.4-2-0.1-2.7-0.9c-1.3-1.3-2.6-2.6-3.9-3.9c-1.2-1.2-1.5-4.5-0.6-5.7c0,0,0-0.1,0-0.1c0.1-0.7-0.2-1.8,1-1.8
			c1.1,0,1.2,0.9,1.2,1.8C-137.4-106.3-137.2-106.2-137.2-106.2z"/>
		<path class="st4" d="M-139.5-106.2c0.1,1.3,0.2,2.7,0.3,4c0,0.5,0.3,1,0.7,1.3c1.4,1.4,2.8,2.8,4.2,4.2c0.6,0.6,1.3,0.9,2,0.6
			c0.6-0.3,0.8-1,0.7-1.7c0-0.6,0-1.3,0-2.1c0.7,0.4,0.7,0.9,0.7,1.5c0,1.8,0,3.7,0,5.5c0,0.8,0.3,1.3,0.9,1.8c1.2,1,2.3,2,3.5,3
			c0.5,0.4,0.9,0.9,1.6,0.6c0.8-0.3,0.9-1,0.9-1.7c0-0.9,0-1.9,0.1-2.9c0.8,1,2,1.6,2,3.1c0,1.5,0,2.9,0,4.4c0,0.8,0.2,1.4,0.7,1.9
			c1.2,1.1,2.3,2.3,3.4,3.4c0.5,0.5,1.1,0.9,1.8,0.6c0.7-0.3,0.7-1,0.7-1.6c0-0.8,0-1.7,0-2.7c0.7,0.4,0.7,0.9,0.7,1.5
			c0,1.7,0,3.5,0,5.2c0,0.8,0.2,1.4,0.8,1.9c1.6,1.5,3.1,3,4.7,4.5c0.5,0.5,1.1,0.8,1.7,0.5c0.6-0.3,0.9-0.9,0.9-1.6
			c0-1.1,0-2.2,0-3.4c1,0.4,1.7,0.8,1.7,2c-0.1,1.5,0,3.1,0,4.6c0,0.8,0.2,1.4,0.9,1.8c1.4,0.8,2.8,1.7,4.2,2.5
			c1.5,0.8,2.4,0.3,2.4-1.4c0-1,0-2,0-3.1c1.8,0.6,1.9,0.7,1.9,2.4c0,1.6,0,3.1,0,4.7c0,0.8,0.3,1.5,1,2c1.6,1,3.1,2,4.7,3
			c0.5,0.3,0.9,0.5,1.5,0.2c0.6-0.3,0.6-0.8,0.6-1.3c0-1.4,0-2.8,0-4.3c1.6,0.9,2.8,2,2.4,3.9c-0.1,0.4,0,0.8,0,1.2
			c0,3.4,0,3.4,2.7,5.3c0.8,0.6,1.6,1.1,2.4,1.7c0.6,0.4,1.2,0.7,1.9,0.4c0.6-0.3,0.6-0.9,0.6-1.5c0-1.4,0-2.8,0-4.3
			c0-0.6,0.1-0.8,0.7-0.4c0.6,0.5,1.3,0.9,2,1.4c0.4,0.3,0.3,0.7,0.3,1.1c0,1.8,0,3.5,0,5.3c0,0.9,0.3,1.6,1.1,2.2
			c1.3,0.8,2.5,1.8,3.7,2.6c0.5,0.3,1,0.8,1.7,0.4c0.7-0.4,0.8-1,0.8-1.7c0-1.3,0-2.5,0-4c0.8,0.6,1.5,1.1,2.2,1.6
			c0.4,0.3,0.4,0.7,0.4,1.2c0,1.8,0,3.5,0,5.3c0,0.8,0.3,1.3,0.9,1.6c1.4,0.9,2.8,1.8,4.3,2.6c1.1,0.6,2.1-0.1,2.1-1.4
			c0-1.2,0-2.4,0-3.7c1.5,0.5,2.4,1.3,2.2,2.9c-0.2,1.3,0,2.6,0,3.9c0,0.8,0.3,1.3,0.9,1.7c1.2,0.8,2.4,1.7,3.7,2.5
			c0.4,0.3,0.7,0.6,0.7,1.1c0,4.4,0,8.7,0,13.1c0,0.1-0.1,0.2-0.1,0.5c-2.7-1.9-5.3-3.7-8-5.5c-7.7-5.3-15.4-10.6-23.1-15.9
			c-7.6-5.3-15.3-10.5-22.9-15.8c-2.3-1.6-4.7-3.2-6.6-5.3c-3.8-4.3-7.7-8.5-11.5-12.7c-2.1-2.3-4.2-4.5-6.2-6.7
			c-3.9-4.2-7.8-8.4-11.6-12.6c-2.5-2.8-5.1-5.5-7.6-8.3c-2.5-2.8-5-5.6-7.6-8.3C-150.2-106.2-144.9-106.2-139.5-106.2z"/>
		<path class="st4" d="M119.6-106.2c-2.8,2.8-5.8,5.5-8.8,8.1c-1.2,1.1-2.4,2.3-3.6,3.4c-3,2.7-5.9,5.6-8.9,8.4
			c-3.6,3.3-7.1,6.6-10.7,9.9c-3.3,3.1-6.6,6.1-9.9,9.2c-3.6,3.3-7.1,6.6-10.7,9.9c-2.9,2.7-5.8,5.4-8.7,8.1c-0.5,0.5-1,0.5-1.6,0.5
			c-6.9,0-13.8,0-20.7,0c-1.9,0-2.1,0.1-2.7,1.8c-1.4,3.7-2.7,7.5-4.1,11.2c-1.4,3.9-2.9,7.8-4.5,11.7c0-2.7-0.2-5.5,0.1-8.1
			c0.1-1.1,1.1-2.3,1.6-3.4c0.8-1.6,1.3-3.2,1.1-5c-0.1-0.6,0.1-1,0.6-1.4c0.7-0.5,0.9-1.4,1.2-2.1c0.6-1.5,1.5-2.9,1.3-4.6
			c-0.1-0.7,0.7-0.7,0.9-1.2c1.1-2.6,2.9-4.9,2.4-7.9c-0.1-0.7,0.1-1.1,0.7-1.7c1.3-1.3,2.6-2.8,2.1-4.9c-0.1-0.3,0-0.5,0-0.8
			c0-0.3,0-0.6,0.4-0.6c0.5,0,0.5,0.3,0.5,0.6c0,0.9,0.1,1.9,0,2.8c-0.1,1.2,0.6,1.6,1.6,1.7c0.9,0.1,1.9,0,2.8,0
			c1,0,1.6-0.5,1.5-1.6c-0.1-0.9,0-1.7,0-2.6c0-0.5-0.1-0.9,0.7-1c0.7,0,0.7,0.4,0.7,0.9c0,0.9,0,1.8,0,2.7c0,1.1,0.6,1.5,1.5,1.6
			c1.1,0.1,2.3,0.1,3.4,0c0.9,0,1.5-0.5,1.5-1.5c-0.1-0.9,0-1.8,0-2.7c0-0.4,0.1-0.7,0.6-0.7c0.5,0,0.6,0.3,0.6,0.7
			c0,0.8,0,1.6,0,2.4c0,1.3,0.4,1.7,1.7,1.7c0.7,0,1.4,0,2.1,0c1.2,0.1,1.9-0.4,1.9-1.7c0.8,0.7,1.5,0.7,2.3-0.1
			c2.6-2.5,2.6-2.5,2.6-6.2c0-0.5-0.1-1,0.2-1.8c0,0.9,0,1.5,0,2.1c0,0.5,0.1,1,0.6,1.2c0.5,0.2,1,0.2,1.4-0.2
			c0.9-0.9,1.8-1.8,2.7-2.7c0.5-0.5,0.5-1.2,0.5-1.9c0-1.2,0-2.5,0.1-3.7c0.4,0.3,0.3,0.8,0.3,1.1c0,0.4,0,0.9,0,1.3
			c0,0.6,0.1,1.2,0.7,1.5c0.6,0.3,1-0.1,1.4-0.5c1.2-1.2,2.3-2.3,3.5-3.5c0.5-0.5,0.7-1.1,0.7-1.8c0-1.1,0-2.1,0-3.2
			c0-0.6,0.2-1.1,1-1.4c0,0.5,0,1,0,1.4c-0.1,0.6,0.3,1.1,0.7,1.4c0.5,0.3,1,0,1.4-0.3c1.2-0.8,2.2-1.7,3.3-2.6
			c0.6-0.5,1-1.2,0.9-2.1c0-1.3,0-2.7,0-4c0-0.3,0-0.7,0.2-1c0.2-0.2,0.4-0.4,0.7-0.4c0.4,0.1,0.2,0.4,0.2,0.7c0,0.6,0,1.3,0,1.9
			c0.1,1.2,1,1.6,1.9,0.9c1.4-1.3,2.7-2.7,4-4c0.3-0.3,0.2-0.6,0.2-1c0-1.3,0-2.6,0-3.9c0-0.7,0.2-1,1-1.2c0,0.7,0,1.4,0,2
			c0,0.6,0.3,1.1,0.9,1.4c0.6,0.3,1.1-0.1,1.5-0.4c0.5-0.4,0.9-0.8,1.4-1.2c1.6-1.2,2.5-2.6,2.2-4.7c-0.1-0.7,0-1.4,0-2.1
			c0-0.7,0.2-1.1,0.9-1.4c0.1,0.9,0.2,1.7,0.3,2.6c0.1,1.2,1.2,1.7,2.1,0.9c1.5-1.4,2.9-2.8,4.3-4.3c0.8-0.8,0.4-1.9,0.4-2.8
			C110-106.2,114.8-106.2,119.6-106.2z"/>
		<path class="st5" d="M122.1,24.4c-3.6,0.7-7.1,0.5-10.7,0.1c-2.2-0.3-4.4-0.5-6.6-0.7c-3.1-0.4-6.2-0.8-9.3-0.9
			c-3.7-0.2-7.4,0.1-10.8,1.7c-2.3,1.1-4.8,1.4-7.2,1.8c-4.7,0.7-9.5,1.2-14.1,2.5c-2.6,0.7-5.3,0.4-7.9,0.2
			c-3.9-0.3-7.7-1.4-11.6-1.3c-3.2,0.1-6.1,1.1-8.5,3.3c-1.3,1.3-3,2.2-4.6,3c-2.4,1.2-4,3.4-5.7,5.3C18.8,46.7,13.6,55,7.7,62.6
			c-2.3,3-4.8,5.9-7.5,8.5c-2.1,2-4.7,3.4-7.1,4.8c-1.8,1.1-3.5,2.3-5,3.8c-3.1,3.1-6.3,6.3-9.1,9.7c-3.8,4.6-7.5,9.3-10,14.7
			c-0.7,1.6-1,3.4-1.2,5.1c-0.4,3.5-0.3,7-0.2,10.5c0.1,3.9,0.4,7.8,0.9,11.7c0.2,2.1,0.3,4.1,0.5,6.2c0.3,2.8,0.6,5.6,0.9,8.4
			c0.1,1.1,0.2,2.2,0.2,3.3c0.4,5.7,1,11.5,0.7,17.3c-0.1,2-0.1,4.1-0.7,6c-0.7,1-1.6,1-2.4-0.1c0.7-3.8,0.8-7.6,0.7-11.4
			c-0.1-3.7-0.4-7.5-0.7-11.2c-0.3-3.4-0.6-6.7-0.9-10.1c-0.5-4.3-0.8-8.6-1.2-12.9c-0.2-2.6-0.4-5.1-0.5-7.7c-0.1-2.5,0-4.9,0-7.3
			c0-4.8,1.4-9.1,4-13.1c2.6-4,5.4-7.8,8.5-11.4c3.1-3.5,6.3-7,9.6-10.3c2-1.9,4.4-3.1,6.7-4.4c3.2-1.8,5.7-4.4,8.1-7.1
			c6.2-7,11.1-15,16.8-22.4c2.6-3.3,5.2-6.6,8.3-9.5c1.3-1.2,2.9-1.9,4.4-2.8c1.8-1,3.1-2.6,4.9-3.6c3.5-1.9,7.1-2.1,11-1.7
			c2.7,0.3,5.5,0.7,8.2,1.1c3.7,0.5,7.2-0.1,10.7-1c2.5-0.6,5-0.8,7.5-1.2c3.9-0.6,7.8-1,11.4-2.7c2.1-0.9,4.4-1.2,6.7-1.3
			c4.2-0.2,8.3,0.4,12.5,0.9c4,0.5,7.9,1.1,11.9,1c1.9,0,3.9,0.2,5.8-0.3c1.2-0.1,0.6,1,0.9,1.6C123.5,24.4,122.3,23.9,122.1,24.4z"
			/>
		<path class="st5" d="M-10.3,172.4c0.3-0.3,0.2-0.7,0.2-1.1c0-9,0.5-18.1,0.2-27.1c-0.1-3.6-0.1-7.3-1.1-10.8c-0.7-2.3-2-4.2-3-6.3
			c-1.2-2.5-2-5.1-2-8c0-1.6,0.5-3,1.2-4.4c2.5-4.8,5.3-9.4,8.4-13.8c3.1-4.3,6.8-8.2,10.8-11.7c4-3.6,8.4-6.4,13.1-8.9
			c2.6-1.4,4-3.7,5.2-6.3c1.9-4.2,3.1-8.7,4.7-13.1c0.5-1.5,1.1-3,1.7-4.5c1.2-3.2,3.6-5.1,6.4-6.7c3.7-2.1,7.3-4.1,10.7-6.6
			c1.5-1.1,3.4-1.4,5.2-1.7c3.7-0.6,7.4-0.8,11.2-1c5.4-0.3,10.8-0.2,16.3-0.1c1.9,0,3.9,0.1,5.9,0.2c4.5,0.2,8.9,0.2,13.4,0.5
			c3.2,0.2,6.3,0.3,9.5,0.5c4.8,0.3,9.7,0.7,14.5,0.7c0.4,0.2,0.9,0.4,0.8,1.1c-0.1,0.6,0,1.3-0.8,1.5c-3.4-0.3-6.9-0.3-10.3-0.5
			c-2.9-0.1-5.8-0.3-8.6-0.5c-3.3-0.2-6.6-0.3-9.9-0.5c-2-0.1-4,0-6-0.2c-3.7-0.4-7.4,0-11.1-0.3c-2.6-0.2-5.1-0.2-7.6-0.2
			c-4.6,0.1-9.3,0.2-13.9,0.7c-2,0.2-4.1,0.5-6.1,1.3c-1.6,0.6-2.6,1.9-4,2.7c-2.8,1.6-5.6,3.4-8.4,4.9c-2.9,1.5-4.5,4-5.6,7
			c-1.7,4.7-3,9.5-4.9,14.2c-1.1,2.6-2.3,5.2-4.4,7.2c-0.7,0.8-1.6,1.3-2.5,1.8c-4.9,2.5-9.4,5.6-13.5,9.2
			c-5.6,4.9-10,10.8-13.9,17.1c-1.4,2.3-2.6,4.7-3.9,7c-1.2,2.1-1.2,4.3-0.6,6.6c0.8,2.9,2.2,5.5,3.6,8.1c1.1,2,1.4,4.2,1.6,6.3
			c0.7,5,0.5,10.1,0.5,15.1c0,4.1,0.2,8.2-0.1,12.2c-0.2,2.8-0.1,5.6-0.2,8.3C-8.4,173.2-9.7,173.2-10.3,172.4z"/>
		<path class="st5" d="M-93.5-22.4c-0.7,1.3-0.7,1.3-1.8,0.4c-0.4,1.5-0.7,3.1-2.6,3.7c-0.8,0.2-1.4-0.1-2-0.2
			c-0.3-0.1-0.3-0.5-0.1-0.8c0.3-0.5,0-1.4,0.9-1.4c0.8,0,1.2-0.3,1.2-1c0-1.1,0.4-2.2,0.2-3.3c-0.3-1.5,0.5-2.9,1-4.5
			c0.6,1.1,1.2,2.1,1.7,3.1c0.2,0.4,0.3,0.6,0.7,0.2c0.1-0.1,0.1-0.1,0.2-0.1c2.1-1.1,2.9-0.6,2.9,1.8c0,0.9,0,1.9,0,2.8
			c0,0.6,0.2,0.8,0.9,0.7c1-0.2,2-0.1,3.1-0.1c1.1,0,0.7,0.9,0.8,1.5c0.1,0.6,0,0.9-0.8,0.9c-1.2,0-2.3,0.2-3.5,0.2
			c-2.1,0-2.6-0.5-2.8-2.6C-93.5-21.5-93.5-21.8-93.5-22.4z"/>
		<path class="st5" d="M-120,155.7c-0.3-1.8-0.5-3.5-0.4-5.3c0-0.5,0.1-0.9,0.6-1.1c0.6-0.2,1.4-0.5,1.8-0.1
			c0.4,0.3,0.3,1.1,0.4,1.7c0.1,0.5-0.1,0.9,0.1,1.4c2.4-0.5,4.8,0.1,7.1,0.6c1,0.2,2,0.6,3,0.8c0.6,0.1,0.8,0.4,0.6,1
			c-0.4,1.6-0.4,1.6-2.1,1.1c-1.9-0.5-3.9-1-5.8-1.3c-1.1-0.2-2.6,0.9-3.2,2.3c-0.5,1.3-1.1,1.6-2.4,1.3c-0.2,0-0.4-0.1-0.6-0.1
			c-1.6,0.5-1.8-0.9-2.4-1.8c-0.1-0.2-0.2-0.3,0-0.5c0.4-0.3,0.8-0.5,1.2-0.3C-121.3,155.8-120.7,155.7-120,155.7z"/>
		<path class="st5" d="M-13.8,44.3c-1.7,1.7-3.8,1.8-5.9,2.1c-0.3,0-0.5,0.1-0.8,0.1c-0.5,0-0.9,0.6-1.4,0.2
			c-0.5-0.5-0.4-1.3-0.7-1.9c-0.1-0.2,0.2-0.2,0.4-0.3c1.2-0.3,2.4-0.6,3.6-0.7c2.5-0.2,3.7-1,4.1-3.9c0.4-2.7,2.3-3.7,4-5.2
			c-0.4,1.4-0.8,2.7-1.1,4.1c-0.4,2-0.4,3.9,0.5,5.8c0.1,0.3,0.2,0.7,0.7,0.4c1.2-0.9,1.6,0.4,1.9,1c0.5,0.7-0.4,0.9-0.8,1.2
			c-1.3,0.9-3.3,0.5-3.9-1.3C-13.3,45.3-13.6,44.9-13.8,44.3z"/>
		<path class="st5" d="M53.4-17.4c1,1,2.1,1.7,2.3,3.2c0,0.1,0.1,0.4,0.2,0.4c1.4,0.4,1.5,1.9,2.4,2.7c0.8,0.7,1.8,0.8,2.8,0.9
			c0.4,0.1,0.8,0,1.2,0.1c0.5,0.2,0.9,0.3,0.5,0.9c-0.1,0.1-0.1,0.4-0.1,0.6c0.2,0.9-0.3,1.1-1.1,0.9C60-7.9,58.3-7.8,57-9
			c-0.5-0.5-0.6,0.2-0.7,0.4c-0.2,0.7-0.3,1.5-1.1,1.8c-1.1,0.3-2.2,0-3.2-0.4c-0.4-0.2-0.8-0.9-1.3-1.3c-0.3-0.2,0.1-0.7,0.6-0.9
			c0.6-0.2,1.3,0,1.9,0c0.2,0,0.4,0.3,0.6,0C54-9.6,54-10,53.8-10.3c-1.7-1.5-1-3.4-1-5.2C52.8-16.1,52.9-16.7,53.4-17.4z"/>
		<path class="st5" d="M-62.5,26c0.5-1.3,0.7-1.1,1.2-0.5c0.7,1.1,1.2,2.2,1.8,3.3c0.3,0.6,0.2,0.9-0.4,1.1c-1.3,0.5-2.6,0.9-3.6,2
			c-0.4,0.5-1.5,0.3-1.7-0.2c-0.4-0.8-0.9-0.6-1.5-0.7c-0.8-0.1-1.7-0.1-2.5-0.3c-1-0.2-0.6-1.1-0.7-1.7c-0.1-0.7,0.4-0.5,0.9-0.6
			c1-0.1,1.9,0.3,2.9,0.3c0.6,0,0.8-0.2,0.7-0.7c0-1.1,0-2.3,0-3.4c0-0.8,0-1.2,1.1-0.9C-63.3,24-62.5,24.3-62.5,26z"/>
		<path class="st5" d="M79.2-57.2c-0.1,1.4-0.2,2.4-0.3,3.4c0,0.6-0.2,0.6-0.9,0.6c-1.6,0.1-1.7-0.7-1.5-1.9
			c0.3-2.1,0.5-4.2,1.3-6.2c0.4-1.1,1.1-1.9,2.4-2.1c0.7-0.1,1.1-0.1,1.1,0.8c0,1.6-0.2,3.2,0.4,4.8c0.3,0.8,0.7,1.4,1.4,1.5
			c1.5,0.4,0.3,1.1,0.3,1.7c0,0.8-0.4,0.7-1.1,0.6C80.7-54.3,80-55.6,79.2-57.2z"/>
		<path class="st5" d="M99-39c-1.4,0.9-2.4,2-3.9,2.2c-0.1-0.2-0.2-0.5-0.3-0.8c-0.4-0.9-0.4-1.5,0.8-1.9c0.9-0.3,1.6-1.1,2.4-1.6
			c0.3-0.2,0.7-0.5,1.1-0.6c1.3-0.5,2.3,0.1,2.4,1.6c0.1,1.6,0.1,1.7,1.6,1.6c1.5-0.1,1,1,1.2,1.6c0.3,0.9-0.6,0.7-1.1,0.8
			c-1.1,0.2-2.1,0.2-2.9-0.5C99.4-37.3,98.9-37.9,99-39z"/>
		<path class="st5" d="M90.1-26.6c-0.5,0.2-1.1-0.1-1.5-0.3c-1.4-0.7-3-0.8-4.1-2.1c-0.5-0.6-0.9-1.2,0.2-1.8
			c0.9-0.4,1.1-1.5,1.5-2.3c0.7-1.3,0.6-1.2,1.9-0.5c0.8,0.5,1,0.9,0.5,1.7c-1.1,1.8-0.6,2.6,1.6,2.8c0.3,0,0.9-0.3,1,0.3
			c0.1,0.6,0.1,1.3-0.1,1.9C91-26.4,90.4-26.7,90.1-26.6z"/>
		<path class="st5" d="M60.7,122.6c-0.6,1.3-0.2,2.7-0.6,4c0,0.1,0,0.3,0,0.5c0.3,1.4-0.3,2.2-1.8,2.3c-0.9,0-1.7,0-2.6,0
			c-0.7,0-1.1-0.1-1.2-0.9c-0.1-1.4-0.2-1.4,1.2-1.4c0.6,0,1.2,0,1.9,0c-0.4-1.1-0.8-2.1-1.1-3.1c-0.4-1.2,0-1.9,1.2-2.3
			c0.4-0.1,0.5-0.4,0.6-0.7c0.2-0.8,0.4-1.6,1.3-1.8c1.1-0.2,1.7,0.4,2.2,1.3c0.4,0.7,0.9,1.3,1.2,2c0.6,1.3,1.2,1.5,2.6,1.2
			c0.7-0.2,1.3-0.4,2-0.6c0.6-0.2,0.8-0.1,1.1,0.5c0.6,1.6,0.6,1.6-1,2c-1.1,0.2-2.2,0.5-3.4,0.7c-1,0.2-2.3-0.5-2.8-1.4
			C61.4,123.9,61,123.2,60.7,122.6z"/>
		<path class="st5" d="M10.2-50.9c-3.9,1.5-7.9,2.9-11.8,4.4C-3-46-4-46-5.2-47.1c-3.4-3.2-6.8-6.4-10.4-9.4
			c-1.3-1.1-1.6-2.2-1.6-3.7c0.1-2,0-3.9,0-5.9c0-0.4,0.1-0.8-0.3-1.1c-1-0.6-0.8-1.4-0.4-2.2c2.4-4.5,4.7-9.1,7.1-13.6
			c0.6-1.2,1.3-1.3,2.3-0.5c2.1,1.8,4.2,3.7,6.3,5.6c1.8,1.6,3.6,3.1,5.4,4.7c1.7,1.6,2.7,3.7,4.2,5.5c1,1.1,1.8,2.4,2.8,3.6
			c0.2,0.2,0.3,0.4,0.3,0.7C9.9-59.2,10.4-55.1,10.2-50.9C10.2-50.9,10.2-50.9,10.2-50.9z"/>
		<path class="st4" d="M-31.1-17c0.2-2.2-0.2-5-0.3-7.8c0-0.9,0.3-1.1,1.1-1.1c2,0,2.2-0.2,2.2-2.2c0-1,0-2,0-3c0-0.7,0.2-1,0.9-1
			c0.4,0,0.7,0,1.1,0c0.7-0.1,0.9,0.3,0.9,0.9c0,1.3,0,2.6,0,3.9c0,1.1,0.5,1.6,1.6,1.6c1,0,2,0,3.1,0c1.2,0,1.7-0.5,1.7-1.7
			c0-1.3,0-2.5,0-3.8c0-1.1,0.7-0.8,1.3-0.9c0.6,0,1.2,0,1.1,0.9c-0.1,0.9,0,1.9,0,2.8c0,1.6,0.6,2.2,2.2,2.2c0.9,0,1.9,0,2.8,0
			c1.1,0,1.6-0.5,1.6-1.7c0-1.2,0-2.4,0-3.7c0-1.2,0.9-0.7,1.4-0.8c0.6-0.1,1.2-0.2,1.2,0.8c-0.1,1.4,0,2.8,0,4.2
			c0,1,0.5,1.5,1.5,1.5c1.3,0,2.7,0,4,0c1.3,0,1.8-0.5,1.8-1.8c0-1.3,0-2.5,0-3.8C0-32.3,0.8-32,1.4-32c0.6,0,1.3-0.3,1.3,0.8
			c0,1.3,0,2.5,0,3.8c0,1.5,0.3,1.8,1.8,1.8c2.4,0,2.5,0,2.4,2.5c-0.2,4-0.2,7.9-0.2,11.9c0,0.9-0.4,1-1.2,1
			c-10.5-0.3-21.1-0.2-31.6-0.3c-1.4,0-2.8-0.3-4.2-0.2c-0.7,0-0.9-0.2-0.9-0.9C-31.1-13.2-31.1-14.8-31.1-17z"/>
		<path class="st4" d="M-33.7-27.6c0,3.1-0.1,6.1,0,9.2c0.1,2.7,0.2,5.4,0.2,8.1c0,0.7-0.2,1.1-0.7,1.5c-4.4,3.2-9.2,2.4-13-1
			c-0.5-0.4-0.7-0.9-0.7-1.5c0-9.4,0-18.7,0-28.1c0-1,0.2-1.2,1.2-0.9c3.4,1.1,6.9,0.7,10.3,0.2c0.7-0.1,1.6-0.6,2.1-0.4
			c0.7,0.3,0.1,1.3,0.4,1.9c0.2,0.3,0.1,0.8,0.1,1.2C-33.7-34.1-33.7-30.9-33.7-27.6z"/>
		<path class="st4" d="M22.5-25.1c0,4.4-0.1,8.7,0,13.1c0.1,1.7-0.7,2.7-1.9,3.6C18.3-6.8,15.8-6,13-6.8C11.6-7.2,10.3-8,9.2-9
			C9-9.1,9-9.5,9-9.8c0-10,0.4-19.9,0.2-29.9c0-0.7,0.1-0.9,0.9-0.7c3.8,1,7.7,1.4,11.5,0.2c1.1-0.3,0.8,0.5,0.8,0.9
			C22.5-34.5,22.5-29.8,22.5-25.1z"/>
		<path class="st6" d="M-57.2-59.2c-2.3-2.3-4.3-4.7-6.4-7.1c-0.8-1-1.8-1.8-2.6-2.8c-0.3-0.4-0.3-0.5,0-0.8
			c2.1-2.4,4.3-4.9,6.4-7.3c0.3-0.4,0.6-0.6,1-0.1c2.8,3.2,5.9,6.1,8.8,9.1c0.2,0.2,0.3,0.4,0.1,0.7C-52.3-64.8-54.7-62-57.2-59.2z"
			/>
		<path class="st6" d="M-41.4-56.3c1.2,1.7,2.2,3.3,3.3,4.9c1.6,2.3,3.2,4.6,4.8,6.9c0.5,0.7,0.5,0.9-0.3,1.1
			c-2.7,0.9-5.5,1.4-8.3,1.4c-2.4,0-4.9-0.2-6.8-2c-0.3-0.3-0.3-0.4-0.1-0.7C-46.4-48.5-43.9-52.3-41.4-56.3z"/>
		<path class="st6" d="M16.5-55.9c1.8,2.9,3.5,5.8,5.3,8.7c0.4,0.7,0.8,1.5,1.3,2.2c0.7,0.9,0.3,1.4-0.4,1.8
			c-2.3,1.3-4.7,1.7-7.4,1.4c-2.1-0.2-4.2-0.6-6.2-1.3c-0.7-0.2-0.9-0.3-0.4-1.1c2.4-3.6,4.8-7.3,7.1-10.9
			C16-55.4,16.2-55.6,16.5-55.9z"/>
		<path class="st6" d="M-92.5-72.2c-2.2,0-4.5,0-6.7,0c-0.8,0-1.1-0.3-1.1-1c0.1-1.8-0.3-3.7-0.3-5.5c0-0.7,0.2-0.9,0.9-0.9
			c2.8,0,5.5-0.1,8.3,0.1c1.6,0.1,3.3,0.2,4.9,0.2c0.8,0,0.8,0.6,0.8,1c0.3,1.8,0.6,3.6,1,5.3c0.1,0.7-0.2,0.8-0.8,0.8
			C-87.8-72.2-90.2-72.2-92.5-72.2z"/>
		<path class="st6" d="M-23-39.1c2.4,0,4.9,0,7.3,0c0.5,0,0.9,0.1,1.2,0.5c0.8,1.1,1.6,2.2,2.3,3.3c0.2,0.3,0.5,0.5,0.2,0.9
			c-0.5,0.7-0.4,1.4-0.3,2.1c0,0.6-0.2,0.7-0.8,0.7c-0.5,0-0.9,0.1-0.9-0.7c-0.1-2-0.3-2.2-2.3-2.2c-1.1,0-2.1,0-3.2,0
			c-1.7,0-2,0.3-2.1,2c0,0.4,0.1,0.8-0.6,0.8c-0.6,0-0.8-0.1-0.8-0.8c0-2-0.1-2.1-2.1-2.1c-1.3,0-2.5,0-3.8,0
			c-1.1,0-1.6,0.5-1.6,1.6c0,0.3,0.3,0.9-0.4,1c-0.8,0-0.5-0.6-0.5-0.9c0-1.8,0-3.7,0-5.5c0-0.7,0.2-0.9,0.9-0.9
			C-28-39.1-25.5-39.1-23-39.1z"/>
		<path class="st4" d="M-46.4-53.1c-0.1-0.9-0.1-1.6,0.1-2.4c0.2-0.8,0.3-1.8-0.4-2.4c-0.7-0.6-1.5-0.3-2.2,0.1
			c-0.7,0.3-1.4,0.6-2.1,0.8c-1.2,0.3-1.6,1.2-1.6,2.3c0,1.5-0.1,3,0,4.5c0.1,1-0.4,1.4-1.3,1.6c-0.6,0.1-0.6,0-0.6-0.5
			c-0.2-3.1,0.2-6.2,0.3-9.3c0-0.9,0.9-1.3,1.3-1.9c1.3-1.7,2.9-3.2,4.1-4.9c0.3-0.4,0.6-0.3,0.8,0.1c0.8,1.3,1.6,2.7,2.4,4
			c0.3,0.5,0.2,1,0.2,1.5c0,1.4,0,2.8,0,4.1C-45.2-54.6-45.6-53.9-46.4-53.1z"/>
		<path class="st4" d="M-66.8-66c2.9,3.2,5.6,6.2,8.4,9.2c0.2,0.2,0.2,0.5,0.5,0.5c1.4,0.1,1.1,1.1,1.1,2c0,1.5,0,3.1,0,4.8
			c-1.6-1.7-3-3.2-4.4-4.7c-1.6-1.8-3.1-3.6-4.7-5.4c-0.6-0.7-0.7-1.5-0.8-2.2C-66.8-63.1-66.8-64.4-66.8-66z"/>
		<path class="st4" d="M-94.9-69.8c2.9,0,5.7,0,8.5,0c0.5,0,0.7,0.2,0.7,0.7c0,2,0,3.9,0,6.1c-1.1-0.9-2.1-1.8-3.1-2.4
			c-0.4-0.2-0.2-0.9-0.2-1.3c0-2-0.3-2.4-2.3-2.3c-1,0-1.9-0.5-2.9-0.1C-94.4-69.1-94.7-69.4-94.9-69.8z"/>
		<path class="st6" d="M-93.2-62.9c0-1.1,0-2.2,0-3.2c0-0.8,0.5-0.6,0.9-0.7c0.5,0,0.8,0.1,0.8,0.7c0,0.4,0,0.9,0,1.3
			C-91.5-63.6-91.5-62.6-93.2-62.9z"/>
		<path class="st4" d="M-50.1-50.3c-0.4-1.4,0.1-2.8,0.2-4.2c0-0.5,0.4-0.6,0.7-0.6c0.5,0,0.4,0.4,0.4,0.7c0,0.9,0,1.8,0,2.7
			C-48.7-50.7-49.2-50.3-50.1-50.3z"/>
		<path class="st6" d="M1.9-70.7c-0.4,1-0.9,1.9-1.3,2.8c-1.1,2.6-2.4,5.2-3.6,7.9c-0.3,0.7-0.6,0.6-1.1,0.2
			c-3.6-2.8-7.2-5.5-10.9-8.3c-0.4-0.3-0.7-0.6-0.3-1.2c1.9-3.6,3.8-7.2,5.7-10.9c0.4-0.8,0.8-0.3,1.1-0.1c0.8,0.6,1.4,1.3,2.2,2
			c2.6,2.2,5.1,4.6,7.7,6.9C1.6-71.2,2-71.1,1.9-70.7z"/>
		<path class="st4" d="M7.9-58.1c0,1.6,0,3.1,0,4.7c0,0.5-0.2,0.9-0.7,0.9c-0.5,0-0.3-0.6-0.3-0.9c0-1.7,0-3.4,0-5.1
			c0-1.1-0.6-1.6-1.7-1.2c-1.1,0.3-2.1,0.7-3.1,1.2C1.4-58.1,1-57.5,1-56.6c0,2,0.2,4-0.2,6c-0.2,1-0.9,1-1.5,1.2
			c-0.4,0.1-0.4-0.2-0.4-0.5c0-2.7-0.1-5.4,0-8c0.1-1.5,1.1-2.8,1.7-4.2c0.8-1.9,1.7-3.7,2.5-5.5c0.3-0.7,0.6-0.8,1.1-0.1
			c1.1,1.4,2.2,2.8,3.3,4.2c0.3,0.3,0.3,0.7,0.3,1.1C7.9-61.1,7.9-59.6,7.9-58.1z"/>
		<path class="st4" d="M-3.7-53c0,0.9,0,1.8,0,2.7c0,0.3,0.1,0.6-0.1,0.7c-0.3,0.1-0.6-0.1-0.8-0.4c-1.4-1.2-2.8-2.4-4.1-3.7
			c-1.8-1.6-3.6-3.3-5.4-4.9c-0.3-0.2-0.6-0.4-0.6-0.8c0-1.7,0-3.5,0-5.2c0-0.6,0.3-0.4,0.6-0.2c1.3,1,2.5,1.9,3.8,2.9
			c1.9,1.4,3.6,2.9,5.6,4.3c0.9,0.6,1.2,1.2,1.1,2.2C-3.8-54.5-3.7-53.7-3.7-53z"/>
		<path class="st4" d="M4.5-56.7c0,1.6,0,3.2,0,4.7c0,0.7-0.6,0.7-1.2,0.9c0-1.7,0-3.3,0-4.8C3.4-56.5,4-56.5,4.5-56.7z"/>
		<path class="st5" d="M-45-29.1c0-0.8,0-1.6,0-2.5c0-0.7,0.3-1.2,1-1.3c0.8-0.1,1.3,0.4,1.3,1c0.1,1.8,0.1,3.6,0,5.4
			c0,0.6-0.5,1.1-1.3,1c-0.7-0.1-1-0.5-1-1.2C-45-27.4-45-28.3-45-29.1z"/>
		<path class="st5" d="M16.8-30.7c0-0.8,0-1.6,0-2.4c0-0.7,0.4-1.2,1.1-1.3c0.8-0.1,1.2,0.5,1.2,1.2c0.1,1.6,0.1,3.3,0,5
			c0,0.6-0.3,1.2-1.2,1.2c-0.9,0-1.1-0.5-1.1-1.2C16.8-29.1,16.8-29.9,16.8-30.7z"/>
	</g>
	<rect id="rect2983-1-3" x="-158" y="-107.7" class="st7" width="281.7" height="281.7">
	</rect>
	<path id="path2985-0-4" class="st8" d="M123.2,43.5c-13.5-0.3-70.7-5.1-76.9,1.1c-1.8,1.8-12.1,6.9-13.9,8.8
		c-4.7,4.7-6.5,24.1-13.9,27.8C3,88.9-6.8,101.4-14,116c-2.8,5.5,2.2,12.9,3.7,15.7c3,6,1.4,35,1.4,41.7"/>
	<path id="path2987-8-1" class="st8" d="M123.3,23c-11.3,2.6-28.9-4.6-38.8,0.4c-3.9,2-15.1,2.4-19,3.7c-11.4,3.8-22.3-5.5-31.5,3.7
		c-1.2,1.2-4.6,2.4-6.2,4C17.6,44.9,10.4,59.3-0.1,69.9c-3.7,3.7-9,5.4-12.1,8.4C-19.3,85.4-27.4,94-32,103.2
		c-5.9,11.9,4.3,52.8,0.8,70.3"/>
	<path id="path2989-7-4" class="st9" d="M-41.5-58.6l10.6,15.4c-5.9,2.6-16.1,4-19.8-1.1L-41.5-58.6z"/>
	<path id="path2991-9-2" class="st9" d="M-49.2-42.1v32.2c4,4.5,11,6.5,16.8,1.1l-0.4-33.3"/>
	<path id="path2989-9-4-2" class="st9" d="M16.5-58.4L6.5-43c5.5,2.6,15.2,4,18.6-1.1L16.5-58.4z"/>
	<path id="path2991-8-7-2" class="st9" d="M23.8-41.9v32.2C20-5.2,13.4-3.3,7.9-8.6l0.3-33.3"/>
	<path id="path3023-2-9" class="st8" d="M-31.6-9.6L7.6-9.2"/>
	<path id="path3050-9-9" class="st9" d="M-32.5-27.2h3.3v-6.2h5.1v6.4h4v-6.4h4.9v5.9h4.1v-6.2h4.9v6.7h4.9v-6.4h5.1v6.5h4.3"/>
	<path id="path3052-7-2" class="st9" d="M-32.1-40.4h17.8l4.7,6.4"/>
	<path id="path3054-0-7" class="st8" d="M-11.5-30.4h-3.8"/>
	<path id="path3056-1-8" class="st8" d="M-20.1-30.5h-4"/>
	<path id="path3058-4-1" class="st8" d="M-29.8-30.7h-2.5"/>
	<path id="path3060-4-7" class="st9" d="M-158-106.9l48.1,52.3l60.6,41.8"/>
	<path id="path3089-0-5" class="st9" d="M-49.3-30l-5-3.4v-6.7l-4.6-3.2v6.7l-4.8-2.9v-7.2l-5-3.8v7.2l-4.8-3.4v-7.6l-5.5-3.8v8
		l-5.3-3.8v-6.5l-4.6-4v7.4l-5.5-3.6v-7.4l-4.2-3.1l-0.2,6.4l-5-2.9v-6.7l-4.2-3.2v6.7l-5.5-5v-7.2l-3.2-4v6.9l-4.2-4.2v-6.3
		l-4.6-5.7v7.4l-4.4-4v-7.2l-3.2-4.8v7.4l-5-4.8l-0.5-5.3"/>
	<path id="path3859-5-7" class="st9" d="M-101.4-71.3l-0.6-9.7l17,0.2l1.7,9.5H-101.4z"/>
	<path id="path3861-9-5" class="st9" d="M-101.7-71.1l0.2,4.2"/>
	<path id="path3863-7-3" class="st9" d="M-84.6-70.2v9.3"/>
	<path id="path3865-5-9" class="st8" d="M-94.3-61.8l4.5,0"/>
	<path id="path3867-5-3" class="st9" d="M-48-68.1l-11.4-11.6l-8.8,10.1l10.9,12.2L-48-68.1z"/>
	<path id="path3869-4-3" class="st9" d="M-48.4-68.3l4.2,6.7v7"/>
	<path id="path3871-0-7" class="st9" d="M-55.6-58.9l-0.2,12.1l8.2-3.2"/>
	<path id="path3873-8-7" class="st9" d="M-68.3-69.5l0.3,9.4L-56-46.7"/>
	<path id="path3875-7-2" class="st9" d="M3.5-71.5L-9.5-83l-7.6,14.5l14.3,10.9L3.5-71.5z"/>
	<path id="path3877-3-3" class="st8" d="M3.1-71.5l6.1,7.8L9-51.9l-11.4,4.2l0-11.8"/>
	<path id="path3879-7-0" class="st9" d="M-16.1-66.8v8.2l12.7,11.4"/>
	<path id="path3881-4-9" class="st9" d="M24.1-17.5l11-30h23.3l64.1-59.7"/>
	<path id="path3928-8-3" class="st9" d="M24.4-33.5l2.1-4.7v-6.4l1.2-3.6v5.4l1.8-4.3v-4.9l1.1-3.9v5.5l2.2-4.9v-6.2l1.1-3.2v4.4
		l1.8-2.4v-4.4l3.3-0.1v5.3h3.6V-67h3.7v5.3h4v-4.9l3.4-0.2l0.2,4.9h3.2V-67l2.4-2.4v6.5l2.6-2.6v-5.3l2.5-2.5v5.2l2.8-2.8v-4.8
		l2.9-2.9v5.9l4.1-4.1v-5l3.3-3.3v4.8l4-3v-6.1l3.6-3v5.5l3.9-3.9v-5.5l3.3-2.9v5.4l3.4-3.1v-5.6l3.3-3.3l0.2,5.8l4.5-4.5v-2.6"/>
	<path id="path3930-7-5" class="st9" d="M-44-31.9v5.3"/>
	<path id="path3932-5-3" class="st9" d="M18-33.3v5"/>
	<path id="path3934-3-6" class="st9" d="M2.1-49.4l0.2-7.9l3.6-1.5v7.4"/>
	<path id="path3936-2-1" class="st9" d="M-51.5-48.9l0.2-6.9l3.8-1.5l-0.2,7.1"/>
	<path id="path3938-7-8" class="st9" d="M-94-68.2l3.6,0.1l0,5.6"/>
	<path id="path3940-6-5" class="st8" d="M51.8-8.1c0.1-0.9,3,0.6,3.3,0c1-2-1.1-8.8-1.1-6.6c0,6.9,1.7,0.2,2.6,2.9
		c0.8,2.5,3.8,2.9,6.2,2.9"/>
	<path id="path3942-2-9" class="st8" d="M84.8-29.3c2.8-2-1.5,3.3,1.8-1.5c5.1-7.1-5,2.9,4.8,2.9"/>
	<path id="path3944-2-9" class="st8" d="M77.8-53.5c0.2-1.9,0.7-8.8,2.6-8.8c0,0,0,3.1,0,3.3c0.5,2.4,1,3.6,3.3,4"/>
	<path id="path3946-2-2" class="st8" d="M104.2-37.7c-7,1.7-1.3-5.3-5.5-2.6c-1.6,1.1-2,1.9-3.7,2.2"/>
	<path id="path3948-8-2" class="st8" d="M-99.9-19.8c4.7,2.1,2.9-7.7,3.3-7c3.6,7.1,0.4,1.1,4,1.1c0.2,0,0,5.1,0.4,5.5
		c0.5,0.5,4.6,0,5.5,0"/>
	<path id="path3950-0-8" class="st8" d="M-69.8,29.7c1.1-0.4,4.9,0.8,5.5-0.4c0.2-0.3-0.1-4.4,0-4.4c2,0-1.3,6.9,0.4,5.9
		c3.7-2.4,0.9-6.3,3.7-0.7"/>
	<path id="path3952-5-5" class="st8" d="M-9,45.4c-4.2,4.6-4.5-7.3-3.7-7.3c0,0-0.7,2.4-0.7,2.6c-1.4,5.6-4.9,3.6-8.8,5.1"/>
	<path id="path3954-0-6" class="st8" d="M54.7,128.2c0.7-0.2,4.4,0.5,4.4-0.4c0-6.3-2.6-6.2-0.4-1.8c0.9,1.8,0-4.4,1.5-5.9
		c0.6-0.6,2.8,4.2,2.9,4.4c0.9,0.9,5-0.3,5.9-0.7"/>
	<path id="path3956-6-5" class="st8" d="M-122.9,157.1c0.1-0.5,3.4,0.5,3.7,0c1-2.1,0-9.3,0-7c0,2.9-0.5,8.2,2.2,3.7
		c0.7-1.1,7.4,0.8,9.9,1.5"/>
</g>
</svg>
