<?xml version="1.0" encoding="utf-8"?>
<!-- Generator: Adobe Illustrator 25.0.0, SVG Export Plug-In . SVG Version: 6.00 Build 0)  -->
<svg version="1.1" id="Layer_1" xmlns="http://www.w3.org/2000/svg" xmlns:xlink="http://www.w3.org/1999/xlink" x="0px" y="0px"
	 viewBox="0 0 283.5 283.5" style="enable-background:new 0 0 283.5 283.5;" xml:space="preserve">
<style type="text/css">
	.st0{fill:#FFFFFF;}
	.st1{fill:#87AD50;}
	.st2{fill:#BBA78E;}
	.st3{fill:#EE663C;}
	.st4{fill:#214E26;}
	.st5{fill:none;stroke:#010101;stroke-width:1.7778;stroke-linejoin:round;stroke-miterlimit:5.0267;}
	.st6{fill:none;stroke:#010101;stroke-width:1.7778;stroke-linecap:round;stroke-linejoin:round;stroke-miterlimit:5.0267;}
	.st7{fill:none;stroke:#010101;stroke-width:1.7778;stroke-linecap:round;stroke-linejoin:round;}
	.st8{fill:none;stroke:#010101;stroke-width:1.7778;stroke-linejoin:round;}
	.st9{fill:none;stroke:#010101;stroke-width:1.7778;stroke-linecap:round;}
	.st10{fill:none;stroke:#010101;stroke-width:1.7778;}
</style>
<g>
	<g>
		<path class="st0" d="M141.7,283.2c-46.9,0-93.8,0-140.6,0c-0.9,0-1.1-0.2-1.1-1.1C0,188.5,0,94.9,0,1.3c0-0.9,0.2-1.1,1.1-1.1
			c93.8,0,187.5,0,281.3,0c0.9,0,1.1,0.2,1.1,1.1c0,93.6,0,187.2,0,280.8c0,0.9-0.2,1.1-1.1,1.1
			C235.5,283.2,188.6,283.2,141.7,283.2z"/>
		<path class="st1" d="M131.2,181.7c0,0.7,0,1.1,0,1.6c0,1,0.5,1.6,1.4,1.8c1.9,0.5,3.8,0.8,5.8,1.2c0.7,0.1,1.2,0,1.6-0.8
			c0.6-1.1,1.4-2,2.2-3c0.8-1,1.1-2.1,0.8-3.4c-0.1-0.3-0.3-0.9,0.2-1c0.4-0.1,0.9-0.1,1.2,0.1c0.3,0.2,0.1,0.8,0.1,1.2
			c-0.3,2-0.9,4-1.1,6c-0.1,0.8,0.3,1.3,1.1,1.5c1.8,0.4,3.5,0.9,5.3,1.3c0.6,0.1,1-0.1,1.4-0.6c2.3-2.4,4.7-4.7,7-7
			c0.4-0.5,0.8-0.6,1.4-0.4c2.2,0.6,4.5,1.3,6.8,1.9c0.6,0.2,0.9,0.2,0.7,1c-0.4,2.1-0.9,4.2-1.2,6.2c-0.3,1.9-0.3,2.2,1.7,2.7
			c1.2,0.2,2.3,0.5,3.4,1c1.2,0.5,2-0.1,2.8-0.8c2.1-2.1,4.2-4.2,6.3-6.4c0.6-0.6,1-0.7,1.8-0.5c3.7,1,7.4,1.9,11,2.8
			c1.9,0.5,2.7,0.1,4-1.5c1.8-2.2,3.7-4.4,5.6-6.6c2.7-3.2,5.3-6.4,8-9.6c1.2-1.5,2.5-2.9,3.7-4.4c0.7,1.1,1.3,2.2,2.6,2.8
			c1.4,0.6,2.7,0.3,3.8-0.5c1.3-0.9,2.5-0.7,3.8-0.5c1.4,0.3,2.7,0.2,4,0c1.2-0.2,1.6-1,1.8-2.1c0.2-1.4-0.1-2.7-0.7-3.9
			c-0.3-0.7-0.2-0.8,0.5-0.9c1.2-0.2,2.4-0.7,3.2-1.8c0.7-1.1,0.5-2-0.6-2.6c-1.3-0.8-2.8-0.6-4.3-0.9c-0.2-0.1-0.7,0.1-0.6-0.3
			c0.1-1.1-0.8-1.6-1.4-2.1c-1.9-1.7-4.2-2.7-6.6-3c-1.5-0.2-2.8,0.4-4,1.7c0-2.3-0.1-4.3,0-6.4c0.1-3.7-0.2-7.4-0.3-11
			c0-0.9,0.3-1.3,1.1-1.4c1-0.2,2-0.6,3-0.8c0.7-0.2,1.3-0.6,1.2-1.3c0-0.7-0.6-1.1-1.3-1.3c-1.6-0.4-3.3-0.8-4.9-1.2
			c-8-2.1-16.1-4.2-24.1-6.2c-3.2-0.8-6.3-1.7-9.5-2.5c-1.1-0.3-2.3,0-3.5,0.2c-1.7,0.3-3.4,0.6-5.2,0.8c0-3.6,0-7.2,0-10.8
			c0-4,0.1-8.1,0-12.1c-0.1-2.8-0.2-5.6-0.2-8.5c0-1,0.2-1.6,1.1-2.1c0.5-0.3,1-0.8,1.5-1.1c1.3-0.9,1.4-1.8,0.2-2.8
			c-2.5-2.1-5.1-4.2-7.7-6.2c-2.7-2.2-5.4-4.3-8.1-6.5c-3.5-2.8-7-5.6-10.5-8.4c0,0-0.1,0-0.1-0.1c-2.5-2-2.5-1.9-5.2-0.2
			c-0.7,0.4-1.4,0.8-2.3,1.4c0-1.7-0.1-3.3-0.2-4.9c-0.1-1.7,0-3.5-0.1-5.2c0-0.7,0.3-1.1,0.8-1.4c1.3-0.8,2.5-1.6,3.8-2.4
			c0.8-0.5,1.1-1.2,0.6-1.9c-0.5-0.8-1.2-0.5-1.9-0.1c-1.2,0.7-2.3,1.5-3.6,2.3c0-1.6,0-3,0-4.4c0-0.8-0.3-1.6-1.1-1.7
			c-0.9,0-1.4,0.6-1.3,1.7c0.1,1.7,0,3.4,0,5.1c0,0.6-0.1,1-0.7,1.3c-1.7,1-3.2,2.1-4.9,3.1c-0.7,0.4-1.1,1-0.6,1.7
			c0.5,0.7,1.2,0.9,2,0.3c1.4-1,2.9-1.9,4.4-2.9c0,1.6,0,3,0,4.4c0,2,0,3.9,0.2,5.9c0,0.4,0.1,0.8-0.4,1.1
			c-5.6,3.3-10.8,7.1-16.2,10.7c-7.9,5.2-15.8,10.5-23.7,15.8c-0.6,0.4-1.6,0.7-1.2,1.9c0.2,0.6,0.6,0.8,1.1,0.9
			c1.5,0.4,3,0.8,4.6,1.2c0.7,0.2,1,0.4,1,1.3c0,13.5,0,27,0,40.5c0,1.3,0,1.2-1.4,1.1c-2.6-0.2-5.2-0.5-7.7,0.5
			c-2.6,1-3.4,2.4-3.1,5.2c0.1,0.5-0.1,0.7-0.6,0.9c-3.9,1.5-5.3,4.7-5.5,8.6c0,0.1,0,0.3,0,0.4c0.8,1.6-0.4,1.9-1.5,2.3
			c-1.6,0.6-3,1.5-4.2,2.6c-2.7,2.4-1.6,5.7,0.6,7.4c1.9,1.5,4.2,1.5,6.5,1.7c-1.2,1.3-1.6,2.8-1.8,4.4c-0.1,1,0.3,1.9,1,2.6
			c2,1.8,4.3,2.8,7,3c1,0.1,2.1-0.3,3-1c0.6-0.4,1.1-0.8,1.7-1.2c0.5-0.4,0.9-0.7,1.6,0.1c0.6,0.8,1.6,0.7,2.5,0.2
			c0.6-0.3,1.1-0.8,1.7-1.3c0.7,1.5-0.6,3.7,1.7,4.5c-1.4,2-2.2,4.3-2.5,6.8c-0.8,7.4,1.4,14.3,4.1,21c2.1,5.1,4.7,10,7.7,14.6
			c2.8,4.2,5.9,8.2,9.4,11.8c1,1,1.3,2.3,1.7,3.5c1.2,4.1,2.2,8.2,3,12.4c0.7,3.8,1.4,7.6,2,11.4c0.5,3.2,0.9,6.3,1.3,9.5
			c0.4,3,0.4,6-0.2,9c-0.3,1.5-0.9,1.5-2.1,1.5c-41.8,0-83.6,0-125.4,0c-1.5,0-1.5,0-1.5-1.6c0-91.6,0-183.3,0-274.9
			c0-1.2,0.3-1.5,1.5-1.5c91.8,0,183.7,0,275.5,0c1.2,0,1.5,0.3,1.5,1.5c0,91.7,0,183.4,0,275c0,1.1-0.2,1.5-1.4,1.5
			c-41.8,0-83.7,0-125.5,0c-1.2,0-1.4-0.3-1.5-1.5c-0.3-4.3-0.4-8.5-0.4-12.8c0-3.1-1.4-6-2.4-8.9c-1.3-3.8-2.2-7.6-2.6-11.6
			c-0.4-4.1-0.8-8.2-1.4-12.3c-0.4-2.7-1-5.4-1.9-8.1c-0.5-1.3-1.4-2.3-2.3-3.3c-3-3.3-5.9-6.8-8.8-10.3c-3.2-3.9-6.5-7.7-9.3-11.9
			c-1-1.5-1.2-3.2-1-4.9c0.4-3.6,2.4-6.5,4.8-9.2C128.6,184.8,129.8,183.3,131.2,181.7z"/>
		<path class="st2" d="M142.1,280.8c-2.5,0-5-0.1-7.4,0c-1.2,0-1.2-0.6-0.9-1.4c0.9-2.1,1-4.3,0.8-6.4c-0.2-2.6-0.5-5.2-0.9-7.8
			c-0.4-3.2-1-6.3-1.5-9.4c-0.6-3.8-1.4-7.5-2.2-11.3c-0.8-3.4-1.6-6.8-2.8-10.1c-0.4-1.2-1.1-2.3-2-3.2
			c-5.2-5.2-9.3-11.2-12.7-17.7c-2.9-5.4-5.2-11-6.6-16.9c-0.5-2-0.7-4.1-0.9-6.2c-0.2-2.2,0.1-4.3,0.6-6.5c0.3-1.4,1.2-2.6,1.9-3.8
			c0.3-0.5,0.8-0.4,1.2-0.3c0.5,0.1,1,0.3,1.6,0.4c1,0.2,1.9,0,2.5-1c0.8-1.5,2.1-2.7,2.8-4.3c0.1-0.3,0.5-0.3,0.8-0.2
			c4.4,1.2,8.8,2.4,13.2,3.6c0.7,0.2,1,0.4,0.4,1.1c-2.1,2.4-4.2,4.8-6.2,7.3c-2.3,2.9-3.7,6.1-3.7,9.9c0.1,2.7,1,5,2.7,7
			c3.9,4.9,7.8,9.8,11.9,14.5c2,2.3,3.9,4.6,5.9,6.8c1.3,1.5,1.7,3.5,2.1,5.5c0.8,3.7,1.1,7.5,1.5,11.3c0.6,6,1.5,11.9,3.5,17.7
			c0.6,1.6,1.4,3,1.7,4.7c0.4,2.5,0.5,5,0.5,7.5c0,2.3,0,4.6,0.6,7c0.6,2,0.2,2.3-1.9,2.3C146.5,280.8,144.3,280.8,142.1,280.8z"/>
		<path class="st3" d="M145.5,148.5c0.3-0.5,0.6-1,0.9-1.6c2.9-4.7,5.7-9.4,8.6-14c1.4-2.3,2.8-4.6,4.1-6.9c0.2-0.4,0.5-0.4,1-0.3
			c6.8,1.6,13.7,3.2,20.5,4.8c5.4,1.3,10.8,2.5,16.1,3.7c1.8,0.4,3.7,0.9,5.5,1.2c1,0.2,1,0.4,0.7,1.3c-1.5,4-2.9,8-4.3,12
			c-1.3,3.5-2.5,7-3.8,10.5c-0.2,0.5-0.4,0.9-1.2,0.7c-5.8-1.3-11.6-2.4-17.3-3.7c-5.3-1.1-10.6-2.3-15.8-3.5
			c-4.6-1-9.2-1.9-13.8-2.8C145.7,149.7,145.5,149.3,145.5,148.5z"/>
		<path class="st3" d="M145.9,104.2c-2.4-7.4-4.7-14.8-7.1-22.2c-1.2-3.8-2.4-7.6-3.6-11.4c-0.2-0.5,0-0.9,0.4-1.2
			c3.2-1.9,6.4-3.9,9.5-5.8c0.7-0.4,1.2-0.4,1.8,0.1c2.6,2.2,5.3,4.3,7.9,6.5c2.7,2.2,5.5,4.4,8.2,6.6c2.7,2.2,5.4,4.3,8.1,6.4
			c0.5,0.4,0.8,1,1.6,1.3C163.8,91.2,154.9,97.7,145.9,104.2z"/>
		<path class="st2" d="M106.5,116.4c4.4,1,8.7,2.1,13.1,3.1c7.5,1.8,15.1,3.6,22.6,5.3c0.7,0.2,0.8,0.4,0.8,1c0,6.6,0,13.2,0,19.8
			c-1.4-0.8-3-0.9-4.5-1.4c-0.9-0.3-1.8-0.4-2.7-0.7c-0.9-0.3-1.6,0-2,0.9c-0.8,1.5-1.5,2.9-2.3,4.3c-0.3,0.5-0.3,1-0.3,1.6
			c0,8.1,0,16.3,0,24.4c0,0.4,0,0.9,0,1.3c-0.5,0.1-0.7-0.1-0.7-0.6c-0.1-0.8-0.2-1.5-0.2-2.3c0-5.8,0-11.6,0-17.5
			c0-1.8-0.2-3.6-0.2-5.3c0-0.7-0.4-1.1-1-1.2c-3.5-0.8-7-1.6-10.5-2.3c-1.4-0.3-2.1,0.3-2.1,2c0,7.5,0,14.9,0,22.4
			c0,0.3,0,0.5,0,0.8c-0.9-0.1-0.9-0.1-0.9-1.2c0-9.8,0-19.7,0-29.5c0-1.8,0-1.8-1.8-2.3c-1.7-0.4-3.3-0.8-5-1.2
			c-0.7-0.2-1.4-0.4-2.2,0.2C106.5,130.8,106.5,123.7,106.5,116.4z"/>
		<path class="st3" d="M143,103.8c-13.9-3.7-27.8-7.4-41.8-11.1c2.3-1.5,4.4-3,6.6-4.4c8-5.3,15.9-10.6,23.9-15.9
			c0.9-0.6,1-0.2,1.2,0.4c3.4,10.2,6.8,20.4,10.2,30.6C143,103.5,143,103.6,143,103.8z"/>
		<path class="st4" d="M92.8,155.6c-1.3-0.6-2.4-1.1-3.5-1.2c-1.5-0.2-1.5-0.2-1.3-1.6c0.1-1.3,0.5-2.5,1.3-3.6c1-1.3,2.2-2,3.8-2.1
			c1.1,0,2.2,0,3.4,0c-0.5-1.3-0.8-2.6-2.2-3.1c-0.8-0.3-0.6-1.8,0.3-2.3c1-0.6,2.1-0.9,3.3-0.9c1.7-0.1,3.4-0.1,5.1,0.2
			c1,0.2,0.9,0.8,0.8,1.5c-0.6,7-0.1,14.1-0.2,21.2c0,1.8-0.2,3.6,0,5.4c0.2,2.3-1.2,3.5-2.7,4.9c-0.1-0.6-0.4-1-0.4-1.5
			c0-0.7-0.5-1-1-1.2c-0.6-0.3-0.8,0.3-0.9,0.5c-0.8,1.1-1.9,1.8-2.9,2.6c-1.5,1.3-3.1,1.4-4.9,0.7c-0.6-0.2-1.1-0.5-1.6-0.7
			c-2.3-1.1-1.8-3.1-0.6-4.4c0.8-0.8,1.6-1.5,2.1-2.6c0.2-0.5,0.3-0.8-0.4-1c-0.8-0.4-1.6-0.7-2.5-0.7c-1.7,0-3.4-0.1-5-0.7
			c-1.4-0.5-2.1-1.5-2-3c0.1-1.1,0.9-1.5,1.6-2c2-1.4,4.4-2.1,6.8-2.8C90.3,156.6,91.3,156,92.8,155.6z"/>
		<path class="st2" d="M106.2,105.2c0-2.6,0-5.2,0-7.8c0-0.6,0.1-0.9,0.8-0.7c1.6,0.5,3.2,0.8,4.8,1.2c0.6,0.2,0.7,0.6,0.7,1.1
			c0,3.5,0,7.1,0,10.6c0,1.9,0.3,2.2,2.1,2.6c1.2,0.3,2.4,0.5,3.5,0.7c1.6,0.3,2.2-0.1,2.2-1.7c0-3.3,0-6.6,0-9.9
			c0-0.9,0.2-1.1,1.1-0.9c1.7,0.5,3.5,1,5.3,1.4c0.6,0.1,0.8,0.4,0.8,1c0,1.2,0,2.4,0,3.7c-0.1,2.8,0.3,5.6,0.2,8.4
			c0,1.1,0.8,1.4,1.6,1.6c1.4,0.3,2.7,0.6,4.1,0.9c1.1,0.2,1.8-0.3,1.8-1.5c0-3.5,0-7.1,0-10.6c0-0.9,0.1-1.2,1.1-0.9
			c1.9,0.6,3.9,1,5.9,1.5c0.6,0.1,0.9,0.4,0.9,1.1c0,4.8,0,9.6,0,14.4c0,0.6,0,1-0.9,0.8c-3.9-1-7.8-1.8-11.6-2.7
			c-7.8-1.8-15.7-3.7-23.5-5.5c-0.8-0.2-0.8-0.5-0.8-1.1C106.2,110.4,106.2,107.8,106.2,105.2z"/>
		<path class="st2" d="M145.6,143.2c0-6.5,0-12.7,0-18.9c0-0.6,0.2-1,0.7-1.3c6-4.3,11.9-8.7,17.9-13c1.9-1.4,3.8-2.7,5.8-4.1
			c0.3,0.2,0.2,0.5,0.2,0.8c0,4.4,0,8.9,0,13.3c0,1-0.3,1.3-1.2,1.4c-3.2,0.4-6.4,0.9-9.7,1.4c-1.2,0.2-1.8,1.1-2.3,2.1
			c-3.6,5.9-7.1,11.8-10.7,17.6C146.1,142.7,145.9,142.9,145.6,143.2z"/>
		<path class="st2" d="M199.6,152.8c1.4-3.9,2.7-7.5,4.1-11.2c0.6-1.6,1.1-3.1,1.7-4.7c0.3-0.7,0.6-1.2,1.5-1.4
			c2.2-0.5,4.3-1.1,6.5-1.6c0,0.6,0,1.2,0,1.7c0.1,7.1,0.3,14.2,0.3,21.3c0,1.7,0.2,3.4,0.2,5.2c0,0.6-0.2,1-0.5,1.5
			c-3,3.5-5.9,7.1-8.9,10.7c-2.5,3-5.1,6-7.6,9c-0.1,0.1-0.2,0.1-0.3,0.2c-0.3-0.4-0.1-0.8-0.1-1.1c-0.2-4.9-0.3-9.8-0.3-14.7
			c0-0.6-0.1-1.2-0.2-1.8c-0.5-3.1,1.2-5.7,2.1-8.5c0.4-1.2,0.9-2.3,1.5-3.5c0,0.4,0,0.7,0,1.1c0,5,0,10.1,0,15.1
			c0,0.7,0,1.4,0.8,1.7c0.8,0.3,1.2-0.2,1.7-0.6c2.1-1.6,3.7-3.7,5.8-5.4c2-1.6,3.1-3.7,2.9-6.4c-0.2-1.9,0-3.8,0-5.7
			c0-2.7-0.4-5.4-0.2-8.1c0-0.7-0.3-1.2-0.9-1.5c-0.7-0.3-1.1,0.2-1.5,0.6c-2.4,2.4-4.8,4.8-7.2,7.2
			C200.4,152.1,200.1,152.4,199.6,152.8z"/>
		<path class="st3" d="M119,149.4c2.7,0.6,5.3,1.3,8,1.8c0.8,0.2,0.8,0.5,0.8,1.1c0,2.3-0.1,4.7,0.1,7c0.4,5.3,0,10.6,0.2,16
			c-2.8-0.8-5.5-1.5-8.2-2.2c-0.4-0.1-0.8-0.2-0.8-0.9C119,164.7,119,157.1,119,149.4z"/>
		<path class="st3" d="M214.7,130.9c-2.1,0.8-4.2,1.2-6.3,1.7c-0.3,0.1-0.6,0.1-0.9,0.2c-2.4,1.1-4.6,0.3-6.9-0.2
			c-6-1.4-12.1-2.8-18.1-4.2c-5.6-1.3-11.2-2.6-16.9-3.9c0.7-0.6,1.5-0.4,2.1-0.6c3.5-0.6,6.9-1,10.4-1.7c2.3-0.5,4.3,0.3,6.4,0.8
			c7.8,2,15.7,4,23.5,6C210.2,129.7,212.4,130.3,214.7,130.9z"/>
		<path class="st2" d="M181.8,159.9c0.6,0.4,0.4,0.9,0.4,1.2c0,3.7,0,7.4,0,11.1c0,1,0.3,1.6,1.4,1.8c1.4,0.3,2.8,0.7,4.3,1.1
			c1.7,0.4,1.9,0.2,1.9-1.5c0-3.6,0-7.2,0-10.7c0-1,0.1-1.4,1.3-1.1c2.5,0.7,2.5,0.7,2.5,3.2c0,5.3,0.3,10.6,0.3,15.9
			c0,1.3,0.2,2.7,0.2,4.1c0,0.5,0,0.8-0.7,0.6c-3.6-1-7.2-1.9-10.8-2.8c-0.5-0.1-0.8-0.3-0.8-0.9c0-7.2,0-14.5,0-21.7
			C181.7,160.1,181.8,160,181.8,159.9z"/>
		<path class="st2" d="M149.2,105.1c0,2.6,0,5.1,0,7.5c0,0.5,0,0.9,0.2,1.4c0.4,1,1.2,1.3,2,0.7c1.2-0.8,2.3-1.7,3.5-2.5
			c0.6-0.5,0.9-1.1,0.9-1.9c-0.1-2.9,0-5.9,0-8.8c0-0.9,0.1-1.6,1-2c0.7-0.3,1.2-0.9,2.1-1.5c0,0.6,0,0.9,0,1.2c0,2.3,0,4.6,0,6.8
			c0,0.8-0.2,1.9,0.8,2.3c0.8,0.3,1.4-0.4,1.9-0.8c1.1-0.7,2.1-1.5,3.1-2.2c0.6-0.5,0.8-1.1,0.8-1.9c0-3.1,0-6.2,0-9.3
			c0-0.7,0.2-1.1,0.8-1.5c1-0.6,2-1.3,2.9-2.1c0.5-0.5,0.7-0.1,0.7,0.3c0.1,4,0.2,7.9,0.3,11.9c0,0.4-0.3,0.4-0.5,0.6
			c-4.7,3.4-9.3,6.8-14,10.1c-3.1,2.2-6.2,4.5-9.3,6.7c-0.2,0.2-0.5,0.3-0.8,0.5c0-2.6,0-5.1,0-7.5c0-1.1,0-2.1,0-3.2
			c0-0.7-0.3-1.7,0.2-2.2C146.8,106.6,147.8,105.7,149.2,105.1z"/>
		<path class="st2" d="M137.6,168.3c0,4.7,0,9.4,0,14.1c0,1.1-0.4,1.1-1.2,0.9c-0.6-0.1-1.1-0.4-1.7-0.4c-0.8,0-0.9-0.4-1-1.1
			c-0.1-5.3-0.3-10.7-0.2-16c0.1-4.3,0-8.6,0-13c0-0.8,0-1.2,1.1-0.9c2.9,0.8,2.9,0.8,2.9,3.8C137.6,159.9,137.6,164.1,137.6,168.3z
			"/>
		<path class="st2" d="M109.9,177.7c-0.9-0.2-1.9-0.5-2.8-0.6c-0.7-0.1-0.8-0.4-0.8-1.1c0-2.9,0.2-5.8,0-8.7
			c-0.4-6.7-0.1-13.4-0.2-20.2c0-1.4,0-1.4,1.3-1c0.9,0.3,2.1,0.1,2.5,0.9c0.4,0.7,0.1,1.8,0.1,2.8c0,8.8,0,17.6,0,26.4
			C110,176.7,110.1,177.2,109.9,177.7z"/>
		<path class="st4" d="M230.7,158.3c-2.8,0.5-5.5,1.4-8.2,2.4c1.3,0.7,2.7,0.8,4,1.2c0.8,0.3,2,2.7,1.6,3.4
			c-0.2,0.4-0.6,0.3-0.9,0.3c-1.7,0.1-3.4-0.4-5.1-0.6c-0.5,0-0.8,0-1.1,0.3c-0.3,0.3-0.7,0.6-1,0.7c-0.7,0.4-1.5,0.9-2.2,0.3
			c-0.8-0.6-1.4-1.3-1.2-2.6c0.5-3.3,0.8-6.6,1.2-10c0.1-0.8,0.6-1.2,1.4-1.2c2.3-0.1,4.2,1,6,2.3c0.3,0.2,0.5,0.5,0.3,1.1
			c-0.3,1.1,0.2,1.8,1.4,1.8C228.2,157.8,229.4,158.3,230.7,158.3z"/>
		<path class="st2" d="M159.6,155.3c1-0.1,1,0.4,0.9,1.1c0,3.7,0,7.5,0,11.2c0,1.5,0.2,1.8,1.7,2.2c2.2,0.6,4.4,1.3,6.7,1.7
			c0.5,0.1,0.4,0.4,0.4,0.7c-0.5,2.4-0.9,4.9-1.4,7.3c-0.1,0.3-0.1,0.4-0.4,0.3c-2.5-0.7-5-1.3-7.5-2c-0.4-0.1-0.3-0.4-0.3-0.7
			C159.5,169.8,159.6,162.5,159.6,155.3z"/>
		<path class="st3" d="M201.8,167.8c0-4.4,0-8.7,0-13c0-0.4,0.1-0.7,0.4-1c1.8-1.8,3.7-3.7,5.5-5.5c0.4,0.3,0.2,0.6,0.2,0.9
			c-0.1,3.3,0.5,6.6,0.2,9.9c-0.1,1.2,0.1,2.5-0.8,3.5c-1.2,1.3-2.5,2.6-3.9,3.8C203,166.8,202.6,167.4,201.8,167.8z"/>
		<path class="st2" d="M153.9,154.6c-0.4,3-0.8,5.8-1.3,8.6c-0.4,2.9-0.9,5.7-1.4,8.6c-0.5,3.4-1.1,6.7-1.6,10.1
			c-0.1,0.8-0.2,1.6-0.3,2.4c-0.1,0.7-0.3,1.1-1.2,0.8c-2.3-0.6-2.2-0.6-1.8-2.8c1.2-6,2.3-12,3.5-18c0.6-3.3,1.3-6.7,1.9-10
			c0.1-0.7,0.6-0.7,1.1-0.6C153.3,153.8,154.3,153.6,153.9,154.6z"/>
		<path class="st2" d="M168.5,189c0.3-1.9,0.7-3.7,1-5.6c0.8-4.6,1.7-9.2,2.5-13.8c0.6-3.5,1.3-6.9,1.9-10.4
			c0.1-0.6,0.4-1.1,1.2-0.8c0.5,0.2,1.2,0,1,1.2c-0.9,4.8-1.5,9.7-2.2,14.6c-0.6,3.9-1.3,7.7-1.8,11.6c-0.2,1.3-0.6,2.6-0.5,3.9
			c0,0.2,0,0.5-0.2,0.5c-0.9,0.1-1.7-0.4-2.6-0.5C168.4,189.7,168.6,189.2,168.5,189z"/>
		<path class="st2" d="M152,183.2c0.3-2.3,0.6-4.5,1-6.8c0.4-2.8,0.9-5.7,1.4-8.5c0.6-3.9,1.1-7.8,1.9-11.7c0,0,0-0.1,0-0.1
			c0.2-0.5-0.3-1.6,0.6-1.5c0.7,0.1,0.3,1.1,0.3,1.6c0,7,0,14,0,21c0,0.7-0.2,1.2-0.7,1.7c-1.5,1.4-2.9,2.9-4.3,4.3
			C152.1,183.3,152.1,183.3,152,183.2z"/>
		<path class="st2" d="M174.2,188.3c0.4-2.7,0.8-5.1,1.2-7.5c0.4-2.8,0.8-5.6,1.3-8.4c0.4-2.8,0.9-5.7,1.3-8.5
			c0.2-1.2,0.3-2.5,0.5-3.7c0.1-0.3,0-0.9,0.6-0.8c0.5,0.1,0.3,0.6,0.3,0.9c0,6.2-0.2,12.3,0.1,18.5c0.1,3.1-0.5,5.5-3.1,7.3
			C175.6,186.6,175.1,187.4,174.2,188.3z"/>
		<path class="st3" d="M162.9,155.9c1.5,0.3,2.9,0.6,4.3,0.8c0.6,0.1,0.6,0.5,0.6,0.9c0,3.7,0,7.3,0,11c-1.5-0.4-3-0.7-4.5-1.1
			c-0.4-0.1-0.5-0.4-0.5-0.8C162.9,163.1,162.9,159.5,162.9,155.9z"/>
		<path class="st2" d="M145.6,172.8c0-6.6,0-13.1,0-19.7c0-0.8,0.3-1,1-0.7c0.2,0.1,0.5,0.1,0.7,0.1c0.7,0.2,1.8,0.2,2.1,0.6
			c0.3,0.5-0.1,1.5-0.3,2.2c-1.1,5.8-2.2,11.6-3.4,17.4C145.7,172.8,145.7,172.8,145.6,172.8z"/>
		<path class="st3" d="M132.9,109.3c0,1.6,0,3.1,0,4.7c0,0.7-0.3,0.8-0.8,0.7c-0.3-0.1-0.7-0.2-1-0.2c-0.7-0.1-1.1-0.4-1-1.3
			c0.1-2.2,0.1-4.4,0-6.6c0-1-0.2-1.9-0.2-2.9c0-0.2,0-0.6,0.1-0.7c0.8-0.2,1.5,0.3,2.3,0.4c0.4,0.1,0.7,0.4,0.7,0.9
			C132.9,106,132.9,107.6,132.9,109.3z"/>
		<path class="st3" d="M187.4,172.4c-0.2,0-0.2,0.1-0.3,0c-2.5-0.7-2.5-0.7-2.5-3.4c0-2.6,0-5.2,0-7.8c0-0.6,0-0.9,0.8-0.7
			c2,0.6,2,0.5,2,2.5C187.4,166.3,187.4,169.4,187.4,172.4z"/>
		<path class="st3" d="M117.8,105.2c0,1.5,0,3.1,0,4.6c0,0.7-0.2,0.8-0.8,0.7c-1.8-0.4-1.8-0.4-1.8-2.2c0-2.8-0.4-5.5-0.3-8.3
			c0-0.7-0.1-1.1,1-0.8c1.8,0.6,1.9,0.5,1.9,2.3C117.8,102.6,117.8,103.9,117.8,105.2z"/>
		<path class="st2" d="M112.5,141.6c-0.4,0.9-0.9,1.8-1.3,2.7c0,0.1-0.1,0.1-0.2,0.1c-1.4-0.3-2.7-0.7-4.1-1c-0.1,0-0.2-0.1-0.1-0.2
			c0.1-1,0.8-1.8,1.1-2.6c0.2-0.6,0.7-0.2,1-0.1c1,0.2,2,0.5,3.1,0.7C112.2,141.2,112.4,141.3,112.5,141.6z"/>
		<path class="st2" d="M134.1,149.1c0.5-0.9,0.9-1.7,1.4-2.6c0.2-0.4,0.5-0.5,0.9-0.4c1.1,0.3,2.2,0.6,3.3,0.8
			c0.5,0.1,0.5,0.2,0.3,0.6c-0.4,0.8-0.7,1.5-1.1,2.3c-0.2,0.5-0.6,0.2-0.9,0.2C136.7,149.8,135.5,149.4,134.1,149.1z"/>
		<path class="st3" d="M162.9,95c0,2.8,0,5.5,0,8.2c0,0.9-1,0.8-1.3,1.4c-0.5-0.2-0.3-0.6-0.3-0.9c0-2,0-4,0-6
			C161.2,96.1,161.2,96.1,162.9,95z"/>
		<path class="st3" d="M153.4,101.9c0,2.7,0,5.3,0,7.9c0,0.9-1.1,0.9-1.6,1.5c0-1.7,0-3.3,0-5c0-0.6,0.1-1.1,0-1.6
			C151.5,103.4,152,102.5,153.4,101.9z"/>
		<path class="st2" d="M112.7,174.8c-0.4-4.8-0.2-27.5,0.3-28.3C113.3,149.1,113.1,174,112.7,174.8z"/>
		<path class="st2" d="M140.5,152.5c0,9.3,0,18.7,0,28.1C139.9,178.7,140.1,153.2,140.5,152.5z"/>
		<path class="st0" d="M69.2,211.2c0-1.6-0.4-3.1-0.2-4.8c-0.5,1.2-1.9,1.3-2.6,0.6c-0.1-0.1-0.1-0.1-0.1-0.2
			c-0.1-1.5,1.7-3.9,3.1-4.2c1.1-0.2,1.8,0.6,2,2.2c0,0.6,0,1.3,0,1.9c2-0.1,3.7,0.6,5.4,1.2c0.6,0.2,0.2,1.3,0.4,1.9
			c0.4,1.3,2.5,2.4,3.7,1.8c1.6-0.8,2.5,0.5,3.6,1.2c0.3,0.2,1,0.6,0.7,1c-0.3,0.6-0.9,1.1-1.5,1.5c-0.3,0.2-0.6-0.4-0.9-0.7
			c-0.5-0.5-1-0.7-1.7-0.3c-0.8,0.5-1.5,0.5-2.4-0.1c-0.8-0.6-1.8-1-2.7-1.5c-0.8-0.4-1.1-1-1.1-1.8c0-0.7-0.2-1.3-0.9-1.4
			c-0.8-0.1-1.7-0.7-2.4,0.3C70.9,210.4,70.2,210.9,69.2,211.2z"/>
		<path class="st0" d="M191.7,236.7c1-1.1,1.6-2.3,2.6-3.3c1.5-1.4,3.6-1.9,5.6-1c0.5,0.2,0.9,0.4,1.3,0.7c2,1.3,1.7,0.6,0.5,2.4
			c-0.3,0.4-0.5,0.5-0.9,0.2c-0.2-0.1-0.3-0.2-0.5-0.3c-3-1.9-3.8-0.8-5.4,1.2c-0.5,0.6-0.8,1.3-1.3,1.9c-1,1.1-2.2,1.8-3.5,0.3
			c-0.7-0.9-1.6-1.7-2.3-2.6c-0.6-0.6-1-0.7-1.7,0c-0.9,1-1.6,2.1-2.1,3.3c-0.2,0.6-0.4,0.9-1.1,0.5c-1.4-0.7-1.5-0.7-0.8-2.1
			c0.6-1.3,1.3-2.6,2.4-3.5c2.1-1.8,4.4-1.3,6.1,1.2C190.9,235.9,191.4,236.2,191.7,236.7z"/>
		<path class="st0" d="M239.9,239.2c-1,1.4-1.7,2.8-2.9,3.7c-0.5,0.4-0.8,0.4-1-0.2c0-0.1-0.1-0.2-0.2-0.3c-0.6-0.7-0.8-1.2,0.2-1.9
			c1-0.8,1.6-2.2,2.4-3.2c1-1.2,2.4-1.8,3.4-0.6c0.4,0.5,0.5,1.1,0.5,1.7c0.2,3,0.2,3,3.2,2.3c0.7-0.2,1.3,0.2,1.9,0.4
			c1.5,0.8,3,1.7,4.5,2.5c0.5,0.2,0.5,0.4,0.3,0.9c-0.7,1.6-0.7,1.6-2.3,0.8c-1.6-0.8-3-2.2-5-2c-0.7,0.1-1.4,0.3-2.2,0.2
			c-1.6,0-2.2-0.5-2.5-2C240.1,240.9,240.1,240.1,239.9,239.2z"/>
		<path class="st0" d="M173.9,208.1c0.3-0.9,0.5-1.8,0.8-2.7c0.5-1.4,1.9-2.5,3.7-1.3c1.8,1.2,3.5,2.7,5.2,4
			c0.2,0.2,0.4,0.4,0.1,0.7c-0.3,0.3-0.5,0.7-0.8,1c-0.3,0.4-0.6,0.5-1.1,0.1c-1.2-1-2.5-2-3.7-3c-1-0.9-1.1-0.9-1.4,0.4
			c-0.3,1-0.5,1.9-1.1,2.8c-0.7,1.2-1.8,1.4-2.8,0.5c-0.4-0.4-0.8-0.8-1.3-1.2c-1.3-1.3-1.7-1.2-2.3,0.5c-0.3,0.7-0.4,0.9-1.2,0.6
			c-1.4-0.5-1.5-0.5-0.9-1.9c1.3-3.2,3.8-3.4,5.7-1.3C173.2,207.5,173.4,207.9,173.9,208.1z"/>
		<path class="st0" d="M70,62.1c-0.3,0.6-0.5,1.2-0.4,1.8c0.2,1.1-0.3,1.4-1.3,1.3c-0.9,0-1-0.3-1.1-1.1c0-0.9,0.1-1.9,0.3-2.8
			c0.2-0.9,0.7-1.8,1.8-2c1.1-0.2,1.9,0.4,2.5,1.2c1.1,1.4,2.1,2.9,2.9,4.6c0.3,0.6,0.6,0.8,1.2,0.6c0.7-0.2,1.3-0.4,2-0.6
			c1.4-0.4,2.4,0.3,2.5,1.8c0.1,0.7,0.4,1.3,0.8,1.9c0.1,0.2,0.5,0.4,0.2,0.7c-0.5,0.4-1.1,0.8-1.9,0.7c-0.7-0.1-1.1-0.6-1.3-1.3
			c-0.3-1.4-0.3-1.4-1.6-0.9c-3.2,0.9-2.4,1.2-4.1-1.7C71.8,64.8,71.1,63.4,70,62.1z"/>
		<path class="st0" d="M42.7,125.5c0.5-1.2,1.6-1.1,2.4-1.2c0.9-0.2,1.8-0.2,2.8-0.3c1-0.1,1.9,0.3,2.6,1c0.6,0.6,1.2,1.4,2,1.7
			c0.5,0.2,0.2,0.5,0.1,0.6c-0.2,0.6-0.5,1.2-0.8,1.7c-0.8-0.3-1.5-0.6-1.8-1.3c-1.1-1.8-2.7-1.3-4.3-1.2c-0.9,0.1-1.3,0.8-1.9,1.3
			c-1.2,1.3-2.2,1.1-3-0.5c-0.2-0.3-0.2-0.7-0.6-0.8c-0.4,1.3-1.3,1.6-2.5,0.8c-0.3-0.2-0.3-0.4-0.2-0.6c0.4-1,0.6-2,1.1-2.9
			c0.4-0.7,1-1.2,1.7-1.2c0.7,0,1.2,0.6,1.5,1.2C42.2,124.4,42.4,124.8,42.7,125.5z"/>
		<path class="st0" d="M79.7,133.1c0.8-1.9,1.6-3.6,2.4-5.4c0.4-0.9,1-1.4,2-1.7c1-0.3,0.8,0.1,0.9,0.7c0.2,2.5-0.7,4.9-0.8,7.4
			c0,0.4-0.5,0.7-1.2,0.3c-0.9-0.4-1.2,0-1.5,0.7c-0.3,0.7-0.9,1.4-1.2,2.1c-0.3,0.9-0.6,0.4-0.9,0c-0.4-0.5-0.7-1.1-1-1.7
			c-0.3-0.6-0.7-1.2-1.5-1.3c-0.7-0.2-0.7-0.5-0.4-1.1C77.1,131.9,78.3,131.9,79.7,133.1z"/>
		<path class="st0" d="M66,7.9c1.6,0.1,3.2,0.2,4.3,1.7c0.3,0.4,0.7,0,0.9-0.2c2.3-1.1,2.9-0.8,3.5,1.6c0.2,0.7-0.7,0.9-1.1,1.3
			c-0.4,0.4-0.8,0.6-1.1-0.2c-0.2-0.5-0.5-0.5-0.9-0.3c-1.3,0.8-2.3,0.4-3.3-0.7c-1.2-1.4-3-0.8-4.4-0.7c-1.3,0.1-2.6,0.5-3.8,1.1
			c-1.2,0.6-0.9-0.8-1.4-1.2c-0.4-0.4-0.1-0.7,0.4-1c1.6-0.8,3.3-1.2,5.1-1.4C64.8,8,65.4,8.1,66,7.9z"/>
		<path class="st0" d="M47,137.4c2.6,0,5.2,0.8,7.7,1.3c1.4,0.2,2.7,0.4,4.1,0.6c0.6,0.1,0.8,0.3,0.5,0.8c-0.3,0.5,0.4,1.4-0.5,1.6
			c-0.6,0.1-1.2-0.1-1.8-0.1c-3.5-0.3-6.8-1.7-10.4-1.7c-0.8,0-1.5,0.2-2.3,0.4c-0.4,0.1-0.7,0.6-1.1,0.2c-0.4-0.5-0.7-1.1-1-1.7
			c-0.1-0.3,0.3-0.4,0.5-0.5C44.2,137.5,45.6,137.3,47,137.4z"/>
		<path class="st0" d="M236.7,17.7c-0.1,0.6,0.1,1.5-1.2,1.4c-0.4,0-0.6,0.5-0.8,0.8c-0.7,1.1-2.3,1.7-3.1,1.2
			c-0.7-0.4-0.9-1.2-1.3-1.9c-0.4-0.6-0.6-1.2-1-1.8c-0.2-0.4-0.4-1-0.8-1.1c-0.5,0-0.6,0.6-0.8,1c-0.3,0.9-0.7,0.9-1.5,0.6
			c-1.1-0.4-1.2-0.9-0.6-1.9c0.5-0.8,1-1.7,1.9-2.1c1.6-0.7,2.5,0.1,3.7,2c0.4,0.6,0.7,1.4,1.1,2.1c0.3,0.6,0.6,0.5,0.8,0.1
			c0.6-1.2,1.6-1.3,2.7-1.3C236.7,16.8,236.7,16.8,236.7,17.7z"/>
		<path class="st0" d="M44.3,239.1c1-0.1,1.4,0.6,1.7,1.3c0.2,0.4,0.3,0.9,0.5,1.4c0.7,1.7,0.7,1.7,2.5,1.2c0.6-0.2,1.2-0.4,1.2,0.4
			c0,0.6,1.1,1.7-0.6,1.9c-0.8,0.1-1.5,0.4-2.2,0.6c-1,0.2-2.1-0.7-2.8-2.1c0-0.1-0.1-0.2-0.1-0.3c-0.7-1.7-0.7-1.7-1.9-0.4
			c-0.1,0.1-0.3,0.3-0.4,0.4c-1,1.3-1.7,1.3-2.6-0.1c-0.2-0.3-0.1-0.5,0-0.6c1.1-1.1,1.9-2.6,3.3-3.4
			C43.4,239.2,43.8,239,44.3,239.1z"/>
		<path class="st0" d="M170.6,27.2c3.3-0.2,6.2,0.9,9.2,2c0.3,0.1,0.7,0.2,0.3,0.7c-0.1,0.1-0.1,0.4-0.2,0.6c-0.2,1-0.6,1.2-1.7,0.8
			c-2.6-1.1-5.3-1.9-8.2-1.7c-1,0.1-2,0.1-2.9,0.6c-0.7,0.3-0.9,0-1.1-0.6c-0.1-0.6-1-1.2,0.2-1.7C167.7,27.2,169.1,27.1,170.6,27.2
			z"/>
		<path class="st0" d="M78.6,84.9c2,0.2,3.9,0.4,5.9,0.5c0.4,0,0.5,0.2,0.5,0.6c0.1,1.8-0.2,2.1-2.3,1.8c-2.5-0.4-5.1-0.8-7.6,0
			c-0.9,0.3-0.7-0.3-0.8-0.8c-0.4-1.4-0.2-1.7,1.2-1.8C76.5,85.1,77.5,84.8,78.6,84.9z"/>
		<path class="st0" d="M123.4,135.1c0,1.1,0.1,2.2,0,3.3c-0.2,1.3-0.8,1.6-2,1.3c-1.1-0.2-2.2-0.6-3.3-0.8c-1-0.2-1.2-0.8-1.3-1.7
			c-0.2-2.2,0.3-4.4,0.3-6.7c0-0.8,0.6-1.1,1.3-0.9c1.3,0.3,2.6,0.6,3.9,0.9c0.8,0.2,1,0.9,1.1,1.6
			C123.5,133.1,123.4,134.1,123.4,135.1C123.4,135.1,123.4,135.1,123.4,135.1z"/>
		<path class="st0" d="M132.6,137.2c0,1,0,2,0,3.1c0,1.2-0.5,1.7-1.7,1.5c-1.4-0.2-2.7-0.5-4-1c-0.8-0.3-1-1.1-0.9-1.9
			c0.4-1.9,0.1-3.7,0.2-5.6c0-1.3,0.7-1.9,2.1-1.6c0.9,0.2,1.9,0.4,2.8,0.6c0.9,0.3,1.6,0.7,1.5,1.9
			C132.6,135.3,132.6,136.3,132.6,137.2z"/>
		<path class="st0" d="M114,133.1c0,1.1,0,2.1,0,3.2c0,1.1-0.5,1.6-1.7,1.4c-1.2-0.2-2.3-0.6-3.5-0.8c-0.8-0.2-1.2-0.7-1.2-1.5
			c0-2-0.1-4,0-6c0.1-1.5,0.5-2.2,2.2-1.6c1,0.4,2.1,0.5,3.1,0.8c0.7,0.2,1,0.6,1,1.3C114,130.9,114,132,114,133.1z"/>
		<path class="st0" d="M141.9,139.4c0,1.1,0,2.2,0,3.3c0,0.9-0.4,1.3-1.3,1.3c-1.5-0.1-2.9-0.6-4.3-0.9c-0.6-0.1-0.8-0.6-0.8-1.3
			c0-2.1,0-4.2,0-6.2c0-1.4,0.6-1.8,2-1.6c1.1,0.2,2.2,0.5,3.3,0.8c0.8,0.2,1.1,0.7,1.1,1.4C141.8,137.3,141.8,138.3,141.9,139.4z"
			/>
		<path class="st3" d="M120.8,137c-0.4-0.1-0.7-0.1-1.1-0.2c-0.3-0.1-0.6-0.2-0.5-0.8c0.2-0.9,0.1-1.9,0.1-2.8
			c0-0.3-0.2-0.9,0.5-0.8c0.5,0,1,0.1,1,0.9C120.8,134.5,120.8,135.8,120.8,137z"/>
		<path class="st3" d="M130.3,137c0,0.4,0.1,0.8,0,1.2c-0.1,0.3,0.3,1-0.4,0.9c-0.5-0.1-1.4,0-1.3-1.1c0.1-0.9,0-1.9,0-2.8
			c0-0.4,0-0.8,0.6-0.7c0.5,0.1,1,0,1.1,0.8C130.3,135.9,130.3,136.5,130.3,137z"/>
		<path class="st3" d="M111.6,134.9c-1.6-0.3-2.1-1.5-1.5-3.6c0.1-0.3-0.2-1.2,0.7-1c0.7,0.1,0.9,0.5,0.9,1.2c-0.1,1.1,0,2.1,0,3.2
			C111.6,134.8,111.6,134.9,111.6,134.9z"/>
		<path class="st3" d="M139.5,139.2c0,0.4,0.1,0.8,0,1.2c-0.1,0.3,0.3,1-0.3,0.9c-0.5-0.1-1.4,0-1.3-1c0.1-0.9,0-1.8,0-2.7
			c0-0.3-0.1-1,0.5-0.8c0.5,0.1,1.2,0,1.1,1C139.4,138.1,139.5,138.7,139.5,139.2z"/>
	</g>
	<g id="g4472-1-2-5" transform="matrix(1.256663,0,0,1.2566665,-618.91292,-234.3267)">
		<path id="path4468-0-3-1" class="st5" d="M616.1,308.4l-4.1,26.9l6.5-6.5v-20.6"/>
		<path id="path4470-8-5-8" class="st6" d="M612,335.2l-4.5-1.1l5.1-26.6"/>
	</g>
	<path id="path3271-3-8-5" class="st7" d="M133.5,69.1l12.6-7.8l28.6,23.1L145.1,106L133.5,69.1z"/>
	<path id="path3273-7-3-4" class="st8" d="M133,69.6L98,92.9l46.8,12.4L133,69.6z"/>
	<path id="path3275-8-5-4" class="st9" d="M139.8,64.3l-0.5-19.9"/>
	<path id="path3277-8-6-4" class="st7" d="M133,55.5l12.1-7.8"/>
	<path id="path3279-3-1-7" class="st10" d="M143.2,123.5l28.2-20.4l-0.5-16"/>
	<path id="path3281-8-7-1" class="st10" d="M144.2,105.6v17"/>
	<path id="path3283-1-9-1" class="st10" d="M105.3,114.8l39.3,9.2"/>
	<path id="path3285-5-2-5" class="st10" d="M104.8,94.9v21.4"/>
	<path id="path3287-3-4-7" class="st10" d="M171.4,102.8c0,8.5,0,15.8,0,19.9"/>
	<path id="path3289-5-8-0" class="st10" d="M144.2,123.2v54.7"/>
	<path id="path3291-4-3-6" class="st8" d="M142.7,150.2l52.5,11.2l9.7-26.7L158.7,124L142.7,150.2z"/>
	<path id="path3293-3-9-7" class="st8" d="M158.5,124l21.9-3.4l39.5,10.2l-15.5,4"/>
	<path id="path3295-6-6-5" class="st7" d="M214.6,132.3l0.5,31.1L195.2,187l-0.5-26.1"/>
	<path id="path3297-5-4-5" class="st10" d="M104.9,114.2l0,30.1"/>
	<path id="path3299-9-7-1" class="st8" d="M129,176.6l-0.3-26.3l-11.3-2.5v21.4l0.1,4.5"/>
	<path id="path3305-9-7-5" class="st8" d="M113.6,97.8l0.1,13l5.2,1.1V98.3"/>
	<path id="path3311-7-3-3" class="st10" d="M107.2,178.5c-10.8,10,3.9,41.6,17.7,54.5c2.8,2.7,10.1,41.9,7.9,45"/>
	<path id="path3313-5-1-0" class="st10" d="M132,178.4c-4.3,6.4-13.4,12.1-10.2,21.9c0.7,2.2,16.6,20.8,19.7,24.3
		c3.3,3.7,3.5,17,4.7,24.8c0.6,3.8,2.3,9.8,3.6,12.4c1.9,3.8,0.4,11.9,1.5,16.1"/>
	<rect id="rect3315-5-7-2" x="0.9" y="1.1" class="st8" width="281.7" height="281.2">
	</rect>
	<path id="path3419-4-1" class="st7" d="M159.9,95.5v11.4l4.1-3V92.5"/>
	<path id="path4189-9-9" class="st7" d="M202.4,169c0,0,6-5.5,6.6-6.6s0-17.3,0-17.3l-8.4,8.4v17.2L202.4,169z"/>
	<path id="path4191-6-0" class="st8" d="M183.3,160v12.7l5.3,1.4v-13.2"/>
	<path id="path4193-9-7" class="st8" d="M161.6,154.8v13.4l7.4,2v-14.1"/>
	<path id="path4203-8-7" class="st7" d="M127.3,132.7l-0.2,6.9l4.1,1l0-7l-3.5-0.8"/>
	<path id="path4248-0-5" class="st10" d="M104.9,139.9c-3.2-0.5-11.6-1.9-12.5,2.6c-0.5,2.4,2.2,2.5,2.2,3.3c0,0-2.7,0-2.8,0
		c-1.4,0.2-3.4,1.7-4,2.8c-0.7,1.1-2,4.9-1.1,6.3c0.5,0.7,3.2,0.5,2.4,0.7c-0.9,0.2-1.6,0.4-2.4,0.7c-2.5,0.9-9.4,3-7.2,7.4
		c2.1,4.3,8.4,2.1,9.6,3.3c0.2,0.2-1.9,2-2.2,2.4c-0.6,0.8-1.3,3.2-0.6,4.2c1.5,1.9,6.3,4.1,8.6,2.4c1.2-0.9,2.7-1.7,3.7-2.9
		c0.2-0.2,0.6-0.8,0.6-0.6c0,5.9,4.7,0.1,5.6-1.7"/>
	<path id="path4269-3-8" class="st10" d="M58.7,10.4c2-1.4,6.5-2.1,9-1.5c0.9,0.2,1.3,1.4,2,1.7c0.8,0.3,2.7-1.3,2.8-1.1
		c0.5,0.7,0.5,1.5,1.1,2"/>
	<path id="path4271-6-4" class="st10" d="M68.1,64.7c0.1-11.3,5.8,2,6.3,2.2c0.5,0.2,4.3-1.8,4.6-0.7c0.4,1.5-0.1,3.6,1.7,1.8"/>
	<path id="path4273-6-4" class="st10" d="M74,86.6c4.1-1.4,6.8-0.2,10.7-0.2"/>
	<path id="path4275-5-7" class="st10" d="M38.3,127.4c1.8-7.4,2.7-1,3.5-0.2c0.6,0.6,1.2-1.1,1.8-1.7c0.5-0.4,2.6-0.3,3.5-0.6
		c2.1-0.7,3.2,2.4,4.8,2.8"/>
	<path id="path4277-4-3" class="st10" d="M42.5,139.4c4-2.7,10.4,0.9,16.4,0.9"/>
	<path id="path4279-2-3" class="st10" d="M76.9,134.2c0.3-0.6,0.6-1.3,1.3-0.7c0.6,0.5,0.9,1.6,1.3,2c0.1,0.1,3.3-7.1,3.7-7.9
		c1.3-2.6-1.4,8.9-0.4,5.9"/>
	<path id="path4281-3-3" class="st10" d="M67,207.3c0.4-1.2,0.7-3.1,2.2-3.5c1-0.3,0.5,5.6,0.7,5.5c0.7-0.2,0.9-1.3,1.7-1.5
		c0.5-0.1,3.8,0.8,3.9,0.9c0.2,0.6,0.1,2.4,0.6,2.8c1.2,0.9,2.4,0.9,3.3,1.8c0.6,0.6,1.7-1.1,2.4-0.7c0.8,0.4,1.8,1.2,2.4,1.8"/>
	<path id="path4283-1-0" class="st10" d="M39.9,244.1c5.9-7.4,3.7-2,6.3,0.6c0.6,0.6,3-0.6,3.7-0.6"/>
	<path id="path4285-2-2" class="st10" d="M167.8,210.2c2-7.1,5.3,0.1,6.3-0.4c1.9-1,0.7-7.3,4.4-4.2c1.5,1.3,3,2.5,4.6,3.7"/>
	<path id="path4287-1-7" class="st10" d="M182.5,239.7c5-11.6,7.8-0.2,9.4-1.3c2.3-1.6,3.4-8.3,10.1-3.3"/>
	<path id="path4289-2-5" class="st10" d="M235.9,242.4c1.5-0.7,2-2.3,2.9-3.5c3.5-4.4,1.9,2.3,3.1,3.5c0.6,0.6,3.7-0.6,4.6-0.2
		c1.9,0.7,3.5,2,5.3,2.9"/>
	<path id="path4295-5-5" class="st10" d="M216.8,153.2c1.2-4.1,8.7-0.6,10.1,1.8c0.3,0.5-0.6,1.7,0,1.7c1,0,8.6,0,5,2.4
		c-1.5,1-3.8,0.7-5.3,1.5c-0.1,0,1.5,0.3,1.7,0.6c0.8,1,2.4,5,0.6,5.5c-2.4,0.7-4.9-0.4-6.8-0.4c-0.4,0-4.2,4.6-6.6-1.5L216.8,153.2
		z"/>
	<path id="path4299-6-6" class="st10" d="M226.3,17.4c3-7.8,5.2,2.9,6.3,2.4c2.4-1.2,1.1-2.7,4-2.2"/>
	<path id="path4301-4-1" class="st10" d="M166,28.8c3.8-1.9,9.7-0.5,13.8,1.3"/>
	<g id="g4472-8-8" transform="matrix(1.256663,0,0,1.2566665,-606.36366,-231.62541)">
		<path id="path4468-01-4" class="st5" d="M623.8,310l-4.1,26.9l6.5-6.5v-20.6"/>
		<path id="path4470-0-1" class="st6" d="M619.5,337l-4.1-1.1l5-26.7"/>
	</g>
	<path id="path4500-5-4" class="st10" d="M159.1,178.8l10.4,2.8"/>
	<path id="path4502-4-2" class="st7" d="M180.7,183.6l13.5,3.5"/>
	<path id="path3305-9-4-2-1" class="st8" d="M128.5,102.1l0.1,13l5.2,1.1v-13.6"/>
	<path id="path4725-6-4" class="st7" d="M107.3,138.7l-0.6,1l-2.4,4.5l0.3,0.1v-0.2l6.4,1.5v0.3l0.4,0.1l2.6-5.6L107.3,138.7z
		 M111.1,145.9l-6.6-1.8l0.2,33.8l6.4,1.3L111.1,145.9z M114,140.7v34V140.7z M114.2,174.7l-3.2,4.4L114.2,174.7z"/>
	<path id="path4725-2-7-9" class="st7" d="M135,144.5l-0.6,1l-2.2,4.3l0.2,0.3v-0.2l6.4,1.5v0.3l0.4,0.1l2.6-5.6L135,144.5z
		 M138.7,151.7l-6.6-1.8l0.2,33.8l6.4,1.3L138.7,151.7z M141.7,146.5v34V146.5z M141.9,180.5l-2.9,4.2L141.9,180.5z"/>
	<path id="path4747-9-7" class="st10" d="M114.8,173.1L133,178"/>
	<path id="path4203-9-5-8" class="st7" d="M108.7,128.5l-0.2,6.9l4.1,1l0-7l-3.5-0.8"/>
	<path id="path4203-90-9-2" class="st7" d="M136.6,134.9l-0.2,6.9l4.1,1l0-7L137,135"/>
	<path id="path4203-93-1-3" class="st7" d="M118,130.6l-0.2,6.9l4.1,1l0-7l-3.5-0.8"/>
	<path id="path3419-0-0-4" class="st7" d="M150.4,102.3v11.4l4.1-3V99.3"/>
</g>
</svg>
