<?xml version="1.0" encoding="utf-8"?>
<!-- Generator: Adobe Illustrator 25.0.0, SVG Export Plug-In . SVG Version: 6.00 Build 0)  -->
<svg version="1.1" id="Layer_1" xmlns="http://www.w3.org/2000/svg" xmlns:xlink="http://www.w3.org/1999/xlink" x="0px" y="0px"
	 viewBox="0 0 283.5 283.5" style="enable-background:new 0 0 283.5 283.5;" xml:space="preserve">
<style type="text/css">
	.st0{fill:#FEFEFE;}
	.st1{fill:#86AC50;}
	.st2{fill:#86AD51;}
	.st3{fill:#B9A58C;}
	.st4{fill:#EF653C;}
	.st5{fill:#054D08;}
	.st6{fill:none;stroke:#000000;stroke-width:1.7785;stroke-linecap:round;stroke-linejoin:round;}
</style>
<g id="g3174" transform="translate(195.16485,147.04251)">
	<g>
		<path class="st0" d="M88.3-5.3c0,46.9,0,93.8,0,140.6c0,0.9-0.2,1.1-1.1,1.1c-93.8,0-187.5,0-281.3,0c-0.9,0-1.1-0.2-1.1-1.1
			c0-93.8,0-187.5,0-281.3c0-0.9,0.2-1.1,1.1-1.1c93.8,0,187.5,0,281.3,0c0.9,0,1.1,0.2,1.1,1.1C88.3-99.1,88.3-52.2,88.3-5.3z"/>
		<path class="st1" d="M-27.6-3.7c-0.2,0.1-0.2,0.1-0.3,0.1c-0.9-0.1-1.9,0-2.3,0.9c-0.4,0.9-0.2,1.8,0.5,2.6
			c0.6,0.6-0.2,0.7-0.4,0.7c-0.8,0.2-1.6,0.6-2.2,1.2c-0.2,0.2-0.4,0.4-0.4,0.7c0,2.3-2.2,3.6-2.7,5.7c-0.4,1.5,0.1,2.7,1.4,3.3
			c0.4,0.2,0.4,0.4,0.4,0.7c-0.3,2.4,0.4,3.2,2.7,3.1c0.3,0,0.5,0,0.8-0.1c-1.3,1.8-3,3-4.5,4.5c-0.4,0.4-0.5,0.1-0.7-0.1
			c-1.8-1.3-3.5-2.8-5.6-3.7c-2-0.9-4-1.7-6.3-0.9c-2.2,0.8-2.8,1.4-2.8,3.8c0,0.7-0.3,1.1-0.9,1.3c-1,0.4-1.8,1.1-2.1,2
			c-0.4,1.2,0,2.2,0.9,3c0.8,0.7,0.8,1.3,0.2,2.1c-0.2,0.3-0.3,0.6-0.5,0.9c-1.2,2.3,0,4.3,2.6,4.4c2,0.1,4,0.1,5.9-0.4
			c1.2-0.3,1.4-0.1,1.4,1.2c0,1.1,0,2.3,0,3.4c0,1,0.5,1.5,1.5,1.5c1.7,0,3.4-0.1,5.1,0.4c-0.5,1.1-0.9,2.2-1.4,3.2
			c-2.4,4.9-4.7,10-7.4,14.8c-1.5,2.6-3.5,4.7-5.1,7.2c-3.3,5.1-5.6,10.5-6.8,16.4c-0.5,2.6-1.5,5.1-2.6,7.4c-1,2.1-1.3,4.3-1.6,6.5
			c-0.5,4.2-0.9,8.5-0.4,12.8c0.7,6.5,0.6,13,0.6,19.5c0,2.3-0.2,4.7-0.2,7c0,0.6-0.2,0.8-0.7,0.7c-0.3,0-0.6,0-0.8,0
			c-42.8,0-85.6,0-128.4,0c-1.2,0-1.5-0.3-1.5-1.5c0-45.3,0-90.5,0-135.8c0-1.1,0.2-1.6,1.4-1.5c3.3,0.3,6.7,0.5,10,0.9
			c2.1,0.3,4.2,0.3,6.3,0.5c4.7,0.3,9.3,0.8,14,0.7c3.9-0.1,7.9-0.4,11.8-0.5c3.8-0.1,7.6-0.7,11.2-1.9c4.2-1.4,8.6-2.3,12.9-3.3
			c3.5-0.8,7-1.4,10.5-1.9c3.3-0.4,6.6-0.5,9.9-0.4c3.9,0.2,7.5,1.1,11,3.1c1.5,0.8,1.9,2.3,2,3.7c0.2,2.5,0.1,5.1,0,7.7
			c0,1.1,0.3,1.7,1.3,2c2.9,1,5.8,2,8.8,3c-0.7,0.9-1.8,1.4-2.8,2.1c-1.6,1.1-3.2,2.4-4.9,3.4c-0.6,0.3-1,1.1-1.5,1.6
			c-1.8,2.1-3.6,4.1-5.3,6.2c-0.9,1.1-0.6,1.8,0.8,2.1c0.6,0.1,0.5,0.4,0.5,0.8c0,3.2,0.1,6.4,0,9.6c0,1,0.4,1.5,1.3,1.9
			c3.8,1.6,7.6,3.2,11.4,4.9c0.8,0.4,1.4,0.2,2-0.4c3.5-3.5,7-6.9,10.3-10.5c0.3-0.4,0.3-0.8,0.3-1.2c0-2.7,0.1-5.4,0-8
			c0-1.2,0.3-1.9,1.3-2.5c1.7-1.1,1.6-1.2,0.7-3c-0.4-0.7-0.7-1.5-1.1-2.2c0-0.1,0-0.1,0-0.1c4.7-1.2,9.3-2.3,14-3.5
			c0.8-0.2,1.5-0.4,2.3-0.6c0.9-0.2,1.3-0.7,1.3-1.7c0-1.3,0-2.5,0-3.8c0-1.2-0.1-2.3,0.2-3.5c0.5-2.1-1-3.4-2-4.8
			c-2-2.8-4.1-5.4-6.1-8.1c-0.3-0.4-0.6-0.6-1-0.7c-6.7-2-13.3-4.2-20-6c-0.8-0.2-1.6-0.6-2.3,0.1c-0.3,0.4-0.5,0-0.8-0.2
			c-1.6-1.1-3.1-2.2-4.7-3.1c-3.4-1.9-7.1-3.3-10.9-4.1c-3.4-0.7-6.8-0.2-10.2,0c-2.1,0.1-4.1,0.3-6.2,0.5c-3,0.3-6,0.8-9,1.2
			c-3,0.5-5.9,1-8.9,1.6c-3.2,0.6-6.4,1.1-9.6,1.6c-2.7,0.4-5.4,0.6-8.1,1c-4.1,0.6-8.2,0.8-12.3,0.9c-5.4,0.1-10.9-0.3-16.3-1.3
			c-2.9-0.5-5.9-0.9-8.9-0.7c-0.9,0-1.8,0-2.7,0c-1.6,0-1.7-0.2-1.7-1.7c0-39.8,0-79.5,0-119.3c0-1.2,0.3-1.5,1.5-1.5
			c43,0,86.1,0,129.1,0c1.7,0,1.8,0,1.9,1.8c0.2,6.8,2.9,12.8,7,18c2.2,2.7,4.6,5.3,6.9,7.9c3.9,4.5,7.2,9.3,8.8,15.1
			c1,3.5,0.3,6.9-1,10.2c-1.8,4.9-4.9,9.2-7.2,13.9c-1.2,2.5-2.1,5-1.8,7.8c0.2,2.2,0.6,4.4,1,6.5c0.2,1.1,0.1,2.2-0.1,3.3
			c-1.5-2.3-3-4.5-4.5-6.8c-0.7-1-1.3-2-2-3c-0.8-1.2-1.5-1.3-2.7-0.4c-2.2,1.7-4.3,3.4-6.5,5.1c-4.1,3.1-7.9,6.4-11.6,10
			c-1.5,1.4-3.1,2.8-4.6,4.2c-0.8,0.7-1.3,1.5-1.1,2.6c-1.6-0.7-3-1.6-4.7-1.9c-2-0.5-3.1,0.1-3.8,1.9c0,0.1,0,0.2-0.1,0.3
			c-0.4,1-0.3,2.2-2.2,2.1c-2.4-0.2-2.9,2.2-2,3.9c0.3,0.5,0.4,0.8-0.3,1c-1.1,0.3-1.2,1.3-1.3,2.1c-0.1,1.1,0,2.1,0,3.2
			c0,0.7,0.4,1.2,1.1,1.4c1.2,0.3,2.4,0.7,3.7,0.5c0.4-0.1,0.6-0.1,0.8,0.4c0.4,1,0.9,1.9,2.2,1.9c1.5,0,3-0.2,3.7-1.8
			c0.1-0.3,0.3-0.6,0.6-0.3c0.5,0.6,1.2,0.4,1.9,0.5c0.2,0,0.5,0,0.6,0.1c0.7,1.4,1.9,0.7,2.9,0.9c3.4,0.4,6.8,0,10.2,0.3
			c2.7,0.2,5.4-0.2,8,0.3c2,0.3,3.1-0.7,4.3-1.8c2-1.9,4-3.7,6-5.6c1.5,1.7,3.1,3.3,4.4,5c0.9,1.1,1.9,1.2,3.1,1.1
			c2.2-0.2,4.5-0.4,6.7-0.7c1.1-0.1,2.1-0.3,3.2-0.4c0.8-0.1,1.1-0.7,1.1-1.4c-0.1-2.3,0.3-4.5,0.3-6.8c0-1.6,0.1-3.2,0.2-4.8
			c0-0.3,0.1-0.5,0.3-0.7c0.6-0.6,0.9-1.2,0.5-2c-0.2-0.5,0.1-0.9,0.2-1.3c0.6-3.9,0.1-7.7-0.1-11.6c-0.2-4.3,1.1-8.2,2.8-12
			c2.7-6.2,5.9-12.2,8.4-18.5c0.8-2,1.7-3.9,1.4-6.2c-0.2-1.6-0.4-3.2-0.7-4.8c-0.3-1.4-0.2-2.7-0.2-4.1c0.1-3.3-0.8-6.2-2.5-9
			c-1.3-2.2-2-4.8-3.6-6.9c-1.4-1.9-3.2-3.5-4.9-5.2c-3.2-3-6.8-5.6-8.8-9.6c-0.6-1.3-0.9-2.7-1-4.1c-0.1-1.1,0.3-1.5,1.4-1.5
			c22.1,0,44.3,0,66.4,0c17.9,0,35.8,0,53.7,0c1.1,0,1.4,0.2,1.4,1.4c0,38.1,0,76.1,0,114.2c0,0.5,0.2,1.5-0.1,1.6
			c-1,0.1-1.5,1.2-2.5,1.1c-1.5-0.1-3.1-0.1-4.6,0c-0.9,0-1.2-0.4-1-1.1c0.3-1.5-0.5-2.5-1.5-3.5c-0.4-0.4-0.9-0.8-1.5-0.5
			c-0.6,0.3-0.9,0.8-0.9,1.5c0.1,1.8,0,3.6,0,5.4c0,0.6-0.1,0.9-0.9,0.7c-0.6-0.2-1.4-0.2-2.1,0c-0.7,0.2-1.2,0.5-1.1,1.3
			c0.1,0.8,0.7,1,1.3,1.1c0.5,0.1,1.1,0,1.6,0c0.6,0,1.1,0,1.7,0.3c0.9,0.4,1.6-0.1,1.7-1.1c0-0.2,0-0.4,0-0.6
			c0.1-0.9,0.2-1.5,1.5-1.1c1.3,0.4,2.8-0.2,4.2-0.1c1.3,0.1,2.7,0.1,4-0.7c0,0.5,0,0.8,0,1.1c0,2.1,0,2.2-2,2.2
			c-5.7,0.1-11.2,1.5-16.6,3c-6.8,1.9-13.5,4.3-19.8,7.4c-2,1-4.3,1.4-6.5,1.6c-4.3,0.4-8.2,1.8-11.9,3.9c-3.2,1.8-6.7,3-10.1,4.1
			c-5.3,1.8-10.7,3-16.2,3.9C-1.1,3.3-4.6,3.2-8.1,2.1c-0.1,0-0.1-0.1-0.2-0.1C-6,1.7-6,1.7-5.8-1.9C-4.7-1.8-3.8-2-3-2.8
			c0.8-0.7,1.6-0.9,2.7-0.6c1.4,0.3,2.8,0.1,3.7-1.1c0.8-1,0.8-2.2,0.2-3.4C3.3-8.4,3.5-8.6,4-8.9c0.7-0.4,1.3-0.9,1.8-1.5
			c0.6-0.7,1.1-1.5,0.7-2.4c-0.3-0.9-1.2-1.3-2.2-1.5c-0.7-0.1-1.4-0.2-2.2-0.3c0-0.2,0-0.3,0.1-0.4c2.1-1.3,2.4-1.8,1.6-4
			c-0.3-0.8-0.2-1.2,0.4-1.9c1.4-1.8,1.5-3.4-0.9-4.4c-0.5-0.2-0.9-0.5-1.4-0.6c-0.7-0.1-0.7-0.5-0.5-1c0.3-0.7,0.3-1.4-0.1-2.1
			c-0.3-0.7-0.8-1-1.6-1c-1.1,0-2.2,0-3.3,0c-1.3,0-1.9,1-2.5,1.9c-0.1,0.2-0.1,0.6-0.6,0.3c-2.5-1.4-4.3-1-6,1.2
			c-2.4-3-4.9-5.9-7.3-8.9c-1.1-1.3-1.6-1.3-2.7-0.1c-3.4,3.7-6.7,7.5-10.1,11.2c-0.4,0.4-0.8,0.8-1.2,1.3c-0.7,0.8-0.9,1.8,0,2.4
			c1.9,1.3,1.3,3.1,1.2,4.8c-0.1,1.8-0.4,3.6-0.4,5.5c0,0.4,0.2,0.6,0.4,0.9C-31.1-7.5-29.4-5.6-27.6-3.7z"/>
		<path class="st2" d="M85.7,70.1c0,20.9,0,41.8,0,62.7c0,1-0.2,1.4-1.3,1.4c-40.8,0-81.6,0-122.5,0c-0.7,0-1.2,0.2-1.4-1
			c-0.4-2.7-0.8-5.4-1.1-8c-0.5-4.3-0.4-8.6-0.8-12.8c-0.5-5.4,0.8-10.5,2.2-15.5c1.5-5.2,2.9-10.5,3.7-15.9
			c0.5-3.2,0.8-6.4,0.7-9.7c0-3.3,0.8-6.4,1.6-9.6c1.4-5.6,3.4-11,4.6-16.6c0.3-1.5,0.7-2.9,0.7-4.5c0-1.6,0.5-2.1,2.1-1.8
			c2.3,0.4,4.6,0.3,6.9,0.1c1.1-0.1,1.7-1.4,2.5-2.2c1.8-1.8,3.4-3.8,5.2-5.6c1-1,1.7-2.1,1.5-3.6c-0.1-0.6,0-1.2,0-1.8
			c0-1.3,0.2-1.5,1.4-1.2c0.6,0.2,1.2,0.2,1.7,0.2c4.3-0.1,8.5,0.5,12.7,0.8c6.5,0.4,12.9,0.4,19.1-1.9c3.1-1.2,5.9-3,8.8-4.7
			c4-2.3,7.8-5,12.3-6.4c2.8-0.9,5.7-1.3,8.5-2.3c1.7-0.6,3.2-1.3,4.6-2.5c1.2-1.1,2.8-1,4.3-1.1c6.9-0.4,13.8-0.6,20.7-0.5
			c1,0,1.3,0.3,1.3,1.3C85.7,28.3,85.7,49.2,85.7,70.1z"/>
		<path class="st3" d="M85.7-7.6c0,3.5,0,6.9,0,10.4c0,0.8-0.3,1.1-1.1,1c-2.6,0-5.3,0-7.9,0c-3.7-0.1-7.4,0.3-11.1,0.3
			c-1.6,0-3.2,0.2-4.8,0.5c-1.2,0.2-2.2,0.7-3.2,1.5c-1.9,1.6-4.2,2.1-6.5,2.7c-3.7,0.9-7.5,1.7-10.9,3.7c-3.1,1.8-6.2,3.6-9.2,5.5
			c-3.2,1.9-6.4,3.8-10.2,4.6c-4.5,0.9-8.9,1.2-13.5,0.7C6,23,4.5,23.1,3,22.9c-3.9-0.3-7.8-0.5-11.7-0.7c-0.6,0-0.8-0.2-0.7-0.8
			c0.1-1.5-0.6-2.6-1.6-3.6c-2.4-2.4-4.7-5-7-7.4c-0.2-0.3-0.5-0.4-0.2-0.9c0.8-1.2,0.5-2.5-0.9-3.1c-0.6-0.3-0.8-0.5-0.8-1.1
			c0-0.3-0.1-0.5-0.2-0.8c-0.5-1.5-0.5-1.5,1-2c1.4-0.5,2.7-0.3,4.1,0.1c2.8,0.8,5.7,1.7,8.5,2.3c2.9,0.7,5.9,0.6,8.8,0.1
			C7.2,4.4,12,3.4,16.6,1.9c4.5-1.4,8.8-3,13.1-4.8c2.7-1.1,5-3,7.9-3.4c2.3-0.4,4.7-0.7,7-1.2c2.7-0.5,5-2,7.4-3
			c5.2-2.2,10.5-4.1,15.9-5.6c2.8-0.8,5.6-1.4,8.5-2c2.9-0.6,5.9-0.8,8.8-1c0.7,0,0.4,0.6,0.4,0.9C85.7-14.6,85.7-11.1,85.7-7.6z"/>
		<path class="st3" d="M-30.3-52.3c-1.4-1.9-2.7-3.6-3.9-5.2c-1.2-1.7-1.7-1.7-3.3-0.4c-1.7,1.4-3.4,2.7-5.1,4.1
			c-0.2-0.2-0.3-0.4-0.4-0.6c-1-1.3-1.4-2.5-1-4.3c0.6-2.4,0.2-5.1-0.5-7.5c-1.2-4.3-0.2-8.1,2-11.9c2.4-4.1,4.9-8.2,6.5-12.8
			c2-5.4,1.7-10.6-0.8-15.7c-1.9-4.1-4.5-7.7-7.4-11.2c-3.4-3.9-7.1-7.6-9.8-12.1c-1.9-3.2-3.2-6.7-3.7-10.5c-0.1-1-0.2-2-0.2-3
			c0-0.6,0.1-0.9,0.8-0.9c5.5,0,11,0,16.5,0c0.6,0,0.8,0.2,0.8,0.8c-0.1,4.1,1.6,7.4,4.3,10.3c2.6,2.8,5.5,5.2,8.2,7.8
			c2.1,2,3.8,4.3,4.9,7c0.6,1.5,1.3,2.9,2.1,4.3c1,1.7,1.3,3.6,1.3,5.5c-0.1,3.3,0.3,6.5,0.9,9.6c0.3,1.7-0.5,3.2-1.1,4.7
			c-1.8,4.6-4.1,9-6.1,13.5c-2,4.2-4.1,8.4-5.1,13c-0.4,1.9-0.4,3.9-0.3,5.9C-30.3-58.8-29.9-55.7-30.3-52.3z"/>
		<path class="st3" d="M-58.5,122.8c0-2.9,0-5.8,0-8.7c0-2.3-0.5-4.6-0.6-7c-0.2-2.6-0.3-5.2,0.1-7.7c0.2-1.2,0.2-2.4,0.2-3.5
			c0.1-3.9,1.5-7.4,3-10.9c1-2.3,1.3-4.8,2-7.2c1.4-5.4,3.8-10.3,7.2-14.7c4-5,6.7-10.7,9.3-16.4c1.2-2.6,2.5-5.2,3.7-7.8
			c0.2-0.4,0.4-0.4,0.7-0.4c0.7,0.1,1.5,0.1,2.2,0.2c0.5,0.1,0.4,0.5,0.4,0.8c0.1,2.3-0.5,4.5-1.1,6.7c-1.4,5.3-3,10.5-4.4,15.8
			c-0.9,3.3-1.3,6.7-1.4,10.1c-0.2,6.3-1.2,12.4-2.9,18.5c-1.2,4.6-2.8,9.1-3.5,13.9c-0.5,3.6-0.5,7.2-0.2,10.9
			c0.2,1.7,0.1,3.4,0.2,5c0.3,3.9,0.7,7.8,1.4,11.7c0.4,2,0.4,2-1.6,2c-4.6,0-9.1,0-13.7,0c-1,0-1.3-0.2-1.3-1.2
			C-58.4,129.5-58.5,126.2-58.5,122.8z"/>
		<path class="st3" d="M-192.5-13.7c0-1.8,0-3.5,0-5.3c0-0.5,0-0.7,0.7-0.7c1.8,0.1,3.6,0.5,5.4,0.3c2.8-0.2,5.5,0.3,8.3,0.8
			c2.3,0.4,4.5,0.7,6.8,0.8c3.4,0.2,6.9,0.5,10.3,0.3c4.2-0.3,8.5-0.5,12.7-1.1c4.4-0.6,8.7-1.3,13.1-2c4.4-0.7,8.8-1.6,13.2-2.3
			c2.8-0.4,5.5-0.8,8.3-1.1c3.4-0.3,6.8-0.6,10.3-0.7c3.9-0.1,7.4,0.9,10.9,2.4c2.9,1.2,5.6,2.8,8,4.7c0.6,0.5,0.4,0.7,0.1,1.1
			c-1.9,2.5-3.8,4.9-5.7,7.4c-0.4,0.5-0.7,0.6-1.3,0.2c-3.4-2.3-7.2-3.5-11.4-3.9c-4-0.3-8-0.3-12,0.2c-9.1,1-17.8,3.7-26.7,5.8
			c-2.2,0.5-4.4,0.8-6.7,0.9c-3.6,0.1-7.3,0.3-10.9,0.5c-1.1,0.1-2.3,0.5-3.5,0.3c-2.3-0.3-4.6-0.4-6.9-0.6c-1.3-0.2-2.7-0.1-4-0.2
			c-4-0.2-8-0.8-12-1c-1.9-0.1-3.9-0.4-5.8-0.4c-0.9,0-1.4-0.3-1.3-1.4C-192.5-10.4-192.5-12-192.5-13.7z"/>
		<path class="st4" d="M-69.5,0c-1.3-0.5-2.7-0.9-4-1.4C-77.3-2.6-81-3.7-84.6-5c-1.3-0.5-2.5-1-3.8-1.4c-0.6-0.2-0.3-0.4-0.1-0.7
			c1.3-1.6,2.5-3.3,3.7-4.9c1.2-1.6,2.5-3.1,3.6-4.7c0.3-0.5,0.5-0.5,1-0.3c5.3,1.5,10.6,3.1,15.9,4.8c0.7,0.2,1.9,0.1,2.1,0.9
			c0.2,0.5-0.6,1.3-1.1,1.9c-2,2.9-3.6,5.9-5.5,8.8C-68.9-0.3-69.1,0-69.5,0z"/>
		<path class="st3" d="M-76.9-41.8c0-2,0-4.1,0-6.1c0-0.6,0.1-1,0.6-1.4c2.5-2.3,4.9-4.6,7.4-6.9c1.4-1.4,1.4-1.4,2.5,0.3
			c2.6,3.8,5.2,7.6,7.9,11.4c0.4,0.5,0.5,1,0.5,1.6c0,2.6,0,5.3,0,7.9c0,0.9-0.3,1.1-1.1,1c-1.3-0.1-2.6-0.1-3.9,0
			c-0.9,0-1.2-0.2-1.2-1.2c0.1-2.4,0-4.9,0-7.3c0-1.4-0.5-1.8-1.9-2c-1.6-0.2-3.1-0.2-4.7-0.2c-1.1,0-1.5,0.5-1.5,1.5
			c0.1,2.7-0.3,5.5,0.2,8.2c0.1,0.5-0.1,0.7-0.6,0.7c-1.3-0.1-2.5-0.3-3.8-0.3c-0.6,0-0.4-0.5-0.4-0.9
			C-76.9-37.5-76.9-39.7-76.9-41.8z"/>
		<path class="st4" d="M-11.5-21.6c-0.1,0.8-0.7,1.2-1,1.7c-2.6,3.4-5.2,6.7-7.9,10.1c-0.4,0.5-0.7,0.7-1.2,0c-1.6-2-3.3-4-5-6
			c-1.6-1.9-3.2-3.7-4.8-5.5c-0.3-0.4-0.2-0.6,0.1-0.9c2.5-2.7,5-5.5,7.5-8.2c0.7-0.8,1.5-1.6,2.2-2.4c0.3-0.4,0.5-0.4,0.9,0
			c1.5,1.8,3,3.6,4.5,5.5c1.5,1.8,3,3.6,4.4,5.4C-11.8-21.8-11.5-21.7-11.5-21.6z"/>
		<path class="st4" d="M-54.6-67.6c0.2,0,0.3,0.2,0.4,0.4c2.8,4.3,5.6,8.5,8.4,12.8c0.3,0.4,0.4,0.7-0.2,1.2
			c-1.8,1.4-3.5,2.9-5.3,4.4c-1.3,1.1-2.7,2.3-3.9,3.5c-0.6,0.6-0.8,0.1-1.1-0.3c-1.9-2.8-3.9-5.6-5.8-8.5c-1-1.5-2-2.9-3-4.4
			c-0.3-0.4-0.4-0.6,0-1c3.4-2.6,6.7-5.2,10.1-7.8C-55-67.4-54.8-67.5-54.6-67.6z"/>
		<path class="st3" d="M-27.6,31.5c0-1.2,0-2.4,0-3.7c0-1.3-0.4-1.8-1.7-1.9c-1.1-0.1-2.1,0-3.2-0.2c-1.2-0.2-2,0.6-2,2
			c0,2.4-0.1,4.9,0,7.3c0,0.9-0.3,1.2-1.2,1c-1.4-0.3-2.7-0.2-4.1-0.2c-0.4,0-0.7-0.1-0.7-0.6c0.1-2.3-0.1-4.6,0.1-6.9
			c0.2-1.4,1.3-1.8,2.1-2.5c2.1-1.9,4.3-3.7,6.4-5.6c1.6-1.4,1.5-1.4,3,0c2.5,2.3,5.1,4.6,7.6,6.9c0.6,0.5,0.8,1.1,0.8,1.9
			c0,2.2,0,4.4,0,6.6c0,0.7-0.2,0.9-0.9,0.9c-1.9,0.1-3.8-0.4-5.7-0.3c-0.6,0-0.7-0.4-0.7-0.8C-27.6,34.2-27.6,32.9-27.6,31.5z"/>
		<path class="st4" d="M-69.6,16.6c0,0.4-0.2,0.5-0.4,0.7c-3.4,2.5-6.8,5-10.2,7.5c-0.5,0.3-0.6,0.3-0.8-0.2
			c-1.6-2.8-3.1-5.7-4.7-8.5c-0.3-0.5-0.4-0.8,0.3-1.3c3.5-2.5,7-4.9,10.7-7.1c0.3-0.1,0.4-0.7,0.8,0c1.4,2.9,2.9,5.7,4.3,8.6
			C-69.7,16.4-69.6,16.5-69.6,16.6z"/>
		<path class="st3" d="M-67,10.6c0-3.1,0-6,0-9c0-0.5,0.3-0.9,0.6-1.2c2-3.2,4-6.4,5.9-9.6c0.4-0.7,0.6-0.7,1.1-0.1
			c2.1,2.5,3.8,5.4,5.9,7.9c0.3,0.3,0.2,0.7,0.2,1c0,2.1-0.1,4.2,0,6.2c0.1,1.1-0.5,1.5-1.3,1.7c-0.3,0.1-0.7,0.1-1,0.2
			c-0.6,0.2-0.8,0-0.8-0.6c0.2-1.8-0.3-3.5-0.3-5.3c0-1.3-0.6-1.8-1.9-1.6c-0.7,0.1-1.4,0.3-2,0.4c-1.6,0.3-1.8,0.4-1.8,2
			c0,2,0,3.9,0,5.9c0,0.5-0.1,0.8-0.6,0.9C-64.2,9.8-65.6,10.2-67,10.6z"/>
		<path class="st3" d="M-10.1-19.2c0.6,1.4,1.1,2.7,1.8,3.9c0.7,1.3,0.7,2.5,0.4,3.9C-8-11.2-8-11-8-10.8c-0.1,3-0.2,5.9-0.2,8.9
			c0,0.9-0.2,1.4-1.3,1.4c-3.1-0.1-6.3,0.3-9.4,0.2c-0.9,0-1.1-0.3-1.1-1.1c0-1.7,0.4-3.4,0.3-5.1c-0.1-0.8,0.6-1.2,1-1.7
			c2.5-3.2,5-6.4,7.6-9.6C-10.9-18.2-10.5-18.6-10.1-19.2z"/>
		<path class="st3" d="M-88.1,16.8c1.2,2.1,2.3,4.1,3.4,6.2c0.8,1.4,1.5,2.8,2.3,4.2c0.2,0.4,0.3,0.7,0.3,1.1c0,3.2,0,6.4,0,9.5
			c0,0.7-0.1,0.9-0.9,0.6c-2.1-0.6-2.8-1.8-2.5-3.8c0.2-1,0-2.1,0.2-3.1c0.2-1.4,0-2.7-1.5-3.3c-0.4-0.2-0.8-0.5-1.2-0.7
			c-1.5-0.7-2.5-0.2-2.3,1.5c0.1,1.6,0.2,3.2,0.2,4.8c0,0.4,0.4,1.1-0.4,1.3c-0.6,0.1-1.7-0.9-1.7-1.5c-0.1-1.4,0-2.7-0.1-4.1
			c-0.2-1.7,0.1-3.5-0.2-5.2c-0.2-1.7,0-3,1.4-4.2C-90,19.2-89.3,17.8-88.1,16.8z"/>
		<path class="st4" d="M-21,11.1c0.8,0.1,1.2,0.8,1.6,1.3c2,2.2,4,4.5,6.2,6.6c0.4,0.4,0.6,0.6,0.1,1.1c-1.6,1.9-3.4,3.6-5.1,5.3
			c-0.5,0.5-0.8,0.5-1.2,0.1c-2-1.8-4-3.7-5.9-5.5c-0.8-0.8-1.7-1.5-2.5-2.3c-0.3-0.3-0.5-0.6-0.1-0.9c2.2-1.8,4.3-3.7,6.5-5.5
			C-21.3,11.2-21.2,11.1-21,11.1z"/>
		<path class="st4" d="M-41.2-40.8c-1.2-1.2-2.2-2.5-3.1-3.8c-1-1.4-0.3-2.9-0.4-4.4c0-0.4,0.6-0.4,0.9-0.6c2.2-1.8,4.4-3.6,6.6-5.4
			c1.2-1,1.2-1.1,2.1,0.2c1.4,1.8,2.7,3.7,4.1,5.5c0.2,0.3,0.3,0.3-0.1,0.6c-2.7,2.1-5.3,4.2-8,6.3C-39.8-41.9-40.5-41.4-41.2-40.8z
			"/>
		<path class="st5" d="M-48.4,30.2c-2.6,0-2.6,0-1.4-2.2c1-1.8,0.5-3.3-0.8-4.6c-0.5-0.5-0.2-0.7,0.1-0.9c0.6-0.4,1.2-0.7,1.7-1.2
			c0.7-0.6,0.9-1.3,0.9-2.2c-0.1-1.3,0.5-1.8,1.8-1.9c2.2-0.2,4,0.9,5.8,1.9c0.9,0.5,1.7,1.2,2.6,1.9c0.5,0.3,0.8,0.7,0.1,1.2
			c-1.3,1-2.4,2.2-3.7,3.2c-1.1,0.9-1.7,2-1.4,3.5c0.1,0.8-0.2,1-1,1C-45.2,29.7-46.8,30.3-48.4,30.2z"/>
		<path class="st5" d="M0.2-14.6c-1.1,1-4.1,0.1-5.4-0.9c-1.5-1.1-1.9-2.8-2.5-4.3c-0.8-1.9-2-3.3-3.3-4.8c-0.4-0.4-0.3-0.7-0.1-1.1
			c0.5-0.7,1.2-1.1,2-1.3c0.7-0.2,1.2,0.1,1.3,1c0.1,0.6-0.1,1.4,0.9,1.5c0.9,0.1,1.2-0.6,1.5-1.2c0.3-0.6,0.6-1.2,1-1.8
			c0.4-0.6,3.2-1.3,3.8-1c0.5,0.3,0.4,0.7,0.2,1.1C-1-25.4-0.7-24.9,1-24.3c0.5,0.2,1,0.3,1.5,0.5c0.4,0.2,1.2,0.4,0.7,1.1
			c-0.3,0.5-0.4,1.4-1.5,1c-0.2-0.1-0.5-0.1-0.8,0c-0.8,0.1-1.6,0.3-1.6,1.2c0,0.9,0.8,1.2,1.6,1.1c1.3-0.1,1.3,0.7,1.5,1.6
			c0.1,0.4-0.1,0.7-0.5,0.8C1.6-16.8,1.4-16.7,1-17c-0.7-0.6-1.6-0.8-2.5-0.7c-0.8,0.1-1.3,0.6-1.3,1.5c0,0.8,0.5,1.1,1.2,1.4
			C-1-14.7-0.4-14.6,0.2-14.6z"/>
		<path class="st3" d="M-69.3,6.5c0,1,0,2,0,3.1c0,0.3,0.2,0.7-0.2,0.8c-0.3,0.1-0.6-0.2-0.8-0.6c-0.6-1.2-1.2-2.4-1.8-3.6
			c-1-2.1-1.5-2.2-3.5-0.9c-0.8,0.5-1.6,1-2.3,1.5c-0.5,0.3-1,0.4-1.7,0.1c-2.8-1-5.6-2-8.4-2.9c-0.9-0.3-1.2-0.7-1.1-1.6
			c0.1-1.8,0-3.6,0-5.4c0-0.7,0.1-0.9,0.9-0.6c1.1,0.4,2.5,0.5,3.2,1.2c0.6,0.7,0.2,2.1,0.2,3.2c0,0.7,0,1.4,0,2.1
			c0,0.8,0.3,1.4,1,1.4c0.8,0,1.3-0.5,1.3-1.5c0-1.3,0-2.5,0-3.8c0-0.6,0.1-0.9,0.9-0.6c3.1,1,3.2,0.9,3.2,4.2c0,0.6,0,1.1,0,1.7
			c0,0.7,0.3,1.3,1.1,1.3c0.7,0,1.3-0.4,1.3-1.4c0-1,0-2,0-3.1c0-0.5,0.1-0.8,0.7-0.6c1.8,0.6,3.7,1.2,5.5,1.8
			c0.5,0.1,0.6,0.5,0.6,0.9C-69.3,4.3-69.3,5.4-69.3,6.5z"/>
		<path class="st5" d="M-80.2-35.4c-0.5-0.3-0.7-0.7-1-1.1c-0.4-0.5-0.7-1.2-1.5-1c-0.7,0.2-1.3,0.7-1.6,1.4
			c-0.1,0.1-0.1,0.3-0.1,0.4c-0.2,0.8,0.1,1.9-1.1,1.9c-1,0-0.6-1.1-0.7-1.7c-0.5-1.8-1.7-2.3-3-1c-0.6,0.6-1.1,0.4-1.8,0.2
			c-0.8-0.2-0.4-0.8-0.4-1.1c-0.1-1.6,0-1.6,1.6-1.7c0.7,0,1.4-0.2,2.2-0.3c0.6,0,1.1-0.6,1.1-1.3c0-0.6-0.5-0.9-1-1.1
			c-0.7-0.2-1.5-0.2-2-0.8c-0.2-0.2-0.6-0.2-0.5-0.6c0.1-0.4,0.5-0.2,0.7-0.2c1-0.1,1.9,0.2,2.9,0.4c0.3,0,0.5,0.1,0.8,0.1
			c0.9,0,2-0.1,2.1-1.2c0.2-1-0.7-1.5-1.6-1.8c-0.6-0.2-1-0.3-0.7-1c0.2-0.5,0.3-1.1,1.3-0.8c1.7,0.6,3.2,1.5,4.8,2.2
			c0.4,0.2,0.2,0.5,0.2,0.7c0,2.6,0,5.2,0,7.8C-79.5-36.3-80-36-80.2-35.4z"/>
		<path class="st3" d="M-71.7,21.6c0,2.4,0,4.7,0,7c0,0.4-0.1,0.7-0.4,0.9c-2.4,2.5-5,4.8-7.2,7.4c-0.1,0.1-0.2,0.1-0.4,0.3
			c0-3.3-0.1-6.4,0-9.6c0-0.9,1.1-1.1,1.7-1.6c1.8-1.5,3.8-2.8,5.7-4.2C-72.2,21.7-72,21.7-71.7,21.6z"/>
		<path class="st5" d="M-5.4-13.4c1.4,0.7,2.8,1.1,4.4,1.2c0.6,0,1.1-0.3,1.6-0.4c1.4-0.2,2.7,0.1,4.3,0.4C3.7-11.3,3.1-10,1.5-10
			C1-10,0.5-9.4,0.9-8.6c0.3,0.5,0.6,0.9,0.9,1.3c0.7,1.3,0.4,1.7-1,1.9C0-5.3-0.7-5.6-1.4-5.8C-2.2-6.1-2.8-6-3.3-5.2
			c-0.1,0.1-0.1,0.3-0.2,0.4c-0.4,0.5-1,1.1-1.6,0.9c-0.7-0.2-0.5-1-0.5-1.6C-5.8-8.1-5.3-10.7-5.4-13.4z"/>
		<path class="st3" d="M-47.2-49.1c0,2,0,3.8,0,5.6c0,0.9-0.8,1.3-1.4,1.8c-2.1,1.9-4.2,3.7-6.2,5.7c-0.2,0.2-0.4,0.6-0.7,0.5
			c-0.4-0.1-0.2-0.6-0.2-0.8c0-1.6,0-3.1,0-4.7c0-0.7,0.3-1.2,0.8-1.6C-52.4-44.7-49.9-46.8-47.2-49.1z"/>
		<path class="st3" d="M-22.4-1.9c-1.7-1.4-3-2.9-4.2-4.4c-1.1-1.4-2.5-2.6-3.7-3.9c-0.4-0.4-0.6-0.8-0.5-1.4c0.4-1.5,0-3,0.6-4.5
			c2.1,2.1,3.8,4.7,6,6.8c1.9,1.7,2.3,3.7,1.9,6C-22.4-2.8-22.4-2.5-22.4-1.9z"/>
		<path class="st3" d="M-31.7-45.3c0.3,3-0.3,5.7-0.1,8.5c0,0.5-0.2,0.7-0.7,0.7c-2,0.2-2,0.2-1.9-1.9c0-0.8,0.4-1.5,0.1-2.3
			c-0.3-0.7-0.8-0.8-1.4-0.8c-0.6,0.1-0.8,0.5-0.8,1.1c0,1.2,0.2,2.4-0.2,3.6c0,0.1,0,0.2,0,0.2c-0.8,0.8-1.9,0.7-3,0.7
			c-0.8,0-0.5-0.6-0.6-1c-0.2-1.5,0.3-2.4,1.6-3.3C-36.4-41.4-34.1-43.4-31.7-45.3z"/>
		<path class="st3" d="M-17.9,34.9c0-0.6,0-0.8,0-1c0.1-1.8-0.5-3.8,0.3-5.3c0.8-1.5,2.3-2.6,3.5-3.9c0.6-0.6,1.2-1.3,2.1-2.2
			c0,2.1,0,3.9,0,5.7c0,0.7-0.7,1-1.1,1.5C-14.6,31.3-16.1,33-17.9,34.9z"/>
		<path class="st5" d="M-21.8,8.4c-1.4,0.2-2.3,1.1-3.3,1.9c-1,0.8-1.8,1.8-2.8,2.8c-0.2-1-0.7-1.3-1.6-1.2
			c-0.8,0.1-0.9,1.1-1.9,1.2c0.2-0.8,0.6-1.4,1.1-1.9c0.5-0.5,0.7-1.1,0.3-1.7C-30.4,8.7-31,8.7-31.8,9c-0.5,0.2-1,0.7-1.4,0.3
			C-33.5,9-33,8.4-32.8,8c0.3-0.7,1.1-0.7,1.5-0.6c1.5,0.2,2.9,0.1,4.4,0.5c1.3,0.4,3,0.2,4.2-1C-22.5,7.4-22.2,7.8-21.8,8.4z"/>
		<path class="st4" d="M-66.7-38.1c0,0.7,0,1.4,0,2.1c0,0.6,0.3,1.5-0.2,1.7c-0.7,0.3-1.5,0.1-2.3,0.1c-0.4,0-0.4-0.3-0.4-0.6
			c0.1-2.2-0.4-4.4-0.3-6.5c0-0.8,0.3-0.9,1-0.9c0.5,0.1,1,0.3,1.5,0.2c0.5-0.1,0.7,0.2,0.6,0.7C-66.8-40.2-66.7-39.2-66.7-38.1z"/>
		<path class="st5" d="M-22.3,1.9c-0.3,0.7-0.6,1.2-0.8,1.7c-0.1,0.3-0.4,0.5-0.7,0.4c-1.8-0.2-2.1-0.1-2.9,1.6
			c-0.4-0.2-0.9-0.3-1.1-0.6c-0.8-1-1.6-1-2.3-0.1c-0.3,0.3-0.4,0-0.4,0c-0.1-0.4-0.6-0.7-0.2-1.3c0.7-0.8,1.6-0.8,2.5-1
			c0.8-0.2,1.7,0,2.1-1.1c0.4-1.1-0.6-1.5-0.9-2.1c1.3,0,1.9,0.5,2,1.6c0.1,0.9,0.7,1.3,1.6,1.1C-23.1,2.1-22.8,2-22.3,1.9z"/>
		<path class="st4" d="M-29.9,36.2c-1.9-0.3-1.9-0.3-1.9-2.2c0-1.6,0-3.2,0-4.8c0-0.7,0.2-1,0.9-0.9c0.6,0,1,0,1,0.8
			C-30,31.5-29.9,33.9-29.9,36.2z"/>
		<path class="st3" d="M-42.8-36.8c-1.2-1.4-2.2-2.6-3.3-3.9c0.7-0.9,1.2-1.1,1.9,0.1C-43.5-39.5-42.2-38.6-42.8-36.8z"/>
		<path class="st4" d="M-59.9,5.9c0-0.7,0-1.5,0-2.2c0-0.4,0.1-0.8,0.6-0.8c0.5,0,0.3,0.5,0.3,0.7c0.1,1.4,0.1,2.7,0.3,4.1
			c0,0.6-0.1,1-0.7,1.1c-0.7,0-0.4-0.6-0.4-0.9C-59.9,7.1-59.9,6.5-59.9,5.9z"/>
		<path class="st0" d="M-103.4,0c-0.4-1.8-0.1-3,1.2-3.8c1.1-0.7,3.3-0.5,4.3,0.6c0.7,0.7,1.4,0.9,2.3,0.8c1.5-0.1,2.2,1,1.8,2.4
			C-94,0.5-94,1-94.2,1.3c-0.6,0.9-0.3,1.5,0.4,2.2c0.8,0.8,0.9,2,0.2,3c-0.6,0.9-1.4,1.8-2.6,2.1c-0.2,0.1-0.5,0.2-0.7,0.1
			c-1.2-0.8-1.7,0.1-2.3,0.9c-1,1.4-2.1,2.3-3.8,2.5c-0.8,0.1-1.4,0.6-2.3,0.7c-0.9,0.1-1.6,0-2.4-0.2c-1.6-0.3-2.1-1.6-1.6-3.5
			c0.3-1.2,0.7-2.3,1.1-3.4c0.3-0.8,0.3-1.2-0.7-1.3c-2.1-0.3-3-2.1-1.8-3.8c0.6-0.9,1.6-1,2.6-1.1c1.2-0.1,2.4,0.2,3.6,0.4
			C-104.1,0-103.8,0-103.4,0z"/>
		<path class="st0" d="M-174.7,33.7c0.1-0.3,0.3-0.5,0.3-0.8c0-1,0.6-1.6,1.4-1.6c0.9-0.1,1.4,0.7,1.7,1.5c0.5,1.7,0.2,3.5,0.2,5.2
			c0,0.1-0.1,0.4-0.2,0.4c-1.1,0.1-1.8,0.8-2.5,1.5c-0.1,0.1-0.6,0.1-0.7,0c-0.6-0.9-1.8-0.2-2.5-0.9c-0.3-0.3-0.4-0.1-0.6,0.1
			c-0.7,0.7-1.7,0.8-2.6,0.8c-2.6,0-5.1,0-7.7,0c-0.9,0-1.5-0.3-1.6-1.2c-0.1-1,0.7-1.2,1.6-1.2c2.4,0,4.8,0,7.2,0
			c1.4,0,1.4-0.1,0.9-1.4c-0.5-1.2-1.2-2.3-1.5-3.6c-0.4-1.8,0.2-3.2,1.2-4.6c0.8-1.1,2.6-0.5,2.8,0.7c0.2,1.5,1.5,2.7,1.5,4.3
			C-175.7,33.5-175.1,33.5-174.7,33.7z"/>
		<path class="st0" d="M-84.3-105.1c-0.6,1-1.1,2-1.6,3c-0.7,1.3-3,1.4-3.8,0.4c-0.3-0.4-0.6-1-0.2-1.5c0.4-0.6,1.1-0.8,1.9-0.3
			c-0.6-2.9-0.8-5.7-0.3-8.5c0.1-0.5,0.3-0.8,0.7-0.9c0.5-0.1,1,0,1.4,0.5c0.4,0.6,0.3,1.3,0.8,1.9c0.2-0.2,0.1-0.4,0.1-0.6
			c0.1-0.6,0.5-1,1.2-1.1c0.7-0.1,1.1,0.3,1.3,0.9c0.2,0.5,0.3,1.1,0.4,1.7c0,0.3,0.1,0.6,0.4,0.6c0.7,0,1.2,0.1,1.5,0.8
			c0.3,0.8,0.2,1.7,0.1,2.5c0,0.2-0.1,0.3-0.1,0.4c-0.3,2.1-0.3,2.1,1.9,1.6c1.3-0.4,2.6-0.7,3.9-1.1c0.8-0.3,1.4-0.1,1.7,0.6
			c0.3,0.8-0.1,1.4-1,1.6c-1.8,0.5-3.5,1.2-5.3,1.5c-2.7,0.4-4-0.1-4.5-3.3C-84-104.6-83.9-104.9-84.3-105.1z"/>
		<path class="st0" d="M-135.3-99.9c-0.3,3.3-0.4,3.4-3.6,3.4c-0.4,0-0.9,0-1.3,0c-0.6-0.1-1.1-0.5-1.1-1.1c0-0.7,0.4-1.1,1.1-1.2
			c0.5,0,0.9,0,1.4,0c0.9,0.1,1-0.5,0.9-1.2c-0.4-2.3-0.3-4.5,0.1-6.7c0.1-0.8,0.6-1.4,1.4-1.7c0.7-0.2,1,0.4,1.4,0.8
			c0.1,0.1,0.1,0.2,0.2,0.3c1.7,0,1.4,1.2,1.5,2.3c0.1,1.1,0.2,2.3,0.4,3.5c0.2,1.4,1,1.6,2.1,1.6c2.9,0,5.9,0.1,8.8-0.2
			c0.3,0,0.7-0.1,1,0.2c0.3,0.3,0.7,0.7,0.5,1.2c-0.2,0.6-0.6,0.9-1.2,1c-1.1,0.1-2.1,0.3-3.3,0.3c-2-0.1-3.9,0-5.9,0
			c-1.6,0-3.1-0.1-4-1.8C-134.8-99.6-135-99.7-135.3-99.9z"/>
		<path class="st0" d="M-159.4,95.2c-0.4,0.6-0.8,1.2-1.6,1c-0.8-0.2-1-0.9-0.9-1.7c0.1-1.2,0-2.4,0-3.7c0-1,0.4-1.8,1.4-2
			c0.9-0.2,1.3,0.6,1.7,1.3c0.2,0.4,0.2,1,0.6,1.3c0.2-2.4,0.6-4.7,0.6-7.1c0-0.7,0.3-1.4,1.2-1.5c0.9,0,1.3,0.5,1.4,1.4
			c0.3,2.2,0.8,4.3,1.1,6.5c0.1,1,0.7,0.9,1.3,0.8c1.4-0.2,2.7-0.5,4.1-0.8c0.9-0.2,1.8-0.4,2.8-0.4c0.7,0,1.1,0.3,1.2,1
			c0.1,0.7-0.3,1.2-0.9,1.3c-2.8,0.4-5.4,1.4-8.2,1.3c-1,0-1.7-0.6-2.3-1.2C-157.1,96.2-158,96.8-159.4,95.2z"/>
		<path class="st0" d="M36.9-44.3c-0.3,0.5-0.6,1-0.9,1.4c-0.9,1.2-2.3,1.2-2.9-0.2c-0.5-1.1-0.9-2.3-0.9-3.4c0-1.5-0.2-3,0.2-4.6
			c0.2-1,0.5-1.7,1.7-1.6c1.2,0.1,1.3,0.9,1.4,1.8c0,0.1,0.1,0.1,0.2,0.3c-0.2-1.1,0.3-2,0.2-3c-0.1-0.9,0.5-1.3,1.2-1.4
			c0.8,0,1.1,0.6,1.1,1.3c0,1.8-0.1,3.6,0,5.4c0.2,2.7,1.5,4.5,4.4,4.2c0.6-0.1,1.2-0.3,1.8-0.4c0.4-0.1,0.8-0.2,1.2-0.3
			c0.6-0.2,1.1,0,1.4,0.6c0.3,0.6,0.2,1.1-0.4,1.5C44.5-41,40-41.2,38-42.9C37.6-43.2,37.3-43.8,36.9-44.3z"/>
		<path class="st0" d="M-128.5-63.5c1.5,0.2,2.9,0,4.4-0.3c0.9-0.2,1.7-0.1,2,0.9c0.3,0.9-0.4,1.2-1.3,1.5c-1.9,0.5-3.8,0.4-5.7,0.4
			c-0.2,0-0.4-0.1-0.5-0.2c-1.6-1.2-2.5,0.1-3.4,1c-0.4,0.4-0.8,0.4-1.2,0.3c-0.4-0.1-0.8-0.4-0.7-0.9c0.1-0.9,0-1.7,0.2-2.6
			c0.3-1.5-0.1-3.1-0.3-4.6c-0.1-0.7-0.3-1.4-0.4-2.2c-0.1-0.7,0.1-1.3,1-1.5c0.8-0.2,1.2,0.2,1.4,0.9c0.2,0.8,0.4,1.6,0.4,2.4
			c0.1,1,0.2,2.1,0.3,3.4c1-1.5,1.1-3,1.6-4.4c0.1-0.4,0.1-0.8,0.3-1.1c0.3-0.6,0.8-1,1.5-0.9c0.7,0.2,0.8,0.7,0.8,1.3
			C-128.2-68-128.3-65.8-128.5-63.5z"/>
		<path class="st0" d="M6.7-47.9c-0.9,0-1.6-0.3-2-1.1c-0.1-0.1-0.1-0.4-0.2-0.4c-1.8-0.1-1.9-2.1-3.1-2.8c-0.7-0.4-0.8-1.1-0.5-1.8
			c0.4-0.7,1-0.8,1.7-0.4c0.6,0.4,0.6-0.1,0.6-0.4c0-1.7,0.4-3.4,0.2-5.2c-0.1-1,0.3-1.7,1.3-1.7c0.8,0,1.1,0.8,1.1,1.6
			c0,1-0.3,2.1,0.8,2.8c0.1,0.1,0.3,0.3,0.3,0.5c0,1.4,0.3,2.6,1.9,2.9c0.5,0.1,0.6,0.7,0.5,1.2c-0.1,0.5-0.4,0.8-0.9,1
			c-0.3,0.1-0.6-0.1-0.8,0.2c-0.2,0.3-0.5,0.6-0.3,0.9c0.2,0.3,0.5,0,0.7-0.1C9-51,10-51.3,11-51.7c0.8-0.3,1.4-0.1,1.7,0.7
			c0.3,0.8,0,1.3-0.9,1.6C10.1-49,8.5-48.1,6.7-47.9z"/>
		<path class="st0" d="M65.4-127.1c0,0.6-0.1,1.3,0,1.9c0.1,0.8,0.4,1.3,1.5,1c1-0.3,2-0.6,3.1-0.6c0.7,0,0.9,0.4,1.1,0.9
			c0.2,0.5,0,1-0.5,1.2c-1.7,0.6-3.4,1.1-5.2,1.1c-0.2,0-0.4,0-0.6-0.1c-1.8-1.3-3.8-0.9-5.8-0.9c-0.7,0-1.3-0.2-1.7-0.6
			c-0.7-0.7,0-1.8,1.1-2c0.7-0.1,1.6,0.3,2-0.3c0.3-0.5,0-1.3,0.1-2c0.1-0.5,0.2-1.1,0.2-1.6c0.1-1.2,1-1.6,2-0.9
			c0.2,0.2,0.3,0.4,0.8,0.2c1.2-0.6,1.9,0,1.9,1.3C65.4-128,65.4-127.5,65.4-127.1C65.4-127.1,65.4-127.1,65.4-127.1z"/>
		<path class="st0" d="M19.5-95.9c0.3-1.1,0.5-2.1,0.8-3.2c0.2-0.9,0.7-1.5,1.7-1.4c1,0.1,1.6,0.7,1.6,1.8c0,0.8,0.1,1.6,0,2.4
			c-0.1,0.7,0.3,0.9,0.9,0.8c0.6-0.1,1.1-0.3,1.6-0.5c0.8-0.3,1.6-0.6,2.1,0.3c0.5,1.1-0.2,1.6-1.1,1.9c-1.3,0.4-2.6,1.4-4,0.7
			c-1.2-0.7-1.9-1.1-3,0.2c-0.5,0.5-1.7,0.2-2.3-0.6c-1.4-1.7-1.5-3.8-1.2-5.9c0.1-0.6,0.5-0.8,1.1-0.7c0.7,0.1,1.1,0.5,1.1,1.1
			c0,0.9,0,1.8,0.2,2.7C19.2-96.2,19.2-96,19.5-95.9z"/>
		<path class="st0" d="M-52.2-20.2c0.2-0.6,0.4-1.2,0.5-1.8c0.1-0.7,0.5-1.2,1.2-1.3c0.6-0.1,1.2,0.3,1.4,0.9c0.5,1.4,1.4,1.5,2.6,1
			c0.5-0.2,1-0.2,1.5-0.3c0.5-0.1,0.9,0.2,1,0.6c0.2,0.4,0.2,0.9-0.2,1.3c-0.5,0.5-1.2,0.6-1.9,0.8c-1.2,0.3-2.3,0.7-3.4-0.1
			c-0.5-0.3-0.5,0.1-0.6,0.3c-0.3,0.7-0.7,1.2-1.2,1.7c-0.9,0.8-2,0.8-2.9,0c-1.1-1-1.5-3.7-0.9-5.1c0.4-0.8,0.9-1.2,1.8-1
			c0.8,0.2,1,0.9,1,1.6c0,0.5,0,1,0,1.5C-52.3-20.2-52.2-20.2-52.2-20.2z"/>
		<path class="st0" d="M-150.1-47.8c0-1.9,0-3.7,0-5.6c0-0.9,0.3-1.6,1.2-1.8c0.9-0.2,1.3,0.4,1.7,1.1c0.7,1.3,0.9,2.7,1.4,4
			c0.3,0.7-0.5,1.8-1.2,1.6c-0.7-0.2-0.6,0.1-0.6,0.5c0,0.1,0,0.2,0,0.4c0.1,1.8,0.2,2.6-2.5,2.2c-1.7-0.2-3.4-0.5-5.1-1.1
			c-0.7-0.3-1.4-0.7-1.1-1.5c0.3-0.8,1-1.1,1.9-0.8C-153.1-48.2-151.6-47.9-150.1-47.8z"/>
		<path class="st0" d="M-137.2,17.4c1-1.2,2.3-1.1,3.6-0.7c0.9,0.2,1.7,0.5,2.6,0.7c0.7,0.1,1.2,0.7,1.1,1.5
			c-0.1,0.7-0.6,0.9-1.3,0.9c-0.9,0-1.8-0.3-2.6-0.6c-1-0.3-1.4-0.2-1.3,0.9c0.1,0.5,0,0.9-0.2,1.4c-0.4,0.9-1.4,1.2-2.1,0.5
			c-0.6-0.6-1.1-1.2-1.4-2c-0.2-0.7-0.5-1.3-1.4-1.4c-0.6-0.1-0.8-0.7-0.8-1.2c0-1-0.1-2.1,0.2-3.1c0.2-0.6,0.6-1.1,1.2-1.1
			c0.6,0,1.1,0.3,1.3,0.9C-138,15.1-137.6,16.2-137.2,17.4z"/>
		<path class="st0" d="M39.6-133.5c-0.5,0.9-1.5,1.2-2,2.1c-0.2,0.3-0.6,0.6-1.1,0.3c-0.5-0.3-0.8-0.6-0.8-1.3c0-2.6,0-5.1,0-7.7
			c0-0.8,0.4-1.4,1.1-1.5c0.9-0.1,1.2,0.7,1.2,1.4c0.1,1.1,0,2.3,0,3.4c0,0.3,0,0.6,0,0.9c1.6-0.8,2.5-0.5,3.6,0.9
			c0.6,0.8,1.1,1.7,2,2.4c0.6,0.4,0.5,1.1,0.2,1.6c-0.5,0.6-1.2,0.7-1.9,0.2C40.9-131.5,40.4-132.5,39.6-133.5z"/>
		<path class="st0" d="M-116.8,80.3c0-0.7,0.2-1.7,0.4-2.8c0.1-0.6,0.5-0.8,1-1c0.5-0.2,0.9,0.2,1.2,0.6c0.7,0.7,0.7,1.7,0.9,2.6
			c0.1,0.4,0,0.6,0.6,0.4c1.5-0.5,2.9,0.2,4.4,0.5c0.5,0.1,0.7,0.6,0.7,1.1c0,0.5-0.3,0.9-0.8,1c-0.3,0.1-0.7,0.2-1,0.1
			c-1.3-0.6-2.4-0.6-3.2,0.7c-0.1,0.2-0.4,0.2-0.6,0.3C-115,84-116.8,82.4-116.8,80.3z"/>
		<path class="st0" d="M74.4-48.6c0.6-1.2,0.4-2.2,0.4-3.3c0-0.9,0.4-1.3,1.3-1.3c0.8,0,1.3,0.3,1.3,1.2c0.1,1.6-0.2,3.1-0.9,4.5
			c-0.9,1.9-2.6,2.2-3.8,0.5c-0.9-1.1-1.5-2.4-2.3-3.6c-0.4-0.8,0.1-1.2,0.6-1.5c0.6-0.3,1.2,0,1.6,0.6
			C73.3-50.6,73.8-49.6,74.4-48.6z"/>
		<path class="st0" d="M-48.4-82.8c-2,0-2.3-0.3-2.8-2c-0.4-1.2-0.2-2.4-0.1-3.6c0-0.7,0.4-1.5,1.3-1.5c0.9,0,1.3,0.8,1.4,1.6
			c0.1,0.6,0,1.3,0,1.9c0,0.8,0.2,1.3,1.2,0.9c0.4-0.2,0.8-0.2,1.2-0.3c0.7-0.2,1.2,0.2,1.5,0.8c0.4,0.7-0.1,1.1-0.6,1.4
			C-46.4-83.2-47.6-82.9-48.4-82.8z"/>
		<path class="st0" d="M56.5,107.3c-0.2,0.7-0.4,1.3-0.6,2c-0.2,0.9-0.6,1.7-1.6,1.9c-1.1,0.2-1.5-0.7-2.1-1.3
			c-0.3,0.6-0.8,1-1.5,0.8c-0.7-0.2-0.9-0.8-0.9-1.4c0-2.6-0.1-5.1,0-7.7c0-0.7,0.1-1.7,1.3-1.7c1.3-0.1,1.3,0.9,1.5,1.7
			c0.5,1.9,0.8,3.8,1.3,5.8c0.6-1.6,0.2-3.2,0.6-4.8c0.2-0.6,0.2-1.2,1.1-1.2c0.9,0,1.3,0.6,1.3,1.3c-0.1,2.9,2.5,3.6,4.8,3.3
			c2.4-0.4,4.5-1.3,6.6-2.4c0.7-0.4,1.4-0.4,1.8,0.3c0.4,0.7,0,1.4-0.6,1.8c-1.6,1-3.4,1.8-5.2,2.3c-1.9,0.5-3.8,0.9-5.7,0.3
			C57.9,107.9,57.3,107.6,56.5,107.3z"/>
		<path class="st0" d="M44.2,52.1c1.1-0.8,2.1-0.5,2.5,0.7c0.3,0.9,0.5,1.8,0.7,2.8c0.1,0.6,0.3,0.6,0.8,0.5
			c2.6-0.4,5.1-1.5,7.6-2.2c0.7-0.2,1.5-0.4,1.8,0.5c0.4,0.9-0.2,1.5-1,1.8c-2.8,0.8-5.5,1.8-8.3,2.4c-1.5,0.3-2.5-0.3-3.1-1.6
			c-0.1-0.2-0.2-0.8-0.5-0.5c-0.4,0.4-1.4-0.2-1.4,0.9c0,0.9,0.1,1.7-0.3,2.5c-0.3,0.7-0.8,1-1.5,0.8c-0.6-0.2-1-0.8-0.8-1.4
			c0.6-1.9-0.3-3.6-0.4-5.4c-0.1-1.2-0.4-2.5,0.3-3.6c0.4-0.7,0.9-1.1,1.6-1c0.8,0.1,1.2,0.6,1.4,1.4C44.1,51,44.1,51.5,44.2,52.1z"
			/>
		<path class="st0" d="M70.8,23.8c0.1,0.9-0.1,1.5-0.2,2.1c-0.2,0.6-0.7,0.9-1.2,1c-0.5,0-1.2-0.2-1.4-0.9c-0.2-0.8-0.5-0.9-1.5-0.8
			c-1.9,0.3-3.9,0.3-5.9,0c-1.3-0.2-2.6,0.1-3.9-0.4c-0.5-0.2-0.9-0.4-1-0.9c0-0.6,0.1-1.1,0.8-1.3c1.5-0.4,2.9,0.1,4.4,0.2
			c1.6,0.1,3.1,0,4.7,0.1c0.4,0,0.6-0.2,0.7-0.6c0.1-0.7,0.3-1.4,0.5-2.1c0-0.2,0-0.5,0.2-0.6c1-0.4,1.4-1,1.7-2.1
			c0.2-0.9,1-0.9,1.8-0.2c0.8,0.6,1,1.6,1.3,2.4c0.6,1.6,1.1,3.2,2.7,4.2c0.6,0.4,0.6,1.1,0.3,1.6c-0.3,0.5-0.8,0.7-1.5,0.4
			C72.3,25.4,71.6,24.6,70.8,23.8z"/>
		<path class="st0" d="M-1.5,103.7c0.3,0.1,0.6,0.3,0.9,0.3c0.7,0.1,1.2,0.4,1.2,1.2c0,0.9-0.7,1.1-1.3,1.2c-0.3,0.1-0.7,0-1.1,0
			c-1,0-1.5,0.3-1.4,1.4c0.1,1.9,0,1.9,1.9,1.9c0.5,0,1.1-0.1,1.6,0c0.7,0.1,1.1,0.6,1.1,1.3c0,0.6-0.6,1-1.1,1
			c-1.2,0.1-2.4,0.2-3.6,0c-1.3-0.3-2.2-1.4-2.3-3c-0.1-0.9-0.4-2.1,0.1-2.8c1.1-1.6,1.4-3.9,3.3-5c1-0.6,1.9-0.4,2.2,0.4
			c0.3,0.9-0.3,1.3-1,1.7C-1.3,103.5-1.4,103.6-1.5,103.7z"/>
		<path class="st0" d="M-8.5,80c0,0.7-0.7,1.3-1.4,1.2c-0.1,0-0.3-0.1-0.4-0.2c-1.9-0.9-2.2-0.7-2.9,1.3c-0.1,0.4-0.3,0.8-0.5,1.2
			c-0.3,0.4-0.6,0.9-1.3,0.8c-0.7-0.1-1.1-0.4-1.2-1c-0.3-1-0.8-1-1.6-0.6c-0.5,0.3-1.1,0.5-1.7,0.4c-0.6,0-1.1-0.3-1.2-0.9
			c-0.1-0.6,0.3-1.2,0.8-1.4c0.9-0.2,1.8-0.7,2.7-0.9c0.4-0.1,0.7-0.2,1,0c1,0.6,1.5,0.1,1.9-0.7c0.6-1,1.5-1.4,2.6-1.2
			c1.2,0.2,2.3,0.5,2.9,1.8C-8.6,79.8-8.5,79.9-8.5,80z"/>
		<path class="st0" d="M-11.3-7.3c0,0.9,0,1.9,0,2.8c0,0.8-0.2,1.5-1.1,1.7c-1,0.2-1.4-0.7-1.4-1.4c-0.1-2.2-0.1-4.4,0-6.6
			c0-0.6,0.4-1.3,1.3-1.2c0.8,0.1,1.1,0.7,1.2,1.4C-11.2-9.5-11.3-8.4-11.3-7.3C-11.3-7.3-11.3-7.3-11.3-7.3z"/>
		<path class="st5" d="M-102.8,10c0-0.3,0-0.5-0.1-0.6c-0.2-0.6-0.4-1.2-1.2-1c-0.7,0.1-0.9,0.6-0.9,1.3c0,0.4,0.3,0.9-0.2,1
			c-0.6,0.1-1.2,0.1-1.7,0c-0.3-0.1-0.2-0.7-0.1-1.1c0.5-1.7,1.1-3.3,1.7-5c0.3-1,0.1-1.5-1-1.7c-0.9-0.2-1.8-0.1-2.6-0.7
			c0.7-0.6,1.6-0.4,2.3-0.4c1.3,0.1,2.6,0.5,3.8,0.7c1,0.2,1.7-0.7,1.6-1.7c0-0.4,0.1-0.8-0.1-1.2c-0.2-0.5-0.3-1,0.2-1.4
			c0.5-0.4,1.1-0.1,1.6,0.1c0.3,0.2,0.6,0.5,0.8,0.8C-98,0-97.1,0.3-96-0.2c-0.2,0.5-0.3,0.9-0.5,1.2c-0.8,1.9-0.8,2,0.6,3.5
			c0.2,0.2,0.8,0.4,0.4,0.8c-0.4,0.4-0.7,1.1-1.3,1.1c-0.3,0-0.9,0-1-0.7c-0.1-1.3-1.3-1.3-2.2-1.4c-0.4-0.1-1.1,0.2-1.3,0.8
			c-0.2,0.5,0,1.1,0.4,1.3c1,0.7,0.5,1.3-0.1,1.9C-101.3,9-101.8,9.7-102.8,10z"/>
	</g>
	<path id="path3085-4-0" class="st6" d="M-87.8,14.7l6.6,12.1l7.1-5.3l6.1-4.4l-5.8-11.7C-81.4,10-84.2,12.1-87.8,14.7z"/>
	<path id="path3087-1-5" class="st6" d="M-81,27.2l0.1,12.9l10.4-10.6v-9.2"/>
	<path id="path3857-4-7" class="st6" d="M-88.5,15.1l-6.9,7.9l1.7,0.1l0.1,11.9l12.3,5.3"/>
	<path id="path3861-1-0" class="st6" d="M-68.7,1.3l8.6-13.5L-52-1.7l-0.2,9.6l-16,4.1V1.5L-91.1-6l9.8-12.7
		c7.2,2,14.1,4.1,21.3,6.5"/>
	<path id="path3863-3-0" class="st6" d="M-90.4-5.5l-0.1,9.7L-79.6,8"/>
	<path id="path3865-8-5" class="st6" d="M-68.5,11.6l-1.9-0.3"/>
	<path id="path3867-2-6" class="st6" d="M-30.2,17l9.4-8.1l10,10.6l-7.8,8.1L-30.2,17z"/>
	<path id="path3869-0-7" class="st6" d="M-18.9,27.8v9.9l8.3-8.9l0.1-8.8"/>
	<path id="path3871-0-8" class="st6" d="M-30.7,17.8L-41.4,27l-0.2,10l21.8,0.8"/>
	<path id="path3873-4-0" class="st6" d="M-56.1-43.3l12.3-10.5l-10.5-15.9l-13,10.1L-56.1-43.3z"/>
	<path id="path3877-9-6" class="st6" d="M-56.8-43.3v10.7l10.7-10v-7.9"/>
	<path id="path3879-0-5" class="st6" d="M-67.3-59.4l-10.9,10v16.1l20.7,0.5"/>
	<path id="path3885-1-7" class="st6" d="M-20.9-7.3l11.1-14.2l-11.5-13.8l-12.1,13.5L-20.9-7.3z"/>
	<path id="path3887-0-3" class="st6" d="M-20.9-6.6l-0.3,7.4l14.2-0.3l0.7-14.9l-3.4-7.4"/>
	<path id="path3889-5-4" class="st6" d="M-21.3,0.8L-32-10.3l0.7-8.4"/>
	<path id="path3895-2-3" class="st6" d="M-12.5-11v6.8"/>
	<path id="path3897-9-0" class="st6" d="M-33.1,37V26.8l4.4,0.3V37"/>
	<path id="path3899-5-4" class="st6" d="M-86.7,37.5l0.1-7.9l-2.6-1.5l0.1,8.5"/>
	<path id="path3901-5-8" class="st6" d="M-61.1,9.4l0-7.7l3.3-0.5l0.3,7.7"/>
	<path id="path3903-1-5-7" class="st6" d="M-77.4-0.5l-0.1,4.8"/>
	<path id="path3903-1-0-0-5" class="st6" d="M-83.8-2.6L-83.9,3"/>
	<path id="path3948-8-9" class="st6" d="M-70.8-33.1l-0.3-10.5l5.6,0.3l0,10.1"/>
	<path id="path3964-9-5" class="st6" d="M-40.3,135.3c-1.6-9-2.3-16.5-2.3-26.7c0.1-9.8,6.6-19.8,6.8-37.6c0.1-10,8.1-26,6.9-33.6"
		/>
	<path id="path3966-5-3" class="st6" d="M-10.2,23.3c12.6-0.1,26.3,3.7,37.4-1.8c6.2-3.1,12.8-8.3,18.7-10.2
		c4.7-1.6,10.3-1.6,13.8-5.1c1.6-1.6,22.7-1.3,26.5-1.3"/>
	<path id="path3968-7-2" class="st6" d="M-19.7,1.4c0.1,0.2,1.6-1,4-0.4c4.9,1.2,10.9,3.7,15.8,3.1C12.3,2.5,23.7-1.2,33.6-6.2
		c4.1-2,10.3-1.6,13.8-3.3c11-5.5,28-10.8,38.7-10.8"/>
	<path id="path3970-6-7" class="st6" d="M-90.5-6.6c-12.8-11.4-39.2-1.3-53.8,1.7c-1.2,0.3-11.5,0.5-13.2,0.7
		c-9.4,0.9-31.2-2.1-36.9-2.1"/>
	<path id="path3972-2-3" class="st6" d="M-193.4-21.3c2.4,1.2,8.3,0.3,10.8,0.8c30,6,52.9-4.9,79.8-5.4c4-0.1,7.3,1.2,10.7,2.6
		c4.2,1.7,7.1,4,9.1,5.5"/>
	<path id="path3974-5-9" class="st6" d="M-45.2-58.2c1.4-5.3-2.2-10.9-0.5-15.9c2.8-8.5,12.9-18.4,9.2-29.5
		c-5.9-17.7-22.6-20.7-22.6-42.5"/>
	<path id="path3976-4-7" class="st6" d="M-29.3-50.3c1.5-5.6-1.1-13.6,0.7-19.2c3.2-9.6,8.6-17.8,11.8-27.4c0.8-2.5-0.8-6.3-0.8-9
		c0-2.8,0.3-6.9-1.3-9.2c-1.8-2.7-2.4-5.8-4.4-8.5c-5.9-7.9-16.9-12-14.8-22.6"/>
	<path id="path3989-3-7" class="st6" d="M-59.8,134.7c-0.2-10.5,0.9-17.3-0.5-27.5c-0.4-3,0.3-15.5,1.5-18c1.7-3.6,2.7-6,3.4-9.7
		c1.5-7.8,6-15.1,10.4-20.4c2.3-2.8,9.4-18.6,10.8-21.5"/>
	<path id="path3991-2-9" class="st6" d="M-35.5,21c-2.9-2.5-9.5-7.7-13.4-3.9c-0.5,0.5,0.3,2.3-0.5,3.1c-0.9,0.9-2.2,1.1-2.8,2.3
		c-0.7,1.4,2.8,2.2,1.5,4.6c-0.3,0.6-1.7,2.1-1.3,3.1c1.1,2.3,7.5,0.5,9.5,0.5"/>
	<path id="path4005-1-5" class="st6" d="M-12.3-24.2c-0.3-3.3,5.6-5.7,5.6-1.2c0,1.5,1.3-3,2.8-3.6c0.3-0.1,4.1-0.2,4.2,0
		c1.2,1.6-0.2,2.4-0.2,3.3c0,0.2,3.9,1.2,4.2,2.1c0.6,1.5-2.6,4.5-4.2,3.1c-0.2-0.1,3.2-1.6,3.2,3.5c0,1.5-6,2.1-5.2,0.7
		c0.9-1.5,3.7,0.4,3,2.1c-1,2.5-6.8,0.3-7.5-1"/>
	<path id="path4009-2-3" class="st6" d="M1.6-13.6c9.4-0.3,0.2,5.7,0.2,4.5c0,0,2.1,2.1,1.2,3.7C2.1-3.7-2.2-4.9-2.1-5.1
		c0.8-0.8-3.5,4.8-4.5,0"/>
	<path id="path4011-6-3" class="st6" d="M-79.3-46.7c-1.1-0.8-6-3.5-7.2-2.3c-0.2,0.2-1.3,3.2-1,3.3c0.4,0.2,3.2,0.9,2.6,1.3
		c-1.1,0.5-5.7-1.4-6.4,0c-1.1,2.2,2,3.6,3.3,3.6c1.5,0-3,0.1-4.4,0.8c-0.6,0.3-0.5,2.7-0.5,3.3c0,0.2-0.1,1,0,1
		c0.5,0.2,3.3,1.1,3.8,0.5c0,0,0.7-1.4,1-1c1,1-0.2,5.1,3.8,3.1c1.1-0.5,0.3-3.3,1.5-3.3c0,0,2,4.4,3.8,0.8"/>
	<path id="path4013-6-3" class="st6" d="M-45-50.5l9.2-7.4l6.7,9l-12.3,9.7l-4.4-5.4"/>
	<path id="path4015-6-8" class="st6" d="M-30.1-47.2l-0.5,12l-10.7,1l0-4.6"/>
	<path id="path4017-0-5" class="st6" d="M-42.2-34.3l-5.1-6"/>
	<path id="path4019-1-8" class="st6" d="M-35.4-40.1l-0.2,5.4"/>
	<path id="path4021-9-9" class="st6" d="M-97.4-1.2c-0.8-1.4-2.3-2.5-3.9-2c-2.3,0.6-0.9,3-0.9,4.1c0,0.7-7.2-1.7-7.8,0.5
		c-0.7,2.4,2.8,1.8,3.7,2.3c0.1,0.1-2.7,6.4-1.8,7.4c0.4,0.5,3.8,1,4.1,0c0.2-0.6,0-2.7,0-2c0,5.8,8.5-3.8,4.1-3.8
		c-1.4,0,2.7,2.9,3.9,2c4-2.9,0-3.6,0-4.6C-96,1.5-92.6-3-97.4-1.2L-97.4-1.2z"/>
	<path id="path4023-9-6" class="st6" d="M0.3,111.1c-4.8,0.4-4.7-0.3-4.7-4.7c0-1.3,5.2-1.1,3.8-1.1c-2.9,0-2.9-2.2-0.5-3"/>
	<path id="path4025-5-0" class="st6" d="M-19.4,82c0.9,0,2.6-1.3,3.6-0.8c0.7,0.3,0.8,2.6,1.1,1.9c1.4-2.8,1.9-5.5,5.2-3"/>
	<path id="path4027-9-4" class="st6" d="M51.3,109.7c0-2.1,0-4.2,0-6.3c0-7.5,1,4.8,2.7,6.6c1.7,1.7,1.9-9.6,1.9-7.1
		c0,5.7,7,5.5,13.4,1.6"/>
	<path id="path4029-6-2" class="st6" d="M42.3,59.5c1.1-1.8-1.5-7.6,0-9.1c1.2-1.2,0.7,3.7,1.9,4.9c0.5,0.5,1.2-2.7,1.4-2.7
		c0.5,0,0.9,3.9,1.4,4.4c1.2,1.2,8.5-2,10.1-2.2"/>
	<path id="path4031-2-3" class="st6" d="M74.1,24.6c-2.8-1.4-2.6-4.6-4.1-6.9c-0.1-0.1,0.2,7.2-0.3,7.7c-0.6,0.6-1.4-5-1.4-5.2
		c0-1.3-0.1,3.3-1.4,3.6c-3.2,0.6-6.7-0.3-9.9-0.3"/>
	<path id="path4033-3-3" class="st6" d="M-161,95.2c-0.5-11.4,1.8-0.3,2.5-0.3c1.3,0,1.9-9.1,1.9-10.7c0-1.5,1.1,7.7,1.6,8.2
		c1.3,1.3,7.2-0.8,9.1-0.8"/>
	<path id="path4035-1-7" class="st6" d="M-172.5,37.5c-0.2-1,0.4-4.6-0.8-5.2c-0.4-0.2-0.8,4.2-0.8,4.7c-0.6,5.5-1.2-3.9-2.2-2.5
		c-0.4,0.5-0.3,4.8-0.3,3.6c0-2.1-1.4-10.9-1.4-4.7c0,1.7-0.2-6.1-1.4-4.9c-4.6,4.6,5.8,10.2-2.2,10.2c-2.4,0-4.8,0-7.1,0"/>
	<path id="path4037-2-0" class="st6" d="M-115.7,82c0.1-9.9,1.4,0.4,1.6,0.5c1.2,0.6,1.1-1.1,1.6-1.4c0.6-0.3,2.7,0.5,3.6,0.5"/>
	<path id="path4039-5-0" class="st6" d="M-140.1,17.2c0-8.2,0.9,1.5,3,3.6c0.8,0.8,0.5-2.6,0.5-2.7c0.8-1.6,3.5,0.3,5.2,0.3"/>
	<path id="path4041-7-1" class="st6" d="M-53.7-18.5C-52.6-25.6-55.5-21.1-53.7-18.5c1.7,2.6,3.3-2.7,3.3-3.6c0-0.8,0.9,1.5,1.6,1.9
		c1,0.5,3-0.3,3.8-0.5"/>
	<path id="path4043-8-0" class="st6" d="M-134.1-61.3c1.2-6-1.7-16.5,0.5-3.3c0.2-0.3,0.2,2.4,0.8,2.2c1.6-0.5,3.2-8.2,3.3-8.2
		c0,0-0.8,7.8-0.3,8c1.7,0.6,5,0,6.3-0.3"/>
	<path id="path4045-5-3" class="st6" d="M-147.2-49.7c-3.2-11.7-1.3,3.3-1.9,3.3c-0.5,0-5.3-0.9-6.3-1.4"/>
	<path id="path4047-3-0" class="st6" d="M-140.4-98.1c0.8-0.1,3.2,0.1,3.3,0c0.6-1-0.6-9.6,0.8-9.6c0,0,0,1.9,0,2.2
		c0.1,1.5,1.6,5.6,1.6,4.1c0-1.7,0-3.5,0-5.2c0-1.5-0.4,6.4,1.6,7.1c1.2,0.4,8.2,0.4,11.2,0"/>
	<path id="path4049-2-0" class="st6" d="M-89.1-103c4.9,3.1,1.6-11.3,1.6-9.1c0,0.8-0.3,7.7,0.5,7.7c2,0,2.5-8,2.7-7.1
		c1,4.1,1.5,9.4,1.9,8c0.5-1.4,0.7-5.8,0.3-4.4c-2.9,8.6,3.5,4.7,7.7,3.8"/>
	<path id="path4051-8-3" class="st6" d="M-49.6-84.3C-49.7-94.6-51-84.9-49.6-84.3c1.2,0.5,2.5-0.5,3.8-0.5"/>
	<path id="path4053-9-8" class="st6" d="M5.8-50c-8-8.9-1.1,2.2-1.1-4.4c0-2.1,0-8.4,0-6.3c0,2.7-0.3,5.3-0.3,8c0,0.6,0.6,1.9,0,1.9
		c-2,0,1.4-7.7,1.4-5.8c0,3.9,2.8,3.9,2.5,3.6C7.3-54,5.8-51.3,5.8-50c0,2,4-0.4,6-0.8"/>
	<path id="path4055-3-3" class="st6" d="M34.3-43.7C35.8-57.7,31.7-50.6,34.3-43.7c0.8,2.1,2.9-3.8,3-6c0-0.3,0-4.1,0-4.1
		c0.2,0-2.9,14.9,9.1,10.2"/>
	<path id="path4057-8-6" class="st6" d="M76.6-50c-0.7,0.3,0.3-2.2,0-2.2C75.8-52.2,76.8-50.7,76.6-50c-1.9,6.5-3.3,0.2-4.7-1.1"/>
	<path id="path4059-6-0" class="st6" d="M17.9-97c0.2-6.6-0.6,1.5,1.4,2.5c2,1,2.1-5.2,2.7-5.2c2.3,0-2.2,8,5.5,4.1"/>
	<path id="path4061-1-4" class="st6" d="M37.1-132.6c0,2.7,0-11,0-8.2c0,1.5-0.4,5.6,0.8,6.9c0.7,0.7,1.4-2,1.9-1.6
		c1.6,1.1,1.8,2.8,3.3,3.6"/>
	<path id="path4063-6-0" class="st6" d="M70.2-124.1c-5.4,0.9-5.8,3-5.8-5.2c0-0.8-0.2,6.9-2.2,4.9c-0.9-0.9,0.4-11.5,0,0
		c-1.3,0-2.6,0-3.8,0"/>
	<path id="path4065-8-9" class="st6" d="M85.9-26.1c-1.1,1.5-2.5,1.1-4.9,1.1c-3.8,0-4.4,1.1-4.4-3.8c0-0.7,0.2,1.5,0,2.2
		c-0.3,1.2-0.1-3.6-1.4-3.6c-0.2,0,0.3,8.1,0,8.2c-1.3-0.8-2.7-0.5-4.1-0.5"/>
	<rect id="rect4270-2" x="-194.2" y="-146.1" class="st6" width="281.5" height="281.7"/>
	<path id="path4272-4" class="st6" d="M-23.8,0.9c1.4-2.2-5-4.1-5.4-3.3c-0.6,1.2,3.1,3.6,1.8,3.6c-2,0-6.3,1-4.1,4.4
		c1,1.6,3-0.3,2.6-0.3c-0.9,0,1.6,1.7,3.3,1.3c0.5-0.1,2-1.8,1-1.8c-1.2,0-1,2.3,0.5,1.5C-22.1,5.3-18-2.4-23.8,0.9L-23.8,0.9z"/>
	<path id="path3110-9" class="st6" d="M-31.9,6.1c-1.8-0.7-3.1,2.9-2.1,4c0.9,0.9,3.2-0.4,3.1-0.3c-0.5,0.5-2.8,3.4-1.3,4.1
		c1.6,0.8,3.1-1.2,3.1-1.2c-1.6,1.6,0.8,2.3,1.9,1.2c1.6-1.6,3.2-3.4,4.8-4.3c0.7-0.3,1.8,0.3,2.5-0.1c3.2-2.2-1.6-2.7-1.5-2.6
		c0.9,0.4,0.5-2.9-0.4-2.9"/>
</g>
</svg>
