<?xml version="1.0" encoding="utf-8"?>
<!-- Generator: Adobe Illustrator 25.0.0, SVG Export Plug-In . SVG Version: 6.00 Build 0)  -->
<svg version="1.1" id="Layer_1" xmlns="http://www.w3.org/2000/svg" xmlns:xlink="http://www.w3.org/1999/xlink" x="0px" y="0px"
	 viewBox="0 0 283.5 283.5" style="enable-background:new 0 0 283.5 283.5;" xml:space="preserve">
<style type="text/css">
	.st0{fill:#FFFFFF;}
	.st1{fill:#87AD50;}
	.st2{fill:#BBA78E;}
	.st3{fill:#EE663C;}
	.st4{fill:#214E26;}
	.st5{fill:none;stroke:#010101;stroke-width:1.7793;stroke-linecap:round;stroke-linejoin:round;}
	.st6{fill:none;stroke:#010101;stroke-width:1.7793;stroke-linejoin:round;}
	.st7{fill:none;stroke:#010101;stroke-width:1.7793;}
</style>
<g id="g8766" transform="translate(-3.7216146,-0.93040366)">
	<g>
		<path class="st0" d="M145.5,1c46.9,0,93.8,0,140.6,0c0.9,0,1.1,0.2,1.1,1.1c0,93.8,0,187.5,0,281.3c0,0.9-0.2,1.1-1.1,1.1
			c-93.8,0-187.5,0-281.3,0c-0.9,0-1.1-0.2-1.1-1.1c0-93.8,0-187.5,0-281.3c0-0.9,0.2-1.1,1.1-1.1C51.7,1,98.6,1,145.5,1z"/>
		<path class="st1" d="M145.6,3.6c45.9,0,91.9,0,137.8,0c1.1,0,1.4,0.2,1.4,1.4c0,91.9,0,183.8,0,275.7c0,1.2-0.3,1.4-1.4,1.4
			c-91.9,0-183.8,0-275.6,0c-1.2,0-1.5-0.2-1.5-1.4c0-91.9,0-183.7,0-275.6c0-1.2,0.3-1.4,1.5-1.4C53.7,3.6,99.7,3.6,145.6,3.6z"/>
		<path class="st0" d="M151.5,116.7c9.5-3.5,18.8-7,28-10.4c1.4-0.5,2.7-1,4.1-1.6c0.8-0.3,1.4-0.2,2.1,0.3
			c6.7,5,13.5,9.9,20.3,14.9c2.4,1.7,4.8,3.4,7.2,5.1c0.5,0.4,1.1,0.8,1,1.4c-0.1,0.8-0.7,1.2-1.4,1.4c-0.6,0.1-0.8,0.5-0.8,1.1
			c0,9.7,0,19.3,0,29.2c1-1.5,1.9-2.8,3.2-3.7c1.8-1.3,3.7-2.1,5.9-2.2c1.8-0.1,3,1.2,3.2,3.2c1.5-0.5,2.9-1,4.5-1.2
			c1.5-0.2,2.8,0.1,3.7,1c1.1,1,1.2,2.4,0.7,3.9c-0.3,0.9-0.6,1.9-1.2,2.6c-0.4,0.4-0.2,0.6,0.1,0.8c2.3,1.4,3.6,3.4,4,6
			c0.4,2.5-0.7,5.1-4,5.2c-1.8,0-3.7,0-5.5-0.2c-0.8-0.1-1,0.1-0.6,0.9c0.6,1,0.6,2,0.5,3.1c-0.1,1.3-1.6,2.6-3.2,2.9
			c-2.9,0.4-5.4-0.4-7.6-2.2c-0.6-0.5-1.2-0.8-2.1-0.5c-2.3,0.8-4.7-0.9-5.7-3.3c-0.4-1-0.6-2.1-0.9-3.1c-4.5,2-9,4-13.6,6
			c-5.4,2.3-10.7,4.6-16.1,7c-3.3,1.5-6.7,3-10,4.4c-3.5,1.5-7.1,3-10.6,4.6c-0.7,0.3-1.1,0.6-1.1,1.5c0.2,2-0.1,4,0.1,6
			c0.1,0.7-0.4,1.3-1.1,1.6c-3.1,1.3-6.3,2.7-9.4,4.1c-2.2,0.9-4.5,1.7-6.6,2.8c-1.5,0.8-2.6,0.3-3.7-0.4c-3.6-2.4-7.1-4.7-10.6-7.2
			c-0.5-0.3-0.7-0.3-1.1-0.1c-1.6,0.7-3.3,1.4-4.9,2.1c-0.8,0.4-1.4,0.2-2-0.3c-1.6-1.3-3.2-2.5-4.9-3.7c-0.4-0.3-0.6-0.7-0.7-1.3
			c-0.4-7.2-0.2-14.3-0.2-21.5c0-1.3,0-2.6-0.5-3.8c0,0.4,0,0.8,0,1.2c0,5.2,0,10.4,0,15.6c0,1.1-0.4,1.8-1.6,2
			c-1.8,0.4-3.6,0.9-5.3,1.4c-0.7,0.2-1.3,0-1.8-0.4c-3.6-2.7-7.1-5.5-10.7-8.2c-0.6-0.5-0.7-1.1-0.7-1.8c0-9.2,0-18.4,0-27.5
			c0-16.2,0-32.4,0-48.6c0-1.2,0.4-1.9,1.5-2.3c1-0.4,1.4-1,1.4-2.2c-0.1-5.3,0-10.6-0.1-16c0-0.8,0.2-1.4,0.8-1.9
			c4.1-4,8.2-8.2,12.4-12.1c2.8-2.6,5.3-5.4,8.1-7.9c1.7-1.6,3.3-3.2,5-4.7c0.5-0.4,0.3-0.8,0.3-1.1c0-5.3,0-10.6,0-15.8
			c0-1.6,0.6-2.1,2-1.3c3.7,2,7.3,4,10.9,6c0.4,0.2,0.9,0.4,1.3,0.7c0.5,0.3,0.9,0.8,0.7,1.5c-0.2,0.6-0.7,0.7-1.2,0.8
			c-1.5,0.3-3,0.3-4.4,0.2c-2.1-0.1-4.2,0.4-6.3,0.2c-0.5,0-0.7,0.2-0.7,0.7c0,2.3,0,4.6,0,7c0,0.2-0.1,0.4,0.2,0.6
			c2.2,1.4,3.3,3.7,4.9,5.6c2.6,3.1,5,6.3,7.5,9.5c2.1,2.6,4.1,5.2,6.2,7.9c1.9,2.4,3.7,4.8,5.6,7.3c0.3,0.4,0.6,0.9,0.6,1.5
			c0,4.8,0.1,9.7,0,14.5c0,1.7,0.2,3,1.7,3.8C151.8,110.8,152.2,113.5,151.5,116.7z"/>
		<path class="st0" d="M44.5,261.2c-1.3,1.2-2.5,2.5-3.6,3.8c-0.5,0.6-1.1,1-1.9,0.4c-0.7-0.6-0.5-1.2,0-1.9
			c1.4-1.9,3.2-3.4,4.9-5.1c0.7-0.7,2.1-0.2,2.5,1c0.4,1.2,0.8,0.8,1.5,0.2c1.4-1.3,2.1-1.2,2.9,0.7c0.1,0.2,0.1,0.2,0.3,0.3
			c1.4,0.7,2.1,1.8,2.6,3.2c0.4,1,1.1,1.7,2.1,2c1,0.3,1,1,0.8,1.7c-0.2,0.7-0.9,0.7-1.6,0.5c-1.9-0.5-3-1.8-3.7-3.5
			c-0.4-0.9-0.7-1.5-1.9-1.7c-0.8-0.1-1.5-0.3-2.3-0.2C46.1,263,45.3,262.4,44.5,261.2z"/>
		<path class="st0" d="M235.6,206.1c-1.3,0.2-2.3-0.2-3.3-0.5c-1.1-0.3-0.8-1.6-1.4-2c-0.7-0.5-1.4-0.7-1.7-1.7
			c-0.2-0.8,0.2-1.5,0.2-2.3c0-0.2,0.3-0.5,0-0.7c-0.3-0.2-0.6-0.1-0.9,0c-0.9,0.3-1.7,0.8-2.7,0.9c-0.3,0-0.6,0.1-0.9,0.1
			c-1.7,0-2.1-0.5-1.7-2.2c0.1-0.4,0.3-0.4,0.6-0.4c1.9,0.3,3.5-0.7,5.3-1c1-0.2,1.9-0.1,2.6,0.7c0.7,0.7,0.5,1.5,0.3,2.3
			c-0.1,0.3-0.2,0.6-0.3,0.9c-0.1,0.5-0.5,1.1,0.7,0.8c1.2-0.3,2.3,0.7,2,1.9c-0.2,0.9,0.2,0.9,0.8,0.9c0.2,0,0.3,0,0.5,0
			c1.2,0,1.9,1.1,1.3,2.1C236.7,206.5,235.9,205.9,235.6,206.1z"/>
		<path class="st0" d="M100.6,242.8c-0.1,1.7-0.6,2.1-2.1,1.6c-3-0.9-5.2-2.6-5.5-5.9c-0.1-0.7-0.6-0.4-0.9-0.4
			c-1,0.3-2,0.4-2.8-0.4c-0.4-0.3-0.6,0-0.7,0.3c-0.4,0.5-0.9,1.1-1.2,1.7c-0.4,1-1,0.5-1.3,0.1c-0.4-0.4-1.6-0.5-0.6-1.6
			c0.9-0.9,1.5-2.1,2.2-3.1c0.9-1.3,2.2-1.2,3.1,0.2c0.2,0.4,0.3,0.7,0.9,0.4c0.4-0.2,0.9-0.2,1.3-0.3c1.8-0.3,2.1,0,2.4,1.8
			c0.5,3.6,1.1,4.2,4.6,5.1C100.3,242.4,100.6,242.3,100.6,242.8z"/>
		<path class="st0" d="M63.6,31.4c-0.6-0.1-1.5-0.1-2-1c-0.3-0.5-0.8-0.6-1.4-0.7c-2.6-0.1-5.1,0.6-7.7,0.9
			c-0.9,0.1-1.9,0.1-2.8,0.1c-0.6,0-0.9-0.4-0.9-1c0-0.7,0.4-1.3,1-1.3c1.9,0,3.7-0.4,5.5-0.7c2.2-0.3,4.5-0.6,6.8-0.1
			c0.5,0.1,0.9,0.3,1.2,0.7c0.6,0.7,1.2,0.7,1.8,0c0.5-0.6,1.2-1,1.8-0.4c0.7,0.6,0.5,1.4,0,2.1C66.5,30.9,65.1,31.4,63.6,31.4z"/>
		<path class="st0" d="M55.7,179.8c-0.1,0.5-0.4,1.2-1.1,1c-1.4-0.5-2.5,0.5-3.7,0.6c-1.7,0.1-3.5,0.6-4.6-1.4
			c-0.2-0.4-0.4-0.3-0.8,0c-1.3,0.8-2,2.1-3,3.1c-1.2,1.1-2,1.4-2.6,0.6c-0.7-1,0.1-1.7,0.8-2.4c1.1-1.1,2.1-2.1,3.2-3.2
			c1.7-1.7,2.9-1.6,4.3,0.3c0.4,0.6,2.4,0.7,3.5,0.1c1.2-0.6,2.4-0.8,3.6,0C55.6,178.9,55.7,179.3,55.7,179.8z"/>
		<path class="st0" d="M249.2,146.3c1.2,0,2.4,0,3.5,0c0.7,0,1.1,0.3,1.2,1c0.1,0.7-0.2,1.2-0.9,1.3c-1.9,0.4-3.8,0.4-5.5-0.5
			c-0.6-0.3-0.9-0.7-0.9-1.2c-0.1-0.9-0.7-1.7-0.5-2.7c0.1-0.5-0.3-0.4-0.7-0.3c-1.1,0.2-2.3,0.4-3.5,0.4c-0.7,0-1.2-0.2-1.3-1
			c-0.1-0.8,0.3-1.3,1-1.3c1.9-0.1,3.8-0.7,5.7-0.5c1.1,0.1,1.8,0.8,1.8,1.9c0,0.1-0.1,0.3-0.1,0.3
			C250.4,144.4,249.6,145.3,249.2,146.3z"/>
		<path class="st0" d="M57,107.1c-0.8,0-1.6,0-2.4,0c-0.9,0-1.3-0.6-1.3-1.3c0-0.7,0.6-1,1.3-1c1.7-0.1,3.5,0.2,5.2-0.2
			c1-0.3,1.8-0.8,2.4-1.7c1.1-1.6,1.5-1.4,2.9-0.1c1.1,1,1.7,2.3,2.9,3.2c0.5,0.4,0.7,1,0.7,1.5c0,0.3-0.3,0.7-0.8,0.9
			c-0.6,0.3-0.9,0-1.3-0.2c-0.9-0.7-1.5-1.5-2.1-2.5c-0.4-0.6-0.9-0.7-1.4-0.4C61.5,107,59.3,107.3,57,107.1z"/>
		<path class="st0" d="M245.2,250.3c0.6,0,1.2,0.1,1.5,0.6c0.4,0.9,1,0.6,1.5,0.2c0.8-0.6,1.6-1,2.6-1.3c0.7-0.2,1.4,0,1.7,0.8
			c0.2,0.7-0.2,1.3-0.9,1.5c-1.4,0.3-2.5,1.6-4,1.8c-0.9,0.2-1.6,0-2.1-0.6c-0.5-0.6-0.7-0.3-1.1,0c-1.5,1.3-3.3,2.3-4.3,4.2
			c-0.2,0.3-0.6,0.6-1.2,0.4c-0.5-0.2-0.8-0.5-0.8-1c-0.2-1.1,0.5-1.9,1.2-2.5c1.4-1.4,3-2.7,4.7-3.8
			C244.4,250.4,244.8,250.2,245.2,250.3z"/>
		<path class="st0" d="M149.9,261.9c-0.3,0-0.5,0-0.7-0.1c-0.8-0.3-1.6-0.2-2.4,0c-1.8,0.2-2.3,1.6-3.3,2.7
			c-0.2,0.2-0.3,0.4-0.5,0.5c-0.5,0.7-1.2,0.6-1.8,0.2c-0.6-0.4-0.6-1.1-0.2-1.6c1.3-1.3,2.1-3.1,3.5-4.3c0.2-0.2,0.3-0.4,0.6-0.4
			c1.1,0.3,1.8-0.4,2.7-0.7c0.5-0.2,1-0.1,1.2,0.4c0.6,1.1,1.4,1,2.4,0.6c0.2-0.1,0.4-0.1,0.6-0.2c0.7-0.2,1.2,0,1.5,0.7
			c0.3,0.7,0.1,1.2-0.5,1.6C152,261.7,150.9,261.7,149.9,261.9z"/>
		<path class="st0" d="M139.7,30.2c0,1.3-0.9,1.8-2.2,1c-1-0.6-1.9-0.7-3-0.7c-0.6,0-1,0.1-1.3,0.5c-0.8,1.1-1.9,1.9-2.5,3.2
			c-0.3,0.6-0.6,0.6-1.1,0.3c-1.5-0.8-1.5-0.7-0.6-2.2c0.9-1.5,2.3-2.5,3.3-3.9c0.4-0.5,1.1-0.6,1.5-1c0.6-0.5,1,0.4,1.5,0.6
			c0.3,0.1,0.6,0.2,0.9,0.2c0.8,0,1.8-0.3,2.2,0.8c0,0.1,0.2,0.1,0.3,0.1C139.8,28.9,139.8,29.5,139.7,30.2z"/>
		<path class="st0" d="M36.6,97.9c-1-0.6-1.9-0.1-2.8,0.6c-1,0.6-2.1,0.4-3.1-0.2c-0.4-0.3-0.8-0.4-1.2,0c-0.3,0.4-0.8,0.5-1.4,0.5
			c-0.9-0.1-1.3-0.6-0.9-1.5c0.6-1.2,1.8-1.8,3-2.3c0.6-0.2,1.2,0.2,1.5,0.7c0.5,0.7,0.9,0.7,1.4,0.2c1.1-1.1,3.4-1.1,4.5-0.1
			c0.4,0.3,0.6,0.8,0.5,1.4C38,97.8,37.4,97.9,36.6,97.9z"/>
		<path class="st0" d="M32.8,240.9c-1,0-2.1,0-2.1-1.2c0-1.3,1.1-1.2,2.1-1.2c0.9,0,1.9-0.1,2.7-0.4c1-0.2,1.9,0,2.7,0.4
			c0.7,0.4,1.4,1,2.1,1.5c0.6,0.4,0.7,1.1,0.4,1.7c-0.3,0.5-1,0.7-1.6,0.4c-0.3-0.2-0.7-0.4-1-0.6c-1.1-1-2.4-1-3.8-0.6
			C33.9,240.9,33.3,240.9,32.8,240.9z"/>
		<path class="st0" d="M198.8,89.5c0.7-0.3,0.8-1.1,1.6-1.1c1.1-0.1,1.7,0.7,1.2,1.7c-0.5,1-1.3,1.7-2.4,2.1c-1,0.3-2-0.2-2.5-1.4
			c-0.2-0.6-0.3-1.1-1.2-0.8c-0.5,0.2-1-0.2-1.1-0.7c-0.2-0.6-0.1-1.2,0.5-1.6C196.5,86.8,198.1,87.6,198.8,89.5z"/>
		<path class="st0" d="M275.5,181.6c-0.6,0.6-1,1.1-1.6,1.5c-1.2,0.9-2.7,0.8-3.8-0.3c-0.6-0.6-0.9-0.6-1.4,0.1
			c-0.4,0.5-0.8,0.4-1,0c-0.3-0.6-1.5-0.5-1-1.4c0.4-1,2.1-1.8,3-1.5c0.6,0.2,1.1,0.4,1.5,0.8c0.6,0.6,1.3,0.7,1.8,0
			c0.5-0.8,0.9-0.4,1.3,0C274.7,181,275.1,181.3,275.5,181.6z"/>
		<path class="st0" d="M107.8,265.4c0.2-0.2-0.4-0.5,0.1-0.7c0.6-0.2,1.2-0.2,1.6,0.2c0.7,0.7,1.2,0.4,1.8,0.1
			c1.5-0.8,1.9-0.7,3.1,0.5c0.3,0.3,0.6,0.7,0.9,0.9c0.6,0.4,0.5,0.8,0.3,1.3c-0.8,1.4-1.1,1.5-2.1,0.3c-0.7-0.8-1.2-0.7-2-0.3
			C109.5,268.6,107.9,267.7,107.8,265.4z"/>
		<path class="st0" d="M125.1,221.3c0.3,0,0.7-0.1,0.9,0c1.2,0.6,2.2,0.4,3.2-0.4c0.8-0.7,1.7-0.3,2.3,0.2c0.5,0.4,0.5,1,0.1,1.6
			c-0.1,0.1-0.2,0.3-0.3,0.4c-1.9,0.2-3.6,2-5.6,0.7c-0.4-0.2-0.8-0.1-1.3-0.1c-0.8,0-1.4-0.2-1.3-1.1c0-0.8,0.5-1.3,1.3-1.3
			C124.7,221.3,124.9,221.3,125.1,221.3C125.1,221.3,125.1,221.3,125.1,221.3z"/>
		<path class="st0" d="M214.6,85.4c-0.9-0.1-1.9-0.2-2.4-1c-0.6-0.9-1.4-0.8-2.2-0.6c-1,0.3-1.6-0.1-1.9-0.8c-0.3-1,0.4-1.5,1.3-1.6
			c1.1-0.1,2.3,0,3.4-0.1c0.1,0,0.2,0,0.2,0.1c0.8,0.9,1.7,1.6,3,1.8c0.5,0.1,0.5,0.8,0.3,1.2C216,85.1,215.4,85.4,214.6,85.4z"/>
		<path class="st0" d="M70.4,213.2c-0.7-0.1-1.3,0-1.8,0.3c-0.9,0.4-1.4-0.1-1.7-0.7c-0.3-0.6,0.2-1.1,0.7-1.4c2-1.2,4-0.7,6-0.2
			c0.4,0.1,0.8,0.6,0.6,1.2c-0.2,0.6-0.7,0.9-1.3,1C72.1,213.6,71.2,213,70.4,213.2z"/>
		<path class="st0" d="M260.2,145.2c0.8-0.3,1.4-0.7,2.1-0.9c0.9-0.3,1.7-0.4,2.3,0.6c0.3,0.5,1.1,0.3,1.4,0.9
			c0.2,0.4,1.1,0.6,0.7,1.2c-0.4,0.6-1,1.1-1.9,1c-0.3-0.1-0.8-0.1-1-0.3c-0.6-0.6-1.1-1.3-2.1-0.5c0,0-0.4-0.2-0.5-0.4
			C260.9,146.3,260.6,145.8,260.2,145.2z"/>
		<path class="st0" d="M59.1,145.9c0.9-0.2,1.9,0.3,3,0.3c0.7,0,1.2,0.6,1.1,1.4c-0.1,0.7-0.5,0.9-1.2,0.9c-1.4,0.1-2.9-0.3-4.3-0.3
			c-0.5,0-1.1-0.3-1.1-1.1c0-0.8,0.4-1.2,1.2-1.2C58.2,145.8,58.6,145.9,59.1,145.9z"/>
		<path class="st2" d="M209.5,129.2c0,0.4,0,0.7,0,0.9c0,12.1,0,24.2,0,36.3c0,0.8-0.2,1.2-1,1.5c-4.1,1.7-8.2,3.6-12.3,5.4
			c-5.3,2.3-10.6,4.6-15.8,6.9c-4.1,1.8-8.3,3.7-12.4,5.5c-3.8,1.7-7.7,3.4-11.5,5.1c-0.6,0.3-0.8,0.1-0.9-0.4
			c-0.1-0.2,0-0.4-0.1-0.6c0-3.8-0.1-7.5-0.2-11.3c-0.1-5.5-0.3-11.1-0.4-16.6c-0.1-3.2-0.1-6.4-0.2-9.7c-0.1-1.9-0.1-2,1.9-2.7
			c8.1-3.1,16.2-6.2,24.4-9.4c7.8-3,15.6-6.1,23.3-9.1C206,130.4,207.7,129.8,209.5,129.2z"/>
		<path class="st3" d="M154.5,143.6c0.1-2.7-0.4-5.5-0.2-8.3c0-0.6,0-1,0.5-1.5c0.7-0.6,0.6-1.2,0-1.8c-1-1-1.9-2.1-3-3.2
			c-0.3-0.3-0.4-0.6-0.4-1c0-2.6,0-5.1,0-7.7c0-0.7,0.3-1,0.9-1.2c6-2.2,12-4.4,18-6.6c4.4-1.6,8.8-3.3,13.1-4.9
			c0.6-0.2,1.1-0.2,1.7,0.2c5.1,3.8,10.2,7.5,15.4,11.3c2.9,2.1,5.8,4.2,8.7,6.3c0.3,0.2,0.8,0.3,0.8,0.8c0,0.5-0.5,0.6-0.9,0.8
			c-3.4,1.3-6.8,2.7-10.3,4c-6.4,2.5-12.9,4.9-19.3,7.4c-5.4,2.1-10.8,4.2-16.2,6.2c-2.4,0.9-4.9,1.9-7.3,2.8
			c-1.3,0.5-1.4,0.5-1.4-0.9C154.5,145.4,154.5,144.6,154.5,143.6z"/>
		<path class="st2" d="M101.4,189.6c-1.5-0.8-2.6-1.9-3.9-2.8c-1.6-1.1-3-2.4-4.6-3.5c-0.4-0.3-0.6-0.6-0.5-1.1c0-0.1,0-0.2,0-0.4
			c0-23.9,0-47.9,0-71.8c0-0.3,0-0.5,0-0.9c0.7,0,1.1,0.5,1.6,0.7c4,2.2,8,4.3,11.9,6.4c3.1,1.6,6.1,3.3,9.2,4.9
			c0.8,0.4,1.2,1,1.2,2c0,2.6-0.2,5.2,0.2,7.8c0.1,0.7-0.2,1.4-0.2,2.2c0,21.7,0,43.5,0,65.2c0,0.4,0,0.9,0,1.5
			c-1.2-0.5-2-1.4-2.9-2.1c-0.5-0.4-0.2-1.2-0.2-1.8c0-7.2-0.2-14.4-0.3-21.6c0-3.4-1.2-6.8-4.3-8.9c-2.4-1.7-5.1-1.2-6.8,1.2
			c-0.4,0.5-0.4,1.1-0.4,1.7C101.4,175.3,101.4,182.3,101.4,189.6z"/>
		<path class="st2" d="M137.8,173.8c0-10.6,0-21.1,0-31.7c0-1,0.4-1.4,1.2-1.7c4-1.6,8-3.2,11.9-4.8c0.9-0.4,1.1-0.3,1.2,0.7
			c0,5.1,0,10.2,0.2,15.3c0.2,3.8,0,7.6,0.3,11.4c0.2,3.1,0,6.3,0.2,9.4c0.3,3.5,0,6.9,0.3,10.4c0.2,2.8,0.1,5.7,0.2,8.5
			c0.1,2.6,0.3,5.2,0.2,7.9c0,0.7-0.1,1-0.9,1.3c-4.7,1.9-9.3,4-13.9,6c-1,0.4-0.8-0.2-0.8-0.7c0-5.9,0-11.7,0-17.6
			C137.8,183.4,137.8,178.6,137.8,173.8z"/>
		<path class="st3" d="M143.6,89.8c-7.8,1.9-15.5,3.8-23.2,5.8c-1,0.3-0.9-0.2-0.8-0.7c0.2-3.6,0.4-7.1,0.4-10.7
			c0-3.2,0.2-6.3,0.3-9.5c0.1-4.1,0.4-8.1,0.4-12.2c0-0.3-0.2-0.7,0.3-0.8c0.4-0.1,0.7,0.1,0.9,0.4c2.3,3,4.7,6,7,8.9
			c2.5,3.2,5,6.4,7.5,9.6c2.1,2.7,4.2,5.4,6.3,8.1C143,89,143.3,89.4,143.6,89.8z"/>
		<path class="st2" d="M135.4,206c-2.8-1.9-5.2-3.8-7.9-5.2c-2.4-1.3-3.1-3-3.1-5.8c0.1-19.5,0.1-38.9,0.1-58.4c0-0.4,0-0.9,0-1.5
			c2.5,1.3,4.8,2.5,7.2,3.8c0.8,0.4,1.5,0.9,2.3,1.2c1.1,0.4,1.5,1,1.5,2.3c-0.1,9.6,0,19.3,0,28.9c0,11,0,22.1,0,33.1
			C135.4,204.9,135.4,205.3,135.4,206z"/>
		<path class="st3" d="M96.2,85.5c7.4-7.2,14.8-14.4,22.1-21.5c-0.4,2.8,0.2,5.5-0.3,8.2c0,0.3-0.1,0.5,0,0.8
			c0.1,3.6-0.2,7.1-0.3,10.7c-0.1,3.9-0.3,7.8-0.5,11.8C110.2,92.1,103.3,88.8,96.2,85.5z"/>
		<path class="st4" d="M209.5,170.7c1.6,0.4,2.8-0.1,3.3-1.5c0.7-1.7,1-3.4,1.2-5.2c0.1-1.3,0.5-2.6,0.1-4c-0.1-0.3,0.3-0.9,0.6-1.3
			c1.6-2.2,3.6-3.8,6.5-3.8c0.6,0,0.8,0.2,0.7,0.7c-0.1,0.8,0.1,1.6-0.4,2.4c-0.4,0.7,0,1.3,0.6,1.6c0.6,0.3,1,0.1,1.5-0.4
			c1.7-2.1,4.1-2.5,6.6-2.4c0.5,0,0.8,0.4,0.8,0.9c0,0.7-0.2,1.4-0.5,2c-0.5,0.9-1.2,1.7-1.8,2.5c-0.7,0.9-0.2,2.2,1,2.3
			c2.9,0.3,4.3,3.4,3.9,5.8c-0.2,1-1.2,1-2,1c-2.7-0.1-5.3-0.3-8-0.2c-0.5,0-1.1-0.2-1.5,0.6c-0.3,0.8,0,1.3,0.4,1.8
			c0.7,0.7,1.1,1.6,1.4,2.4c0.5,1.1-0.2,1.9-1.4,2.1c-2.2,0.3-4-0.6-5.7-1.9c-0.5-0.4-0.9-0.7-1.3-1.1c-0.6-0.5-1.3-0.5-1.7-0.2
			c-1.6,1.2-2.4,0.6-3.5-0.8C209.7,173,209.7,171.9,209.5,170.7z"/>
		<path class="st2" d="M118.7,200.7c0-0.6,0-1,0-1.4c0-5.6,0-11.2,0-16.8c0-1.9,0-3.8,0-5.6c0.5-17.1,0-34.2,0.2-51.3
			c0-0.3,0-0.6,0-0.9c0-0.8-0.6-1.7-0.1-2.4c0.5-0.6,1.5-0.5,2.3-0.7c4.2-1.2,8.3-2.4,12.6-3.6c-1.4,2-3.2,3.6-4.7,5.3
			c-2.3,2.7-4.9,5.2-7.3,7.8c-0.9,1-1,1.7,0.1,2.5c0.6,0.4,0.4,0.9,0.4,1.4c0,10,0,20.1,0,30.1c0,10.8,0,21.7,0,32.5
			c0,1.2-0.2,2-1.5,2.3C120.1,200.1,119.5,200.4,118.7,200.7z"/>
		<path class="st2" d="M119.6,106.7c0-2.5,0-5,0-7.4c0-0.6,0.2-1,0.8-1.2c7.6-1.9,15.3-3.8,22.9-5.8c0.9-0.2,1.1,0,1.1,0.8
			c0,4.6,0,9.3,0,13.9c0,0.7-0.3,1-0.9,1.2c-5.2,1.5-10.4,3-15.5,4.5c-2.5,0.7-4.9,1.4-7.4,2.1c-0.9,0.3-1,0-1-0.7
			C119.6,111.7,119.6,109.2,119.6,106.7z"/>
		<path class="st3" d="M138.4,118.8c4.8,4.5,8.9,9.3,13.6,13.7c-4.5,1.8-8.9,3.6-13.3,5.4c-0.7,0.3-0.8-0.1-0.7-0.6
			c0.3-2.2,0.3-4.5,0.2-6.7C138.1,126.8,138.7,123,138.4,118.8z"/>
		<path class="st2" d="M117.3,114.9c-2.2-1.2-4.3-2.3-6.3-3.4c-2.9-1.6-5.8-3.2-8.7-4.8c-2.1-1.2-4.2-2.4-6.3-3.5
			c-0.4-0.2-0.7-0.5-0.7-1c0-4.8,0-9.5,0-14.4c1.4,0.6,2.7,1.2,4,1.8c4.1,2,8.1,3.9,12.2,5.9c1.7,0.8,3.4,1.6,5.1,2.4
			c0.5,0.2,0.7,0.5,0.7,1.1C117.2,104.2,117.3,109.4,117.3,114.9z"/>
		<path class="st3" d="M136.1,119.2c-0.2,6.4-0.3,12.6-0.5,19c-1.8-0.9-3.6-1.9-5.4-2.8c-1.7-0.9-3.4-1.9-5.2-2.8
			c-0.8-0.4-0.9-0.6-0.3-1.3c2.6-2.7,5.2-5.4,7.7-8.2C133.6,121.8,134.9,120.6,136.1,119.2z"/>
		<path class="st2" d="M147.9,111.5c-3.7,1-7.1,2-10.4,2.9c-5.3,1.5-10.6,3-15.9,4.5c-1.2,0.3-2.4,0.5-3.5,1c-0.4,0.2-0.7,0-1-0.2
			c-4.7-2.6-9.5-5.2-14.2-7.8c-3.3-1.8-6.6-3.5-9.9-5.3c1.9-1.3,1.8-1.3,4.2,0.1c3.9,2.2,7.9,4.4,11.8,6.6c2.7,1.5,5.3,3,8,4.4
			c0.6,0.3,1.2,0.4,1.8,0.2c5.3-1.5,10.7-3.1,16-4.6c3.5-1,7-2,10.5-3C146.5,109.9,146.8,111,147.9,111.5z"/>
		<path class="st2" d="M103.8,179.2c0-3.4,0-6.8,0-10.3c0-1.2,0.8-2,1.9-2c1.2,0,2.1,0.8,2.1,2c0,6.5,0,13.1,0,19.6
			c0,0.7-0.1,1.2-0.9,1.2c-0.2,0-0.5,0.1-0.7,0.1c-0.8,0.2-1.8,0.9-2.2,0.5c-0.4-0.4-0.2-1.6-0.2-2.4
			C103.8,185,103.8,182.1,103.8,179.2z"/>
		<path class="st2" d="M139.6,116.4c2.1-0.6,4-1.2,5.9-1.7c1-0.3,2-0.5,2.9-0.8c0.6-0.2,0.8-0.1,0.8,0.5c0,3.8,0,7.6,0,11.7
			C145.7,122.9,143,119.5,139.6,116.4z"/>
		<path class="st0" d="M189.5,159.5c0,2.8,0.1,5.6-0.2,8.4c-0.1,0.8-0.5,1.2-1.2,1.4c-1.7,0.7-3.4,1.3-5.1,2
			c-1.6,0.7-2.5,0.2-2.5-1.6c0-2.6,0-5.2,0-7.8c0-2.1-0.4-4.1-0.2-6.2c0.2-2.4,0.8-4.6,3-6c2.5-1.7,4.7-0.2,5.7,1.9
			c0.5,1,0.5,2.2,0.5,3.3C189.4,156.4,189.5,158,189.5,159.5z"/>
		<path class="st0" d="M204.6,152.1c0.2,3.1-0.3,6.2-0.2,9.3c0,0.6-0.2,1-0.8,1.3c-2.1,0.8-4.1,1.7-6.2,2.5c-1,0.4-1.7-0.3-1.8-1.7
			c0-2.4,0.1-4.7,0-7.1c-0.2-2.4-0.3-4.8-0.2-7.2c0.1-2.3,0.9-4.3,2.7-5.8c2.3-1.9,5-0.5,6,1.9c0.7,1.6,0.4,3.2,0.4,4.8
			C204.6,150.8,204.6,151.4,204.6,152.1z"/>
		<path class="st0" d="M163.6,169.3c-0.2-2-0.2-3.9-0.2-5.9c0-2.6,0.6-5.2,3.1-6.8c1.7-1,4.2-0.8,5.5,2c0.7,1.4,0.5,2.9,0.5,4.4
			c-0.1,3.7,0,7.3,0,11c0,1.7-0.3,2.1-1.8,2.7c-1.7,0.7-3.5,1.4-5.2,2c-1,0.4-1.7-0.1-1.7-1.2C163.7,174.8,163.3,172,163.6,169.3z"
			/>
		<path class="st0" d="M109.9,141.3c0,2.7,0,5.4,0,8c0,1.8-0.8,2.3-2.4,1.5c-2.5-1.3-5-2.5-7.5-3.8c-1-0.5-1.4-1.1-1.4-2.2
			c0-5.4,0-10.8,0-16.2c0-2.2,1.8-4,4-4.2c1.5-0.1,2.8,0.4,3.8,1.5c2.1,2.5,3.8,5.2,3.6,8.7C109.8,137,109.9,139.2,109.9,141.3z"/>
		<path class="st0" d="M149.8,171.6c0,2.5,0,5,0,7.6c0,1.2-0.4,1.8-1.5,2.2c-2,0.7-4,1.5-6,2.2c-1.2,0.4-2-0.1-2-1.4
			c0-5.3,0-10.6,0-15.8c0-1,0.5-1.5,1.3-1.9c2-0.8,4-1.6,5.9-2.4c1.3-0.5,2.1,0,2.1,1.4C149.8,166.3,149.8,169,149.8,171.6z"/>
		<path class="st0" d="M149.8,147.7c0,2.7,0,5.4,0,8c0,0.9-0.4,1.3-1.1,1.6c-2,0.8-4,1.5-6,2.3c-1.5,0.5-2.2,0.1-2.2-1.5
			c0-5.2,0-10.5,0-15.7c0-1,0.3-1.4,1.2-1.8c2-0.8,3.9-1.6,5.8-2.4c1.5-0.6,2.2-0.1,2.2,1.5C149.8,142.5,149.8,145.1,149.8,147.7z"
			/>
		<path class="st0" d="M134.2,173.9c0,2.3,0,4.6,0,6.8c0,0.4-0.1,0.8-0.2,1.3c-0.3,0.8-0.7,1.1-1.5,0.8c-2.1-0.8-3.9-2.1-5.8-3.2
			c-0.5-0.3-0.5-0.8-0.5-1.4c-0.3-5-0.2-10-0.2-14.9c0-0.6-0.1-1.2,0.5-1.4c0.6-0.2,1.1-0.1,1.6,0.2c1.6,1,3.2,1.9,4.9,2.7
			c0.9,0.5,1.2,1.2,1.2,2.1C134.3,169.2,134.2,171.5,134.2,173.9z"/>
		<path class="st0" d="M133.8,150.6c0,2.3,0,4.6,0,7c0,0.8-0.1,1.5-0.8,1.9c-0.6,0.4-1.2,0-1.8-0.4c-1.4-0.9-2.9-1.7-4.4-2.5
			c-0.7-0.4-1.1-1-1.1-1.8c0.1-4.9-0.4-9.8-0.2-14.7c0.1-1.7,0.8-2.1,2.2-1.4c1.7,0.9,3.4,2,5.1,2.9c0.8,0.4,1,1,1,1.8
			C133.8,145.8,133.8,148.2,133.8,150.6z"/>
		<path class="st0" d="M134.7,104.3c0,1.8-0.1,3.1,0,4.4c0.1,0.8-0.4,1.2-1,1.5c-1,0.3-2,0.7-3,0.9c-0.9,0.2-1.6-0.3-1.6-1.3
			c0-3.6,0-7.2,0-10.7c0-0.7,0.4-1.2,1-1.4c0.9-0.3,1.9-0.5,2.8-0.7c0.9-0.2,1.5,0.3,1.6,1.3C134.7,100.4,134.8,102.6,134.7,104.3z"
			/>
		<path class="st0" d="M136.6,102.5c0-1.7,0-3.5,0-5.2c0-0.8,0.3-1.4,1.1-1.6c1-0.3,2.1-0.7,3.2-0.7c0.8,0,1.1,0.3,1.2,1.1
			c0.3,3.5,0.2,7.1,0.2,10.6c0,0.8-0.4,1.2-1.1,1.5c-1,0.3-2,0.6-3,0.9c-0.8,0.2-1.6-0.4-1.6-1.3C136.6,106,136.6,104.2,136.6,102.5
			z"/>
		<path class="st0" d="M121.3,106.3c0-1.7,0-3.3,0-5c0-0.9,0.4-1.4,1.2-1.7c1-0.3,1.9-0.6,2.9-0.8c0.7-0.1,1.6,0.6,1.6,1.5
			c0,3.5,0,7.1,0,10.6c0,0.6-0.5,0.9-0.9,1.1c-1.1,0.4-2.1,0.7-3.2,0.9c-0.8,0.2-1.4-0.4-1.5-1.5
			C121.2,109.8,121.3,108.1,121.3,106.3z"/>
		<path class="st0" d="M116.3,105.6c0,1.7,0,3.5,0,5.2c0,1.4-0.7,1.9-2,1.3c-1-0.5-1.9-1-2.9-1.5c-0.5-0.3-0.8-0.7-0.8-1.3
			c-0.2-3.4-0.2-6.9-0.2-10.4c0-1.6,0.8-2.1,2.3-1.4c0.9,0.4,1.8,0.9,2.7,1.4c0.7,0.3,0.9,0.8,0.9,1.5
			C116.3,102.1,116.3,103.8,116.3,105.6z"/>
		<path class="st0" d="M101.9,98.4c0,1.7,0,3.3,0,5c0,1.4-0.9,2-2.2,1.3c-0.8-0.4-1.7-0.9-2.5-1.3c-0.9-0.5-1.3-1.2-1.3-2.2
			c0-3.3,0-6.6,0-9.9c0-1.4,0.7-1.8,2-1.3c1,0.4,2,1,2.9,1.5c0.7,0.4,1,1,1,1.7C101.9,94.9,101.9,96.7,101.9,98.4z"/>
		<path class="st0" d="M109.2,102c0,1.8,0,3.6,0,5.4c0,1.1-0.7,1.5-1.7,1.1c-1.2-0.4-2.2-1.1-3.3-1.7c-0.4-0.2-0.5-0.6-0.6-0.9
			c-0.1-0.1,0-0.3,0-0.5c0.2-3.3-0.3-6.5-0.2-9.8c0-2,0.8-2.3,2.7-1.7c2.6,0.9,3.8,2.4,3.3,5.2C109.1,100.1,109.2,101.1,109.2,102z"
			/>
		<path class="st3" d="M182.9,161.9c-0.1-1.6,0.1-3.6-0.2-5.6c-0.1-1.1,0.2-2.4,0.9-3.5c0.5-0.7,1-1.6,1.9-1.4
			c1.1,0.2,1.5,1.4,1.5,2.2c0,2.6,0.2,5.2-0.1,7.7c-0.2,1.6-0.1,3.3,0,4.9c0,0.6-0.1,1-0.8,1.2c-0.6,0.1-1.2,0.5-1.8,0.8
			c-1.1,0.5-1.4,0.3-1.4-0.9C182.8,165.6,182.9,163.9,182.9,161.9z"/>
		<path class="st3" d="M198,156.3c-0.1-1.6,0-3.6-0.2-5.5c-0.2-1.9,0.1-3.8,1.6-5.3c0.9-0.9,1.7-0.8,2.3,0.4
			c0.4,0.7,0.6,1.5,0.6,2.3c0.1,3.9-0.4,7.8-0.3,11.8c0,0.6-0.1,0.9-0.8,1.1c-0.8,0.2-1.7,0.6-2.4,1c-0.7,0.4-0.8,0-0.8-0.6
			C198,159.8,198,158.2,198,156.3z"/>
		<path class="st3" d="M166.2,175.9c-0.3-4.5-0.4-9-0.3-13.4c0-1.2,0.5-2.3,1.4-3.2c0.9-1,2-0.8,2.5,0.4c0.2,0.5,0.4,1.1,0.4,1.7
			c0,3.5,0,6.9,0,10.4c0,2.6,0,2.6-2.4,3.6C167.3,175.5,166.7,175.7,166.2,175.9z"/>
		<path class="st3" d="M107.4,148.1c-2.1-1-4.1-2-6-3c-0.4-0.2-0.4-0.5-0.4-0.9c0-5.2,0-10.4,0-15.6c0-0.9,0.8-1,1.3-1.4
			c0.6-0.4,1.3-0.4,1.8,0.1c2,1.9,3.4,4.2,3.5,7.1c0.1,2.8,0.1,5.7,0,8.5C107.5,144.6,107.3,146.3,107.4,148.1z"/>
		<path class="st3" d="M143,180.7c0-4.5,0-8.9,0-13.4c0-0.5,0.2-0.7,0.6-0.9c1.2-0.5,2.4-1,3.7-1.5c0,4.6,0,9.1,0,13.5
			c0,0.4-0.1,0.7-0.6,0.9C145.4,179.8,144.3,180.5,143,180.7z"/>
		<path class="st3" d="M143,156.8c0-4.5,0-8.9,0-13.3c0-0.5,0.2-0.7,0.5-0.9c1.3-0.5,2.5-1,3.9-1.6c0,3,0,5.8,0,8.6
			c0,1.2,0,2.4,0,3.5c0,2.1,0,2.1-2.1,2.8C144.6,156.3,143.9,156.7,143,156.8z"/>
		<path class="st3" d="M131.6,179.4c-1.1-0.3-1.9-1.1-2.9-1.5c-0.2-0.1-0.2-0.3-0.2-0.5c0.2-4.1-0.4-8.3-0.2-12.6
			c1,0.6,2,1.2,2.9,1.7c0.3,0.1,0.3,0.3,0.3,0.5C131.6,171.2,131.6,175.3,131.6,179.4z"/>
		<path class="st3" d="M131.4,156.5c-0.4-0.3-0.6-0.6-0.8-0.6c-2.4-0.6-2.7-2.3-2.5-4.4c0.2-3.2,0-6.4-0.3-9.9
			c1.3,0.7,2.4,1.3,3.4,1.9c0.2,0.1,0.2,0.3,0.2,0.5C131.4,148,131.4,152.1,131.4,156.5z"/>
		<path class="st3" d="M131.4,103.9c0-1.1,0-2.3,0-3.4c0-0.3-0.2-0.7,0.3-0.7c0.5,0,0.4,0.4,0.4,0.7c-0.1,2.1,0.4,4.2,0.2,6.3
			c0,0.6,0.2,1.5-0.7,1.4c-0.6,0-0.2-0.8-0.3-1.3C131.4,105.9,131.4,104.9,131.4,103.9z"/>
		<path class="st3" d="M139.7,97.7c-0.2,2.5,0.3,5,0.2,7.6c0,0.7-0.3,0.9-1,0.9c0-2.6,0-5.2,0-7.7C138.9,98,139.2,97.8,139.7,97.7z"
			/>
		<path class="st3" d="M124.2,101.7c0.5,2.6,0.3,5.2,0.4,7.8c0,0.6-0.3,0.7-0.7,0.7c-0.6,0-0.3-0.4-0.3-0.6c0-2.3,0-4.6,0-7
			C123.6,102.2,123.6,101.7,124.2,101.7z"/>
		<path class="st3" d="M112.7,100.3c1,0.1,1.3,0.6,1.3,1.5c-0.1,2.4,0,4.8,0,7.3c-0.8-0.2-1-0.6-1-1.4
			C113,105.3,113.1,102.8,112.7,100.3z"/>
		<path class="st3" d="M98.4,93c0.9,0.1,1.2,0.5,1.2,1.4c-0.1,2.4,0,4.9,0,7.4c-0.4-0.3-0.9-0.3-1-1C98.5,98.2,98.2,95.7,98.4,93z"
			/>
		<path class="st3" d="M106.9,105.3c-0.7-0.1-1-0.4-1-1.1c0-2.5,0-4.9,0-7.4c0.7,0,1,0.4,1,1.1C106.9,100.4,106.9,102.8,106.9,105.3
			z"/>
	</g>
	<path id="path4914-3-6" class="st5" d="M102.3,192.1l-11.3-8.6"/>
	<path id="path4742-0-2" class="st5" d="M122,60l23.7,30.2l-27.5,6.9l1.4-36.7L122,60z"/>
	<path id="path4744-3-0" class="st5" d="M119.5,60.5L93.8,85.5l24.8,11.8"/>
	<path id="path4746-2-04" class="st5" d="M91.1,105.9v77.6"/>
	<path id="path4750-6-71" class="st5" d="M91.1,106.8l26.2,14.2l0.1,6.2l-0.1,75.4l-5.5-4.3"/>
	<path id="path4752-0-7" class="st5" d="M118.2,120.8l32-9l-4.3-3.5"/>
	<path id="path4756-6-6" class="st5" d="M145.6,90.6v17.6"/>
	<path id="path4758-2-5" class="st5" d="M146.2,108.5l-28.2,8.1l-23.5-12.9"/>
	<path id="path4760-6-1" class="st5" d="M91.1,105.7l3.6-1.9"/>
	<path id="path4762-2-7" class="st5" d="M93.9,85.4v18.4"/>
	<path id="path4764-1-42-7" class="st5" d="M104.6,105.5l3.3,1.9V96.2l-3.5-1.7L104.6,105.5z"/>
	<path id="path4764-1-4-60-3" class="st5" d="M97.1,101.8l3.3,1.9V92.4l-3.5-1.7L97.1,101.8z"/>
	<path id="path4764-1-7-9-2" class="st5" d="M111.6,109.2l3.3,1.9V99.8l-3.5-1.7L111.6,109.2z"/>
	<path id="path4820-2-2" class="st5" d="M118.2,97.4v19"/>
	<path id="path4764-1-4-6-4-76" class="st5" d="M125.7,110.7l-3.3,1v-11.1l3.1-0.8L125.7,110.7z"/>
	<path id="path4764-1-4-6-9-5-8" class="st5" d="M133.4,108.7l-3.3,1V98.6l3.1-0.8L133.4,108.7z"/>
	<path id="path4764-1-4-6-96-2-7" class="st5" d="M141,106.7l-3.3,1V96.6l3.1-0.8L141,106.7z"/>
	<path id="path4865-2-7" class="st5" d="M150.3,112.8l-0.1,5.5l34.3-12.7l28.5,20.8l-59.8,23l-0.3-15.7"/>
	<path id="path4867-4-9" class="st5" d="M137.3,115.7L122,132.3l14.4,7.7l17.6-7.2L137.3,115.7z"/>
	<path id="path4869-9-1" class="st5" d="M137.2,116.9l-0.5,22.8"/>
	<path id="path4873-7-3" class="st5" d="M137,208.5l17.6-7.5l-1.3-52.3"/>
	<path id="path4875-7-9" class="st5" d="M117.3,202.6l6.6-2.8l12.2,8.3"/>
	<path id="path4877-5-5" class="st5" d="M210.8,168.2l-55.7,24.4"/>
	<path id="path4879-4-8" class="st5" d="M210.8,126.6v41.1"/>
	<path id="path4881-3-3" class="st5" d="M123.3,199.6v-66.2"/>
	<path id="path4883-6-8" class="st5" d="M136.5,140.1v67.2"/>
	<path id="path4885-4-76" class="st5" d="M150.1,118.4v10"/>
	<path id="path4887-4-3" class="st5" d="M164.8,177.7l6.3-2.5l0.2-14.5c-1.3-5.9-6.7-3.4-6.8,2.4L164.8,177.7z"/>
	<path id="path4887-3-8-1" class="st5" d="M181.8,170.4l6.3-2.5l0.2-14.5c-1.3-5.9-6.7-3.4-6.8,2.4L181.8,170.4z"/>
	<path id="path4887-5-1-4" class="st5" d="M196.9,164l6.3-2.5l0.2-14.5c-1.3-5.9-6.7-3.4-6.8,2.4L196.9,164z"/>
	<path id="path4916-6-6" class="st5" d="M111.8,198.4l-0.2-24c-1-8.5-6.8-11-9.2-6.7v24.4"/>
	<path id="path4918-0-5" class="st5" d="M102.5,192.1l6.3-1.7v-23.2"/>
	<path id="path4920-2-3" class="st5" d="M108.4,150l-8.9-4.5v-18.1c3.1-3.3,6.2-2.4,9,5.2L108.4,150z"/>
	<path id="path4922-24-43" class="st5" d="M141.6,158.6l6.9-2.6v-16.9l-6.9,2.8V158.6z"/>
	<path id="path4924-95-9" class="st5" d="M126.8,155.2l5.6,3.2v-15.7l-5.9-3.3L126.8,155.2z"/>
	<path id="path4924-9-7-1" class="st5" d="M127.2,178.5l5.6,3.2V166l-5.9-3.3L127.2,178.5z"/>
	<path id="path4922-2-2-3" class="st5" d="M141.5,182.6l6.9-2.6V163l-6.9,2.8V182.6z"/>
	<rect id="rect3315-5-7-0-6" x="4.6" y="1.8" class="st6" width="281.7" height="281.7">
	</rect>
	<path id="path4998-6-75" class="st5" d="M39.3,264.7c0.4-0.8,4.9-5.3,5-5.2c1,0.5,0.5,2.1,2.1,2.3c0.9,0.1,2.3-1.7,2.6-1.6
		c0.3,0.2-0.1,1.8,0.1,1.9c0.5,0.2,1-0.2,1.5,0.2c2.1,1.4,0.9,4.1,4.6,5"/>
	<path id="path5000-7-0" class="st7" d="M85.5,239.7c1-1.2,2.9-4.3,3.2-4.2c1,0.3,0.1,1.7,2,1.7c0.3,0,2.8-0.7,2.8-0.6
		c0.4,0.8,0.2,2,0.5,2.9c1,3,3.3,3.5,6,4.2"/>
	<path id="path5002-6-3" class="st7" d="M107.7,266.1c1.7-0.5,0.8,1.1,2.5,0.9c0.8-0.1,1.6-1,2.3-1c0.7,0,1.7,1.8,2.6,2.1"/>
	<path id="path5004-0-64" class="st5" d="M31.5,239.8c1.6,0.4,4.3-0.8,5.5-0.3c0.9,0.4,1.5,1.2,2.4,1.6"/>
	<path id="path5006-6-4" class="st5" d="M40.3,183c1-0.6,4.6-5.5,5.6-4.7c1.9,1.5-0.1,2.2,4.3,2c1.4-0.1,2.7-1.8,4-0.5"/>
	<path id="path5008-0-3" class="st5" d="M212.9,159.5c0.8-3.3,5-6.2,8.3-6.2c2.1,0,2.1,1.8,2,3.5c0,0.5-0.5,2-0.5,1.5
		c0-1.4,7.5-4.7,9.3-2.1c1.7,2.5-2.3,6.7-2.3,6.7c0.3,0.6,1.3,0.1,1.9,0.4c2.5,1.5,4.5,4.9,3.2,7.9c-0.9,2-6.2,0.9-7.8,0.9
		c-0.3,0-3.6,0-3.6,0c0-0.1,1.3,1.7,1.4,1.8c1,1.9,1.5,4.4-1.1,5c-2.5,0.6-4.3,0.1-6.4-1.4c-0.7-0.5-1.4-1.1-2.1-1.6
		c-0.1-0.1-0.2-0.5-0.3-0.3c-2.3,2.3-5.2,0.1-5.9-2.5c-1.8-6.4,2.2-2.1,3-4.4C212.6,166.3,213.4,162.2,212.9,159.5L212.9,159.5z"/>
	<path id="path5010-3-0" class="st7" d="M223.4,198.7c1.1-0.1,2.1,0.2,3.2-0.2c1-0.3,2.1-1,3.2-1c2.9,0,0.1,2.5,0.9,4.4
		c0.4,1,2.2-0.1,2.7,0.4c0.8,0.8-2.7,1.8,0.7,2.5c1,0.2,2.1,0.3,3.2,0.1"/>
	<path id="path5012-1-8" class="st7" d="M267.7,182.4c3.5-4.4,3.1,3.2,7-1.5"/>
	<path id="path5014-4-3" class="st5" d="M241.9,142.9c1.4,0.1,2.7-0.3,4-0.4c4.4-0.4,0.8,1.1,1.5,2.6c0.2,0.5,1.5-0.7,1.4-0.3
		c-0.1,0.2-1.1,1.8-0.9,2.1c0.9,0.9,3.8,0.9,5,0.6"/>
	<path id="path5016-5-6" class="st7" d="M261.3,146.1c0.1-0.2,2.1-1.3,2.6-0.8c0.5,0.7,1.2,2.1,2.5,0.5"/>
	<path id="path5018-7-95" class="st5" d="M195.5,88.6c3.2-1.9,1.2,5.2,5.2,0.6"/>
	<path id="path5020-2-8" class="st5" d="M209.3,82.4c6.7-1,1.2,1.5,6,1.5"/>
	<path id="path5022-2-8" class="st7" d="M129.1,33.8c0.6-1.4,1.7-2.6,2.7-3.7c3.9-4.3-0.3,0.2,1.6-1.5c1-0.9,0.4,0.1,1,0.3
		c0.2,0.1,2.4-0.2,2.5,0c0.4,1.1,1.3,0.9,2.5,0.9"/>
	<path id="path5024-1-28" class="st5" d="M141.9,264.5c1-1,1.7-2.2,2.6-3.3c0.3-0.4,1.1-1.4,1.2-0.9c0.1,0.4-0.2,1.2,0.7,0.8
		c0.5-0.3,1.2-1.6,1.8-1.6c0.1,0-0.1,1.3,0.6,1.4c1.2,0.2,2.6,0,3.7-0.5"/>
	<path id="path5026-8-4" class="st5" d="M124.1,222.6c1.5-0.7,2.7,1,4.2,0.3c0.9-0.4,1.4-1.8,2.3-0.9"/>
	<path id="path5028-5-1" class="st5" d="M67.6,212.5c2.3-1.2,2.8-0.3,5.1-0.3"/>
	<path id="path5030-7-0" class="st5" d="M57.4,146.9c1.7,0.1,2.7,0.1,4.4,0.3"/>
	<path id="path5032-8-0" class="st5" d="M54.2,105.6c2.2-0.3,5.2,0.7,7.1-0.8c0.4-0.3,1.5-1,1.7-1.5c0-0.1,0.4-0.9,0.5-0.8
		c0.2,0.2,0.2,0.7,0.4,1c0.3,0.3,0.8,0.1,0.9,0.3c0.8,1.2,1.4,2.1,2.5,3.1"/>
	<path id="path5034-2-4" class="st5" d="M27.9,97.5c3.7-3.3,1.2-0.2,4.3-0.2c1.4,0,1.1-0.8,2.1-1.4c0.4-0.2,1.7,0.6,2.3,0.6"/>
	<path id="path5038-7-7" class="st5" d="M120.6,60.1V41.8l12.8,7.1l-12.8,0.4"/>
	<path id="path5040-6-6" class="st5" d="M49.6,29.2c3.8,0.1,8.6-1.9,12.3-0.7c1,0.3-0.8,1.4,1.9,1.2c1.1-0.1,1.8-0.3,2.2-1.2"/>
	<path id="path5042-6-6" class="st5" d="M239.3,257c0.5-1.5,1.9-2.3,3-3.3c5.8-4.9,2.1,0.3,5.7-0.8c1.5-0.5,1.9-1.7,3.5-1.7"/>
</g>
</svg>
