<?xml version="1.0" encoding="utf-8"?>
<!-- Generator: Adobe Illustrator 25.0.0, SVG Export Plug-In . SVG Version: 6.00 Build 0)  -->
<svg version="1.1" id="Layer_1" xmlns="http://www.w3.org/2000/svg" xmlns:xlink="http://www.w3.org/1999/xlink" x="0px" y="0px"
	 viewBox="0 0 283.5 283.5" style="enable-background:new 0 0 283.5 283.5;" xml:space="preserve">
<style type="text/css">
	.st0{fill:#FFFFFF;}
	.st1{fill:#C2895F;}
	.st2{fill:#87AD50;}
	.st3{fill:#BBA78E;}
	.st4{fill:#EE663C;}
	.st5{fill:#BAA68D;}
	.st6{fill:none;stroke:#010101;stroke-width:1.7778;stroke-linecap:round;stroke-linejoin:round;}
	.st7{fill:none;stroke:#010101;stroke-width:1.7778;}
	.st8{fill:none;stroke:#010101;stroke-width:2.218;stroke-linecap:round;stroke-linejoin:round;stroke-miterlimit:6.2262;}
	.st9{fill:none;stroke:#010101;stroke-width:2.218;stroke-miterlimit:6.2262;}
	.st10{fill:#0353E2;}
</style>
<g>
	<path class="st0" d="M283.4,141.7c0,46.9,0,93.8,0,140.6c0,0.9-0.2,1.1-1.1,1.1c-93.8,0-187.5,0-281.3,0c-0.9,0-1.1-0.2-1.1-1.1
		C0,188.6,0,94.8,0,1.1C0,0.2,0.2,0,1.1,0c93.8,0,187.5,0,281.3,0c0.9,0,1.1,0.2,1.1,1.1C283.4,48,283.4,94.8,283.4,141.7z"/>
	<path class="st1" d="M262.6,235.9c-0.9-1-1.9-1.9-2.8-2.9c-0.7-0.8-0.3-1.9-0.2-2.8c0.1-1.8,0.3-3.6,0.4-5.5c0-0.5-0.2-0.9-0.5-1.2
		c-1.4-1.3-2.6-2.8-4.2-3.9c-0.9-0.6-1.9-0.2-2,0.9c-0.2,1.9-0.4,3.9-0.6,5.9c-1.3-0.6-2.5-1.5-3.1-2.6c-0.4-0.8,0.1-2.1,0.2-3.2
		c0.2-1.6,0.5-3.2,0.6-4.8c0.1-1.3-1.1-1.8-1.9-2.5c-1.2-1-2.5-2-3.7-3c-0.4-0.3-0.8-0.6-1.4-0.3c-0.6,0.3-0.7,0.7-0.8,1.3
		c-0.1,1.8-0.3,3.5-0.5,5.4c-1.2-0.9-2.3-1.7-3.4-2.6c-0.3-0.2-0.4-0.6-0.3-0.9c0.3-2.5,0.4-5,0.5-7.5c0-0.6-0.2-1.1-0.7-1.6
		c-1.4-1.4-2.8-2.8-4.2-4.2c-0.5-0.5-1.1-0.7-1.6-0.4c-0.4,0.2-0.7,0.7-0.7,1.4c0.1,1.4-0.4,2.8-0.2,4.2c0,0.3,0,0.5-0.3,0.6
		s-0.3-0.3-0.5-0.4c-2.6-2.3-1.9-5.3-1.5-8.1c0.4-2.9,0.6-5.6-1.3-8.1c-0.7-1-1.2-2.2-1.9-3.2c-0.3-0.5-0.7-1.3-1.5-1.1
		c-0.9,0.2-1,1-1.1,1.8c-0.2,1.8,0,3.5-0.5,5.3c-1.8-1.9-1.7-4.4-1.3-6.6c0.5-3.1-0.1-5.7-1.9-8.2c-0.6-0.8-1-1.6-1.5-2.5
		c-0.3-0.6-0.8-0.9-1.4-0.7c-0.6,0.2-1,0.6-1,1.3c-0.1,1.7-0.5,3.3-0.5,5c0,0.2,0,0.5-0.3,0.6c-0.4,0.1-0.4-0.3-0.5-0.5
		c-1-1.5-2.1-3.1-3.1-4.6c-0.2-0.2-0.3-0.6-0.3-0.9c0.1-2.3-0.2-4.6,0.2-6.9c0.2-1.4,0.1-2.9,0-4.4c-0.1-1.1,0.4-1.5,1.4-1.8
		c1.3-0.3,1.6-0.9,0.9-2.1c-2.4-4.4-4.9-8.7-7.3-13c-1.6-2.8-3.1-5.6-4.7-8.4c-0.4-0.7-0.7-1.4-1.1-2c-0.8-1.3-1.8-1.3-2.6-0.1
		c-2.4,3.8-4.7,7.6-7.1,11.4c-2.2,3.6-4.4,7.1-6.6,10.7c-0.8,1.3-0.7,1.8,0.6,2.6c0.3,0.2,0.5,0.4,0.5,0.8c0,2.3-0.5,4.5-0.4,6.8
		c-0.8-1-1.7-2-2.5-3c-0.5-0.6-1-0.7-1.7-0.7c-10.7,0-21.3,0-32,0c-1.1,0-1.4-0.2-1.4-1.3c0.1-1.4,0.1-2.9,0-4.4
		c0-0.7,0.2-1,0.9-1.2c2.2-0.4,2.4-1.5,1.2-3.3c-2.3-3.5-5-6.9-7.4-10.4c-1.9-2.7-3.9-5.4-5.9-8.2c2.7,0.2,3.3-2.1,4.6-3.5
		c0.2-0.2,0.4-0.5,0.6-0.7c0.5-0.8,1.2-1.6,0.7-2.6c0-0.1,0-0.2,0-0.4c0.2-4.9-0.3-9.9-0.3-14.8c0-2-0.2-4-0.2-6c0-0.3,0-0.7,0.1-1
		c0.3-1.4,0-2-1.4-2.2c-0.1,0-0.2,0-0.4,0c-3.5,0.2-7-0.2-10.5-0.3c-4.3-0.1-8.5-0.4-12.8-0.4c-1,0-1.7-0.3-1.6-1.7
		c0.1-1.6,0-3.1,0.1-4.7c0.1-1.3-0.3-2.4-0.9-3.6c-1.3-2.6-2.8-5.2-3.8-8c-0.6-1.7-1.7-2.2-3-2.9c-4-2-7.9-3.9-11.9-5.8
		c-0.7-0.3-1.3-0.6-2-0.9c-1.2-0.6-1.6-0.5-2.2,0.7c-1.3,2.7-2.6,5.4-3.9,8.2c-1.3,2.7-2.4,5.4-3.7,8.1c-0.4,0.8-0.7,1.5,0,2.3
		c0.2,0.2,0.1,0.7,0.1,1c0.1,3.9-0.2,7.8-0.3,11.6c-0.1,2.3-0.1,4.6-0.1,6.9c0,0.9-0.4,1.5-0.9,2.1c-1.8,2.1-2.4,4.4-2.2,7.1
		c0.2,3.4,0.1,6.8,0,10.3c0,1.1,0.5,1.6,1.4,2c3.8,1.4,7.6,2.7,11.4,4c0.3,0.1,0.6,0.2,0.8,0.4c0.7,0.6,1.4,0.4,2.1,0
		c4.4-2.8,8.9-5.6,13.3-8.4c0.3,0.1,0.3,0.3,0.3,0.5c-0.2,1.9,0.7,2.4,2.4,2.4c3.7-0.1,7.3-0.2,11,0c2.7,0.2,5.5,0.1,8.4,0.2
		c-1.5,2-2.9,3.9-4.4,5.9c-2.9,3.9-5.9,7.8-8.8,11.7c-0.9,1.3-0.9,2.3,0.5,2.8c2.2,0.8,1.6,2.4,1.5,3.8c-0.1,0.9-0.2,1.8-0.2,2.7
		c0,2.4-0.1,4.7,0,7.1c0.1,2.2-0.4,4.5-0.3,6.7c0,0.2,0.1,0.5-0.3,0.7c-1,0.3-1.7,1.2-2.5,1.9c-2.2,2-4.3,4-6.6,6.2
		c0-4.8,0-9.4,0-13.9c0.4,0,0.8,0.3,1.2,0.5c0.6,0.2,1.2,0.2,1.6-0.5c0.5-0.7,0-1.2-0.5-1.6c-0.3-0.3-0.7-0.4-1.1-0.6
		c-3.9-1.9-7.8-3.7-11.6-5.8c-3.7-2-7.3-4.4-10.9-6.6c-2.3-1.4-4.7-2.7-7-4.1c-0.7-0.4-1.2-0.3-1.8,0.2c-2.5,2.1-5,4.2-7.6,6.4
		c-0.6-1.6-1.3-3.1-1.9-4.6c-1.3-3.3-2.5-6.5-3.8-9.8c-0.4-0.9-1.2-0.9-1.9-0.6c-3.7,1.9-7.6,3.6-11.2,5.7c-1.4,0.8-3,1.5-4.5,2.2
		c-0.7,0.3-1,0.7-1.1,1.4c-0.5,2.6-1.1,5.2-1.7,7.7c-0.8,3.7-2,7.2-1.6,11.1c0.5,4,0.2,8.1,0.2,12.1c0,0.9,0.4,1.5,1.2,1.8
		c2.6,1,5.1,1.9,7.7,2.9c1,0.4,2,0.2,2.9-0.1c2.9-1.1,5.7-2.1,8.5-3.2c0.3-0.1,0.3-0.1,0.6,0.1c5.5,3.4,11,6.8,16.5,10.1
		c0.7,0.4,1.4,0.7,2.1,1.1c-0.6,1.3-1.8,2.4-1.9,4.1c-0.1,0.7,0.1,1.4,0.2,2c0.2,1.3-0.7,1.4-1.4,1.5c-0.9,0.1-0.6-0.7-0.7-1.2
		c-0.3-0.7-0.1-1.5-0.5-2.3c-0.3-0.6-0.7-0.8-1.4-0.7c-1.2,0.2-2.4,0.4-3.7,0.6c-1.1,0.2-1.5,0.9-1.3,2.1c0.1,0.8,0.1,1.7,0.3,2.5
		c0.4,1.7-1.2,1.3-1.9,1.8c-0.2,0.1-0.5,0.1-0.8,0.1c-0.2-1.4-0.4-2.8-0.6-4.2c-0.1-1-0.9-1.2-1.6-0.8c-2.2,1.2-4.1,0.7-6.2-0.6
		c-2.7-1.7-5.7-3-8.5-4.6c-1.1-0.6-1.9-0.6-2.8,0.4c-2.5,2.6-5.1,5-7.7,7.5c-0.7,0.7-0.9,1.4-0.2,2.2c0.3,0.3,0.3,0.6,0.3,1
		c0,3.1,0,6.3,0,9.4c0,0.8-0.5,1-1.2,1.5c0-1,0-1.7,0-2.4c-0.1-1.5-1-1.9-2.2-1.1c-0.9,0.6-1.8,1.2-2.7,1.7c-0.8,0.4-1.1,1-1,1.9
		c0.1,0.7,0,1.3,0,2c0,2.1-0.8,3.3-3,4c-0.1-0.9-0.3-1.7-0.3-2.6c0-0.5-0.3-0.9-0.7-1.1c-0.5-0.2-1-0.1-1.4,0.3
		c-1.1,0.9-2.2,1.8-3.2,2.9c-0.7,0.7-0.4,1.7-0.6,2.5c-0.1,0.3-0.1,0.7-0.1,1.1c0,1.9-1.5,2.6-2.7,3.9c-0.1-0.8-0.2-1.5-0.3-2.1
		c-0.2-0.9-0.7-1.2-1.5-0.7c-1.5,0.8-2.6,2-3.9,3.1c-0.4,0.3-0.6,0.9-0.5,1.5c0.1,0.8,0,1.6,0,2.4c0,2.3-0.2,2.6-2.6,3.6
		c0-0.6,0-1.2,0-1.8s-0.3-1.1-0.8-1.4c-0.5-0.3-1,0-1.5,0.4c-0.8,0.7-1.8,1.3-2.7,2c-0.6,0.4-0.9,1-0.7,1.8c0.1,0.9-0.1,1.9,0.2,2.8
		c0.2,0.6-0.3,0.9-0.7,1.3c-0.4,0.3-0.9,0.6-1.5,1.1c0-0.9,0-1.6,0-2.4c0-0.7-0.3-1.3-0.9-1.5c-0.6-0.3-1.1,0.1-1.5,0.5
		c-0.8,0.8-1.6,1.4-2.4,2.2c-0.5,0.5-1,1-0.7,1.9s0.1,1.8,0.2,2.8c0.1,0.7-0.7,1.2-1.6,1.5c0-0.5,0-1,0-1.4c0-82.2,0-164.4,0-246.6
		C1.6,2,1.6,2,3.2,2C95,2,186.7,2,278.5,2c1.6,0,1.6,0,1.6,1.6c0,83.1,0,166.1,0,249.2c0,0.4,0,0.9,0,1.5c-0.9-0.8-1.5-1.2-1.3-2.5
		c0.3-2,0.3-4.1,0.5-6.2c0.1-0.5-0.2-1.1-0.6-1.6c-1.3-1.4-2.9-2.6-4.1-4.2c-0.4-0.5-1.1-0.6-1.6-0.4c-0.5,0.2-0.7,0.9-0.7,1.5
		c0,1.5-0.3,3-0.5,4.6c-1.2-0.8-2-2-2.9-3c-0.2-0.2-0.1-0.5-0.1-0.8c0.2-2.3,0.4-4.6,0.6-6.8c0.1-0.6-0.1-1.1-0.5-1.5
		c-1.3-1.5-2.7-3-4.1-4.5c-0.6-0.6-1.5-0.4-1.9,0.4c-0.5,1-0.4,2.1-0.5,3.1C263.1,233.7,262.8,234.7,262.6,235.9z"/>
	<path class="st2" d="M279.7,280.8c-91.5,0-182.7,0-274.3,0c1.2-1.2,2.2-2.4,3.4-3.4c4.2-3.8,7.9-8,12-11.8c4.7-4.4,9.1-9,13.7-13.4
		c5.3-5.1,11.2-9.5,17-14c2.3-1.8,4.5-3.5,6.8-5.3c1.2-1,2.8-1.1,4.2-1.6c6.9-2.3,13.9-4.5,20.8-6.9c0.8-0.3,1.5,0.1,2.1,0.3
		c2.8,1,5.8,1.3,8.7,1.1c2.7-0.2,5.1-1.1,7.1-3c3.6-3.5,7.2-7,10.9-10.4c3.1-2.9,6.2-5.9,9.3-8.8c1.6-1.5,3.2-2.9,4.7-4.5
		c1.2-1.3,2.6-0.4,3.8-0.3c2.3,0.2,4.5,0.2,6.8,0s4.4-0.9,6.4-1.8c1.4-0.7,2.7-1.6,3.8-2.6c0.5-0.5,1-0.6,1.7-0.6
		c3.5,0.2,7-0.2,10.5-0.2c0.8,0,1.5-0.5,2-1c1.1-1,2.1-2.2,3.3-3.1c0.4-0.3,0.6-0.8,0.5-1.4c-0.1-1.9,0.1-3.8-0.2-5.7
		c-0.3-1.6,0.9-2.3,2.6-1.6c1.7,0.7,3.1,1.8,4.3,3.3c0.2,0.3,0.2,0.6,0.2,0.9c-0.1,2.2,0.2,4.4,0.3,6.6c0,1.4,0.7,2.1,2.2,2.1
		c3.5,0.1,7.1,0.4,10.6,0.2c0.4,0,0.6,0.1,0.8,0.5c2,3,5.1,4,8.3,4.7c1.9,0.5,3.9,0.7,5.8,0.6c2.5-0.1,5,0.1,7.4-0.8
		c0.9-0.3,1.3,0,1.8,0.8c2.8,4.7,5.7,9.3,8.5,13.9c3.1,5.1,6.3,10.2,9.4,15.4c1,1.7,2.5,2.9,3.8,4.2c1.6,1.6,3.4,3,5.1,4.4
		c3.3,2.9,6.7,5.8,9.9,8.8c3.1,2.8,6.4,5.5,9.1,8.8c0.1,0.1,0.2,0.2,0.2,0.3c3.8,3.9,7.6,7.8,11.4,11.6c3.7,3.8,7.4,7.6,11.1,11.4
		C278.2,279,278.8,279.9,279.7,280.8z"/>
	<path class="st3" d="M69.5,205.6c-0.2,1.3,0.2,2.4,0.2,3.6c0,1.1,0.8,1.7,1.9,1.4c1.5-0.4,2.9-0.8,4.4-1.2c1.2-0.3,1.2-1.3,1-2.2
		c-0.3-0.9-0.1-1.9-0.4-2.8c-0.3-0.8,0.7-0.6,1-0.8c0.9-0.4,1.5-0.1,1.5,1c0,0.2,0,0.5,0.1,0.7c0.5,2.6,0.6,2.6,3.1,2
		c0.9-0.2,1.1,0,1.1,0.9c-0.1,2.9,0,5.8,0,8.7c0,1.3,0.4,2.6,0.3,4c-0.1,0.6-0.1,0.9-0.8,1.1c-4.4,1.4-8.7,2.8-13.1,4.2
		c-3.9,1.3-7.8,2.5-11.7,3.8c-1.5,0.5-2.5,1.8-3.8,2.7c-5.9,4.6-11.9,9.2-17.7,14c-2.1,1.7-3.8,3.8-5.7,5.6
		c-5.4,5.2-10.6,10.5-16,15.7c-4,3.8-7.8,7.7-11.8,11.6c-0.2,0.2-0.3,0.5-0.8,0.5c0-0.4,0-0.8,0-1.1c0-7.4,0-14.9,0-22.3
		c0-1.4,0.6-2.3,1.6-3c0.3-0.2,0.6-0.5,0.9-0.7c1.6-1,1.5-2.6,1.1-4.1c-0.2-1,0-1.8,1.1-2.4c0,0.9,0,1.7,0,2.5c0,0.5,0.1,1,0.7,1.3
		s1.1,0.1,1.5-0.3c1.3-1,2.6-2,3.7-3.2c0.9-0.9,0.6-2.3,0.4-3.3c-0.3-1.3,0.1-1.9,1.2-2.6c0.1,0.8,0.2,1.4,0.4,2
		c0.2,1.1,0.9,1.5,1.9,0.9c1.4-0.9,2.8-1.9,4.1-2.8c0.6-0.4,0.9-1,0.9-1.8c-0.1-1.2,0-2.4,0-3.7c0-0.4,0-0.8,0.3-1.1
		s0.7-0.7,1.1-0.6c0.4,0.1,0.2,0.7,0.3,1.1c0,0.3,0,0.6,0,0.8c0.1,1,1,1.6,1.7,0.9c1.8-1.6,3.5-3.2,5-5c0.5-0.6,0.3-1.7,0.4-2.6
		c0.1-1.3,0.4-2.5,1.8-3.2c0.1,0.9,0.2,1.7,0.3,2.5c0.1,1.2,1,1.7,2,1c1.6-1.1,3-2.3,4.5-3.5c0.5-0.4,0.6-0.8,0.6-1.4
		c0-0.9,0-1.9,0-2.8c0-1.6,0-1.6,1.6-2.2c0.1,0.8,0.2,1.7,0.3,2.5c0.1,1,0.7,1.4,1.6,1c1.7-1,3.5-2,4.9-3.3c0.4-0.4,0.6-0.9,0.4-1.6
		c-0.3-1.1,0.1-2.3-0.3-3.4c-0.1-0.3,1.9-1.7,2.2-1.6c0.4,0.1,0.4,0.5,0.3,0.8c-0.1,0.9,0.2,1.8,0.3,2.7c0.1,1.1,1.1,1.6,1.9,1
		c1.1-0.8,2.2-1.6,3.3-2.4c1.7-1.1,1-2.8,1-4.3c0-0.5-0.3-1.1,0-1.3c0.6-0.4,1.4-0.6,2.2-0.7c0.4-0.1,0.2,0.4,0.2,0.7
		c0,0.8,0,1.5,0.2,2.3c0.2,0.7,0.6,1,1.3,0.9c1.6-0.2,3.2-0.6,4.8-1.1c0.6-0.2,0.8-0.7,0.8-1.2c0-0.3,0-0.6,0-0.8
		C66.3,206.6,66.4,206.3,69.5,205.6z"/>
	<path class="st3" d="M245,213.7c1,0.5,1.7,1.4,2.6,2c0.4,0.3,0.4,0.7,0.4,1.2c-0.2,1.7-0.3,3.4-0.6,5.1c-0.1,0.8-0.1,1.6-0.2,2.4
		c-0.1,0.4,0.2,0.9,0.6,1.3c1.6,1.3,3.2,2.7,4.8,4c0.4,0.3,0.9,0.8,1.6,0.5c0.7-0.2,0.9-0.7,0.9-1.5c0.1-1.8,0.3-3.5,0.5-5.3
		c2.8,1.2,1.8,3.6,1.7,5.6c-0.1,1.5-0.1,3-0.1,4.5c0,0.4,0.2,0.8,0.5,1c1.6,1.2,2.8,2.7,4.3,4.1c0.2,0.2,0.4,0.4,0.6,0.6
		c0.5,0.2,0.9,0.8,1.6,0.4c0.6-0.3,0.8-0.9,0.8-1.6c0-1.7,0.6-3.3,0.5-5c2,1.3,2.4,2.8,2,5c-0.4,1.7-0.2,3.4-0.3,5.1
		c0,0.5,0.2,1,0.6,1.4c1.5,1.5,3.1,3,4.5,4.7c0.4,0.5,1,1,1.6,0.7c0.7-0.2,0.9-0.8,1-1.6c0.1-1.5,0.3-3,0.5-4.5
		c1.9,1,2.6,2.7,2.2,4.9c-0.3,1.8-0.4,3.6-0.4,5.4c0,0.6,0.3,0.9,0.7,1.2c0.8,0.7,1.6,1.3,2.3,1.9c0.4,0.4,0.8,0.7,0.8,1.4
		c0,6.5,0,13.1,0,19.6c-0.4,0.1-0.5-0.2-0.7-0.4c-4.1-4.1-8.2-8.2-12.1-12.4c-2-2.1-4.1-4.2-6.1-6.3c-3.2-3.5-6.6-6.9-10-10.2
		c-3.3-3.2-6.8-6.2-10.3-9.2c-1.4-1.2-2.8-2.4-4.1-3.7c-2.2-2-4.4-4-6.7-5.9c-2.1-1.8-3.1-4.3-4.5-6.5c-3.7-6-7.4-12.1-11.1-18.1
		c-1.3-2.2-2.6-4.3-4-6.5c-0.3-0.4-0.6-0.8-0.2-1.3c0.2-0.2,0.1-0.6,0.1-0.9c0-2.4,0.1-4.8,0-7.2c-0.1-3.1,0.5-6.2,0.2-9.3
		c0.7,0,0.8,0.7,1.1,1c0.9,1.2,1.7,2.5,2.5,3.8c0.4,0.6,0.9,1.1,1.8,0.9c0.8-0.2,0.8-0.8,0.8-1.5c0.2-1.7,0.4-3.3,0.6-5.1
		c1.3,1.4,1.7,2.9,1.5,4.7c-0.3,3-0.7,6,1,8.8c0.8,1.4,1.4,2.9,2.1,4.3c0.3,0.7,0.9,1.3,1.7,1.2s0.9-0.9,1-1.7c0.2-2,0.1-4,0.5-6
		c1.8,1.6,1.6,3.7,1.3,5.7c-0.2,1.4-0.1,2.7-0.4,4.1c-0.6,2.2,0.3,4,1.7,5.7c1.1,1.3,2,2.7,3,4c0.3,0.5,0.8,0.6,1.3,0.5
		s0.7-0.4,0.9-1c0.3-1.5,0.3-3,0.4-4.5c0.1-0.5,0-1,0-1.4c0.8,0.7,1.7,1.4,2.4,2.1c0.5,0.5,0.3,1.3,0.2,1.9
		c-0.3,2.1-0.2,4.3-0.4,6.4c-0.1,1,0.6,1.4,1.3,1.9c1.6,1.2,3.1,2.6,4.8,3.8c1.2,0.9,2.1,0.5,2.2-1
		C244.6,217.2,244.8,215.4,245,213.7z"/>
	<path class="st3" d="M122.8,158.6c2.2,0.5,4.3,1,6.5,1.1s4.4,0.5,6.6,0.2c1.6-0.2,3.3,0,4.9-0.2c1-0.2,2.1-0.2,3.1-0.4
		c0.9-0.2,1.3,0,1.3,1.1c0,10.4,0,20.7,0,31.1c0,0.9-0.4,1.5-1,2c-2.9,2.1-6.2,3-9.7,3.2c-2,0.1-4.1,0-6.1-0.5
		c-0.3-0.1-0.7,0-0.6-0.5c0.1-0.6-0.3-1.2-0.2-1.9c0.1-2.3-0.1-4.6-0.3-6.8c-0.2-1.9,0.1-3.8-0.4-5.7c-0.2-0.9-0.5-1.6-1.5-1.8
		c-0.5-0.1-1-0.5-1.5-0.6c-1.3-0.2-1.6-0.8-1.4-2.1c0.4-2.8,0.2-5.6,0.1-8.4C122.5,165.1,123,161.9,122.8,158.6z"/>
	<path class="st3" d="M200.3,197c-3.4,0.1-6.8-0.3-9.9-1.8c-2.2-1-3.6-2.6-3.1-5.4c0-0.1,0-0.2,0-0.2c-0.2-4.6,0.3-9.3,0.3-13.9
		c0-4.1,0.3-8.3,0.4-12.4c0-0.6,0.2-0.8,0.8-0.6c4.9,1.6,10,1.7,15.1,1.5c1.5-0.1,3.1-0.4,4.6-0.7c0.6-0.1,0.8-0.1,0.7,0.5
		c-0.5,5.7,0,11.4-0.3,17c-0.3,4.5-0.1,9-0.2,13.4c0,0.8-0.3,1.3-1,1.6C205.4,196.9,202.9,197,200.3,197z"/>
	<path class="st3" d="M85.6,194.9c-0.1-4.9-0.2-9.8-0.3-14.7c0-0.6,0.2-1,0.6-1.5c2.9-3,5.9-6,8.8-9c1.1-1.1,2.1-2.3,3.2-3.4
		c0.5-0.5,0.9-0.6,1.5-0.2c2.7,1.4,5.4,2.7,8.1,4c0.5,0.3,0.8,0.5,0.8,1.2c0,5.3,0,10.6,0,15.9c0,0.5-0.1,0.8-0.5,1.1
		c-2.7,2.7-5.5,5.2-8.3,7.8c-0.7,0.7-0.8-0.1-1-0.4c-1.6-2.3-3.2-4.7-4.9-7c-1-1.4-1.8-1.4-2.8,0c-1,1.5-2,3-2.9,4.5
		C87.4,194.3,86.7,194.9,85.6,194.9z"/>
	<path class="st4" d="M118.3,106.8c2.8,0.1,5.6,0.2,8.4,0.3c3.9,0.2,7.8,0.5,11.7,0.4c0.6,0,0.9-0.1,0.7,0.8
		c-0.9,4.2-1.6,8.5-2.4,12.7c-0.1,0.6-0.4,1-1.2,0.9c-5.9-0.5-11.8-0.1-17.8-0.3c-1.6,0-3.3-0.2-4.9-0.2c-0.3,0-0.7,0.2-0.6-0.6
		c1-4.5,2-9.1,2.9-13.6c0.1-0.5,0.3-0.4,0.7-0.4C116.7,106.8,117.5,106.8,118.3,106.8z"/>
	<path class="st4" d="M96.4,164.3c-2.6,2.8-5.2,5.4-7.7,8.1c-1.5,1.5-2.9,3.1-4.4,4.6c-0.4,0.4-0.7,0.5-1.2,0.2
		c-5.4-2.7-10.8-5.4-16.2-8.1c-0.8-0.4-0.8-0.6-0.1-1.2c3.1-2.6,6.3-5.2,9.4-7.8c1.6-1.4,3.4-2.6,4.9-4.1c0.7-0.6,1.1-0.5,1.7-0.1
		c4.4,2.7,8.7,5.3,13.1,7.9C96,164.1,96.2,164.2,96.4,164.3z"/>
	<path class="st3" d="M100.9,219.7c0-4.6,0-8.8,0-13.1c0-0.8,0.4-1.2,0.9-1.6c2.2-1.7,4-3.8,6.1-5.7c2.3-2,4.5-4.3,6.7-6.4
		c3.4-3.2,6.8-6.3,10.2-9.7c0.2,1.6,0.2,3.1,0.2,4.5c0.1,2.2,0,4.4,0.4,6.4c0.4,2.5-1.1,3.6-2.6,4.9c-0.4,0.4-0.8,0.7-1.2,1.1
		c-2.6,2.5-5.1,5.1-7.8,7.5c-3.1,2.9-6.2,5.9-9.3,8.8C103.3,217.5,102.2,218.6,100.9,219.7z"/>
	<path class="st3" d="M166.5,176.2c5.9,0,11.7,0,17.6,0c0.9,0,1.2,0.2,1.1,1.1c-0.3,3.4-0.2,6.9-0.3,10.3c0,1-0.2,1.9-0.2,2.9
		c0,0.5-0.1,0.8-0.7,0.8c-3-0.1-6-0.2-9.1-0.2c-0.6,0-0.6-0.3-0.6-0.8c0.1-2-0.4-4-0.2-6c0.1-0.7-0.1-1.3-0.5-1.8
		c-2.1-2.5-4.4-4.6-7.9-4.5c-1.9,0.1-3.3,1-4.7,2.1c-0.9,0.7-1.6,1.6-2.3,2.5c-0.5,0.7-0.8,1.5-0.6,2.3c0.4,1.8,0.1,3.5,0.2,5.3
		c0,0.6-0.2,0.8-0.8,0.8c-2.9-0.1-5.8,0.4-8.7,0.3c-0.8,0-1.2-0.2-1.1-1.1c0.1-4.3,0.1-8.7,0-13c0-0.9,0.3-1.1,1.2-1.1
		C154.7,176.2,160.6,176.2,166.5,176.2z"/>
	<path class="st4" d="M95.4,125c-1.6-4-3.2-8.1-4.8-12.1c-0.2-0.6-0.2-0.9,0.4-1.4c3.7-2.4,7.4-4.8,11.1-7.2
		c1.7-1.1,3.4-2.2,5.1-3.4c0.4-0.3,0.6-0.2,0.8,0.1c1.5,2.1,3.1,4.2,4.5,6.3c0.4,0.6,0,1.4-0.2,2c-0.4,1.8-0.8,3.6-1.1,5.4
		c-0.1,0.9-0.9,1.2-1.5,1.6C105,119.2,100.2,122.1,95.4,125z"/>
	<path class="st4" d="M199.4,139.1c3.5,6.3,7,12.4,10.5,18.6c1.4,2.5,1.4,2.4-1.4,3.2c-3.8,1.1-7.6,1.1-11.5,0.9
		c-3.2-0.2-6.5-0.8-9.5-2.1c-0.6-0.3-0.7-0.4-0.3-1c3.9-6.3,7.8-12.6,11.6-18.8C199,139.6,199.2,139.4,199.4,139.1z"/>
	<path class="st4" d="M134.1,137.2c4.5,6.3,9.1,12.5,13.6,18.8c-5.5,1.6-11,1.7-16.5,1.5c-3.3-0.1-6.6-0.8-9.7-2.1
		c-0.4-0.2-0.7-0.4-0.3-1c2.3-3,4.5-6,6.8-9.1c1.8-2.4,3.6-4.8,5.4-7.2C133.5,137.8,133.8,137.5,134.1,137.2z"/>
	<path class="st4" d="M101,101.5c-0.6-0.3-1.2-0.5-1.8-0.7c-4-1.8-7.9-3.7-11.9-5.6c-0.6-0.3-1.1-0.5-0.6-1.4
		c2.2-4.5,4.3-9.1,6.4-13.7c0.3-0.7,0.6-0.7,1.2-0.4c4.1,2,8.3,4,12.4,6c0.4,0.2,0.6,0.3,0.3,0.9c-2,4.8-3.8,9.6-5.8,14.4
		C101.2,101.2,101.1,101.3,101,101.5z"/>
	<path class="st4" d="M70.9,161c0.1,0.5-0.3,0.7-0.6,1c-2.4,2-4.8,3.9-7.2,5.8c-0.1,0.1-0.2,0.2-0.2,0.3c-0.2,1.8-1.8,1.7-3,2
		c-0.8,0.2-1.7,0.8-2.3,0.6c-0.7-0.2-0.7-1.4-0.9-2.1c-1.4-4.1-2.8-8.2-4.2-12.3c-0.6-1.8-0.6-1.8,1-2.8c3.4-2,7.1-3.6,10.6-5.4
		c0.3-0.2,0.6-0.4,0.9-0.5c0.3-0.2,0.5-0.3,0.8,0.2c1.7,4.3,3.4,8.6,5.1,12.9C70.8,160.8,70.9,160.9,70.9,161z"/>
	<path class="st4" d="M166.4,173.9c-5.9,0-11.8,0-17.7,0c-0.9,0-1.2-0.2-1.1-1.1c0.1-1.4,0.1-2.9,0-4.4c0-0.8,0.2-1,1-1
		c6.3,0,12.5,0,18.8,0c4.2,0,8.4,0,12.6,0c0.7,0,1.1,0.1,1.5,0.7c1,1.4,2.2,2.7,3.3,4c0.4,0.5,0.4,1,0.3,1.4
		c-0.2,0.5-0.8,0.2-1.1,0.2C178.1,173.9,172.3,173.9,166.4,173.9z"/>
	<path class="st3" d="M98.5,203.4c0,0.4,0.1,0.7,0.1,1c0,5.5,0,11,0,16.5c0,0.7-0.2,1.1-0.9,1.4c-2.9,1.4-6,1.4-9,0.7
		c-2.6-0.5-2.6-0.6-2.6-3.3c-0.1-5.4-0.4-10.8-0.2-16.3C90,204.6,94.2,205.3,98.5,203.4z"/>
	<path class="st3" d="M93.9,138.8c-0.9-0.3-1.9-0.6-2.8-0.9c-0.5-0.2-0.7-0.5-0.7-1.1c0-2.2,0-4.4,0-6.6c0-0.8-0.3-1.3-1-1.6
		c-0.8-0.3-1.6-0.7-2.5-1.1c-1.3-0.5-2-0.1-2,1.3c0.1,2.2-0.4,4.4-0.3,6.7c-1.9-0.4-1.9-0.4-1.9-2.1c0-3.5,0-6.9,0-10.4
		c0-0.7,0.2-1.3,0.6-1.8c1.5-2.1,2.9-4.3,4.3-6.5c0.2-0.2,0.2-0.6,0.6-0.5c0.2,0.1,0.3,0.3,0.4,0.5c1.6,4,3.2,8,4.7,12.1
		c0.2,0.6,0.3,1.2,0.3,1.8c0,2.6,0,5.1,0,7.7C93.7,137.1,94.3,138,93.9,138.8z"/>
	<path class="st3" d="M122.1,125.7c-1.6,0-2.7,0-3.9,0c-1.5,0-2,0.5-2,1.9c0,1.7,0,3.3,0,5c0,0.8-0.2,1.2-1.1,1.2
		c-2.9,0-3,0-2.9-2.9c0-2-0.4-4.1-0.3-6.1c0-0.6,0.1-1,0.8-0.9c3.9,0.5,7.8,0.1,11.8,0.2c3.5,0.1,7.1,0.2,10.6,0.2
		c0.7,0,1,0.2,0.9,0.9c0,2.2,0,4.3,0,6.5c0,0.7,0.6,1.6,0.1,2.1c-0.6,0.5-1.5,0.2-2.3,0.1c-1.1,0-2.5,0.5-3.2-0.2s-0.2-2.2-0.2-3.3
		c-0.1-1.2,0.2-2.4-0.2-3.6c-0.2-0.6-0.5-1-1.2-0.9C126.6,126,124.1,125.4,122.1,125.7z"/>
	<path class="st3" d="M96.4,138.5c-0.1-3.3-0.4-6.6-0.3-9.8c0-1,0.3-1.6,1.2-2.1c4.3-2.5,8.5-5.1,13-7.7c-1.1,3.7-0.6,7.3-0.7,10.9
		c0,0.4,0,0.8-0.5,1.1c-4.1,2.5-8.2,5.1-12.3,7.6C96.8,138.5,96.7,138.5,96.4,138.5z"/>
	<path class="st3" d="M68.8,184.7c-2.2-0.5-2.5-1.9-2.4-3.8c0.1-3,0.5-6,0.2-9.1c0.8,0.1,1.3,0.5,1.8,0.8c4.5,2.2,9,4.5,13.5,6.7
		c0.7,0.4,1,0.8,1,1.6c-0.1,4.2,0,8.3,0.3,12.7c-1.5-0.6-2.6-1.5-3.7-2.2c-0.3-0.2-0.1-0.7-0.1-1c0-2.8-0.1-5.6,0-8.4
		c0-1.1-0.4-1.8-1.3-2.3c-2.4-1.3-4.9-2.6-7.3-3.9c-1.1-0.6-2,0.1-2,1.5c0,2,0,4.1,0,6.1C68.8,184,68.8,184.4,68.8,184.7z"/>
	<path class="st4" d="M55.2,212.6c-1.1-1-2.1-1.5-3-2.5c-0.6-0.7-1.9-0.8-2.8-1.5c-0.7-0.6-1.6-1.1-2.4-1.6c0.7-0.7,1.4-1.4,2-2.1
		c1.5-1.5,2.9-3,4.5-4.3c0.4-0.3,0.6-0.4,1-0.1c3.1,1.7,6.3,3.3,9.4,5c0.3,0.2,0.5,0.3,0.5,0.7c0,1,0,2,0,3.1c0,0.8-0.7,0.5-1,0.6
		c-1.6,0.5-1.6,0.5-1.6-1.2c0-0.4,0-0.8-0.1-1.2c-0.3-1.5-0.8-1.7-2.3-1.2c-1.2,0.4-2.3,0.7-3.5,1.1c-1,0.3-1.3,0.9-1.1,1.9
		C55.2,210.3,54.9,211.3,55.2,212.6z"/>
	<path class="st3" d="M86,112.7c0.6-2.9,0-5.8,0.4-8.7c0.3-1.8,0.1-3.8,0.1-5.6c0-0.9,0.2-0.9,0.9-0.6c3.7,1.7,7.3,3.4,11,5.1
		c0.6,0.3,0.6,0.4,0,0.8c-2.9,1.8-5.7,3.8-8.6,5.6C88.3,110.2,87,111.2,86,112.7z"/>
	<path class="st4" d="M123.3,181.3c-7.5,7.1-14.9,14.1-22.4,21.1c-0.3-1.2,0.1-2.5-0.5-3.6c-0.1-0.2,0.2-0.4,0.4-0.6
		c2.1-1.9,4.1-3.9,6.2-5.8c3.8-3.5,7.7-7,11.4-10.7c0.4-0.4,1-0.8,1.4-1.2c0.3-0.3,0.5-0.3,0.9-0.1
		C121.6,180.7,122.4,181,123.3,181.3z"/>
	<path class="st3" d="M57.9,186.8c-0.1-2.2-0.4-4.2-0.3-6.3c0.1-2-0.2-3.9-0.3-5.9c0-0.9,0.1-1.4,1.2-1.6c1.7-0.3,3.3-0.8,4.9-1.3
		c0.6-0.2,0.8-0.1,0.7,0.5C64,176.1,64,180,64,184c0,0.4-0.2,0.6-0.6,0.8C61.6,185.4,59.8,186.1,57.9,186.8z"/>
	<path class="st3" d="M48.1,173.8c-1.2-5.6,1.4-10.5,2-16c0.5,0.6,0.7,1.2,0.9,1.7c1.1,3.2,2.2,6.5,3.3,9.7c0.5,1.3,0.6,2.7,0.6,4
		c0,3.8,0.5,7.7,0.3,11.5c0,0.6,0.1,1.1,0.2,1.6c0,0.3,0.2,0.8-0.3,0.8c-0.4,0-0.6-0.3-0.6-0.8c0-2.2-0.4-4.4-0.2-6.6
		c0.1-1.1,0-2.1,0-3.2c0-0.8-0.4-1.4-1.2-1.7c-1-0.4-2-0.8-3-1.3C49.5,173.4,48.8,173.2,48.1,173.8z"/>
	<path class="st4" d="M92.3,191.1c2,2.9,3.8,5.6,5.7,8.3c0.6,0.8,0.3,1.2-0.3,1.6c-2.2,1.4-4.6,1.4-7.1,1.1
		c-1.3-0.2-2.5-0.6-3.8-0.8c-0.6-0.1-0.8-0.4-0.4-1C88.4,197.2,90.3,194.2,92.3,191.1z"/>
	<path class="st3" d="M108.9,88.6c1.4,2.9,2.8,5.5,4,8.1c0.3,0.7,0.1,1.7,0.1,2.6c0,1.3,0,2.7,0,4.1c-0.9-0.6-1.2-1.5-1.8-2.2
		c-0.7-0.8-1.3-1.7-1.9-2.6s-1.3-1-2.2-0.4c-0.8,0.5-1.6,1.1-2.7,1.8C105.9,96.1,107.3,92.5,108.9,88.6z"/>
	<path class="st4" d="M71.1,178.9c2,1,3.8,2,5.6,2.9c0.4,0.2,0.3,0.5,0.3,0.8c0,2.4,0,4.8,0,7.3c-1.6-0.7-2.9-1.9-4.4-2.5
		c-1.4-0.6-1.6-1.6-1.5-2.9C71.2,182.7,71.1,180.9,71.1,178.9z"/>
	<path class="st4" d="M127.8,131.1c0,2.7,0,2.7-2.7,2.6c-0.6,0-0.9-0.1-0.9-0.8c0.1-1.3,0-2.6,0-3.9c0-0.5,0.1-0.7,0.7-0.8
		C127.8,128.1,127.8,128.1,127.8,131.1z"/>
	<path class="st4" d="M121.9,130.9c0,0.4,0,0.9,0,1.3c0,1.5,0,1.5-1.6,1.5c-1.5,0-1.5,0-1.5-1.6c0-1.1,0-2.2,0-3.3
		c0-0.7,0.2-0.8,0.9-0.8c2.2,0,2.2,0,2.2,2.2C121.9,130.4,121.9,130.7,121.9,130.9z"/>
	<path class="st4" d="M50.3,176.5c1.4,0.2,1.8,0.9,1.7,2.1c-0.1,2.4,0,4.9,0,7.3c-1.2,0-1.3-0.6-1.5-1.7
		C50.2,181.7,50.5,179.1,50.3,176.5z"/>
	<path class="st3" d="M139.5,119.7c0.3,3.2,0.4,6.7,0.3,10.1c0,0.8-0.6,1.3-1.1,1.8C138.4,127.5,138,123.5,139.5,119.7z"/>
	<path class="st3" d="M160.6,189.3c0-1.7-0.1-3.3,0-4.8c0-0.9,1.1-1.2,1.5-2C162.1,184.9,163.8,187.5,160.6,189.3z"/>
	<path class="st4" d="M87.3,130c0.8,0.1,1.1,0.5,1.1,1.3c-0.1,1.5,0,3,0,4.6c0,0.3,0.3,0.9-0.4,0.9c-0.4,0-1.1,0-1.1-0.9
		C87,133.9,86.8,131.9,87.3,130z"/>
	<path class="st5" d="M48.9,211.3c-0.6,0.3-1.2,0.7-1.8,1c0-0.8,0-1.4,0-2.2C47.8,210.3,48.4,210.7,48.9,211.3z"/>
	<path class="st0" d="M193.5,103.9c-3.4-0.9-6.7-1.8-10-2.7c-2.7-0.7-5.4-1.5-8.1-2.2c-1-0.3-1.7-0.8-1.6-1.8c0-0.8-0.5-0.9-1-1
		c-2.9-0.4-5.8-0.8-8.7-1.2c-1.1-0.2-2.2-0.3-3.3-0.5c-0.9-0.2-1.1-1-1.2-1.8c-0.1-1.1,0.3-2.1,0.3-3.1c0-0.4-0.1-0.7-0.6-0.8
		c-3.2-0.6-6.4-1.2-9.5-1.9c-1.1-0.2-2.2-0.2-2.6-1.6c-0.2-0.7-1.2-0.6-1.8-0.7c-4-0.9-8-1.6-12-2.4c-1.6-0.3-1.9-0.8-1.9-2.4
		c0-3.7,0-7.4,0-11.1c0-0.6,0.1-1.1,0.4-1.7c2.2-3.9,4.3-7.9,6.5-11.8c0.5-0.9,1.5-1.4,2.2-2.1c1.9-1.9,3.8-3.8,5.7-5.7
		c0.9-0.9,1.9-1.7,2.8-2.6c0.8-0.8,1.4-0.5,2,0.3c1.8,2.2,3.6,4.4,5.3,6.6c0.7,0.9,1.1,0.5,1.6,0c1.1-1,2.1-2.1,3.2-3.1
		c2.2-2.1,4.4-4.2,6.7-6.2c1.2-1,1.9-1,2.6,0.5c1.2,2.4,2.3,4.7,3.4,7.1c0.1,0.2,0.2,0.3,0.2,0.5c0.2,0.6,0.5,0.8,1,0.2
		c1.1-1.1,2.2-2.1,3.3-3.1c0.8-0.8,1.6-0.7,2.1,0.3c3.4,5.9,6.8,11.9,10.2,17.8c0.4,0.8,0.5,1.5-0.3,2.2c-0.5,0.4-1,0.9-1.1,1.6
		c-0.4,1.8,0,2,1.8,2.2c2.5,0.2,4.9,0.7,7.4,0.9c1.5,0.1,3.1,0.2,4.6,0.5c0.8,0.1,1.1,0.5,1,1.3c0,2.3,0.2,4.5,0.3,6.8
		c0.1,3.4,0.3,6.8,0.5,10.2c0.1,1.6,0.1,3.1,0.2,4.8c0.9-0.2,1.5-0.8,2.2-1.3c1.8-1.1,2.4-1,3.4,0.8c1.7,3,3.3,6,5,9.1
		c0.4,0.7,0.9,0.8,1.5,0.8c7.5,0,15,0,22.6,0c1.7,0,1.9,0.2,2,2c0.2,3.5,0.2,7.1,0.2,10.6c0,0.4,0.1,0.7,0.5,1
		c0.8,0.7,1.5,1.6,2.4,2.2c0.7,0.5,1.3,1.2,1.7,2.1c1.9,3.6,3.8,7.2,5.7,10.8c0.5,0.9,0.5,1.9,0.3,2.9c-0.4,2.6-0.1,5.2-0.2,7.7
		c0,0.9-0.1,1.7-0.3,2.5c-0.1,0.4-0.4,0.6-0.8,0.8c-3.8,1.7-7.5,3.5-11.3,5.2c-0.4,0.2-0.8,0.4-1.1,0.6c-1.9,1-2.1,0.9-3.8-0.6
		c-3.2-2.6-6-5.7-8.9-8.6c-0.5-0.5-0.8-0.9-0.8-1.6c-0.1-4.6-0.1-9.1-0.2-13.7c0-0.9,0-1.7,0.7-2.3c-0.2-0.4-0.5-0.3-0.7-0.3
		c-3.7-0.1-7.4-0.2-11-0.3c-0.4,0-0.7,0.2-1,0.3c-4,2.5-8.1,5-12.1,7.5c-0.8,0.5-1.4,0.6-2.3,0.3c-3.9-0.9-7.7-1.7-11.6-2.7
		c-3.3-0.8-2.8-0.6-2.8-3.6c0-3.4,0-6.8,0-10.2c0-0.6,0.1-1.2,0.4-1.8c1.7-3.4,3.4-6.7,5-10.1c0.3-0.6,0.6-1,1.5-1.1
		C192,105.2,192.7,104.5,193.5,103.9z"/>
	<path class="st0" d="M18,31.5c0.1-4.7-0.3-9.1-0.3-13.6c0-1.5,0.8-2.5,2.6-1.6c1.8,0.9,3.6,1.5,5.5,2.1c4.3,1.4,8.6,1.3,12.9,0.2
		c2-0.5,3.9-1.2,5.8-2.1c0.4-0.2,0.8-0.4,1.2-0.4c1.4-0.3,2.1,0.3,2.1,1.7c-0.2,5.5-0.2,10.9-0.2,16.4c0,3.9-1.4,7.4-3,10.9
		c-1.3,2.8-2.8,5.5-4.5,8.1c-1.8,2.6-3.9,4.9-6.3,7c-1,0.9-1.8,0.3-2.4-0.4c-2.8-2.6-5.2-5.4-7.2-8.7c-2.7-4.4-4.5-9.1-5.9-14
		C17.6,35.1,18.1,33.2,18,31.5z"/>
	<path class="st0" d="M74.2,129.4c0,1.4,0,2.8,0,4.2c0,0.7-0.3,1.3-0.9,1.7c-3.6,2-7.2,4-10.8,6c-1,0.6-1.6,0.3-2.4-0.3
		c-2.2-1.7-4.4-3.2-6.7-4.8c-1.8-1.3-3.6-2.5-5.4-3.8c-0.9-0.6-1.2-1.5-1-2.5c0.3-1.5,0.3-3,0.4-4.5c0.1-0.5,0.1-1.1,0.2-1.6
		c0.2-0.8,0.3-1.7-0.7-2.2c-0.8-0.4-0.7-1.3-0.2-1.9c2.3-3.3,4.6-6.5,7-9.8c0.7-1,1.5-1,2.4-0.5c3.1,1.8,6.1,3.6,9.2,5.4
		c1.2,0.7,2.6,1.1,3.5,2.3c1.6,2.2,3.2,4.3,4.8,6.5c0.7,1,0.5,2.2,0.5,3.3C74.2,127.8,74.2,128.6,74.2,129.4z"/>
	<path class="st0" d="M195.9,263.7c-0.8,0.8-0.5,1.6-0.7,2.3c-0.3,0.8-0.5,1.7-1.6,1.9c-1.2,0.2-1.8-0.7-2.2-1.5
		c-1.1-2.1-0.3-4.6,1.8-5.8c0.5-0.3,0.4-0.9,0.5-1.3c0.2-0.7,0.3-1.4,1.2-1.5c0.9-0.2,1.4,0.4,1.8,1.2c1,2.1,1.4,4.3,1.8,6.5
		c0.1,1,0.7,1.3,1.6,1.3c1.6,0,3.1-0.1,4.6-0.5c1.1-0.2,1.9,0.3,1.9,1.3c0,0.7-0.4,0.9-0.9,1c-2.2,0.5-4.5,0.7-6.7,0.5
		c-1.2-0.1-2.1-0.9-2.5-2.1C196,265.9,195.7,265,195.9,263.7z"/>
	<path class="st0" d="M107.5,249c0,0.5,0,0.8,0,1.2c0,1.6-0.4,1.9-1.9,1.5c-0.9-0.2-0.2-1-0.5-1.4c-1.4,0-2.8,0-4.2,0
		c-0.8,0-1.1-0.7-1.1-1.2c0-0.6,0.4-1.1,1.2-1.1c1.1,0,2.2,0,3.3,0c0.6,0,0.8-0.1,0.8-0.8c0.1-1.3-0.7-2.4-0.9-3.7
		c-0.2-1,0.2-1.9,0.4-2.8c0.1-0.3,0.3-0.3,0.4-0.3c0.6,0.3,1.4,0.2,1.7,1c0.4,0.9,0.7,1.8,0.6,2.7c-0.1,1.8,1.1,2.6,2.3,3.4
		c1.2,0.8,2.7,1.1,4.2,1.2c0.5,0,1.1-0.1,0.9,0.7c-0.1,0.6,0.3,1.7-1,1.7C111.5,251.1,109.5,250.4,107.5,249z"/>
	<path class="st0" d="M51.6,266.5c0.6-1.7,0.8-3.3,0.8-5c0-0.8,0.1-1.4,0.8-1.8c0.4-0.2,0.8-0.1,1.1,0.2c0.6,0.5,0.8,1.3,0.6,2
		c-0.2,0.8-0.1,1.6-0.2,2.3c-0.1,1,0.5,1.3,1.3,1.3s1.7,0,2.5,0c0.8-0.1,1.5,0,1.6,0.9c0.2,0.9-0.5,1.5-1.3,1.5
		c-1.5,0-3,0.3-4.4-0.2c-0.4-0.1-0.7-0.1-1,0.3c-0.8,1.2-1.9,1.4-3.1,0.8c-0.5-0.3-1-0.6-1.7-0.7c-0.5,0-0.8-0.6-0.7-1.2
		c0.3-1.6,0.6-3.2,0.9-4.7c0.2-0.8,0.5-1.3,1.4-1.1c0.9,0.1,0.9,0.8,0.9,1.5c0,0.9-0.4,1.8-0.3,2.8C51.1,265.7,51,266.2,51.6,266.5z
		"/>
	<path class="st0" d="M117.8,217c0.5,1.7-0.8,2.4-1.8,3.1c-0.5,0.4-1.4,0.6-1.9-0.2c-0.9-1.4-0.9-2.3,0.2-2.6c1.2-0.4,1.2-1.1,1.2-2
		c0-0.6,0-1.3,0-1.9c0-0.8,0.2-1.5,1-1.7s1.2,0.3,1.6,1c0.7,1.1,1.3,2.3,2.4,3.1c0.6,0.5,1.3,1,2.2,1c0.8,0,1.3,0.5,1.3,1.3
		c0,0.9-0.6,1-1.4,1c-1.5,0-2.7-0.7-3.9-1.6C118.5,217.4,118.4,217,117.8,217z"/>
	<path class="st0" d="M184.9,229.7c0.5-1.3,1.3-2,2.2-2.6c0.6-0.4,1.4-0.3,1.8,0.2c0.4,0.5,0.3,1.5-0.2,1.7c-1.4,0.6-1.5,2-2.3,3
		c-0.4,0.6-0.7,1.3-1.6,1.2c-1-0.1-1.8-0.9-2.9-0.9c-0.3,0-0.5-0.6-0.5-1c0-1.4,0-2.8,0-4.1c0-0.7,0.3-1.4,1.1-1.5s1.2,0.4,1.5,1.2
		C184.4,227.6,184.4,228.6,184.9,229.7z"/>
	<path class="st0" d="M129.9,168c0,1,0,2,0,2.9c-0.1,0.8-0.3,1.5-1.3,1.5s-1.2-0.8-1.3-1.5c-0.1-2,0-3.9,0-5.9
		c0-0.8,0.3-1.5,1.2-1.6c1,0,1.3,0.8,1.3,1.6C130,166,129.9,167,129.9,168z"/>
	<path class="st0" d="M194.2,171c0,1.1,0,2.1,0,3.2c0,0.7-0.1,1.2-0.9,1.3c-0.8,0.1-1.3-0.3-1.4-1c-0.1-0.7-0.1-1.3-0.1-2
		c0-1.5,0-3,0-4.5c0-0.9,0.5-1.4,1.4-1.4s1,0.7,1,1.4C194.1,169,194.2,170,194.2,171z"/>
	<path class="st0" d="M153.5,183.3c0,1.5,0,2.8,0,4c0,0.8-0.3,1.6-1.3,1.6s-1.3-0.8-1.3-1.6c0-2.5,0-5,0-7.5c0-0.5,0.2-0.8,0.4-1.2
		c0.2-0.5,0.7-0.6,1.1-0.6c0.4,0,0.8,0.3,0.9,0.8C153.8,180.3,153.4,181.9,153.5,183.3z"/>
	<path class="st0" d="M180.7,184.3c0,1.4,0,2.8,0,4.1c0,0.7-0.2,1.2-1,1.3c-0.8,0-1.3-0.4-1.3-1.2c0-2.9,0-5.8,0-8.7
		c0-0.8,0.7-1.1,1.3-1.1c0.7,0,1,0.5,1.1,1.2C180.7,181.3,180.7,182.8,180.7,184.3z"/>
	<path class="st0" d="M92.4,210.4c0,0.9,0,1.8,0,2.7c0,0.6-0.3,1-0.9,1.1c-0.7,0.1-1.3-0.1-1.3-0.8c-0.1-2.1-0.1-4.2,0-6.2
		c0-0.6,0.7-1,1.2-0.9s1.1,0.4,1.1,1.2C92.4,208.4,92.4,209.4,92.4,210.4z"/>
	<path class="st0" d="M107.5,125.4c0.6,2.2-0.5,3.4-2.3,4.3c-0.8,0.4-1.5,1-2.2,1.5c-1,0.6-1.6,0.2-1.6-1c0-1.3,0-2.6,0-3.9
		c0-0.7,0.3-1.2,0.8-1.6c1.2-0.8,2.3-1.6,3.5-2.3c0.4-0.2,0.8-0.5,1.3-0.2s0.6,0.8,0.5,1.3C107.5,124.2,107.5,124.8,107.5,125.4z"/>
	<path class="st4" d="M192.3,107.6c5.2-3.4,10.4-6.8,15.6-10.2c0.5-0.3,0.8-0.2,1.1,0.3c2.3,4.2,4.6,8.4,6.9,12.5
		c0.3,0.6,0.1,0.7-0.4,1.1c-5.1,3.7-10.1,7.4-15.2,11.1c-0.5,0.4-0.8,0.3-1-0.2C197,117.3,194.7,112.5,192.3,107.6z"/>
	<path class="st4" d="M201.3,75.4c-1.6,4.7-3.2,9.2-4.7,13.8c-0.2,0.7-0.6,0.6-1,0.5c-3.5-0.6-7-1.2-10.5-1.8c-3-0.5-6.1-1-9.1-1.5
		c-0.9-0.1-1.3-0.2-0.7-1.2c2.1-3.8,4.1-7.7,6.1-11.5c0.2-0.4,0.3-0.6,0.8-0.5c3.8,0.5,7.6,1,11.5,1.4
		C196.1,74.8,198.6,75.2,201.3,75.4z"/>
	<path class="st4" d="M177.3,76.4c-3.2-4.8-6.4-9.6-9.5-14.3c-0.3-0.4-0.3-0.8,0.1-1.2c3.5-3.3,7-6.6,10.4-10c0.4-0.4,0.6-0.4,1,0.1
		c2.8,5,5.7,10,8.6,15c0.2,0.4,0.4,0.7,0,1.1c-1.1,1.1-2.3,2.2-3.2,3.4c-0.4,0.5-0.9,0.7-1.5,0.4c-0.8-0.3-1.6-0.1-2.3-0.1
		c-0.5,0-0.7,0.3-0.9,0.7C179,73.2,178.2,74.7,177.3,76.4z"/>
	<path class="st3" d="M172.3,85.7c-0.7-1.2-1.9-1.2-3-1.4c-0.9-0.2-1.8-0.3-2.6-0.5c-1.4-0.3-2.1,0.3-2.1,1.7c0,2,0,4,0,6
		c0,0.7-0.1,0.9-1,0.9c-1.7,0-1.7-0.9-1.6-2.1c0.1-2.6-0.1-5.2,0-7.8c0.1-2.7,0.2-5.3,0.2-8c0-1.3,0.7-2.4,1.2-3.7
		c0.7-2,1.4-4,2.1-6.1c0.1-0.3,0.1-0.7,0.4-0.8c0.4-0.1,0.5,0.3,0.6,0.6c3,4.5,6,9,9,13.5c0.3,0.4,0.3,0.7,0,1.2
		C174.5,81.5,173.4,83.6,172.3,85.7z"/>
	<path class="st4" d="M217.4,108c1.9,0,3.5,0,5.1,0c5.2,0,10.5,0,15.7,0c0.8,0,1.1,0.2,1,1c-0.2,2.4,0.5,4.8,0.2,7.4
		c-0.5-0.4-1.1-0.8-1.6-1.2c-0.7-0.7-1.3-1.5-2.1-2.1c-1.2-0.9-2-1.2-2.9,0.6c-0.6,1.1-1.1,2.3-1.8,3.4c-0.3,0.5-0.6,0.6-1.1,0.6
		c-2.5,0-5,0.1-7.6-0.1c-1.8-0.1-3.6-0.2-5.4-0.2c-0.5,0-0.7-0.2-0.7-0.7c0-0.8,0.1-1.7,0-2.5c-0.1-1,0.8-1.1,1.3-1.5
		c1.6-1.3,1.7-1.6,0.6-3.3C218,109.1,217.8,108.6,217.4,108z"/>
	<path class="st4" d="M234.7,115.6c1.8,1.5,3.5,3.1,5.2,4.7c0.9,0.9,1.8,1.7,2.8,2.5c0.5,0.4,0.5,0.8,0.2,1.4
		c-1.8,3.5-3.5,7.1-5.2,10.7c-0.8,1.5-0.7,1.5-2.1,0.3c-2.4-2.1-4.9-4.2-7.4-6.2c-0.3-0.2-0.5-0.4-0.2-0.9c1.8-3.2,3.4-6.4,5.1-9.6
		C233.6,117.5,234.2,116.5,234.7,115.6z"/>
	<path class="st3" d="M134.9,80c-1.1,0.1-1.5-0.3-1.4-1.4c0.1-2.7,0.1-5.4,0-8.1c0-1.3,0.2-2.4,0.8-3.6c1.6-2.8,3.1-5.6,4.7-8.5
		c2.4,3.1,4.7,6.2,7.1,9.2c0.8,0.9,0.9,1.9,0.9,3c0,3.6,0,7.2,0,10.9c0,1-0.3,1.2-1.2,0.9c-0.9-0.3-1.8-0.5-2.7-0.6
		c-0.8-0.1-0.8-0.4-0.8-1c0-2.1-0.1-4.2,0-6.3c0.1-1.2-0.5-1.6-1.5-1.7c-1.4-0.3-2.9-0.5-4.4-0.7c-1-0.1-1.5,0.4-1.5,1.4
		C134.9,75.7,134.9,77.8,134.9,80z"/>
	<path class="st4" d="M161.7,68.9c-0.7-1.6-1.4-3-2-4.4c-1.1-2.5-2.2-5-3.3-7.5c-0.2-0.5-0.2-0.7,0.2-1.1c3.8-3.5,7.6-7,11.4-10.5
		c0.4-0.4,0.6-0.3,0.8,0.2c1.1,2.4,2.2,4.8,3.5,7.2c0.3,0.6-0.1,0.8-0.4,1c-2.5,2-4.6,4.5-7.1,6.6c-0.8,0.6-0.9,2.1-1.3,3.1
		C162.9,65.2,162.3,67,161.7,68.9z"/>
	<path class="st3" d="M154.4,58.5c2,4.6,3.9,8.9,5.8,13.3c0.1,0.2,0.1,0.4,0.1,0.6c-1,4.3-0.6,8.7-0.7,13.1c0,0.3,0.3,0.9-0.3,0.9
		c-0.5,0-0.4-0.6-0.4-1c0-2.1,0-4.2,0-6.3c0-1.1-0.4-1.7-1.6-1.9c-1.5-0.2-3-0.6-4.5-0.7c-1.1,0-1.5,0.5-1.5,1.5c0,2,0,3.9,0,5.9
		c0,0.4,0.1,1-0.6,0.8c-0.5-0.1-1.3,0.1-1.3-0.9c0-5.1,0-10.2,0-15.2c0-0.3,0.1-0.5,0.2-0.8C151.3,64.8,152.8,61.8,154.4,58.5z"/>
	<path class="st3" d="M244.9,125.7c1,1.9,1.9,3.7,2.9,5.5c0.5,1,1.1,2.1,1.7,3.1c0.4,0.7,0.5,1.4,0.5,2.2c-0.1,1.6-0.1,3.3,0,5
		c0.1,1.4-0.3,2.8-0.3,4.2c0,0.5-1.4,1.6-2,1.5s-0.4-0.5-0.4-0.8c0-2.7,0-5.4,0-8.1c0-1.6-0.7-2.1-2.1-1.4c-0.9,0.4-1.8,0.9-2.7,1.4
		c-0.6,0.3-0.8,0.8-0.9,1.5c-0.1,3.1-0.3,6.2-0.2,9.4c0.1,1.1-0.7,1.2-1.3,1.5c-1.7,0.9-1.7,0.9-1.8-1c-0.1-3.5,0.4-7.1,0.2-10.6
		c0-0.9,0.5-1.5,0.8-2.3C241.2,133.1,243,129.5,244.9,125.7z"/>
	<path class="st4" d="M149.5,47.5c1.8,2.3,3.6,4.5,5.4,6.8c-2.8,2.3-3.7,5.8-5.4,8.8c-0.6,1-1,2-1.5,3c-2.4-3.1-4.8-6.2-7.2-9.3
		c-0.4-0.5-0.1-0.8,0.2-1.1C143.8,53,146.6,50.2,149.5,47.5z"/>
	<path class="st3" d="M190.7,109.9c1.6,3.4,3.2,6.6,4.8,9.9c0.5,1,0.8,2,1.4,2.9c1.4,2.3,1.2,4.8,1.2,7.3c0,2.1,0,2.1-2.1,1.6
		c-0.8-0.2-1-0.5-1-1.2c0-2.2,0-4.5,0-6.7c0-1.1-0.4-1.9-1.5-2.2c-1.1-0.3-2.2-0.7-3.4-1c-1.4-0.4-2,0.1-2,1.6c0,2.2,0,4.5,0,6.7
		c0,0.3,0.4,1-0.5,0.9c-0.6-0.1-1.2-0.1-1.2-1c0-1.5,0.1-2.9,0-4.4c-0.4-4.3,0.4-8.2,2.8-11.8C189.9,111.7,190.3,110.8,190.7,109.9z
		"/>
	<path class="st3" d="M236,150.8c-0.5-0.1-0.7-0.5-1-0.7c-2.2-2.1-4.4-4.3-6.6-6.3c-0.5-0.5-0.7-1-0.7-1.6c0-2.3,0-4.6,0-6.8
		c0-1.2-0.4-2.5-0.1-3.8c1.8,1.6,3.6,3.1,5.4,4.6c0.4,0.4,0.9,0.8,1.4,1.1c2.2,1.2,2.2,3.2,1.9,5.2c-0.4,2.5-0.1,5.1-0.2,7.6
		C236,150.2,236,150.5,236,150.8z"/>
	<path class="st3" d="M200.9,131.4c-0.6-1.9-0.2-3.9-0.3-5.8c0-0.4,0.2-0.6,0.5-0.8c4.1-3,8.2-5.9,12.4-8.9c0.2-0.1,0.3-0.2,0.6-0.4
		c0,0.9,0,1.6,0,2.3c-0.1,1.5,0.3,3,0.3,4.6c0,0.5-0.1,1-0.6,1.3c-4.2,2.5-8.4,5.1-12.5,7.6C201.1,131.4,201,131.4,200.9,131.4z"/>
	<path class="st3" d="M178.3,94.4c0,0.5,0.1,1,0,1.5c-0.1,0.4,0.4,1.2-0.4,1.3c-1.1,0.1-1.7-0.5-1.7-1.4c0-1.9,0-3.9,0-5.8
		c0-0.9,0.3-1,1.1-0.9c5.1,0.9,10.2,1.7,15.3,2.6c0.1,0,0.2,0,0.3,0.1c2.2,0.5,2.1,0.5,2.2,2.8c0.1,2.2,0.3,4.4,0.5,6.5
		c0.1,0.7-0.2,0.9-0.9,0.7c-1.5-0.5-3-0.9-4.6-1.3c-0.6-0.1-0.7-0.4-0.6-0.9c0.2-1.9-0.3-3.7-0.2-5.6c0-1.2-0.6-1.6-1.6-1.8
		c-2.5-0.5-5-0.9-7.5-1.4c-0.9-0.2-1.7,0.4-1.7,1.4C178.3,92.9,178.3,93.6,178.3,94.4z"/>
	<path class="st3" d="M201.8,81.5c0.4,3.7,0.6,7.3,0.7,11c0.1,1.6,0.2,3.1,0.2,4.7c0,0.6-0.1,0.9-0.7,1.2c-1.3,0.8-2.5,1.6-3.9,2.5
		c-0.4-1.1-0.1-2.2-0.3-3.2c-0.2-1.3,0-2.6-0.3-4c-0.1-0.7,0-1.3,0.6-1.9c0.8-0.8,0.9-2,1.3-3.1C200.2,86.4,201,83.9,201.8,81.5z"/>
	<path class="st3" d="M216.6,122c0-2.4,0-2.4,2.3-2.1c3.1,0.4,6.2,0.1,9.3,0.2c1.3,0,1.3,0,0.7,1.2c-0.2,0.3-0.4,0.6-0.5,0.9
		c-0.6,2.1-2.1,2.7-4.1,2.4c-2-0.4-4.1-0.2-6.1-0.2c-1.9-0.1-1.6,0.2-1.7-1.7C216.6,122.4,216.6,122.2,216.6,122z"/>
	<path class="st4" d="M167,89.7c0-0.9,0-1.7,0-2.6c0-0.5,0.1-0.7,0.7-0.5c2.2,0.5,2.2,0.5,2.2,2.8c0,1.1,0,2.2,0,3.3
		c0,0.7-0.3,0.8-0.9,0.7c-0.1,0-0.2,0-0.2,0C167,93,167,93,167,91.1C167,90.5,167,90.1,167,89.7z"/>
	<path class="st4" d="M156.6,82.7c0,0.8,0,1.6,0,2.4c0,0.2,0,0.5-0.1,0.6c-0.7,0.5-1.4-0.2-2.1-0.1c-0.3,0-0.7-0.2-0.7-0.8
		c0-1.7,0-3.3,0-5c0-0.2,0-0.4,0.1-0.4c0.8-0.5,1.5,0.2,2.2,0.1c0.4-0.1,0.5,0.4,0.5,0.8C156.6,81,156.6,81.8,156.6,82.7z"/>
	<path class="st4" d="M137.2,74.7c0.9,0.2,2.1,0.1,2.4,0.6c0.4,0.6,0.2,1.6,0.2,2.5s0,1.7,0,2.6c0,0.6-0.2,0.7-0.7,0.6
		c-1.8-0.3-1.9-0.3-1.9-2.3C137.2,77.4,137.2,76.1,137.2,74.7z"/>
	<path class="st4" d="M192.7,130.8c-2.1-0.5-2.1-0.5-2.1-2.5c0-1.3,0-2.7,0-4c0-0.3-0.3-1.1,0.4-0.9c0.6,0.1,1.6,0,1.7,1
		C192.8,126.5,192.7,128.7,192.7,130.8z"/>
	<path class="st4" d="M187,99.6c-2.3-0.5-2.4-0.5-2.3-2.8c0-0.9-0.4-1.8-0.2-2.8c0.7,0.3,1.8,0,2.1,0.7c0.3,0.6,0.1,1.5,0.1,2.2
		C187,97.8,187.2,98.6,187,99.6z"/>
	<path class="st4" d="M243.8,149.1c-0.2-3.1,0.4-5.8,0.2-8.5c0-0.6,0.5-0.6,0.9-1c0,3,0,5.7,0,8.4
		C244.9,148.6,244.3,148.5,243.8,149.1z"/>
	<path class="st4" d="M180.7,93.5c1.4-0.2,1.5,0.6,1.4,1.6c-0.1,0.8,0.1,1.6-0.1,2.3c0,0.3,0.7,0.9-0.2,0.8c-0.5,0-1.2,0.1-1.2-0.9
		C180.7,96.1,180.7,94.7,180.7,93.5z"/>
	<path class="st2" d="M33.3,28.5c0-1.9,0-3.9,0-5.8c0-0.6,0.1-0.9,0.8-0.9c3.6-0.1,7-1.2,10.3-2.6c0.3-0.1,0.6-0.4,0.8-0.2
		c0.2,0.2,0,0.5,0,0.8c-0.1,0.3-0.1,0.7-0.1,1.1c0,2.8-0.1,5.5,0,8.3c0.1,1.8-0.3,3.7-0.3,5.5c0,0.6-0.2,0.6-0.7,0.6
		c-3.4,0-6.8,0-10.1,0c-0.7,0-0.7-0.3-0.7-0.9C33.3,32.4,33.3,30.4,33.3,28.5z"/>
	<path class="st3" d="M31,28.6c0,1.9,0,3.8,0,5.7c0,0.7-0.1,1-0.9,1c-3,0-5.9,0-8.9,0c-0.8,0-0.9-0.3-0.9-1c0-3.1,0-6.2,0-9.3
		c0-1.7-0.3-3.4-0.3-5.2c0-0.9,0.2-0.9,0.9-0.6c3,1.3,6,2.3,9.3,2.5c0.6,0,0.7,0.3,0.7,0.8C31,24.6,31,26.6,31,28.6z"/>
	<path class="st3" d="M33.3,57c0-1.9,0-3.5,0-5.2c0-4.4,0-8.8,0-13.2c0-0.7,0.1-1.1,0.9-1.1c3.2,0,6.4,0,9.6,0
		c0.5,0,0.9-0.1,0.7,0.7c-2.1,6.8-5.3,13-10.4,18C33.9,56.5,33.7,56.7,33.3,57z"/>
	<path class="st2" d="M20.8,37.6c3.2,0,6.4,0,9.5,0c0.8,0,0.6,0.6,0.6,1c0,5,0,10,0,15c0,0.8,0,1.5,0,2.4
		C27.3,52.8,22.8,44.9,20.8,37.6z"/>
	<path class="st4" d="M65.4,117.9c-0.4,0.8-0.8,1.5-1.2,2.2c-1.3,2.3-2.6,4.5-3.9,6.8c-0.3,0.5-0.5,0.7-1,0.3
		c-3.1-2.2-6.2-4.4-9.4-6.5c-0.6-0.4-0.6-0.5-0.2-1c1.8-2.5,3.5-5,5.2-7.5c0.3-0.4,0.5-0.5,0.9-0.3c3,1.8,6,3.6,9,5.4
		C65.1,117.5,65.4,117.6,65.4,117.9z"/>
	<path class="st3" d="M50,123.8c2.5,1.7,4.8,3.2,7.1,4.8c1,0.6,1.8,1.5,2.9,1.8c0.4,0.1,0.4,0.3,0.4,0.6c-0.1,1.1,0.1,2.2-0.2,3.4
		c-0.2,0.9-0.1,1.9-0.1,2.8c0,0.2,0.1,0.5-0.1,0.6c-0.3,0.2-0.4-0.1-0.6-0.3c-3.1-2.2-6.2-4.3-9.2-6.5c-0.3-0.2-0.6-0.4-0.7-0.9
		C49.6,128.1,49.9,126,50,123.8z"/>
	<path class="st3" d="M62.7,138.3c-0.4-0.9,0.1-1.8,0.1-2.6c0-1.5,0.1-2.9,0-4.4c-0.2-2.5,0.3-4.8,1.7-7c1.1-1.5,1.8-3.2,2.8-5
		c1.4,1.9,2.7,3.7,4,5.5c0.2,0.3,0.1,0.6,0.1,0.9c0,2.3,0,4.6,0,7c0,0.8-0.2,1.3-1.1,1.5c-0.1-1.9-0.2-3.8-0.3-5.7
		c-0.1-1.3-0.7-1.8-1.9-1.2c-0.8,0.4-1.5,0.9-2.4,1.3c-1.7,0.7-1.2,2.3-1.4,3.6c-0.2,1.3,0,2.6,0,3.9
		C64.5,137.6,64.5,137.6,62.7,138.3z"/>
	<path class="st4" d="M66.9,135.9c-0.2-1.7,0.4-3.3,0.2-5c0-0.4,0.2-0.6,0.5-0.6c0.4,0,0.2,0.4,0.2,0.6c0,1.3,0,2.6,0,3.9
		C67.8,135.5,67.6,135.9,66.9,135.9z"/>
	<path class="st4" d="M103.3,128.3c-0.8-2.1,1-2.4,2.2-3.3C105.7,127.2,105.4,127.7,103.3,128.3z"/>
	<path class="st0" d="M168.9,76c0,0.7,0,1.3,0,2c0,0.6-0.2,1-0.8,1.1s-1-0.1-1.3-0.6c-0.1-0.3-0.3-0.6-0.3-0.9c0-1.2-0.1-2.4,0-3.6
		c0-0.8,0.5-1.3,1.3-1.2c0.7,0,1.1,0.4,1.1,1.2C168.8,74.7,168.9,75.4,168.9,76z"/>
	<path class="st0" d="M138,65.5c0-0.4,0-0.9,0-1.3c0-0.8,0.4-1.3,1.1-1.4c0.7-0.1,1.1,0.6,1.1,1.1c0.1,1,0.1,2.1,0,3.1
		c-0.1,0.6-0.5,1-1.2,0.9s-1.1-0.4-1.1-1.1C138,66.5,138,66,138,65.5z"/>
	<path class="st0" d="M153.5,69.2c0-0.6,0-1.1,0-1.7c0-0.7,0.4-1.2,1-1.3c0.7-0.1,1.3,0.4,1.3,1c0.1,1.3,0.1,2.6,0,3.9
		c0,0.7-0.7,1.1-1.3,1.1s-1-0.6-1-1.3C153.5,70.4,153.5,69.8,153.5,69.2z"/>
</g>
<g id="g9219" transform="translate(-0.89524874,-4.7390404)">
	<rect id="rect3069-6-4" x="1.8" y="5.6" class="st6" width="281.7" height="281.7"/>
	<path id="path3845-9-7" class="st6" d="M148.8,180h38.3"/>
	<path id="path3847-1-6" class="st6" d="M187.9,165.9l-0.9,30c-0.3,8.4,18.7,8.6,23.3,5.7"/>
	<path id="path3849-3-6" class="st6" d="M211.5,167.3l-0.5,35"/>
	<path id="path3851-8-6" class="st6" d="M186.3,164.8c7.5,4.2,21.4,4,27.6,0.9"/>
	<path id="path3853-8-7" class="st6" d="M186.3,164.6l14.3-23.1l13.6,24.4"/>
	<path id="path3855-9-3" class="st6" d="M194.2,172.6v6.8"/>
	<path id="path3857-4-4" class="st6" d="M147.5,163.2v34.6"/>
	<path id="path3861-9-7" class="st6" d="M120.3,160.5c6.8,4.5,22.9,3.7,30,1.2"/>
	<path id="path3863-5-0" class="st6" d="M129.6,169.5v6.8"/>
	<path id="path3865-1-7" class="st6" d="M147.5,197.9c-3.6,4.1-10.9,6.1-19.9,4.1"/>
	<path id="path3867-7-0" class="st6" d="M148.2,171.2h34.5l4.7,5.7"/>
	<path id="path3869-4-6" class="st6" d="M148.2,197.6l12.2-0.3"/>
	<path id="path3871-5-3" class="st6" d="M174.5,197.3l12.9,0.3"/>
	<path id="path3873-1-3" class="st6" d="M160.5,197.1l-0.1-8.3c4.5-6.2,9-6,13.5-0.3l0.3,8.1"/>
	<path id="path3875-4-5" class="st6" d="M160.9,196.9l3.9-3.7l-0.2-7.4"/>
	<path id="path3879-6-0" class="st6" d="M153.2,184.1v8.8"/>
	<path id="path3879-0-0-2" class="st6" d="M180.6,184.7v8.8"/>
	<path id="path3917-3-6" class="st6" d="M126.7,186.3l0.9,15.6l-27,25.7v-22c-3.3,4.2-10.3,2.9-15.2,1l0.3,21.6
		c5,1.8,10.6,2.3,14.9-0.7"/>
	<path id="path3919-2-6" class="st6" d="M85.3,206l7.8-12.2l7.4,10.8"/>
	<path id="path3921-2-8" class="st6" d="M92,212.5v5.7"/>
	<path id="path3923-1-7" class="st6" d="M100.8,210.1l25.7-24.3l-5.7-2l-21,19.6"/>
	<path id="path3925-4-3" class="st6" d="M84.9,228l-26,8.5l-20.6,16.2L2.8,287.5"/>
	<path id="path3947-7-7" class="st6" d="M210.4,202.9l19.5,31.8l22.6,20l30.3,31.2"/>
	<path id="path3949-7-6" class="st6" d="M113.3,176.2l-14.2-7.1L84.9,184l-20.3-10.2L82.5,159l16.8,10.2"/>
	<path id="path3951-0-5" class="st6" d="M84.9,184.7l0.3,16.3l-19.3-11.9l0.3-13.2"/>
	<path id="path3953-9-4" class="st6" d="M110.3,175.9v17.6"/>
	<path id="path3955-5-6" class="st6" d="M56.1,219l-10.4-6.8l8.8-8.5l12.4,6.6"/>
	<path id="path3957-7-8" class="st6" d="M46.6,213.2V225"/>
	<path id="path3959-2-3" class="st6" d="M64.9,175.2l-7.4,2L51,158.6l15.9-8.1l6.1,15.6"/>
	<path id="path3961-9-1" class="st6" d="M56.8,175.8c0.2-0.1,0.5,12.3,0.7,17.7l9.1-3.4"/>
	<path id="path3963-7-7" class="st6" d="M50.7,158.6l-3.4,15.2"/>
	<path id="path3965-6-1" class="st6" d="M56.7,193.8l-9-3.4l-0.3-17.6"/>
	<path id="path3967-8-6" class="st6" d="M252.5,140l-6.4-12.2l-7.4,15.2l-0.3,15.2l13.9-6.4L252.5,140z"/>
	<path id="path3969-2-4" class="st6" d="M246.2,128.1l-10.6-9.8l-8.1,15.2l11.2,9.5"/>
	<path id="path3971-9-4" class="st6" d="M227.4,133.6l0.3,14.9l9.5,9.2"/>
	<path id="path3973-9-9" class="st6" d="M219,115.9l-18.6,13.5l-8.5-17.6l18.3-11.9L219,115.9z"/>
	<path id="path3975-8-5" class="st6" d="M200.3,130.2l0.3,8.5l15.9-9.8l-0.3-10.5"/>
	<path id="path3977-3-9" class="st6" d="M192.2,111.2l-5.8,11.5v12.5l13.5,3"/>
	<path id="path3979-7-8" class="st6" d="M216.9,111.5h24.7l0.3,11.2"/>
	<path id="path3981-1-4" class="st6" d="M216.6,123.4l15.6,0.3"/>
	<path id="path3983-2-0" class="st6" d="M215.6,130.2l13.6,0.3"/>
	<path id="path3985-6-7" class="st6" d="M198.3,96l-24.4-4.1l8.1-15.2l22,2.4L198.3,96z"/>
	<path id="path3987-1-3" class="st6" d="M204.1,80.4l1,22"/>
	<path id="path3989-7-2" class="st6" d="M197.3,96.6l0.7,9.9"/>
	<path id="path3991-6-5" class="st6" d="M176,92.6v9.8l21.4,5.7"/>
	<path id="path3993-5-1" class="st6" d="M180.4,53.3l10.5,18.3l-5,5.2"/>
	<path id="path3995-0-1" class="st6" d="M178,82.8l-11.2-16.9L180.4,53"/>
	<path id="path3997-4-0" class="st6" d="M166.7,65.7l-4.6,13L161.7,98l13.9,2"/>
	<path id="path3999-5-2" class="st6" d="M174.6,57.4l-4.7-9.8l-14.2,13.2l6.8,15.2"/>
	<path id="path4001-1-9" class="st6" d="M155,61.4l-5.8,11.5v17.3l12.5,2.4"/>
	<path id="path4003-2-0" class="st6" d="M157.3,58.7l-6.8-8.5l-10.8,10.5l8.8,11.5"/>
	<path id="path4005-3-3" class="st6" d="M139.4,61.4l-6.1,11.2v12.9l14.6,3"/>
	<path id="path4007-7-5" class="st6" d="M189.2,74.3v2.2"/>
	<path id="path4015-2-8" class="st6" d="M115.4,110.2l-3.7,17.3l26.8,0.4l3.3-16.6L115.4,110.2z"/>
	<path id="path4017-4-4" class="st6" d="M111.6,128.8l0.3,10.8l26.4,0.3l-0.1-11.9"/>
	<path id="path4019-1-8" class="st6" d="M141.5,112l0.6,23.4l-3.1,4.3"/>
	<path id="path4021-8-4" class="st6" d="M110.6,136.6L96,145.7l-0.3-14.2l16.9-10.2"/>
	<path id="path4023-2-1" class="st6" d="M95.7,131.9l-6.1-15.6l19.3-12.5l6.1,8.5"/>
	<path id="path4025-6-0" class="st6" d="M89.5,116l-7,10.4v14.2l13.5,4.8"/>
	<path id="path4027-0-0" class="st6" d="M102.5,108.2l7.2-17.9l5.4,11.1v7.8"/>
	<path id="path4029-3-8" class="st6" d="M110.1,90.4l-16.4-7.9L85.6,100l16.1,7.5"/>
	<path id="path4031-9-5" class="st6" d="M86.2,101.4L85.6,121"/>
	<path id="path4033-4-8" class="st6" d="M67.9,122l-12.2-7.1l-7.4,10.5l12.8,8.7L67.9,122z"/>
	<path id="path4035-9-4" class="st6" d="M68.3,122.1l5.4,7.4v9.5l-11.5,6.4l0.3-13.5"/>
	<path id="path4037-6-7" class="st6" d="M49.7,127.5L49,136l13,9.2"/>
	<path id="path4064-5-2" class="st6" d="M1.7,259.9l4.1-3.5l-0.4-4.3l3.3-2.9l0.2,5.3l4.3-3.5l-0.4-4.5l3.5-2.7l0.4,4.3l4.7-3.2
		v-5.6l3.7-3l0.2,4.6l4.7-4.5l0.6-4.8l3.5-3l0.6,5.1l4.8-3.7v-5.3l3.7-2.4l0.4,4.8l4.8-3.4l-0.4-5l4.5-2.9l0.6,5.8l4.3-3l-0.4-5
		l4.7-1.4l0.4,4.5l4.7-1.1l-0.2-4.8l4.8-1.6l0.6,5.6l5-1.4l-0.6-5.3l4.5-0.8l0.8,4.6l3.7-1.1"/>
	<path id="path4091-1-8" class="st6" d="M283.5,262.4l-3.9-3.3l0.7-8.5l-4.6-4.7l-0.8,7.9l-5.2-5.6l0.7-8.6l-4.2-4.6l-1,8.5
		l-5.4-5.2l0.5-8.8l-4.2-4.1l-0.7,8.6l-5.6-4.6l1-9l-5.4-4.4l-0.7,8.1l-5.9-4.7l0.5-9l-4.7-4.9l-0.7,9l-4.7-6.6l0.8-10.3l-3.7-6.6
		l-0.8,11l-3.6-7.5l0.4-8.4l-3.6-6.1l-1,9.6l-5.9-8.8"/>
	<path id="path4093-3-0" class="st6" d="M137.1,85.9l-0.2-7.9l5.1,0.9v8"/>
	<path id="path4093-0-2-2" class="st6" d="M153.6,91v-8.7l5.1,0.9v8"/>
	<path id="path4093-8-6-5" class="st6" d="M166.9,98.4v-8.7l5.1,0.9v8"/>
	<path id="path4120-9-4" class="st6" d="M168.8,78.6v4.1"/>
	<path id="path4120-0-0-0" class="st6" d="M155.7,72v3.7"/>
	<path id="path4120-6-0-6" class="st6" d="M140.1,68.7v2.9"/>
	<path id="path4147-3-3" class="st6" d="M180.6,103.3v-6.7l8.5,1.6l0.3,7.1"/>
	<path id="path4149-9-0" class="st6" d="M184.4,97.8l0.1,6.7"/>
	<path id="path4151-5-0" class="st6" d="M118.4,139.5v-7.8l11.6,0.2v7.8"/>
	<path id="path4153-3-5" class="st6" d="M124,131.9v7.6"/>
	<path id="path4155-1-2" class="st6" d="M86.8,141.8c-0.2-2.6,0-5.1,0.2-8.7l3.3,1.4v8.5"/>
	<path id="path4177-6-2" class="st6" d="M66.5,142.6l0.2-8l3.2-1.9v8.2"/>
	<path id="path4179-9-0" class="st6" d="M50,190.7l-0.2-11.2l4,1.6l0.3,11.2"/>
	<path id="path4181-1-8" class="st6" d="M86,201.4l2.4-0.6"/>
	<path id="path4183-9-2" class="st6" d="M70.8,191.8v-9.9l8.1,4.3v10.7"/>
	<path id="path4185-0-5" class="st6" d="M190.5,135.8v-9.4l4.5,1.3v8.7"/>
	<path id="path4189-6-5" class="st6" d="M243.8,155.5l0.2-11.2l3.4-1.8V153"/>
	<path id="path4485-7" class="st6" d="M103.1,130.8v4.5l4.3-2.9v-4.5L103.1,130.8z"/>
	<path id="path4487-4" class="st7" d="M122.2,183.5l0.4-21.8"/>
	<path id="path4489-7" class="st6" d="M119.8,160.2L135,140l15.1,21"/>
	<path id="path4491-4" class="st6" d="M49.9,272.2c2.8-10.9-1.5-0.4,2.1,0.8c2.6,0.9,2.4-7.1,2.5-7.1c0.2,0-0.2,4,0,4.6
		c0.7,2,3.7,1.2,5.4,1.2"/>
	<path id="path4493-0" class="st6" d="M194,271.7C196.8,262.6,191.1,268.8,194,271.7c1.9,1.9,1.3-9.8,2.5-7.5
		c3.6,7.2-1.4,10.2,10,8.3"/>
	<path id="path4495-0" class="st6" d="M183.6,236.4c-0.1-11.8,0.9,2.8,2.5,0.4c1.8-2.7,1-2.8,2.9-3.7"/>
	<path id="path4497-6" class="st6" d="M115.5,223.6c3.9-1.9-2.2,3,2.1-0.4c0.3-0.2,0-4.5,0-4.6c0-3,1.3,4.6,6.2,4.6"/>
	<path id="path4499-6" class="st7" d="M107.2,256.8c0.8-21-6-1.7,8.3-1.7"/>
	<path id="path4501-1" class="st6" d="M105.5,254.3c-1.2,0-2.5,0-3.7,0"/>
	<g id="g4076-3-0" transform="matrix(1.2476197,0,0,1.2476182,-220.25629,184.18921)">
		<path id="path3251-2" class="st8" d="M192.5-130.2c7.9,3.8,13.1,3.8,21.5,0"/>
		<path id="path3284-5" class="st9" d="M202.9-127.6v30.1"/>
		<path id="path3286-8" class="st8" d="M192.5-114.8h20.9"/>
		<path id="path3288-5" class="st8" d="M192.2-130.3l0.3,15.8c2.1,7.4,5.5,13.8,10.6,18"/>
		<path id="path3288-2-0-2" class="st8" d="M214.4-130.2l-0.3,16c-2.1,7.4-5.7,13.6-10.8,17.8"/>
	</g>
</g>
<g>
	<path d="M47.7,22.3c0.1,4.6-0.3,9.4-0.3,14.2c0,2-1,3.9-1.7,5.7c-1.6,4.2-3.7,8.2-6.4,11.8c-1.7,2.2-3.5,4.1-5.6,6
		c-1,0.9-1.8,0.3-2.4-0.3c-3.3-2.9-6-6.3-8.1-10.1c-2.2-3.9-3.9-8.1-5-12.4c-0.1-0.3-0.1-0.5-0.1-0.8c0-4.7-0.4-9.4-0.2-14.1
		c0.1-1.6-0.1-3.2-0.2-4.8c-0.1-1.6,0.8-2.2,2.3-1.6c2.5,0.9,4.9,2,7.5,2.7c3.8,0.9,7.5,0.7,11.3-0.2c2.4-0.6,4.6-1.5,6.8-2.5
		c1.4-0.6,2.3-0.1,2.3,1.5C47.7,18.8,47.7,20.5,47.7,22.3z"/>
	<path class="st10" d="M45.3,18.4c0.2,4.5-0.4,8.8-0.2,13.2c0,1,0.5,2.4-0.2,3c-0.6,0.5-1.9,0.2-3,0.2c-2.5,0-5,0-7.6,0
		c-0.8,0-1-0.2-1-1c0-3.9,0-7.7,0-11.6c0-0.6,0.1-0.9,0.8-0.9c3.3-0.2,6.4-1.2,9.5-2.3C44.2,18.8,44.7,18.6,45.3,18.4z"/>
	<path class="st0" d="M20.1,18.7c0.9,0,1.6,0.6,2.4,0.9c2.5,0.9,5.1,1.6,7.8,1.9c0.5,0,0.6,0.3,0.6,0.7c0,4.1,0,8.1,0,12.2
		c0,0.6-0.3,0.6-0.7,0.6c-3.1,0-6.1,0-9.2,0c-0.4,0-0.7-0.1-0.7-0.6C20.4,29.1,19.8,23.9,20.1,18.7z"/>
	<path class="st0" d="M33.5,56.6c0-2.3,0-4.4,0-6.4c0-4,0-8,0-11.9c0-0.7,0.1-1.1,0.9-1.1c3.4,0,6.8,0,10.1,0
		C44.4,41.5,38.1,52.7,33.5,56.6z"/>
	<path class="st10" d="M30.9,56c-2.4-2.5-4.2-5-5.6-7.7C23.5,45,22,41.6,20.9,38c-0.2-0.7-0.1-0.8,0.6-0.8c2.9,0,5.8,0,8.7,0
		c0.4,0,0.7,0,0.7,0.6C30.9,43.8,30.9,49.8,30.9,56z"/>
</g>
</svg>
