<?xml version="1.0" encoding="utf-8"?>
<!-- Generator: Adobe Illustrator 25.0.0, SVG Export Plug-In . SVG Version: 6.00 Build 0)  -->
<svg version="1.1" id="Layer_1" xmlns="http://www.w3.org/2000/svg" xmlns:xlink="http://www.w3.org/1999/xlink" x="0px" y="0px"
	 viewBox="0 0 283.5 283.5" style="enable-background:new 0 0 283.5 283.5;" xml:space="preserve">
<style type="text/css">
	.st0{fill:#FFFFFF;}
	.st1{fill:#C2895F;}
	.st2{fill:#87AD50;}
	.st3{fill:#BBA78E;}
	.st4{fill:#EE663C;}
	.st5{fill:none;stroke:#010101;stroke-width:1.777;stroke-linecap:round;stroke-linejoin:round;}
	.st6{fill:none;stroke:#010101;stroke-width:1.777;}
</style>
<g>
	<path class="st0" d="M0,141.6C0,94.8,0,47.9,0,1.1C0,0.2,0.2,0,1.1,0c93.8,0,187.5,0,281.3,0c0.9,0,1.1,0.2,1.1,1.1
		c0,93.8,0,187.5,0,281.3c0,0.9-0.2,1.1-1.1,1.1c-93.8,0-187.5,0-281.3,0c-0.9,0-1.1-0.2-1.1-1.1C0,235.5,0,188.5,0,141.6z"/>
	<path class="st1" d="M281.1,254.6c-1.3-0.8-1.5-1.7-1.3-3c0.3-1.9,0.3-3.9,0.5-5.8c0.1-0.4-0.2-1-0.6-1.4c-1.4-1.5-3-2.8-4.3-4.4
		c-0.3-0.3-0.8-0.6-1.3-0.3c-0.5,0.2-0.8,0.6-0.9,1.1c-0.2,1.6-0.3,3.2-0.5,4.9c-2.3-1.2-3-3-2.9-5.4c0.1-1.9,0.4-3.8,0.3-5.7
		c0-0.4-0.1-0.7-0.4-0.9c-1.3-1.4-2.6-2.9-3.9-4.3c-0.4-0.4-0.9-0.5-1.4-0.4c-0.6,0.2-0.9,0.8-0.9,1.4c-0.2,1.8-0.4,3.5-0.5,5.3
		c-1.6-0.5-3.3-2.8-3.2-4.3c0.1-2.1,0.1-4.3,0.4-6.4c0.1-0.5-0.1-1.1-0.6-1.5c-1.3-1.3-2.5-2.7-4-3.8c-1-0.7-1.7-0.6-2,0.6
		c-0.4,2-0.4,4-0.5,6.2c-1-0.5-1.7-1.3-2.6-1.9c-1.2-0.8-0.5-1.8-0.5-2.8c0.1-2,0.5-4,0.7-6c0-0.5-0.1-1-0.6-1.3
		c-1.6-1.3-3.2-2.6-4.9-3.9c-1.2-0.9-2-0.7-2.3,0.8c-0.4,1.8-0.4,3.6-0.5,5.6c-1.2-0.9-2.3-1.7-3.4-2.6c-0.7-0.6-0.2-1.4-0.3-2.1
		c0-2.4,0.7-4.7,0.1-7.1c-0.1-0.3-0.2-0.6-0.4-0.8c-1.4-1.4-2.9-2.9-4.3-4.3c-0.4-0.4-0.8-0.5-1.3-0.3c-0.5,0.2-0.7,0.6-0.8,1.2
		c-0.3,1.7,0,3.4-0.6,5.2c-0.8-1-1.7-1.9-2.1-3c-0.4-1-0.2-2.2,0-3.3c0.3-1.5,0-2.9,0.4-4.4c0.8-2.9-1-5-2.3-7.2
		c-0.5-0.8-0.7-1.7-1.4-2.4c-0.4-0.4-0.7-0.9-1.3-0.6c-0.5,0.2-0.9,0.6-0.9,1.3c-0.1,1.9-0.3,3.8-0.5,5.9c-0.5-1-0.9-2-1.4-2.8
		c-0.3-0.5,0.1-0.7,0.1-1.1c0-2-0.1-3.9,0.2-5.9c0.2-1-0.2-2-0.7-2.9c-1-1.6-1.9-3.2-2.8-4.8c-0.4-0.6-0.9-0.8-1.6-0.7
		c-0.6,0.1-0.7,0.5-0.9,1.1c-0.4,1.9-0.3,3.9-0.8,6c-1.3-1.9-2.5-3.7-3.7-5.6c-0.3-0.4-0.2-0.8-0.2-1.2c0-3.6,0-7.2,0-10.7
		c0-1.1,0.5-1.4,1.4-1.6c1.4-0.3,1.7-1,1.1-2.2c-3.5-6.2-6.9-12.3-10.4-18.5c-0.9-1.6-1.8-3.2-2.7-4.9c-0.8-1.4-1.8-1.5-2.7-0.1
		c-1.1,1.7-2.1,3.4-3.2,5.1c-2.9,4.6-5.7,9.3-8.6,13.9c-0.7,1.1-1.4,2.2-2,3.2c-0.6,1-0.4,1.7,0.6,2.3c0.3,0.2,0.6,0.3,0.5,0.8
		c0,2.3,0,4.7,0,7.2c-1-0.7-1.5-1.6-2.1-2.4c-0.7-0.9-1.4-1.4-2.6-1.4c-10.6,0.1-21.2,0-31.7,0.1c-1,0-1.4-0.2-1.3-1.3
		c0.1-1.6,0-3.1,0-4.7c0-0.5,0-1,0.7-0.9c0.2,0,0.4-0.1,0.7-0.2c1.5-0.5,1.9-1.3,0.9-2.8c-1.8-2.7-3.7-5.4-5.7-8
		c-2.6-3.6-5.5-7-8-10.8c1.5-0.1,2.5-0.9,3.3-2.1c0.6-0.8,1-1.8,1.9-2.4c0.6-0.4,0.8-1.2,0.8-2.1c-0.1-4-0.2-8.1-0.3-12.1
		c-0.1-2.8,0-5.6-0.2-8.5c0-0.9-0.1-1.7,0-2.6c0.1-1-0.4-1.4-1.3-1.5c-2.4,0-4.8-0.2-7.3-0.3c-4.3-0.1-8.7-0.3-13-0.5
		c-1.4,0-2.8-0.2-4.2-0.2c-0.7,0-0.9-0.2-0.9-0.9c0-1.9,0-3.8,0-5.7c0-0.8-0.2-1.5-0.5-2.2c-1.3-2.7-2.6-5.3-3.8-7.9
		c-0.3-0.7-0.9-1.3-0.8-2.2c0-0.4-0.4-0.8-0.9-1c-5.2-2.5-10.4-5.1-15.7-7.6c-1.2-0.6-1.6-0.4-2.2,0.8c-2.6,5.6-5.2,11.2-7.8,16.8
		c-0.2,0.5-0.4,1,0,1.4c0.7,0.6,0.6,1.3,0.4,2c-0.3,1-0.2,1.9-0.2,2.9c0,3.4-0.3,6.7-0.3,10.1c0,1.7-0.1,3.5-0.2,5.3
		c0,0.5-0.2,0.8-0.4,1.2c-0.3,0.4-0.5,0.8-0.8,1.1c-1.6,1.8-2,4-1.9,6.4c0.2,3.4,0.1,6.8,0,10.3c0,1.1,0.4,1.7,1.5,2.1
		c4.2,1.6,8.6,2.8,12.8,4.7c0.7,0.3,1.1-0.1,1.5-0.3c2.6-1.6,5.3-3.2,7.9-4.9c1.8-1.1,3.6-2.3,5.3-3.4c0.1,0.1,0.2,0.2,0.2,0.2
		c0.2,2.3,0.3,2.3,2.6,2.4c6.3,0.4,12.5,0.1,18.8,0.2c0.1,0,0.3,0,0.6,0c-1.7,2.3-3.4,4.6-5,6.8c-2.7,3.6-5.5,7.2-8.1,10.8
		c-1.3,1.8-1,2.1,0.6,3.1c1.1,0.6,1.3,1.2,1.2,2.3c-0.1,1.6,0.1,3.2,0,4.8c-0.3,4.3-0.2,8.6-0.2,12.9c0,0.4,0,0.7-0.6,0.9
		c-0.6,0.2-1.2,0.7-1.7,1.2c-2.1,1.9-4.1,3.9-6.1,5.9c-0.3,0.3-0.5,0.6-1,0.5c0-4.4,0-8.9,0-13.3c0.5-0.1,0.9,0.2,1.2,0.3
		c0.8,0.4,1.2-0.1,1.5-0.6c0.4-0.6,0.1-1.2-0.6-1.6c-1.9-0.9-3.7-1.9-5.6-2.8c-7.1-3.2-13.5-7.5-20.1-11.5c-1.6-0.9-3.1-1.9-4.7-2.8
		c-0.7-0.4-1.3-0.1-1.8,0.3c-2.5,2.1-5,4.2-7.6,6.3c-0.9-2.2-1.8-4.5-2.6-6.7c-1-2.6-2-5.1-3.1-7.7c-0.4-0.9-1-1.1-1.9-0.7
		c-5.3,2.7-10.6,5.4-16,8.1c-0.9,0.5-0.8,1.4-1,2.1c-0.9,3.8-1.4,7.6-2.5,11.3c-0.6,2.2-0.5,4.2-0.4,6.3c0.1,3.5,0,7.1,0,10.6
		c0,0.9,0.1,1.7,0.3,2.5c0.1,0.6,0.4,0.9,1,1.1c2.8,1,5.6,2.1,8.4,3.2c0.9,0.4,1.7-0.2,2.5-0.4c2.6-0.9,5.3-2,7.9-3
		c0.7-0.3,1.2,0,1.7,0.3c5.4,3.3,10.7,6.7,16.2,9.9c0.6,0.4,0.7,1.1,1.4,1.3c0.1,0-0.1,0.2-0.2,0.3c-1.4,1.5-1.6,3.4-1.3,5.3
		c0.2,1.2-0.7,1.3-1.5,1.5c-0.4,0.1-0.4-0.2-0.5-0.5c-0.1-0.8-0.3-1.6-0.4-2.4c-0.1-0.9-0.9-1.5-1.7-1.3c-1.3,0.2-2.5,0.4-3.7,0.7
		c-0.7,0.2-1.2,0.5-1.2,1.4c0,1.2,0.3,2.4,0.3,3.6c0,0.5-0.1,0.8-0.6,0.9c-0.4,0.1-0.8,0.1-1.1,0.3c-1.1,0.5-1.2,0-1.2-1
		c0-0.9-0.2-1.8-0.3-2.8c0-0.9-0.8-1.3-1.7-1c-0.3,0.1-0.5,0.1-0.8,0.3c-1.9,1-3.5,0.3-5.2-0.7c-2.1-1.3-4.4-2.3-6.6-3.5
		c-0.9-0.4-1.7-0.9-2.5-1.4c-0.8-0.5-1.4-0.3-2,0.3c-0.4,0.4-0.8,0.8-1.2,1.2c-2.2,2.1-4.5,4.3-6.7,6.4c-0.8,0.8-1.5,1.6-0.3,2.7
		c0.2,0.2,0.1,0.5,0.1,0.8c0,3.1,0,6.3,0,9.4c0,0.7-0.3,1-0.8,1.2c-0.5-0.7-0.3-1.4-0.4-2.2c0-1.3-0.8-1.8-1.9-1.2
		c-1.2,0.6-2.3,1.4-3.4,2.2c-0.4,0.3-0.6,0.8-0.6,1.3c0,0.7-0.1,1.4,0,2c0.5,2-0.7,3.1-2.2,4c-0.5,0.4-1,0.4-0.9-0.5
		c0-0.7-0.1-1.4-0.2-2.1c-0.3-1-1-1.4-1.9-0.7c-1.2,0.9-2.2,2-3.4,3c-0.8,0.7-0.5,1.7-0.6,2.5c-0.4,2.8-0.4,2.8-2.9,4.9
		c0-0.6,0-1.1,0-1.6c0-0.6-0.3-1.2-0.9-1.4c-0.6-0.2-1,0-1.5,0.5c-0.9,0.8-1.9,1.7-2.9,2.4c-0.6,0.4-0.7,0.9-0.7,1.6
		c0,1.3,0,2.6,0,3.9c0,0.6-1.9,2.3-2.5,2.2c-0.3,0-0.3-0.3-0.3-0.5c0-0.5,0-0.9,0-1.4c-0.1-1.1-1.1-1.5-2-0.9c-1,0.7-2,1.5-3,2.2
		c-1.2,0.9-0.8,2.3-0.6,3.4c0.2,1.4,0.1,2.2-1.2,2.9c-0.2,0.1-0.4,0.4-0.8,0.7c0-1,0-1.7,0-2.5c0-0.6-0.1-1.2-0.8-1.5
		c-0.7-0.3-1.2,0-1.6,0.6c-0.2,0.2-0.5,0.4-0.7,0.6c-2.2,1.5-2.8,3-2.1,5.7c0.3,1.2-0.7,1.5-1.6,2.1c0-0.6,0-0.9,0-1.3
		c0-82.4,0-164.7,0-247.1c0-1.2,0.3-1.4,1.4-1.4c92,0,183.9,0,275.9,0c1.2,0,1.5,0.2,1.5,1.5c0,83.2,0,166.4,0,249.5
		C281.1,253.7,281.1,254.1,281.1,254.6z"/>
	<path class="st2" d="M280,280.8c-0.6,0-1,0-1.4,0c-39.1,0-78.3,0-117.4,0c-1.1,0-1.6-0.4-1.9-1.3c-1.2-4.2-2.7-8.3-3.7-12.5
		c-1-4.1-1.9-8.2-2.3-12.4c-0.2-1.9-0.3-3.8-0.3-5.7c0-4.7,0.8-9.3,2.7-13.8c2.1-5.2,5.1-9.9,7.8-14.8c2.1-3.9,4.1-7.8,5.8-11.9
		c1.5-3.7,2.9-7.4,4-11.2c0.2-0.7,0.6-1.4,0.6-2.1c0-1.5,0.8-1.7,2.1-1.7c3,0,6,0.4,9,0.3c0.2,0,0.5-0.1,0.7,0.2
		c1.5,2.6,4,3.7,6.8,4.5c4,1.1,8,1.2,12,0.7c0.8-0.1,1.6-0.1,2.3-0.4c1.4-0.6,1.8,0.1,2.4,1.1c2.6,4.3,5.2,8.5,7.9,12.8
		c3.3,5.4,6.7,10.8,9.9,16.3c1.1,1.8,2.7,2.9,4.1,4.3c1.6,1.6,3.5,3,5.2,4.5c3.2,2.8,6.6,5.6,9.7,8.6c2.5,2.3,5.4,4.3,7.4,7.1
		c0.1,0.1,0.2,0.2,0.2,0.3c4.1,4.1,8.2,8.3,12.2,12.5C270.6,271,275.2,275.9,280,280.8z"/>
	<path class="st2" d="M157.3,193.5c-3.7,3.9-7.1,7.6-10.7,11.2c-1.7,1.8-3.1,3.8-4.8,5.6c-3.8,4-6.3,8.8-8,14
		c-1.3,4-2.1,8.1-2.6,12.3c-0.9,6.2-1.1,12.5-0.9,18.8c0.2,4.3,0.5,8.7,1.1,13c0.5,4.1,1.2,8.2,2.1,12.3c-42.6,0-85.3,0-128.3,0
		c0.8-0.7,1.4-1.3,2-1.9c1.9-1.5,3.5-3.3,5.3-5c6.5-6.4,13-12.9,19.5-19.3c4.3-4.2,8.8-8.3,13.7-11.9c4.3-3.2,8.4-6.6,12.6-9.9
		c1-0.8,2.4-0.9,3.6-1.3c5.6-1.9,11.1-3.7,16.7-5.5c1.1-0.3,2.2-0.5,3.2-1c2-1.1,3.7,0,5.5,0.4c3.5,0.8,7.1,0.9,10.5-0.4
		c1.1-0.4,2.2-1,3-1.9c6.6-6.4,13.1-12.9,19.6-19.4c1.7-1.7,3.5-3.3,5.1-5c1-1.1,2.1-0.3,3.1-0.2c5.2,0.9,10.1,0.4,14.9-1.8
		c1.3-0.6,2.6-1.5,3.6-2.5c0.2-0.2,0.4-0.5,0.8-0.5C151,193.9,154,193.5,157.3,193.5z"/>
	<path class="st3" d="M146.5,280.8c-3.1,0-6.2,0-9.3,0c-0.8,0-1.3-0.1-1.4-1c-0.6-3.3-1.2-6.6-1.8-10c-0.5-3.4-0.7-6.8-1.1-10.2
		c-0.4-4.1-0.4-8.2-0.3-12.3c0.1-3,0.3-6.1,0.7-9.1c0.5-4.1,1.3-8.2,2.5-12.2c1.1-3.8,2.7-7.5,5.1-10.7c1.6-2.1,3.3-4.1,5-6.1
		c2.9-3.3,6-6.4,9-9.5c3.2-3.4,6.2-7,9.6-10.2c0.5-0.4,0.8-1,0.8-1.6c-0.2-2.1,0.4-4.2,0.2-6.3c0-0.7,0.2-0.9,0.9-0.9
		c1.9,0,3,1.1,4.3,2.2c1.5,1.2,1.2,2.8,1.4,4.3c0.6,4.9-0.9,9.4-2.5,14c-1.9,5.5-4.2,10.7-6.9,15.8c-2.3,4.3-4.8,8.4-7,12.7
		c-1.9,3.7-3.5,7.5-4.3,11.6c-0.6,3.7-0.9,7.4-0.6,11.2c0.4,5.4,1.4,10.6,2.7,15.8c0.9,3.8,2.2,7.6,3.4,11.4c0.5,1.4,0.5,1.4-1,1.4
		C152.7,280.8,149.6,280.8,146.5,280.8z"/>
	<path class="st3" d="M59.6,208.7c0.1,0.9,0.3,1.8,0.3,2.7c0.1,1,0.6,1.5,1.5,1.3c1.5-0.3,2.9-0.7,4.4-1.1c0.6-0.2,0.9-0.7,0.9-1.2
		c0-0.9,0.2-1.8-0.1-2.7c-0.3-0.8,0-1.4,0.9-1.5c0.6-0.1,1.2-0.3,1.8-0.4c0.2,1.3,0.3,2.6,0.5,3.9c0.2,1.1,0.8,1.4,1.8,1.1
		c1.1-0.3,2.2-0.6,3.3-0.9c2-0.6,2.4-1.2,1.9-3.2c-0.1-0.6-0.1-1.2-0.2-1.7c-0.2-1.5,1-1,1.6-1.2c0.7-0.2,0.7,0.5,0.7,1
		c0.1,0.6,0.1,1.2,0.3,1.8c0.2,1.3,0.9,1.7,2.2,1.3c1.8-0.6,1.8-0.6,1.8,1.3c-0.1,3.9,0.4,7.8,0.3,11.6c0,1-0.3,1.4-1.2,1.6
		c-7.8,2.5-15.6,5.1-23.4,7.5c-2,0.6-3.4,2.1-4.9,3.3c-3.2,2.4-6.3,4.9-9.5,7.4c-3.8,3-7.7,5.9-11.1,9.3c-6.7,6.7-13.4,13.4-20.3,20
		c-3.4,3.3-6.7,6.6-10.1,9.9c-0.2,0.2-0.3,0.3-0.7,0.6c0-0.6,0-1,0-1.4c0-7.4,0-14.8,0-22.2c0-1.5,0.6-2.3,1.7-3.1
		c0.3-0.2,0.5-0.4,0.7-0.6c1.8-1.1,1.6-2.8,1.3-4.5c-0.2-1.1-0.2-1.3,1.1-2.2c0,0.9,0,1.8,0,2.6c0.1,1.2,1.1,1.7,2,1
		c1.4-1,2.7-2.1,3.9-3.3c1-1,0.5-2.4,0.3-3.5c-0.2-1.2,0.1-1.8,1.1-2.4c0.2,0.6,0.4,1.1,0.4,1.8c0.1,1.2,1,1.7,1.9,1
		c1.4-0.9,2.7-1.8,4-2.8c0.6-0.4,1-1,0.9-1.8c-0.1-1,0.1-2.1,0-3.1c-0.2-1.3,0.4-2.1,1.7-2.6c0,0.7,0,1.3,0,2c0,0.5,0.2,1,0.8,1.2
		c0.5,0.2,0.9,0,1.3-0.3c1.5-1.4,2.9-2.9,4.4-4.4c0.6-0.6,0.5-1.8,0.6-2.7c0.1-1.3,0.1-2.8,1.7-3.5c0.2,0.7,0.4,1.4,0.4,2.1
		c0,0.7,0.2,1.3,0.8,1.6c0.6,0.3,1-0.1,1.5-0.5c1.4-1,2.7-2.1,4.1-3.1c0.5-0.4,0.8-0.9,0.7-1.6c-0.1-0.9,0.1-1.8,0-2.7
		c-0.2-1.2,0.4-1.9,1.6-2.2c0.1,0.8,0.3,1.6,0.4,2.5c0.1,1.1,1.1,1.6,2,0.9c1.3-1,2.8-1.7,4.1-2.8c0.8-0.7,1.1-1.4,0.9-2.3
		c-0.1-0.6-0.1-1.3-0.2-1.9c-0.3-1.5,0.7-2.1,1.7-2.7c0.5-0.3,0.7-0.2,0.7,0.4c0,1,0.1,1.9,0.2,2.9c0.1,1,1.1,1.5,2,0.9
		c1.3-0.9,2.6-1.9,3.9-2.8c0.5-0.4,0.9-0.8,0.6-1.7c-0.3-1,0.1-2.1-0.3-3.1c-0.1-0.4,0.4-0.5,0.6-0.6C58.4,209,59,208.8,59.6,208.7z
		"/>
	<path class="st3" d="M255.9,223.5c2.2,0.9,2,2.8,1.7,4.6c-0.3,1.7,0.1,3.4-0.3,5c-0.1,0.4,0.1,1,0.6,1.3c1.8,1.3,3.2,3,4.7,4.5
		c0.5,0.5,1,0.8,1.7,0.6c0.8-0.2,0.9-0.9,1-1.5c0.2-1.7,0.4-3.4,0.5-5.1c0.1,0,0.2,0,0.2,0.1c2.9,1.7,1.7,4.5,1.5,6.9
		c-0.1,2.2-0.4,4.2,1.6,5.8c1.2,1,2.2,2.3,3.3,3.5c0.4,0.5,1,0.9,1.6,0.6c0.7-0.3,0.8-0.9,0.9-1.6c0.1-1.5,0.3-3,0.5-4.6
		c1.7,1.3,2.7,2.6,2.1,4.9c-0.4,1.8-0.2,3.7-0.3,5.5c0,0.6,0.3,0.9,0.7,1.2c0.7,0.5,1.2,1.2,1.9,1.6c1.1,0.6,1.3,1.5,1.3,2.6
		c0,6.2,0,12.4,0,18.7c-0.1,0-0.3,0-0.3-0.1c-4.9-4.8-9.6-9.8-14.4-14.8c-2-2.1-4.1-4-6-6.1c-2.8-3-5.6-5.9-8.5-8.7
		c-3.2-3-6.5-5.7-9.7-8.6c-1.3-1.2-2.7-2.3-4-3.6c-2.5-2.3-5-4.5-7.5-6.8c-1.7-1.6-2.6-3.8-3.8-5.7c-3.3-5.3-6.6-10.7-9.8-16
		c-1.8-3-3.7-6-5.5-9c-0.2-0.3-0.4-0.6-0.3-0.8c0.8-5.5,0.1-11.1,0.3-16.6c0-0.4-0.3-1.1,0.2-1.3c0.5-0.2,0.6,0.6,0.9,0.9
		c0.9,1.2,1.6,2.5,2.5,3.7c0.4,0.6,0.9,1.4,1.8,1.1c0.9-0.3,0.9-1.1,1-1.9c0.1-1.5,0.3-3.1,0.5-4.9c0.7,1.3,1.6,2.1,1.4,3.7
		c-0.3,2,0.1,4-0.3,6c-0.1,0.7,0.1,1.3,0.4,1.9c1,2.1,2,4.2,3,6.3c0.3,0.7,0.8,1.4,1.7,1.2c0.9-0.2,1-1,1.1-1.9
		c0.1-1.9,0.2-3.8,0.4-5.9c1.4,1.7,1.8,3.4,1.4,5.4c-0.3,1.3-0.1,2.6-0.3,4c-0.1,0.7,0,1.4-0.2,2.1c-0.4,1.4,0.5,2.4,1.2,3.4
		c1.1,1.6,2.3,3.1,3.4,4.7c0.4,0.6,1,0.9,1.7,0.8c0.6-0.1,0.7-0.7,0.8-1.3c0.1-1.9,0.4-3.8,0.5-5.8c0,0,0.1,0,0.1,0
		c3,2,2.3,4.9,2,7.7c-0.1,1.1-0.1,2.2,0,3.3c0,0.4,0.2,0.8,0.5,1c1.8,1.4,3.7,2.9,5.5,4.3c0.4,0.3,0.9,0.6,1.4,0.3
		c0.5-0.3,0.7-0.8,0.8-1.4c0.2-1.7,0.1-3.4,0.5-5.1c0.9,0.4,1.6,1.3,2.5,1.9c0.4,0.3,0.6,0.6,0.5,1.1c-0.3,2.2-0.4,4.5-0.8,6.7
		c-0.3,1.6,0.6,2.2,1.5,3c1.2,1.1,2.6,2.1,3.9,3.2c0.6,0.5,1.2,0.7,1.8,0.5c0.7-0.3,0.6-1,0.7-1.6
		C255.7,226.8,255.4,225.1,255.9,223.5z"/>
	<path class="st3" d="M145.6,175.7c0,5-0.1,10.1,0,15.1c0,1.4-0.6,2.2-1.6,2.9c-2.2,1.5-4.8,2.2-7.4,2.6c-3,0.5-6,0.1-9.1-0.4
		c-0.9-0.1-0.9-0.5-0.9-1.1c0-3.9,0-7.8,0.2-11.8c0.1-2.9-0.1-3.2-2.9-4c-1.3-0.4-1.6-0.9-1.6-2.2c0-5.8,0.4-11.5,0.3-17.3
		c0-0.7,0-1,0.9-0.7c4.9,1.3,10,1.4,15,1.2c2-0.1,4-0.3,6-0.8c1.1-0.2,1,0.2,1,0.9C145.6,165.3,145.6,170.5,145.6,175.7z"/>
	<path class="st3" d="M209.3,169.7c-0.3,7.5-0.2,15-0.2,22.5c0,1-0.3,1.9-0.2,2.9c0,0.7-0.5,0.9-1,1c-5.4,1.4-10.9,1.4-16.2-0.5
		c-2.8-1-4.5-2.7-4.2-5.8c0.3-3.5,0.1-7.1,0.3-10.6c0.2-2.5,0-5,0.2-7.5c0.3-2.7,0.1-5.5,0.2-8.2c0-0.9,0.4-1.1,1.2-0.9
		c4.5,1.4,9.2,1.7,13.9,1.5c1.7-0.1,3.5-0.3,5.2-0.7c1-0.2,1,0.1,1,0.9C209.3,166.1,209.3,167.9,209.3,169.7z"/>
	<path class="st3" d="M98.9,196.5c-1.8-2.6-3.5-5.1-5.3-7.7c-1-1.4-1.9-1.4-2.8,0c-1.2,2-2.5,3.9-3.8,5.9c-0.2,0.4-0.6,0.7-1,0.6
		c-0.7,0-0.2-0.6-0.4-0.9c-0.1-0.2-0.2-0.5-0.2-0.8c0-4.4,0.1-8.8-0.3-13.3c-0.1-0.7,0.2-1.2,0.7-1.7c2.9-3,5.9-5.9,8.7-9
		c1.1-1.2,2.2-2.3,3.3-3.5c0.4-0.4,0.7-0.5,1.3-0.2c2.7,1.4,5.4,2.8,8.2,4.1c0.5,0.3,0.7,0.5,0.7,1.1c0,5.4,0,10.8,0,16.2
		c0,0.6-0.2,0.9-0.6,1.3c-1.5,1.3-2.9,2.8-4.4,4.1C101.7,194,100.5,195.4,98.9,196.5z"/>
	<path class="st4" d="M131.1,121.8c-6-0.2-11.9-0.3-17.9-0.2c-0.9,0-1-0.4-0.8-1.1c0.9-4.3,1.9-8.7,2.8-13c0.1-0.4,0.2-0.9,0.8-0.8
		c3,0.3,6.1,0,9.1,0.5c0.2,0,0.3,0,0.5,0c3.4,0.1,6.9,0.2,10.3,0.2c1,0,1.9,0.4,2.9,0.3c0.6-0.1,0.5,0.4,0.4,0.7
		c-0.8,4.3-1.7,8.6-2.5,12.9c-0.1,0.6-0.4,0.6-0.8,0.6C134.3,121.8,132.7,121.8,131.1,121.8z"/>
	<path class="st4" d="M66,168.7c2.2-1.8,4.2-3.6,6.3-5.3c2.1-1.8,4.3-3.5,6.4-5.2c0.8-0.7,1.7-1.3,2.5-2.1c0.5-0.4,0.8-0.4,1.3-0.1
		c4.4,2.7,8.8,5.4,13.2,8c0.6,0.4,0.5,0.5,0.2,1c-0.2,0.3-0.5,0.6-0.8,0.9c-3.1,3.2-6.2,6.3-9.2,9.6c-2.1,2.2-2,2.3-4.6,0.9
		c-4.9-2.4-9.8-4.9-14.7-7.3C66.5,168.9,66.3,168.8,66,168.7z"/>
	<path class="st3" d="M166.7,176.3c5.9,0,11.8,0,17.7,0c0.8,0,1.4,0,0.9,1.1c-0.1,0.3-0.1,0.8-0.1,1.2c0.2,4-0.4,8-0.2,12
		c0,0.6-0.2,0.9-0.9,0.9c-3-0.2-5.9-0.3-8.9-0.2c-0.4,0-0.6-0.1-0.7-0.6c-0.1-0.5-0.2-1-0.2-1.5c0-1.9,0-3.7-0.2-5.6
		c-0.1-0.8-0.7-1.2-1.1-1.7c-1.6-1.8-3.5-3.3-6.1-3.6c-1.9-0.2-3.5,0.5-5.1,1.5c-1.3,0.9-2.2,2.1-3.2,3.2c-0.3,0.4-0.4,0.9-0.4,1.4
		c0,2,0,4,0,6c0,0.5-0.1,0.9-0.8,0.9c-2.9-0.1-5.7,0-8.6,0.2c-0.8,0.1-1.1-0.1-1.1-1c0-4.4,0-8.7,0-13.1c0-0.9,0.3-1,1.1-1
		C154.9,176.3,160.8,176.3,166.7,176.3z"/>
	<path class="st3" d="M124.4,184c-0.2,3.5,0,7-0.1,10.5c-0.1,2.2-1.2,3.3-2.5,4.6c-2.7,2.7-5.3,5.5-8.1,8.1c-4.2,3.9-8.1,8-12.2,12
		c-0.2,0.2-0.3,0.3-0.7,0.6c0-2.3,0-4.3,0-6.4c0-2.2,0-4.4,0-6.6c0-0.6,0.1-1.1,0.6-1.4c2.2-1.6,3.9-3.7,5.9-5.5
		c4.3-3.9,8.4-8,12.6-12c1.4-1.3,2.8-2.7,4.2-4C124.2,183.9,124.3,183.9,124.4,184z"/>
	<path class="st4" d="M112.6,108c-0.5,2.4-1,4.8-1.5,7.2c-0.1,0.6-0.8,0.8-1.3,1.1c-4.6,2.8-9.2,5.4-13.7,8.2
		c-0.8,0.5-0.9,0.1-1.1-0.4c-1.3-3.3-2.6-6.6-3.9-10c-0.3-0.7-1-1.5-0.7-2.2c0.3-0.6,1.2-0.9,1.9-1.3c3-1.9,6-3.9,9-5.8
		c1.9-1.2,3.7-2.4,5.5-3.7c0.6-0.4,1-0.4,1.5,0.2c1.3,1.9,2.7,3.8,4,5.6C112.6,107.3,112.7,107.6,112.6,108z"/>
	<path class="st4" d="M120.7,155c3.5-4.7,7.1-9.4,10.6-14.1c0.8-1,1.5-2.1,2.3-3.1c0.3-0.3,0.5-0.8,1,0c2.2,3.1,4.3,6.2,6.7,9.1
		c2.1,2.7,4,5.5,6.1,8.2c0.4,0.5,0.7,0.9-0.3,1.1c-1.7,0.4-3.4,0.7-5.2,0.9c-3,0.3-5.9,0.6-8.9,0.4c-3.3-0.2-6.7-0.4-9.9-1.6
		C122.2,155.7,121.4,155.3,120.7,155z"/>
	<path class="st4" d="M187.1,159.4c1.1-1.8,2.2-3.7,3.4-5.5c2.9-4.6,5.8-9.3,8.6-13.9c0.5-0.8,0.6-0.8,1.1,0
		c3.1,5.5,6.2,11.1,9.3,16.6c0.6,1,1.1,2,1.6,3c0.2,0.4,0.3,0.5-0.3,0.7c-2.2,0.8-4.5,1.2-6.9,1.3c-0.9,0-1.8,0.3-2.8,0.3
		C196.4,161.8,191.7,161.4,187.1,159.4z"/>
	<path class="st4" d="M93.9,79.6c0.5,0.2,1.2,0.5,1.9,0.9c3.5,1.7,7,3.4,10.5,5.1c0.8,0.4,0.9,0.8,0.6,1.5
		c-1.8,4.5-3.7,9.1-5.5,13.6c-0.2,0.6-0.5,0.8-1.2,0.5c-4.4-2.1-8.8-4.1-13.3-6.2c-0.5-0.2-0.5-0.5-0.3-0.9c1.3-2.8,2.6-5.6,3.9-8.4
		c0.8-1.9,1.7-3.7,2.5-5.5C93.2,79.9,93.2,79.4,93.9,79.6z"/>
	<path class="st4" d="M71,161.3c0,0.2-0.3,0.4-0.5,0.6c-2.4,2-4.8,3.9-7.3,5.9c-0.1,0.1-0.3,0.2-0.3,0.4c-0.1,1.9-1.8,1.5-2.9,2
		c-0.4,0.2-0.9,0.1-1.2,0.3c-1.2,0.7-1.4,0-1.7-0.9c-1.7-4.9-3.4-9.8-5.1-14.6c-0.1-0.4-0.1-0.6,0.3-0.8c4.3-2.2,8.6-4.4,12.8-6.5
		c0.1,0,0.3-0.5,0.6,0.1c1.7,4.4,3.4,8.8,5.2,13.2C70.9,161,70.9,161.1,71,161.3z"/>
	<path class="st4" d="M166.6,173.9c-5.9,0-11.7,0-17.6,0c-0.9,0-1.1-0.2-1.1-1.1c0.1-1.5,0.1-2.9,0-4.4c0-0.7,0.1-0.9,0.9-0.9
		c10.5,0,21.1,0,31.6,0c0.5,0,0.9,0.2,1.2,0.5c1.2,1.5,2.4,2.9,3.6,4.4c0.3,0.4,0.2,0.8,0.1,1.2c-0.1,0.5-0.6,0.2-0.9,0.2
		C178.6,173.9,172.6,173.9,166.6,173.9z"/>
	<path class="st3" d="M98.4,203.4c0,0.5,0,0.9,0,1.3c0,5.4,0,10.8,0,16.1c0,0.9-0.3,1.3-1.1,1.7c-3.6,1.5-7.1,1.2-10.7,0.1
		c-0.6-0.2-0.8-0.5-0.7-1c0-0.4,0-0.7,0-1.1c0.2-5.3-0.2-10.6-0.3-15.9c0-1,0.1-1.3,1.2-0.9c3.2,0.9,6.4,1.3,9.7,0.4
		C97.1,204,97.6,203.6,98.4,203.4z"/>
	<path class="st3" d="M84.9,135.5c-2.1-0.3-2.1-0.3-2.1-2.3c0-3.3,0-6.6,0-9.9c0-0.9,0.2-1.5,0.7-2.3c1.7-2.4,3.2-4.8,4.9-7.3
		c1.7,4.3,3.3,8.5,5,12.8c0.2,0.6,0.4,1.2,0.3,1.8c-0.2,3.1,0.3,6.2,0.3,9.3c0,1.1-0.4,1.1-1.2,0.8c-2.4-0.9-2.4-0.8-2.4-3.4
		c0-1.7,0-3.4,0-5.1c0-0.8-0.3-1.3-1-1.5c-0.9-0.4-1.9-0.8-2.8-1.2c-0.9-0.3-1.3,0-1.5,1c-0.3,2.2-0.2,4.4-0.2,6.6
		C85,135.2,85,135.3,84.9,135.5z"/>
	<path class="st3" d="M124.2,125.8c-1.6-0.1-3.5,0.1-5.3-0.2c-2-0.3-2.5,0.3-2.5,2.2c0,1.6,0,3.1,0,4.7c0,0.8-0.2,1.1-1,1.1
		c-3.2,0-3.2,0-3.2-3.2c0-1.7,0.2-3.4-0.2-5.2c-0.2-0.9,0-1.4,1.2-1.4c2.5,0.1,5.1-0.1,7.7,0.1c4.8,0.4,9.6,0.1,14.5,0.2
		c0.8,0,1,0.2,1,1c0,2.6,0,5.2,0,7.8c0,0.7-0.2,1-0.9,0.9c-1.4,0-2.8,0-4.1,0c-0.7,0-0.9-0.2-0.9-0.9c0-1.8,0-3.5,0-5.3
		c0-1.3-0.5-1.8-1.8-1.8C127.1,125.8,125.8,125.8,124.2,125.8z"/>
	<path class="st3" d="M110.2,119c0,0.3,0,0.5,0,0.6c-0.8,2.8-0.9,5.7-0.5,8.6c0.2,1.3-0.1,2.3-1.5,3.1c-4,2.3-7.8,4.9-11.8,7.3
		c-0.4-0.3-0.2-0.6-0.2-0.9c0.1-3.1-0.2-6.2-0.3-9.3c0-0.8,0.3-1.3,1-1.7c4-2.4,8-4.8,12-7.2C109.3,119.4,109.7,119.2,110.2,119z"/>
	<path class="st3" d="M68.7,184.6c-2.3-0.7-2.7-1.1-2.3-3.9c0.3-2.6,0.1-5.1,0.2-7.6c0-1.4,0-1.4,1.2-0.8c4.7,2.4,9.4,4.7,14.2,7.1
		c0.4,0.2,1,0.3,1,1c-0.1,4.4,0.5,8.8,0.2,13.2c-1.1-0.6-2.1-1.2-3.2-1.9c-0.5-0.3-0.5-0.8-0.5-1.3c0-2.9,0-5.7,0-8.6
		c0-0.8-0.2-1.4-1-1.8c-2.5-1.3-5-2.7-7.5-4.1c-0.8-0.5-1.6-0.1-1.9,0.8c-0.2,0.5-0.2,0.9-0.2,1.4C68.7,180.3,68.7,182.5,68.7,184.6
		z"/>
	<path class="st4" d="M62.2,210.2c-0.4-0.9-0.3-1.8-0.4-2.7c-0.1-1.1-0.8-1.6-1.9-1.2c-1.4,0.4-2.8,0.8-4.2,1.3
		c-0.6,0.2-0.8,0.6-0.8,1.2c0.1,1.2-0.1,2.3,0.2,3.6c-2.5-2.1-5.5-3.5-8.2-5.3c2.2-2.1,4.2-4.4,6.6-6.3c0.5-0.4,0.8-0.3,1.2-0.1
		c3,1.6,6.1,3.3,9.1,4.9c0.4,0.2,0.5,0.4,0.5,0.8c0,0.3,0,0.6,0,0.9C64.4,209.7,64.4,209.7,62.2,210.2z"/>
	<path class="st3" d="M86.6,97.5c4.2,1.9,8.2,3.8,12.5,5.8c-2.3,1.5-4.4,2.9-6.6,4.3c-1.5,0.9-2.9,1.9-4.5,2.7
		c-0.7,0.3-1.1,1.4-1.9,2.4C86.1,107.5,86.4,102.6,86.6,97.5z"/>
	<path class="st4" d="M100.9,202.6c-0.3-1.4,0.1-2.6-0.3-3.7c-0.1-0.2,0.1-0.4,0.3-0.6c2.2-2.1,4.4-4.2,6.7-6.2
		c0.2-0.2,0.5-0.4,0.7-0.6c3.3-3.1,6.6-6.3,9.9-9.4c0.5-0.5,1.2-0.9,1.7-1.5c0.5-0.5,1-0.2,1.5,0c2.1,0.7,2.1,0.7,0.6,2.2
		c-3.3,3.2-6.6,6.4-9.9,9.5c-2.9,2.7-5.9,5.4-8.7,8.2C102.5,201.2,101.6,201.6,100.9,202.6z"/>
	<path class="st3" d="M57.6,179.1c-0.1-1.6,0.1-3-0.2-4.5c-0.2-0.7-0.1-1.4,1-1.6c1.7-0.3,3.3-0.8,4.9-1.3c0.9-0.3,0.9,0.1,0.9,0.7
		c0.1,3.8-0.4,7.6-0.2,11.4c0,0.6-0.3,0.8-0.7,0.9c-1.6,0.6-3.2,1.2-4.8,1.8c-0.6,0.2-0.7-0.2-0.6-0.6
		C58,183.6,57.4,181.3,57.6,179.1z"/>
	<path class="st3" d="M48.1,173.8c-0.8-5.6,1.2-10.6,2.4-15.8c1.4,4.1,2.8,8.1,4.2,12.2c0.2,0.7,0.3,1.5,0.3,2.3
		c0.1,2.9,0.3,5.7,0.2,8.6c0,2,0.4,4,0.2,6.1c-1.1-0.1-1.2-0.1-1.2-1.1c0-2.9,0-5.8,0-8.7c0-1.3-0.3-2.2-1.7-2.5
		c-0.7-0.2-1.3-0.5-1.9-0.8C49.8,173.5,49,173.3,48.1,173.8z"/>
	<path class="st4" d="M85.9,201c2.1-3.3,4.1-6.5,6.2-9.7c0.6,0.2,0.9,0.9,1.2,1.4c1.6,2.3,3.1,4.6,4.7,6.8c0.5,0.6,0.3,1-0.3,1.4
		c-1.2,0.9-2.6,1.3-4.1,1.4C91.1,202.4,88.5,201.8,85.9,201z"/>
	<path class="st3" d="M112.8,103.6c-1.3-1.8-2.4-3.3-3.5-4.8c-0.7-1-1.5-1.1-2.5-0.5c-0.8,0.5-1.6,1-2.6,1.7c1.6-3.9,3-7.6,4.5-11.4
		c1.6,2.7,2.6,5.4,3.9,7.9c0.3,0.6,0.1,1.3,0.1,2C112.8,100.1,112.8,101.7,112.8,103.6z"/>
	<path class="st4" d="M77,190c-1.8-1.1-3.4-2.1-5-3.1c-0.3-0.2-0.7-0.4-0.6-0.9c0-2.3,0-4.5,0-6.9c2,0.7,3.5,1.9,5.3,2.7
		c0.4,0.2,0.3,0.6,0.3,0.9C77,185.1,77,187.4,77,190z"/>
	<path class="st4" d="M124.4,130.9c0,0,0-0.1,0-0.1c0-2.7,0-2.7,2.7-2.6c0.6,0,0.9,0.2,0.9,0.8c-0.1,1.4,0,2.7,0,4.1
		c0,0.5-0.1,0.7-0.7,0.8C124.4,134,124.4,134,124.4,130.9z"/>
	<path class="st4" d="M121.8,131.1c0,0.2,0,0.4,0,0.6c0,2.3,0,2.3-2.3,2.2c-0.5,0-0.8-0.1-0.8-0.7c0-1.4,0-2.9,0-4.3
		c0-0.5,0.2-0.6,0.7-0.6C121.8,128,121.8,128,121.8,131.1z"/>
	<path class="st4" d="M51.9,185.9c-1.1,0-1.5-0.5-1.4-1.5c0.2-2.3-0.3-4.6-0.2-6.9c0-0.3-0.3-1,0.3-0.9c0.5,0,1.3,0.1,1.3,1
		C51.9,180.4,51.9,183.1,51.9,185.9z"/>
	<path class="st3" d="M139.7,118.9c0,1.4,0,2.8,0,4.2c0,1.7-0.1,3.4,0.2,5c0.3,1.4-0.1,2.7-1.4,3.7
		C138.6,127.4,138.1,123.1,139.7,118.9z"/>
	<path class="st3" d="M160.7,189.7c0-1.9-0.2-3.5,0.1-5c0.2-1.2,1.2-1.9,2.3-2.7c-0.4,1.9-0.1,3.6-0.3,5.3
		C162.7,188.2,161.6,188.7,160.7,189.7z"/>
	<path class="st4" d="M87.1,130c1.2,0,1.5,0.6,1.4,1.6c-0.1,1.7,0,3.4,0,5.2c-1.1,0-1.4-0.5-1.5-1.5C86.9,133.5,87.2,131.8,87.1,130
		z"/>
	<path class="st3" d="M48.9,211.1c-0.6,0.6-1.1,1-1.8,1.2c0-0.1-0.1-0.2-0.1-0.3c0.1-0.6-0.3-1.4,0.2-1.8
		C47.5,210.1,48.2,210.7,48.9,211.1z"/>
	<path class="st0" d="M226.2,126.7c-1.6,0-2.9,0-4.3,0c-1.9-0.1-3.8,0.2-5.6-0.2c-1.8-0.4-3.3,0.5-4.8,1.4
		c-3.4,2.2-6.8,4.2-10.2,6.4c-1.2,0.8-2.2,0.4-3.3,0.2c-4-0.9-8.1-1.9-12.1-2.8c-1.2-0.2-1.6-0.9-1.6-1.9c0-3.8,0-7.6,0-11.4
		c0-0.6,0.3-1.2,0.6-1.8c1.7-3.4,3.4-6.9,5.1-10.3c0.3-0.6,0.7-1,1.4-1.1c0.9-0.1,1.4-1,2.2-1.4c-1.4-0.4-2.8-0.8-4.2-1.2
		c-4.8-1.3-9.6-2.5-14.4-3.8c-0.8-0.2-1.1-0.8-1.1-1.6c0-0.7-0.1-1-0.9-1.1c-3.8-0.5-7.7-1.1-11.5-1.6c-1.4-0.2-1.8-0.6-1.8-2.1
		c0-0.2,0-0.5,0-0.7c-0.1-1,0.4-2.3-0.2-2.9c-0.6-0.6-1.9-0.5-2.9-0.6c-2.7-0.5-5.3-0.9-8-1.5c-0.4-0.1-1.1-0.4-1.2-0.6
		c-0.2-1.6-1.7-1.4-2.6-1.6c-4-0.9-8.1-1.6-12.1-2.4c-1.1-0.2-1.7-0.6-1.6-1.9c0.1-3.8,0.1-7.6,0-11.4c0-0.9,0.2-1.7,0.7-2.5
		c2-3.5,3.9-7.1,5.9-10.6c0.9-1.6,2.3-2.8,3.8-3.8c0.7-0.6,1.5-1.2,2.1-1.8c1.6-1.6,3.2-3.2,4.8-4.8c1.1-1.1,2.1-0.6,2.8,0.2
		c1.6,2.2,3.3,4.3,5,6.4c0.4,0.5,0.7,0.7,1.3,0.1c2.2-2,4.5-4.1,6.7-6.2c1.2-1.1,2.4-2.3,3.7-3.5c1-0.9,1.8-0.7,2.4,0.5
		c1.4,2.9,2.8,5.7,4.2,8.6c1.4-1.2,2.7-2.4,4-3.6c1-0.9,1.6-0.8,2.2,0.3c3.4,6,6.8,11.9,10.3,17.9c0.4,0.8,0.4,1.5-0.3,2
		c-1.3,0.8-1.1,2-1.1,3.2c0,0.4,0.1,0.6,0.5,0.6c2.3,0.2,4.6,0.5,6.9,0.7c2.1,0.2,4.2,0.5,6.3,0.7c0.6,0.1,1.1,0.5,1,1.1
		c-0.2,2.3,0.3,4.6,0.3,6.9c0.1,4.1,0.4,8.1,0.5,12.2c0,0.9,0.1,1.8,0.2,2.7c1.1-0.2,1.8-1,2.7-1.5c1.2-0.8,1.9-0.7,2.5,0.6
		c1.8,3.2,3.6,6.4,5.3,9.7c0.4,0.7,0.8,0.6,1.4,0.6c7.5,0,14.9,0,22.4,0c1.9,0,2.3,0.4,2.3,2.3c-0.1,3.6,0.5,7.1,0.2,10.7
		c-0.1,0.7,0.8,1.2,1.3,1.5c2.3,1.5,3.5,3.8,4.7,6.1c1.4,2.6,2.8,5.2,4.2,7.9c0.3,0.6,0.4,1.2,0.3,1.9c-0.1,1.3-0.1,2.6,0,3.9
		c0.1,2.4-0.3,4.7-0.2,7c0,0.7-0.4,1.1-1,1.3c-4.5,2.1-9,4.2-13.4,6.3c-1.1,0.5-1.9-0.4-2.5-1c-3.1-2.8-6-5.8-9.1-8.7
		c-0.4-0.4-0.6-0.8-0.7-1.3c-0.3-4.9-0.2-9.9-0.2-14.8C225.4,127.9,225.8,127.5,226.2,126.7z"/>
	<path class="st0" d="M74.1,129.5c0,1.3,0,2.7,0,4c0,0.9-0.3,1.5-1,1.9c-3.6,2-7.2,4.1-10.8,6.1c-0.5,0.3-1.1,0.4-1.7-0.1
		c-3.9-2.9-7.9-5.7-11.9-8.5c-1.1-0.8-1.8-1.4-1.6-3c0.3-2.3,0.5-4.6,0.6-6.9c0-0.5,0-0.9-0.6-1.3c-0.8-0.5-0.9-1.3-0.3-2.1
		c2.4-3.3,4.7-6.7,7-10c0.5-0.7,1.3-0.8,2.1-0.4c3.9,2.3,7.8,4.6,11.8,6.9c1.3,0.7,1.9,2.1,2.8,3.3c1,1.3,1.9,2.6,2.9,3.9
		c0.4,0.6,0.7,1.2,0.7,2C74.1,126.8,74.1,128.1,74.1,129.5z"/>
	<path class="st0" d="M195.8,263.5c-0.2,1-0.3,1.9-0.6,2.8c-0.2,0.8-0.7,1.4-1.5,1.5c-0.9,0.1-1.5-0.3-2-1.1
		c-1.3-2.4-0.7-4.8,1.7-6.1c0.4-0.2,0.3-0.4,0.3-0.7c-0.1-0.5,0.1-0.8,0.3-1.2c0.2-0.5,0.5-1,1.2-1c0.6,0,1.1,0.2,1.4,0.8
		c1.1,1.9,1.5,4,1.8,6.1c0.3,1.9,0.4,2,2.3,2c1.3,0,2.5-0.2,3.8-0.4c0.6-0.1,1.3-0.2,1.8,0.4c0.5,0.6,0.4,1.6-0.4,1.8
		c-2.4,0.6-4.8,0.9-7.3,0.5c-1.9-0.3-2.3-1.9-2.6-3.4C196,264.8,195.9,264.2,195.8,263.5z"/>
	<path class="st0" d="M185.1,229.8c0.6-1.4,1.3-2.3,2.5-2.8c0.7-0.3,1.1,0,1.5,0.5c0.4,0.4,0.4,1.1-0.1,1.3
		c-1.4,0.8-1.8,2.4-2.7,3.5c-0.1,0.2-0.2,0.4-0.4,0.5c-0.5,0.3-1.2,0.6-1.7,0.1c-0.9-0.8-2.9-0.2-2.7-2.3c0.1-1.2,0-2.5,0.2-3.7
		c0.1-0.6,0.1-1.2,1-1.4c0.9-0.1,1.4,0.3,1.6,1.1C184.6,227.6,184.8,228.6,185.1,229.8z"/>
	<path class="st0" d="M107.6,249.3c0,0.8,0,1.4,0,2c-0.1,0.8-0.3,1.5-1.2,1.5c-1,0.1-1.3-0.7-1.3-1.4c0-0.8-0.3-1-1-0.9
		c-0.9,0-1.9,0-2.8,0c-0.7,0-1.4-0.2-1.4-1.2c0-1,0.5-1.2,1.4-1.2c1.1,0,2.1-0.1,3.2,0c0.9,0.1,1-0.4,0.9-1
		c-0.1-0.7-0.4-1.4-0.6-2.1c-0.3-0.9-0.4-1.9-0.3-2.9c0-0.7,0.5-1.2,1.1-1.3c0.7-0.1,1.2,0.3,1.5,0.9c0.2,0.6,0.5,1.3,0.5,2
		c-0.2,2.5,1.4,3.5,3.3,4.4c1.1,0.5,2.3,0.7,3.5,0.7c0.8,0,1.5,0.1,1.5,1.2c0,1.1-0.7,1.2-1.6,1.2c-2,0.1-3.9-0.6-5.6-1.5
		C108.2,249.5,108,249.4,107.6,249.3z"/>
	<path class="st0" d="M51.5,266.6c0.7-1.3,0.8-2.6,0.9-3.8c0.1-0.6-0.1-1.2,0-1.8c0.1-0.6,0.3-1.3,1.2-1.3c0.9,0,1.3,0.6,1.3,1.3
		c0.1,0.9,0.1,1.8-0.1,2.7c-0.3,1.3,0.1,1.9,1.4,1.9c0.8,0,1.6,0.1,2.4-0.1c0.6-0.2,1.3,0.2,1.5,1c0.2,1-0.5,1.5-1.3,1.5
		c-1.5,0.1-3,0.3-4.4-0.2c-0.5-0.2-0.7-0.1-1,0.4c-0.9,1.3-2.1,1.5-3.4,0.6c-0.1,0-0.1-0.1-0.2-0.1c-0.7-0.3-1.7-0.3-1.9-1.2
		c-0.2-0.8,0.2-1.6,0.5-2.3c0.2-0.9,0.1-1.8,0.4-2.6c0.3-0.9,0.8-1.4,1.7-1.1c0.8,0.2,0.9,0.9,0.8,1.7
		C51.1,264,50.5,265.2,51.5,266.6z"/>
	<path class="st0" d="M117.9,216.7c0.4,2.1-1.1,2.8-2.2,3.7c-0.7,0.5-1.5-0.1-2-1.2c-0.3-0.8-0.3-1.6,0.6-1.8
		c1.6-0.4,1.6-1.3,1.2-2.6c-0.2-0.6-0.1-1.3,0.1-2c0.2-0.7,0.6-1,1.2-1.1c0.6-0.1,1,0.2,1.4,0.8c0.8,1.4,1.5,3,3.1,3.8
		c0.5,0.3,1,0.6,1.6,0.5c0.9-0.1,1.2,0.6,1.2,1.2c0,0.7-0.5,1.1-1.3,1.1C120.8,219.2,119.4,218.3,117.9,216.7z"/>
	<path class="st0" d="M127.5,167.9c0-1.1,0-2.1,0-3.2c0-0.7,0.3-1.2,1.1-1.2c0.8-0.1,1.2,0.4,1.2,1.1c0.1,2.3,0.1,4.5,0,6.8
		c0,0.5-0.3,1.1-1.1,1.1c-0.7,0-1.2-0.4-1.2-1.2C127.4,170.2,127.5,169.1,127.5,167.9C127.5,167.9,127.5,167.9,127.5,167.9z"/>
	<path class="st0" d="M194.5,171.2c0,1,0,2,0,2.9c0,0.8-0.4,1.4-1.2,1.4c-0.9,0-1.2-0.6-1.2-1.4c0-2.1,0-4.2,0-6.2
		c0-0.9,0.5-1.3,1.2-1.4c0.8,0,1.1,0.6,1.1,1.4C194.5,169,194.5,170.1,194.5,171.2z"/>
	<path class="st0" d="M181,184.4c0,1.3,0,2.6,0,3.9c0,0.8-0.4,1.4-1.2,1.5c-0.9,0.1-1.2-0.6-1.2-1.5c0-2.7,0-5.4,0-8.1
		c0-0.7,0.1-1.4,1-1.5c1-0.1,1.3,0.6,1.4,1.3C181.1,181.5,181,182.9,181,184.4C181,184.4,181,184.4,181,184.4z"/>
	<path class="st0" d="M153.6,183.5c0,1.4,0,2.7,0,4.1c0,0.8-0.4,1.4-1.2,1.4c-0.8,0-1.1-0.6-1.1-1.3c0-2.8,0-5.6,0-8.4
		c0-0.8,0.4-1.3,1.2-1.3c0.8,0,1.2,0.5,1.2,1.3C153.7,180.7,153.6,182.1,153.6,183.5z"/>
	<path class="st0" d="M89.9,210.3c0-0.9-0.1-1.7,0-2.6c0.1-0.7,0.3-1.4,1.1-1.4c0.8-0.1,1.3,0.4,1.3,1.2c0.2,1.9,0.2,3.7,0,5.6
		c-0.1,0.7-0.4,1.3-1.3,1.2c-0.8-0.1-1.1-0.8-1.2-1.5C89.9,212,89.9,211.1,89.9,210.3z"/>
	<path class="st0" d="M101.3,127.8c-0.5-1.7,0.4-3,2.2-3.8c0.8-0.4,1.5-1,2.2-1.5c0.9-0.6,1.6-0.4,1.8,0.6c0.3,1.5,0.2,3,0.1,4.4
		c0,0.4-0.2,0.8-0.6,1.1c-1.3,0.9-2.6,1.8-4,2.6c-0.9,0.5-1.5,0.2-1.6-0.9C101.2,129.6,101.3,128.8,101.3,127.8z"/>
	<path class="st4" d="M200.2,122.7c-0.3,0-0.4-0.2-0.5-0.4c-1.8-3.7-3.6-7.5-5.4-11.2c-0.4-0.9-0.7-1.8-1.2-2.6
		c-0.5-0.8-0.3-1.1,0.4-1.5c3.6-2.3,7.2-4.6,10.8-6.9c1.4-0.9,2.9-1.8,4.2-2.7c0.4-0.3,0.5-0.2,0.7,0.2c1.8,3.3,3.6,6.5,5.4,9.8
		c0.5,1,1,2,1.6,2.9c0.4,0.5,0.3,0.7-0.1,1c-3.7,2.7-7.5,5.4-11.2,8.2c-1.4,1-2.7,2-4.1,3C200.5,122.5,200.3,122.6,200.2,122.7z"/>
	<path class="st4" d="M201.6,75.3c-1.6,4.7-3.1,9.3-4.7,13.8c-0.2,0.5-0.3,0.8-1.1,0.7c-5.2-0.9-10.4-1.7-15.6-2.6
		c-1.7-0.3-3.5-0.5-5.3-0.8c1.5-2.8,2.9-5.5,4.4-8.2c0.6-1.1,1.1-2.2,1.7-3.3c0.8-1.4,1.4-1.7,2.8-1.4c2,0.4,4,0.5,6,0.7
		c2.6,0.3,5.1,0.7,7.7,0.9C198.9,75.1,200.2,75.5,201.6,75.3z"/>
	<path class="st4" d="M177.5,76.4c-3.2-4.9-6.3-9.7-9.5-14.4c-0.3-0.4-0.4-0.6,0-1c3.6-3.4,7.1-6.7,10.6-10.1c0.6-0.6,0.7,0,0.9,0.3
		c1.5,2.7,3,5.3,4.6,8c1.3,2.4,2.7,4.8,4.1,7.1c0.3,0.4,0.2,0.6-0.1,0.9c-1.1,1.1-2.3,2.2-3.3,3.5c-0.5,0.7-1.4,0.5-2.1,0.3
		c-1.9-0.4-2.3-0.2-3.2,1.4C179,73.7,178.3,74.9,177.5,76.4z"/>
	<path class="st3" d="M172.4,85.9c-0.1-0.8-0.6-1.1-1.2-1.2c-1.6-0.3-3.1-0.6-4.7-0.9c-0.8-0.1-1.5,0.5-1.5,1.5c0,2.1,0,4.2,0,6.2
		c0,0.8-0.3,1-1,0.9c-1.7-0.1-1.9-0.2-1.8-1.9c0.3-5.2,0.2-10.3,0.2-15.5c0-1,0.5-2,0.8-2.9c1-2.8,2-5.6,3-8.4
		c1.3,1.9,2.6,3.7,3.8,5.6c1.9,2.8,3.7,5.7,5.6,8.6c0.4,0.6,0.5,1.1,0.1,1.7C174.7,81.7,173.6,83.8,172.4,85.9z"/>
	<path class="st4" d="M239.6,116.5c-1.2-1.1-2.4-2.2-3.6-3.3c-1.2-1.2-2.1-1.1-2.9,0.4c-0.6,1.2-1.3,2.4-1.9,3.6
		c-0.2,0.5-0.6,0.7-1.1,0.6c-4.3-0.3-8.5-0.2-12.8-0.2c-0.6,0-0.8-0.2-0.7-0.7c0-0.2,0-0.5,0-0.7c-0.2-1.5,0-2.8,1.6-3.7
		c1.3-0.7,1.2-1.4,0.4-2.7c-0.3-0.5-0.6-1-0.9-1.4c0.4-0.3,0.7-0.2,1-0.2c6.6,0,13.1,0,19.7,0c0.9,0,1.1,0.2,1.1,1.1
		C239.5,111.6,239.5,114,239.6,116.5z"/>
	<path class="st3" d="M147.3,75.7c0,2,0,4.1,0,6.1c0,0.6-0.1,0.9-0.9,0.7c-1.2-0.4-2.9-0.1-3.6-1c-0.8-0.9-0.2-2.5-0.2-3.8
		c0-1,0-2,0-2.9c0.1-1.1-0.5-1.6-1.4-1.8c-1.6-0.3-3.2-0.6-4.8-0.9c-0.9-0.1-1.6,0.5-1.6,1.4c0,1.9-0.1,3.8,0.2,5.7
		c0,0.3,0.1,0.8-0.5,0.8c-0.4,0-0.9-0.1-0.9-0.7c0-0.1,0-0.2,0-0.4c0-3.4,0-6.8,0-10.3c0-0.7,0.4-1.3,0.7-1.8
		c1.4-2.5,2.8-5.1,4.1-7.6c0.4-0.7,0.5-0.8,1.2-0.1c2.6,3.1,5,6.2,7.5,9.4c0.3,0.4,0.3,0.7,0.3,1.1
		C147.3,71.6,147.3,73.7,147.3,75.7z"/>
	<path class="st4" d="M237.2,136.3c-1.6-1.3-3.2-2.6-4.8-4c-1.4-1.2-2.7-2.4-4.1-3.6c-0.4-0.3-0.3-0.4-0.1-0.7
		c1.7-3.2,3.4-6.4,5.2-9.7c0.5-0.9,1-1.9,1.6-2.9c1.2,0.8,2,2,3.1,2.9c1.8,1.4,3.3,3.1,5,4.6c0.6,0.5,0.1,0.9-0.1,1.3
		c-1.7,3.6-3.5,7.2-5.3,10.8C237.6,135.5,237.4,135.8,237.2,136.3z"/>
	<path class="st4" d="M161.8,68.8c-1.8-4-3.5-7.9-5.3-11.7c-0.2-0.4-0.1-0.8,0.3-1.2c2.8-2.6,5.6-5.1,8.4-7.7
		c0.9-0.8,1.7-1.7,2.6-2.6c0.6-0.6,1-0.7,1.4,0.2c1,2.2,2,4.4,3.1,6.5c0.3,0.5,0.2,0.8-0.2,1.2c-2.3,2.3-4.5,4.5-7,6.6
		c-0.3,0.2-0.3,0.5-0.4,0.8C163.8,63.5,162.8,66.1,161.8,68.8z"/>
	<path class="st3" d="M151.8,84.8c-0.3,0-0.4-0.1-0.6-0.1c-1.1,0-1.6-0.4-1.5-1.6c0.1-4.5,0-9,0-13.4c0-0.7,0.1-1.3,0.4-1.9
		c1.4-2.7,2.7-5.4,4-8.1c0.2-0.3,0.2-0.7,0.6-0.9c1.2,2.6,2.4,5.2,3.5,7.9c0.7,1.6,1.4,3.2,2.1,4.8c0.1,0.3,0.3,0.6,0.1,1
		c-0.6,1.4-0.5,2.8-0.5,4.3c0,3,0.2,5.9-0.2,8.9c0,0.3,0.1,0.7-0.4,0.7c-0.4,0-0.3-0.4-0.3-0.7c0-2.2-0.1-4.5,0-6.7
		c0-1.1-0.5-1.6-1.5-1.7c-1.4-0.3-2.7-0.5-4.1-0.7c-1.3-0.2-1.8,0.2-1.8,1.6C151.8,80.3,151.8,82.5,151.8,84.8z"/>
	<path class="st3" d="M245.1,125.7c1.1,2,2.1,3.9,3.1,5.8c0.6,1.1,1,2.2,1.7,3.2c0.1,0.2,0.3,0.4,0.2,0.6c-0.1,2.4,0.2,4.8-0.2,7.2
		c-0.2,1,0,2-0.1,3.1c0,0.6-1.6,1.7-2.1,1.5c-0.4-0.1-0.2-0.5-0.2-0.8c0-2.7,0-5.4,0-8.1c0-1.7-0.7-2.1-2.2-1.4
		c-0.9,0.4-1.7,0.9-2.6,1.4c-0.9,0.5-1.1,1.2-1.1,2.1c0,2.8,0,5.5,0,8.3c0,1.1-0.3,1.7-1.3,2.1c-1.8,0.8-1.7,0.8-1.8-1.1
		c-0.1-3.6,0.3-7.2,0.2-10.8c0-0.9,0.6-1.6,1-2.4C241.5,132.9,243.3,129.4,245.1,125.7z"/>
	<path class="st4" d="M148.2,66.1c-2.5-2.8-4.3-5.9-6.8-8.5c-1.2-1.2-1.1-1.4,0.3-2.4c0.5-0.4,1-0.9,1.4-1.4
		c2.2-2.1,4.3-4.4,6.6-6.3c1.3,1.7,2.7,3.4,4,5.1c1.3,1.7,1.4,1.7-0.2,3.1c-0.3,0.3-0.5,0.6-0.7,1C151.3,59.9,149.8,63,148.2,66.1z"
		/>
	<path class="st3" d="M227.8,131.4c2.4,2,4.6,3.9,6.8,5.8c0.3,0.3,0.6,0.5,0.9,0.7c0.8,0.6,1.2,1.3,0.8,2.3
		c-0.2,0.5-0.1,1.1-0.1,1.6c0,3,0,5.9,0,8.9c-0.1,0.1-0.2,0.1-0.3,0.2c-0.7-0.8-1.4-1.6-2.1-2.3c-1.8-1.7-3.4-3.6-5.3-5.1
		c-0.3-0.3-0.5-0.6-0.5-1C228.2,139,227.6,135.3,227.8,131.4z"/>
	<path class="st3" d="M198.4,132c-0.8-0.1-1.5-0.3-2.3-0.4c-0.6-0.1-0.8-0.4-0.8-1.1c0-2.3,0-4.6,0-6.8c0-1.2-0.4-2-1.7-2.2
		c-1.1-0.2-2.2-0.6-3.2-0.9c-1.6-0.4-2.1,0.1-2.1,1.7c0,2.2,0,4.4,0,6.6c0,0.3,0,0.5-0.1,0.8c-1,0-1.4-0.3-1.4-1.4
		c0.1-3.1,0-6.3,0-9.4c0-0.3,0-0.7,0.1-1c1.3-2.6,2.6-5.2,3.9-7.9c0.8,1.3,1.3,2.6,1.9,3.9c1.6,3.5,3.3,6.9,5,10.3
		c0.2,0.3,0.4,0.7,0.4,1C198.1,127.4,198.7,129.7,198.4,132z"/>
	<path class="st3" d="M200.9,131.7c-0.1-1.9,0.1-3.6-0.3-5.2c-0.2-0.7,0.1-1.2,0.8-1.7c4-2.8,7.9-5.8,11.8-8.7
		c0.2-0.2,0.5-0.4,0.8-0.3c0.4,0.1,0.2,0.5,0.2,0.8c0.1,2.1-0.2,4.3,0.2,6.4c0.1,0.3-0.2,0.4-0.4,0.5
		C209.8,126.2,205.4,128.9,200.9,131.7z"/>
	<path class="st3" d="M176.3,92.9c0-1.1,0-2.1,0-3.2c0-0.7,0.3-0.8,0.9-0.7c5.1,0.9,10.2,1.7,15.2,2.5c0.3,0,0.5,0.2,0.8,0.2
		c2.2,0.4,2.2,0.4,2.2,2.6c0.1,2.1,0.2,4.1,0.5,6.2c0.2,1.3,0.1,1.4-1.2,1c-1.4-0.4-2.9-0.7-4.3-1.1c-0.6-0.2-1-0.4-0.9-1.2
		c0.1-1.6,0-3.1,0-4.7c0-1.8-0.1-2-1.8-2.4c-2.3-0.5-4.6-1-6.9-1.3c-1.7-0.3-2.1,0.1-2.1,1.9c0,1.3,0,2.5,0,3.8
		c0,0.7-0.3,0.8-0.9,0.7c-1.1-0.2-1.7-0.7-1.5-1.9C176.4,94.5,176.3,93.7,176.3,92.9z"/>
	<path class="st3" d="M202.3,81.2c-0.2,2.8,0.1,5.3,0.3,7.7c0.2,2.6-0.1,5.2,0.4,7.7c0.2,1-0.2,1.6-1.1,2.1
		c-1.2,0.7-2.4,1.5-3.5,2.2c-0.6-1.9-0.3-3.8-0.6-5.7c-0.2-1.4,0-2.7,0.8-4c1.1-1.9,1.5-4.2,2.2-6.4
		C201.3,83.7,201.5,82.5,202.3,81.2z"/>
	<path class="st3" d="M229.5,120.2c-0.1,0.3-0.1,0.5-0.2,0.6c-1.7,3.6-1.7,3.6-5.7,3.6c-2,0-4,0-6-0.2c-0.6-0.1-0.8-0.3-0.8-0.9
		c0-0.8,0-1.5-0.2-2.3c-0.2-0.7,0-1.1,0.9-1.1C221.6,119.8,225.5,120.2,229.5,120.2z"/>
	<path class="st4" d="M167.3,86.5c2.6,0.4,2.6,0.4,2.6,3c0,1.2,0,2.3,0,3.5c0,0.1,0,0.2,0,0.2c0,0.1,0,0.1-0.2,0.1
		c-2.4-0.4-2.4-0.4-2.4-2.9C167.3,89.1,167.3,87.8,167.3,86.5z"/>
	<path class="st4" d="M156.7,85.8c-2.6-0.4-2.6-0.4-2.6-3c0-1,0-2,0-3.1c0-0.5,0.1-0.7,0.7-0.5c1.9,0.5,1.9,0.4,1.9,2.4
		c0,1.3,0,2.6,0,3.9C156.7,85.5,156.7,85.6,156.7,85.8z"/>
	<path class="st4" d="M140,81.1c-2.6-0.5-2.6-0.5-2.6-3.1c0-0.8,0.1-1.7-0.2-2.5c-0.1-0.3,0-0.7,0.5-0.7c0.7,0.1,1.4,0.2,2.1,0.3
		c0.3,0.1,0.2,0.4,0.2,0.6C140,77.5,140,79.3,140,81.1z"/>
	<path class="st4" d="M190.9,123.3c1.7-0.1,2,0.8,1.9,2.2c-0.1,1.4,0,2.9,0,4.4c0,0.3,0.2,1.1-0.4,0.8c-0.5-0.2-1.5,0.4-1.5-0.8
		C190.9,127.7,190.9,125.5,190.9,123.3z"/>
	<path class="st4" d="M186.9,99.5c-2.1-0.4-2.1-0.4-2.1-2.5c0-0.6,0-1.3,0-1.9c0-0.4-0.2-1.1,0.6-0.9c0.6,0.1,1.6-0.2,1.5,1
		C186.9,96.6,186.9,98,186.9,99.5z"/>
	<path class="st4" d="M244,148.8c0.1-2.8-0.1-5.5,0.2-8.3c0.1-0.5,0.4-0.7,0.7-0.7c0.5,0,0.3,0.5,0.3,0.7c0,2.3,0,4.5,0,6.8
		C245.3,148.3,244.9,148.7,244,148.8z"/>
	<path class="st3" d="M172.5,91c0-0.6,0-1.3,0-1.9c0-0.3-0.3-0.9,0.4-0.7c0.4,0.1,1.1-0.1,1,0.8c-0.1,1.3,0,2.7,0,4
		c0,0.3,0.1,0.8-0.5,0.7c-0.5,0-0.9-0.1-0.9-0.8C172.5,92.4,172.5,91.7,172.5,91z"/>
	<path class="st4" d="M182.4,98.3c-1.3,0.1-1.5-0.5-1.4-1.6c0.1-0.8,0-1.6,0-2.3c0-0.4-0.2-0.9,0.5-0.9c0.6,0.1,0.9,0.3,0.9,0.9
		C182.4,95.7,182.4,97,182.4,98.3z"/>
	<path class="st4" d="M59.5,127.3C59.7,127.4,59.6,127.4,59.5,127.3c-3.3-2.2-6.5-4.4-9.6-6.5c-0.5-0.3-0.5-0.7-0.2-1.1
		c1.7-2.4,3.4-4.8,5.1-7.2c0.4-0.5,0.7-0.5,1.3-0.2c3,1.7,5.9,3.4,8.9,5.2c0.4,0.2,0.5,0.5,0.3,1c-1.7,2.9-3.3,5.8-5,8.7
		C60.2,127.2,60.2,127.5,59.5,127.3z"/>
	<path class="st3" d="M60.1,138c-3.3-2.3-6.6-4.7-9.9-7c-0.4-0.3-0.6-0.7-0.6-1.3c0.2-1.9,0.2-3.8,0.6-5.8c2.7,1.8,5.2,3.8,8,5.3
		c2,1.1,2.6,2.5,2.3,4.6C60.3,135.1,60.5,136.5,60.1,138z"/>
	<path class="st3" d="M62.9,138.2c0-3,0-6,0-9c0-3.3,2.3-5.4,3.4-8c0-0.1,0.1-0.1,0.2-0.2c1.1-1.7,1.1-1.7,2.3-0.1
		c0.9,1.2,1.7,2.4,2.6,3.6c0.3,0.4,0.4,0.8,0.4,1.3c0,2.2,0,4.5,0,6.7c0,0.3,0,0.6-0.2,0.9c-0.3,0.3-0.6,0.6-1,0.5
		c-0.3-0.1-0.2-0.6-0.2-0.8c0-1.5,0-2.9,0-4.4c-0.1-2-0.9-2.2-2.6-1.4c0,0-0.1,0.1-0.1,0.1c-2.6,0.9-3.3,2.8-3.1,5.5
		c0.1,1.3-0.1,2.7-0.2,4.1C64.4,137.9,63.4,137.8,62.9,138.2z"/>
	<path class="st4" d="M67.9,130.2c0.3,4.6,0.2,5.2-0.9,5.8c0-1.7,0-3.4,0-5C67.1,130.3,67.5,130.3,67.9,130.2z"/>
	<path class="st4" d="M103.5,128.4c-0.2-2.1,0-2.4,1.9-3.2C106,127,104.9,127.7,103.5,128.4z"/>
	<path class="st0" d="M169.2,76c0,0.6,0.1,1.3,0,1.9c-0.1,0.7-0.4,1.2-1.3,1.2c-0.8-0.1-1.1-0.5-1.1-1.2c0-1.3,0-2.5,0-3.8
		c0-0.8,0.5-1.2,1.1-1.3c0.7-0.1,1.1,0.5,1.2,1.1C169.3,74.6,169.2,75.3,169.2,76C169.2,76,169.2,76,169.2,76z"/>
	<path class="st0" d="M140.2,65.6c0,0.5,0,0.9,0,1.4c0,0.7-0.5,1-1.1,1.1c-0.6,0.1-1-0.3-1.1-0.8c-0.2-1.2-0.2-2.4,0-3.6
		c0.1-0.7,0.8-0.8,1.3-0.8c0.5,0,0.9,0.5,0.9,1.2C140.2,64.5,140.2,65.1,140.2,65.6z"/>
	<path class="st0" d="M156,69.3c0,0.6,0,1.3,0,1.9c0,0.6-0.4,0.9-0.9,1.1c-0.6,0.2-1-0.2-1.2-0.7c-0.4-1.5-0.4-3.1,0-4.6
		c0.1-0.6,0.7-0.7,1.2-0.7c0.5,0.1,0.9,0.4,1,1C156,67.9,156,68.6,156,69.3C156,69.3,156,69.3,156,69.3z"/>
</g>
<g id="g9856" transform="translate(-423.16964,66.992515)">
	<rect id="rect3069-6-3" x="424.1" y="-66" class="st5" width="281.7" height="281.4">
	</rect>
	<path id="path3841-1-2" class="st5" d="M583.1,125.3c-7.3,9.1-18.8,17.6-23.6,29.2c-6.5,15.5-5.7,42.3-1.4,59.6"/>
	<path id="path3843-5-6" class="st5" d="M582,215.3c-18.5-53.6,3.7-46.8,14.6-90.4"/>
	<path id="path3845-9-6" class="st5" d="M571.1,108.3h37.5"/>
	<path id="path3847-1-6-2" class="st5" d="M610.2,94.2l-0.9,30c-0.3,8.4,18.7,8.6,23.3,5.7"/>
	<path id="path3849-3-3-6" class="st5" d="M633.8,95.6l-0.5,35"/>
	<path id="path3851-8-4" class="st5" d="M608.6,93c7.5,4.2,21.4,4,27.6,0.9"/>
	<path id="path3853-8-4" class="st5" d="M608.6,92.8l14.3-23.1l13.6,24.3"/>
	<path id="path3855-9-2" class="st5" d="M616.4,100.8v6.8"/>
	<path id="path3857-4-9" class="st5" d="M569.8,91.5V126"/>
	<path id="path3861-9-2-0" class="st5" d="M542.6,88.8c6.8,4.5,22.9,3.7,30,1.2"/>
	<path id="path3863-5-8" class="st5" d="M551.9,97.8v6.8"/>
	<path id="path3865-1-9" class="st5" d="M569.8,126.2c-3.6,4.1-10.9,6.1-19.9,4.1"/>
	<path id="path3867-7-2" class="st5" d="M570.4,99.5h34.5l4.7,5.7"/>
	<path id="path3869-4-5-6" class="st5" d="M570.4,125.8l12.2-0.3"/>
	<path id="path3871-5-6" class="st5" d="M596.8,125.5l12.9,0.3"/>
	<path id="path3873-1-7" class="st5" d="M582.6,125.9V117c4.5-6.2,9-6,13.5-0.3l0.3,8.1"/>
	<path id="path3875-4-2" class="st5" d="M583.2,125.2l3.9-3.8l0.3-7.4"/>
	<path id="path3879-6-8" class="st5" d="M575.5,112.3v8.8"/>
	<path id="path3879-0-0-0" class="st5" d="M602.9,113v8.8"/>
	<path id="path3917-3-0" class="st5" d="M549,114.6l-0.3,15.9l-25.9,25.4v-22c-3.3,4.2-10.3,2.9-15.2,1l0.3,21.6
		c5,1.8,10.6,2.3,14.9-0.7"/>
	<path id="path3919-2-8" class="st5" d="M507.6,134.3l7.8-12.2l7.4,10.8"/>
	<path id="path3921-2-2" class="st5" d="M514.3,140.7v5.7"/>
	<path id="path3923-1-5" class="st5" d="M523.1,138.3l25.7-24.3l-5.7-2l-21,19.6"/>
	<path id="path3925-4-8" class="st5" d="M507.2,156.2l-26,8.4l-20.6,16.2l-35.5,34.8"/>
	<path id="path3947-7-0" class="st5" d="M632.6,131.2l19.5,31.8l22.6,20l30.3,31.2"/>
	<path id="path3949-7-3" class="st5" d="M535.6,104.5l-14.2-7.1l-14.2,14.9l-20.3-10.2l17.9-14.9l16.8,10.2"/>
	<path id="path3951-0-2" class="st5" d="M507.2,112.9l0.3,16.2l-19.3-11.8l0.3-13.2"/>
	<path id="path3953-9-3" class="st5" d="M532.5,104.1v17.6"/>
	<path id="path3955-5-3" class="st5" d="M478.4,147.2l-10.4-6.8l8.8-8.5l12.4,6.6"/>
	<path id="path3957-7-2-2" class="st5" d="M468.8,141.4v11.8"/>
	<path id="path3959-2-1-6" class="st5" d="M487.2,103.5l-7.4,2l-6.4-18.6l15.9-8.1l6.1,15.6"/>
	<path id="path3961-9-9" class="st5" d="M479,104c0.2-0.1,0.5,12.3,0.7,17.7l9.1-3.4"/>
	<path id="path3963-7-1-2" class="st5" d="M473,86.9l-3.4,15.2"/>
	<path id="path3965-6-6" class="st5" d="M478.9,122.1l-9-3.4l-0.3-17.6"/>
	<path id="path3967-8-3" class="st5" d="M674.8,68.3l-6.4-12.2l-7.4,15.2l-0.3,15.2l13.9-6.4L674.8,68.3z"/>
	<path id="path3969-2-9" class="st5" d="M668.5,56.4l-10.6-9.8l-8.1,15.2l11.2,9.5"/>
	<path id="path3971-9-1-4" class="st5" d="M649.7,61.8l0.3,14.9l9.5,9.2"/>
	<path id="path3973-9-7" class="st5" d="M641.2,44.2l-18.6,13.5l-8.5-17.6l18.3-11.8L641.2,44.2z"/>
	<path id="path3975-8-9" class="st5" d="M622.6,58.5l0.3,8.5l15.9-9.8l-0.3-10.5"/>
	<path id="path3977-3-6" class="st5" d="M614.5,39.5L608.7,51v12.5l13.5,3"/>
	<path id="path3979-7-6" class="st5" d="M639.2,39.8h24.7l0.3,11.2"/>
	<path id="path3981-1-6" class="st5" d="M638.9,51.7l15.6,0.3"/>
	<path id="path3983-2-4" class="st5" d="M637.9,58.5l13.6,0.3"/>
	<path id="path3985-6-4" class="st5" d="M620.6,24.3l-24.4-4.1L604.3,5l22,2.4L620.6,24.3z"/>
	<path id="path3987-1-4" class="st5" d="M626.3,8.7l1,22"/>
	<path id="path3989-7-5-2" class="st5" d="M619.6,25l0.7,9.9"/>
	<path id="path3991-6-7" class="st5" d="M598.2,20.9v9.8l21.4,5.7"/>
	<path id="path3993-5-6" class="st5" d="M602.6-18.4l10.5,18.3l-5,5.2"/>
	<path id="path3995-0-7" class="st5" d="M600.3,11.1L589.1-5.8l13.5-12.9"/>
	<path id="path3997-4-7" class="st5" d="M589-5.9l-4.6,13L584,26.3l13.9,2"/>
	<path id="path3999-5-0-6" class="st5" d="M596.9-14.3l-4.7-9.8l-14.2,13.2l6.8,15.2"/>
	<path id="path4001-1-2" class="st5" d="M577.2-10.2l-5.8,11.5v17.3l12.5,2.4"/>
	<path id="path4003-2-1" class="st5" d="M579.6-12.9l-6.8-8.5L562-10.9l8.8,11.5"/>
	<path id="path4005-3-1" class="st5" d="M561.7-10.2l-6.1,11.2v12.9l14.6,3"/>
	<path id="path4007-7-4-0" class="st5" d="M611.4,2.6v2.2"/>
	<path id="path4015-2-3" class="st5" d="M537.6,38.5l-3.7,17.3l26.8,0.4l3.3-16.6L537.6,38.5z"/>
	<path id="path4017-4-7" class="st5" d="M533.9,57.1l0.3,10.8l26.4,0.3l-0.1-11.8"/>
	<path id="path4019-1-4-9" class="st5" d="M563.7,40.3l0.6,23.3l-3.1,4.3"/>
	<path id="path4021-8-4-2" class="st5" d="M532.9,64.9L518.3,74L518,59.8l16.9-10.2"/>
	<path id="path4023-2-3-4" class="st5" d="M518,60.1l-6.1-15.6l19.3-12.5l6.1,8.5"/>
	<path id="path4025-6-0-5" class="st5" d="M511.8,44.3l-7,10.4v14.2l13.5,4.8"/>
	<path id="path4027-0-7-2" class="st5" d="M524.8,36.5l7.2-17.9l5.4,11.1v7.8"/>
	<path id="path4029-3-9" class="st5" d="M532.4,18.7L516,10.7l-8.1,17.6l16.1,7.5"/>
	<path id="path4031-9-9" class="st5" d="M508.5,29.7l-0.7,19.6"/>
	<path id="path4033-4-9" class="st5" d="M490.2,50.3L478,43.2l-7.4,10.5l12.8,8.7L490.2,50.3z"/>
	<path id="path4035-9-4-24" class="st5" d="M490.6,50.4l5.4,7.4v9.5l-11.5,6.4l0.3-13.5"/>
	<path id="path4037-6-4" class="st5" d="M471.9,55.7l-0.7,8.5l13,9.2"/>
	<path id="path4064-5-1" class="st5" d="M424,188.1l4.1-3.5l-0.4-4.3l3.3-2.9l0.2,5.3l4.3-3.5l-0.4-4.5l3.5-2.7l0.4,4.3l4.7-3.2
		v-5.6l3.7-3l0.2,4.6l4.7-4.5l0.6-4.8l3.5-3l0.6,5.1l4.8-3.7v-5.3l3.7-2.4l0.4,4.8l4.8-3.4l-0.4-5l4.5-2.9l0.6,5.8l4.3-3l-0.4-5
		l4.7-1.4l0.4,4.5l4.7-1.1l-0.2-4.8l4.8-1.6l0.6,5.6l5-1.4l-0.6-5.3l4.5-0.8l0.8,4.6l3.7-1.1"/>
	<path id="path4091-1-2" class="st5" d="M705.7,190.6l-3.9-3.3l0.7-8.4l-4.6-4.7l-0.8,7.9l-5.2-5.6l0.7-8.6l-4.2-4.6l-1,8.4
		l-5.4-5.2l0.5-8.8l-4.2-4.1l-0.7,8.6l-5.6-4.6l1-9l-5.4-4.4l-0.7,8.1l-5.9-4.7l0.5-9l-4.7-4.9l-0.7,9l-4.7-6.6l0.8-10.3l-3.7-6.6
		l-0.8,11l-3.6-7.5l0.4-8.4l-3.6-6.1l-1,9.6l-5.9-8.8"/>
	<path id="path4093-3-9" class="st5" d="M559.4,14.2l-0.2-7.9l5.1,0.9v8"/>
	<path id="path4093-0-2-4-9" class="st5" d="M575.9,19.3v-8.7l5.1,0.9v8"/>
	<path id="path4093-8-6-7" class="st5" d="M589.2,26.8v-8.7l5.1,0.9v8"/>
	<path id="path4120-9-3-3" class="st5" d="M591.1,6.9V11"/>
	<path id="path4120-0-0-0-7" class="st5" d="M577.9,0.4V4"/>
	<path id="path4120-6-0-9" class="st5" d="M562.3-3l0,2.9"/>
	<path id="path4147-3-0" class="st5" d="M602.9,31.7V25l8.5,1.6v7.1"/>
	<path id="path4149-9-3" class="st5" d="M606.7,26.1v6.5"/>
	<path id="path4151-5-1" class="st5" d="M540.7,67.7v-7.8l11.6,0.2V68"/>
	<path id="path4153-3-1" class="st5" d="M546.3,60.2v7.6"/>
	<path id="path4155-1-5" class="st5" d="M509.1,70.1c-0.2-2.6,0-5.1,0.2-8.7l3.3,1.4v8.5"/>
	<path id="path4177-6-3" class="st5" d="M488.7,70.9l0.2-7.9l3.2-1.9l0,8.2"/>
	<path id="path4179-9-9" class="st5" d="M472.3,118.9l-0.2-11.2l4,1.6v11.7"/>
	<path id="path4181-1-6" class="st5" d="M508.3,130.2l2.4-0.6"/>
	<path id="path4183-9-3" class="st5" d="M493.1,120.1v-9.9l8.1,4.3v10.7"/>
	<path id="path4185-0-1" class="st5" d="M612.8,64.1v-9.4l4.5,1.3v8.7"/>
	<path id="path4189-6-8" class="st5" d="M666.1,83.7l0.2-11.2l3.4-1.8v10.5"/>
	<path id="path4485-1" class="st5" d="M525.4,59.1v4.5l4.3-2.8v-4.5L525.4,59.1z"/>
	<path id="path4487-3" class="st6" d="M544.4,111.7l0.4-21.7"/>
	<path id="path4489-0" class="st5" d="M542.1,88.4l15.1-20.2l15.1,21"/>
	<path id="path4491-8" class="st5" d="M472.2,200.3c2.8-10.9-1.5-0.4,2.1,0.8c2.6,0.9,2.4-7.1,2.5-7.1c0.2,0-0.2,4,0,4.6
		c0.7,2,3.7,1.2,5.4,1.2"/>
	<path id="path4493-7" class="st5" d="M616.3,199.9C619.1,190.7,613.4,197,616.3,199.9c1.9,1.9,1.3-9.8,2.5-7.5
		c3.6,7.2-1.4,10.2,10,8.3"/>
	<path id="path4495-6" class="st5" d="M605.9,164.6c-0.1-11.8,0.9,2.8,2.5,0.4c1.8-2.7,1-2.8,2.9-3.7"/>
	<path id="path4497-2" class="st5" d="M537.8,151.8c3.9-1.9-2.2,3,2.1-0.4c0.3-0.2,0-4.5,0-4.6c0-3,1.3,4.6,6.2,4.6"/>
	<path id="path4499-9-7" class="st5" d="M529.5,185c0.8-21-6-1.7,8.3-1.7"/>
	<path id="path4501-1-5" class="st5" d="M527.8,182.5c-1.2,0-2.5,0-3.7,0"/>
</g>
</svg>
