<?xml version="1.0" encoding="utf-8"?>
<!-- Generator: Adobe Illustrator 25.0.0, SVG Export Plug-In . SVG Version: 6.00 Build 0)  -->
<svg version="1.1" id="Capa_1" xmlns="http://www.w3.org/2000/svg" xmlns:xlink="http://www.w3.org/1999/xlink" x="0px" y="0px"
	 viewBox="0 0 512 512" style="enable-background:new 0 0 512 512;" xml:space="preserve">
<g>
	<g>
		<path d="M176.1,405.8l-49.2-49.2c-3.7-3.7-9.7-3.7-13.4,0c-3.7,3.7-3.7,9.7,0,13.4l49.2,49.2c1.8,1.8,4.3,2.8,6.7,2.8
			c2.4,0,4.8-0.9,6.7-2.8C179.8,415.5,179.8,409.5,176.1,405.8z"/>
	</g>
</g>
<g>
	<g>
		<path d="M102.7,336.3c-12.2,0-12.2,18.9,0,18.9C114.8,355.2,114.9,336.3,102.7,336.3z"/>
	</g>
</g>
<path d="M489.8,184.9L327.1,22.2c-3.7-3.7-9.7-3.7-13.4,0L85,250.8l-51.6,51.6c-9,9.1-14,21.1-14,33.9s5,24.9,14,33.9l108.4,108.4
	c9.3,9.3,21.6,14,33.9,14s24.5-4.7,33.9-14l51.6-51.6l228.5-228.7c1.8-1.8,2.8-4.2,2.8-6.7S491.5,186.8,489.8,184.9z M196.2,465.1
	c-11.3,11.3-29.7,11.3-40.9,0L46.9,356.7c-5.5-5.5-8.5-12.8-8.5-20.5s3-15,8.5-20.5l44.8-44.8L241,420.2L196.2,465.1z M360.3,270.4
	l-47.2,31.7l-88.6-92.7l-24,21.8l4.3-40.8l73.6-68.1l0.6,39.6l-25.8,23.4l25.7,26.6l30.5-30.5l8.4,27.8l-21.8,21.8l25.8,26.5
	l47.5-32.9L360.3,270.4z"/>
</svg>
