<?xml version="1.0" encoding="utf-8"?>
<!-- Generator: Adobe Illustrator 25.0.0, SVG Export Plug-In . SVG Version: 6.00 Build 0)  -->
<svg version="1.1" id="Capa_1" xmlns="http://www.w3.org/2000/svg" xmlns:xlink="http://www.w3.org/1999/xlink" x="0px" y="0px"
	 viewBox="0 0 390.3 390.3" style="enable-background:new 0 0 390.3 390.3;" xml:space="preserve">
<path d="M372.5,225.3c-12-15-29.1-27.5-51-37.2l0,0c-16.9-7.5-36.8-13.3-59-17.4c-7.7-1.4-15.7-2.6-23.8-3.5
	c2.6-7.7,1.1-16.9-4.8-24.2c-4.1-5.2-9.8-8.6-16.1-9.7c-6-1.1-11.8,0.1-16.5,3.4l-0.8-11.3c-0.3-3.9-2.6-7.4-6-9.3
	c-3.7-2-8.2-1.7-11.3,0.8l-44.5,35.5c-3.1,2.5-4.4,6.8-3.3,10.8c1,3.8,4,6.8,7.7,7.9l10.8,3.3c-8.9,8.1-9.4,22.7-1.1,33.1
	c5.5,6.9,13.5,10.5,21.3,10.1c-0.9,7.4-1.6,14.8-2,22c-1.3,22.3-0.1,43,3.6,61.4c4.8,23.7,13.7,43.9,26.5,60
	c10.7,13.5,28.1,23.8,46.5,27.6c8.7,1.8,17.2,2.2,25.1,1.1c10.4-1.4,19.8-5.3,27.6-11.5l65.6-52.3c13.9-11.1,22-28.1,22.7-48
	C390.5,259,384.2,239.9,372.5,225.3z M353.5,308.7l-65.6,52.3c-9.1,7.3-22,9.6-36.2,6.6c-13.4-2.8-25.8-10.1-33.3-19.4
	c-24.1-30.3-27-74.3-25.2-105.8c0.7-12.7,2.3-24.4,3.9-34.3l13.1,28.4c2.5,5.4,8.5,8,13.7,6c0.9-0.4,1.8-0.9,2.6-1.5
	c3.6-2.9,4.8-8.1,2.7-12.6l-9-19.6l17.1,13.1c3.9,3,9.2,3.1,12.8,0.2c0.8-0.6,1.5-1.4,2-2.2c3.1-4.6,1.9-11.1-2.8-14.7l-23.4-18
	c38.5,3.3,101.4,14.3,130.5,50.8C374.2,260.3,372.8,293.3,353.5,308.7z M217.8,155.8c0.6,0.8,1,1.8,0.9,2.7c0,0.4-0.1,1-0.5,1.4
	c-0.9,0.4-3.5,1.2-8,2c1.8-4.2,3.1-6.6,3.7-7.4C214.9,154,216.6,154.3,217.8,155.8z M172.9,196.1c-0.9,0.6-2.7,0.2-3.9-1.3
	c-0.6-0.8-1-1.8-0.9-2.7c0-0.4,0.1-1,0.5-1.4c0.9-0.4,3.5-1.2,8-2C174.8,192.9,173.5,195.3,172.9,196.1z M181,146.7l1,14.2
	l-13.6-4.1L181,146.7z"/>
<polygon points="132.1,53.5 110.8,58 118.6,95.3 32.1,38.8 19.4,56.4 106.5,113.2 71.2,120.6 75.7,141.8 147.4,126.8 "/>
</svg>
