<?xml version="1.0" encoding="utf-8"?>
<!-- Generator: Adobe Illustrator 25.0.0, SVG Export Plug-In . SVG Version: 6.00 Build 0)  -->
<svg version="1.1" id="Capa_1" xmlns="http://www.w3.org/2000/svg" xmlns:xlink="http://www.w3.org/1999/xlink" x="0px" y="0px"
	 viewBox="0 0 512 512" style="enable-background:new 0 0 512 512;" xml:space="preserve">
<path d="M319.4,384.1c-103.9,0-188.5-84.6-188.5-188.5c0-103.9,84.6-188.5,188.5-188.5s188.5,84.6,188.5,188.5
	C507.9,299.6,423.4,384.1,319.4,384.1z M319.4,57.1c-76.4,0-138.5,62.1-138.5,138.5c0,76.4,62.1,138.5,138.5,138.5
	S457.9,272,457.9,195.6C457.9,119.2,395.8,57.1,319.4,57.1z"/>
<path d="M35,480L35,480c-14.1-14.1-14.1-36.9,0-50.9l132.9-132.9l50.9,50.9L85.9,480C71.9,494.1,49.1,494.1,35,480z"/>
<rect x="212.8" y="164.6" width="213.2" height="50"/>
</svg>
