<?xml version="1.0" encoding="utf-8"?>
<!-- Generator: Adobe Illustrator 25.0.0, SVG Export Plug-In . SVG Version: 6.00 Build 0)  -->
<svg version="1.1" id="Capa_1" xmlns="http://www.w3.org/2000/svg" xmlns:xlink="http://www.w3.org/1999/xlink" x="0px" y="0px"
	 viewBox="0 0 512 512" style="enable-background:new 0 0 512 512;" xml:space="preserve">
<g>
	<g>
		<path d="M465.3,92.4c-12.9,0-12.9,20,0,20C478.2,112.4,478.2,92.4,465.3,92.4z"/>
	</g>
</g>
<g id="Page-1">
	<g id="_x30_03---Quill">
		<path id="Shape" d="M507,10.4c-1.6,34.9-16,107.2-100.8,161.8c-0.2,0.1-0.4,0.3-0.6,0.4c-8.8-1-17.3-4.1-24.6-9
			c-3.9-2.1-8.9-0.9-11.3,2.9c-2.5,3.7-1.7,8.7,1.8,11.6c4.4,2.9,9.1,5.3,14.1,7.2c-24.1,14.9-41.3,24.5-54.6,31.8
			c-16.2,7.7-31,17.9-43.9,30.4c-15.5,2.1-31.3-0.1-45.7-6.2c-4.2-1.7-9,0-11.1,4.1c-2.1,4.1-0.6,9,3.3,11.4
			c12.1,5.7,25.3,8.7,38.6,8.6c-7.6,10.2-16.7,23.6-28.8,41.7c-21.7,9.5-52.4,17.5-80.1,3.6c-2.8-1.4-6.1-1.2-8.7,0.5
			c-2.6,1.7-4.1,4.7-3.9,7.8c0.2,3.1,2,5.9,4.8,7.3c12.6,6.2,26.5,9.3,40.5,9.2c9.7-0.1,19.3-1.3,28.7-3.7
			c-30.9,35.6-78.4,52-124.6,43.1c-8.5-1.8-16.5-5.6-23.2-11.1c1.6-6.7,3.3-13.5,5.3-20.6c49.4-131.3,109.7-149.3,193.2-174.1
			c51.9-13.7,101.8-33.9,148.7-60.1c4.2-2.4,5.6-7.7,3.2-11.9c-2.4-4.2-7.7-5.6-11.9-3.2c-45.6,25.5-94.3,45.2-144.9,58.5
			c-85,25.3-152,45.2-204.5,184.6l-3.7,7.5c-0.2,0.2-0.3,0.5-0.3,0.8c-1.2-2.2-2.2-4.6-3-6.9c-14.3-39.1-15.7-81.7-4-121.6
			c0.2-0.8,0.5-1.6,0.8-2.3c2.1,7.8,5.4,15.2,9.7,22c1.6,2.4,4.3,3.9,7.2,3.9c1.7,0,3.4-0.5,4.8-1.5c1.9-1.3,3.3-3.2,3.7-5.5
			c0.5-2.2,0-4.6-1.3-6.5C72.7,214,68.5,199.9,67,185.5c14.3-29,35.2-54.2,61-73.6c-8,18.6-12.1,38.6-12.2,58.8
			c0,4.8,3.9,8.7,8.7,8.7c4.8,0,8.7-3.9,8.7-8.7c0.4-27.8,9-54.9,24.8-77.8c23.5-12.5,48.9-20.8,75.2-24.6
			c-4.6,6.5-8.7,13.4-12.3,20.5c-2.1,4.3-0.4,9.5,3.8,11.6c1.2,0.7,2.5,1,3.9,1c3.3,0,6.3-1.8,7.7-4.8c5.6-11.1,12.6-21.4,20.9-30.6
			c20-1.2,40.3-0.9,60-0.3c7,0.1,14,0.3,20.9,0.3c-2.1,5.2-3.8,10.5-5.1,16c-1.1,4.6,1.7,9.3,6.3,10.5c4.6,1.1,9.3-1.7,10.5-6.3
			c1.7-7,4.2-13.7,7.5-20.1C409.1,65.1,460.8,56.6,507,10.4L507,10.4z"/>
		<path id="Shape_1_" d="M98.5,483.2H32.7l28.6-28.6c1.5-1.6,2.4-3.6,2.5-5.8c1.8-28.7,6.2-57.3,13-85.2c-4.4-3.6-8.3-7.7-11.5-12.4
			c-1.3-1.9-2.5-3.9-3.6-6c-6.4,13.2-14,25.8-22.6,37.7C17.4,415.3,4.9,452.9,3,491.8c0,3.5,2.1,6.7,5.4,8c1,0.5,2.2,0.7,3.3,0.7
			h86.8c4.8,0,8.7-3.9,8.7-8.7C107.1,487,103.2,483.2,98.5,483.2z M52.7,393.8c-2.9,16.8-5,33.8-6.2,50.9L23,468.1
			C28,441.7,38.1,416.4,52.7,393.8z"/>
		<path id="Shape_2_" d="M410.9,483.2H133.2c-4.8,0-8.7,3.9-8.7,8.7c0,4.8,3.9,8.7,8.7,8.7h277.7c4.8,0,8.7-3.9,8.7-8.7
			C419.5,487,415.7,483.2,410.9,483.2z"/>
	</g>
</g>
</svg>
