<?xml version="1.0" encoding="utf-8"?>
<!-- Generator: Adobe Illustrator 25.0.0, SVG Export Plug-In . SVG Version: 6.00 Build 0)  -->
<svg version="1.1" id="Layer_1" xmlns="http://www.w3.org/2000/svg" xmlns:xlink="http://www.w3.org/1999/xlink" x="0px" y="0px"
	 viewBox="0 0 283.5 283.5" style="enable-background:new 0 0 283.5 283.5;" xml:space="preserve">
<style type="text/css">
	.st0{fill:#CBCBCB;}
	.st1{fill:#4E4E4E;}
	.st2{fill:#E2C114;}
</style>
<rect x="-0.4" y="-0.4" class="st0" width="283.5" height="283.5"/>
<g>
	<path class="st1" d="M186.5,211.2c-18.8,12.5-31.9,16.1-43.8,12.1c-11.5-3.9-22.5-14.8-37.8-37.7c-1-1.8-2.1-3.7-3.2-5.6
		c-14-24.9-35-62.5-33.1-89.7l0.3-3.6L66.1,89c-12.6,10.8-11.6,20.7-10.8,28.6c0,0.5,0.1,1,0.1,1.5c-6,4.5-13.3,18.8-12.8,23.7
		c0.2,1.7,1.2,2.3,1.8,2.5c1.4,0.5,3.7,0.1,9.8-6.1c2.7-1.2,4-4.3,3.3-6.4c-0.5-1.4-2-2.8-4.9-2c1.2-2.1,3.5-5.7,5.1-5.9
		c0.1,0,0.3,0,0.5,0.2c1.7,3.4,3.4,7.1,5.3,10.9c17.6,36.9,44.3,92.6,79.7,98c1.9,0.3,3.7,0.4,5.6,0.4c13.1,0,26.4-7.1,39.6-21.1
		l8.8-9.4L186.5,211.2z"/>
	<path class="st1" d="M36.8,283.4c-1.8-4.4,1.3-7.5,3-10.9c2.5-4.9,7-8.4,12-10.3c2.7-1.1,5.9-1.5,8.8-2.8c2.2-0.9,3.5-2.4,3.7-4.4
		c0.3-2.2-2-2.5-3.5-3.2s-2.5-2.1-2-3.7c0.6-1.9,2.6-1.9,4-1.6c3,0.7,4.8,2.6,4.5,6.1c-0.1,1-0.8,2.7,0.8,3c1.3,0.2,1.8-1.3,2.3-2.3
		c1.4-2.5,2.9-5,2.2-8.2c0-0.1,0-0.2,0-0.4c0.2-2,0.2-4.8,2.4-4.8c2.6-0.1,2.7,2.7,2.6,4.9c0,0.4,0,0.7,0,1.1
		c-0.1,0.2-0.4,0.4-0.4,0.5c0.3,0.5,0.6,0.2,0.8,0c2.7,0.5,3.5,2.5,1.8,5c-1.2,1.8-2.9,3.3-4.4,5c0.3,0.6,1,0.5,1.4,0.3
		c8.6-3.1,17.3-6.2,21.5-15.3c2-4.3,3.3-8.6,2-13.5c-0.4-1.4-1-2-2.2-2.3c-2.2-0.6-3.9,0.3-5.3,1.8c-0.8,0.9-1.1,2.1-0.2,3.2
		c1.4,1.6,1.9,3.1,0,4.8c-1.6,1.4-3.3,1.2-4.9,0.4c-2.1-1.1-1.8-3.1-1.3-5c1.5-5.3,6.7-8.6,12.4-7.6c2,0.4,2.9-0.3,2.2-2.1
		c-1.5-4.1-2.4-8.5-5.3-12c-1.3-1.6-2.7-2.4-4.9-1.9c-5.5,1.3-5.5,1.3-5.2-3.9c-1.9,0.4-3,1.6-3.7,3.3c-0.5,1.2-1.3,2.3-2.8,2.4
		c-0.8,0-1.2-0.6-1.3-1.4c-0.2-1.5-0.5-3.3,1-4.2c1.6-1,3.3-2.3,5.4-2.1c0.8,0.1,1.8,0.5,2.2-0.5c0.5-1.2-0.7-1.8-1.4-2.1
		c-9.2-3.7-18.4-5.7-28.1-1.4c-3.3,1.4-4.7,3.3-4.2,6.7c0.1,0.8,0,1.5-0.1,2.5c-0.7-0.3-1-0.3-1.2-0.5c-0.8-0.9,0.5-3-1.3-3.3
		s-2.4,1.7-3.3,2.8c-6.6,8.1-6.2,16.7-1.4,25.4c1.6,2.9,4.7,4.4,7.6,6.9c-3,0.9-4.8-0.3-6.5-2.1c-4.3-4.6-5.8-10.4-6.9-16.2
		c-0.4-2.1,0.7-4.5,1.2-6.8c0.3-1.4,0.5-2.4-1.2-3.4c-2.8-1.5-1.9-3.8-0.6-6c1.3-2.2,2.8-1.7,4.4-0.4c1.2,1,2.2,0.9,3.3-0.3
		c2.3-2.2,4.6-4.4,5.7-7.6c0.8-2.4,2-4.7,3.1-7.1c1.7-3.7,4.8-5,8.4-5.9c0.6-0.1,1.2-0.1,1.3-1.2c-2.6-0.8-5.1-1.9-7.8-1.9
		c-3.7-0.1-5.2,1.3-5.7,5.1c-0.3,2.1-0.9,4.7-3.4,4.3c-2.4-0.4-2.6-2.9-1.9-5.2c0.2-0.7,0.6-1.5-0.1-2.6c-2.5,1.5-4.1,3.6-5,6.3
		c-0.6,1.7-1.8,2.8-3.4,2.2c-1.9-0.7-1.2-2.5-0.6-3.9c1.3-3.3,3.9-5.4,6.9-7.1c0.4-0.2,0.9-0.2,1.3-0.5c1.3-0.8,3.4-1,3.5-3
		c0.1-1.8-1.9-2-2.9-2.5c-6.4-3.6-11.9-8.5-17.4-13.3c-3.2-2.8-5.2-6.6-7.7-10c-2.5-3.5-4.8-7.2-8-10.2c-1.8-1.7-2.3-4.2-1.7-6.2
		c1.4-4.6-1.5-8.8-1.1-13.2c0.1-1-0.3-2.3-0.3-3.4c0-3.7-1-6.9-4.3-9.1c-0.5-0.3-0.8-0.8-1.2-1.3c-1.5-1.8-2.5-3.7-0.3-5.5
		c2.1-1.7,4.5-0.6,5.7,0.9c2.5,3.3,2.7,1.3,3.4-1c2-6.9,6.2-8.9,12.9-8.5c1,0.1,2,0.4,1.9,1.6s-1.2,0.9-1.9,0.8
		c-3.1-0.3-6,0-7.9,2.7c-2.7,3.7-5.2,7.4-5.7,12.2c-0.8,7.3,0.4,14.6,1.6,21.7c1,5.8,4.5,10.6,7.5,15.6c0.3,0.4,0.6,0.8,1.1,0.6
		c0.8-0.4,0.6-1.2,0.4-1.8c-1.1-3.5-1-6.9,0.2-10.4c0.7-1.9,1.8-3.8,4-3.1c2.2,0.6,3.2,2.7,2.9,5c-0.2,1.3-0.6,2.5-1.2,3.7
		c-0.8,1.5-2,2.4,0.8,3.5c1.8,0.7,0.8,3.2,0.1,4.7c-2.2,4.5-1.9,7.1,1.9,10.2c6.3,5,12.7,9.8,19.1,14.6c0.6,0.5,1.4,0.8,1.9,0.1
		c0.4-0.4-0.1-1.1-0.5-1.5c-5.5-5.5-8.1-12.8-10.3-19.9c-1.8-5.8-1.4-12-0.1-17.9c0.6-2.9,0.9-5.7-0.4-8.6c-1-2.2-0.8-4.6-0.4-7
		c0.3-2.1,1.7-2.9,3.4-1.4c1.8,1.6,1.9,0.3,2-1c0.2-4.1-0.9-7.9-2.7-11.5c-2.9-5.6-2.9-11.5-1.9-17.4c0.6-3.5,5.2-6.9,8.1-6.5
		c3.6,0.5,6.1,3.6,6.2,8c0.2,4.9-1,6.3-4.8,5.9c-2.7-0.3-2.9-2.4-3.2-4.4c-0.3-2.2,1.4-2.5,2.9-2.8c0.9-0.2,2.3,0.6,2.3-1.2
		c0.1-1.5-1.1-2-2.1-2.5c-2.9-1.2-6.7,0.9-7.7,4.9c-1.2,5.1-1.2,10.2,2.2,14.8c0.4,0.5,0.6,1.3,0.7,1.9c2.3,8.2,1.7,16.1-1.4,24.1
		c-2,5.2-3.6,11.1-1.9,16c1.7,5.2,1.6,11.3,5.7,15.9c1.1-1.1,0.4-2.3,0.2-3.5c-1.1-7.6,3.6-12.6,11-11.9c3.5,0.3,6.2,3.8,6.3,7.4
		c0.1,2.4,0.2,4.5-0.6,6.9c-0.8,2.3-2.4,2.5-3.4,2.5c-2.3-0.1-4.6-0.9-5.7-3.3c-0.7-1.5-1-3.1,0.1-4.7c0.8-1.2,2-0.8,2.9-0.7
		c1.6,0.2,1.5,1.9,2,3c0.4,0.8-0.5,2.5,1.1,2.5c1.5,0,1.9-1.6,2.1-2.9c0.9-5-1.4-8-6.8-9c-2.7-0.5-6.8,2.9-7.1,6.4
		c-0.4,4.7-0.1,9,2.6,13.5c3.2,5.4,6.9,9.4,12.6,11.7c0.8,0.3,1.4,0.9,2.2,0.2c1-0.9,0-1.5-0.4-2.1c-2.6-4.2-3-8.5-1.7-13.3
		c0.6-2.4,2.6-2,3.9-2.8c0.9-0.5,2,0.6,2.5,1.6c0.7,1.5-0.5,2.4-1.6,3.1c-1.1,0.8-1.7,1.9-2.1,3.2c-0.6,1.7-0.2,2.7,1.7,2.2
		c3.2-0.8,3.4,1,3,3.3c-0.2,1-0.5,2-0.7,3.1c-0.6,2.5-0.2,5.1,2.2,6.1c5.2,2.2,8.9,6.3,13.3,9.5c0.7,0.5,1.2,1.1,1.8,1.7
		c0.5,0.5,1.1,1.2,0.6,1.8c-0.8,1-1.4-0.1-2-0.5c-4.2-3.2-8-6.8-12.4-9.6c-8.7-5.7-18.4-1.8-21.9,7.9c-0.2,0.5-0.3,0.9,0.1,1.3
		c0.5,0.4,1.1,0.2,1.6-0.1c11-5.4,21.4-2.3,31.6,2.2c1.7,0.8,2.7,2.8,4.7,3.5c1.2-0.8-1.1-2,0.3-2.6c0.9-0.4,1.4,0.7,1.9,1.3
		c4.3,4.2,7.5,9.3,11.1,14c0.7,0.9,0.8,1.9-0.3,3.1c-2.2-3.1-4.3-6.2-6.5-9.2c-0.4-0.6-0.8-1.2-1.3-1.7c-0.6-0.6-1.3-0.7-1.9,0
		c-0.5,0.6,0.1,1,0.5,1.5c2.6,2.9,4.3,6.2,5.6,10c2.1,6.1,1.2,12.4,0.3,18.2c-1.1,7.2-5.9,12.8-12.2,16.9c-3.3,2.2-6.9,4.1-8.4,8.1
		c-0.6,1.5-0.7,2.8,1.5,2c1.6-0.6,3.2-0.9,4,0.9s0.2,3.6-1.5,4.6c-1.5,1-3.2,1.4-4.8-0.1c-2.5-2.2-3-4.9-1.2-7.9
		c0.4-0.7,0.4-1.6,0-1.9c-0.9-0.9-2.4-0.7-3.3-0.3c-5.2,2.3-10.9,2.2-16.3,4c-7.8,2.6-14.4,6.4-18.8,13.6c-1.5,2.4-1,5.3-2.1,7.7
		C38.7,283.4,37.7,283.4,36.8,283.4z M23.7,147.2l-0.1,0.2h0.2L23.7,147.2z"/>
	<path class="st1" d="M91.9,283.4c-2.2-1.8-3.8-5.3-7.7-2.5c-1.7,1.3-3.1,0-3.6-1.4c-0.8-2.1,1.2-2.9,2.6-3.4c1.7-0.7,3.5,0,5,1.1
		c2.1,1.5,3.1,1.1,2.8-1.5c-0.9-8.7,4-14.6,9.9-19.9c2.4-2.1,3.5-4.3,2.3-7.4c-0.6-1.5-0.5-3,0.8-4.2c0.7-0.6,1.6-0.6,2.3-0.1
		c1.3,0.9,1.6,2.4,1.3,3.8c-0.8,3.7,0.8,4.3,4,3.7c4.7-0.9,9.3-1.1,13.4,2.2c4.6,3.7,6.7,8.6,6.7,14.2c0,2.4,0.4,3.3,2.5,4.1
		c1.6,0.6,3,1.8,4.4,2.8c1.3,1,1.6,2.5,0.5,3.7c-0.9,1.1-2,2.3-3.9,1.1c-1.4-0.9-3.5-0.7-4.4-2.8c-0.6-1.3-1.7-0.3-2.2,0.4
		c-3.6,4.8-8.4,3.1-12.8,2.2c-1.4-0.3-2.9-0.6-4.2-0.7c-3.1-0.4-3.9,2.1-4.2,4.7c-0.7,0-1.4,0-2.1,0c-1-4.3,2.6-6.2,6.9-7.8
		c2.2-0.9,5.1-0.8,6.8-2.2c4.1-3.5,4.2-7.2,2.3-12.6c-1.6-4.5-4.9-6.9-9.1-7.1c-5.4-0.3-9.8,2.5-13.2,6.6c-0.7,0.9-0.9,1.8,0.9,2.1
		c2.6,0.5,5.6,2.1,5,4.8c-0.6,3-4.1,2-6.6,2c-0.2,0-0.4-0.2-0.6-0.2c-2.6-0.5-4.9,1.6-4.6,4.2c0.4,3.4,0.6,6.8,0.3,10.2
		C92.8,283.4,92.4,283.4,91.9,283.4z"/>
	<path class="st1" d="M0,14.3c3.5-1.2,5.8-3.5,6.7-7.3C7,7.1,7.3,7.2,7.6,7.3c0,3.9,0,7.7,0,11.6c0,4.1,1.9,5.6,5.8,4.6
		c0.7-0.2,1.4-0.1,2.1-0.2c1.2-0.3,2.6-0.9,3.5,0.5c0.8,1.3-0.2,2.5-0.6,3.6c-0.2,0.5-0.9,0.9-1,1.4c-0.3,1.5-3.4,0.9-2.6,2.6
		c0.6,1.4,2.4,2.5,3.8,3.5c4.1,2.7,11.3,4.2,16.2-0.6C37.2,32,40,26,38.4,23c-1.9-3.5-4.8-6.9-9.8-6.6c-5,0.4-11.5-4.7-10.4-10.2
		c0.3-1.6,2.1-2.3,1.7-4.1c-2,0-3.9,0-5.8,0c0.8-1.3,2.2-0.7,3.3-0.7c2,0,3.9,0.3,5.9-0.2c1.7-0.4,3.4,0.2,3.8,2.2
		c0.5,2.1-1.2,2.3-2.5,3.2c-1,0.7-3.8-1.4-3.3,1.9c0.4,2.9,2,3,4.4,3.2c3.9,0.4,7.2-2,11-1.9c1.5,0.1,3,0,4.5,0.6
		c1.1,0.5,5.4,0.3,6.4-0.4c1.1-0.8,2.2-1.3,3.5-1.3c1.3,0.1,2.2,0.7,2.8,1.9c0.7,1.3,0,2.2-1,3c-0.7,0.6-1.5,1.1-2.2,1.8
		c-2.3,2.1-3.9,3.9-3.6,7.7c0.8,8.2-5.3,15.7-12.8,16.7c-9.5,1.3-17.4-1.9-23.6-9.3C6.8,26,4.3,21.3,5.8,14.6
		c-2.4,1.7-4.1,2.8-5.8,3.9C0,17.1,0,15.7,0,14.3z"/>
	<path class="st1" d="M0,40.4c1.5-0.5,1.7-1.6,1.1-2.8c-0.6-1.3-1.2-2.4,0.3-3.4c0.9-0.6,2.2-0.7,2.9,0.1c0.9,1.1,2.1,2.5,1.2,4
		C4.6,40,4.7,42,2.9,43c1.1,1,2.2,0.7,2.9,0.4c4.7-2,8.3,1.1,12,2.8c4.1,1.9,7.3,4.9,9.7,8.8s3.3,8.2,3.8,12.6
		c0.7,5.9-3.5,11.6-9.1,13.5c-3.4,1.2-6.8,2.4-10.3,3.5c-1.5,0.5-2.5,2.8-3.7,4.4c-1.4,1.8-2.9,4.1-5.3,2.2
		c-2.5-1.9-1.5-4.8,0.2-6.6c1.8-1.8,1.4-2.8,0.1-4.5C1.1,77,1,73.3,1.5,69.7c0.3-1.8,0.9-3.6,1.2-5.5c0.2-0.9,0.4-1.7,1.2-1.9
		c1-0.3,1.4,0.7,1.9,1.3c0.8,0.9,1.2,1.9,1.4,3.1c0.7,5.7,5.4,9.9,12.6,7.6c10-3.3,10.6-14.2,3.6-21.2c-0.5-0.5-1.1-0.9-1.5-1.5
		c-1.3-1.6-2.2-1.2-2.5,0.6c-0.3,2.1-1.7,3.2-3.4,4.2c-1.2,0.7-2.3,0.4-3.1-0.6c-0.7-0.8-1.6-1.4-0.8-2.9c1-2,1.7-4.4-0.5-6.5
		c-2-1.9-4.2-1.2-6.2-0.2C3.4,47.1,1.8,46,0,46C0,44.2,0,42.3,0,40.4z"/>
	<path class="st1" d="M0,205.7c6-0.1,12.2-1.3,17.9,1.8c4.2,2.2,6,5.9,6.3,10.4c0.3,4.1-1.2,6.2-5.1,8.2c-2.9,1.5-6.5,1.5-8.6,4.4
		c-0.4,0.5-1.2,0.9-0.9,1.7s1,0.9,1.7,0.8c1.8-0.1,2.9,0.8,3.2,2.6c0.3,1.7-0.3,3.6-1.8,3.7c-1.8,0.1-3.7-1-4.7-2.7
		c-2.4-3.8-0.9-7.6,3.8-10.4c2.9-1.8,7-3.1,6.7-7.2c-0.4-4.9-3.2-8.6-8.4-10.9c0.7,3.3,3.8,5.4,3,8.7c-0.1,0.5,0.3,1.6,0.2,1.6
		c-3.4,1.3-4.6,4.9-7.3,6.8c-0.8,0.5-1.9,0.2-2.5-0.7c-0.6-0.8-0.8-1.6-0.2-2.6c0.8-1.2,1.7-2.5,2.3-3.9c2.4-5.4,0.9-8.5-4.7-10.3
		c-0.3-0.1-0.5-0.4-0.8-0.7C0,206.6,0,206.2,0,205.7z"/>
	<path class="st1" d="M0,120.2c1.1-0.1,1.7-1.2,2.7,1.3c1.9,4.8,2.2,9.7,3.4,14.5c1.2,4.4,0.4,8.9-0.3,13.2c-0.3,2-0.6,4-0.3,5.9
		c0.5,2.8,1.6,5.7,4.9,6c3.5,0.3,4.3-3,5.4-5.4c0.2-0.5,0.9-1.8,0.2-2.6c-0.5-0.6-0.7-1.7-1.6-1.7c-1,0-0.7,1-0.9,1.6
		c-0.6,1.2-1,3.1-2.9,2.2c-1.6-0.7-1.8-2.3-1.2-4c0.9-2.5,2.7-3.7,5.4-3.5c3.1,0.3,3.7,3,4.2,5.2c0.9,4.7-2,8.5-6.6,9.9
		c-3.1,0.9-5.4-0.2-7.1-2.4S3.2,159,2.6,161c-0.4,1.4-0.8,3-2.6,3.5c0-1.6,0-3.3,0-4.9c1.3-0.5,0.6-0.9,0-1.4c0-0.5,0-0.9,0-1.4
		c3.5,0,1-2.5,1.5-3.8c2.6-6.2,2.1-12.9,1.8-19.4C3.2,130.3,2,127,0,124.3C0,123.1,0,121.6,0,120.2z"/>
	<path class="st1" d="M166.1,283.4c-2.5-1.9-5.4,0.4-8.4-0.9c1.8-1.4,4-1.9,5.5-2c3.8-0.4,6.9-2.9,10.9-2.8c3,0.1,6.1-1.1,9-1.9
		c4.9-1.3,9.8-0.1,14.7,0.4c3.2,0.3,6.3,0.7,9.2-1.1c0.6-0.4,1.7-1.5,2.4-0.2c0.6,1.1-0.6,1.5-1.4,1.9c-0.5,0.3-1.1,0.5-1.1,1.4
		c2.6,1.1,5.3,2.2,7.9,3.3c0.9,0.4,2.2,0.5,2,2c-2.6,0-5.2,0-7.8,0c0.2-1.3-0.5-1.6-1.6-1.8c-1.8-0.4-3.6-0.7-5.3-1.2
		c-11.7-3.1-23.3-4.1-34.1,3C167.5,283.4,166.8,283.4,166.1,283.4z"/>
	<path class="st1" d="M48.1,283.4c0.5-9.7,9.4-15.1,17.8-13.7c6.9,1.1,8.4,3.6,9.3,8.3c0.8,4-0.1,5.3-4.3,4.7
		c-2.2-0.3-4.4-0.4-6.6-0.4c-1.8-0.1-3.2-1-3.3-2.3c-0.1-1.5,1-3.2,2.9-3.5c2.1-0.3,4.4-1,6.3,1c0.5,0.5,1.5,1.4,2.4,0.3
		c0.7-0.9-0.2-1.6-0.5-2.2c-1.9-3.5-8.2-4.9-13.3-3c-4.2,1.5-6.6,4.6-7.5,8.9c-0.2,0.9-0.6,1.5-1.1,2.1
		C49.5,283.4,48.8,283.4,48.1,283.4z"/>
	<path class="st1" d="M0,185.2c1.9,0.1,3.6,1.4,5.7,0.5c1.7-0.8,3.8,0.2,4,1.9c0.3,1.9-1.5,3-3.5,3c-1,0-2.1-0.3-3.1-0.4
		c-0.3,0-0.6,0-0.8,0.1c0.1,0.2,0.2,0.5,0.4,0.7c1.8,2.8,4.6,3.2,7.6,3.1c3.3-0.1,6.6-0.6,9.4-2.6c0.8-0.5,1.9-0.6,2.6,0.4
		s0.2,1.7-0.8,2.2c-0.9,0.5-1.8,1-2.8,1.5c0.1,1.2,1.9,1.4,1.5,3.3c-4.6-2.5-9.7-1.1-14.5-2.2c-2.1-0.5-3.1-3.2-5.5-2.3
		C0,191.3,0,188.3,0,185.2z"/>
	<path class="st1" d="M0,262.9c5.3-1.5,8.6-0.5,10.8,5.6c0.7,2,2.1,3.6,1.9,6c-0.2,3.6-0.6,6.8-4.9,7.6c-0.7,0.1-0.8,0.7-0.8,1.3
		c-0.7,0-1.4,0-2.1,0c-4.9,0-4.9,0-4.9-4.9c1.6-0.4,3,0.3,4.4,0.9c2.5,1.1,4-0.2,5.4-1.9c1-1.2,0.7-8-0.5-8.7
		c-0.9-0.4-2.3-2.7-3.3-0.3c-1.3,3-3.6,2.4-5.9,2.1C0,268.1,0,265.5,0,262.9z M2.7,281.1c-0.1-0.5-0.2-0.9-0.8-1
		c-0.1,0-0.4,0.4-0.3,0.4c0.2,0.4,0.5,0.7,0.8,1C2.5,281.4,2.6,281.2,2.7,281.1z"/>
	<path class="st1" d="M21.2,283.4c0-0.3-0.1-0.9,0.1-1c5.1-3.9,1.5-7.7-0.4-11.2c-1.7-3.2-4.5-5.8-7.4-8c-0.5-0.4-1.1-0.6-0.8-1.3
		c0.3-0.6,0.9-0.5,1.5-0.4c1.1,0.2,1.9,0.8,2.6,1.6c3.2,3.8,7.2,6.5,11.5,9c1.6,1,4.4,2,3.5,4.8c-0.5,1.9-2.4,1.8-6.3,0
		c0.2,2.2,0.3,4.3,0.5,6.4c-0.5,0-0.9,0-1.4,0c-0.7-1.1-1.4-0.5-2.1,0C22.2,283.4,21.7,283.4,21.2,283.4z"/>
	<path class="st1" d="M0,256.5c4.4,2.2,8.3-0.9,12.5-1.1c1.2,0,2.3-2.1,3.5-3.3c1.1-1.2,2.2-2.4,4.1-2c1.1,0.2,1.5,1.1,1.3,1.8
		c-0.4,1.8-0.9,3.9-2.5,4.8c-2.7,1.5-5.8,2.1-8.5,3.8c-1.3,0.8-3.9,0-5.6-0.7c-1.6-0.7-3.2-0.6-4.7-1.1C0,257.9,0,257.2,0,256.5z"/>
	<path class="st1" d="M234.6,283.4c-0.5-2.8,0.5-5.6-0.5-8.5c-0.6-1.8,1.6-1.9,2.9-2.1c1.4-0.2,2.3,0.5,2.3,1.9
		c0,1.7-0.3,3.4-0.4,5.3c2.7-0.5,2.4-3.9,4.7-4.4c0.1,0.1,0.2,0.2,0.3,0.3c1.1,4.8-3,5.8-5.8,7.6C237,283.4,235.8,283.4,234.6,283.4
		z"/>
	<path class="st1" d="M0,243.8c3-0.1,5.4,1.9,8.3,2.1c0.6,0,0.9,0.3,0.6,0.9c-0.3,0.7-0.9,1.1-1.7,0.8c-2.4-0.7-4.7-1.1-7.2-1
		C0,245.7,0,244.8,0,243.8z"/>
	<path class="st1" d="M0,0.9C2.1,0.9,4.2,1,6.3,1C7,1,7.8,1.1,7.6,2.1C7.5,3.3,6.9,3,6.2,2.6C4.1,1.6,2.2,4.3,0,3C0,2.3,0,1.6,0,0.9
		z"/>
	<path class="st0" d="M22.6,283.4c0.7-0.5,1.4-1.1,2.1,0C24,283.4,23.3,283.4,22.6,283.4z"/>
	<path class="st1" d="M97.8,96c-0.3-2.5-0.7-5.1-1-7.6c0.4-2.8-0.9-5.1-2.2-7.4c-0.7-3.1,0.1-4.3,3.4-4.3c8.9,0,17.9,0,26.8,0
		c24.2,0,48.4,0,72.7,0c2.2,0,4.8-1.1,6.4,1.5c1.2,1.9,0.6,9.8-1.1,11.1c-1.6,1.3-2.3,3.6-4.6,4c-1.6-2,0-4.1-0.1-6.1
		c-0.1-2.2-0.9-2.9-2.9-2.9c-6.8,0.1-13.6-1.1-20.3-1.1c-3.7,0-7.4-1.7-11.2-0.1c-1,0.4-2.6-1.1-3.9-1c-6.7,0.4-13.4,0.4-20,0.1
		c-4.4-0.2-4.9,3.8-7,6c-0.6,0.6,0.2,1.3,1,1.1c6.8-1,13.4,1.2,20.1,1.8c4.3,0.4,8.6,0.8,12.7,1.9c4.2,1.1,6.5-1.7,9.8-2.6
		c2-0.5,3.8-2.5,4.4,1.5c0.2,1.9,2.5,1.1,4,1.2c1.2,0.1,2-0.2,2.1-1.6c0.1-1.2,0.6-2.5,1.2-3.6c0.6-1.2,1.6-2.3,3.1-1.6
		c1.4,0.7,1.8,2.3,1.2,3.6c-0.4,0.9-0.6,2-1.6,2.6c-5.8,3.5-11.7,6.1-18.6,3.6c-1.3-0.5-1.3-0.5-3.6,0c3.3,2.6,7.4,2.9,10.6,5.2
		c5.7,3.9,10.1,9.4,16.3,12.7c4.7,2.5,9.7,2.9,14.8,2.9c2,0,2.8-1.9,3.6-3.5c1.1-2.1,2.2-2.8,4.7-1.2c3.4,2.2,5.7-1.3,8.2-2.7
		c2.7-1.5,4.8-4.1,7.2-6.1c0.7-0.6,1.6-2,2.4-0.5c0.6,1.2,2.4,2.9-0.2,4c-9,4.2-16.8,11.2-27.1,12.6c-1.8,0.3-2.4,0.6-1.4,2.7
		c1.5,3-0.4,9.1-3.2,11.4c-1.2,1.1-2.4,1.5-3.6,0.1c-1.1-1.3-1.7-2.6-0.5-4.1c0.4-0.6,1-1,1.5-1.4c5.1-4.2,5-5.9-1.1-9.6
		c-2.9-1.7-6.1-2.9-9.1-4.3c-0.2-0.1-0.4,0.1-1,0.2c0.8,1.5,1.2,3.3,2.3,4.4c2.6,2.6,1.8,6.1,2.7,9.1c1.4,5-1.7,10.3,1.2,15.3
		c0.6,1.1,0.1,4-2.9,3.3c-1-0.2-1.7,0.2-2.2,1.2c-2.8,4.6-5.7,9-7.1,14.4c-0.9,3.6-0.7,7.1-0.6,10.6c-0.9,0.8-1.3-1.1-2.1-0.4
		c-1.3,1.1-2.7,1.8-3.7-0.1c-0.9-1.7-0.8-3.6,0.8-4.8c3.3-2.5,3.5-6.4,5-9.7c0-0.3,0-0.6,0-0.8c-0.2,0.1-0.5,0.1-0.7,0.2
		c-5.2,1.8-9.9,5-15.4,6.1c-3.3,0.7-5.5,3.5-7,6.4c-1,1.9,0.9,4.1,3.3,4c1.8-0.1,4-1.3,4.6,1.5c0.5,2.8-2,3.8-3.9,4.6
		c-2,0.9-3.5-0.4-4.5-2.3c-1-1.9-1.7-4.1-1.2-6.1c0.6-2.5-0.6-2.2-2.2-2c-0.8,0.1-1.6,0.2-2.5,0.2c-1.5-0.1-2.3-0.9-2.6-2.4
		c-0.2-1.2-0.3-2.5,0.8-3.2c1.1-0.6,2.4-0.3,3.3,0.6c1.2,1.2,2.6,1.4,4.2,1.2c1.6-0.2,2.7-1,2.8-2.6c0.2-2.1-1.5-1.2-2.5-1.4
		c-4.3-1.1-8.8-1.7-12.7-3.5c-3.2-1.4-5.4-4.5-7.5-7.5c-3.4-4.9-3.7-10.6-5-16.1c-0.3-1.3,0.3-2.9,0.8-4.3c1.9-5,2.2-10.8,6.9-14.5
		c0.9,0.5,0.8,1.5,0.5,1.8c-3.8,3.2-3.1,8.4-5.5,12.2c-1.8,3-0.1,7.6,2.4,10.3c1.3,1.4,2.9,3,2.4,5.7c-0.8,4.2,3.3,8.7,8.2,10.7
		c6.8,2.7,13.7,3.8,20.9,2.6c8.3-1.4,15-5.6,18.5-13.2c5.9-12.6,3.4-26.6-6.5-36.9c-5.9-6.1-13.2-9.5-20.6-13
		c-3.9-1.8-7.8-3.3-12.1-3c-2.3,0.2-4.2-1.2-6.4-1.6c-3.2-0.5-6.3-0.2-9.4-0.6c-3.9-0.6-5.3,1.8-6.2,4.6c-0.9,3.1-2.4,6-3,9.1
		c-1.1-4.6,1.6-8.5,2.8-12.6c-4.3-1.3-4.6-1.2-4.9,3.1c-0.1,1.6-0.6,3-1.3,4.3c-0.7,1.4-1.8,2.3-3.4,1.2c-1.6-1.1-2.2-2.7-1.5-4.6
		c0.5-1.3,1.4-0.5,2.1-0.3c1.4,0.3,1.9-0.6,2.4-1.6c0.5-1.1-0.1-1.7-0.7-2.5c-0.8-1.2-1.5-0.6-2.3-0.1c-1.1,0.7-2.4,0.9-3.7,0.8
		c-3-0.2-3.7,2.6-5.4,4.2c-0.2-0.1-0.6-0.1-0.6-0.2c0-4.3-3-3-5.1-2.5c-2.6,0.6-3.7,2.3-2.4,5c0.8,1.6,0.2,3.2,0.1,4.8
		c-0.8-0.1-1.1-0.6-1.3-1.3C99.2,100.6,100.6,97.5,97.8,96z M102.1,82.9c-4.6-0.1-4.6-0.1-3.4,4.5c0.4,1.5,0.7,3,1.1,4.4
		c0.2,1,0.5,1.7,1.9,1.3c2.2-0.8,4.2-1.9,6.7-1.8c1,0.1,2-0.8,2.7-1.9c3.3-5.1,6.5-5.3,10.7-0.8c1.8,1.9,6.4,2.2,8.2,0.4
		c1.4-1.4,3.2-3.2,2.6-5c-0.4-1.2-3-1.2-4.8-1.1C119.2,83,110.7,82.9,102.1,82.9z M120,90.2c-1.9-3.6-3.8-3.6-6.8,0.1
		C115.4,90.6,117.5,91,120,90.2z"/>
	<path class="st1" d="M171.1,40c-0.2-0.1-0.5-0.2-0.7-0.3c0.4-1.1,0.4-1.7-1.1-2.2c-3.7-1.2-7.3-1.1-11-0.1
		c-1.9,0.5-2.5,1.5-2.4,3.2c-4.8,0.9-9.5,0.6-14.3,0.2c-3-1.9-6.4-0.6-9.5-0.9c-3.3,3.2-6.6,3.2-9.3-0.1c0.4-3.7,3.4-2.7,6.8-3.1
		c-2.7-2.5-4.7-4.6-7-6.3c-2.6-1.9-5.5-3-8.6-0.5c-2.1,1.7-4.4,2.1-6.6-0.1c-1.2-1.3-2.1-0.1-3.1,0.5c-2.3,1.3-4.5,2.3-7.2,0.8
		c-2.1-1.2-2-2.6-0.6-4.1c2.6-2.8,5.9-3.4,9.6-3.4c0.9,0,2.6,0.9,2.9-1c0.2-1.6-1.4-1.6-2.4-2c-7.1-3-14.5-4.5-22.2-3.6
		c-3,0.3-5.7,1.3-8.1,3.1c-2.7,2.1-3.6,6.1-2,8.4c1.9,2.6,3.7,2.7,7.7,0.3c-0.4-0.4-0.7-1-1.2-1.3c-1.2-0.8-2-1.6-1.6-3.2
		c0.3-1.3,1.3-1.6,2.4-1.7c1.6-0.2,3.1,0.2,4,1.7c1.3,2.1,0.4,5.7-1.7,7.1c-3.2,2.2-7.7,2-10.4-0.5c-2.6-2.3-3-6-1.1-9.7
		c0.5-1,1.2-2,1.8-3.1c-5.6-0.7-12.3,3-14.8,7.8c-0.8,1.6-1.9,3.2-3.1,4.6c-0.9,1.1-1.8,2.8-3.7,1.5c-1.8-1.2-0.8-2.9-0.2-4.1
		c2-3.8,5.3-6.2,8.7-8.5c0.9-0.6,1.9-1,2.8-1.4c0.7-0.3,1.8-0.3,1.9-1.3c0.1-1.4-1.3-0.4-1.8-1c-1.5-1.5-3.5-2.9-2.1-5.3
		c1-2.2,3.1-1.5,5.1-0.6c1.2,0.5,2.2,1.3,3,2.3c1.7,2,3.2,3.4,6.5,1.9c2.2-1.1,5.4,0.2,8.3,0c4.4-0.3,8.9,0,13.3-0.4
		c1.2-0.1,2.3,0.2,3.3,0.9c3.5,2.7,8.1,4,11.5,6.6c4.1,3,8.9,4.7,12.5,8.6c6.3,6.8,14.3,10,23.9,7.7c3.2-0.8,6.5-1.9,9.6-2
		c3.5-0.1,7.1-0.2,10.5,0.2c5,0.6,9.8,0,14.4-1.8c2.3-0.8,4.6-1.6,6.9-1.1c3.6,0.8,7-1.2,10.6-0.2c1.9,0.5,3.1-1.8,4.9-2.4
		c2.7-0.9,4.8-0.6,7.5,0.4c5.4,1.9,11,3.8,16.8,4.4c2.3,0.2,4.6,0.7,6.9,0.6c4.4-0.2,6.1-2.6,4.9-6.8c-0.4-1.2-1.3-2.9,0.3-3.3
		c1.4-0.4,3.2,0.5,4,2.1c1.6,3.3,0.1,7-3.5,8.5c-5.3,2.3-5.3,2.3-0.8,5.9c6.9,5.7,9.3,15.4,5.8,23.8c-1.9,4.6-1.1,6.3,3.4,7.9
		c1.1,0.4,2.6,1.1,2.2,2.7c-0.4,1.5-1.3,1.4-2.7,0.7c-1.1-0.6-2,0.2-1.1,1.4c1.6,2.1,0.3,4.3,0.3,6.4c0,1.4-1.1,2.9-2.7,2.8
		c-3.7-0.1-4.4,2.7-5.1,5.1c-0.9,2.9-2.8,5.1-3.9,7.8c-0.3,0.7-0.7,1.3-1.6,1c-0.8-0.3-0.9-0.9-0.6-1.7c1.2-3.4,1-6.9-0.2-10.2
		c-0.6-1.7-0.4-3.1,0.1-4.6c0.9-2.8,3.2-3.5,5.3-1.6c3.2,2.8,3.9,2.6,5.1-1.4c0.3-1.1,0.9-2.3,0.8-3.3c-0.5-4-2.4-5-5.9-2.8
		c-3,1.9-5.6,4.5-8.9,6.1c-4.5,2.1-9.1,3.6-13.9,4.6c-0.6,0.1-1.2,0.1-1.4-0.6c-0.2-0.8,0.4-1,1-1.2c2.5-0.8,5.1-1.6,7.7-2.2
		c1.9-0.4,3.3-1.5,3.3-3.2c0-1.9-2.2-1.9-3.5-2c-2.6-0.1-5.8-1.2-7.3,2.4c-0.3,0.8-1.1,1.3-2.1,1c-1-0.4-0.7-1.3-0.8-2.1
		c1.2-2.5,2.3-5,3.5-7.5c1.4,0.7,2.9,1.3,4.2,2.2c7.9,5.6,17.6,3.9,21.1-4.8c4.1-10.1,6.2-14.6-2.5-23.8c-4.7-5-10.8-7-17.6-8.6
		c-8.5-2-16.8-2.1-25.3-1.2c-0.8,0.1-1.8-0.4-2.2,0.6c-0.4,0.9,0.5,1.6,1.1,2c1.4,1,1.5,2.6,2.2,3.9c-2.6-0.4-5,2.5-7.7,0.3
		c1.1-1.4,3.3-3,1.9-4.5c-1.4-1.5-4-2.6-6.4-2C182.1,36.4,176.6,38.3,171.1,40z"/>
	<path class="st1" d="M207.2,182.5c-2-0.7-3-2.1-2.7-4.2c0.4-0.2,0.9-0.7,1.2-0.7c4,0.9,4.8-1.8,5.5-4.7c0.5-2.1,1.3-4.2,1.9-6.4
		c1.7-6,6.2-9.6,10.7-13.2c2.6-2.1,5.3-4.1,8.2-6c2.8-1.8,4.9-4.4,6.8-7.3c3.7-5.7,0.8-10.9-4.6-13.5c-0.4-0.2-1.2-0.2-1.2-0.4
		c-1.9-5.7-6.6-3-10-3c-3.8,0.1-5.7,3.5-7.8,6.4c-1.9,2.7-1.5,5.1-0.3,8.1c1.2,3.2,3.8,3.6,6.2,4.3c2.1,0.5,3.4-1.4,2.2-3.1
		c-1.5-2.1-0.2-3.6,0.9-4.6c1.4-1.3,3.7-0.9,5.4-0.3c1.5,0.6,1.7,2.4,1.5,4c-0.5,3.2-4.5,6.4-7.9,6.4s-6.8-0.2-9.2-4.1
		c-0.4,4.1,1.9,6.9,0.4,10.4c-1.8,4.1-5.3,7.4-9.6,7c-2-0.2-4.4-3.5-4.7-6.3c-0.2-2.8,1.6-4.2,3.7-5.3c0.6-0.4,1.6,0.7,1.7,1.3
		c0,1,2.5,0.7,1,2.2c-0.5,0.5-0.8,1.1-1.1,1.7c-0.6,0.9-2.7,1.3-1.3,3c1.1,1.4,2.7,1.7,4.5,1c4.1-1.6,5.1-6.7,3.7-12.9
		c-2.3-9.9,1.4-19.9,12-22.1c11.1-2.3,17.6,3,18.5,13.5c0.4,4.9-2.1,9.9-5.4,13.9c-1.4,1.7-2.3,3.5-2.9,5.5
		c-0.8,2.6,0.9,3.9,2.9,4.8c0.8,0.4,1.7,0.1,2.2-0.6c0.9-1.3-0.6-1.1-1-1.6c-1.1-1.4-1.7-3.2-1.2-4.7c0.6-1.8,2.5-1.3,4-1.2
		c2,0.2,3.1,1.7,2.9,3.4c-0.2,2.7-1.6,5.1-3.9,6.7c-2.1,1.4-4.2,1.2-6.3,0.1c-3.2-1.7-3.8-4.7-1.8-8.7c-1.2-0.7-2.2-0.6-3.1,0.5
		c-3.8,4.2-7.8,8.3-6.2,14.8c0.4,1.6-0.1,3.5-1.7,3.8c-2.2,0.4-2.4-2.2-3.3-3.5c-0.6-0.8,0.9-2.7-1.1-2.6c-1.9,0.1-1.4,2.1-1.9,3.3
		c-4.2,11.8,8.1,21.7,17.7,21.3c4.4-0.2,5.7-2.1,4.7-6.4c-1-4.3-0.5-4.9,3.7-3.7c1.7,0.5,1.9,0,1.9-1.7c0-2.3-0.9-4.9,1.5-7.3
		c1.4,4.2,1.1,8.1-0.4,11.7c-1,2.3-2.5,4.5-4,6.6c-2.1,3.1-5.4,3.1-8.6,2.8c-2.9-0.2-3,0.5-2.4,3.1c0.6,2.7,1.9,5.4,1.1,8.3
		c-0.4,1.4-0.7,3.2-2.9,2.7c-1.8-0.5-2.6-1.4-3.3-3.6c-1.1-3.6,0-5.6,1.5-8.5c1-2-1.8-4-3.6-5c-3.5-2-6.2-4.6-7.9-8.2
		c-1.1-2.4-1.8-1.1-2.6-0.1C210.3,180.9,209,182,207.2,182.5z"/>
	<path class="st1" d="M171.5,3.8c2.2,4.2,7.9,7.4,11.5,7.1c1.9-0.2,3-1.4,3.8-2.8c1.2-2,2.4-4,3.2-6.1c0.4-0.9,0.7-1.1,1.4-0.9
		c0.6,0.1,1.6,0.6,1.2,1.3c-2,3.3-1.4,7.6-4,10.7c-4.1,4.8-14.8,4.2-17.7-1.4c-1.1-2.1-2.3-4.3-2.7-6.8s-5.6-4.1-7.7-2.5
		c-0.7,0.6-0.3,1.3-0.4,2c-0.4,6.6,5,14.7,11.9,18.1c6.1,2.9,12.2,5.5,19.2,3.4c0.7-0.2,1.8-0.6,2,0.6s-0.8,1.1-1.6,1.3
		c-6.1,1.5-11.9,0.8-17.5-2c-1.8-0.9-3.7-1.7-5.8-2.7c0.1,3.8-1,6.7-4.8,8.4c-2,0.9-2.9,0.6-4.1-0.8c-1.5-1.7-0.1-2.7,0.9-3.7
		c4.4-4.6,4.6-6.9,0.8-12.1c-1-1.4-1.8-1.6-2.3,0.1c-2.1,7.1-8.1,10-14,13c-2.3,1.1-4.3,2.6-5.5,4.8c-0.9,1.6-2,1.3-3.3,1.1
		c-1.5-0.3-1.3-1.8-1-2.6c1.5-3.5,0.3-5.3-3.1-7c-4.1-2.2-4.9-9.1-2.1-12.8c1.2-1.5,2.5-2.8,3-4.9c0.6-2.4,7.9-3.3,9.6-1.4
		c1.8,2.1,1.4,4.5-1.1,5.6c-1.6,0.7-2.9,2.3-4.8,1.8c-2-0.4-4-0.2-4.5,2c-0.5,2,0.1,4,1.3,5.9c3.1,4.9,7.8,3,11.9,3
		c3.7,0,6.8-1.4,8.6-4.9c2.3-4.4,3-9,2.3-13.8c-0.3-1.9-1.6-2.2-3-0.8c-0.6,0.6-1,1.2-1.8,1.5c-1.1,0.5-2,0.4-2.9-0.5
		c-0.8-0.7-1.1-1.6-0.8-2.5c0.3-1.2,1.4-1.4,2.5-1.4c9.9,0,19.9,0,29.8,0c1.4,0,2.9,0.2,3.2,1.5c0.2,1-0.7,2.5-1.5,3.1
		c-0.7,0.6-1.4,2.2-3.2,0.9C176.7,5.2,174.2,4.8,171.5,3.8z"/>
	<path class="st1" d="M157.5,108.3c7.4-1,13.5,1.5,18.9,5.5c8.2,6.2,10.8,15,8.2,24.5c-1.4,5.3-6.4,8.9-12.3,9.6
		c-1.8,0.2-3.4,1.2-5.6,0.7c-1.6-0.4-2.4,2.4-3.3,4c-0.7,1.2-0.9,2.7-2.6,3.1c-1.8,0.4-3.5,0.2-4.4-1.4c-1-1.6,0-3.9,0.9-4.7
		c2.5-2.2,1.6-3.3-0.1-5.5c-2.8-3.6-1.5-8-0.3-12c1.3-4.7,0.6-6.4-3.5-7.5c-1.5-0.4-2.3-0.1-1.8,1.7c0.6,2.1,0.2,4-1.7,5.3
		c-0.6,0.4-1.5,0.4-2.2-0.4c-1.8-1.9-1.2-3.9-0.3-5.9c1.6-3.6,7.2-4.8,9.9-1.6c1.8,2,4.1,4.2,4.1,7.4c0,3.3,1.7,5.6,4.5,7
		c4.2,2.1,8.4,2.8,12.2-1c1.2-1.2,2.7-2.1,3.5-3.9c2.6-5.8-0.2-14.1-5.8-17.3c-1.1-0.6-1.9-0.7-1.7,0.9c0.2,1.5-0.8,2.4-1.7,3.3
		c-1.1,1-2.3,2.3-4,1.2c-1.3-0.9-1.9-2.1-1.4-4.1c1.3-5.2-0.5-7-5.9-6.9c-5.2,0-9.6,2.3-14.1,4.4c-0.8,0.4-1.7,1.5-2.4,0.5
		c-0.8-1.2,0.7-1.4,1.4-1.9c1.9-1.3,3.9-2.5,6.2-3.3c3.7-1.4,4.8-4,3.5-7.7c-0.4-1.2-0.2-2,0.5-2.9c0.8-1,1.9-0.9,2.9-0.6
		c1.1,0.4,1.5,1.3,1.6,2.5C160.7,103.8,158.3,105.4,157.5,108.3z"/>
	<path class="st1" d="M220.5,222.5c-1.3-2.8-3.5-2.8-5.8-2.8c-7.2,0.1-9.7,2.1-11.2,8.4c-0.4,1.9,0.1,2.8,1.7,3.6
		c2.6,1.4,5.1,2.9,7.6,4.3c0.7,0.4,1.9,0.4,1.2,1.5c-0.6,1-1.4,0.3-2.1-0.1c-2.1-1.1-4.1-2.1-6.2-3.2c-0.9-0.5-1.9-1-2.7,0.2
		s-0.3,2.5,0.6,3c2.2,1.1,3.9,2.9,5.9,4.3c1.4,1,3.3,0.8,5,0c0.7-0.4,1.5-0.8,2.5-0.2c0.4,0.3,1.7,0.1,1.9-0.3c0.5-0.9-1-1.1-1.1-2
		c1.6-1.1,2.9,0,4.3,0.2c1.3,0.2,2.8,0.4,3.4-1c0.7-1.5-0.5-1.9-1.7-2.4c-0.5-0.2-1.4-1.4-0.8-2.1c1-1.2,1.1-3.7,3-3.5
		c4.9,0.4,6.5-1.7,5.5-6.5c2.3,1.3,2.9,4,1.6,6.4c-1.6,3.1-2.5,6.6-5.3,8.9c-1.1,0.9-0.5,1.3,0.5,1.6c5.3,1.9,11.9,0.1,15.1-4.3
		c0.9-1.2,1.7-2.5-0.1-3.9c-1.4-1.1-2.4-1.8-3.8-0.2c-0.5,0.6-1,2.1-2.1,1.1c-1-1-2.4-2.6-1.6-3.9c1.3-2.2,2.7-4.7,5.8-5.1
		c6.1-0.8,8.9,3.4,6.5,9.8c-1.9,5-7.1,8.6-12.6,8.6c-2.7,0-5.4-0.4-8.1-0.4c-3.4,0-6.8,0.3-10.1,1.7c-3,1.2-11.5-0.5-12.9-3.7
		c-0.7-1.7-1.5-2.3-3-0.6c-1.6,1.8-3.5,2.7-5.8,1c-1.9-1.4-3-0.7-3.5,1.4c-0.4,1.4-1.5,1.9-2.7,1.4c-1.3-0.6-0.8-1.9-0.4-2.8
		c1.1-2.7,3.3-4.2,6.2-4.6c1.2-0.2,2.3-0.2,3.5-0.3c0.9-0.1,1.8,0.2,2.2-1.2c0.3-1.2,0.4-2.8-0.5-3.1c-2.5-0.7-3.7-3.9-6.7-3.6
		c-1,0.1-2.1-0.3-2.6-1.4c-0.3-0.5,0-1.1,0.4-1.6c1.1-1.3,1.9,0.2,2.8,0.5c2.2,0.7,4.5,2.9,6.3,2.5c1.9-0.4,1.8-3.9,3-5.8
		c4.1-6.8,14.1-7.9,19.1-2c2.7,3.2,1.3,8.3-2.7,9.2c-2,0.5-3.8-0.4-4.4-2.5c-0.5-1.9-0.3-3.8,2.4-4
		C218.7,223.1,219.4,222.8,220.5,222.5z"/>
	<path class="st1" d="M272.8,62.1c-0.8-3.6-2.5-6-1.1-8.9c1.2,2.2,2,4.8,4.5,0.9c1-1.6,3.5-1.9,5-0.5c1.6,1.4,1,5.4-0.9,6.6
		c-2.2,1.4-3.7,3-4.7,5.5c-0.7,1.9,0.6,3.6,0,5.5c-1.2,3.4-0.3,7.3-2,10.6c-0.6,1.1-0.4,1.8,0.2,2.8c1.5,2.8,1.3,5.5-1.1,7.7
		c-5.6,5.2-8.8,12.2-13.9,17.7c-3.9,4.2-7.8,8.1-12.8,11.1c-1.3,0.8-2.2,0.4-2.7-0.4s0.5-1.6,1.4-1.9c3.3-1.1,5.8-3.4,8.3-5.7
		c4.1-3.8,4.9-6.6,2.9-12c-0.2-0.6-0.8-1.6-0.6-1.9c2.8-3.2,1.3-6.3,0.3-9.7c-0.4-1.3,0.1-3.3,1.5-3.6c1.6-0.4,3.9,0.4,4.6,1.6
		c1.2,2.2,2.8,4.8,1.9,7.6c-0.5,1.7-1.9,4.2-0.4,4.8c1.6,0.6,2-2.3,2.9-3.7c3-4.8,4.9-10.3,5.8-15.8c0.8-5.3,1.7-11-1.4-16.1
		c-1.4-2.4-3.3-4.4-6.1-4.8c-2.9-0.4-5.6,0.9-6.4,3.5c-0.7,2.4,0.9,4.9,3.4,6.2c3.4,1.8,5.9,4.2,6.1,8.3c0,0.4,0,0.8-0.1,1.2
		c-0.2,1.8-1.1,3-3,3.3c-0.9,0.1-2,0.2-2.5-0.8c-0.8-1.7-0.3-3.7,1-4.5c3-1.9,1.1-2.9-0.4-4c-1.1-0.8-2.4-1.4-3.6-2.2
		c-3.7-2.7-4.7-5.7-3.6-10c1.1-4.3,6.2-6.1,10.9-4C268.5,57.7,270,59.8,272.8,62.1z"/>
	<path class="st1" d="M90.1,54.9c-0.2,0.5-0.4,0.9-0.6,1.4c-2.2-1.5-4.5-1.6-7.1-1.2C80,55.5,78.6,54,77.9,52
		c-0.8-2.3,0.9-3.9,2.6-4.3c3.4-1,1.7-2,0.5-3.4c-5.4-6.1-17.3-8.1-24.8-4.8c-5.4,2.4-10,5.1-13.2,10.4c-1.6,2.7-1.8,5.4-2,8.2
		c-0.5,6.2,7.2,16.4,13.6,16.9c2.6,0.2,4.5-0.2,6.3-2c1.7-1.8,3.5-5.5,5.9-0.4c0.5,1,1.9-0.2,2.6-0.9c3.5-3.4,3.3-8,3.6-12.3
		c0.1-1.8,0.3-3.5,0.8-5.7c2.5,3.7,1.6,7.2,1.1,10.7c-1.4,9.7-8.4,12.8-14.5,13.3C55.8,78,51,77.1,47.1,74c-1.1-0.9-1.9-1.2-3.3,0.1
		c-1.3,1.2-3.2,2.9-5.4,0.8c-2-1.9-0.9-3.9-0.1-5.8c1.2-2.9,1.8-5.5,0.9-8.8c-0.9-3.4-0.5-7,1.7-10.3c-1.7-0.7-3.9,0.2-5-2
		c-1-1.9-0.7-3.4,1.2-3.1c5,0.8,7.8-2.8,11.4-4.8c6.8-3.8,14.1-5.6,21.9-3.9c3.6,0.8,6.5,3.7,10.6,4c0.2-1,0-2.2,0.9-3.2
		s2-1.2,3.2-1.1c1,0.1,1.9,1.1,1.8,2C86.2,43.8,88.5,49.3,90.1,54.9z"/>
	<path class="st1" d="M282.6,12.6c0,7,0,13.3,0,19.6c0,1-0.3,1.8-1.1,2.5c-0.6,0.5-1.3,1.2-0.3,2c2.1,1.8,1.4,4.3,1.4,6.6
		c0,0.8,0.3,1.7-0.9,2c-0.9,0.2-1.6-0.1-2.2-0.8c-0.8-0.8-2-1.6-2.3-2.6c-1.3-4.2-4.4-4-8-4.6c-12.2-2.1-15.6-8.8-13.9-21.1
		c0.9-6.4,4.4-10.7,9.4-14.3c2.4-1.7,5.4-1.4,7.3-0.6c1.8,0.8,1,4.2,1.2,6.4c0.1,1.2-0.7,2.5-1.9,2.6c-1.8,0.2-3.3-0.8-4.3-2.5
		c-2.3-3.7-2.6-3.8-5.3-0.2c-4.1,5.4-5.6,10.7-2.3,15.7c2.4,3.6,7.5,6.3,11.4,5.5c4.4-0.9,7.2-4.1,8-9
		C279.3,17.4,279.5,14.8,282.6,12.6z"/>
	<path class="st1" d="M243.6,275.4c-0.8-4.2,0.1-8.8-2.6-12.6c-1.9-2.5-2.6-6.1-6-7.3c-5.8-2.2-11.3-0.9-16.4,2.4
		c-2.4,1.6-2.2,7.1,0,8.9c0.8,0.7,1.5,0.7,2.6,0.3c5.2-1.7,7.5,1.5,7.7,5.7c0.1,2-1.9,2.3-3.4,2.1c-5.8-0.7-13.4-6.8-12.5-13.9
		c0.3-2.5,3.3-6.3,5.8-6.7c1.7-0.3,2.6-0.7,1.3-2.6c-0.4-0.5-0.2-1.4-0.5-1.9c-1-1.4-2.1-3.1-0.1-4.1c1.8-0.9,3.5,0.2,4.7,1.9
		c2,2.9,4.8,4.5,8.4,5c5.3,0.7,8.2,4.7,10.7,8.8c1.3,2.1,2,2.3,3.2,0c2.8-5,2.2-8.7-2.2-11.1c-1.9-1-2.7-2.2-1.9-4.1
		c0.6-1.4,5.1-2.3,6-1.2c1.3,1.6,3.4,2.6,3.7,5c0.3,2.1,1.4,2.1,3,1.3c2.3-1.2,4.5-2.5,6.8-3.6c6.1-2.9,12.4-2.6,18.7-1.2
		c1.1,0.2,2.4,0.5,1.9,1.9c-0.4,1.1-1.5,0.4-2.4,0.1c-11.7-3.1-21.4,1-29.2,9.4c-2.9,3.1-5.5,7.2-4.6,12.5c0.2,1.2,1.4,4.8-2.2,5.4
		C243.8,275.6,243.7,275.5,243.6,275.4z"/>
	<path class="st1" d="M138.1,101.4c-0.3,2-1.1,3.2-2.2,3.7c-2.3,1.2-4,2.4-2.4,5.3c0.4,0.7-0.1,1.3-0.8,1.7
		c-8,4.7-7.8,12.2-6.1,19.7c1.7,7.4,3.6,14.7,7.2,21.5c4.4,8.3,8.8,16.6,15,23.8c2.2,2.6,4.6,4.8,7.7,6.3c2.3,1.1,4.1,2.9,4.9,5.6
		c1,3.4,7,5.3,10.1,5.6c3,0.2,6-0.9,8.9,0.3c-4.3,2.2-8.7,2.8-13.2,1.1c-5.3-2-9.3-5.8-13.1-9.7c-1.8-1.9-4.2-3.4-4.2-6.5
		c0-0.3-1.2-0.7-1.9-1c-3.9-1.7-5.3-6.7-10-7.6c-0.7-0.1-2.3-1.5-1.6-2.7c2-3.9-0.5-7.2-1.9-10.1c-3.4-7.1-6.6-14.2-8.4-21.9
		c-0.3-1.3-0.9-2.6-1.4-3.9c-0.8-2-2-2.8-4.3-2.4c-3.5,0.6-4.9-1-4-4.3c0.7-2.8,3.5-1.7,4.7-1.5c3.4,0.6,2.8-1.2,2.7-3.2
		c-0.1-3.4,0.2-6.9-0.5-10.3c-0.2-0.8-0.1-2.1,1.1-2.3c1.5-0.3,1.3,0.9,1.4,1.8c0.4,2.7,1.4,1.5,2.3,0.3c2.4-2.9,4.5-6,7.7-8.2
		C136.2,102.2,136.9,102,138.1,101.4z"/>
	<path class="st1" d="M151.4,258.6c3.3,3.9,10.3,2.4,13-0.9c2.4-2.9-0.2-5-1.8-6.6c-5.2-5.3-11.7-5.1-17.1-1.7
		c-3.8,2.3-4.8,5.9-3.7,10.1c1,4.1,4,6.4,7.7,7.4c3.8,1.1,7.8,1.4,11.7,2c0.6,0.1,1.6-0.6,1.7,0.5c0.1,0.9-0.4,2.1-1.6,1.9
		c-4.1-0.7-5.4,3.1-7.8,4.9c-1.2,0.9-1.8,3-3.6,2.6c-1.4-0.3-2.3-1.7-2.7-3c-0.5-2,0.9-3.2,2.1-4.5c0.4-0.5,1.2-0.7,1.9-1
		c-0.3-1.4-1.5-1.5-2.4-1.6c-5.4-0.8-8.2-4.2-9.5-9.4c-0.7-2.7-1.4-5.3-4.3-6.9c-1.1-0.6-2.8-2.6-1.2-4.4c1.7-1.9,3-0.7,4.2,0.9
		c1.5,2,2.7,1.9,4.7-0.1c3.4-3.4,7.6-5,12.8-3.6c3.1,0.8,6.4,1,8.8,3.5c1,1.1,2,0.3,2.8-0.3c1.3-1,2.5-2.2,3.6-3.3s2.3-2.3,3.9-0.8
		c1.6,1.5,1.1,4-0.2,4.6c-4.6,2.1-6.3,5.7-8.3,10.1c-2.3,5-12.5,5.1-16.3,1c-1.2-1.3-1.9-2.7-0.7-4.4c1.3-1.9,3-3.7,5.4-3.1
		c1.7,0.4,3.3,2.2,2.8,4.3c-0.4,1.9-2.2,1.7-3.7,1.8C152.9,258.7,152.3,257.8,151.4,258.6z"/>
	<path class="st1" d="M279.1,131c-0.5,1,0.6,2.8-1.7,3.5c-2,0.6-2.9-0.5-4-1.7c-1.8-1.9-3.1-3.9-2.2-6.7c0.6-1.9-0.4-2.8-2-3.5
		c-3-1.3-7.4,0.2-8.7,3.3c-1.8,4.3-2.5,9-1.1,13.3c2,6,7.6,7.7,13.3,8.6c2.4,0.3,4.9,0.5,7.3-0.5c0.9-0.4,2.2-0.8,2.5,0.8
		c0.3,1.4-0.6,1.9-1.8,2.1c-0.8,0.2-1.6,0.6-2.4,0.6c-7.8-0.9-13.9,2.7-19.4,7.6c-2.1,1.9-2.4-1.1-4.1-1.1c-2.5,0.1-5.4-3.9-5.5-6.5
		c0-1.1-0.6-2.5,1-3.1c1.5-0.6,2.5,0.5,3.2,1.5c1,1.4,2.3,2.2,3.7,3.1c1.7,1,3.4,0.9,5.1,0.6c1.5-0.3,3.3-0.9,3.7-2.2
		c0.4-1.3-1.3-2.2-2.3-3.1c-3.9-3.3-7.4-6.8-7.7-12.4c-0.1-2.6-2.3-3.9-4-5.5c-1.4-1.3-3.6-3.1-1.8-4.7c1.2-1.1,4.4-1.4,5.4,1.7
		c0.2,0.6,0.7,1.1,1.3,0.8c0.5-0.2,0.9-0.8,1-1.3c1.1-7,7-9.4,14.6-5.4C276.2,122.5,279.3,127.3,279.1,131z"/>
	<path class="st1" d="M11.5,246.8c3.1-0.9,6-1.9,9.3-1.9c2.8,0,4-2.8,5.4-4.7c1.5-1.9,2.7-3.9,4.5-5.7c5.2-5.1,5.2-16.1,1.5-21.3
		c-2.7-3.8-3.6-8.7-7.8-11.4c-1-0.6-3.4-0.9-2.7-2.6c0.5-1.3,2.6-0.6,3.9-0.4c3.7,0.5,5.4-1.6,6.8-4.3c0.5-0.9,0.7-2.2,2.1-1.7
		c1.3,0.4,2.1,1,2.2,2.7c0.1,5.2-1.6,7.1-7.6,7.8c1.2,2.6,2.4,5.2,3.9,7.3c4.9,6.5,3.6,13.5,2.7,20.5c-0.6,4.3-2.8,8-5.1,11.9
		c-5.2,8.5-2.3,12.9,5.3,17.3c1,0.6,1.4,0.1,2.2-0.3c3.1-1.4,6.8-1.4,9.2-4.5c0.3-0.5,1.4-0.5,1.9,0.1c0.4,0.5-0.1,1.1-0.4,1.5
		c-2.4,3.2-6.3,4.1-9.7,5c-3.2,0.8-6.3,1.4-8.8,3.7c-1.1,1-1.8,1-2.1-0.6c-0.1-0.3-0.4-0.7-0.3-1c2.6-6-2.7-11.3-1.4-17.2
		c0.6-2.5-1.3-1.5-2.4-1.1C19.9,247.3,15.7,247.8,11.5,246.8z"/>
	<path class="st1" d="M251.3,170.3c1.1,3.7,0.3,7.1,0.3,10.3c0,2.9,1.1,5.3,2.7,6.8c3.2,3,4.2,7.6,8.4,10c2.7,1.5,5.5,2,8.2,2.3
		c2.8,0.3,5.9,0.4,8.7-0.9c0.8-0.3,2.6-1.4,2.9,0.4c0.4,1.8-1.5,1.2-2.5,1.5c-5,1.4-9.9,0.9-14.8-0.3c-1.5-0.4-3,0.3-4.6-0.5
		c-1.4-0.7-1.3,1-1.1,1.7c0.7,3.3-0.2,6.2-1.9,9c-1.2,2,0.4,3.9,0.2,5.8c-0.1,1.2,0.4,2.4-1,3c-1.3,0.6-2.5,0.1-3-1
		c-1.5-2.9-4.1-2.2-6.6-2.4c-9.6-0.9-14.7-7-11.8-15.9c1.5-4.6,10.8-6.4,14-2.8c1.1,1.3,1.7,3.4,0.6,4.7c-1.5,1.8-3.4,0.9-4.7-0.8
		c-1.5-1.8-3-3.8-5.5-1.9c-2.3,1.7-3.4,4.3-2.8,7.3c1.3,5.8,7.2,7.4,13.4,6.6c4.1-0.5,7.1-5.5,7.1-10.2c0-2.4-0.8-4.2-2.1-6.1
		c-5.2-7.6-6.4-16.1-5.3-25.1c0-0.3,0.2-0.7,0.3-1C250.4,170.9,250.6,170.8,251.3,170.3z"/>
	<path class="st1" d="M277,161.9c-5.8,1.1-7.6,5.1-9.6,8.5c-1.6,2.7,0.6,6.9,4.3,8.9c1.5,0.8,2.9,1.8,4.3,2.9c3.7,3,4.1,5,0.7,9.6
		c-0.9,1.3-2.3,2.3-3.9,1.4c-1.3-0.7-1.6-2.1-1.6-3.6c0-1.8,1.4-2.3,2.7-2.8c0.7-0.2,1.5-0.2,2.6-0.3c-1.2-3-3.5-4-6.1-4.9
		c-3.8-1.3-7.5-2.5-8.6-7.4c-1.6-7.2,4.6-14.5,11.9-13.8c2.2,0.2,4.6-0.4,6.9-0.3c0.7,0,1.5-0.5,1.7,0.4c0.1,0.6,0,1.6-0.5,1.9
		c-4.2,3.2-3.1,6.8-1,10.6c0.3,0.5,0.5,1,0.8,1.6c0.7,1.4,1.4,3.4,0,4.1c-1.9,0.9-4,0.1-4.8-2.2c-0.6-1.6-0.9-3-3.2-3.5
		c-1.8-0.4-1.8-5.2-0.2-7.2C274.5,164.6,275.5,163.6,277,161.9z"/>
	<path class="st1" d="M254.6,272c-1.9-9,5-11.5,10.9-14.9c2.8-1.6,5,0.3,6.6,1.8c2.1,2.1,4.6,4.3,4.5,7.9c0,1.8,2,2.8,2.9,4.2
		c0.4,0.7,1.9,1.4,0.7,2.2c-1,0.7-2.2,0.1-2.7-0.9c-1-2.2-2.9-3.9-4-6c-2-3.6-5.3-4-8.8-3.5c-3.1,0.5-4.1,3.5-5.8,5.5
		c-0.3,0.4-0.3,1.3,0.4,1.4c0.8,0.1,1.7,0.4,2.6-0.4c1.5-1.3,4.4-2.3,5.2-0.8c1.7,3.1,5.1,3.7,6.9,6.3c0.7,1,1.2,2.3-0.1,3.3
		c-1.3,1.1-2.4,1.5-3.8,0c-2.5-2.6-5.4-4.5-9.3-3c-2.1,0.8-3.6,2.1-3.4,4.7c0.1,0.7,0.5,1.9-0.8,1.9c-1.1,0-1.2-1.1-1.2-1.9
		C255.1,277.4,254,274.8,254.6,272z"/>
	<path class="st1" d="M122.3,1c-0.2,1.6-1.3,1.7-2,2.7c3.9,1.1,6.3,3.3,5.8,7.6c-0.7,5.9-8,9.4-13,6.2c-1.8-1.2-2.1-3.1-1.7-5
		c0.4-2.1,1.8-3.5,4.2-3.6c1.3-0.1,2.3,0.3,2.8,1.6c0.6,1.6-0.7,2-1.8,2.5c-0.7,0.3-1.9-0.1-1.9,1c0.1,1.2,1.3,1.2,2.2,1.4
		c2.3,0.5,7.3-2.2,7.5-4c0.3-2.6-3.4-6.1-6.7-6.4c-3.3-0.3-6.5,0.8-9.6,1.7c-5.9,1.6-11.6,0.9-17.5,0.5C85,6.8,79.4,6.1,74,4.7
		c-3-0.8-6.1-1.4-9.3-3.1c3.2-1.4,5.7-0.3,8.2,0.7c1.1,0.4,2,1.1,3.1-0.2c2-2.2,4.5-1.6,6.5-0.4c5.3,3.1,10.8,4,16.7,3.2
		c4.2-0.5,8.8-0.1,12.4-2.3C115.2,0.5,118.5,1.3,122.3,1z"/>
	<path class="st1" d="M196.2,258.1c-3.8,0.4-7.5,1-11.2,1.1c-2.8,0.1-3.4-2.4-5.2-3.3c-0.9-0.5,0-2.1,0.8-2.7
		c1.7-1.1,3.4-2.5,5.8-1.4c1.8,0.9,3.3,2.4,5.5-0.1c1.1-1.3,3.8,0.1,5.7,0.7c3.3,1.1,6,0.4,8.5-1.9c0.6-0.5,1.2-1.9,2.3-0.8
		c0.9,0.9-0.4,1.4-0.8,2c-2.4,3.5-6,5.5-9.3,7.9c-4,2.8-8.3,5.2-11.8,8.7c-0.9,0.9-2,1.5-3.2,1.3c-5.6-0.6-11.1,1.6-16.7,1.1
		c-0.9-0.1-2.5,0.5-2.6-1c0-1.5,1.4-0.7,2.2-0.7C177.3,268.4,187.2,264.7,196.2,258.1z"/>
	<path class="st1" d="M178.3,223.2c-6.6,5.4-10.8,13.1-18.2,17.4c-2.6,1.5-4.6,3.7-8.1,1.1c-1.3-1-4-0.2-6.1,0.3
		c-4.7,1-9.3,2.3-14.1-0.2c-2.7-1.4-3.8-3.8-5-6.1c-1.9-3.6-4.8-5.7-8.4-7c-3.7-1.4-6.4,0.8-9,3.3c-0.5,0.5-0.5,2.2-1.8,1.3
		c-1.2-0.9-0.6-2.5,0.1-3.1c3.4-3.1,8.4-5.4,13-2.9c3.5,1.9,6.2,4.5,8.1,7.9c2.6,4.9,4.8,7.5,11.8,3.7c2.6-1.4,5.9-2.6,9.2-2.7
		c2,0,3.7,0.2,5.1,1.7c1.8,1.9,3.3,1.5,5.3-0.1c5.1-4.3,9.9-9.1,14.8-13.6C176,223.4,176.8,222.6,178.3,223.2z"/>
	<path class="st1" d="M203.4,194.3c0.5-1.4,1.7-2.4,2.6-3.5c3-1.5,5.9-2.3,8.7,0.4c3.2,3.1,4.3,7.9,2.6,12.2
		c-1.5,3.7-0.9,3.9,3.1,4.8c2,0.4,4.9,1,5.8,3.8h0.1c-2.5,0.2-4.7-0.8-6.9-1.8c-2.3-1-4-1.6-6.3,0.9c-4.9,5.2-11.4,8.1-18.3,10.1
		c-0.5,0.1-1.4,0-1.6-0.4c-0.4-0.8,0.2-1.4,0.9-1.6c3.7-1.3,7.1-3.2,10.6-4.9c2.8-1.3,5.1-3,7.6-6.3c-4.2,0.9-7.4,2-10.7,1.2
		l0.1,0.1c1.8-2.5,4.7-2.5,7.2-2.5c6.7,0.1,7.5-4.8,5.5-10.2c-0.6-1.6-1.1-3.5-3.1-4.2c-0.6-0.2-1.2-0.4-1.5,0.2
		c-0.3,0.4-0.1,0.9,0.4,1.1c1.6,0.7,1.7,2,0.9,3.2c-0.8,1.1-1.4,2.7-3.1,2.4c-1.5-0.3-3.3-0.5-3.8-2.5
		C203.7,195.9,203.5,195.1,203.4,194.3z"/>
	<path class="st1" d="M260.7,228.8c-1.8,2.4-3,3.9-5.2,3.3c-0.8-0.2-1.3-0.6-1.2-1.5c0.2-2.3,1.4-4,3.5-4.9
		c4.3-1.8,7.8-4.7,10.6-8.4c1.5-1.9,3.9-2.5,5.8-4.4c-2.2-0.7-4.1-1.3-6-2.1c-0.9-0.4-1.8-1.1-2.5-1.9c-1.2-1.2-2.3-2.9-0.8-4.3
		c1.3-1.2,3.4-0.3,4.3,0.9c3,4,7.6,5,11.9,6.7c-0.2,1.6-1.8,1.4-2.7,1.7c-7.8,2.1-12.3,7.7-15.6,14.6c-1.8,3.9,1,6.4,3.3,8.9
		c1.3,1.4,2.7,2.7,1.3,4.4c-1.5,1.8-3.7,2.4-6.1,1.8c-1.1-0.3-0.7-1.3-0.7-2.1C260.7,237.9,260.7,233.9,260.7,228.8z"/>
	<path class="st1" d="M7,177.3c0-6.8,7.9-14.2,13.9-13.1c3.2,0.6,5.6,3,7,6.2c0.9,1.9,1.5,3.4,3.4,0.6c0.6-1,2-2.3,3.5-0.8
		c1.4,1.4,1,3-0.3,4c-4,3.3-5.7,7.6-6.1,12.6c-0.1,0.8-0.3,1.5-0.9,1.8c-1.3,0.7-2,3.5-3.6,2.2c-1.7-1.4,1-2.2,1.7-3.3
		c2.4-4.1,1.4-8.3,0.8-12.5c-0.7-4.5-2.5-6.5-9-6.6c-2.8,0-3.3,1.7-2.6,3.6c1.3,3.4-0.9,5.3-2.7,7.3c-1.1,1.2-2.5,1.4-4.2,0.8
		C5.8,179.3,6.8,178.1,7,177.3z"/>
	<path class="st1" d="M210.5,0.4c1.3,4.3,1,8.1,0.4,11.8c-0.5,3,0.9,3.6,3.1,3.5c3.1-0.1,6.2-0.3,9.2,0.7c1.9,0.6,3.3-1.5,5.2-1.3
		c1.5,0.2,3.1,0.2,3.1,2.1c0,1.5-0.2,2.9-2.7,3.1c-2.7,0.2-1.2,2.6-0.6,3.6c0.7,1.3,1.3,2.4,1.3,3.9c-0.1,1.9-1.5,2.5-2.9,2.4
		c-1.7-0.1-1.8-1.5-1.5-2.9c0.9-5.2-2.5-9.6-7.8-9.9c-4.5-0.2-8.1,0.8-11.4,4.7c-2,2.4-6,3.2-9.5,3.7c3.8-2.3,3.6-7.6,8.3-9.7
		c3.8-1.7,4.2-6.5,4.4-10.6C209.3,3.9,208.9,2.3,210.5,0.4z"/>
	<path class="st1" d="M68.1,221.3c0.4,5.1-1.6,8.7-6.3,10.7c-2.4,1.1-5.9-0.2-7-2.7c-1.2-2.7-0.1-6.6,2.3-7.6
		c1.8-0.7,3.7-0.7,3.1,2.1c-0.3,1.5,0.4,1.6,1.5,1.6c1.8,0.1,3.2-0.4,4.2-2c1-1.5,0.6-3-0.4-4.2c-1.7-1.8-3.5-3.5-5.9-4.6
		s-4.9-2.1-6-4.9c-0.3-0.7-1.2-1.4-0.1-2.1c0.7-0.5,1.5,0.2,1.7,0.8c1.4,3,4.5,3.3,7,4.6c1.5,0.8,3.1,0.8,4.6-0.4
		c1.7-1.4-0.5-1.9-0.5-2.8c0-1.6-0.1-3.4,1.4-4.4c1.1-0.7,2.6-0.8,3.6,0.1c1.3,1.2,1.6,2.8,0.9,4.5c-0.3,0.8-0.8,1.4-1.1,2.2
		c-0.9,1.8-3.8,1.8-4,3.8C66.8,217.8,67.7,219.6,68.1,221.3z"/>
	<path class="st1" d="M272,104.6c-3.2,1.6-2.8,4-2,6.1s1.9,4.4,4.8,4.4c1.1,0,5.5-5.3,5.7-6.9c0.4-3-0.2-5.9-0.7-8.7
		c-1.4-7.3,0.9-14.2,2.6-21.3c0.1,0.8,0.2,1.7,0.2,2.5c-0.6,9.4,0,18.8,0,28.1c0,3.8-3.5,7.7-7.1,8.7c-2.2,0.6-3.2-0.9-4.6-1.6
		c-4.3-2.3-5.7-10.6-2.1-13.6c1.8-1.5,4.3-0.6,6.3,0.6c1.7,1,2,2.6,1.4,4.3c-0.4,1.2-1.3,2-2.6,1.8c-1.1-0.1-1.9-0.9-1.9-2.2
		C272,106.2,272,105.6,272,104.6z"/>
	<path class="st1" d="M34.5,107.1c0.3-4.5-2.4-7.2-3.7-10.6c-0.3-0.9-1.1-1.8-0.1-2.4c0.9-0.6,1.6,0.2,2.3,1
		c4.8,5.4,5.3,16.2,0.4,21.1c-1.8,1.8-4.1,5-7.3,3.8c-4.1-1.5-7-4.4-7.7-9.1c-0.5-3.5,0.9-6.4,3.1-8.9c1.8-2,4.2-1.9,6.4,0.3
		c2.1,2,2.1,4.2,0.2,6.1c-1,1-2.1,1.1-3.2,0.7s-2.2-1-1.4-2.6c0.3-0.7,0.3-1.9-0.8-2c-1-0.1-1.2,1-1.4,1.7c-0.5,3.3-0.7,6.5,1.9,9.3
		c1.4,1.5,2.9,1.9,4.7,1.1C30.8,115.3,34.5,109.6,34.5,107.1z"/>
	<path class="st1" d="M52,58.7c-0.3-6.4,7.5-13.5,14.4-10.8c1.8,0.7,3.8,0.8,5.6,1.9c0.9,0.5,1.2,1.7,0.8,2.4
		c-0.4,0.8-1.5,0.5-2.2,0c-1.5-1.3-3.3-1.1-5-1.4c-1.4-0.2-2.9-2.2-4.3,0.1c-1.4,2.3-0.8,5.9,0.9,7.5c1,1,4.6,0.8,2.3,3.7
		c-2.3,2.9-7.6,4.2-9.3,2.2C53.8,62.6,51.4,61.3,52,58.7z"/>
	<path class="st1" d="M83.4,223.2c0.6,7.8-5.1,11.5-10.8,15.1c-4.7,2.9-9.7,4.1-15.2,2.4c-0.8-0.3-2.2-0.2-2.1-1.3
		c0.1-1.4,1.4-1,2.2-0.8c4.6,1.3,9,0.1,13.3-1.2c3-0.9,8.8-8.1,8.8-11.3c0-2.3-2.1-3.1-3.3-4.1c-1.8-1.4-2-3-1.5-4.5
		s2.1-2.8,3.7-2.7c1.8,0.2,3.9,0.9,4.3,2.9C83.4,219.5,84.4,221.2,83.4,223.2z"/>
	<path class="st1" d="M211.7,90.4c0.3-0.9,0.6-1.7,0.9-2.6c1.1,0,2-1.8,3.1-0.4c1,1.2-0.8,1.4-1.1,2.2c-0.6,1.5,0.2,1.8,1.5,1.8
		c2-0.1,4.3-0.7,6.1-0.1c4.6,1.7,5.7,3.8,4.3,9c-1.6,6-8.9,10.1-14.9,8.9c-1-0.2-2.1-0.5-2.9-1.1c-1.6-1.1-2.6-2.7-1.3-4.5
		c1.4-1.9,3.1-1.4,4.4,0.1c2.2,2.6,4.8,3.3,7.9,1.7c2.7-1.4,4.1-3.9,3.7-6.6c-0.5-3-2.9-4.6-6.1-4.8
		C214.6,93.9,212.1,93.8,211.7,90.4z"/>
	<path class="st1" d="M255.9,7.1c-3.4,5.4-8.8,4-13.8,4.7c0,0-0.2,0.3-0.1,0.4c1,1.7,3.1,3.3,0.5,5.4s-3.6-0.4-4.6-1.8
		c-3.5-4.8-8-8.5-12.3-12.5c-0.6-0.5-1.4-1.2-0.5-2c0.7-0.6,1.4-0.1,2.1,0.6c3.1,3.6,7.1,5.7,11.5,7.1c3.6,1.1,7.2,1.1,9.5-2.9
		c0.8-1.4,1.8-2.2,3,0C252.2,7.9,253.8,8.6,255.9,7.1z"/>
	<path class="st1" d="M202.1,178c-0.5,0.2-0.9,0.4-1.4,0.6c-3.2,1.7-6.3,3.8-10.3,2.4c-0.8-0.3-1.7-0.4-2.2-0.9
		c-1.2-1-3.7-2.2-2.7-3.5c1.2-1.6,2.3,1.1,3.5,1.7c2.8,1.4,5.7,1.1,8.3-0.1c2.9-1.4,5.2-3.3,5.2-7.4c-0.1-3.3,0.2-6.3-3.7-7.5
		c-1.9-0.6-3.7-0.9-3.8,2c-0.1,1.9-1.2,3-3,3.4c-1.1,0.3-2-0.3-2.6-1.3c-0.9-1.6-0.3-2.9,0.6-4.2c2.3-3.3,5.4-4.4,9.5-2.8
		c3,1.2,4.8,3.2,5,7.1C204.6,171.3,204,174.7,202.1,178z"/>
	<path class="st1" d="M262.5,45.2c-3.1-1.8-6.7-1.3-9.5-3.1c-1.2-0.8-3.2-1.4-2.7-3.2c0.4-1.8,2.3-2,4-1.9c0.9,0.1,1.9,0,2.7,0.5
		c4.6,3.2,9.6,6,12.7,10.9c0.5,0.8,1.3,2.1,0.2,3.1c-1.1,0.9-2.1,0.2-2.6-0.8c-0.9-1.8-2.5-0.7-3.8-0.9c-1.8-0.2-4.4,1.1-4.9-1.8
		C258.3,45.5,261.5,47.1,262.5,45.2z"/>
	<path class="st1" d="M225.7,171.6c0.3-5.8,5-9.8,10.7-8.8c2.5,0.4,5.5,0.2,6.8,3.3c0.4,1,1,2.1,0.1,2.8c-1,0.7-1.6-0.5-2.2-1.2
		c-1.9-2.7-4.7-3.2-7.7-2.7c-1.3,0.2-2.3,1.1-2.6,2.5c-0.2,1.2,1,1.2,1.5,1.3c2.6,0.8,2.3,2.7,1.6,4.5c-0.7,2-1.6,4.5-4.4,4
		c-2.1-0.3-3.6-1.7-3.8-4C225.6,172.8,225.7,172.2,225.7,171.6z"/>
	<path class="st1" d="M117.8,39.8c-0.4,0.4-0.8,0.8-1.3,1.2c-2.9-2-6.2-2.8-9.7-3c-3.3-0.2-5,2-3.6,4.6c-2.3,1.3-4.6,2.6-6.9,3.9
		c-1.4-0.7-1.1-2-0.9-3.1c0.4-2.2,6.5-6.9,8.8-7.2c2.1-0.3,4.1-0.5,6.1-1.7C113.6,32.4,116.1,34.3,117.8,39.8z"/>
	<path class="st1" d="M111.6,128.4c-0.9,0.1-1.7-0.2-2-1.1c-1.3-4.6-3.7-8.8-4.6-13.5c1.6,0.1,1.7-0.8,1.8-2.1c0.3-4,0.9-8,1.4-12
		c0.1-0.5,0.6-0.9,1.1-1.5c1.3,2.7,1.7,5.6,3.3,8c1.3,2,0,4.3-1.6,5.7c-2.8,2.5-3,5.2-1.8,8.4C110.1,123,110.8,125.8,111.6,128.4z"
		/>
	<path class="st1" d="M282.5,224.7c-0.7-0.2-0.8-0.3-0.9-0.3c-1.4-0.7-1.6-3-3.5-2.9c-1.2,0.1-3.7,6.7-3.2,8.2
		c0.7,2.2,1.6,4.3,4.6,3.9c0.7-0.1,1.4,0,2.1,0c0.5,0,0.9,0.2,0.9,0.8c0,0.5-0.3,0.7-0.8,0.9c-3.6,2-8.6-0.6-8.9-4.7
		c-0.3-4.6,0-9,4.1-12.3c1.5-1.2,3.1-1.8,4.8-1.3c1.8,0.5,0.6,2.2,0.8,3.4C282.7,221.7,282.5,223.1,282.5,224.7z"/>
	<path class="st1" d="M182.2,193.6c-0.8-1.5,0.2-2.2,0.5-3c1.4-3.8-0.6-8.2-4.6-9c-1.7-0.4-4.6-1.2-3,2.7c0.5,1.2,0,2.4-1.5,2.7
		s-2.9,0-3.7-1.3c-1.1-1.8,0-5.4,1.8-6.5c5.8-3.2,11.6,1.4,12.8,6.1C185.2,188.4,185.6,191.4,182.2,193.6z"/>
	<path class="st1" d="M117.2,239.1c-0.6-0.2-0.8-0.3-1-0.3c-2,0.1-4,0-4.4-2.4c-0.3-2.1,1.5-3.1,3-3.7c2-0.8,3.7,0,4.9,1.7
		c2.3,3.4-0.4,8.1-4.7,8.3c-3.2,0.2-5.7-1.3-7.5-3.9c-0.4-0.5-0.9-1.3-0.1-1.8c0.7-0.5,1,0.2,1.5,0.8
		C111.8,241.2,113.8,241.5,117.2,239.1z"/>
	<path class="st1" d="M42.9,240.8c5.8,0,9.8,5.1,8.4,10.5c-0.2,0.9-0.6,1.7-1.5,1.6c-1.2-0.1-0.9-1.1-0.9-1.9
		c-0.1-1.2-0.1-2.4-0.5-3.4c-1.2-3.1-4.5-3.7-6.9-1.3c-0.1,0.1-0.1,0.2-0.2,0.3c-1.4,1.2-3.1,3.5-4.9,1.6c-2-2.1,0-4.1,1.8-5.5
		C39.6,241.6,41,240.1,42.9,240.8z"/>
	<path class="st1" d="M199.9,267.5c0.3,0.2,0.6,0.5,0.8,0.5c1.7-0.4,2.6,0.8,3.3,1.9c0.5,0.8-0.3,1.6-0.9,2.1c-1.3,1.1-2.7,0.6-4,0
		c-2.2-1-3.1-3.1-2.6-5.2c0.6-2.8,3.1-4.1,5.7-4.5c3.5-0.4,7.8,2.8,9.3,5.9c0.7,1.5,0.1,2.6-0.7,2.9c-1.1,0.5-1.2-1-1.6-1.8
		C207.4,265,203.5,264.2,199.9,267.5z"/>
	<path class="st1" d="M180.3,229c-0.1,0.2-0.3,0.4-0.3,0.6c-0.5,1.5,0.9,3.6,2.3,3.7c2.6,0.1,4,2.7,2.9,5.8
		c-0.9,2.4-3.2,2.5-5.3,2.6c-1.9,0.1-3.2-0.7-3.7-2.8c-0.6-2.4-0.2-4.7,0.1-7C176.4,230.1,178,228.6,180.3,229
		C180.3,229.1,180.3,229,180.3,229z"/>
	<path class="st1" d="M196,97.2c1.9,1.4,3.4,3.6,6.3,3c0,3.4-2,5.4-4.8,6.7c-3.3,1.5-5.6-0.3-7.5-2.8
		C192.2,102.1,194.9,100.4,196,97.2z"/>
	<path class="st1" d="M140,99.6c1.9-0.7,3.5-1.7,5.6-1c2.9,1,3.6,2.5,2.6,5.5c-1,3.1-3,5.2-5.7,6.6c-0.7,0.3-1.6,1.8-2.6,0.2
		c-0.7-1.1-1.4-2.1-0.5-3.5c1.1-1.5,2.2-2.7,4.2-2.7c1.9,0,2.8-1.5,2.8-2.9c-0.1-1.6-1.8-1.5-3.1-1.4
		C142.2,100.6,140.9,101.2,140,99.6z"/>
	<path class="st1" d="M246,109.8c0,3.3-2,5.3-5.1,5.4c-1.3,0-2.7,0.1-3.3-1.4c-0.4-1-0.6-2.1,0.1-3c0.9-1.2,2.2-1.7,3.7-1.1
		c0.4,0.2,0.9,1,1.4,0.2c0.4-0.6,0.5-1.5,0-2c-0.9-0.8-2.4-1.3-1.7-2.9c0.1-0.3,1.2-0.5,1.6-0.3c1.4,0.8,2.9,1.5,3.2,3.3
		C246,108.6,246,109.2,246,109.8z"/>
	<path class="st1" d="M221.7,0.9c0.6,3.3-0.9,5.7-2.4,7.8c-1.1,1.5-3,2.3-4.6,0.9c-1.9-1.6-0.3-2.9,0.8-4.1
		C217.1,3.7,219,2,221.7,0.9z"/>
	<path class="st1" d="M180.3,229.1c-0.2-0.7-0.6-1.4-0.4-2c0.7-2.3,8.9-6.1,11.6-5.3c-0.7,1.4-4.2,1.2-2.3,3.9c-1,0.3-1.9,0.8-2.9,1
		C184,227,181.9,227.4,180.3,229.1C180.3,229,180.3,229.1,180.3,229.1z"/>
	<path class="st1" d="M226.1,212c0.8,0.6,1.5,1.3,2.6,1.6c2.7,0.9,5.1,5.1,4.8,7.8c-0.1,0.6-0.2,1.2-1,1.2c-1-0.1-2-0.9-2.1-1.7
		C230,217.6,227.2,215.2,226.1,212C226.2,212,226.1,212,226.1,212z"/>
	<path class="st1" d="M279.9,144.2c-1.6-0.3-4.2-0.2-4.1-2.8c0.1-1.7,2.3-2.2,3.8-2.1c1.4,0.1,3.1,0.5,3,2.9
		C282.5,144.1,281.6,144.3,279.9,144.2z"/>
	<path class="st1" d="M199.4,0.8c1.2,0.7,3.2-0.9,3.4,1.4c0.1,2-1.6,2.7-3.4,2.8c-2,0.1-3.4-1-3.4-2.8
		C196.1-0.4,198.4,1.7,199.4,0.8z"/>
	<path class="st1" d="M201.5,209.2c-2.8,3-6.3,4-11,4.1C194,210.2,197.6,209.2,201.5,209.2L201.5,209.2z"/>
	<path class="st1" d="M119.9,146.6c-2-2.6-3.2-5.6-3.3-8.9C120.5,139.8,121.8,143.3,119.9,146.6z"/>
	<path class="st1" d="M252.7,164.4c0.7-1.3,0.4-3.6,2.8-4.4c0.8-0.3,1.1,0.5,0.9,1c-0.8,1.9-0.7,4.5-3.1,5.3
		C252.1,166.7,253,165.4,252.7,164.4z"/>
	<path class="st1" d="M71,82.1c-1,3.3-1.8,6.9-6,7.8C67,87.2,68.3,84.1,71,82.1z"/>
	<path class="st1" d="M233.5,105.2c1.5-0.5,0-2.4,1.6-2.6c2.8-0.3,11.6,3.5,9,4.1c-3,0.7-5.3-1-7.7,0.1
		C235.1,107.4,235,105.8,233.5,105.2z"/>
	<path class="st1" d="M65,89.8c-0.2,0.2-0.4,0.4-0.5,0.6C64.7,90.2,64.9,90,65,89.8z"/>
	<path class="st0" d="M78.1,246.3c-0.3,0.3-0.6,0.5-0.8,0c0-0.1,0.2-0.3,0.4-0.5C77.8,245.9,77.9,246.1,78.1,246.3z"/>
	<path class="st0" d="M2.7,281.1c-0.1,0.2-0.2,0.3-0.3,0.5c-0.3-0.3-0.6-0.7-0.8-1c0-0.1,0.2-0.4,0.3-0.4
		C2.5,280.1,2.7,280.6,2.7,281.1z"/>
	<path class="st1" d="M224.7,42c6.3-0.9,10.9,1.6,14.4,6.6c2.3,3.2,1.6,6.9,1.6,10.5c0,0.5-0.4,0.8-0.9,0.9
		c-0.6,0.1-0.8-0.3-0.9-0.8c-0.4-3.2-1.4-1.1-2.4-0.4c-1.6,1.2-3.4,0.9-4.7-0.5c-1.2-1.3-0.9-2.6,0.7-3.7c0.7-0.5,1.1-1.5,1.6-2.3
		c1-1.6,2.5-3.1,1-5.1c-1.6-2-3.6-3.4-6.4-2.7c-1.1,0.3-2.1,0.6-2.9-0.5C226.1,43.2,223,43.8,224.7,42z"/>
	<path class="st1" d="M223.4,55.3c1.6-0.9,3.3-0.7,4.4,0.5c0.8,0.8,0.7,2.8-0.1,3.6c-1.8,1.9-1,3.6,0.2,5c1.4,1.7,3.3,1.9,5.4,0.8
		c0.7-0.4,1.5-0.5,2.3-0.7c0.3,2.5-2.7,4.2-5.8,3.4c-3.5-0.9-6.2-3-8.1-6.1C221.8,59.4,222.2,57.3,223.4,55.3z"/>
	<path class="st1" d="M202.2,41.4c2.5-1.4,5-2.9,7.5-4.3c0.7-0.4,1.4-0.3,1.7,0.6c0.2,0.7,0.1,1.4-0.9,1.5c-1.3,0.2-1.7,1.5-2.7,2.1
		C206,43,204.1,42.6,202.2,41.4z"/>
	<path class="st1" d="M216.2,39.7c-0.1-0.8,0.7-0.7,1-1.1c0.2,0.4,0.3,0.8,0.5,1.1C217.2,39.7,216.7,39.7,216.2,39.7z"/>
	<path class="st1" d="M214.5,40.5c0.4-0.7,0.9-1.3,1.8-0.8C216,40.7,215.3,40.8,214.5,40.5z"/>
</g>
<path class="st2" d="M225.9,42.9c-2.4-3.4-7.7-3.3-17.5-3c-9,0.2-21.3,0.6-37.8-1.6l-0.1,0l-0.1,0c-12.1,0.7-21.9,0.8-30.6,0.9
	C98,39.7,91.6,39.8,60.7,98.9l-0.3,0.5l0.1,0.5c5.8,24.9,19.2,55.2,35.1,79.1c13.5,20.4,34.8,45.3,59,48c1.4,0.2,2.8,0.2,4.1,0.2
	c19.1,0,35.8-14.8,49.8-44.1l0.4-0.9l-0.6-0.7c-1.7-2-3.6-3-5.6-2.9c-4.4,0.2-8.1,5.2-12.5,11.1c-5.6,7.6-12,16.2-20.1,14.7
	c-35.6-19.1-61.3-75.5-73.7-122.6c19.4-7.1,50.9-5.2,78.8-3.5c9.9,0.6,19.3,1.2,27.6,1.3c1.6,4.9-1.5,8.6-4.8,12.4
	c-1.2,1.4-2.4,2.8-3.4,4.3l-0.6,0.9l0.6,0.8c2.2,2.9,4.8,3.4,6.5,3.3c3.2-0.2,6.4-2.7,8.4-6.5l0.1-0.2c2.1-5.4,4.1-10.2,5.9-14.5
	C225.4,56.4,229,47.4,225.9,42.9z"/>
</svg>
