<?xml version="1.0" encoding="utf-8"?>
<!-- Generator: Adobe Illustrator 25.0.0, SVG Export Plug-In . SVG Version: 6.00 Build 0)  -->
<svg version="1.1" id="Layer_1" xmlns="http://www.w3.org/2000/svg" xmlns:xlink="http://www.w3.org/1999/xlink" x="0px" y="0px"
	 viewBox="0 0 850.4 850.4" style="enable-background:new 0 0 850.4 850.4;" xml:space="preserve">
<style type="text/css">
	.st0{fill:none;stroke:#BA2C29;stroke-width:0.6944;stroke-miterlimit:10;}
	.st1{fill:none;stroke:#BA2C29;stroke-width:0.9963;stroke-miterlimit:10;}
</style>
<g>
	<line class="st0" x1="0" y1="28.3" x2="850.4" y2="28.3"/>
	<line class="st0" x1="0" y1="0" x2="850.4" y2="0"/>
	<line class="st0" x1="0" y1="56.7" x2="850.4" y2="56.7"/>
	<line class="st0" x1="0" y1="85" x2="850.4" y2="85"/>
	<line class="st0" x1="0" y1="113.4" x2="850.4" y2="113.4"/>
	<line class="st0" x1="0" y1="141.7" x2="850.4" y2="141.7"/>
	<line class="st0" x1="0" y1="170.1" x2="850.4" y2="170.1"/>
	<line class="st0" x1="0" y1="198.4" x2="850.4" y2="198.4"/>
	<line class="st0" x1="0" y1="226.8" x2="850.4" y2="226.8"/>
	<line class="st0" x1="0" y1="255.1" x2="850.4" y2="255.1"/>
	<line class="st0" x1="0" y1="283.5" x2="850.4" y2="283.5"/>
	<line class="st0" x1="0" y1="311.8" x2="850.4" y2="311.8"/>
	<line class="st0" x1="0" y1="340.2" x2="850.4" y2="340.2"/>
	<line class="st0" x1="0" y1="368.5" x2="850.4" y2="368.5"/>
	<line class="st0" x1="0" y1="396.9" x2="850.4" y2="396.9"/>
	<line class="st0" x1="0" y1="425.2" x2="850.4" y2="425.2"/>
	<line class="st0" x1="0" y1="453.5" x2="850.4" y2="453.5"/>
	<line class="st0" x1="0" y1="481.9" x2="850.4" y2="481.9"/>
	<line class="st0" x1="0" y1="510.2" x2="850.4" y2="510.2"/>
	<line class="st0" x1="0" y1="538.6" x2="850.4" y2="538.6"/>
	<line class="st0" x1="0" y1="566.9" x2="850.4" y2="566.9"/>
	<line class="st0" x1="0" y1="595.3" x2="850.4" y2="595.3"/>
	<line class="st0" x1="0" y1="623.6" x2="850.4" y2="623.6"/>
	<line class="st0" x1="0" y1="652" x2="850.4" y2="652"/>
	<line class="st0" x1="0" y1="680.3" x2="850.4" y2="680.3"/>
	<line class="st0" x1="0" y1="708.7" x2="850.4" y2="708.7"/>
	<line class="st0" x1="0" y1="737" x2="850.4" y2="737"/>
	<line class="st0" x1="0" y1="765.4" x2="850.4" y2="765.4"/>
	<line class="st0" x1="0" y1="793.7" x2="850.4" y2="793.7"/>
	<line class="st0" x1="0" y1="822" x2="850.4" y2="822"/>
	<line class="st0" x1="0" y1="850.4" x2="850.4" y2="850.4"/>
	<line class="st1" x1="850.4" y1="0" x2="850.4" y2="850.4"/>
	<line class="st1" x1="822" y1="0" x2="822" y2="850.4"/>
	<line class="st1" x1="793.7" y1="0" x2="793.7" y2="850.4"/>
	<line class="st1" x1="765.4" y1="0" x2="765.4" y2="850.4"/>
	<line class="st1" x1="737" y1="0" x2="737" y2="850.4"/>
	<line class="st1" x1="708.7" y1="0" x2="708.7" y2="850.4"/>
	<line class="st1" x1="680.3" y1="0" x2="680.3" y2="850.4"/>
	<line class="st1" x1="652" y1="0" x2="652" y2="850.4"/>
	<line class="st1" x1="623.6" y1="0" x2="623.6" y2="850.4"/>
	<line class="st1" x1="595.3" y1="0" x2="595.3" y2="850.4"/>
	<line class="st1" x1="566.9" y1="0" x2="566.9" y2="850.4"/>
	<line class="st1" x1="538.6" y1="0" x2="538.6" y2="850.4"/>
	<line class="st1" x1="510.2" y1="0" x2="510.2" y2="850.4"/>
	<line class="st1" x1="481.9" y1="0" x2="481.9" y2="850.4"/>
	<line class="st1" x1="453.5" y1="0" x2="453.5" y2="850.4"/>
	<line class="st1" x1="425.2" y1="0" x2="425.2" y2="850.4"/>
	<line class="st1" x1="396.9" y1="0" x2="396.9" y2="850.4"/>
	<line class="st1" x1="368.5" y1="0" x2="368.5" y2="850.4"/>
	<line class="st1" x1="340.2" y1="0" x2="340.2" y2="850.4"/>
	<line class="st1" x1="311.8" y1="0" x2="311.8" y2="850.4"/>
	<line class="st1" x1="283.5" y1="0" x2="283.5" y2="850.4"/>
	<line class="st1" x1="255.1" y1="0" x2="255.1" y2="850.4"/>
	<line class="st1" x1="226.8" y1="0" x2="226.8" y2="850.4"/>
	<line class="st1" x1="198.4" y1="0" x2="198.4" y2="850.4"/>
	<line class="st1" x1="170.1" y1="0" x2="170.1" y2="850.4"/>
	<line class="st1" x1="141.7" y1="0" x2="141.7" y2="850.4"/>
	<line class="st1" x1="113.4" y1="0" x2="113.4" y2="850.4"/>
	<line class="st1" x1="85" y1="0" x2="85" y2="850.4"/>
	<line class="st1" x1="56.7" y1="0" x2="56.7" y2="850.4"/>
	<line class="st1" x1="28.3" y1="0" x2="28.3" y2="850.4"/>
	<line class="st1" x1="0" y1="0" x2="0" y2="850.4"/>
</g>
</svg>
