<?xml version="1.0" encoding="utf-8"?>
<!-- Generator: Adobe Illustrator 25.0.0, SVG Export Plug-In . SVG Version: 6.00 Build 0)  -->
<svg version="1.1" id="Layer_1" xmlns="http://www.w3.org/2000/svg" xmlns:xlink="http://www.w3.org/1999/xlink" x="0px" y="0px"
	 viewBox="0 0 878.7 878.7" style="enable-background:new 0 0 878.7 878.7;" xml:space="preserve">
<style type="text/css">
	.st0{fill:none;stroke:#BA2C29;stroke-width:0.6944;stroke-miterlimit:10;}
	.st1{fill:none;stroke:#BA2C29;stroke-width:0.9963;stroke-miterlimit:10;}
	.st2{fill:#CBCBCB;stroke:#000000;stroke-miterlimit:10;}
	.st3{fill:#CBCBCB;}
	.st4{fill:#4E4E4E;}
	.st5{fill:#4E4E4E;stroke:#4E4E4E;stroke-width:0.2895;stroke-miterlimit:10;}
	.st6{fill:#E2C114;stroke:#E2C114;stroke-width:0.2895;stroke-miterlimit:10;}
	.st7{fill:none;stroke:#000000;stroke-miterlimit:10;}
</style>
<g>
	<line class="st0" x1="0" y1="28.3" x2="878.7" y2="28.3"/>
	<line class="st0" x1="0" y1="0" x2="878.7" y2="0"/>
	<line class="st0" x1="0" y1="56.7" x2="878.7" y2="56.7"/>
	<line class="st0" x1="0" y1="85" x2="878.7" y2="85"/>
	<line class="st0" x1="0" y1="113.4" x2="878.7" y2="113.4"/>
	<line class="st0" x1="0" y1="141.7" x2="878.7" y2="141.7"/>
	<line class="st0" x1="0" y1="170.1" x2="878.7" y2="170.1"/>
	<line class="st0" x1="0" y1="198.4" x2="878.7" y2="198.4"/>
	<line class="st0" x1="0" y1="226.8" x2="878.7" y2="226.8"/>
	<line class="st0" x1="0" y1="255.1" x2="878.7" y2="255.1"/>
	<line class="st0" x1="0" y1="283.5" x2="878.7" y2="283.5"/>
	<line class="st0" x1="0" y1="311.8" x2="878.7" y2="311.8"/>
	<line class="st0" x1="0" y1="340.2" x2="878.7" y2="340.2"/>
	<line class="st0" x1="0" y1="368.5" x2="878.7" y2="368.5"/>
	<line class="st0" x1="0" y1="396.9" x2="878.7" y2="396.9"/>
	<line class="st0" x1="0" y1="425.2" x2="878.7" y2="425.2"/>
	<line class="st0" x1="0" y1="453.5" x2="878.7" y2="453.5"/>
	<line class="st0" x1="0" y1="481.9" x2="878.7" y2="481.9"/>
	<line class="st0" x1="0" y1="510.2" x2="878.7" y2="510.2"/>
	<line class="st0" x1="0" y1="538.6" x2="878.7" y2="538.6"/>
	<line class="st0" x1="0" y1="566.9" x2="878.7" y2="566.9"/>
	<line class="st0" x1="0" y1="595.3" x2="878.7" y2="595.3"/>
	<line class="st0" x1="0" y1="623.6" x2="878.7" y2="623.6"/>
	<line class="st0" x1="0" y1="652" x2="878.7" y2="652"/>
	<line class="st0" x1="0" y1="680.3" x2="878.7" y2="680.3"/>
	<line class="st0" x1="0" y1="708.7" x2="878.7" y2="708.7"/>
	<line class="st0" x1="0" y1="737" x2="878.7" y2="737"/>
	<line class="st0" x1="0" y1="765.4" x2="878.7" y2="765.4"/>
	<line class="st0" x1="0" y1="793.7" x2="878.7" y2="793.7"/>
	<line class="st0" x1="0" y1="822" x2="878.7" y2="822"/>
	<line class="st0" x1="0" y1="878.7" x2="878.7" y2="878.7"/>
	<line class="st1" x1="850.4" y1="0" x2="850.4" y2="878.7"/>
	<line class="st1" x1="878.7" y1="0" x2="878.7" y2="878.7"/>
	<line class="st1" x1="822" y1="0" x2="822" y2="878.7"/>
	<line class="st1" x1="793.7" y1="0" x2="793.7" y2="878.7"/>
	<line class="st1" x1="765.4" y1="0" x2="765.4" y2="878.7"/>
	<line class="st1" x1="737" y1="0" x2="737" y2="878.7"/>
	<line class="st1" x1="708.7" y1="0" x2="708.7" y2="878.7"/>
	<line class="st1" x1="680.3" y1="0" x2="680.3" y2="878.7"/>
	<line class="st1" x1="652" y1="0" x2="652" y2="878.7"/>
	<line class="st1" x1="623.6" y1="0" x2="623.6" y2="878.7"/>
	<line class="st1" x1="595.3" y1="0" x2="595.3" y2="878.7"/>
	<line class="st1" x1="566.9" y1="0" x2="566.9" y2="878.7"/>
	<line class="st1" x1="538.6" y1="0" x2="538.6" y2="878.7"/>
	<line class="st1" x1="510.2" y1="0" x2="510.2" y2="878.7"/>
	<line class="st1" x1="481.9" y1="0" x2="481.9" y2="878.7"/>
	<line class="st1" x1="453.5" y1="0" x2="453.5" y2="878.7"/>
	<line class="st1" x1="425.2" y1="0" x2="425.2" y2="878.7"/>
	<line class="st1" x1="396.9" y1="0" x2="396.9" y2="878.7"/>
	<line class="st1" x1="368.5" y1="0" x2="368.5" y2="878.7"/>
	<line class="st1" x1="340.2" y1="0" x2="340.2" y2="878.7"/>
	<line class="st1" x1="311.8" y1="0" x2="311.8" y2="878.7"/>
	<line class="st1" x1="283.5" y1="0" x2="283.5" y2="878.7"/>
	<line class="st1" x1="255.1" y1="0" x2="255.1" y2="878.7"/>
	<line class="st1" x1="226.8" y1="0" x2="226.8" y2="878.7"/>
	<line class="st1" x1="198.4" y1="0" x2="198.4" y2="878.7"/>
	<line class="st1" x1="170.1" y1="0" x2="170.1" y2="878.7"/>
	<line class="st1" x1="141.7" y1="0" x2="141.7" y2="878.7"/>
	<line class="st1" x1="113.4" y1="0" x2="113.4" y2="878.7"/>
	<line class="st1" x1="85" y1="0" x2="85" y2="878.7"/>
	<line class="st1" x1="56.7" y1="0" x2="56.7" y2="878.7"/>
	<line class="st1" x1="28.3" y1="0" x2="28.3" y2="878.7"/>
	<line class="st1" x1="0" y1="0" x2="0" y2="878.7"/>
	<line class="st0" x1="0" y1="850.4" x2="878.7" y2="850.4"/>
</g>
<rect x="453.5" y="453.5" class="st2" width="28.3" height="28.3"/>
<g>
	<path class="st3" d="M454.1,477.6c0-1.2,0-2.3,0-3.6c0,0,0,0.1,0.1,0.1c0.6,0.2,0.7,0.5,0.5,1c-0.1,0.1-0.1,0.3-0.2,0.4
		c-0.1,0.1,0,0.2,0,0.3c0.1,0.1,0.2,0.1,0.2,0.1c0.3-0.2,0.4-0.5,0.7-0.7c0,0,0-0.1,0-0.2c0.1-0.3-0.2-0.5-0.3-0.9
		c0.5,0.2,0.8,0.6,0.8,1.1c0,0.4-0.4,0.5-0.7,0.7c-0.5,0.3-0.6,0.7-0.4,1c0.1,0.2,0.3,0.3,0.5,0.3c0.1,0,0.2-0.2,0.2-0.4
		s-0.1-0.3-0.3-0.3c-0.1,0-0.1,0-0.2-0.1c0-0.1,0-0.1,0.1-0.2c0.2-0.3,0.6-0.3,0.9-0.4c0.4-0.2,0.5-0.4,0.5-0.8s-0.2-0.8-0.6-1
		c-0.6-0.3-1.2-0.2-1.7-0.2c0-0.4,0-0.7,0-1.1c0.2-0.1,0.3,0.2,0.5,0.2c0.5,0.1,1,0,1.4,0.2c0-0.2-0.1-0.2-0.1-0.3
		c0.1,0,0.2-0.1,0.3-0.1c0.1,0,0.1-0.1,0.1-0.2c0-0.1-0.2-0.1-0.3,0c-0.3,0.2-0.6,0.2-0.9,0.3c-0.3,0-0.6,0-0.8-0.3c0,0,0,0,0-0.1
		c0.1,0,0.2,0,0.3,0c0.2,0,0.4-0.1,0.3-0.3c0-0.2-0.2-0.3-0.4-0.2c-0.2,0.1-0.4,0-0.6,0c0-0.7,0-1.4,0-1.9c0.2,0,0.2-0.2,0.3-0.3
		c0.1-0.2,0.1-0.3,0.3-0.1s0.4,0.3,0.7,0.2c0.5-0.1,0.8-0.5,0.7-1c0-0.2-0.1-0.5-0.4-0.5c-0.3,0-0.4,0.1-0.5,0.3
		c-0.1,0.2,0,0.3,0.1,0.4c0.2,0.1,0.2-0.1,0.3-0.2c0-0.1,0-0.2,0.1-0.2c0.1,0,0.1,0.1,0.2,0.2c0.1,0.1,0,0.2,0,0.3
		c-0.1,0.2-0.2,0.6-0.5,0.5c-0.3,0-0.4-0.3-0.5-0.6c0-0.2,0-0.4,0-0.6c0.1-0.4,0.1-0.9,0-1.3c-0.1-0.5-0.1-1-0.3-1.4
		c-0.1-0.2-0.2-0.1-0.3-0.1c0-2.4,0-4.7,0-7.1c0.2,0,0.3,0.1,0.5,0c0.2-0.1,0.4-0.2,0.6,0s0.1,0.4,0,0.6s0,0.2,0.1,0.3
		c0.1,0.1,0.2,0.1,0.3,0.1c0.2-0.1,0.3-0.2,0.3-0.4c0-0.2,0.1-0.2,0.2-0.1l0.1,0.1c0.7,0.7,0.6,1.7-0.4,2c-0.7,0.2-1.2-0.2-1.3-0.8
		c0-0.1,0-0.2-0.1-0.3c0-0.1-0.1-0.2-0.2-0.2c-0.1,0-0.1,0.1-0.1,0.2c0,0.2-0.1,0.4-0.1,0.5c0,0.4,0,0.7,0.2,1
		c0.1,0.2,0.2,0.3,0,0.4c-0.2,0.1-0.3,0.5,0,0.7c0.2,0.2,0.4,0,0.5-0.2s0.2-0.4,0.4-0.4c0.3-0.1,0.7-0.2,1-0.3
		c0.6-0.2,1-0.8,0.9-1.3c0-0.4-0.1-0.9-0.4-1.3c-0.2-0.4-0.6-0.7-1-0.9c-0.4-0.2-0.7-0.5-1.2-0.3c-0.1,0-0.2,0.1-0.3,0
		c0.2-0.1,0.2-0.3,0.3-0.5c0.1-0.1,0-0.3-0.1-0.4c-0.1-0.1-0.2-0.1-0.3,0c-0.1,0.1-0.1,0.2,0,0.3c0.1,0.1,0,0.2-0.1,0.3
		c0-0.7,0-1.4,0-2.1c0.2-0.1,0.3-0.2,0.6-0.4c-0.2,0.7,0.1,1.1,0.4,1.5c0.6,0.7,1.4,1.1,2.3,0.9c0.8-0.1,1.4-0.8,1.3-1.6
		c0-0.4,0.1-0.6,0.4-0.8c0.1-0.1,0.1-0.1,0.2-0.2c0.1-0.1,0.2-0.2,0.1-0.3c-0.1-0.1-0.1-0.2-0.3-0.2c-0.1,0-0.2,0-0.3,0.1
		c-0.1,0.1-0.5,0.1-0.6,0c-0.1-0.1-0.3-0.1-0.4-0.1c-0.4,0-0.7,0.2-1.1,0.2c-0.2,0-0.4,0-0.4-0.3s0.2-0.1,0.3-0.2
		c0.1-0.1,0.3-0.1,0.2-0.3c0-0.2-0.2-0.3-0.4-0.2c-0.2,0-0.4,0-0.6,0c-0.1,0-0.2-0.1-0.3,0.1c0.2,0,0.4,0,0.6,0
		c0,0.2-0.1,0.2-0.2,0.4c-0.1,0.5,0.5,1.1,1,1c0.5,0,0.8,0.3,1,0.7c0.2,0.3-0.1,0.9-0.4,1.1c-0.5,0.5-1.2,0.3-1.5,0.1
		c-0.1-0.1-0.3-0.2-0.4-0.3c-0.1-0.2,0.2-0.1,0.3-0.3l0.1-0.1c0-0.1,0.1-0.2,0.1-0.4c-0.1-0.1-0.2-0.1-0.3,0c-0.1,0-0.1,0-0.2,0
		c-0.4,0.1-0.6,0-0.6-0.5c0-0.4,0-0.8,0-1.2c0,0,0,0-0.1,0c-0.1,0.4-0.3,0.6-0.7,0.7c0-0.4,0-0.7,0-1.1c0.2,0.1,0.4-0.1,0.6,0
		c0.1,0,0.1,0.1,0.1,0s-0.1-0.1-0.1-0.1c-0.2,0-0.4,0-0.6,0c0.1-0.1,0.2-0.1,0.3-0.1c4,0,7.9,0,12,0c4.9,0,9.9,0,14.9,0
		c0.2,0,0.3,0,0.3,0.3c0,8.9,0,18.2,0,27c-0.1,0-3,0-4.3,0c0.3-0.2,0.7-0.3,0.6-0.8c0.4-0.1,0.2-0.4,0.2-0.5
		c-0.1-0.5,0.2-0.9,0.5-1.2c0.8-0.8,1.6-1.2,2.8-0.9c0.1,0,0.2,0.1,0.2,0c0-0.1-0.1-0.2-0.2-0.2c-0.6-0.1-1.3-0.2-1.8,0.1
		c-0.2,0.1-0.5,0.2-0.7,0.4c-0.2,0.1-0.3,0.1-0.3-0.1c0-0.2-0.2-0.3-0.4-0.5c-0.1-0.1-0.5,0-0.6,0.1c-0.1,0.2,0,0.3,0.2,0.4
		c0.4,0.2,0.5,0.6,0.2,1.1c-0.1,0.2-0.2,0.2-0.3,0c-0.3-0.4-0.5-0.8-1.1-0.9c-0.4,0-0.6-0.2-0.8-0.5c-0.1-0.2-0.3-0.3-0.5-0.2
		c-0.2,0.1-0.1,0.3,0,0.4c0,0,0,0.1,0,0.2c0.1,0.2,0,0.2-0.1,0.3c-0.2,0-0.5,0.4-0.6,0.7c-0.1,0.7,0.7,1.3,1.2,1.4
		c0.1,0,0.3,0,0.3-0.2c0-0.4-0.2-0.7-0.8-0.6c-0.1,0-0.2,0-0.3,0c-0.2-0.2-0.2-0.7,0-0.9c0.5-0.3,1-0.4,1.5-0.2
		c0.3,0.1,0.4,0.5,0.6,0.7c0.3,0.4,0.2,0.8,0.3,1.3c-0.2,0.1-0.2,0.4-0.5,0.4c0-0.2,0-0.4,0-0.5s-0.1-0.2-0.2-0.2
		c-0.1,0-0.3,0-0.3,0.2c0.1,0.3,0,0.6,0,0.8c-0.6,0-1.2,0-1.7,0c0-0.1-0.1-0.2-0.2-0.2c-0.3-0.1-0.5-0.2-0.8-0.3
		c0-0.1,0.1-0.1,0.1-0.1c0.1,0,0.2-0.1,0.1-0.2c-0.1-0.1-0.2,0-0.2,0c-0.3,0.2-0.6,0.1-0.9,0.1c-0.5,0-1-0.2-1.4,0
		c-0.3,0.1-0.6,0.2-0.9,0.2c-0.4,0-0.7,0.2-1.1,0.3c-0.2,0-0.4,0.1-0.5,0.2c0.3,0.1,0.6-0.1,0.8,0.1c-1.9,0-3.8,0-5.7,0
		c0-0.3,0.1-0.5,0.4-0.5c0.1,0,0.3,0,0.4,0.1c0.4,0.1,0.9,0.3,1.3-0.2c0-0.1,0.2-0.2,0.2,0c0.1,0.2,0.3,0.2,0.4,0.3
		c0.2,0.1,0.3,0,0.4-0.1c0.1-0.1,0.1-0.3,0-0.4c-0.1-0.1-0.3-0.2-0.4-0.3c-0.2-0.1-0.2-0.2-0.2-0.4c0-0.6-0.2-1.1-0.7-1.4
		c-0.4-0.3-0.9-0.3-1.3-0.2c-0.3,0.1-0.5,0-0.4-0.4c0-0.1,0-0.3-0.1-0.4c-0.1,0-0.2,0-0.2,0c-0.1,0.1-0.1,0.3-0.1,0.4
		c0.1,0.3,0,0.5-0.2,0.7c-0.6,0.6-1.1,1.1-1,1.9c0,0.2-0.1,0.3-0.3,0.1c-0.1-0.1-0.3-0.2-0.5-0.1c-0.1,0-0.3,0.1-0.3,0.3
		c0,0.1,0.2,0.3,0.4,0.1c0.4-0.3,0.5,0.1,0.8,0.2c-1.4,0-2.7,0-4.1,0c0-0.1,0.1-0.1,0.1-0.2c0.1-0.4,0.3-0.7,0.7-0.9
		c0.5-0.2,1.1,0,1.3,0.3c0,0.1,0.1,0.1,0,0.2c-0.1,0.1-0.2,0-0.2,0c-0.2-0.2-0.4-0.1-0.6-0.1s-0.3,0.2-0.3,0.3
		c0,0.1,0.1,0.2,0.3,0.2c0.2,0,0.4,0,0.7,0c0.4,0,0.5-0.1,0.4-0.5c-0.1-0.5-0.2-0.7-0.9-0.8c-0.8-0.1-1.6,0.4-1.7,1.4
		c-0.3,0-0.6,0-0.8,0c0.1-0.2,0.1-0.5,0.2-0.8c0.4-0.7,1.1-1.1,1.8-1.4c0.5-0.2,1.1-0.2,1.5-0.4c0.1,0,0.2-0.1,0.3,0
		c0,0,0,0.1,0,0.2c-0.2,0.3-0.1,0.6,0.1,0.8c0.2,0.1,0.3,0.1,0.5,0c0.2-0.1,0.2-0.3,0.1-0.5c-0.1-0.2-0.2-0.1-0.4-0.1
		c-0.2,0.1-0.2,0-0.1-0.2c0.2-0.4,0.5-0.6,0.8-0.8c0.6-0.4,1.1-1,1.2-1.6c0.1-0.6,0.2-1.2,0-1.7c-0.1-0.4-0.3-0.7-0.6-1
		c0,0-0.1-0.1,0-0.1c0.1,0,0.1,0,0.2,0c0,0,0.1,0.1,0.1,0.2c0.2,0.3,0.4,0.6,0.6,0.9c0.1-0.1,0.1-0.2,0-0.3c-0.4-0.5-0.7-1-1.1-1.4
		c-0.1,0-0.1-0.2-0.2-0.1c-0.1,0.1,0.1,0.2,0,0.3c-0.2-0.1-0.3-0.3-0.5-0.3c-1-0.5-2-0.8-3.1-0.2c-0.1,0-0.1,0-0.2,0v-0.1
		c0.3-1,1.3-1.4,2.1-0.8c0.4,0.3,0.8,0.6,1.2,1c0.1,0,0.1,0.1,0.2,0c0.1-0.1,0-0.1-0.1-0.2c-0.1-0.1-0.1-0.1-0.2-0.2
		c-0.4-0.3-0.8-0.7-1.3-0.9c-0.2-0.1-0.3-0.4-0.2-0.6c0-0.1,0.1-0.2,0.1-0.3c0-0.2,0-0.4-0.3-0.3c-0.2,0-0.2,0-0.2-0.2
		c0-0.1,0.1-0.2,0.2-0.3s0.2-0.2,0.2-0.3c0-0.1-0.2-0.2-0.2-0.2c-0.1,0.1-0.3,0-0.4,0.3c-0.1,0.5-0.1,0.9,0.2,1.3
		c0,0.1,0.1,0.1,0,0.2c-0.1,0.1-0.1,0-0.2,0c-0.6-0.2-0.9-0.6-1.3-1.2c-0.3-0.5-0.3-0.9-0.3-1.3c0-0.3,0.4-0.7,0.7-0.6
		c0.5,0.1,0.8,0.4,0.7,0.9c0,0.1-0.1,0.3-0.2,0.3c-0.2,0-0.1-0.2-0.1-0.2c0-0.1,0-0.3-0.2-0.3c-0.1,0-0.2,0-0.3,0.1
		c-0.1,0.2-0.1,0.3,0,0.5c0.1,0.2,0.3,0.3,0.6,0.3c0.1,0,0.3,0,0.3-0.2c0.1-0.2,0.1-0.5,0.1-0.7c0-0.3-0.3-0.7-0.6-0.7
		c-0.7-0.1-1.2,0.4-1.1,1.2c0,0.1,0.1,0.2,0,0.3c-0.4-0.5-0.4-1.1-0.6-1.5c-0.2-0.5,0-1.1,0.2-1.5c0.3-0.8,0.4-1.5,0.1-2.3
		c0-0.1,0-0.1-0.1-0.2c-0.3-0.4-0.3-1-0.2-1.4c0.1-0.4,0.5-0.6,0.8-0.5c0.1,0,0.2,0.1,0.2,0.2c0,0.2-0.1,0.1-0.2,0.1
		c-0.1,0-0.3,0.1-0.3,0.3c0,0.2,0,0.4,0.3,0.4c0.4,0,0.5-0.1,0.5-0.6c0-0.4-0.3-0.8-0.6-0.8s-0.8,0.3-0.8,0.6
		c-0.1,0.6-0.1,1.2,0.2,1.6c0.2,0.3,0.3,0.7,0.3,1.1c0,0.1,0,0.3-0.2,0.1c-0.2-0.1-0.3-0.1-0.3,0.1s-0.1,0.5,0,0.7
		c0.1,0.3,0.1,0.6,0,0.9c-0.1,0.6-0.2,1.2,0,1.7c0.2,0.7,0.5,1.4,1,1.9c0,0,0.1,0.1,0,0.1c0,0.1-0.1,0-0.2,0c-0.6-0.5-1.3-1-1.8-1.4
		c-0.4-0.3-0.4-0.6-0.2-1c0.1-0.2,0.2-0.4,0-0.5c-0.3-0.1-0.2-0.2-0.1-0.3c0.1-0.1,0.1-0.2,0.1-0.4s-0.1-0.4-0.3-0.5
		c-0.2-0.1-0.3,0.1-0.4,0.3c-0.1,0.3-0.1,0.7,0,1c0,0.1,0,0.1,0,0.2c0,0-0.1,0-0.1-0.1c-0.3-0.5-0.6-1-0.7-1.5
		c-0.1-0.7-0.2-1.4-0.2-2.1c0-0.5,0.3-0.8,0.6-1.2c0.2-0.3,0.5-0.3,0.8-0.3c0.1,0,0.2,0,0.2-0.1c0-0.1-0.1-0.1-0.2-0.2
		c-0.7,0-1.1,0.2-1.3,0.8c-0.1,0.2-0.1,0.4-0.3,0.1c-0.1-0.1-0.4-0.3-0.6-0.1c-0.2,0.2-0.1,0.4,0,0.5l0.1,0.1
		c0.3,0.2,0.4,0.5,0.4,0.9c0,0.1,0,0.2,0,0.3c0,0.4,0.2,0.9,0.1,1.3c-0.1,0.2,0,0.4,0.2,0.6c0.3,0.3,0.5,0.7,0.8,1
		c0.2,0.3,0.4,0.7,0.8,1c0.5,0.5,1.1,1,1.6,1.3c0.1,0,0.3,0.1,0.3,0.2c0,0.2-0.2,0.2-0.3,0.3h-0.1c-0.3,0.2-0.6,0.4-0.7,0.7
		c-0.1,0.1-0.1,0.3,0.1,0.4s0.3,0,0.3-0.2c0.1-0.3,0.3-0.5,0.5-0.6c0.1,0.1,0,0.2,0,0.3c-0.1,0.2,0,0.5,0.2,0.5s0.3-0.2,0.3-0.4
		c0-0.4,0.2-0.5,0.6-0.5c0.3,0,0.5,0.1,0.8,0.2c0,0.1-0.1,0.1-0.1,0.1c-0.3,0.1-0.7,0.2-0.8,0.6c-0.1,0.2-0.2,0.5-0.3,0.7
		c-0.1,0.3-0.3,0.5-0.6,0.8c-0.1,0.1-0.2,0.1-0.3,0c-0.2-0.1-0.3-0.2-0.4,0c-0.1,0.2-0.2,0.5,0.1,0.6c0.2,0.1,0.1,0.2,0.1,0.3
		c0,0.2-0.2,0.5-0.1,0.7c0.1,0.6,0.3,1.2,0.7,1.5c0.2,0.2,0.3,0.3,0.6,0.2c-0.3-0.2-0.6-0.4-0.8-0.7c-0.5-0.9-0.5-1.6,0.1-2.4
		c0.1-0.1,0.1-0.3,0.3-0.3c0.2,0,0,0.2,0.1,0.3h0.1c0-0.1,0-0.2,0-0.2c0-0.3,0.1-0.5,0.4-0.7c1-0.4,1.8-0.2,2.7,0.1
		c0.1,0,0.2,0.1,0.1,0.2c0,0.1-0.1,0.1-0.2,0c-0.2,0-0.4,0.1-0.5,0.2c-0.1,0.1-0.1,0.3-0.1,0.4s0,0.1,0.1,0.1c0.1,0,0.2-0.1,0.3-0.2
		c0.1-0.2,0.2-0.3,0.4-0.3c0,0.5,0,0.5,0.5,0.4c0.2,0,0.3,0,0.5,0.2c0.3,0.3,0.4,0.8,0.5,1.2c0.1,0.2,0,0.2-0.2,0.2
		c-0.6-0.1-1.1,0.2-1.2,0.8c0,0.2-0.1,0.4,0.1,0.5s0.3,0.1,0.5,0c0.2-0.2,0.1-0.3,0-0.5c-0.1-0.1-0.1-0.2,0-0.3
		c0.1-0.2,0.3-0.2,0.5-0.2c0.1,0,0.2,0.1,0.2,0.2c0.1,0.5,0,0.9-0.2,1.3c-0.4,0.9-1.3,1.2-2,1.4h-0.1c0.1-0.2,0.3-0.3,0.4-0.5
		c0.2-0.2,0.1-0.4-0.2-0.5l0,0v-0.1c0-0.2,0-0.5-0.3-0.5c-0.2,0-0.2,0.3-0.2,0.5l0,0c0.1,0.3-0.1,0.6-0.2,0.8
		c-0.1,0.1-0.1,0.2-0.2,0.2c-0.2,0-0.1-0.2-0.1-0.3c0-0.3-0.1-0.5-0.4-0.6c-0.1,0-0.3,0-0.4,0.2c0,0.2,0,0.3,0.2,0.4
		c0.2,0.1,0.4,0.1,0.3,0.3c0,0.2-0.2,0.3-0.4,0.4c-0.3,0.1-0.6,0.2-0.9,0.3c-0.5,0.2-0.9,0.5-1.2,1c-0.2,0.3-0.5,0.6-0.3,1.1
		c-0.3,0-0.7,0-1.1,0c0-0.2,0-0.4,0-0.6c0.4,0.2,0.6,0.2,0.6,0c0.1-0.3-0.2-0.4-0.3-0.5c-0.4-0.3-0.8-0.5-1.1-0.9
		c-0.1-0.1-0.1-0.1-0.3-0.2c-0.1,0-0.1,0-0.1,0c0,0.1,0,0.1,0.1,0.1c0.3,0.2,0.6,0.5,0.7,0.8c0.2,0.3,0.5,0.7,0,1.1v0.1
		c-0.5,0-0.9,0-1.4,0c0-0.1,0-0.1,0.1-0.1c0.4-0.1,0.5-0.4,0.5-0.8c0-0.2-0.1-0.4-0.2-0.6c-0.2-0.6-0.6-0.7-1.1-0.6
		c0-0.1,0-0.3,0-0.4c0.1,0,0.3,0,0.5,0.1c0.2,0.1,0.4,0.1,0.6,0.1c0.3-0.2,0.6-0.2,0.8-0.4c0.2-0.1,0.2-0.3,0.2-0.5
		c0-0.1,0-0.1-0.1-0.2c-0.2,0-0.3,0.1-0.4,0.2c-0.1,0.1-0.2,0.3-0.3,0.3c-0.4,0-0.8,0.3-1.2,0.1c0-0.3,0-0.7,0-1
		c0.2,0,0.5,0,0.7,0.1c0.1,0,0.1,0,0.2-0.1c0-0.1,0-0.1-0.1-0.1C454.6,477.8,454.4,477.6,454.1,477.6z M460.4,462.7
		C460.3,462.7,460.3,462.8,460.4,462.7c0,0.2-0.2,0.4-0.2,0.5c-0.3,0.2-0.5,0.6-0.7,0.9c-0.1,0.2-0.1,0.3-0.1,0.5
		c0,0.3,0.1,0.5,0.2,0.8c0,0.1,0.1,0.2,0,0.3c-0.5,0.3-0.7,0.8-1,1.3c-0.2,0.3-0.3,0.7-0.3,1.1c0,0.1,0,0.1,0.1,0.2
		c0.1,0,0.1-0.1,0.1-0.1c0.2-0.3,0.4-0.5,0.6-0.6c0.1,0,0.1-0.1,0.2-0.1c0.1-0.1,0.2-0.2,0.1-0.3c-0.1-0.2-0.2-0.1-0.3-0.1
		s-0.2,0.1-0.3,0c0.2-0.3,0.4-0.7,0.7-0.9c0.1-0.1,0.1,0,0.2,0.1c0.2,0.3,0.2,0.6,0.4,0.8c0.2,0.3,0.4,0.7,0.5,1.1
		c0.3,0.6,0.6,1.2,0.9,1.7c0.3,0.5,0.5,1,0.9,1.4c0.7,1,1.3,1.9,2,2.8c0.2,0.3,0.5,0.6,0.7,0.9c0.2,0.4,0.6,0.6,0.8,1
		c0.3,0.4,0.8,0.7,1.3,0.8c1.3,0.3,2.3,0.1,3.4-0.7c0.6-0.4,1.1-0.9,1.6-1.3c0.1-0.1,0.1-0.1,0.1-0.2c0.5-0.4,0.9-0.9,1.3-1.4
		c0.1-0.1,0.2-0.1,0.2-0.1c0,0.1,0,0.2,0.1,0.2c0,0.2,0.2,0.2,0.4,0.2c0.2,0,0.2-0.1,0.3-0.2s0.1-0.2-0.1-0.3c0,0-0.1-0.1,0-0.1
		c0-0.1,0.1,0,0.1,0c0.2,0.1,0.2,0.3,0.3,0.4c0.2,0.5,0.1,1-0.5,1c-0.3,0-0.5,0-0.7,0.2c-0.4,0-0.7,0.1-1.1,0.4
		c0.5,0,0.8-0.1,1.1-0.4c0.3,0.1,0.6,0,1.1-0.1c-0.2,0.3-0.5,0.5-0.8,0.6c-0.3,0.2-0.7,0.4-1.1,0.5c-0.1,0-0.1,0.1-0.1,0.2
		c0,0,0.1,0,0.2,0c0.7-0.2,1.3-0.5,1.7-1c0.2-0.2,0.4-0.2,0.6-0.1c0.2,0.1,0.4,0.2,0.7,0.2c0.1,0.3,0.4,0.6,0.4,0.9
		c0,0.1,0.1,0.2,0.2,0.2c0.1,0,0.1-0.1,0.1-0.1c0-0.3-0.2-0.7-0.5-0.8c-0.1,0-0.2-0.1-0.3-0.2c-0.1-0.3-0.4-0.3-0.6-0.4
		c-0.4-0.1-0.5-0.1-0.3-0.5c0.2-0.4,0.1-0.9-0.3-1.2c-0.3-0.3-0.6-0.2-0.9,0c0.1-0.3,0.1-0.5,0.1-0.8c0.2,0,0.3-0.2,0.4-0.3
		c0.1-0.1,0.1-0.2,0.3,0c0.2,0.3,0.4,0.6,0.8,0.8c0.2,0.1,0.5,0.3,0.4,0.5c-0.1,0.3-0.3,0.5-0.1,0.8c0.1,0.2,0.2,0.3,0.3,0.4
		c0.2,0.1,0.2-0.1,0.3-0.3c0.1-0.3,0-0.6-0.1-0.8c-0.1-0.3,0-0.3,0.2-0.3c0.3,0,0.6,0,0.9-0.3c0.1-0.2,0.3-0.4,0.4-0.7
		c0.2-0.4,0.2-0.7,0-1.2c-0.2,0.2-0.1,0.5-0.1,0.7s0,0.2-0.2,0.2c-0.4-0.1-0.5-0.1-0.4,0.4c0.1,0.5,0,0.6-0.5,0.6
		c-1,0-2.1-0.9-1.7-2c0-0.1,0-0.3,0.2-0.3c0.2,0,0.1,0.2,0.1,0.3c0.1,0.1,0.1,0.4,0.3,0.3c0.2,0,0.2-0.2,0.2-0.4
		c-0.2-0.6,0.2-1.1,0.6-1.4c0.1-0.1,0.2-0.1,0.3,0c-0.2,0.4-0.1,0.7,0.2,0.9c0.2,0.1,0.4,0.1,0.6,0c0.2-0.2,0.4-0.4,0.4-0.7
		c0-0.2-0.1-0.3-0.3-0.3c-0.1,0-0.3-0.1-0.4,0.1c0,0.2,0,0.3,0.1,0.5c0,0,0.2,0,0.1,0.2c0,0.1-0.1,0.1-0.2,0.1
		c-0.2-0.1-0.4-0.2-0.3-0.5c0.1-0.2,0.1-0.4,0.3-0.5c0.3-0.4,0.6-0.9,0.5-1.4c-0.1-1-0.7-1.5-1.7-1.3c-1.1,0.2-1.4,1.2-1.2,2.1
		c0.1,0.6,0,1.1-0.4,1.3c-0.2,0.1-0.3,0-0.4-0.1c-0.1-0.2,0.1-0.2,0.1-0.3c0-0.1,0.1-0.1,0.1-0.2c0.1-0.1-0.1-0.1-0.1-0.2
		s-0.1-0.2-0.2-0.1c-0.2,0.1-0.4,0.3-0.4,0.5c0,0.3,0.3,0.6,0.5,0.6c0.4,0,0.8-0.3,1-0.7c0.1-0.3-0.1-0.6,0-1
		c0.2,0.4,0.6,0.4,0.9,0.4s0.7-0.3,0.8-0.6c0-0.2,0-0.3-0.1-0.4c-0.2-0.1-0.4-0.1-0.5,0c-0.1,0.1-0.2,0.2-0.1,0.5
		c0.1,0.2,0,0.4-0.2,0.3c-0.2-0.1-0.5-0.1-0.6-0.4c-0.1-0.3-0.2-0.5,0-0.8s0.4-0.6,0.8-0.6c0.3,0,0.8-0.3,1,0.3h0.1
		c0.5,0.3,0.8,0.8,0.5,1.3c-0.2,0.3-0.4,0.5-0.7,0.7c-0.3,0.2-0.5,0.4-0.8,0.6c-0.4,0.4-0.9,0.7-1.1,1.3c-0.1,0.2-0.1,0.4-0.2,0.6
		c-0.1,0.3-0.1,0.6-0.5,0.5c0,0-0.1,0-0.1,0.1c-0.1,0-0.2,0-0.2,0c0.2-0.3,0.2-0.7,0.2-1.1c0-0.4-0.2-0.6-0.5-0.7
		c-0.4-0.2-0.7,0-0.9,0.3c-0.1,0.1-0.2,0.3-0.1,0.4c0.1,0.1,0.1,0.2,0.3,0.1c0.2,0,0.3-0.2,0.3-0.3c0-0.3,0.2-0.3,0.4-0.2
		c0.4,0.1,0.4,0.4,0.4,0.7c0,0.4-0.2,0.6-0.5,0.7c-0.3,0.1-0.5,0.2-0.8,0c-0.1-0.1-0.2-0.3-0.3-0.2c-0.1,0.1,0.1,0.2,0.3,0.3
		c0.1,0,0.1,0.1,0.2,0.1c0.4,0.1,0.7-0.1,1-0.2c0,0.1-0.1,0.2-0.1,0.3c-0.1,0.3-0.5,0.4-0.7,0.7c-0.4,0.7-1,1.2-1.6,1.5
		c-0.2,0.1-0.4,0.1-0.6,0.1c-1.1-0.1-1.5-0.9-2.1-1.6c-0.3-0.4-0.5-0.9-0.9-1.4c-0.4-0.5-0.8-1.1-1.1-1.5c-0.1-0.2-0.2-0.5-0.3-0.6
		c-0.3-0.1-0.3-0.3-0.4-0.6c0.2-0.3,0.1-0.7-0.3-0.9c-0.2-0.3-0.4-0.6-0.5-0.9c-0.1-0.3-0.1-0.5-0.2-0.8c-0.1-0.3-0.1-0.6,0.2-0.8
		c0.2-0.1,0.3-0.4,0.2-0.6c-0.2-0.2-0.2-0.5-0.3-0.8c0,0.1-0.1,0.1-0.1,0.1c0,0.4-0.1,0.8-0.1,1.2c0,0.1,0,0.2-0.2,0.2
		c0-0.1,0-0.3-0.1-0.4c-0.1-0.1-0.2-0.3-0.2-0.5s0.1-0.3,0-0.5c-0.1-0.3,0-0.4,0.2-0.5c0.2,0,0.5-0.2,0.5,0.2c0,0,0,0,0.1,0
		c0.2-0.1,0.2-0.4,0.5-0.4c0.1,0,0.3,0,0.4-0.1c0.1,0,0.2-0.1,0.2,0c0,0.1,0.1,0.1,0.1,0.2c0,0.1-0.1,0.2-0.2,0.2
		c-0.1,0-0.2-0.1-0.2,0c-0.1,0.2,0,0.3,0.1,0.5c0.1,0.1,0.3,0,0.3-0.1c0-0.1,0.1-0.3,0.1-0.4c0-0.4,0.1-0.4,0.5-0.3
		c-0.1,0.4-0.4,0.8-0.3,1.3c0.1-0.3,0.2-0.6,0.3-0.9c0.1-0.3,0.2-0.5,0.6-0.5c0.3,0,0.6,0,0.9,0.1c0.2,0,0.4,0.2,0.6,0.2
		c0.4,0,0.8,0.1,1.2,0.3c0.7,0.3,1.4,0.7,2,1.3c1,1,1.2,2.3,0.6,3.6c-0.3,0.8-1,1.2-1.7,1.3c-0.7,0.1-1.4,0-2-0.3
		c-0.5-0.2-0.9-0.6-0.8-1.1c0-0.3-0.1-0.4-0.2-0.6c-0.3-0.3-0.4-0.7-0.2-1c0.2-0.4,0.2-0.9,0.5-1.2c0,0,0-0.1,0-0.2
		c-0.5,0.4-0.5,0.9-0.7,1.4c0,0.1-0.1,0.3-0.1,0.4c0.1,0.5,0.2,1.1,0.5,1.5c0.2,0.3,0.4,0.6,0.7,0.7c0.4,0.2,0.8,0.2,1.3,0.3
		c0.1,0,0.3-0.1,0.2,0.1c0,0.2-0.1,0.2-0.3,0.3c-0.2,0-0.3,0-0.4-0.1c-0.1-0.1-0.2-0.1-0.3-0.1c-0.1,0.1-0.1,0.2-0.1,0.3
		c0,0.1,0.1,0.2,0.3,0.2c0.1,0,0.2,0,0.2,0c0.2,0,0.3,0,0.2,0.2c0,0.2,0,0.4,0.1,0.6c0.1,0.2,0.2,0.3,0.4,0.2
		c0.2-0.1,0.4-0.2,0.4-0.5s-0.3-0.2-0.5-0.1c-0.2,0-0.4-0.2-0.3-0.4c0.2-0.3,0.4-0.6,0.7-0.6c0.6-0.1,1-0.4,1.4-0.6c0,0,0,0,0.1,0.1
		c-0.1,0.3-0.2,0.7-0.5,1c-0.1,0.1-0.2,0.3-0.1,0.5c0.1,0.2,0.2,0.1,0.4,0c0.1-0.1,0.1,0.1,0.2,0c0-0.3,0-0.7,0.1-1.1
		c0.1-0.5,0.4-1,0.7-1.4c0.1-0.1,0.1-0.1,0.2-0.1c0.3,0.1,0.4-0.2,0.3-0.3c-0.3-0.5,0-1-0.1-1.4c-0.1-0.3,0-0.6-0.3-0.9
		c-0.1-0.1-0.1-0.3-0.2-0.4h0.1c0.3,0.1,0.6,0.3,0.9,0.4c0.6,0.4,0.6,0.5,0.1,1l-0.1,0.1c-0.1,0.1-0.1,0.3,0,0.4
		c0.1,0.1,0.2,0.1,0.4,0c0.3-0.2,0.5-0.8,0.3-1.1c-0.1-0.2,0-0.2,0.1-0.3c1-0.1,1.7-0.8,2.6-1.3c0.2-0.1,0.1-0.3,0-0.4
		c-0.1-0.1-0.2,0-0.2,0c-0.2,0.2-0.4,0.5-0.7,0.6c-0.2,0.1-0.5,0.5-0.8,0.3c-0.2-0.2-0.4-0.1-0.5,0.1c-0.1,0.2-0.2,0.3-0.4,0.3
		c-0.5,0-1,0-1.4-0.3c-0.6-0.3-1.1-0.9-1.5-1.3c-0.3-0.2-0.7-0.3-1.1-0.5c0.2,0,0.2,0,0.4,0c0.7,0.2,1.3,0,1.8-0.4
		c0.1-0.1,0.1-0.2,0.2-0.3c0.1-0.1,0-0.3-0.1-0.4c-0.1-0.1-0.2,0-0.3,0.2c-0.1,0.1-0.1,0.2-0.1,0.4c0,0.1-0.1,0.2-0.2,0.2
		c-0.1,0-0.4,0.1-0.4-0.1c0-0.4-0.2-0.2-0.4-0.1c-0.3,0.1-0.6,0.4-1,0.3c-0.4-0.1-0.8-0.1-1.3-0.2c-0.7-0.1-1.3-0.3-1.9-0.2
		c-0.1,0-0.2,0-0.1-0.1c0.2-0.2,0.3-0.6,0.7-0.6c0.7,0,1.3,0,1.9,0c0.1,0,0.3,0.1,0.4,0.1c0.4-0.2,0.7,0,1.1,0
		c0.7,0,1.3,0.1,1.9,0.1c0.2,0,0.3,0.1,0.3,0.3c0,0.2-0.1,0.4,0,0.6c-0.1,0.1-0.1,0.2-0.2,0.4c-0.1,0.3-0.4,0.5-0.6,0.7
		c0.2,0.2,0.4,0.4,0.7,0.3c0.3-0.1,0.5-0.3,0.5-0.7c0.2-0.2,0.5-0.3,0.6-0.6c0.1-0.1,0.2-0.3,0.2-0.4c0,0,0,0,0.1,0c0,0,0,0,0,0.1
		c0,0.3,0.3,0.3,0.6,0.4c0.3,0,0.6,0.2,0.6,0.5c0,0.3-0.1,0.5-0.4,0.7c-0.3,0.2-0.6,0.1-0.8-0.2c-0.1-0.2-0.3-0.2-0.4,0
		c-0.1,0.2,0,0.3,0.1,0.4c0.1,0.1,0.2,0.1,0.3,0.1c0.6,0.1,1.3-0.3,1.4-0.9c0.1-0.5,0-0.7-0.4-0.9c-0.2-0.1-0.4,0-0.6,0
		c-0.1,0-0.2,0-0.1-0.2c0-0.1,0.2-0.1,0.1-0.2c-0.1-0.1-0.2,0-0.3,0c0-0.3,0-0.7,0.3-0.9c0,0.1,0,0.2,0.1,0.2s0.2,0,0.2-0.1
		c0.2-0.4,0.5-0.2,0.7-0.2c0.1,0,0.3,0,0.3,0.2c0,0.2-0.1,0.3-0.3,0.3c-0.3,0.1-0.5,0.1-0.8,0.2c0,0-0.1,0-0.1,0.1
		c0,0.1,0.1,0.1,0.1,0.1c0.5-0.1,0.9-0.2,1.4-0.5c0.3-0.1,0.6-0.4,0.9-0.6c0.3-0.2,0.5-0.1,0.6,0.3c0,0.1,0,0.2-0.1,0.3
		c-0.1,0.4-0.2,0.4-0.5,0.1c-0.2-0.2-0.4-0.1-0.5,0.2c0,0.2-0.1,0.3,0,0.5c0.1,0.3,0.1,0.7,0,1c0,0.1,0,0.1,0.1,0.2
		c0.1,0,0.1,0,0.2-0.1c0.1-0.3,0.3-0.5,0.4-0.8c0.1-0.2,0.1-0.5,0.5-0.5c0.2,0,0.3-0.1,0.3-0.3s0.1-0.4,0-0.6
		c-0.1-0.1,0-0.2,0.1-0.1c0.1,0.1,0.2,0.1,0.3-0.1c0-0.2-0.1-0.2-0.2-0.3c-0.4-0.2-0.5-0.3-0.3-0.8c0.3-0.8,0.1-1.7-0.6-2.3
		c-0.4-0.4-0.4-0.4,0.1-0.6c0.4-0.1,0.5-0.5,0.3-0.8c-0.1-0.2-0.3-0.2-0.4-0.2c-0.2,0-0.1,0.2,0,0.3c0.1,0.4,0,0.7-0.5,0.7
		c-0.2,0-0.5,0-0.7-0.1c-0.6-0.1-1.1-0.2-1.6-0.4c-0.3-0.1-0.5-0.1-0.7,0s-0.3,0.3-0.5,0.2c-0.4-0.1-0.7,0.1-1.1,0
		c-0.2,0-0.5,0-0.7,0.1c-0.5,0.2-0.9,0.2-1.4,0.2c-0.3,0-0.7,0-1,0c-0.3,0-0.6,0.1-1,0.2c-1,0.2-1.6-0.1-2.3-0.8
		c-0.4-0.4-0.8-0.6-1.2-0.9c-0.3-0.2-0.8-0.4-1.1-0.7c-0.1-0.1-0.2-0.1-0.3-0.1c-0.4,0-0.9,0-1.3,0c-0.3,0-0.6-0.1-0.8,0
		c-0.3,0.1-0.5,0-0.6-0.2c-0.1-0.1-0.2-0.2-0.3-0.2c-0.2-0.1-0.4-0.2-0.5,0.1c-0.1,0.2,0.1,0.4,0.2,0.5c0,0,0.2,0,0.2,0.1
		c0,0.1-0.1,0.1-0.2,0.1s-0.2,0.1-0.3,0.1c-0.3,0.2-0.7,0.5-0.9,0.8c-0.1,0.1-0.2,0.3,0,0.4c0.2,0.1,0.3,0,0.4-0.1
		c0.1-0.1,0.2-0.3,0.3-0.5c0.2-0.5,0.9-0.8,1.4-0.8c-0.1,0.1-0.1,0.2-0.2,0.3c-0.2,0.4-0.1,0.7,0.1,1c0.3,0.2,0.7,0.3,1,0
		c0.2-0.1,0.3-0.5,0.2-0.7c-0.1-0.1-0.2-0.2-0.4-0.2c-0.1,0-0.2,0-0.2,0.2c0,0.1,0,0.2,0.2,0.3l0.1,0.1c-0.4,0.2-0.6,0.2-0.8,0
		c-0.2-0.2-0.1-0.6,0.2-0.8c0.2-0.2,0.5-0.3,0.8-0.3c0.8-0.1,1.4,0.1,2.1,0.4c0.1,0,0.3,0,0.2,0.2c0,0.2-0.2,0.1-0.3,0.1
		c-0.4,0-0.7,0.1-1,0.3c-0.1,0.1-0.1,0.3,0.1,0.4c0.3,0.1,0.5,0,0.7-0.1c0.1-0.1,0.2-0.2,0.3,0c0.2,0.2,0.4,0.2,0.7,0s0.6-0.1,0.9,0
		c0.2,0.2,0.4,0.4,0.7,0.6c-0.3,0-0.6-0.1-0.7,0.3c-0.2,0.2-0.3,0-0.5,0c-0.2-0.5-0.4-0.7-0.8-0.5c-0.2,0.1-0.4,0.1-0.6,0.2
		c-0.2,0-0.8,0.5-0.9,0.7c0,0.1,0,0.2,0.1,0.3c-0.1,0.3-0.3,0.7-0.6,0.8c-0.1-0.6-0.4-1.1-0.3-1.6c0-0.1-0.1-0.2-0.2-0.2
		c-0.1,0-0.2,0-0.3,0.1c-0.1,0.1-0.1,0.2-0.1,0.3c-0.4,0-0.7-0.3-1.1-0.4c-0.8-0.2-1.4,0-2.1,0.4c-0.4,0.2-0.6,0.5-1.1,0.5
		c-0.2,0-0.2,0.1-0.1,0.3c0.1,0.2,0.3,0.1,0.5,0.2c-0.2,0.3-0.3,0.7-0.2,1c0.1,0.3,0,0.6-0.1,0.9c-0.1,0.2-0.2,0.4,0,0.6
		s0.4,0,0.5-0.1c0.1-0.1,0.2-0.1,0.3,0c0.4,0.3,0.9,0.4,1.3,0.4c0.6,0,1.3-0.3,1.4-1.3c0-0.3,0.1-0.7-0.1-1.1c0,0.2-0.1,0.4-0.1,0.6
		c0,0.4,0,0.9-0.4,1.2c-0.1,0.1-0.2,0.2-0.3,0.1c-0.2-0.5-0.4-0.1-0.6,0c-0.2,0.2-0.4,0.2-0.6,0.2c-0.5-0.1-1.3-1.1-1.2-1.6
		c0-0.3,0-0.5,0.2-0.8c0.3-0.5,0.8-0.8,1.3-1c0.7-0.3,1.8-0.1,2.4,0.5c0.1,0.1,0.3,0.2,0,0.3c-0.2,0-0.3,0.2-0.3,0.4
		c0.1,0.2,0.2,0.3,0.4,0.3c0.2,0,0.5,0,0.7,0.1c0,0.3-0.4,0.5-0.5,0.7c-0.2,0.4-0.5,0.7-0.8,1.1c-0.2,0.2-0.3,0.5-0.5,0.7
		C460.6,462.2,460.5,462.5,460.4,462.7L460.4,462.7z M471.5,476.1c-0.2,0-0.4,0.1-0.4,0.3c0,0.2-0.1,0.5,0,0.7
		c0.1,0.2,0.2,0.3,0.4,0.3c0.2,0,0.4,0,0.5-0.3c0.1-0.3,0-0.6-0.3-0.6C471.5,476.5,471.4,476.3,471.5,476.1
		C471.4,476.2,471.5,476.2,471.5,476.1c0.2-0.2,0.4-0.2,0.6-0.2c0.1,0,0.2-0.1,0.3-0.1c-0.2-0.3,0.2-0.3,0.2-0.4
		c-0.3-0.1-1.1,0.3-1.2,0.5C471.4,476,471.5,476.1,471.5,476.1z M470.6,454.4c0.3,0.1,0.5,0.1,0.7,0.3c0.2,0.1,0.2,0,0.3-0.1
		c0.1-0.1,0.2-0.2,0.1-0.3c0-0.1-0.2-0.1-0.3-0.1c-1,0-1.9,0-2.9,0c-0.1,0-0.2,0-0.2,0.1s0,0.2,0.1,0.2c0.1,0.1,0.2,0.1,0.3,0
		c0.1,0,0.1-0.1,0.2-0.1c0.1-0.1,0.3-0.1,0.3,0.1c0.1,0.5,0,0.9-0.2,1.4c-0.2,0.3-0.5,0.5-0.9,0.5c-0.4,0-0.9,0.2-1.2-0.3
		c-0.1-0.2-0.2-0.4-0.1-0.6c0-0.2,0.2-0.2,0.4-0.2s0.3-0.1,0.5-0.2c0.3-0.1,0.3-0.3,0.1-0.6c-0.2-0.2-0.9-0.1-1,0.1
		c0,0.2-0.2,0.3-0.3,0.5c-0.3,0.4-0.2,1.1,0.2,1.3c0.3,0.2,0.5,0.3,0.3,0.7c0,0.1,0,0.2,0.1,0.3c0.1,0,0.2,0,0.3-0.1
		c0.1-0.2,0.3-0.4,0.5-0.5c0.6-0.3,1.2-0.6,1.4-1.3c0-0.2,0.1-0.2,0.2,0c0.4,0.5,0.4,0.8-0.1,1.2c-0.1,0.1-0.2,0.2-0.1,0.4
		c0.1,0.1,0.2,0.2,0.4,0.1c0.4-0.2,0.5-0.5,0.5-0.8c0.2,0.1,0.4,0.2,0.6,0.3c0.6,0.3,1.1,0.3,1.6,0.2c0.1,0,0.2,0,0.2-0.1
		c0-0.1-0.1-0.1-0.2-0.1c-0.7,0.2-1.3,0-1.8-0.3c-0.7-0.3-1.2-1.1-1.2-1.7c0-0.1,0-0.1,0-0.2c0.2-0.2,0.7,0,0.8,0.2
		c0,0.2,0.2,0.5,0.3,0.7c0.3,0.5,1.4,0.6,1.7,0.1c0.3-0.3,0.2-0.7,0.4-1.1c0-0.1-0.1-0.1-0.1-0.1c-0.1,0-0.1,0-0.1,0.1
		c-0.1,0.2-0.2,0.4-0.3,0.6c-0.1,0.1-0.2,0.3-0.4,0.3C471.4,455.2,470.8,454.8,470.6,454.4z M469.2,464.5c0.1-0.3,0.3-0.4,0.3-0.7
		c0-0.1-0.1-0.2-0.2-0.2c-0.1,0-0.2,0-0.3,0.1c-0.1,0.1-0.1,0.2,0,0.3c0.1,0.4,0,0.6-0.3,0.8c-0.2,0.1-0.4,0.2-0.6,0.3
		c-0.1,0-0.2,0.1-0.1,0.2c0.1,0.1,0.2,0,0.2,0c0.4-0.2,0.9-0.4,1.4-0.4c0.5,0,0.7,0.2,0.6,0.7c0,0.2,0,0.3,0.1,0.4
		c0.2,0.1,0.3,0,0.4-0.1c0.1-0.1,0.2-0.2,0.2-0.3c0-0.1,0.1-0.1,0.2-0.1c0.6,0.3,0.8,1.1,0.6,1.6c-0.1,0.2-0.2,0.3-0.3,0.4
		c-0.4,0.4-0.8,0.3-1.2,0.1c-0.3-0.1-0.4-0.4-0.4-0.7c0-0.3-0.2-0.5-0.4-0.7c-0.3-0.3-0.8-0.2-1,0.2c-0.1,0.2-0.1,0.4,0,0.6
		c0.1,0.1,0.2,0.1,0.2,0c0.2-0.1,0.2-0.3,0.2-0.5s0-0.2,0.2-0.2c0.4,0.1,0.5,0.3,0.3,0.7c-0.1,0.4-0.2,0.8,0,1.2
		c0.2,0.2,0.3,0.3,0,0.5c-0.1,0.1-0.2,0.3-0.1,0.5c0.1,0.1,0.3,0.2,0.4,0.1c0.2,0,0.2-0.2,0.3-0.3s0.2-0.4,0.3-0.4
		c0.2,0,0.4,0,0.6-0.1c0.6-0.1,1.1-0.4,1.2-1c0.2-0.9,0-1.7-0.8-2.3C470.6,464.6,469.9,464.4,469.2,464.5z M475.3,475.5
		c-0.1,0-0.2,0.1-0.3,0.1c-0.3,0-0.3,0.2-0.2,0.4c0.1,0.2,0.2,0.3,0.4,0.2c0.4-0.1,0.5-0.6,0.3-0.9c-0.5-0.6-1.4-0.5-1.8,0.2
		c-0.1,0.2-0.1,0.5-0.3,0.6c-0.2,0-0.4-0.2-0.6-0.2c-0.1,0-0.2-0.2-0.3,0c0,0-0.1,0.1,0,0.2c0,0.1,0.2,0.1,0.3,0.1
		c0.3,0,0.4,0.3,0.7,0.4c0.1,0,0.1,0.2,0,0.3c0,0.1-0.1,0.1-0.2,0.1c-0.1,0-0.2,0-0.3,0c-0.3,0-0.5,0.2-0.6,0.5c0,0.1-0.1,0.2,0,0.3
		c0.1,0.1,0.2,0,0.3-0.1c0.1-0.2,0.2-0.3,0.3-0.1c0.2,0.2,0.4,0.1,0.6-0.1c0.1-0.2,0.2-0.1,0.3,0.1c0.1,0.3,1,0.5,1.3,0.4
		c0.3-0.1,0.7-0.2,1-0.2c0.3,0,0.5,0,0.8,0c0.5,0,1.1-0.4,1.3-0.9c0.2-0.6,0-1-0.6-1c-0.3,0-0.4,0.3-0.6,0.5
		c-0.1,0.1,0.1,0.3,0.2,0.4c0.1,0.1,0.2,0,0.2-0.1c0.1-0.2,0.2-0.1,0.4,0c0.2,0.1,0.1,0.3,0,0.4c-0.3,0.4-1,0.6-1.4,0.4
		c-0.1,0-0.2-0.1,0-0.2c0.3-0.2,0.4-0.6,0.5-0.9c0.1-0.2,0.1-0.5-0.2-0.6c0.1,0.5-0.1,0.7-0.5,0.6c-0.2,0-0.2,0.2-0.3,0.3
		c-0.1,0.1,0,0.2,0.1,0.2c0.1,0,0.2,0.1,0.2,0.2c-0.1,0.1-0.2,0.1-0.3,0.1c-0.1,0-0.3-0.1-0.4,0c0,0.1,0.2,0.1,0.1,0.2
		c0,0-0.1,0-0.2,0c-0.1-0.1-0.2,0-0.2,0c-0.2,0.1-0.4,0.1-0.5,0c-0.2-0.1-0.4-0.3-0.6-0.4c-0.1,0-0.1-0.2-0.1-0.3
		c0.1-0.1,0.2-0.1,0.3,0c0.2,0.1,0.4,0.2,0.6,0.3c0.1,0,0.1,0.1,0.2,0c0.1-0.1,0-0.1-0.1-0.1c-0.3-0.1-0.5-0.3-0.8-0.4
		c-0.2-0.1-0.2-0.2-0.2-0.4c0.1-0.6,0.4-0.8,1.1-0.8C474.9,475.2,475.2,475.2,475.3,475.5z M480.3,460.1c-0.3-0.2-0.4-0.4-0.7-0.5
		c-0.5-0.2-1,0-1.1,0.4c-0.1,0.4,0,0.7,0.4,1c0.1,0.1,0.2,0.1,0.4,0.2c0.1,0.1,0.3,0.2,0,0.4c-0.1,0.1-0.2,0.3-0.1,0.4
		c0,0.1,0.2,0.1,0.2,0.1c0.2,0,0.3-0.1,0.3-0.3v-0.1c0-0.4-0.3-0.6-0.6-0.8c-0.2-0.1-0.4-0.4-0.3-0.6c0.1-0.3,0.3-0.4,0.6-0.3
		c0.3,0,0.5,0.2,0.6,0.5c0.3,0.5,0.2,1.1,0.1,1.5c-0.1,0.5-0.3,1.1-0.6,1.5c-0.1,0.1-0.1,0.4-0.3,0.4c-0.1-0.1,0-0.3,0-0.5
		c0.1-0.3-0.1-0.5-0.2-0.8c-0.1-0.1-0.3-0.2-0.5-0.2c-0.1,0-0.2,0.2-0.1,0.4c0.1,0.3,0.2,0.6,0,1c0,0,0,0.1,0.1,0.2
		c0.2,0.5,0.1,0.8-0.3,1.2c-0.2,0.2-0.5,0.4-0.8,0.6c-0.1,0-0.2,0.1-0.1,0.2c0,0.1,0.1,0.1,0.3,0c0.5-0.3,0.9-0.7,1.3-1.1
		c0.5-0.5,0.8-1.2,1.4-1.7c0.2-0.2,0.3-0.5,0.1-0.8c0-0.1-0.1-0.2,0-0.3c0.2-0.3,0.1-0.7,0.2-1.1c0.1-0.2-0.1-0.3,0-0.5
		c0.1-0.2,0.2-0.4,0.5-0.5c0.2-0.1,0.2-0.5,0.1-0.7c-0.1-0.2-0.4-0.1-0.5,0c-0.2,0.4-0.3,0.1-0.4-0.1
		C480.2,459.5,480.2,459.7,480.3,460.1z M481.3,455.3c-0.3,0.2-0.3,0.5-0.4,0.7c-0.1,0.5-0.4,0.8-0.8,0.9c-0.4,0.1-0.9-0.2-1.1-0.5
		c-0.3-0.5-0.2-1,0.2-1.5c0.3-0.3,0.3-0.3,0.5,0c0.1,0.2,0.2,0.3,0.4,0.2c0.1,0,0.2-0.1,0.2-0.3c0-0.2,0-0.6-0.1-0.6
		c-0.2-0.1-0.5-0.1-0.7,0.1c-0.5,0.3-0.8,0.8-0.9,1.4c-0.2,1.2,0.2,1.8,1.4,2c0.4,0.1,0.7,0,0.8,0.5c0,0.1,0.1,0.2,0.2,0.3
		c0.1,0.1,0.1,0.1,0.2,0.1c0.1,0,0.1-0.1,0.1-0.2c0-0.2,0.1-0.5-0.1-0.7c-0.1-0.1,0-0.1,0-0.2c0.1-0.1,0.1-0.1,0.1-0.2
		C481.3,456.5,481.3,455.9,481.3,455.3z M467.4,463.8c-0.1,0.1-0.2,0.1-0.2,0.1c-0.3,0.2-0.5,0.5-0.8,0.8c-0.1,0.1-0.2,0.2-0.2,0
		c0-0.1,0-0.2-0.1-0.2c-0.1,0-0.1,0.1-0.1,0.2c0.1,0.3,0,0.7,0,1c0,0.2,0.1,0.4-0.3,0.3c-0.1,0-0.4-0.1-0.5,0.1
		c-0.1,0.3,0.1,0.5,0.4,0.4c0.2,0,0.4,0,0.4,0.2c0,0.1,0.1,0.3,0.1,0.4c0.2,0.8,0.5,1.4,0.8,2.1c0.1,0.3,0.4,0.6,0.2,1
		c-0.1,0.1,0.1,0.3,0.2,0.3c0.5,0.1,0.6,0.6,1,0.8c0.1,0,0.2,0.1,0.2,0.1c0,0.3,0.2,0.5,0.4,0.6c0.4,0.4,0.8,0.8,1.3,1
		c0.4,0.2,0.9,0.1,1.3-0.1c-0.3-0.1-0.6,0-0.9,0s-0.9-0.2-1-0.6c-0.1-0.3-0.3-0.4-0.5-0.6c-0.3-0.1-0.5-0.4-0.8-0.6
		c-0.6-0.7-1.1-1.4-1.4-2.3c-0.4-0.7-0.5-1.4-0.7-2c-0.2-0.7-0.2-1.4,0.6-1.9c0.1,0,0.1-0.1,0.1-0.2c-0.2-0.3,0-0.4,0.2-0.5
		C467.2,464.1,467.3,464,467.4,463.8z M468.7,479c0.1-0.1,0.1,0,0.2,0s0.3,0,0.4-0.2c0-0.2-0.1-0.4-0.3-0.4
		c-0.2-0.1-0.4,0.1-0.5,0.3C468.4,478.9,468.5,479,468.7,479c0.3,0.5,1.3,0.5,1.4,0c0.2-0.4,0.4-0.8,0.8-1c0.1-0.1,0.2-0.3,0-0.5
		c-0.1-0.1-0.3,0-0.4,0.1c-0.1,0.1-0.2,0.2-0.4,0.3c-0.1,0.1-0.2,0.1-0.3,0c-0.2-0.2-0.6-0.3-0.9-0.3c-0.5-0.1-0.9,0-1.3,0.4
		c-0.2,0.2-0.3,0.2-0.5,0c-0.1-0.2-0.2-0.3-0.4-0.1c-0.2,0.2,0,0.4,0.1,0.4c0.3,0.2,0.4,0.4,0.4,0.7c0.1,0.5,0.4,0.8,0.9,0.9
		c0.1,0,0.2,0,0.2,0.2c-0.1,0-0.1,0-0.2,0.1c-0.1,0.1-0.3,0.2-0.2,0.4c0,0.1,0.1,0.3,0.3,0.3s0.2-0.2,0.4-0.3
		c0.2-0.2,0.4-0.6,0.8-0.5c0.1,0,0.2-0.1,0.2-0.2c0-0.1-0.1,0-0.2,0c-0.4-0.1-0.8-0.1-1.2-0.2c-0.4-0.1-0.7-0.3-0.8-0.7
		c-0.1-0.4,0-0.8,0.4-1c0.5-0.3,1.2-0.4,1.6,0.2c0.2,0.2,0.4,0.4,0.2,0.7C469.6,479.2,469,479.4,468.7,479z M481,466.6
		c0-0.4-0.3-0.8-0.7-1c-0.8-0.4-1.3-0.1-1.4,0.5c0,0,0,0.1-0.1,0.1s-0.1,0-0.1-0.1c-0.1-0.3-0.4-0.3-0.5-0.2c-0.2,0.2,0,0.3,0.2,0.5
		c0.2,0.2,0.4,0.3,0.4,0.5c0,0.6,0.4,0.9,0.8,1.2c0.1,0.1,0.3,0.2,0.2,0.3c0,0.1-0.2,0.2-0.4,0.2s-0.3,0-0.5-0.1
		c-0.1-0.1-0.3-0.2-0.4-0.3c-0.1-0.1-0.2-0.2-0.3-0.1c-0.1,0.1-0.1,0.2-0.1,0.3c0,0.3,0.3,0.7,0.5,0.6c0.2,0,0.2,0.3,0.4,0.1
		c0.5-0.5,1.1-0.8,1.8-0.8c0.1,0,0.2,0,0.2-0.1c0.1,0,0.2-0.1,0.2-0.2c0-0.2-0.2-0.1-0.2-0.1c-0.2,0.1-0.5,0.1-0.7,0
		c-0.6-0.1-1.1-0.2-1.3-0.9c-0.1-0.4-0.1-0.9,0.1-1.3c0.1-0.3,0.6-0.4,0.9-0.3c0.2,0.1,0.3,0.2,0.2,0.3c-0.1,0.3,0,0.5,0.2,0.7
		c0.1,0.1,0.2,0.2,0.4,0.2C481,466.9,480.9,466.7,481,466.6z M455.1,477.8c0.4,0.1,0.8,0.1,1.2-0.1c0.1,0,0.3-0.1,0.2,0.1
		c-0.1,0.6,0.4,1.1,0.1,1.6v0.1c0,0.2,0.1,0.2,0.2,0.1c0.2-0.2,0.6-0.3,0.9-0.4c0.3-0.1,0.7-0.2,1-0.5c0,0,0.1-0.1,0-0.1
		c0-0.1-0.2-0.1-0.2,0c-0.2,0.3-0.6,0.3-0.9,0.4c-0.1,0-0.1,0.1-0.2,0c-0.7-0.4-1-0.9-0.5-1.6c0.2-0.4,0.4-0.7,0.5-1.2
		c0.1-0.7,0.2-1.4-0.3-1.9c-0.2-0.2-0.3-0.5-0.4-0.7c0.6-0.1,0.8-0.3,0.8-0.8c0-0.2-0.1-0.2-0.2-0.3c-0.1,0-0.2,0.1-0.2,0.2
		c-0.1,0.3-0.3,0.5-0.7,0.4c-0.1,0-0.3-0.1-0.4,0c-0.1,0.2,0.2,0.2,0.3,0.3c0.4,0.3,0.5,0.8,0.8,1.1c0.4,0.5,0.4,1.5-0.1,2
		c-0.2,0.2-0.3,0.4-0.4,0.6c-0.1,0.2-0.3,0.5-0.5,0.5C455.7,477.7,455.4,477.8,455.1,477.8z M478.3,470.5
		C478.2,470.5,478.2,470.5,478.3,470.5c-0.1,0.1-0.1,0.1-0.1,0.2c-0.1,0.9,0,1.6,0.5,2.4c0.1,0.2,0.2,0.4,0.2,0.6c0,0.5-0.3,1-0.7,1
		c-0.6,0.1-1.2-0.1-1.3-0.7c-0.1-0.3,0-0.6,0.3-0.7c0.2-0.2,0.4,0,0.5,0.2c0.1,0.2,0.3,0.2,0.5,0.1c0.1-0.1,0-0.3-0.1-0.5
		c-0.3-0.4-1.2-0.2-1.4,0.3c-0.3,0.9,0.2,1.4,1.2,1.5c0.2,0,0.5,0,0.7,0.2c0.1,0.1,0.2,0.1,0.3,0.1c0.1-0.1,0.1-0.2,0.1-0.3
		c0-0.2-0.1-0.4,0-0.6c0.2-0.3,0.3-0.6,0.2-0.9c0-0.1,0-0.2,0.1-0.2c0.2,0.1,0.3,0,0.5,0c0.5,0.1,1,0.2,1.4,0c0.1,0,0.3,0,0.2-0.1
		c0-0.2-0.2-0.1-0.3,0c-0.3,0.1-0.6,0.1-0.9,0.1s-0.5-0.1-0.8-0.2c-0.4-0.2-0.5-0.7-0.8-1c-0.2-0.1-0.3-0.4-0.3-0.7
		C478.3,471.2,478.4,470.8,478.3,470.5z M480.7,469.6c-0.2,0.2-0.2,0.3-0.3,0.4c-0.2,0.2-0.2,0.7,0,0.7s0.3,0.2,0.3,0.3
		c0.1,0.2,0.3,0.3,0.5,0.2c0.1-0.1,0.1-0.3,0-0.4c0,0,0-0.1-0.1-0.2c-0.2-0.4-0.3-0.7,0.1-1.1c0,0,0.1-0.1,0-0.2c0-0.1-0.1,0-0.2,0
		c-0.2,0-0.5,0.1-0.7,0c-0.7-0.1-1.3,0.7-1.2,1.4c0.1,0.5,0.5,0.6,0.9,0.7c0.3,0.1,0.5,0.2,0.6,0.5c-0.1,0-0.2,0-0.3,0
		c-0.1,0-0.3,0.1-0.3,0.3c0,0.1,0,0.3,0.2,0.4c0.2,0.1,0.3,0,0.4-0.1c0.3-0.5,0.3-0.7-0.1-1c-0.1-0.1-0.3-0.2-0.4-0.3
		c-0.4-0.2-0.6-0.6-0.4-0.9C480.1,470.1,480.2,469.7,480.7,469.6z M478.6,480.3c-0.1,0.3,0,0.5,0.1,0.8c0,0.1,0,0.2,0.1,0.2
		c0.1,0,0.1-0.1,0.1-0.2c0-0.3,0.1-0.4,0.3-0.5c0.4-0.1,0.7,0,0.9,0.3c0.1,0.1,0.2,0.1,0.4,0c0.1-0.1,0.1-0.2,0-0.3
		c-0.2-0.3-0.5-0.3-0.7-0.6c-0.1-0.1-0.4-0.1-0.5,0.1c-0.1,0.1-0.2,0-0.3,0c-0.1,0-0.1-0.1,0-0.1c0.2-0.2,0.3-0.5,0.6-0.5
		c0.3-0.1,0.7,0,0.9,0.3c0.1,0.2,0.3,0.4,0.4,0.6c0,0.1,0.2,0.2,0.3,0.1c0.1-0.1,0-0.2-0.1-0.2c-0.1-0.1-0.3-0.2-0.3-0.4
		c0-0.4-0.2-0.6-0.4-0.8c-0.1-0.1-0.4-0.3-0.7-0.2C479.1,479.2,478.4,479.4,478.6,480.3z M465.9,454.1c-0.4,0-0.7,0-1.1,0.2
		c-0.4,0.2-0.8,0.2-1.2,0.2c-0.6,0.1-1.1,0-1.6-0.3c-0.2-0.1-0.5-0.2-0.6,0c-0.1,0.1-0.2,0.1-0.3,0c-0.2-0.1-0.5-0.2-0.8-0.1
		c0.3,0.2,0.6,0.2,0.9,0.3c0.5,0.1,1.1,0.2,1.6,0.3c0.6,0,1.2,0.1,1.6,0c0.3-0.1,0.6-0.2,1-0.2c0.3,0,0.7,0.4,0.7,0.6
		s-0.5,0.4-0.7,0.4c-0.1,0-0.2,0-0.2-0.1c0-0.1,0.1-0.1,0.2-0.1c0.1,0,0.2-0.1,0.2-0.2c0-0.1-0.1-0.2-0.3-0.2
		c-0.2,0-0.4,0.1-0.4,0.4c0,0.2,0,0.4,0.2,0.5c0.5,0.3,1.2,0,1.3-0.6c0-0.4-0.2-0.7-0.6-0.8C465.7,454.3,465.9,454.3,465.9,454.1z
		 M473,478.9c-0.9,0.7-1.8,1-2.9,1.1c-0.1,0-0.2-0.1-0.2,0.1c0,0.1,0.2,0.1,0.3,0.1c0.6,0,1.1-0.2,1.6-0.1c0.1,0,0.2,0,0.3-0.1
		c0.3-0.3,0.8-0.6,1.2-0.9c0.3-0.2,0.7-0.4,0.9-0.8c0-0.1,0.2-0.1,0.1-0.2c-0.1-0.1-0.2,0-0.2,0.1c-0.2,0.2-0.5,0.3-0.8,0.2
		c-0.2-0.1-0.5-0.2-0.6-0.1c-0.2,0.2-0.4,0.1-0.5,0c-0.2-0.1-0.4,0-0.6,0.1c-0.1,0-0.2,0.2-0.1,0.3c0.2,0.1,0.2,0.3,0.5,0.3
		C472.2,479,472.6,479,473,478.9z M471.3,475.6c-0.1-0.1-0.2,0-0.3,0.1c-0.5,0.5-1,0.9-1.4,1.4c-0.2,0.2-0.3,0.2-0.5,0
		c-0.1-0.1-0.3-0.2-0.5-0.2c-0.3,0-0.7,0.1-0.9,0.3c-0.7,0.4-0.9,0.1-1.2-0.4c-0.2-0.3-0.4-0.6-0.8-0.8c-0.5-0.2-1,0-1.3,0.3
		c-0.1,0.1-0.1,0.2,0,0.3c0.1,0.1,0.1-0.1,0.2-0.1c0.2-0.2,0.5-0.5,0.9-0.3c0.3,0.1,0.6,0.3,0.8,0.7c0.1,0.2,0.2,0.5,0.5,0.6
		c0.5,0.2,0.9,0.1,1.4,0c0.2,0,0.5-0.1,0.6,0c0.3,0.3,0.5,0,0.8-0.1C470.2,476.9,470.6,476.1,471.3,475.6z M479.2,476.1
		c0,0.5,0,0.9,0,1.3c0,0.1,0,0.2,0.1,0.2c0.2,0.1,0.5,0,0.6-0.2c0.1-0.2,0-0.3-0.1-0.4c-0.2-0.2-0.5-0.5-0.3-0.9
		c0.3-0.7,0.8-1.2,1.5-1.4c0.1,0,0.2,0,0.3-0.2c-0.4-0.2-0.9-0.3-1.2-0.7c-0.1-0.1-0.3-0.2-0.4-0.1c-0.1,0.1,0,0.3,0.1,0.4
		c0.1,0.1,0.2,0.1,0.2,0.2c0.2,0.1,0.4,0.1,0.6,0.2c-0.2,0.2-0.4,0.2-0.6,0.4c-0.3,0.4-0.6,0.6-1.1,0.8c-0.2,0.1-0.3,0.2-0.3,0.5
		c0,0.1,0,0.1,0.1,0.1C478.9,476.5,479,476.4,479.2,476.1z M454.8,471.2c0,0.1-0.1,0.2,0.1,0.3c0.2,0.1,0.3,0,0.4-0.1
		c0.2-0.2,0.4-0.4,0.3-0.7c-0.1-0.2,0-0.4,0.3-0.4c0.6,0,0.8,0.2,0.9,0.7c0.1,0.4,0.2,0.8-0.1,1.2c-0.1,0.1-0.3,0.2-0.2,0.3
		c0.2,0.1,0.2-0.1,0.4-0.2c0.1,0,0.1-0.1,0.1-0.2c0-0.5,0.2-0.9,0.6-1.3c0.1-0.1,0.2-0.3,0-0.4c-0.1-0.1-0.3,0-0.3,0.1
		c-0.2,0.3-0.2,0.1-0.3-0.1c-0.1-0.3-0.4-0.5-0.7-0.6C455.5,469.7,454.8,470.5,454.8,471.2z M474.4,454.1c-0.2,0.2-0.1,0.3-0.1,0.5
		c0,0.4-0.1,0.9-0.4,1.1c-0.5,0.2-0.4,0.7-0.8,1c0.4,0,0.7-0.1,0.9-0.4c0.3-0.4,0.7-0.5,1.1-0.5c0.5,0,0.9,0.5,0.8,1
		c0,0.1,0,0.3,0.1,0.3c0.1,0,0.3,0,0.3-0.2c0-0.1,0-0.3-0.1-0.4c-0.1-0.1-0.2-0.3,0.1-0.4c0.2,0,0.3-0.2,0.3-0.3
		c0-0.2-0.2-0.2-0.3-0.2c-0.2,0-0.3,0.2-0.5,0.1c-0.3-0.1-0.6-0.1-0.9-0.1c-0.2,0-0.4,0-0.3-0.3
		C474.5,454.9,474.5,454.5,474.4,454.1z M460.6,475.4c0-0.2-0.1-0.4-0.1-0.5c0-0.2,0.3-0.2,0.4-0.4c0-0.1,0.1-0.1,0.1-0.2
		c0.1-0.2,0-0.3-0.1-0.4c-0.1-0.1-0.2-0.1-0.4,0c-0.1,0.1-0.1,0.3-0.1,0.4c0,0.1,0.2,0.1,0,0.3c-0.1,0.1-0.3,0.1-0.5,0
		c-0.2-0.1-0.6-0.2-0.7-0.5c0-0.1-0.1-0.1-0.2-0.1c-0.1,0.1,0,0.1,0,0.2c0.1,0.3,0.4,0.4,0.6,0.5s0.4,0.3,0.6,0.5
		c0.1,0.1,0.1,0.3,0,0.4c-0.1,0.1-0.2,0.2-0.4,0.2c-0.1,0-0.2,0-0.1-0.2c0.1-0.3-0.1-0.3-0.3-0.2c-0.2,0.1-0.3,0.5-0.2,0.8
		c0.1,0.2,0.4,0.4,0.7,0.3C460.5,476.2,460.6,475.9,460.6,475.4z M480.2,464.1c0,0.1,0,0.2,0,0.2c0,0.1,0.1,0.2,0.2,0.2
		s0.2-0.1,0.3-0.2c0.1-0.2,0-0.3-0.1-0.4c-0.2-0.1-0.4-0.2-0.6-0.1c-0.4,0.3-0.2,1.1,0.2,1.4c0.1,0.1,0.2,0.2,0.5,0.2
		c0.4-0.1,0.7-0.5,0.7-0.9c0-0.9-0.1-1.8,0-2.7c0-0.1,0-0.2,0-0.2c-0.2,0.7-0.4,1.4-0.3,2c0.1,0.3,0.1,0.6,0.1,0.9
		c0,0.2-0.5,0.7-0.6,0.7c-0.3,0-0.4-0.2-0.5-0.4C480.1,464.5,480,464.3,480.2,464.1z M457.4,464.3c0,0.2-0.4,0.8-0.6,0.9
		s-0.3,0-0.5-0.1c-0.2-0.3-0.2-0.6-0.2-0.9c0-0.1,0-0.2,0.1-0.2c0.1,0,0.1,0.1,0.1,0.2c-0.1,0.2,0,0.2,0.1,0.3c0.1,0,0.2,0,0.3-0.1
		c0.2-0.2,0.2-0.4,0-0.6s-0.5-0.2-0.6,0c-0.2,0.2-0.4,0.5-0.3,0.9c0.1,0.5,0.4,0.8,0.8,0.9c0.3,0.1,0.5-0.2,0.7-0.4
		c0.5-0.5,0.4-1.5,0-2c-0.1-0.1-0.1-0.2-0.2-0.1c-0.1,0.1,0,0.1,0,0.2C457.2,463.7,457.4,463.9,457.4,464.3z M459.1,459.7
		c-0.1,0.3,0.2,0.4,0.3,0.6c0.2,0.2,0.7,0.1,0.9-0.2c0.2-0.3-0.1-0.3-0.2-0.4c-0.2-0.2-0.2-0.5-0.1-0.7c0.1-0.2,0.3,0,0.4,0
		c0.2,0,0.3,0,0.5,0.1c0.1,0.1,0.2,0.1,0.2,0c0-0.1,0-0.2-0.1-0.2c-0.2-0.1-0.4-0.1-0.6-0.2C459.8,458.4,459,459.1,459.1,459.7z
		 M462.1,475.6c0.1-0.2,0-0.4,0-0.5c0-0.2-0.3-0.3-0.4-0.3c-0.2,0-0.3,0.1-0.4,0.3c0,0.1,0,0.3,0.1,0.4c0.1,0.1,0.3,0.2,0.3,0.4
		c0,0.3-0.6,1-0.9,1.1c-0.4,0.1-0.9,0.2-1.3,0.1c-0.1,0-0.2-0.1-0.2,0.1c0,0.1,0.1,0.1,0.2,0.1c0.5,0.2,1,0,1.4-0.2
		C461.6,476.7,462.2,476.3,462.1,475.6z M478.7,454.8c-0.2,0.1-0.4,0.1-0.5-0.1c-0.1-0.2-0.2-0.1-0.3,0c-0.2,0.4-0.6,0.4-0.9,0.3
		c-0.4-0.1-0.8-0.3-1.1-0.7c-0.1-0.1-0.1-0.1-0.2-0.1c-0.1,0.1,0,0.1,0,0.2c0.4,0.4,0.9,0.8,1.2,1.2c0.1,0.1,0.2,0.4,0.5,0.2
		c0.3-0.2,0-0.4,0-0.5l0,0C477.8,455.1,478.4,455.3,478.7,454.8z M479.4,458.4c-0.1,0.2-0.4,0-0.4,0.3s0.3,0.2,0.5,0.2
		c0.1,0,0.3-0.1,0.4,0.1c0,0.1,0.1,0.2,0.3,0.1c0.1-0.1,0-0.2,0-0.3c-0.3-0.5-0.8-0.8-1.3-1.1c-0.1-0.1-0.2,0-0.3,0
		c-0.2,0-0.4,0-0.4,0.2s0.1,0.2,0.3,0.3C478.7,458.2,479.1,458.2,479.4,458.4z M475.8,470.6c0,0.1,0,0.1,0,0.2
		c0,0.2,0.2,0.4,0.4,0.4c0.3,0,0.4-0.2,0.4-0.4c0.1-0.2,0.1-0.4-0.2-0.4c0,0-0.2,0-0.1-0.1c0-0.1,0.1-0.2,0.3-0.2
		c0.3,0,0.6,0,0.8,0.3c0,0.1,0.1,0.2,0.2,0.1c0.1-0.1,0-0.2,0-0.3c-0.1-0.3-0.4-0.3-0.7-0.3C476.3,469.6,475.8,470,475.8,470.6z
		 M481.3,475.7c0-0.2,0-0.3,0-0.4c0-0.1,0.1-0.3-0.1-0.3s-0.3,0-0.5,0.1c-0.4,0.3-0.4,0.8-0.4,1.2c0,0.4,0.5,0.7,0.9,0.5
		c0,0,0.1,0,0.1-0.1c0-0.1,0-0.1-0.1-0.1c-0.1,0-0.1,0-0.2,0c-0.3,0-0.4-0.2-0.5-0.4c0-0.1,0.2-0.8,0.3-0.8
		C481,475.4,481.1,475.6,481.3,475.7C481.2,475.7,481.2,475.7,481.3,475.7z M471.7,472.7c0.3-0.2,0.3-0.5,0.2-0.8
		c-0.1-0.5-0.7-0.9-1.3-0.6c-0.2,0.1-0.3,0.5-0.2,0.6s0.2,0.2,0.4,0.1c0.1,0,0.2-0.1,0.1-0.3c-0.1-0.4,0.1-0.3,0.3-0.3
		c0.4,0.1,0.6,0.5,0.5,0.9C471.7,472.5,471.6,472.5,471.7,472.7z M465.4,477.1c-0.3,0.2-0.5,0.2-0.8-0.1c0-0.1-0.1-0.1-0.1-0.1
		c-0.1,0,0,0.1,0,0.2c0.2,0.2,0.4,0.4,0.7,0.4c0.4,0,0.7-0.5,0.5-0.8c-0.1-0.2-0.3-0.2-0.5-0.2c-0.2,0.1-0.3,0.2-0.3,0.4
		C464.9,477.1,465.1,477.1,465.4,477.1C465.3,477.1,465.3,477.1,465.4,477.1z M458.1,477.3c-0.2-0.1-0.3,0.1-0.5,0.2
		c-0.2,0.1-0.4,0.3-0.2,0.5c0.2,0.2,0.3,0,0.5-0.2l0,0c0.2-0.2,0.6-0.2,0.7,0.1c0,0.1,0,0.2,0,0.3s0,0.2,0.1,0.2
		c0.1,0,0.1-0.1,0.1-0.2C459.1,477.8,458.7,477.3,458.1,477.3z M473.3,479.9c0.4-0.3,0.7-0.2,0.9,0.2c0,0.1,0,0.2,0.2,0.2
		c0.1,0,0.1-0.1,0.1-0.3c-0.1-0.3-0.6-0.6-0.9-0.6c-0.3,0-0.5,0.2-0.6,0.4c0,0.2,0,0.4,0.3,0.5c0.1,0.1,0.3,0.1,0.4,0
		c0.1,0,0.1-0.1,0.1-0.2C473.7,480,473.6,479.9,473.3,479.9C473.4,479.9,473.4,479.9,473.3,479.9z M467.6,463.7
		c0.1,0.2,0.2,0.1,0.3,0.1c0.1,0,0.3,0,0.3,0.1c0,0.1-0.1,0.3-0.3,0.3s-0.3,0.1-0.4,0.3c-0.1,0.1,0,0.2,0,0.3c0.1,0.2,0.2,0,0.3,0
		c0.3-0.1,0.5-0.4,0.6-0.7s0-0.4-0.3-0.5C467.9,463.5,467.7,463.6,467.6,463.7z M477.7,464.6c0-0.1,0-0.1,0-0.2
		c0-0.2-0.2-0.2-0.3-0.3c0,0-0.1,0-0.2,0c-0.1,0.2,0.1,0.2,0.2,0.3c0.1,0,0,0.1,0,0.2c0,0.1-0.1,0-0.1,0c-0.2-0.1-0.3,0-0.4,0.1
		c-0.1,0.1-0.1,0.2,0,0.3c0.1,0.1,0.2,0.1,0.3,0.1C477.5,465.1,477.7,464.9,477.7,464.6z M475.4,454.1c-0.3,0.1-0.4,0.3-0.6,0.5
		c-0.1,0.1-0.3,0.2-0.1,0.4c0.2,0.1,0.4,0.1,0.5-0.1C475.3,454.7,475.5,454.5,475.4,454.1z M481,468c0.2,0,0.3,0,0.3-0.2
		s-0.2-0.3-0.3-0.3s-0.4,0-0.4,0.2C480.6,467.9,480.9,467.9,481,468z M473.3,454.1c-0.1,0.1-0.3-0.1-0.3,0.1c0,0.2,0.1,0.3,0.3,0.3
		c0.2,0,0.3-0.1,0.3-0.3C473.6,454,473.4,454.2,473.3,454.1z M478.4,469.9c0,0.1-0.1,0.2,0.1,0.2c0.2-0.1,0.2-0.3,0.3-0.5
		c0,0,0-0.1-0.1-0.1C478.5,469.5,478.5,469.7,478.4,469.9z M477.1,464.2C477.2,464.2,477.2,464.3,477.1,464.2
		C477.2,464.3,477.2,464.2,477.1,464.2C477.3,464.2,477.2,464.2,477.1,464.2C477.2,464.2,477.2,464.2,477.1,464.2z"/>
	<path class="st4" d="M457.6,481.4c-0.2-0.4,0.1-0.7,0.3-1.1c0.2-0.5,0.7-0.8,1.2-1c0.3-0.1,0.6-0.1,0.9-0.3
		c0.2-0.1,0.3-0.2,0.4-0.4c0-0.2-0.2-0.2-0.3-0.3c-0.1-0.1-0.2-0.2-0.2-0.4c0.1-0.2,0.3-0.2,0.4-0.2c0.3,0.1,0.5,0.3,0.4,0.6
		c0,0.1-0.1,0.3,0.1,0.3c0.1,0,0.2-0.1,0.2-0.2c0.1-0.2,0.3-0.5,0.2-0.8l0,0c0-0.2,0-0.5,0.2-0.5c0.3,0,0.3,0.3,0.3,0.5v0.1l0,0h0.1
		c0.3,0,0.3,0.2,0.2,0.5c-0.1,0.2-0.3,0.3-0.4,0.5c0,0.1,0.1,0,0.1,0c0.9-0.3,1.6-0.6,2-1.4c0.2-0.4,0.3-0.9,0.2-1.3
		c0-0.1-0.1-0.2-0.2-0.2c-0.2-0.1-0.4,0-0.5,0.2c-0.1,0.1-0.1,0.2,0,0.3c0.1,0.2,0.2,0.3,0,0.5c-0.2,0.1-0.3,0.1-0.5,0
		c-0.2-0.1-0.2-0.3-0.1-0.5c0.1-0.5,0.7-0.9,1.2-0.8c0.2,0,0.3,0,0.2-0.2c-0.1-0.4-0.2-0.8-0.5-1.2c-0.1-0.2-0.3-0.2-0.5-0.2
		c-0.5,0.1-0.5,0.1-0.5-0.4c-0.2,0-0.3,0.2-0.4,0.3c0,0.1-0.1,0.2-0.3,0.2c-0.1,0-0.1-0.1-0.1-0.1c0-0.1,0-0.3,0.1-0.4
		c0.2-0.1,0.3-0.2,0.5-0.2c0.1,0,0.2,0,0.2,0c0-0.1-0.1-0.2-0.1-0.2c-0.9-0.4-1.7-0.6-2.7-0.1c-0.3,0.1-0.5,0.3-0.4,0.7
		c0,0.1,0,0.1,0,0.2c-0.1,0-0.1,0-0.1,0c-0.1-0.1,0-0.3-0.1-0.3c-0.2,0-0.2,0.2-0.3,0.3c-0.7,0.8-0.6,1.6-0.1,2.4
		c0.2,0.3,0.5,0.4,0.8,0.7c-0.3,0.1-0.5,0-0.6-0.2c-0.4-0.5-0.6-1-0.7-1.5c0-0.2,0.1-0.4,0.1-0.7c0-0.1,0-0.2-0.1-0.3
		c-0.3-0.1-0.2-0.4-0.1-0.6c0.1-0.2,0.3-0.2,0.4,0c0.1,0.1,0.2,0.1,0.3,0c0.2-0.2,0.5-0.4,0.6-0.8c0.1-0.2,0.2-0.5,0.3-0.7
		c0.2-0.4,0.5-0.5,0.8-0.6c0.1,0,0.1,0,0.1-0.1c-0.3-0.1-0.5-0.2-0.8-0.2c-0.4,0-0.5,0.1-0.6,0.5c0,0.2-0.1,0.5-0.3,0.4
		c-0.2,0-0.3-0.3-0.2-0.5c0-0.1,0.1-0.1,0-0.3c-0.2,0.1-0.4,0.4-0.5,0.6s-0.2,0.3-0.3,0.2c-0.2-0.1-0.1-0.2-0.1-0.4
		c0.1-0.3,0.4-0.5,0.7-0.7h0.1c0.1-0.1,0.3-0.1,0.3-0.3c0-0.2-0.2-0.2-0.3-0.2c-0.6-0.4-1.2-0.8-1.6-1.3c-0.3-0.3-0.5-0.7-0.8-1
		c-0.2-0.3-0.5-0.7-0.8-1c-0.2-0.2-0.2-0.4-0.2-0.6c0.1-0.5-0.1-0.9-0.1-1.3c0-0.1,0-0.2,0-0.3c0-0.4-0.1-0.7-0.4-0.9l-0.1-0.1
		c-0.1-0.2-0.2-0.4,0-0.5c0.2-0.2,0.4-0.1,0.6,0.1c0.2,0.3,0.3,0.1,0.3-0.1c0.2-0.7,0.6-0.9,1.3-0.8c0.1,0,0.2,0,0.2,0.2
		c0,0.1-0.1,0.1-0.2,0.1c-0.3,0-0.6,0-0.8,0.3c-0.3,0.4-0.5,0.7-0.6,1.2c-0.1,0.7,0,1.4,0.2,2.1c0.1,0.6,0.4,1.1,0.7,1.5l0.1,0.1
		c0.1,0,0.1-0.1,0-0.2c-0.1-0.3-0.1-0.7,0-1c0.1-0.2,0.2-0.4,0.4-0.3c0.2,0.1,0.3,0.3,0.3,0.5c0,0.1-0.1,0.2-0.1,0.4
		c-0.1,0.1-0.2,0.2,0.1,0.3c0.2,0.1,0.1,0.3,0,0.5c-0.2,0.4-0.2,0.7,0.2,1c0.6,0.5,1.3,1,1.8,1.4c0.1,0,0.1,0.1,0.2,0v-0.1
		c-0.5-0.5-0.8-1.3-1-1.9c-0.2-0.6-0.1-1.2,0-1.7c0.1-0.3,0.1-0.6,0-0.9c-0.1-0.2-0.1-0.5,0-0.7c0-0.2,0.2-0.3,0.3-0.1
		c0.2,0.2,0.2,0,0.2-0.1c0-0.4-0.1-0.8-0.3-1.1c-0.3-0.6-0.3-1.1-0.2-1.6c0.1-0.3,0.5-0.7,0.8-0.6c0.4,0,0.6,0.4,0.6,0.8
		c0,0.5-0.1,0.6-0.5,0.6c-0.3,0-0.3-0.2-0.3-0.4c0-0.2,0.1-0.2,0.3-0.3c0.1,0,0.2,0.1,0.2-0.1c0-0.1-0.1-0.2-0.2-0.2
		c-0.3-0.1-0.7,0.1-0.8,0.5c-0.1,0.5-0.1,1,0.2,1.4c0,0,0.1,0.1,0.1,0.2c0.2,0.8,0.2,1.5-0.1,2.3c-0.2,0.5-0.4,1.1-0.2,1.5
		c0.2,0.5,0.2,1.1,0.6,1.5c0.1-0.1,0-0.2,0-0.3c-0.1-0.8,0.4-1.3,1.1-1.2c0.3,0,0.6,0.4,0.6,0.7c0,0.2,0,0.4-0.1,0.7
		c-0.1,0.2-0.2,0.2-0.3,0.2c-0.2,0-0.5-0.1-0.6-0.3c-0.1-0.1-0.1-0.3,0-0.5c0.1-0.1,0.2-0.1,0.3-0.1c0.2,0,0.1,0.2,0.2,0.3
		c0,0.1,0,0.2,0.1,0.2c0.1,0,0.2-0.2,0.2-0.3c0.1-0.5-0.1-0.8-0.7-0.9c-0.3,0-0.7,0.3-0.7,0.6c0,0.5,0,0.9,0.3,1.3
		c0.3,0.5,0.7,0.9,1.3,1.2c0.1,0,0.1,0.1,0.2,0c0.1-0.1,0-0.1,0-0.2c-0.3-0.4-0.3-0.8-0.2-1.3c0.1-0.2,0.3-0.2,0.4-0.3
		c0.1,0,0.2,0.1,0.2,0.2c0.1,0.1,0,0.2-0.2,0.3c-0.1,0.1-0.2,0.2-0.2,0.3c-0.1,0.2,0,0.3,0.2,0.2c0.3-0.1,0.3,0.1,0.3,0.3
		c0,0.1,0,0.2-0.1,0.3c-0.1,0.2,0,0.5,0.2,0.6c0.5,0.2,0.9,0.6,1.3,0.9c0.1,0,0.1,0.1,0.2,0.2c0,0,0.1,0.1,0.1,0.2
		c-0.1,0.1-0.1,0-0.2,0c-0.4-0.3-0.8-0.7-1.2-1c-0.9-0.6-1.7-0.2-2.1,0.8v0.1c0,0,0.1,0,0.2,0c1.1-0.5,2-0.2,3.1,0.2
		c0.2,0.1,0.3,0.3,0.5,0.3c0.1-0.1-0.1-0.2,0-0.3c0.1,0,0.1,0.1,0.2,0.1c0.4,0.4,0.7,0.9,1.1,1.4c0.1,0.1,0.1,0.2,0,0.3
		c-0.2-0.3-0.4-0.6-0.6-0.9c0-0.1-0.1-0.1-0.1-0.2c-0.1-0.1-0.1-0.1-0.2,0c0,0.1,0,0.1,0,0.1c0.3,0.3,0.4,0.6,0.6,1
		c0.2,0.6,0.1,1.2,0,1.7c-0.1,0.7-0.6,1.3-1.2,1.6c-0.3,0.2-0.7,0.4-0.8,0.8c-0.1,0.1-0.1,0.3,0.1,0.2s0.3-0.1,0.4,0.1
		c0.1,0.2,0,0.4-0.1,0.5c-0.1,0.1-0.3,0.1-0.5,0c-0.2-0.2-0.3-0.5-0.1-0.8c0-0.1,0-0.2,0-0.2c-0.1-0.1-0.2-0.1-0.3,0
		c-0.5,0.2-1.1,0.2-1.5,0.4c-0.8,0.3-1.4,0.6-1.8,1.4c-0.1,0.2-0.1,0.5-0.2,0.8C457.7,481.4,457.7,481.4,457.6,481.4z M456.3,468.3
		L456.3,468.3L456.3,468.3L456.3,468.3z"/>
	<path class="st4" d="M462.9,481.4c-0.2-0.2-0.4-0.5-0.8-0.2c-0.2,0.1-0.3,0-0.4-0.1c-0.1-0.2,0.1-0.3,0.3-0.3
		c0.2-0.1,0.3,0,0.5,0.1c0.2,0.1,0.3,0.1,0.3-0.1c-0.1-0.9,0.4-1.4,1-1.9c0.2-0.2,0.3-0.4,0.2-0.7c-0.1-0.1,0-0.3,0.1-0.4
		c0.1-0.1,0.2-0.1,0.2,0c0.1,0.1,0.2,0.2,0.1,0.4c-0.1,0.4,0.1,0.4,0.4,0.4c0.5-0.1,0.9-0.1,1.3,0.2c0.5,0.4,0.7,0.9,0.7,1.4
		c0,0.2,0,0.3,0.2,0.4c0.2,0.1,0.3,0.2,0.4,0.3c0.1,0.1,0.2,0.2,0,0.4c-0.1,0.1-0.2,0.2-0.4,0.1c-0.1-0.1-0.3-0.1-0.4-0.3
		c-0.1-0.1-0.2,0-0.2,0c-0.4,0.5-0.8,0.3-1.3,0.2c-0.1,0-0.3-0.1-0.4-0.1c-0.3,0-0.4,0.2-0.4,0.5c-0.1,0-0.1,0-0.2,0
		c-0.1-0.4,0.3-0.6,0.7-0.8c0.2-0.1,0.5-0.1,0.7-0.2c0.4-0.3,0.4-0.7,0.2-1.3c-0.2-0.4-0.5-0.7-0.9-0.7c-0.5,0-1,0.2-1.3,0.7
		c-0.1,0.1-0.1,0.2,0.1,0.2c0.3,0,0.6,0.2,0.5,0.5c-0.1,0.3-0.4,0.2-0.7,0.2c0,0,0,0-0.1,0c-0.3,0-0.5,0.2-0.5,0.4
		c0,0.3,0.1,0.7,0,1C463,481.4,463,481.4,462.9,481.4z"/>
	<path class="st4" d="M454.1,455.4c0.3-0.1,0.6-0.3,0.7-0.7h0.1c0,0.4,0,0.8,0,1.2c0,0.4,0.2,0.6,0.6,0.5c0.1,0,0.1,0,0.2,0
		c0.1,0,0.3-0.1,0.3,0c0.1,0.1,0,0.2-0.1,0.4l-0.1,0.1c0,0.1-0.3,0.1-0.3,0.3c0.1,0.1,0.2,0.2,0.4,0.3c0.4,0.3,1.1,0.4,1.5-0.1
		c0.2-0.2,0.5-0.8,0.4-1.1c-0.2-0.3-0.5-0.7-1-0.7s-1.1-0.5-1-1c0-0.2,0.2-0.2,0.2-0.4c-0.2,0-0.4,0-0.6,0c0.1-0.1,0.2-0.1,0.3-0.1
		c0.2,0,0.4,0,0.6,0s0.3,0,0.4,0.2c0,0.2-0.1,0.2-0.2,0.3s-0.4-0.1-0.3,0.2c0,0.3,0.2,0.3,0.4,0.3c0.4,0,0.7-0.2,1.1-0.2
		c0.1,0,0.3,0,0.4,0.1c0.1,0,0.5,0,0.6,0c0.1-0.1,0.2-0.1,0.3-0.1c0.1,0,0.2,0.1,0.3,0.2c0.1,0.1,0,0.2-0.1,0.3
		c-0.1,0.1-0.1,0.1-0.2,0.2c-0.2,0.2-0.4,0.4-0.4,0.8c0.1,0.8-0.5,1.5-1.3,1.6c-0.9,0.1-1.6-0.2-2.3-0.9c-0.4-0.4-0.6-0.9-0.5-1.5
		c-0.2,0.2-0.4,0.3-0.6,0.4C454.1,455.7,454.1,455.5,454.1,455.4z"/>
	<path class="st4" d="M454.1,458c0.1,0,0.2-0.2,0.1-0.3c-0.1-0.1-0.1-0.2,0-0.3s0.2-0.1,0.3,0c0.1,0.1,0.2,0.2,0.1,0.4
		c-0.1,0.2-0.1,0.4-0.3,0.5c0.1,0.1,0.2,0.1,0.3,0c0.5-0.2,0.8,0.1,1.2,0.3c0.4,0.2,0.7,0.5,1,0.9c0.2,0.4,0.3,0.8,0.4,1.3
		c0.1,0.6-0.3,1.2-0.9,1.3c-0.3,0.1-0.7,0.2-1,0.3c-0.1,0-0.2,0.3-0.4,0.4c-0.1,0.2-0.3,0.4-0.5,0.2c-0.2-0.2-0.1-0.5,0-0.7
		c0.2-0.2,0.1-0.3,0-0.4c-0.2-0.3-0.2-0.7-0.2-1c0-0.2,0.1-0.4,0.1-0.5c0-0.1,0-0.2,0.1-0.2c0.1,0,0.1,0.1,0.2,0.1
		c0.1,0.1,0.1,0.2,0.1,0.3c0.1,0.6,0.5,1,1.3,0.8c1-0.3,1.1-1.4,0.4-2l-0.1-0.1c-0.1-0.2-0.2-0.1-0.2,0.1s-0.2,0.3-0.3,0.4
		c-0.1,0.1-0.2,0-0.3-0.1c-0.1-0.1-0.2-0.1-0.1-0.3c0.1-0.2,0.2-0.4,0-0.6s-0.4-0.1-0.6,0c-0.2,0.1-0.4,0-0.5,0
		C454.1,458.3,454.1,458.1,454.1,458z"/>
	<path class="st3" d="M463.1,481.4c0-0.3,0-0.7,0-1c0-0.3,0.2-0.5,0.5-0.4c0,0,0,0,0.1,0c0.2,0,0.6,0.1,0.7-0.2
		c0.1-0.3-0.2-0.4-0.5-0.5c-0.2,0-0.2-0.1-0.1-0.2c0.3-0.4,0.8-0.7,1.3-0.7c0.4,0,0.7,0.3,0.9,0.7c0.2,0.5,0.2,0.9-0.2,1.3
		c-0.2,0.1-0.5,0.1-0.7,0.2c-0.4,0.2-0.8,0.3-0.7,0.8C463.8,481.4,463.4,481.4,463.1,481.4z"/>
	<path class="st4" d="M454.1,473.9c0.6,0,1.2-0.1,1.7,0.2c0.4,0.2,0.6,0.6,0.6,1c0,0.4-0.1,0.6-0.5,0.8c-0.3,0.1-0.6,0.1-0.9,0.4
		c0,0-0.1,0.1-0.1,0.2c0,0.1,0.1,0.1,0.2,0.1c0.2,0,0.3,0.1,0.3,0.3c0,0.2,0,0.4-0.2,0.4c-0.2,0-0.4-0.1-0.5-0.3
		c-0.2-0.4-0.1-0.8,0.4-1c0.3-0.2,0.7-0.3,0.7-0.7c0-0.5-0.3-0.9-0.8-1.1c0.1,0.3,0.4,0.5,0.3,0.9v0.2c-0.3,0.1-0.5,0.5-0.7,0.7
		c-0.1,0-0.2,0-0.2-0.1c-0.1-0.1-0.1-0.2,0-0.3c0.1-0.1,0.2-0.2,0.2-0.4c0.2-0.5,0.1-0.8-0.5-1c0,0,0,0-0.1-0.1
		C454.1,474,454.1,474,454.1,473.9z"/>
	<path class="st4" d="M454.1,465.7c0.1,0,0.2-0.1,0.3,0.1c0.2,0.5,0.2,1,0.3,1.4c0.1,0.4,0,0.9,0,1.3c0,0.2-0.1,0.4,0,0.6
		c0,0.3,0.2,0.6,0.5,0.6s0.4-0.3,0.5-0.5c0,0,0.1-0.2,0-0.3c0-0.1-0.1-0.2-0.2-0.2c-0.1,0-0.1,0.1-0.1,0.2c-0.1,0.1-0.1,0.3-0.3,0.2
		c-0.2-0.1-0.2-0.2-0.1-0.4c0.1-0.2,0.3-0.4,0.5-0.3c0.3,0,0.4,0.3,0.4,0.5c0.1,0.5-0.2,0.8-0.7,1c-0.3,0.1-0.5,0-0.7-0.2
		c-0.2-0.2-0.2-0.1-0.3,0.1c0,0.1-0.1,0.3-0.3,0.3c0-0.2,0-0.3,0-0.5c0.1,0,0.1-0.1,0-0.1v-0.1c0.3,0,0.1-0.2,0.1-0.4
		c0.3-0.6,0.2-1.3,0.2-1.8c0-0.3-0.1-0.7-0.3-0.9C454.1,465.9,454.1,465.8,454.1,465.7z"/>
	<path class="st4" d="M470.1,481.4c-0.2-0.2-0.5,0-0.8-0.1c0.2-0.1,0.4-0.2,0.5-0.2c0.4,0,0.7-0.3,1.1-0.3c0.3,0,0.6-0.1,0.9-0.2
		c0.5-0.1,1,0,1.4,0c0.3,0,0.6,0.1,0.9-0.1c0.1,0,0.2-0.1,0.2,0c0.1,0.1-0.1,0.1-0.1,0.2c0,0-0.1,0-0.1,0.1c0.3,0.1,0.5,0.2,0.8,0.3
		c0.1,0,0.2,0,0.2,0.2c-0.3,0-0.5,0-0.8,0c0-0.1,0-0.2-0.2-0.2c-0.2,0-0.4-0.1-0.5-0.1c-1.2-0.3-2.2-0.4-3.3,0.3
		C470.2,481.4,470.1,481.4,470.1,481.4z"/>
	<path class="st3" d="M470.3,481.4c1.1-0.7,2.1-0.6,3.3-0.3c0.2,0,0.4,0.1,0.5,0.1c0.1,0,0.2,0.1,0.2,0.2
		C472.9,481.4,471.6,481.4,470.3,481.4z"/>
	<path class="st4" d="M458.7,481.4c0-1,0.9-1.4,1.7-1.4c0.7,0.1,0.8,0.4,0.9,0.8c0.1,0.4,0,0.5-0.4,0.5c-0.2,0-0.4,0-0.7,0
		c-0.2,0-0.3-0.1-0.3-0.2c0-0.1,0.1-0.3,0.3-0.3c0.2,0,0.4-0.1,0.6,0.1c0,0,0.1,0.1,0.2,0c0.1-0.1,0-0.2,0-0.2
		c-0.2-0.3-0.8-0.5-1.3-0.3c-0.4,0.1-0.7,0.5-0.7,0.9c0,0.1-0.1,0.1-0.1,0.2C458.8,481.4,458.7,481.4,458.7,481.4z"/>
	<path class="st4" d="M454.1,472c0.2,0,0.4,0.1,0.6,0s0.4,0,0.4,0.2s-0.1,0.3-0.3,0.3c-0.1,0-0.2,0-0.3,0h-0.1c0,0,0,0,0,0.1
		c0.2,0.3,0.5,0.3,0.8,0.3s0.7-0.1,0.9-0.3c0.1,0,0.2-0.1,0.3,0c0.1,0.1,0,0.2-0.1,0.2c-0.1,0-0.2,0.1-0.3,0.1
		c0,0.1,0.2,0.1,0.1,0.3c-0.5-0.2-1-0.1-1.4-0.2c-0.2,0-0.3-0.3-0.5-0.2C454.1,472.5,454.1,472.2,454.1,472z"/>
	<path class="st4" d="M454.1,479.4c0.5-0.1,0.9,0,1.1,0.6c0.1,0.2,0.2,0.4,0.2,0.6c0,0.4-0.1,0.7-0.5,0.8c-0.1,0-0.1,0.1-0.1,0.1
		c-0.1,0-0.1,0-0.2,0c-0.5,0-0.5,0-0.5-0.5c0.2,0,0.3,0,0.4,0.1c0.2,0.1,0.4,0,0.5-0.2c0.1-0.1,0.1-0.8,0-0.9c-0.1,0-0.2-0.3-0.3,0
		c-0.1,0.3-0.4,0.2-0.6,0.2C454.1,479.9,454.1,479.7,454.1,479.4z M454.3,481.1C454.3,481.1,454.3,481,454.3,481.1
		C454.2,481,454.2,481,454.3,481.1C454.2,481.1,454.3,481.1,454.3,481.1C454.3,481.2,454.3,481.1,454.3,481.1z"/>
	<path class="st4" d="M456.1,481.4C456.1,481.3,456.1,481.3,456.1,481.4c0.5-0.5,0.2-0.9,0-1.2s-0.4-0.6-0.7-0.8l-0.1-0.1
		c0-0.1,0.1,0,0.1,0c0.1,0,0.2,0.1,0.3,0.2c0.3,0.4,0.7,0.6,1.1,0.9c0.2,0.1,0.4,0.2,0.3,0.5c0,0.2-0.2,0.2-0.6,0c0,0.2,0,0.4,0,0.6
		h-0.1C456.3,481.4,456.3,481.5,456.1,481.4C456.2,481.4,456.1,481.4,456.1,481.4z"/>
	<path class="st3" d="M454.1,480.2c0.2,0,0.5,0.1,0.6-0.2c0.1-0.2,0.2,0,0.3,0c0.1,0.1,0.1,0.7,0,0.9c-0.1,0.2-0.3,0.3-0.5,0.2
		c-0.1-0.1-0.3-0.1-0.4-0.1C454.1,480.6,454.1,480.5,454.1,480.2z"/>
	<path class="st3" d="M454.1,466.1c0.2,0.3,0.3,0.6,0.3,0.9c0,0.6,0.1,1.3-0.2,1.8c0,0.1,0.2,0.4-0.1,0.4
		C454.1,468.1,454.1,467.1,454.1,466.1z"/>
	<path class="st4" d="M454.1,478.8c0.4,0.2,0.8-0.1,1.2-0.1c0.1,0,0.2-0.2,0.3-0.3c0.1-0.1,0.2-0.2,0.4-0.2c0.1,0,0.1,0.1,0.1,0.2
		c0,0.2-0.1,0.4-0.2,0.5c-0.3,0.1-0.6,0.2-0.8,0.4c-0.1,0.1-0.4,0-0.6-0.1c-0.2-0.1-0.3-0.1-0.5-0.1
		C454.1,478.9,454.1,478.9,454.1,478.8z"/>
	<path class="st4" d="M476.7,481.4c0-0.3,0-0.6,0-0.8c-0.1-0.2,0.2-0.2,0.3-0.2c0.1,0,0.2,0,0.2,0.2c0,0.2,0,0.3,0,0.5
		c0.3,0,0.2-0.4,0.5-0.4l0,0c0.1,0.5-0.3,0.6-0.6,0.8C476.9,481.4,476.8,481.4,476.7,481.4z"/>
	<path class="st4" d="M454.1,477.6c0.3,0,0.5,0.2,0.8,0.2c0.1,0,0.1,0,0.1,0.1c0,0.1-0.1,0.1-0.2,0.1c-0.2-0.1-0.5-0.1-0.7-0.1
		C454.1,477.8,454.1,477.7,454.1,477.6z"/>
	<path class="st4" d="M454.1,454.1c0.2,0,0.4,0,0.6,0c0.1,0,0.1,0,0.1,0.1c0,0.1-0.1,0.1-0.1,0C454.5,454.1,454.3,454.4,454.1,454.1
		C454.1,454.3,454.1,454.2,454.1,454.1z"/>
	<path class="st3" d="M454.1,469.4C454.2,469.4,454.2,469.4,454.1,469.4L454.1,469.4z"/>
	<path class="st3" d="M456.2,481.4c0.1,0,0.1-0.1,0.2,0C456.4,481.4,456.3,481.4,456.2,481.4z"/>
	<path class="st4" d="M463.4,463.3c0-0.2-0.1-0.5-0.1-0.8c0-0.3-0.1-0.5-0.2-0.7c-0.1-0.3,0-0.4,0.3-0.4c0.9,0,1.7,0,2.6,0
		c2.3,0,4.6,0,7,0c0.2,0,0.5-0.1,0.6,0.1s0.1,1-0.1,1.1c-0.2,0.1-0.2,0.4-0.5,0.4c-0.2-0.2,0-0.4,0-0.6s-0.1-0.3-0.3-0.3
		c-0.7,0-1.4-0.1-1.9-0.1c-0.4,0-0.7-0.2-1.1,0c-0.1,0-0.3-0.1-0.4-0.1c-0.7,0-1.3,0-1.9,0c-0.4,0-0.5,0.4-0.7,0.6
		c-0.1,0.1,0,0.1,0.1,0.1c0.7-0.1,1.3,0.1,1.9,0.2c0.4,0,0.9,0.1,1.3,0.2c0.4,0.1,0.6-0.2,1-0.3c0.2,0,0.4-0.2,0.4,0.1
		c0,0.2,0.2,0.1,0.4,0.1c0.1,0,0.2,0,0.2-0.2c0-0.1,0.1-0.2,0.1-0.4c0.1-0.1,0.2-0.2,0.3-0.2c0.1,0.1,0.2,0.2,0.1,0.4
		c0,0.1-0.1,0.2-0.2,0.3c-0.6,0.3-1.2,0.6-1.8,0.4c-0.1,0-0.1,0-0.4,0c0.3,0.3,0.7,0.3,1.1,0.5c0.6,0.4,1,0.9,1.5,1.3
		c0.5,0.2,1,0.3,1.4,0.3c0.2,0,0.3-0.2,0.4-0.3c0.1-0.2,0.2-0.3,0.5-0.1c0.3,0.2,0.6-0.1,0.8-0.3c0.3-0.1,0.5-0.4,0.7-0.6
		c0.1-0.1,0.2-0.2,0.2,0c0.1,0.1,0.2,0.3,0,0.4c-0.9,0.4-1.6,1.1-2.6,1.3c-0.2,0-0.2,0.1-0.1,0.3c0.1,0.3,0,0.9-0.3,1.1
		c-0.1,0.1-0.2,0.1-0.4,0c-0.1-0.1-0.2-0.3,0-0.4c0-0.1,0.1-0.1,0.1-0.1c0.5-0.4,0.5-0.6-0.1-1c-0.3-0.2-0.6-0.3-0.9-0.4
		c0,0,0,0-0.1,0c0.1,0.1,0.1,0.3,0.2,0.4c0.3,0.3,0.2,0.6,0.3,0.9c0.1,0.5-0.2,1,0.1,1.4c0.1,0.1,0,0.4-0.3,0.3
		c-0.1,0-0.2,0-0.2,0.1c-0.3,0.5-0.6,0.9-0.7,1.4c-0.1,0.4-0.1,0.7-0.1,1.1c-0.1,0.1-0.1-0.1-0.2,0c-0.1,0.1-0.3,0.2-0.4,0
		c-0.1-0.2-0.1-0.4,0.1-0.5c0.3-0.2,0.3-0.6,0.5-1v-0.1c0,0,0,0-0.1,0c-0.5,0.2-1,0.5-1.4,0.6c-0.3,0.1-0.5,0.3-0.7,0.6
		c-0.1,0.2,0.1,0.4,0.3,0.4c0.2,0,0.4-0.1,0.5,0.1c0,0.3-0.2,0.4-0.4,0.5c-0.2,0.1-0.3,0-0.4-0.2c-0.1-0.2-0.2-0.4-0.1-0.6
		c0.1-0.2-0.1-0.2-0.2-0.2c-0.1,0-0.2,0-0.2,0c-0.1,0-0.2-0.1-0.3-0.2c0-0.1,0-0.2,0.1-0.3c0.1-0.1,0.2,0,0.3,0.1
		c0.1,0.1,0.3,0.1,0.4,0.1c0.1,0,0.3-0.1,0.3-0.3c0-0.2-0.1-0.1-0.2-0.1c-0.4-0.1-0.9-0.2-1.3-0.3c-0.3-0.1-0.5-0.4-0.7-0.7
		c-0.3-0.5-0.4-1.1-0.5-1.5c0-0.1,0-0.3,0.1-0.4c0.2-0.5,0.2-1.1,0.7-1.4c0.1,0,0.1,0.1,0,0.2c-0.4,0.3-0.3,0.8-0.5,1.2
		c-0.2,0.3,0,0.8,0.2,1c0.1,0.1,0.3,0.3,0.2,0.6c-0.1,0.4,0.3,0.9,0.8,1.1c0.7,0.3,1.4,0.4,2,0.3c0.8-0.1,1.4-0.6,1.7-1.3
		c0.6-1.3,0.3-2.6-0.6-3.6c-0.6-0.6-1.3-0.9-2-1.3c-0.4-0.2-0.8-0.3-1.2-0.3c-0.2,0-0.4-0.1-0.6-0.2c-0.3,0-0.6,0-0.9-0.1
		c-0.4-0.1-0.5,0.2-0.6,0.5c-0.1,0.3-0.2,0.6-0.3,0.9c-0.1-0.5,0.2-0.8,0.3-1.3c-0.4-0.1-0.5-0.1-0.5,0.3c0,0.2-0.1,0.3-0.1,0.4
		c-0.1,0.1-0.2,0.2-0.3,0.1c-0.2-0.1-0.2-0.3-0.1-0.5c0-0.1,0.1,0,0.2,0s0.2-0.1,0.2-0.2c0-0.1,0-0.2-0.1-0.2
		c-0.1-0.1-0.1-0.1-0.2,0c-0.1,0.1-0.2,0.1-0.4,0.1c-0.3,0-0.4,0.3-0.5,0.4h-0.1c0-0.4-0.3-0.3-0.5-0.2c-0.3,0.1-0.4,0.2-0.2,0.5
		c0.1,0.2,0,0.3,0,0.5c-0.1,0-0.1-0.1-0.1-0.1C463.6,463.8,463.7,463.5,463.4,463.3z M463.9,462c-0.5,0-0.5,0-0.3,0.4
		c0,0.1,0.1,0.3,0.1,0.4c0,0.1,0,0.2,0.2,0.1s0.4-0.2,0.7-0.2c0.1,0,0.2-0.1,0.3-0.2c0.3-0.5,0.6-0.5,1.1-0.1c0.2,0.2,0.6,0.2,0.8,0
		c0.1-0.1,0.3-0.3,0.3-0.5c0-0.1-0.3-0.1-0.5-0.1C465.6,462,464.7,462,463.9,462z M465.7,462.8c-0.2-0.4-0.4-0.4-0.7,0
		C465.2,462.8,465.4,462.8,465.7,462.8z"/>
	<path class="st5" d="M460.5,462.7c-0.2,2.9,2.1,6.9,3.5,9.3c2.8,4.2,4.4,4.9,8.1,2.5c-5.9,6.3-10.1-4-12.4-8.5
		c-0.3-0.3-0.8,0.6-0.9,0.8c0.1,0.1,0.2,0,0.3,0c0.5-0.1,0.4,0.4,0.1,0.6c-1.7,1.8-0.5-1.3,0.4-1.7
		C459.5,464.8,459.2,463.8,460.5,462.7z"/>
	<path class="st4" d="M470.6,457.9C470.5,457.9,470.5,457.9,470.6,457.9c0-0.1,0-0.2-0.2-0.2c-0.4-0.1-0.7-0.1-1.1,0
		c-0.2,0-0.2,0.1-0.2,0.3c-0.5,0.1-0.9,0.1-1.4,0c-0.3-0.2-0.6-0.1-0.9-0.1c-0.3,0.3-0.7,0.3-0.9,0c0-0.4,0.3-0.3,0.7-0.3
		c-0.3-0.2-0.5-0.5-0.7-0.6c-0.3-0.2-0.5-0.3-0.9,0c-0.2,0.2-0.4,0.2-0.7,0c-0.1-0.1-0.2,0-0.3,0c-0.2,0.1-0.4,0.2-0.7,0.1
		c-0.2-0.1-0.2-0.3-0.1-0.4c0.3-0.3,0.6-0.3,1-0.3c0.1,0,0.3,0.1,0.3-0.1s-0.1-0.2-0.2-0.2c-0.7-0.3-1.4-0.4-2.1-0.4
		c-0.3,0-0.6,0.1-0.8,0.3c-0.3,0.2-0.4,0.6-0.2,0.8c0.2,0.3,0.4,0.3,0.8,0l-0.1-0.1c-0.1-0.1-0.2-0.2-0.2-0.3s0.1-0.2,0.2-0.2
		c0.2,0,0.3,0,0.4,0.2c0.1,0.2,0,0.6-0.2,0.7c-0.3,0.2-0.8,0.2-1,0c-0.3-0.2-0.3-0.6-0.1-1c0-0.1,0.1-0.2,0.2-0.3
		c-0.6-0.1-1.2,0.3-1.4,0.8c-0.1,0.2-0.2,0.3-0.3,0.5c-0.1,0.1-0.2,0.3-0.4,0.1c-0.2-0.1-0.1-0.3,0-0.4c0.2-0.4,0.5-0.6,0.9-0.8
		c0.1-0.1,0.2-0.1,0.3-0.1c0.1,0,0.2,0,0.2-0.1c0-0.1-0.1,0-0.2-0.1c-0.1-0.1-0.3-0.3-0.2-0.5c0.1-0.2,0.3-0.1,0.5-0.1
		c0.1,0,0.2,0.1,0.3,0.2c0.2,0.2,0.3,0.3,0.6,0.2c0.2-0.1,0.5,0,0.8,0c0.4,0,0.9,0,1.3,0c0.1,0,0.2,0,0.3,0.1
		c0.3,0.3,0.8,0.4,1.1,0.7c0.4,0.3,0.9,0.5,1.2,0.9c0.6,0.7,1.4,1,2.3,0.8c0.3-0.1,0.6-0.2,1-0.2c0.3,0,0.7,0,1,0
		c0.5,0.1,1,0,1.4-0.2c0.2-0.1,0.5-0.2,0.7-0.1c0.4,0.1,0.7-0.1,1.1,0c0.2,0,0.3-0.2,0.5-0.2c0.3-0.1,0.5-0.1,0.7,0
		c0.5,0.2,1.1,0.4,1.6,0.4c0.2,0,0.5,0.1,0.7,0.1c0.4,0,0.6-0.3,0.5-0.7c0-0.1-0.1-0.3,0-0.3c0.1,0,0.3,0,0.4,0.2
		c0.2,0.3,0,0.7-0.3,0.8c-0.5,0.2-0.5,0.2-0.1,0.6c0.7,0.6,0.9,1.4,0.6,2.3c-0.2,0.5-0.1,0.6,0.3,0.8c0.1,0,0.3,0.1,0.2,0.3
		c0,0.1-0.1,0.1-0.3,0.1c-0.1-0.1-0.2,0-0.1,0.1c0.2,0.2,0,0.4,0,0.6c0,0.1-0.1,0.3-0.3,0.3c-0.4,0-0.4,0.3-0.5,0.5
		c-0.1,0.3-0.3,0.5-0.4,0.8c0,0.1-0.1,0.1-0.2,0.1c-0.1,0-0.1-0.1-0.1-0.2c0.1-0.3,0.1-0.7,0-1c-0.1-0.2,0-0.3,0-0.5
		c0.1-0.3,0.3-0.3,0.5-0.2c0.3,0.3,0.4,0.3,0.5-0.1c0-0.1,0.1-0.2,0.1-0.3c0-0.4-0.2-0.5-0.6-0.3c-0.3,0.2-0.6,0.4-0.9,0.6
		c-0.4,0.2-0.9,0.4-1.4,0.5c-0.1,0-0.1,0-0.1-0.1c0-0.1,0-0.1,0.1-0.1c0.2-0.1,0.5-0.2,0.8-0.2c0.2,0,0.3-0.1,0.3-0.3
		c0-0.2-0.2-0.2-0.3-0.2c-0.3,0-0.6-0.1-0.7,0.2c0,0.1-0.1,0.1-0.2,0.1s-0.1-0.1-0.1-0.2c0.1-0.2,0.2-0.5,0.3-0.7
		c0.1,0.1,0.3,0.1,0.4,0.2c0.8,0.6,1.7,0.4,2-0.5c0.4-1,0.6-1.4-0.2-2.3c-0.5-0.5-1.1-0.7-1.7-0.9c-0.8-0.2-1.6-0.2-2.4-0.1
		c-0.1,0-0.2,0-0.2,0.1s0,0.2,0.1,0.2c0.1,0.1,0.1,0.3,0.2,0.4c-0.3,0-0.5,0.2-0.8,0c0.1-0.1,0.3-0.3,0.2-0.4
		c-0.1-0.1-0.4-0.3-0.6-0.2C471.7,457.6,471.1,457.8,470.6,457.9z"/>
	<path class="st4" d="M474.1,471.7c-0.2-0.1-0.3-0.2-0.3-0.4l0.1-0.1c0.4,0.1,0.5-0.2,0.5-0.5c0-0.2,0.1-0.4,0.2-0.6
		c0.2-0.6,0.6-1,1.1-1.3c0.3-0.2,0.5-0.4,0.8-0.6c0.3-0.2,0.5-0.4,0.7-0.7c0.4-0.6,0.1-1.1-0.5-1.3h-0.1c-0.2-0.6-0.7-0.3-1-0.3
		c-0.4,0-0.6,0.3-0.8,0.6c-0.2,0.3-0.1,0.5,0,0.8c0.1,0.3,0.4,0.4,0.6,0.4s0.3-0.1,0.2-0.3c-0.1-0.2,0-0.4,0.1-0.5
		c0.1-0.1,0.4-0.1,0.5,0c0.1,0.1,0.2,0.2,0.1,0.4c0,0.3-0.4,0.6-0.8,0.6c-0.3,0-0.7,0-0.9-0.4c0,0.4,0.2,0.7,0,1
		c-0.2,0.4-0.5,0.7-1,0.7c-0.2,0-0.4-0.3-0.5-0.6c0-0.3,0.2-0.4,0.4-0.5c0.1,0,0.2,0.1,0.2,0.1c0,0.1,0.2,0.1,0.1,0.2
		c0,0-0.1,0.1-0.1,0.2c-0.1,0.1-0.3,0.1-0.1,0.3c0.1,0.1,0.3,0.2,0.4,0.1c0.4-0.2,0.5-0.7,0.4-1.3c-0.2-1,0.1-1.9,1.2-2.1
		c1.1-0.2,1.7,0.3,1.7,1.3c0,0.5-0.2,1-0.5,1.4c-0.1,0.2-0.2,0.3-0.3,0.5c-0.1,0.3,0.1,0.4,0.3,0.5c0.1,0,0.2,0,0.2-0.1
		c0.1-0.1-0.1-0.1-0.1-0.2c-0.1-0.1-0.2-0.3-0.1-0.5c0.1-0.2,0.2-0.1,0.4-0.1c0.2,0,0.3,0.2,0.3,0.3c0,0.3-0.2,0.5-0.4,0.7
		c-0.2,0.1-0.4,0.1-0.6,0c-0.3-0.2-0.4-0.5-0.2-0.9c-0.1-0.1-0.2-0.1-0.3,0c-0.4,0.4-0.8,0.8-0.6,1.4c0,0.2,0,0.3-0.2,0.4
		c-0.2,0-0.2-0.2-0.3-0.3c-0.1-0.1,0.1-0.3-0.1-0.3s-0.1,0.2-0.2,0.3c-0.4,1.2,0.8,2.1,1.7,2c0.4,0,0.6-0.2,0.5-0.6
		c-0.1-0.4,0-0.5,0.4-0.4c0.2,0,0.2,0,0.2-0.2c0-0.2-0.1-0.5,0.1-0.7c0.1,0.4,0.1,0.8,0,1.2c-0.1,0.2-0.2,0.4-0.4,0.7
		c-0.2,0.3-0.5,0.3-0.9,0.3c-0.3,0-0.3,0-0.2,0.3c0.1,0.3,0.2,0.5,0.1,0.8c0,0.1-0.1,0.3-0.3,0.3s-0.3-0.1-0.3-0.4
		c-0.1-0.4,0-0.6,0.1-0.8c0.1-0.2-0.2-0.4-0.4-0.5c-0.3-0.2-0.6-0.5-0.8-0.8c-0.1-0.2-0.2-0.1-0.3,0
		C474.4,471.5,474.2,471.6,474.1,471.7z"/>
	<path class="st4" d="M470.6,454.4c0.2,0.4,0.8,0.7,1.1,0.7c0.2,0,0.3-0.1,0.4-0.3c0.1-0.2,0.2-0.4,0.3-0.6c0-0.1,0.1-0.1,0.1-0.1
		c0.1,0,0.2,0.1,0.1,0.1c-0.2,0.3-0.1,0.8-0.4,1.1c-0.4,0.5-1.4,0.4-1.7-0.1c-0.1-0.2-0.2-0.4-0.3-0.7c0-0.2-0.6-0.4-0.8-0.2
		c-0.1,0.1,0,0.1,0,0.2c0,0.7,0.5,1.4,1.2,1.7c0.6,0.3,1.2,0.5,1.8,0.3c0.1,0,0.2-0.1,0.2,0.1s-0.1,0.1-0.2,0.1
		c-0.6,0.1-1.2,0.1-1.6-0.2c-0.2-0.1-0.4-0.2-0.6-0.3c0,0.4-0.1,0.7-0.5,0.8c-0.2,0.1-0.3,0.1-0.4-0.1c-0.1-0.2,0-0.3,0.1-0.4
		c0.4-0.5,0.5-0.7,0.1-1.2c-0.1-0.1-0.2-0.2-0.2,0c-0.2,0.7-0.8,1-1.4,1.3c-0.2,0.1-0.4,0.3-0.5,0.5c-0.1,0.2-0.2,0.1-0.3,0.1
		c-0.1,0-0.1-0.2-0.1-0.3c0.1-0.3,0-0.5-0.3-0.7c-0.4-0.2-0.5-0.9-0.2-1.3c0.1-0.1,0.2-0.3,0.3-0.5c0.1-0.2,0.8-0.3,1-0.1
		c0.2,0.2,0.1,0.4-0.1,0.6c-0.2,0.1-0.3,0.2-0.5,0.2s-0.4,0-0.4,0.2c0,0.2,0,0.4,0.1,0.6c0.3,0.5,0.8,0.3,1.2,0.3
		c0.4,0,0.7-0.1,0.9-0.5c0.2-0.4,0.3-0.9,0.2-1.4c0-0.2-0.2-0.2-0.3-0.1c-0.1,0.1-0.1,0.1-0.2,0.1c-0.1,0-0.2,0-0.3,0
		c-0.1-0.1-0.1-0.2-0.1-0.2c0-0.1,0.1-0.1,0.2-0.1c1,0,1.9,0,2.9,0c0.1,0,0.3,0,0.3,0.1c0,0.1-0.1,0.2-0.1,0.3
		c-0.1,0.1-0.1,0.2-0.3,0.1C471.1,454.6,470.9,454.5,470.6,454.4z"/>
	<path class="st4" d="M469.2,464.5c0.7-0.1,1.3,0.1,1.8,0.5c0.8,0.6,1.1,1.4,0.8,2.3c-0.1,0.5-0.6,0.9-1.2,1c-0.2,0-0.3,0.1-0.6,0.1
		c-0.2,0-0.2,0.2-0.3,0.4c-0.1,0.1-0.1,0.3-0.3,0.3c-0.2,0-0.3,0-0.4-0.1c-0.1-0.2,0-0.4,0.1-0.5c0.2-0.2,0.2-0.3,0-0.5
		c-0.3-0.4-0.1-0.8,0-1.2c0.1-0.5,0.1-0.6-0.3-0.7c-0.1,0-0.2,0-0.2,0.2c0.1,0.2,0,0.4-0.2,0.5c-0.1,0-0.1,0-0.2,0
		c-0.2-0.2-0.1-0.4,0-0.6c0.2-0.4,0.7-0.5,1-0.2c0.2,0.2,0.4,0.4,0.4,0.7c0,0.3,0.2,0.6,0.4,0.7c0.4,0.2,0.8,0.3,1.2-0.1
		c0.1-0.1,0.3-0.2,0.3-0.4c0.3-0.6,0-1.4-0.6-1.6c-0.1-0.1-0.2-0.1-0.2,0.1c0,0.1-0.1,0.2-0.2,0.3c-0.1,0.1-0.2,0.2-0.4,0.1
		c-0.1-0.1-0.2-0.2-0.1-0.4c0.1-0.5,0-0.7-0.6-0.7c-0.5,0-1,0.2-1.4,0.4c-0.1,0-0.2,0.1-0.2,0c-0.1-0.1,0.1-0.1,0.1-0.2
		c0.2-0.1,0.4-0.2,0.6-0.3c0.4-0.1,0.5-0.4,0.3-0.8c0-0.1,0-0.2,0-0.3c0.1-0.1,0.2-0.1,0.3-0.1s0.1,0.1,0.2,0.2
		C469.5,464,469.3,464.2,469.2,464.5z"/>
	<path class="st4" d="M475.3,475.5c-0.1-0.3-0.3-0.3-0.6-0.3c-0.7,0-1,0.2-1.1,0.8c0,0.2,0,0.3,0.2,0.4c0.3,0.1,0.5,0.3,0.8,0.4
		c0.1,0,0.2,0,0.1,0.1c-0.1,0.1-0.1,0-0.2,0c-0.2-0.1-0.4-0.2-0.6-0.3c-0.1,0-0.2-0.1-0.3,0c-0.1,0.1,0,0.2,0.1,0.3
		c0.2,0.1,0.4,0.3,0.6,0.4c0.1,0.1,0.3,0.1,0.5,0c0.1,0,0.1-0.1,0.2,0h0.2c0-0.1-0.1-0.1-0.1-0.2c0.2-0.1,0.3,0,0.4,0
		c0.1,0,0.3,0,0.3-0.1c0.1-0.1,0-0.2-0.2-0.2c0,0-0.1-0.1-0.1-0.2c0.1-0.1,0.1-0.4,0.3-0.3c0.5,0,0.6-0.2,0.5-0.6
		c0.2,0.1,0.3,0.4,0.2,0.6c-0.2,0.3-0.2,0.7-0.5,0.9c-0.1,0.1,0,0.1,0,0.2c0.5,0.2,1.2,0,1.4-0.4c0.1-0.1,0.2-0.2,0-0.4
		c-0.1-0.1-0.2-0.2-0.4,0c0,0.1-0.1,0.2-0.2,0.1c-0.1-0.1-0.2-0.3-0.2-0.4c0.1-0.2,0.3-0.5,0.6-0.5c0.6-0.1,0.9,0.3,0.6,1
		c-0.2,0.5-0.7,0.9-1.3,0.9c-0.3,0-0.5,0-0.8,0s-0.7,0-1,0.2c-0.3,0.1-1.1,0-1.3-0.4c-0.1-0.2-0.1-0.2-0.3-0.1
		c-0.2,0.2-0.3,0.3-0.6,0.1c-0.2-0.1-0.3-0.1-0.3,0.1c0,0.1-0.1,0.2-0.3,0.1c-0.1-0.1-0.1-0.2,0-0.3c0.1-0.3,0.3-0.4,0.6-0.5
		c0.1,0,0.2,0,0.3,0s0.2,0,0.2-0.1c0-0.1,0-0.3,0-0.3c-0.2-0.1-0.4-0.4-0.7-0.4c-0.1,0-0.2,0-0.3-0.1c0,0,0-0.1,0-0.2
		c0.1-0.1,0.2,0,0.3,0c0.2,0.1,0.4,0.3,0.6,0.2c0.2,0,0.2-0.4,0.3-0.6c0.4-0.7,1.4-0.8,1.8-0.2c0.3,0.3,0.1,0.8-0.3,0.9
		c-0.2,0-0.4,0-0.4-0.2s0-0.4,0.2-0.4C475.1,475.5,475.2,475.5,475.3,475.5z"/>
	<path class="st4" d="M480.3,460.1c-0.1-0.4-0.2-0.6-0.1-0.9c0.1,0.2,0.2,0.5,0.4,0.1c0.1-0.2,0.3-0.2,0.5,0
		c0.2,0.1,0.1,0.5-0.1,0.7c-0.2,0.1-0.4,0.3-0.5,0.5c-0.1,0.2,0.1,0.4,0,0.5c-0.1,0.3,0,0.7-0.2,1.1c-0.1,0.1,0,0.2,0,0.3
		c0.1,0.3,0.1,0.5-0.1,0.8c-0.6,0.5-0.9,1.2-1.4,1.7c-0.4,0.4-0.8,0.8-1.3,1.1c-0.1,0.1-0.2,0-0.3,0c-0.1,0,0-0.2,0.1-0.2
		c0.3-0.1,0.6-0.3,0.8-0.6c0.4-0.4,0.5-0.7,0.3-1.2c0-0.1-0.1-0.2-0.1-0.2c0.3-0.3,0.1-0.6,0-1c0-0.1,0-0.3,0.1-0.4
		c0.2,0,0.4,0,0.5,0.2c0.1,0.2,0.3,0.5,0.2,0.8c0,0.2-0.2,0.4,0,0.5c0.2,0.1,0.2-0.2,0.3-0.4c0.3-0.5,0.5-1,0.6-1.5
		c0.1-0.5,0.2-1.1-0.1-1.5c-0.1-0.2-0.3-0.4-0.6-0.5c-0.3,0-0.6,0.1-0.6,0.3c-0.1,0.2,0.1,0.5,0.3,0.6c0.3,0.2,0.6,0.4,0.6,0.8v0.1
		c0,0.2-0.1,0.3-0.3,0.3c-0.1,0-0.2,0-0.2-0.1c-0.1-0.2,0-0.4,0.1-0.4c0.3-0.2,0.1-0.3,0-0.4c-0.1-0.1-0.2-0.1-0.4-0.2
		c-0.4-0.3-0.5-0.6-0.4-1c0.1-0.4,0.6-0.6,1.1-0.4C480,459.6,480.1,459.8,480.3,460.1z"/>
	<path class="st4" d="M462.8,459.3C462.8,459.3,462.8,459.4,462.8,459.3c-0.3,0-0.5-0.1-0.8,0c-0.2,0-0.4-0.1-0.4-0.3
		c-0.1-0.2,0.1-0.4,0.3-0.4c0.3-0.1,0.2-0.2,0-0.3c-0.5-0.6-1.6-0.8-2.4-0.5c-0.5,0.2-1,0.5-1.3,1c-0.2,0.3-0.2,0.5-0.2,0.8
		c0,0.6,0.7,1.5,1.4,1.6c0.3,0,0.4,0,0.6-0.2s0.3-0.5,0.6,0c0,0.1,0.2,0,0.3-0.1c0.3-0.3,0.3-0.8,0.4-1.2c0-0.2,0-0.3,0.1-0.6
		c0.2,0.4,0.2,0.7,0.1,1.1c-0.1,1-0.8,1.3-1.4,1.3c-0.5,0-0.9-0.1-1.3-0.4c-0.1-0.1-0.2-0.1-0.3,0c-0.1,0.1-0.3,0.3-0.5,0.1
		c-0.2-0.2-0.1-0.4,0-0.6c0.1-0.3,0.2-0.5,0.1-0.9c-0.1-0.3,0-0.7,0.2-1c-0.2-0.1-0.4,0-0.5-0.2c-0.1-0.2-0.1-0.3,0.1-0.3
		c0.5,0.1,0.8-0.3,1.1-0.5c0.7-0.4,1.4-0.6,2.1-0.4c0.4,0.1,0.6,0.4,1.1,0.4c0-0.1,0-0.2,0.1-0.3c0.1-0.1,0.2-0.1,0.3-0.1
		c0.1,0,0.2,0.1,0.2,0.2C462.4,458.2,462.6,458.8,462.8,459.3z"/>
	<path class="st4" d="M481.3,455.3c0,0.7,0,1.3,0,1.9c0,0.1,0,0.2-0.1,0.2c-0.1,0-0.1,0.1,0,0.2c0.2,0.2,0.1,0.4,0.1,0.7
		c0,0.1,0,0.2-0.1,0.2c-0.1,0-0.2,0-0.2-0.1c-0.1-0.1-0.2-0.2-0.2-0.3c-0.1-0.4-0.4-0.4-0.8-0.5c-1.2-0.2-1.5-0.9-1.4-2
		c0.1-0.6,0.4-1.1,0.9-1.4c0.2-0.2,0.5-0.1,0.7-0.1c0.2,0.1,0.1,0.4,0.1,0.6c0,0.1-0.1,0.2-0.2,0.3c-0.2,0-0.3-0.1-0.4-0.2
		c-0.2-0.4-0.3-0.4-0.5,0c-0.4,0.5-0.6,1.1-0.2,1.5c0.2,0.4,0.7,0.6,1.1,0.5c0.4-0.1,0.7-0.4,0.8-0.9
		C481,455.7,481,455.4,481.3,455.3z"/>
	<path class="st4" d="M477.5,480.6c-0.1-0.4,0-0.9-0.3-1.3c-0.2-0.2-0.3-0.6-0.6-0.7c-0.6-0.2-1.1-0.1-1.5,0.2
		c-0.2,0.2-0.2,0.7,0,0.9c0.1,0.1,0.1,0.1,0.3,0c0.5-0.2,0.7,0.1,0.8,0.6c0,0.2-0.2,0.2-0.3,0.2c-0.6-0.1-1.3-0.7-1.2-1.4
		c0-0.2,0.3-0.6,0.6-0.7c0.2,0,0.3-0.1,0.1-0.3c0,0,0-0.1,0-0.2c-0.1-0.1-0.2-0.3,0-0.4c0.2-0.1,0.3,0,0.5,0.2
		c0.2,0.3,0.5,0.4,0.8,0.5c0.5,0.1,0.8,0.5,1.1,0.9c0.1,0.2,0.2,0.2,0.3,0c0.3-0.5,0.2-0.9-0.2-1.1c-0.2-0.1-0.3-0.2-0.2-0.4
		c0.1-0.1,0.5-0.2,0.6-0.1c0.1,0.2,0.3,0.3,0.4,0.5c0,0.2,0.1,0.2,0.3,0.1c0.2-0.1,0.4-0.2,0.7-0.4c0.6-0.3,1.2-0.3,1.8-0.1
		c0.1,0,0.2,0,0.2,0.2c0,0.1-0.1,0-0.2,0c-1.2-0.3-2,0.1-2.8,0.9c-0.3,0.3-0.5,0.7-0.5,1.2C477.8,480.3,477.9,480.6,477.5,480.6
		L477.5,480.6z"/>
	<path class="st4" d="M467.4,463.8c0,0.2-0.1,0.3-0.2,0.4c-0.2,0.1-0.4,0.2-0.2,0.5c0,0.1,0,0.1-0.1,0.2c-0.8,0.5-0.8,1.2-0.6,1.9
		c0.2,0.7,0.4,1.4,0.7,2c0.4,0.8,0.9,1.6,1.4,2.3c0.2,0.3,0.5,0.5,0.8,0.6c0.2,0.1,0.4,0.3,0.5,0.6c0.1,0.3,0.7,0.5,1,0.6
		c0.3,0,0.6-0.1,0.9,0c-0.4,0.2-0.9,0.3-1.3,0.1c-0.5-0.2-0.9-0.6-1.3-1c-0.2-0.2-0.4-0.3-0.4-0.6c0,0-0.1-0.1-0.2-0.1
		c-0.4-0.2-0.5-0.7-1-0.8c-0.1,0-0.2-0.1-0.2-0.3c0.2-0.4,0-0.7-0.2-1c-0.3-0.7-0.7-1.4-0.8-2.1c0-0.1-0.1-0.3-0.1-0.4
		c-0.1-0.2-0.2-0.3-0.4-0.2c-0.3,0.1-0.5-0.1-0.4-0.4c0.1-0.3,0.3-0.2,0.5-0.1c0.3,0.1,0.3-0.1,0.3-0.3c0-0.3,0-0.7,0-1
		c0-0.1,0-0.2,0.1-0.2c0.1,0,0.1,0.1,0.1,0.2c0,0.3,0.1,0.1,0.2,0c0.2-0.3,0.4-0.6,0.8-0.8C467.2,463.9,467.2,463.8,467.4,463.8z"/>
	<path class="st4" d="M468.7,479c0.3,0.4,1,0.2,1.3-0.1c0.2-0.3,0-0.5-0.2-0.7c-0.5-0.5-1.2-0.5-1.6-0.2c-0.4,0.2-0.5,0.6-0.4,1
		c0.1,0.4,0.4,0.6,0.8,0.7c0.4,0.1,0.8,0.1,1.2,0.2c0.1,0,0.2-0.1,0.2,0s0,0.2-0.2,0.2c-0.4-0.1-0.5,0.3-0.8,0.5
		c-0.1,0.1-0.2,0.3-0.4,0.3c-0.1,0-0.2-0.2-0.3-0.3c0-0.2,0.1-0.3,0.2-0.4c0,0,0.1-0.1,0.2-0.1c0-0.1-0.1-0.1-0.2-0.2
		c-0.5-0.1-0.8-0.4-0.9-0.9c-0.1-0.3-0.1-0.5-0.4-0.7c-0.1-0.1-0.3-0.3-0.1-0.4c0.2-0.2,0.3-0.1,0.4,0.1c0.1,0.2,0.3,0.2,0.5,0
		c0.3-0.3,0.8-0.5,1.3-0.4c0.3,0.1,0.6,0.1,0.9,0.3c0.1,0.1,0.2,0,0.3,0c0.1-0.1,0.2-0.2,0.4-0.3c0.1-0.1,0.2-0.2,0.4-0.1
		c0.2,0.1,0.1,0.4,0,0.5c-0.5,0.2-0.6,0.6-0.8,1C470.1,479.5,469.1,479.5,468.7,479c0,0-0.1-0.2,0-0.3c0.1-0.2,0.3-0.4,0.5-0.3
		c0.2,0,0.3,0.2,0.3,0.4c0,0.2-0.2,0.2-0.4,0.2C468.8,479,468.8,478.9,468.7,479z"/>
	<path class="st4" d="M481,466.6c0,0.1,0.1,0.3-0.2,0.3c-0.2,0.1-0.3,0-0.4-0.2c-0.2-0.2-0.3-0.4-0.2-0.7c0.1-0.2,0-0.3-0.2-0.3
		c-0.3-0.1-0.7,0-0.9,0.3c-0.2,0.4-0.2,0.9-0.1,1.3c0.2,0.6,0.8,0.8,1.3,0.9c0.2,0,0.5,0,0.7,0c0.1,0,0.2-0.1,0.2,0.1
		c0,0.1-0.1,0.2-0.2,0.2c-0.1,0-0.2,0.1-0.2,0.1c-0.8-0.1-1.4,0.3-1.8,0.8c-0.2,0.2-0.2-0.1-0.4-0.1c-0.2,0-0.5-0.4-0.5-0.6
		c0-0.1-0.1-0.2,0.1-0.3c0.1-0.1,0.2,0,0.3,0.1s0.2,0.2,0.4,0.3c0.2,0.1,0.3,0.1,0.5,0.1c0.1,0,0.3-0.1,0.4-0.2
		c0-0.1-0.1-0.2-0.2-0.3c-0.4-0.3-0.7-0.7-0.8-1.2c0-0.3-0.2-0.4-0.4-0.5c-0.1-0.1-0.4-0.3-0.2-0.5c0.1-0.1,0.4-0.1,0.5,0.2
		c0,0.1,0.1,0.1,0.1,0.1l0.1-0.1c0.1-0.7,0.7-0.9,1.4-0.5C480.7,465.9,481,466.4,481,466.6z"/>
	<path class="st4" d="M455.1,477.8c0.3-0.1,0.6-0.2,0.9-0.2s0.4-0.3,0.5-0.5c0.1-0.2,0.3-0.4,0.4-0.6c0.5-0.5,0.5-1.5,0.1-2
		c-0.3-0.4-0.4-0.9-0.8-1.1c-0.1-0.1-0.3-0.1-0.3-0.3c0-0.1,0.3-0.1,0.4,0c0.4,0,0.5-0.2,0.7-0.4c0-0.1,0.1-0.2,0.2-0.2
		c0.1,0,0.2,0.1,0.2,0.3c0,0.5-0.2,0.7-0.8,0.8c0.1,0.3,0.2,0.5,0.4,0.7c0.5,0.6,0.4,1.3,0.3,1.9c-0.1,0.4-0.3,0.8-0.5,1.2
		c-0.5,0.8-0.2,1.3,0.5,1.6c0.1,0.1,0.1,0,0.2,0c0.3-0.1,0.7-0.1,0.9-0.4c0,0,0.1,0,0.2,0v0.1c-0.2,0.3-0.6,0.4-1,0.5
		c-0.3,0.1-0.6,0.1-0.9,0.4c-0.1,0.1-0.2,0.1-0.2-0.1v-0.1c0.3-0.6-0.3-1.1-0.1-1.6c0.1-0.2-0.1-0.1-0.2-0.1
		C456,477.9,455.5,477.9,455.1,477.8z"/>
	<path class="st4" d="M478.3,470.5c0.1,0.4,0,0.7,0,1s0.1,0.5,0.3,0.7c0.3,0.3,0.4,0.8,0.8,1c0.3,0.1,0.5,0.2,0.8,0.2
		c0.3,0,0.6,0,0.9-0.1c0.1,0,0.3-0.1,0.3,0c0,0.2-0.1,0.1-0.2,0.1c-0.5,0.1-1,0.1-1.4,0c-0.1,0-0.3,0-0.5,0
		c-0.1-0.1-0.1,0.1-0.1,0.2c0.1,0.3,0,0.6-0.2,0.9c-0.1,0.2,0,0.4,0,0.6c0,0.1,0,0.2-0.1,0.3c-0.1,0.1-0.2,0-0.3-0.1
		c-0.1-0.3-0.4-0.2-0.7-0.2c-1-0.1-1.4-0.7-1.2-1.5c0.1-0.5,1.1-0.6,1.4-0.3c0.1,0.1,0.2,0.3,0.1,0.5s-0.3,0.1-0.5-0.1
		c-0.1-0.2-0.3-0.4-0.5-0.2c-0.2,0.2-0.3,0.4-0.3,0.7c0.1,0.6,0.7,0.7,1.3,0.7c0.4,0,0.7-0.5,0.7-1c0-0.2-0.1-0.4-0.2-0.6
		c-0.5-0.8-0.6-1.5-0.5-2.4C478.2,470.6,478.2,470.5,478.3,470.5C478.2,470.5,478.2,470.5,478.3,470.5z"/>
	<path class="st4" d="M480.7,469.6c-0.6,0.1-0.8,0.5-1,0.8c-0.2,0.3,0.1,0.7,0.4,0.9c0.1,0.1,0.3,0.2,0.4,0.3c0.4,0.3,0.4,0.5,0.1,1
		c-0.1,0.1-0.2,0.2-0.4,0.1c-0.1-0.1-0.2-0.2-0.2-0.4c0-0.2,0.1-0.2,0.3-0.3c0.1,0,0.1,0,0.3,0c-0.1-0.3-0.3-0.4-0.6-0.5
		c-0.4-0.1-0.7-0.2-0.9-0.7c-0.2-0.7,0.5-1.4,1.2-1.4c0.2,0,0.5,0,0.7,0c0.1,0,0.1,0,0.2,0c0,0.1,0,0.2,0,0.2
		c-0.4,0.3-0.3,0.7-0.1,1.1c0,0,0,0.1,0.1,0.2c0.1,0.1,0.1,0.3,0,0.4c-0.2,0.1-0.4,0-0.5-0.2c-0.1-0.2-0.1-0.3-0.3-0.3
		c-0.2,0-0.2-0.5,0-0.7C480.5,469.9,480.6,469.8,480.7,469.6z"/>
	<path class="st4" d="M478.6,480.3c-0.2-0.9,0.5-1.1,1.1-1.4c0.3-0.2,0.5,0,0.7,0.2c0.2,0.2,0.5,0.4,0.4,0.8c0,0.2,0.2,0.3,0.3,0.4
		c0,0.1,0.2,0.1,0.1,0.2c-0.1,0.1-0.2,0-0.3-0.1c-0.1-0.2-0.3-0.4-0.4-0.6c-0.2-0.4-0.5-0.4-0.9-0.3c-0.3,0-0.4,0.3-0.6,0.5v0.1
		c0.1,0,0.2,0,0.3,0c0.1-0.1,0.4-0.2,0.5-0.1c0.2,0.3,0.5,0.4,0.7,0.6c0.1,0.1,0.1,0.2,0,0.3s-0.2,0.1-0.4,0
		c-0.2-0.3-0.5-0.4-0.9-0.3c-0.2,0.1-0.4,0.2-0.3,0.5c0,0.1,0,0.2-0.1,0.2c-0.1,0-0.1-0.1-0.1-0.2
		C478.7,480.8,478.5,480.6,478.6,480.3z"/>
	<path class="st4" d="M465.9,454.1c0,0.2-0.1,0.2-0.2,0.3c0.4,0.1,0.6,0.3,0.6,0.8c-0.1,0.6-0.8,0.9-1.3,0.6
		c-0.2-0.1-0.2-0.3-0.2-0.5s0.2-0.3,0.4-0.4c0.1,0,0.2,0,0.3,0.2s-0.1,0.2-0.2,0.2c-0.1,0-0.2,0-0.2,0.1c0,0.1,0.1,0.1,0.2,0.1
		c0.2,0,0.7-0.2,0.7-0.4c0-0.3-0.3-0.6-0.7-0.6c-0.3,0-0.6,0.1-1,0.2c-0.6,0.2-1.2,0.1-1.6,0c-0.6,0-1.1-0.1-1.6-0.2
		c-0.3-0.1-0.6-0.1-0.9-0.3c0.3-0.1,0.6,0,0.8,0.1c0.1,0,0.2,0.1,0.3,0c0.2-0.2,0.4-0.2,0.6,0c0.5,0.3,1.1,0.4,1.6,0.3
		c0.4,0,0.9,0,1.2-0.2C465.2,454.1,465.5,454.2,465.9,454.1z"/>
	<path class="st4" d="M473,478.9c-0.4,0-0.7,0.1-1.1,0.1c-0.3,0-0.3-0.2-0.5-0.3c-0.1,0,0-0.2,0.1-0.3c0.2-0.1,0.3-0.2,0.6-0.1
		c0.2,0.1,0.3,0.2,0.5,0c0.1-0.1,0.4,0,0.6,0.1c0.3,0.1,0.6,0,0.8-0.2c0.1,0,0.1-0.2,0.2-0.1c0.1,0.1,0,0.1-0.1,0.2
		c-0.2,0.3-0.6,0.5-0.9,0.8c-0.4,0.3-0.8,0.5-1.2,0.9c-0.1,0.1-0.2,0.1-0.3,0.1c-0.6-0.1-1.1,0.2-1.6,0.1c-0.1,0-0.2,0-0.3-0.1
		c0-0.1,0.1-0.1,0.2-0.1C471.2,480,472.1,479.6,473,478.9z"/>
	<path class="st4" d="M471.3,475.6c-0.7,0.5-1.1,1.3-1.7,1.6c-0.3,0.1-0.5,0.4-0.8,0.1c-0.1-0.1-0.4,0-0.6,0c-0.5,0.1-0.9,0.2-1.4,0
		c-0.3-0.1-0.4-0.4-0.5-0.6c-0.2-0.4-0.5-0.6-0.8-0.7c-0.4-0.1-0.6,0.1-0.9,0.3c0,0,0,0.2-0.2,0.1c-0.1-0.1-0.1-0.2,0-0.3
		c0.3-0.3,0.8-0.5,1.3-0.3c0.3,0.2,0.6,0.4,0.8,0.8c0.3,0.5,0.5,0.7,1.2,0.4c0.3-0.1,0.6-0.3,0.9-0.3c0.2,0,0.4,0,0.5,0.2
		c0.2,0.2,0.3,0.1,0.5,0c0.5-0.4,1-0.9,1.4-1.4C471,475.6,471.1,475.5,471.3,475.6z"/>
	<path class="st4" d="M473.7,472.8c0-0.1,0.2-0.2,0.3-0.3c0.3-0.1,0.6-0.2,0.9,0c0.3,0.3,0.4,0.8,0.3,1.2c-0.1,0.4-0.1,0.4,0.3,0.5
		c0.2,0,0.5,0.1,0.6,0.4l0,0c-0.2,0-0.5-0.1-0.7-0.2c-0.2-0.1-0.4-0.2-0.6,0.1c-0.5,0.5-1.1,0.8-1.7,1c0,0-0.1,0-0.2,0
		c0-0.1,0-0.1,0.1-0.2c0.4-0.1,0.7-0.3,1.1-0.5c0.3-0.1,0.5-0.3,0.8-0.6c-0.4,0.1-0.7,0.2-1.1,0.1l0,0c0.2-0.2,0.5-0.2,0.7-0.2
		c0.7,0,0.7-0.5,0.5-1c-0.1-0.2-0.1-0.3-0.3-0.4c-0.1,0-0.1,0-0.1,0v0.1c0.2,0.1,0.2,0.2,0.1,0.3c-0.1,0.1-0.1,0.3-0.3,0.2
		c-0.1,0-0.3,0-0.4-0.2C473.7,472.9,473.7,472.8,473.7,472.8z"/>
	<path class="st4" d="M479.2,476.1c-0.2,0.2-0.3,0.4-0.5,0.3c-0.1,0-0.1-0.1-0.1-0.1c0-0.2,0.1-0.4,0.3-0.5c0.4-0.2,0.8-0.5,1.1-0.8
		c0.1-0.2,0.4-0.2,0.6-0.4c-0.2-0.1-0.4-0.1-0.6-0.2c-0.1,0-0.2-0.1-0.2-0.2c-0.1-0.1-0.2-0.3-0.1-0.4c0.1-0.1,0.3,0,0.4,0.1
		c0.3,0.4,0.8,0.5,1.2,0.7c0,0.2-0.2,0.1-0.3,0.2c-0.8,0.2-1.2,0.8-1.5,1.4c-0.2,0.4,0.1,0.6,0.3,0.9c0.1,0.1,0.3,0.3,0.1,0.4
		c-0.1,0.2-0.4,0.2-0.6,0.2c-0.1,0-0.1-0.1-0.1-0.2C479.2,477,479.2,476.6,479.2,476.1z"/>
	<path class="st4" d="M454.8,471.2c0-0.7,0.8-1.4,1.4-1.3c0.3,0.1,0.6,0.3,0.7,0.6c0.1,0.2,0.1,0.3,0.3,0.1c0.1-0.1,0.2-0.2,0.3-0.1
		c0.1,0.1,0.1,0.3,0,0.4c-0.4,0.3-0.6,0.8-0.6,1.3c0,0.1,0,0.1-0.1,0.2c-0.1,0.1-0.2,0.3-0.4,0.2c-0.2-0.1,0.1-0.2,0.2-0.3
		c0.2-0.4,0.1-0.8,0.1-1.2c-0.1-0.4-0.2-0.6-0.9-0.7c-0.3,0-0.3,0.2-0.3,0.4c0.1,0.3-0.1,0.5-0.3,0.7c-0.1,0.1-0.2,0.1-0.4,0.1
		C454.6,471.4,454.7,471.2,454.8,471.2z"/>
	<path class="st4" d="M474.4,454.1c0.1,0.4,0.1,0.8,0,1.2c0,0.3,0.1,0.4,0.3,0.3c0.3,0,0.6,0,0.9,0.1c0.2,0.1,0.3-0.1,0.5-0.1
		c0.1,0,0.3,0,0.3,0.2c0,0.1,0,0.3-0.3,0.3s-0.1,0.3-0.1,0.4c0.1,0.1,0.1,0.2,0.1,0.4c0,0.2-0.1,0.2-0.3,0.2c-0.2,0-0.2-0.1-0.1-0.3
		c0.1-0.5-0.2-1-0.8-1c-0.4,0-0.8,0.1-1.1,0.5c-0.2,0.2-0.6,0.3-0.9,0.4c0.4-0.2,0.4-0.8,0.8-1s0.4-0.6,0.4-1.1
		C474.3,454.4,474.2,454.3,474.4,454.1z"/>
	<path class="st4" d="M460.6,475.4c0,0.5-0.2,0.9-0.6,1.1c-0.2,0.1-0.6,0-0.7-0.3c-0.1-0.3,0-0.7,0.2-0.8c0.2-0.1,0.4-0.1,0.3,0.2
		c0,0.1,0,0.2,0.1,0.2c0.2,0,0.3,0,0.4-0.2c0.1-0.1,0.1-0.3,0-0.4c-0.2-0.2-0.3-0.3-0.6-0.5s-0.5-0.2-0.6-0.5c0-0.1-0.1-0.1,0-0.2
		c0.1,0,0.1,0,0.2,0.1c0.1,0.3,0.4,0.3,0.7,0.5c0.1,0.1,0.3,0.1,0.5,0c0.2-0.1,0-0.2,0-0.3c0-0.2,0-0.3,0.1-0.4
		c0.1-0.1,0.3-0.1,0.4,0c0.1,0.1,0.2,0.3,0.1,0.4c0,0.1-0.1,0.1-0.1,0.2c-0.1,0.2-0.4,0.2-0.4,0.4
		C460.5,475,460.5,475.2,460.6,475.4z"/>
	<path class="st4" d="M480.2,464.1c-0.3,0.2-0.3,0.4-0.2,0.6c0.1,0.2,0.2,0.4,0.5,0.4c0.1,0,0.5-0.5,0.6-0.7c0-0.3,0-0.6-0.1-0.9
		c-0.1-0.7,0.1-1.4,0.3-2c0,0.1,0,0.2,0,0.2c-0.1,0.9,0,1.8,0,2.7c0,0.4-0.3,0.8-0.7,0.9c-0.2,0.1-0.3-0.1-0.5-0.2
		c-0.4-0.2-0.6-1.1-0.2-1.4c0.2-0.1,0.4-0.1,0.6,0.1c0.2,0.1,0.2,0.3,0.1,0.4c0,0.1-0.1,0.2-0.3,0.2
		C480.2,464.4,480.2,464.3,480.2,464.1C480.2,464.3,480.2,464.2,480.2,464.1z"/>
	<path class="st4" d="M457.4,464.3c0-0.4-0.2-0.7-0.4-1.1c0-0.1-0.1-0.2,0-0.2c0.1-0.1,0.2,0,0.2,0.1c0.5,0.5,0.5,1.5,0,2
		c-0.2,0.2-0.4,0.5-0.7,0.4c-0.4-0.1-0.7-0.4-0.8-0.9c0-0.3,0.1-0.6,0.3-0.9c0.2-0.2,0.4-0.2,0.6,0c0.2,0.2,0.2,0.4,0,0.6
		c-0.1,0.1-0.2,0.1-0.3,0.1s-0.2-0.1-0.1-0.3c0-0.1,0-0.2-0.1-0.2c-0.1,0-0.1,0.1-0.1,0.2c0,0.3-0.1,0.6,0.2,0.9
		c0.1,0.1,0.3,0.2,0.5,0.1C457,465.2,457.4,464.6,457.4,464.3z"/>
	<path class="st4" d="M459.1,459.7c0-0.6,0.7-1.3,1.4-1.1c0.2,0.1,0.4,0.1,0.6,0.2c0.1,0,0.1,0.2,0.1,0.2c0,0.1-0.1,0-0.2,0
		c-0.1-0.1-0.3-0.1-0.5-0.1c-0.1,0-0.3-0.2-0.4,0c-0.1,0.2-0.1,0.6,0.1,0.7c0.1,0.1,0.5,0.1,0.2,0.4c-0.2,0.3-0.8,0.4-0.9,0.2
		C459.2,460.1,459,460,459.1,459.7z"/>
	<path class="st4" d="M462.1,475.6c0.1,0.8-0.5,1.1-1.1,1.4c-0.5,0.3-1,0.4-1.4,0.2c-0.1,0-0.2,0-0.2-0.1c0-0.1,0.1-0.1,0.2-0.1
		c0.5,0.1,0.9,0,1.3-0.1c0.3-0.1,0.9-0.8,0.9-1.1c0-0.2-0.2-0.3-0.3-0.4c-0.2-0.1-0.2-0.3-0.1-0.4c0-0.1,0.2-0.3,0.4-0.3
		c0.2,0,0.4,0.1,0.4,0.3C462.1,475.2,462.2,475.4,462.1,475.6z"/>
	<path class="st4" d="M474.5,462.8c0-0.1,0.1-0.2,0.1-0.3c0.1,0,0.2-0.2,0.3,0c0.1,0.1-0.1,0.1-0.1,0.2c-0.1,0.1,0,0.2,0.1,0.2
		c0.2,0,0.4-0.1,0.6,0c0.5,0.2,0.6,0.4,0.4,0.9c-0.2,0.6-0.9,1-1.4,0.9c-0.1,0-0.2,0-0.3-0.1c-0.2-0.1-0.3-0.3-0.1-0.4
		c0.1-0.2,0.3-0.1,0.4,0c0.2,0.3,0.5,0.3,0.8,0.2s0.4-0.4,0.4-0.7c0-0.3-0.3-0.5-0.6-0.5C474.7,463.1,474.6,463.1,474.5,462.8z"/>
	<path class="st4" d="M478.7,454.8c-0.3,0.5-0.9,0.4-1.4,0.5l0,0c0.1,0.2,0.3,0.3,0,0.5c-0.3,0.2-0.4,0-0.5-0.2
		c-0.3-0.5-0.8-0.8-1.2-1.2c-0.1,0-0.1-0.1,0-0.2c0.1-0.1,0.1,0,0.2,0.1c0.3,0.4,0.7,0.6,1.1,0.7s0.7,0.1,0.9-0.3
		c0.1-0.1,0.2-0.2,0.3,0C478.4,454.8,478.5,454.9,478.7,454.8z"/>
	<path class="st4" d="M473.6,471.2C473.6,471.2,473.5,471.2,473.6,471.2c-0.4,0.3-0.7,0.5-1.1,0.3c-0.1,0-0.2,0-0.2-0.1
		c-0.1-0.1-0.4-0.2-0.3-0.3c0.1-0.2,0.2,0.1,0.3,0.2c0.3,0.1,0.6,0.1,0.8,0c0.3-0.1,0.5-0.3,0.5-0.7c0-0.3,0-0.6-0.4-0.7
		c-0.2-0.1-0.4-0.1-0.4,0.2c0,0.2-0.1,0.3-0.3,0.3c-0.1,0-0.2,0-0.3-0.1c-0.1-0.2,0-0.3,0.1-0.4c0.2-0.3,0.5-0.4,0.9-0.3
		c0.3,0.1,0.5,0.3,0.5,0.7C473.8,470.6,473.7,470.9,473.6,471.2z"/>
	<path class="st4" d="M479.4,458.4c-0.3-0.2-0.7-0.1-0.9-0.3c-0.1-0.1-0.3-0.1-0.3-0.3s0.2-0.2,0.4-0.2c0.1,0,0.2,0,0.3,0
		c0.5,0.3,1,0.6,1.3,1.1c0,0.1,0.1,0.2,0,0.3c-0.1,0.1-0.2,0-0.3-0.1c-0.1-0.2-0.2-0.1-0.4-0.1c-0.2,0-0.4,0.1-0.5-0.2
		C479,458.4,479.3,458.6,479.4,458.4z"/>
	<path class="st4" d="M475.8,470.6c0-0.6,0.5-1,1.1-0.9c0.2,0,0.5,0,0.7,0.3c0,0.1,0.1,0.2,0,0.3c-0.1,0.1-0.2,0-0.2-0.1
		c-0.2-0.3-0.5-0.3-0.8-0.3c-0.1,0-0.2,0.1-0.3,0.2c0,0.1,0.1,0.1,0.1,0.1c0.3,0.1,0.2,0.3,0.2,0.4c-0.1,0.2-0.2,0.4-0.4,0.4
		C476,471,475.8,470.8,475.8,470.6C475.8,470.7,475.8,470.7,475.8,470.6z"/>
	<path class="st4" d="M465.4,457.9L465.4,457.9c-0.4-0.1-0.7-0.2-1.1-0.2c-0.3,0-0.5,0.2-0.4,0.5c-0.2,0.1-0.5,0.3-0.7,0.4
		c-0.1-0.1-0.1-0.2-0.1-0.3c0-0.2,0.6-0.7,0.9-0.7c0.2,0,0.4,0,0.6-0.2C465,457.2,465.3,457.4,465.4,457.9z"/>
	<path class="st4" d="M464.8,466.5c-0.1,0-0.2,0-0.2-0.1c-0.1-0.5-0.4-0.9-0.5-1.3c0.2,0,0.2-0.1,0.2-0.2c0-0.4,0.1-0.8,0.1-1.2
		l0.1-0.1c0.1,0.3,0.2,0.6,0.3,0.8s0,0.4-0.2,0.6c-0.3,0.2-0.3,0.5-0.2,0.8C464.7,465.9,464.7,466.2,464.8,466.5z"/>
	<path class="st4" d="M481.3,475.7C481.2,475.7,481.2,475.7,481.3,475.7c-0.2-0.1-0.2-0.3-0.4-0.3c-0.1,0-0.4,0.7-0.3,0.8
		c0.1,0.2,0.2,0.4,0.5,0.4c0.1,0,0.1,0,0.2,0c0,0,0.1,0,0.1,0.1c0,0,0,0.1-0.1,0.1c-0.4,0.2-0.9-0.1-0.9-0.5c0-0.5,0-0.9,0.4-1.2
		c0.1-0.1,0.3-0.2,0.5-0.1c0.2,0,0.1,0.2,0.1,0.3C481.3,475.4,481.3,475.5,481.3,475.7z"/>
	<path class="st4" d="M471.7,472.7c-0.1-0.1,0-0.2,0-0.3c0.1-0.4-0.1-0.8-0.5-0.9c-0.2,0-0.5-0.1-0.3,0.3c0,0.1,0,0.2-0.1,0.3
		c-0.1,0-0.3,0-0.4-0.1c-0.1-0.2,0-0.5,0.2-0.6c0.6-0.3,1.2,0.1,1.3,0.6C471.9,472.2,471.9,472.5,471.7,472.7z"/>
	<path class="st4" d="M465.4,477.1C465.3,477.1,465.3,477.1,465.4,477.1c-0.3,0-0.5,0-0.5-0.3c0-0.2,0.1-0.3,0.3-0.4
		c0.2-0.1,0.4,0,0.5,0.2c0.2,0.3,0,0.8-0.5,0.8c-0.3,0-0.6-0.1-0.7-0.4c0,0-0.1-0.1,0-0.2c0.1,0,0.1,0,0.1,0.1
		C464.8,477.4,465,477.4,465.4,477.1z"/>
	<path class="st4" d="M458.1,477.3c0.6,0,1,0.5,0.8,1c0,0.1-0.1,0.2-0.1,0.2c-0.1,0-0.1-0.1-0.1-0.2s0-0.2,0-0.3
		c-0.1-0.3-0.4-0.4-0.7-0.1l0,0c-0.1,0.1-0.3,0.3-0.5,0.2c-0.2-0.2,0-0.4,0.2-0.5C457.8,477.4,458,477.2,458.1,477.3z"/>
	<path class="st4" d="M473.3,479.9C473.4,479.9,473.4,479.9,473.3,479.9c0.2,0,0.3,0.1,0.4,0.2c0,0.1,0,0.2-0.1,0.2
		c-0.1,0.1-0.3,0.1-0.4,0c-0.2-0.1-0.3-0.3-0.3-0.5c0.1-0.3,0.3-0.4,0.6-0.4c0.3,0,0.8,0.3,0.9,0.6c0.1,0.1,0,0.3-0.1,0.3
		c-0.1,0-0.1-0.1-0.2-0.2C474.1,479.6,473.7,479.6,473.3,479.9z"/>
	<path class="st4" d="M471.5,476.1C471.5,476.2,471.4,476.2,471.5,476.1c-0.1,0.2,0.1,0.4,0.2,0.4c0.3,0,0.4,0.3,0.3,0.6
		c-0.1,0.2-0.3,0.2-0.5,0.3c-0.2,0-0.3-0.1-0.4-0.3c-0.1-0.2,0-0.5,0-0.7C471.1,476.2,471.2,476.1,471.5,476.1L471.5,476.1z"/>
	<path class="st4" d="M472.9,463.5c0.2,0.1,0.3,0.4,0.6,0.3c0,0.3-0.2,0.5-0.5,0.7c-0.3,0.1-0.6,0-0.7-0.3
		C472.6,463.8,472.8,463.8,472.9,463.5z"/>
	<path class="st4" d="M467.6,463.7c0.2-0.1,0.3-0.2,0.6-0.1c0.3,0.1,0.4,0.2,0.3,0.5c-0.1,0.3-0.3,0.5-0.6,0.7c-0.1,0-0.2,0.2-0.3,0
		c-0.1-0.1-0.1-0.2,0-0.3c0.1-0.1,0.2-0.3,0.4-0.3c0.2,0,0.3-0.1,0.3-0.3c0-0.2-0.2-0.1-0.3-0.1
		C467.8,463.8,467.6,463.8,467.6,463.7z"/>
	<path class="st4" d="M477.7,464.6c0,0.3-0.2,0.5-0.5,0.5c-0.1,0-0.3,0-0.3-0.1c0-0.1-0.1-0.2,0-0.3c0.1-0.1,0.2-0.2,0.4-0.1
		c0,0,0.1,0.1,0.1,0c0-0.1,0-0.1,0-0.2c-0.1-0.1-0.2-0.1-0.2-0.3c0,0,0.1,0,0.2,0c0.1,0.1,0.3,0.1,0.3,0.3
		C477.7,464.5,477.7,464.6,477.7,464.6z"/>
	<path class="st4" d="M475.4,454.1c0.1,0.3-0.1,0.6-0.2,0.8c-0.1,0.1-0.3,0.2-0.5,0.1c-0.2-0.2,0-0.3,0.1-0.4
		C475,454.4,475.1,454.2,475.4,454.1z"/>
	<path class="st4" d="M471.5,476.1c0-0.1-0.1-0.1,0-0.2c0.1-0.2,0.9-0.6,1.2-0.5c-0.1,0.1-0.4,0.1-0.2,0.4c-0.1,0-0.2,0.1-0.3,0.1
		C471.8,475.9,471.6,476,471.5,476.1L471.5,476.1z"/>
	<path class="st4" d="M475.9,474.5c0.1,0.1,0.1,0.1,0.3,0.2c0.3,0.1,0.5,0.5,0.5,0.8c0,0.1,0,0.1-0.1,0.1c-0.1,0-0.2-0.1-0.2-0.2
		C476.2,475,476,474.9,475.9,474.5L475.9,474.5z"/>
	<path class="st4" d="M481,468c-0.2,0-0.4,0-0.4-0.3c0-0.2,0.2-0.2,0.4-0.2c0.1,0,0.3,0,0.3,0.3C481.3,467.9,481.2,468,481,468z"/>
	<path class="st4" d="M473.3,454.1c0.1,0.1,0.3-0.1,0.3,0.1c0,0.2-0.2,0.3-0.3,0.3c-0.2,0-0.3-0.1-0.3-0.3
		C473,454,473.2,454.2,473.3,454.1z"/>
	<path class="st4" d="M473.5,474.3c-0.3,0.3-0.6,0.4-1.1,0.4C472.7,474.4,473.1,474.3,473.5,474.3L473.5,474.3z"/>
	<path class="st4" d="M465.6,468.2c-0.2-0.3-0.3-0.6-0.3-0.9C465.7,467.5,465.8,467.9,465.6,468.2z"/>
	<path class="st4" d="M478.4,469.9c0.1-0.1,0-0.4,0.3-0.4c0.1,0,0.1,0,0.1,0.1c-0.1,0.2-0.1,0.4-0.3,0.5
		C478.4,470.1,478.4,470,478.4,469.9z"/>
	<path class="st4" d="M460.9,462c-0.1,0.3-0.2,0.7-0.6,0.8C460.5,462.5,460.6,462.2,460.9,462z"/>
	<path class="st4" d="M476.6,464.2c0.1,0,0-0.2,0.2-0.3c0.3,0,1.2,0.3,0.9,0.4c-0.3,0.1-0.5-0.1-0.8,0
		C476.8,464.4,476.7,464.2,476.6,464.2z"/>
	<path class="st4" d="M460.4,462.7C460.3,462.7,460.3,462.8,460.4,462.7C460.3,462.8,460.3,462.7,460.4,462.7z"/>
	<path class="st3" d="M461.6,477.8C461.5,477.8,461.5,477.8,461.6,477.8C461.5,477.8,461.5,477.8,461.6,477.8
		C461.5,477.8,461.5,477.8,461.6,477.8z"/>
	<path class="st3" d="M456.3,468.3L456.3,468.3L456.3,468.3z"/>
	<path class="st3" d="M454.3,472.4L454.3,472.4C454.3,472.4,454.4,472.4,454.3,472.4C454.4,472.4,454.3,472.4,454.3,472.4z"/>
	<path class="st3" d="M454.3,481.1C454.3,481.2,454.3,481.2,454.3,481.1C454.2,481.1,454.2,481.1,454.3,481.1
		C454.2,481.1,454.2,481,454.3,481.1C454.3,481,454.3,481.1,454.3,481.1z"/>
	<path class="st3" d="M473.3,458.1c-0.1-0.1-0.1-0.3-0.2-0.4c-0.1,0-0.1-0.1-0.1-0.2c0-0.1,0.1,0,0.2-0.1c0.8-0.1,1.6-0.1,2.4,0.1
		c0.7,0.2,1.3,0.4,1.7,0.9c0.9,0.9,0.7,1.4,0.2,2.3c-0.3,0.9-1.3,1-2,0.5c-0.1-0.1-0.3-0.1-0.4-0.2c-0.1-0.3,0.2-0.6,0.2-1
		c0-0.1,0.1,0,0.1,0.1c0.2,0.3,0.5,0.5,0.8,0.6c0.3,0.1,0.6-0.1,0.6-0.3c-0.1,0-0.2,0-0.2,0.1c-0.2,0.1-0.4,0.1-0.5-0.1
		c-0.1-0.1-0.2-0.3,0-0.5c0.1-0.1,0.1-0.3,0-0.4c-0.1-0.1-0.3-0.1-0.4,0c0-0.4,0.1-0.7,0.2-1.1c0.1,0.1,0.2,0.1,0.3,0
		c0.3-0.1,0.5,0.1,0.6,0.3c0.1,0.2,0,0.3-0.1,0.5c0,0.1-0.1,0.2-0.2,0.2c-0.1,0.1-0.2,0.2-0.1,0.4c0.1,0.1,0.3,0.2,0.5,0
		c0.1-0.1,0.2-0.3,0.2,0c0,0,0,0.1,0.1,0.1c0,0,0.1,0,0.1-0.1c0-0.4,0.1-0.7-0.2-1c-0.3-0.5-0.8-0.8-1.4-0.7
		c-0.3,0.1-0.5-0.2-0.7-0.2v-0.1c0,0-0.1,0-0.1,0.1l0,0c-0.1,0-0.1,0-0.2,0.1c-0.3,0.3-0.4,0.3-0.7,0.1c0.1-0.1,0.1-0.2,0.3-0.2
		c0.1,0,0.1-0.1,0.1-0.1c0-0.1-0.1-0.1-0.2-0.1c-0.2,0.1-0.5,0.3-0.7,0.4C473.5,458.1,473.4,458.1,473.3,458.1z"/>
	<path class="st4" d="M475.7,458.1c0.6-0.1,1.1,0.2,1.4,0.7c0.2,0.3,0.2,0.7,0.2,1c0,0,0,0.1-0.1,0.1c-0.1,0-0.1,0-0.1-0.1
		c0-0.3-0.1-0.1-0.2,0c-0.2,0.1-0.3,0.1-0.5,0c-0.1-0.1-0.1-0.3,0.1-0.4c0.1,0,0.1-0.1,0.2-0.2c0.1-0.2,0.2-0.3,0.1-0.5
		c-0.2-0.2-0.4-0.3-0.6-0.3c-0.1,0-0.2,0.1-0.3,0C475.9,458.2,475.5,458.2,475.7,458.1z"/>
	<path class="st3" d="M470.6,457.9c0.6-0.2,1.1-0.4,1.6-0.5c0.2-0.1,0.5,0,0.6,0.2c0.1,0.1-0.1,0.3-0.2,0.4
		C471.9,458,471.4,457.9,470.6,457.9C470.6,458.1,470.6,458,470.6,457.9z"/>
	<path class="st4" d="M475.6,459.4c0.2-0.1,0.3-0.1,0.4,0c0.1,0.1,0.1,0.3,0,0.4c-0.2,0.2-0.1,0.4,0,0.5c0.1,0.2,0.3,0.2,0.5,0.1
		c0.1,0,0.1,0,0.2-0.1c0,0.2-0.3,0.4-0.6,0.3c-0.3-0.1-0.6-0.3-0.8-0.6C475.4,459.8,475.5,459.6,475.6,459.4z"/>
	<path class="st3" d="M469,458c0-0.2,0.1-0.3,0.2-0.3c0.4-0.1,0.7-0.1,1.1,0c0.1,0,0.1,0.1,0.1,0.2C470,458.1,469.5,458.1,469,458z"
		/>
	<path class="st3" d="M464,458.1c-0.1-0.3,0-0.5,0.4-0.5c0.3,0,0.7,0.1,1,0.3c-0.1,0.1-0.3,0.1-0.5,0.1
		C464.6,458.1,464.3,458.1,464,458.1z"/>
	<path class="st4" d="M473.6,458.1c0.2-0.1,0.5-0.3,0.7-0.4c0.1,0,0.1,0,0.2,0.1c0,0.1,0,0.1-0.1,0.1c-0.1,0-0.2,0.1-0.3,0.2
		C473.9,458.1,473.8,458.1,473.6,458.1z"/>
	<path class="st3" d="M463.2,461.8c0.1,0.2,0.3,0.5,0.2,0.7C463.1,462.4,463.1,462.3,463.2,461.8z"/>
	<path class="st3" d="M466.8,457.9c0.3,0,0.6-0.1,0.9,0.1c-0.2,0-0.5,0.1-0.8,0.1C466.8,458.1,466.8,458.1,466.8,457.9z"/>
	<path class="st3" d="M463.4,463.3c0.3,0.1,0.1,0.5,0.3,0.7C463.5,463.8,463.4,463.6,463.4,463.3z"/>
	<path class="st4" d="M474.9,457.9C474.9,457.8,475,457.8,474.9,457.9L474.9,457.9C475,457.9,474.9,457.9,474.9,457.9z"/>
	<path class="st4" d="M474.7,458c0-0.1,0.1-0.1,0.2-0.1C474.8,458,474.8,458,474.7,458z"/>
	<path class="st3" d="M463.9,462c0.8,0,1.6,0,2.5,0c0.2,0,0.4,0,0.5,0.1c0.1,0.2-0.1,0.4-0.3,0.5c-0.2,0.2-0.6,0.1-0.8,0
		c-0.4-0.4-0.7-0.4-1.1,0.1c-0.1,0.1-0.2,0.2-0.3,0.2c-0.2,0-0.4,0.1-0.7,0.2c-0.1,0-0.2,0-0.2-0.1c0-0.1-0.1-0.3-0.1-0.4
		C463.4,462,463.4,462,463.9,462z"/>
	<path class="st3" d="M465.7,462.8c-0.2,0.1-0.4,0-0.7,0C465.3,462.4,465.5,462.4,465.7,462.8z"/>
	<path class="st3" d="M471.7,469.3C471.7,469.3,471.8,469.3,471.7,469.3C471.8,469.3,471.8,469.3,471.7,469.3
		C471.8,469.3,471.7,469.3,471.7,469.3z"/>
	<path class="st6" d="M474.1,471.7c-5.1,10.6-12.6-1.5-14-8c3.6-6.8,3.7-5.4,10.4-5.8c5.9,0.8,6.5-1.8,3.7,5.2
		c-0.3,0.5-0.8,0.8-1.2,0.3c0.4-0.6,1.1-1.1,0.8-1.8c-3.1,0-8-0.8-10.5,0.3c1,3.8,3.4,10,7.2,12.1
		C472.1,474.3,473,470.4,474.1,471.7z"/>
</g>
<rect x="453.5" y="453.5" class="st7" width="28.3" height="28.3"/>
</svg>
