<?xml version="1.0" encoding="utf-8"?>
<!-- Generator: Adobe Illustrator 25.0.1, SVG Export Plug-In . SVG Version: 6.00 Build 0)  -->
<svg version="1.1" id="Layer_1" xmlns="http://www.w3.org/2000/svg" xmlns:xlink="http://www.w3.org/1999/xlink" x="0px" y="0px"
	 viewBox="0 0 878.7 878.7" style="enable-background:new 0 0 878.7 878.7;" xml:space="preserve">
<style type="text/css">
	.st0{fill:none;stroke:#BA2C29;stroke-width:0.6944;stroke-miterlimit:10;}
	.st1{fill:none;stroke:#BA2C29;stroke-width:0.9963;stroke-miterlimit:10;}
	.st2{fill:#352C8C;stroke:#000000;stroke-width:1.0016;stroke-miterlimit:10;}
	.st3{fill:#CBCBCB;}
	.st4{fill:#4E4E4E;}
	.st5{fill:#4E4E4E;stroke:#4E4E4E;stroke-width:0.2998;stroke-miterlimit:10;}
	.st6{fill:#E2C114;stroke:#E2C114;stroke-width:0.2998;stroke-miterlimit:10;}
</style>
<g>
	<line class="st0" x1="0" y1="28.3" x2="878.7" y2="28.3"/>
	<line class="st0" x1="0" y1="0" x2="878.7" y2="0"/>
	<line class="st0" x1="0" y1="56.7" x2="878.7" y2="56.7"/>
	<line class="st0" x1="0" y1="85" x2="878.7" y2="85"/>
	<line class="st0" x1="0" y1="113.4" x2="878.7" y2="113.4"/>
	<line class="st0" x1="0" y1="141.7" x2="878.7" y2="141.7"/>
	<line class="st0" x1="0" y1="170.1" x2="878.7" y2="170.1"/>
	<line class="st0" x1="0" y1="198.4" x2="878.7" y2="198.4"/>
	<line class="st0" x1="0" y1="226.8" x2="878.7" y2="226.8"/>
	<line class="st0" x1="0" y1="255.1" x2="878.7" y2="255.1"/>
	<line class="st0" x1="0" y1="283.5" x2="878.7" y2="283.5"/>
	<line class="st0" x1="0" y1="311.8" x2="878.7" y2="311.8"/>
	<line class="st0" x1="0" y1="340.2" x2="878.7" y2="340.2"/>
	<line class="st0" x1="0" y1="368.5" x2="878.7" y2="368.5"/>
	<line class="st0" x1="0" y1="396.9" x2="878.7" y2="396.9"/>
	<line class="st0" x1="0" y1="425.2" x2="878.7" y2="425.2"/>
	<line class="st0" x1="0" y1="453.5" x2="878.7" y2="453.5"/>
	<line class="st0" x1="0" y1="481.9" x2="878.7" y2="481.9"/>
	<line class="st0" x1="0" y1="510.2" x2="878.7" y2="510.2"/>
	<line class="st0" x1="0" y1="538.6" x2="878.7" y2="538.6"/>
	<line class="st0" x1="0" y1="566.9" x2="878.7" y2="566.9"/>
	<line class="st0" x1="0" y1="595.3" x2="878.7" y2="595.3"/>
	<line class="st0" x1="0" y1="623.6" x2="878.7" y2="623.6"/>
	<line class="st0" x1="0" y1="652" x2="878.7" y2="652"/>
	<line class="st0" x1="0" y1="680.3" x2="878.7" y2="680.3"/>
	<line class="st0" x1="0" y1="708.7" x2="878.7" y2="708.7"/>
	<line class="st0" x1="0" y1="737" x2="878.7" y2="737"/>
	<line class="st0" x1="0" y1="765.4" x2="878.7" y2="765.4"/>
	<line class="st0" x1="0" y1="793.7" x2="878.7" y2="793.7"/>
	<line class="st0" x1="0" y1="822" x2="878.7" y2="822"/>
	<line class="st0" x1="0" y1="878.7" x2="878.7" y2="878.7"/>
	<line class="st1" x1="850.4" y1="0" x2="850.4" y2="878.7"/>
	<line class="st1" x1="878.7" y1="0" x2="878.7" y2="878.7"/>
	<line class="st1" x1="822" y1="0" x2="822" y2="878.7"/>
	<line class="st1" x1="793.7" y1="0" x2="793.7" y2="878.7"/>
	<line class="st1" x1="765.4" y1="0" x2="765.4" y2="878.7"/>
	<line class="st1" x1="737" y1="0" x2="737" y2="878.7"/>
	<line class="st1" x1="708.7" y1="0" x2="708.7" y2="878.7"/>
	<line class="st1" x1="680.3" y1="0" x2="680.3" y2="878.7"/>
	<line class="st1" x1="652" y1="0" x2="652" y2="878.7"/>
	<line class="st1" x1="623.6" y1="0" x2="623.6" y2="878.7"/>
	<line class="st1" x1="595.3" y1="0" x2="595.3" y2="878.7"/>
	<line class="st1" x1="566.9" y1="0" x2="566.9" y2="878.7"/>
	<line class="st1" x1="538.6" y1="0" x2="538.6" y2="878.7"/>
	<line class="st1" x1="510.2" y1="0" x2="510.2" y2="878.7"/>
	<line class="st1" x1="481.9" y1="0" x2="481.9" y2="878.7"/>
	<line class="st1" x1="453.5" y1="0" x2="453.5" y2="878.7"/>
	<line class="st1" x1="425.2" y1="0" x2="425.2" y2="878.7"/>
	<line class="st1" x1="396.9" y1="0" x2="396.9" y2="878.7"/>
	<line class="st1" x1="368.5" y1="0" x2="368.5" y2="878.7"/>
	<line class="st1" x1="340.2" y1="0" x2="340.2" y2="878.7"/>
	<line class="st1" x1="311.8" y1="0" x2="311.8" y2="878.7"/>
	<line class="st1" x1="283.5" y1="0" x2="283.5" y2="878.7"/>
	<line class="st1" x1="255.1" y1="0" x2="255.1" y2="878.7"/>
	<line class="st1" x1="226.8" y1="0" x2="226.8" y2="878.7"/>
	<line class="st1" x1="198.4" y1="0" x2="198.4" y2="878.7"/>
	<line class="st1" x1="170.1" y1="0" x2="170.1" y2="878.7"/>
	<line class="st1" x1="141.7" y1="0" x2="141.7" y2="878.7"/>
	<line class="st1" x1="113.4" y1="0" x2="113.4" y2="878.7"/>
	<line class="st1" x1="85" y1="0" x2="85" y2="878.7"/>
	<line class="st1" x1="56.7" y1="0" x2="56.7" y2="878.7"/>
	<line class="st1" x1="28.3" y1="0" x2="28.3" y2="878.7"/>
	<line class="st1" x1="0" y1="0" x2="0" y2="878.7"/>
	<line class="st0" x1="0" y1="850.4" x2="878.7" y2="850.4"/>
</g>
<rect x="453.5" y="453.5" class="st2" width="28.3" height="28.3"/>
<g>
	<path class="st3" d="M453.6,477.9c0-1.2,0-2.4,0-3.7c0,0,0,0.1,0.1,0.1c0.6,0.2,0.7,0.5,0.5,1c-0.1,0.1-0.1,0.3-0.2,0.4
		c-0.1,0.1,0,0.2,0,0.3c0.1,0.1,0.2,0.1,0.2,0.1c0.3-0.2,0.4-0.5,0.7-0.7c0,0,0-0.1,0-0.2c0.1-0.3-0.2-0.5-0.3-0.9
		c0.5,0.2,0.8,0.6,0.8,1.1c0,0.4-0.4,0.5-0.7,0.7c-0.5,0.3-0.6,0.7-0.4,1c0.1,0.2,0.3,0.3,0.5,0.3c0.1,0,0.2-0.2,0.2-0.4
		c0-0.2-0.1-0.3-0.3-0.3c-0.1,0-0.1,0-0.2-0.1c0-0.1,0-0.1,0.1-0.2c0.2-0.3,0.6-0.3,0.9-0.4c0.4-0.2,0.5-0.4,0.5-0.8
		c0-0.4-0.2-0.8-0.6-1c-0.6-0.3-1.2-0.2-1.8-0.2c0-0.4,0-0.7,0-1.1c0.2-0.1,0.3,0.2,0.5,0.2c0.5,0.1,1,0,1.4,0.2
		c0-0.2-0.1-0.2-0.1-0.3c0.1,0,0.2-0.1,0.3-0.1c0.1,0,0.1-0.1,0.1-0.2s-0.2-0.1-0.3,0c-0.3,0.2-0.6,0.2-0.9,0.3
		c-0.3,0-0.6,0-0.8-0.3c0,0,0,0,0-0.1c0.1,0,0.2,0,0.3,0c0.2,0,0.4-0.1,0.3-0.3c0-0.2-0.2-0.3-0.4-0.2c-0.2,0.1-0.4,0-0.6,0
		c0-0.7,0-1.4,0-2c0.2,0,0.2-0.2,0.3-0.3c0.1-0.2,0.1-0.3,0.3-0.1s0.4,0.3,0.7,0.2c0.5-0.1,0.8-0.5,0.7-1c0-0.2-0.1-0.5-0.4-0.5
		c-0.3,0-0.4,0.1-0.5,0.3c-0.1,0.2,0,0.3,0.1,0.4c0.2,0.1,0.2-0.1,0.3-0.2c0-0.1,0-0.2,0.1-0.2s0.1,0.1,0.2,0.2c0.1,0.1,0,0.2,0,0.3
		c-0.1,0.2-0.2,0.6-0.5,0.5c-0.3,0-0.4-0.3-0.5-0.6c0-0.2,0-0.4,0-0.6c0.1-0.4,0.1-0.9,0-1.3c-0.1-0.5-0.1-1-0.3-1.4
		c-0.1-0.2-0.2-0.1-0.3-0.1c0-2.5,0-4.9,0-7.4c0.2,0,0.3,0.1,0.5,0c0.2-0.1,0.4-0.2,0.6,0c0.2,0.2,0.1,0.4,0,0.6
		c-0.1,0.2,0,0.2,0.1,0.3c0.1,0.1,0.2,0.1,0.3,0.1c0.2-0.1,0.3-0.2,0.3-0.4c0-0.2,0.1-0.2,0.2-0.1c0,0,0.1,0.1,0.1,0.1
		c0.7,0.7,0.6,1.8-0.4,2.1c-0.7,0.2-1.2-0.2-1.3-0.8c0-0.1,0-0.2-0.1-0.3c0-0.1-0.1-0.2-0.2-0.2c-0.1,0-0.1,0.1-0.1,0.2
		c0,0.2-0.1,0.4-0.1,0.5c0,0.4,0,0.7,0.2,1c0.1,0.2,0.2,0.3,0,0.4s-0.3,0.5,0,0.7c0.2,0.2,0.4,0,0.5-0.2c0.1-0.2,0.2-0.4,0.4-0.4
		c0.3-0.1,0.7-0.2,1-0.3c0.6-0.2,1-0.8,0.9-1.3c0-0.4-0.1-0.9-0.4-1.3c-0.2-0.4-0.6-0.7-1-0.9c-0.4-0.2-0.7-0.5-1.2-0.3
		c-0.1,0-0.2,0.1-0.3,0c0.2-0.1,0.2-0.3,0.3-0.5c0.1-0.1,0-0.3-0.1-0.4c-0.1-0.1-0.2-0.1-0.3,0c-0.1,0.1-0.1,0.2,0,0.3
		c0.1,0.1,0,0.2-0.1,0.3c0-0.7,0-1.5,0-2.2c0.2-0.1,0.3-0.2,0.6-0.4c-0.2,0.7,0.1,1.1,0.4,1.6c0.6,0.7,1.4,1.1,2.4,0.9
		c0.8-0.1,1.4-0.8,1.3-1.7c0-0.4,0.1-0.6,0.4-0.8c0.1-0.1,0.1-0.1,0.2-0.2c0.1-0.1,0.2-0.2,0.1-0.3c-0.1-0.1-0.1-0.2-0.3-0.2
		c-0.1,0-0.2,0-0.3,0.1c-0.1,0.1-0.5,0.1-0.6,0c-0.1-0.1-0.3-0.1-0.4-0.1c-0.4,0-0.7,0.2-1.1,0.2c-0.2,0-0.4,0-0.4-0.3
		c0-0.3,0.2-0.1,0.3-0.2c0.1-0.1,0.3-0.1,0.2-0.3c0-0.2-0.2-0.3-0.4-0.2c-0.2,0-0.4,0-0.6,0c-0.1,0-0.2-0.1-0.3,0.1
		c0.2,0,0.4,0,0.6,0c0,0.2-0.1,0.2-0.2,0.4c-0.1,0.5,0.5,1.1,1,1c0.5,0,0.8,0.3,1,0.7c0.2,0.3-0.1,0.9-0.4,1.1
		c-0.5,0.5-1.2,0.3-1.6,0.1c-0.1-0.1-0.3-0.2-0.4-0.3c-0.1-0.2,0.2-0.1,0.3-0.3c0,0,0.1-0.1,0.1-0.1c0-0.1,0.1-0.2,0.1-0.4
		c-0.1-0.1-0.2-0.1-0.3,0c-0.1,0-0.1,0-0.2,0c-0.4,0.1-0.6,0-0.6-0.5c0-0.4,0-0.8,0-1.2c0,0,0,0-0.1,0c-0.1,0.4-0.3,0.6-0.7,0.7
		c0-0.4,0-0.7,0-1.1c0.2,0.1,0.4-0.1,0.6,0c0.1,0,0.1,0.1,0.1,0c0-0.1-0.1-0.1-0.1-0.1c-0.2,0-0.4,0-0.6,0c0.1-0.1,0.2-0.1,0.3-0.1
		c4.1,0,8.2,0,12.4,0c5.1,0,10.3,0,15.4,0c0.2,0,0.3,0,0.3,0.3c0,9.2,0,18.8,0,28c-0.1,0-3.1,0-4.5,0c0.3-0.2,0.7-0.3,0.6-0.8
		c0.4-0.1,0.2-0.4,0.2-0.5c-0.1-0.5,0.2-0.9,0.5-1.2c0.8-0.8,1.7-1.2,2.9-0.9c0.1,0,0.2,0.1,0.2,0c0-0.1-0.1-0.2-0.2-0.2
		c-0.6-0.1-1.3-0.2-1.9,0.1c-0.2,0.1-0.5,0.2-0.7,0.4c-0.2,0.1-0.3,0.1-0.3-0.1c0-0.2-0.2-0.3-0.4-0.5c-0.1-0.1-0.5,0-0.6,0.1
		c-0.1,0.2,0,0.3,0.2,0.4c0.4,0.2,0.5,0.6,0.2,1.1c-0.1,0.2-0.2,0.2-0.3,0c-0.3-0.4-0.5-0.8-1.1-0.9c-0.4,0-0.6-0.2-0.8-0.5
		c-0.1-0.2-0.3-0.3-0.5-0.2c-0.2,0.1-0.1,0.3,0,0.4c0,0,0,0.1,0,0.2c0.1,0.2,0,0.2-0.1,0.3c-0.2,0-0.5,0.4-0.6,0.7
		c-0.1,0.7,0.7,1.3,1.2,1.4c0.1,0,0.3,0,0.3-0.2c0-0.4-0.2-0.7-0.8-0.6c-0.1,0-0.2,0-0.3,0c-0.2-0.2-0.2-0.7,0-0.9
		c0.5-0.3,1-0.4,1.6-0.2c0.3,0.1,0.4,0.5,0.6,0.7c0.3,0.4,0.2,0.8,0.3,1.3c-0.2,0.1-0.2,0.4-0.5,0.4c0-0.2,0-0.4,0-0.5
		c0-0.1-0.1-0.2-0.2-0.2c-0.1,0-0.3,0-0.3,0.2c0.1,0.3,0,0.6,0,0.8c-0.6,0-1.2,0-1.8,0c0-0.1-0.1-0.2-0.2-0.2
		c-0.3-0.1-0.5-0.2-0.8-0.3c0-0.1,0.1-0.1,0.1-0.1c0.1,0,0.2-0.1,0.1-0.2c-0.1-0.1-0.2,0-0.2,0c-0.3,0.2-0.6,0.1-0.9,0.1
		c-0.5,0-1-0.2-1.5,0c-0.3,0.1-0.6,0.2-0.9,0.2c-0.4,0-0.7,0.2-1.1,0.3c-0.2,0-0.4,0.1-0.5,0.2c0.3,0.1,0.6-0.1,0.8,0.1
		c-2,0-3.9,0-5.9,0c0-0.3,0.1-0.5,0.4-0.5c0.1,0,0.3,0,0.4,0.1c0.4,0.1,0.9,0.3,1.3-0.2c0-0.1,0.2-0.2,0.2,0
		c0.1,0.2,0.3,0.2,0.4,0.3c0.2,0.1,0.3,0,0.4-0.1c0.1-0.1,0.1-0.3,0-0.4c-0.1-0.1-0.3-0.2-0.4-0.3c-0.2-0.1-0.2-0.2-0.2-0.4
		c0-0.6-0.2-1.1-0.7-1.4c-0.4-0.3-0.9-0.3-1.3-0.2c-0.3,0.1-0.5,0-0.4-0.4c0-0.1,0-0.3-0.1-0.4c-0.1,0-0.2,0-0.2,0
		c-0.1,0.1-0.1,0.3-0.1,0.4c0.1,0.3,0,0.5-0.2,0.7c-0.6,0.6-1.1,1.1-1,2c0,0.2-0.1,0.3-0.3,0.1c-0.1-0.1-0.3-0.2-0.5-0.1
		c-0.1,0-0.3,0.1-0.3,0.3c0,0.1,0.2,0.3,0.4,0.1c0.4-0.3,0.5,0.1,0.8,0.2c-1.4,0-2.8,0-4.2,0c0-0.1,0.1-0.1,0.1-0.2
		c0.1-0.4,0.3-0.7,0.7-0.9c0.5-0.2,1.1,0,1.3,0.3c0,0.1,0.1,0.1,0,0.2c-0.1,0.1-0.2,0-0.2,0c-0.2-0.2-0.4-0.1-0.6-0.1
		c-0.2,0-0.3,0.2-0.3,0.3c0,0.1,0.1,0.2,0.3,0.2c0.2,0,0.4,0,0.7,0c0.4,0,0.5-0.1,0.4-0.5c-0.1-0.5-0.2-0.7-0.9-0.8
		c-0.8-0.1-1.7,0.4-1.8,1.4c-0.3,0-0.6,0-0.8,0c0.1-0.2,0.1-0.5,0.2-0.8c0.4-0.7,1.1-1.1,1.9-1.4c0.5-0.2,1.1-0.2,1.6-0.4
		c0.1,0,0.2-0.1,0.3,0c0,0,0,0.1,0,0.2c-0.2,0.3-0.1,0.6,0.1,0.8c0.2,0.1,0.3,0.1,0.5,0c0.2-0.1,0.2-0.3,0.1-0.5
		c-0.1-0.2-0.2-0.1-0.4-0.1c-0.2,0.1-0.2,0-0.1-0.2c0.2-0.4,0.5-0.6,0.8-0.8c0.6-0.4,1.1-1,1.2-1.7c0.1-0.6,0.2-1.2,0-1.8
		c-0.1-0.4-0.3-0.7-0.6-1c0,0-0.1-0.1,0-0.1s0.1,0,0.2,0c0,0,0.1,0.1,0.1,0.2c0.2,0.3,0.4,0.6,0.6,0.9c0.1-0.1,0.1-0.2,0-0.3
		c-0.4-0.5-0.7-1-1.1-1.4c-0.1,0-0.1-0.2-0.2-0.1c-0.1,0.1,0.1,0.2,0,0.3c-0.2-0.1-0.3-0.3-0.5-0.3c-1-0.5-2.1-0.8-3.2-0.2
		c-0.1,0-0.1,0-0.2,0c0,0,0-0.1,0-0.1c0.3-1,1.3-1.4,2.2-0.8c0.4,0.3,0.8,0.6,1.2,1c0.1,0,0.1,0.1,0.2,0c0.1-0.1,0-0.1-0.1-0.2
		c-0.1-0.1-0.1-0.1-0.2-0.2c-0.4-0.3-0.8-0.7-1.3-0.9c-0.2-0.1-0.3-0.4-0.2-0.6c0-0.1,0.1-0.2,0.1-0.3c0-0.2,0-0.4-0.3-0.3
		c-0.2,0-0.2,0-0.2-0.2c0-0.1,0.1-0.2,0.2-0.3c0.1-0.1,0.2-0.2,0.2-0.3c0-0.1-0.2-0.2-0.2-0.2c-0.1,0.1-0.3,0-0.4,0.3
		c-0.1,0.5-0.1,0.9,0.2,1.3c0,0.1,0.1,0.1,0,0.2c-0.1,0.1-0.1,0-0.2,0c-0.6-0.2-0.9-0.6-1.3-1.2c-0.3-0.5-0.3-0.9-0.3-1.3
		c0-0.3,0.4-0.7,0.7-0.6c0.5,0.1,0.8,0.4,0.7,0.9c0,0.1-0.1,0.3-0.2,0.3c-0.2,0-0.1-0.2-0.1-0.2c0-0.1,0-0.3-0.2-0.3
		c-0.1,0-0.2,0-0.3,0.1c-0.1,0.2-0.1,0.3,0,0.5c0.1,0.2,0.3,0.3,0.6,0.3c0.1,0,0.3,0,0.3-0.2c0.1-0.2,0.1-0.5,0.1-0.7
		c0-0.3-0.3-0.7-0.6-0.7c-0.7-0.1-1.2,0.4-1.1,1.2c0,0.1,0.1,0.2,0,0.3c-0.4-0.5-0.4-1.1-0.6-1.6c-0.2-0.5,0-1.1,0.2-1.6
		c0.3-0.8,0.4-1.6,0.1-2.4c0-0.1,0-0.1-0.1-0.2c-0.3-0.4-0.3-1-0.2-1.5c0.1-0.4,0.5-0.6,0.8-0.5c0.1,0,0.2,0.1,0.2,0.2
		c0,0.2-0.1,0.1-0.2,0.1c-0.1,0-0.3,0.1-0.3,0.3c0,0.2,0,0.4,0.3,0.4c0.4,0,0.5-0.1,0.5-0.6c0-0.4-0.3-0.8-0.6-0.8
		c-0.3,0-0.8,0.3-0.8,0.6c-0.1,0.6-0.1,1.2,0.2,1.7c0.2,0.3,0.3,0.7,0.3,1.1c0,0.1,0,0.3-0.2,0.1c-0.2-0.1-0.3-0.1-0.3,0.1
		c0,0.2-0.1,0.5,0,0.7c0.1,0.3,0.1,0.6,0,0.9c-0.1,0.6-0.2,1.2,0,1.8c0.2,0.7,0.5,1.4,1,2c0,0,0.1,0.1,0,0.1c0,0.1-0.1,0-0.2,0
		c-0.6-0.5-1.3-1-1.9-1.5c-0.4-0.3-0.4-0.6-0.2-1c0.1-0.2,0.2-0.4,0-0.5c-0.3-0.1-0.2-0.2-0.1-0.3c0.1-0.1,0.1-0.2,0.1-0.4
		c0-0.2-0.1-0.4-0.3-0.5s-0.3,0.1-0.4,0.3c-0.1,0.3-0.1,0.7,0,1c0,0.1,0,0.1,0,0.2c0,0-0.1,0-0.1-0.1c-0.3-0.5-0.6-1-0.7-1.6
		c-0.1-0.7-0.2-1.4-0.2-2.2c0-0.5,0.3-0.8,0.6-1.2c0.2-0.3,0.5-0.3,0.8-0.3c0.1,0,0.2,0,0.2-0.1c0-0.1-0.1-0.1-0.2-0.2
		c-0.7,0-1.1,0.2-1.3,0.8c-0.1,0.2-0.1,0.4-0.3,0.1c-0.1-0.1-0.4-0.3-0.6-0.1c-0.2,0.2-0.1,0.4,0,0.5c0,0,0.1,0.1,0.1,0.1
		c0.3,0.2,0.4,0.5,0.4,0.9c0,0.1,0,0.2,0,0.3c0,0.4,0.2,0.9,0.1,1.3c-0.1,0.2,0,0.4,0.2,0.6c0.3,0.3,0.5,0.7,0.8,1
		c0.2,0.3,0.4,0.7,0.8,1c0.5,0.5,1.1,1,1.7,1.3c0.1,0,0.3,0.1,0.3,0.2c0,0.2-0.2,0.2-0.3,0.3c0,0-0.1,0-0.1,0
		c-0.3,0.2-0.6,0.4-0.7,0.7c-0.1,0.1-0.1,0.3,0.1,0.4c0.2,0.1,0.3,0,0.3-0.2c0.1-0.3,0.3-0.5,0.5-0.6c0.1,0.1,0,0.2,0,0.3
		c-0.1,0.2,0,0.5,0.2,0.5c0.2,0,0.3-0.2,0.3-0.4c0-0.4,0.2-0.5,0.6-0.5c0.3,0,0.5,0.1,0.8,0.2c0,0.1-0.1,0.1-0.1,0.1
		c-0.3,0.1-0.7,0.2-0.8,0.6c-0.1,0.2-0.2,0.5-0.3,0.7c-0.1,0.3-0.3,0.5-0.6,0.8c-0.1,0.1-0.2,0.1-0.3,0c-0.2-0.1-0.3-0.2-0.4,0
		c-0.1,0.2-0.2,0.5,0.1,0.6c0.2,0.1,0.1,0.2,0.1,0.3c0,0.2-0.2,0.5-0.1,0.7c0.1,0.6,0.3,1.2,0.7,1.6c0.2,0.2,0.3,0.3,0.6,0.2
		c-0.3-0.2-0.6-0.4-0.8-0.7c-0.5-0.9-0.5-1.7,0.1-2.5c0.1-0.1,0.1-0.3,0.3-0.3c0.2,0,0,0.2,0.1,0.3c0,0,0.1,0,0.1,0
		c0-0.1,0-0.2,0-0.2c0-0.3,0.1-0.5,0.4-0.7c1-0.4,1.9-0.2,2.8,0.1c0.1,0,0.2,0.1,0.1,0.2c0,0.1-0.1,0.1-0.2,0
		c-0.2,0-0.4,0.1-0.5,0.2c-0.1,0.1-0.1,0.3-0.1,0.4c0,0.1,0,0.1,0.1,0.1c0.1,0,0.2-0.1,0.3-0.2c0.1-0.2,0.2-0.3,0.4-0.3
		c0,0.5,0,0.5,0.5,0.4c0.2,0,0.3,0,0.5,0.2c0.3,0.3,0.4,0.8,0.5,1.2c0.1,0.2,0,0.2-0.2,0.2c-0.6-0.1-1.1,0.2-1.2,0.8
		c0,0.2-0.1,0.4,0.1,0.5c0.2,0.1,0.3,0.1,0.5,0c0.2-0.2,0.1-0.3,0-0.5c-0.1-0.1-0.1-0.2,0-0.3c0.1-0.2,0.3-0.2,0.5-0.2
		c0.1,0,0.2,0.1,0.2,0.2c0.1,0.5,0,0.9-0.2,1.3c-0.4,0.9-1.3,1.2-2.1,1.5c0,0-0.1,0-0.1,0c0.1-0.2,0.3-0.3,0.4-0.5
		c0.2-0.2,0.1-0.4-0.2-0.5c0,0,0,0,0,0c0,0,0-0.1,0-0.1c0-0.2,0-0.5-0.3-0.5c-0.2,0-0.2,0.3-0.2,0.5c0,0,0,0,0,0
		c0.1,0.3-0.1,0.6-0.2,0.8c-0.1,0.1-0.1,0.2-0.2,0.2c-0.2,0-0.1-0.2-0.1-0.3c0-0.3-0.1-0.5-0.4-0.6c-0.1,0-0.3,0-0.4,0.2
		c0,0.2,0,0.3,0.2,0.4c0.2,0.1,0.4,0.1,0.3,0.3c0,0.2-0.2,0.3-0.4,0.4c-0.3,0.1-0.6,0.2-0.9,0.3c-0.5,0.2-0.9,0.5-1.2,1
		c-0.2,0.3-0.5,0.6-0.3,1.1c-0.3,0-0.7,0-1.1,0c0-0.2,0-0.4,0-0.6c0.4,0.2,0.6,0.2,0.6,0c0.1-0.3-0.2-0.4-0.3-0.5
		c-0.4-0.3-0.8-0.5-1.1-0.9c-0.1-0.1-0.1-0.1-0.3-0.2c-0.1,0-0.1,0-0.1,0c0,0.1,0,0.1,0.1,0.1c0.3,0.2,0.6,0.5,0.7,0.8
		c0.2,0.3,0.5,0.7,0,1.1c0,0,0,0.1,0,0.1c-0.5,0-0.9,0-1.4,0c0-0.1,0-0.1,0.1-0.1c0.4-0.1,0.5-0.4,0.5-0.8c0-0.2-0.1-0.4-0.2-0.6
		c-0.2-0.6-0.6-0.7-1.1-0.6c0-0.1,0-0.3,0-0.4c0.1,0,0.3,0,0.5,0.1c0.2,0.1,0.4,0.1,0.6,0.1c0.3-0.2,0.6-0.2,0.8-0.4
		c0.2-0.1,0.2-0.3,0.2-0.5c0-0.1,0-0.1-0.1-0.2c-0.2,0-0.3,0.1-0.4,0.2c-0.1,0.1-0.2,0.3-0.3,0.3c-0.4,0-0.8,0.3-1.2,0.1
		c0-0.3,0-0.7,0-1c0.2,0,0.5,0,0.7,0.1c0.1,0,0.1,0,0.2-0.1c0-0.1,0-0.1-0.1-0.1C454.1,478.1,453.9,477.9,453.6,477.9z M460.1,462.5
		C460,462.5,460,462.6,460.1,462.5c0,0.2-0.2,0.4-0.2,0.5c-0.3,0.2-0.5,0.6-0.7,0.9c-0.1,0.2-0.1,0.3-0.1,0.5c0,0.3,0.1,0.5,0.2,0.8
		c0,0.1,0.1,0.2,0,0.3c-0.5,0.3-0.7,0.8-1,1.3c-0.2,0.3-0.3,0.7-0.3,1.1c0,0.1,0,0.1,0.1,0.2c0.1,0,0.1-0.1,0.1-0.1
		c0.2-0.3,0.4-0.5,0.6-0.6c0.1,0,0.1-0.1,0.2-0.1c0.1-0.1,0.2-0.2,0.1-0.3c-0.1-0.2-0.2-0.1-0.3-0.1c-0.1,0-0.2,0.1-0.3,0
		c0.2-0.3,0.4-0.7,0.7-0.9c0.1-0.1,0.1,0,0.2,0.1c0.2,0.3,0.2,0.6,0.4,0.8c0.2,0.3,0.4,0.7,0.5,1.1c0.3,0.6,0.6,1.2,0.9,1.8
		c0.3,0.5,0.5,1,0.9,1.5c0.7,1,1.3,2,2.1,2.9c0.2,0.3,0.5,0.6,0.7,0.9c0.2,0.4,0.6,0.6,0.8,1c0.3,0.4,0.8,0.7,1.3,0.8
		c1.3,0.3,2.4,0.1,3.5-0.7c0.6-0.4,1.1-0.9,1.7-1.3c0.1-0.1,0.1-0.1,0.1-0.2c0.5-0.4,0.9-0.9,1.3-1.5c0.1-0.1,0.2-0.1,0.2-0.1
		c0,0.1,0,0.2,0.1,0.2c0,0.2,0.2,0.2,0.4,0.2c0.2,0,0.2-0.1,0.3-0.2c0.1-0.1,0.1-0.2-0.1-0.3c0,0-0.1-0.1,0-0.1c0-0.1,0.1,0,0.1,0
		c0.2,0.1,0.2,0.3,0.3,0.4c0.2,0.5,0.1,1-0.5,1c-0.3,0-0.5,0-0.7,0.2c-0.4,0-0.7,0.1-1.1,0.4c0.5,0,0.8-0.1,1.1-0.4
		c0.3,0.1,0.6,0,1.1-0.1c-0.2,0.3-0.5,0.5-0.8,0.6c-0.3,0.2-0.7,0.4-1.1,0.5c-0.1,0-0.1,0.1-0.1,0.2c0,0,0.1,0,0.2,0
		c0.7-0.2,1.3-0.5,1.8-1c0.2-0.2,0.4-0.2,0.6-0.1c0.2,0.1,0.4,0.2,0.7,0.2c0.1,0.3,0.4,0.6,0.4,0.9c0,0.1,0.1,0.2,0.2,0.2
		c0.1,0,0.1-0.1,0.1-0.1c0-0.3-0.2-0.7-0.5-0.8c-0.1,0-0.2-0.1-0.3-0.2c-0.1-0.3-0.4-0.3-0.6-0.4c-0.4-0.1-0.5-0.1-0.3-0.5
		c0.2-0.4,0.1-0.9-0.3-1.2c-0.3-0.3-0.6-0.2-0.9,0c0.1-0.3,0.1-0.5,0.1-0.8c0.2,0,0.3-0.2,0.4-0.3c0.1-0.1,0.1-0.2,0.3,0
		c0.2,0.3,0.4,0.6,0.8,0.8c0.2,0.1,0.5,0.3,0.4,0.5c-0.1,0.3-0.3,0.5-0.1,0.8c0.1,0.2,0.2,0.3,0.3,0.4c0.2,0.1,0.2-0.1,0.3-0.3
		c0.1-0.3,0-0.6-0.1-0.8c-0.1-0.3,0-0.3,0.2-0.3c0.3,0,0.6,0,0.9-0.3c0.1-0.2,0.3-0.4,0.4-0.7c0.2-0.4,0.2-0.7,0-1.2
		c-0.2,0.2-0.1,0.5-0.1,0.7c0,0.2,0,0.2-0.2,0.2c-0.4-0.1-0.5-0.1-0.4,0.4s0,0.6-0.5,0.6c-1,0-2.2-0.9-1.8-2.1c0-0.1,0-0.3,0.2-0.3
		c0.2,0,0.1,0.2,0.1,0.3c0.1,0.1,0.1,0.4,0.3,0.3c0.2,0,0.2-0.2,0.2-0.4c-0.2-0.6,0.2-1.1,0.6-1.5c0.1-0.1,0.2-0.1,0.3,0
		c-0.2,0.4-0.1,0.7,0.2,0.9c0.2,0.1,0.4,0.1,0.6,0c0.2-0.2,0.4-0.4,0.4-0.7c0-0.2-0.1-0.3-0.3-0.3c-0.1,0-0.3-0.1-0.4,0.1
		c0,0.2,0,0.3,0.1,0.5c0,0,0.2,0,0.1,0.2c0,0.1-0.1,0.1-0.2,0.1c-0.2-0.1-0.4-0.2-0.3-0.5c0.1-0.2,0.1-0.4,0.3-0.5
		c0.3-0.4,0.6-0.9,0.5-1.4c-0.1-1-0.7-1.6-1.8-1.3c-1.1,0.2-1.4,1.2-1.2,2.2c0.1,0.6,0,1.1-0.4,1.3c-0.2,0.1-0.3,0-0.4-0.1
		c-0.1-0.2,0.1-0.2,0.1-0.3c0-0.1,0.1-0.1,0.1-0.2c0.1-0.1-0.1-0.1-0.1-0.2c0-0.1-0.1-0.2-0.2-0.1c-0.2,0.1-0.4,0.3-0.4,0.5
		c0,0.3,0.3,0.6,0.5,0.6c0.4,0,0.8-0.3,1-0.7c0.1-0.3-0.1-0.6,0-1c0.2,0.4,0.6,0.4,0.9,0.4s0.7-0.3,0.8-0.6c0-0.2,0-0.3-0.1-0.4
		c-0.2-0.1-0.4-0.1-0.5,0c-0.1,0.1-0.2,0.2-0.1,0.5c0.1,0.2,0,0.4-0.2,0.3c-0.2-0.1-0.5-0.1-0.6-0.4c-0.1-0.3-0.2-0.5,0-0.8
		c0.2-0.3,0.4-0.6,0.8-0.6c0.3,0,0.8-0.3,1,0.3c0,0,0.1,0,0.1,0c0.5,0.3,0.8,0.8,0.5,1.3c-0.2,0.3-0.4,0.5-0.7,0.7
		c-0.3,0.2-0.5,0.4-0.8,0.6c-0.4,0.4-0.9,0.7-1.1,1.3c-0.1,0.2-0.1,0.4-0.2,0.6c-0.1,0.3-0.1,0.6-0.5,0.5c0,0-0.1,0-0.1,0.1
		c-0.1,0-0.2,0-0.2,0c0.2-0.3,0.2-0.7,0.2-1.1c0-0.4-0.2-0.6-0.5-0.7c-0.4-0.2-0.7,0-0.9,0.3c-0.1,0.1-0.2,0.3-0.1,0.4
		c0.1,0.1,0.1,0.2,0.3,0.1c0.2,0,0.3-0.2,0.3-0.3c0-0.3,0.2-0.3,0.4-0.2c0.4,0.1,0.4,0.4,0.4,0.7c0,0.4-0.2,0.6-0.5,0.7
		c-0.3,0.1-0.5,0.2-0.8,0c-0.1-0.1-0.2-0.3-0.3-0.2c-0.1,0.1,0.1,0.2,0.3,0.3c0.1,0,0.1,0.1,0.2,0.1c0.4,0.1,0.7-0.1,1-0.2
		c0,0.1-0.1,0.2-0.1,0.3c-0.1,0.3-0.5,0.4-0.7,0.7c-0.4,0.7-1,1.2-1.7,1.6c-0.2,0.1-0.4,0.1-0.6,0.1c-1.1-0.1-1.6-0.9-2.2-1.7
		c-0.3-0.4-0.5-0.9-0.9-1.4c-0.4-0.5-0.8-1.1-1.1-1.6c-0.1-0.2-0.2-0.5-0.3-0.6c-0.3-0.1-0.3-0.3-0.4-0.6c0.2-0.3,0.1-0.7-0.3-0.9
		c-0.2-0.3-0.4-0.6-0.5-0.9c-0.1-0.3-0.1-0.5-0.2-0.8c-0.1-0.3-0.1-0.6,0.2-0.8c0.2-0.1,0.3-0.4,0.2-0.6c-0.2-0.2-0.2-0.5-0.3-0.8
		c0,0.1-0.1,0.1-0.1,0.1c0,0.4-0.1,0.8-0.1,1.2c0,0.1,0,0.2-0.2,0.2c0-0.1,0-0.3-0.1-0.4c-0.1-0.1-0.2-0.3-0.2-0.5
		c0-0.2,0.1-0.3,0-0.5c-0.1-0.3,0-0.4,0.2-0.5c0.2,0,0.5-0.2,0.5,0.2c0,0,0,0,0.1,0c0.2-0.1,0.2-0.4,0.5-0.4c0.1,0,0.3,0,0.4-0.1
		c0.1,0,0.2-0.1,0.2,0c0,0.1,0.1,0.1,0.1,0.2s-0.1,0.2-0.2,0.2c-0.1,0-0.2-0.1-0.2,0c-0.1,0.2,0,0.3,0.1,0.5c0.1,0.1,0.3,0,0.3-0.1
		s0.1-0.3,0.1-0.4c0-0.4,0.1-0.4,0.5-0.3c-0.1,0.4-0.4,0.8-0.3,1.3c0.1-0.3,0.2-0.6,0.3-0.9c0.1-0.3,0.2-0.5,0.6-0.5
		c0.3,0,0.6,0,0.9,0.1c0.2,0,0.4,0.2,0.6,0.2c0.4,0,0.8,0.1,1.2,0.3c0.7,0.3,1.5,0.7,2.1,1.3c1,1,1.2,2.4,0.6,3.7
		c-0.3,0.8-1,1.2-1.8,1.3c-0.7,0.1-1.4,0-2.1-0.3c-0.5-0.2-0.9-0.6-0.8-1.1c0-0.3-0.1-0.4-0.2-0.6c-0.3-0.3-0.4-0.7-0.2-1
		c0.2-0.4,0.2-0.9,0.5-1.2c0,0,0-0.1,0-0.2c-0.5,0.4-0.5,0.9-0.7,1.4c0,0.1-0.1,0.3-0.1,0.4c0.1,0.5,0.2,1.1,0.5,1.6
		c0.2,0.3,0.4,0.6,0.7,0.7c0.4,0.2,0.8,0.2,1.3,0.3c0.1,0,0.3-0.1,0.2,0.1c0,0.2-0.1,0.2-0.3,0.3c-0.2,0-0.3,0-0.4-0.1
		c-0.1-0.1-0.2-0.1-0.3-0.1c-0.1,0.1-0.1,0.2-0.1,0.3c0,0.1,0.1,0.2,0.3,0.2c0.1,0,0.2,0,0.2,0c0.2,0,0.3,0,0.2,0.2
		c0,0.2,0,0.4,0.1,0.6c0.1,0.2,0.2,0.3,0.4,0.2c0.2-0.1,0.4-0.2,0.4-0.5c0-0.3-0.3-0.2-0.5-0.1c-0.2,0-0.4-0.2-0.3-0.4
		c0.2-0.3,0.4-0.6,0.7-0.6c0.6-0.1,1-0.4,1.5-0.6c0,0,0,0,0.1,0.1c-0.1,0.3-0.2,0.7-0.5,1c-0.1,0.1-0.2,0.3-0.1,0.5
		c0.1,0.2,0.2,0.1,0.4,0c0.1-0.1,0.1,0.1,0.2,0c0-0.3,0-0.7,0.1-1.1c0.1-0.5,0.4-1,0.7-1.4c0.1-0.1,0.1-0.1,0.2-0.1
		c0.3,0.1,0.4-0.2,0.3-0.3c-0.3-0.5,0-1-0.1-1.5c-0.1-0.3,0-0.6-0.3-0.9c-0.1-0.1-0.1-0.3-0.2-0.4c0,0,0.1,0,0.1,0
		c0.3,0.1,0.6,0.3,0.9,0.4c0.6,0.4,0.6,0.5,0.1,1c0,0-0.1,0.1-0.1,0.1c-0.1,0.1-0.1,0.3,0,0.4c0.1,0.1,0.2,0.1,0.4,0
		c0.3-0.2,0.5-0.8,0.3-1.1c-0.1-0.2,0-0.2,0.1-0.3c1-0.1,1.8-0.8,2.7-1.3c0.2-0.1,0.1-0.3,0-0.4c-0.1-0.1-0.2,0-0.2,0
		c-0.2,0.2-0.4,0.5-0.7,0.6c-0.2,0.1-0.5,0.5-0.8,0.3c-0.2-0.2-0.4-0.1-0.5,0.1c-0.1,0.2-0.2,0.3-0.4,0.3c-0.5,0-1,0-1.5-0.3
		c-0.6-0.3-1.1-0.9-1.6-1.3c-0.3-0.2-0.7-0.3-1.1-0.5c0.2,0,0.2,0,0.4,0c0.7,0.2,1.3,0,1.9-0.4c0.1-0.1,0.1-0.2,0.2-0.3
		c0.1-0.1,0-0.3-0.1-0.4c-0.1-0.1-0.2,0-0.3,0.2c-0.1,0.1-0.1,0.2-0.1,0.4c0,0.1-0.1,0.2-0.2,0.2c-0.1,0-0.4,0.1-0.4-0.1
		c0-0.4-0.2-0.2-0.4-0.1c-0.3,0.1-0.6,0.4-1,0.3c-0.4-0.1-0.8-0.1-1.3-0.2c-0.7-0.1-1.3-0.3-2-0.2c-0.1,0-0.2,0-0.1-0.1
		c0.2-0.2,0.3-0.6,0.7-0.6c0.7,0,1.3,0,2,0c0.1,0,0.3,0.1,0.4,0.1c0.4-0.2,0.7,0,1.1,0c0.7,0,1.3,0.1,2,0.1c0.2,0,0.3,0.1,0.3,0.3
		c0,0.2-0.1,0.4,0,0.6c-0.1,0.1-0.1,0.2-0.2,0.4c-0.1,0.3-0.4,0.5-0.6,0.7c0.2,0.2,0.4,0.4,0.7,0.3c0.3-0.1,0.5-0.3,0.5-0.7
		c0.2-0.2,0.5-0.3,0.6-0.6c0.1-0.1,0.2-0.3,0.2-0.4c0,0,0,0,0.1,0c0,0,0,0,0,0.1c0,0.3,0.3,0.3,0.6,0.4c0.3,0,0.6,0.2,0.6,0.5
		c0,0.3-0.1,0.5-0.4,0.7c-0.3,0.2-0.6,0.1-0.8-0.2c-0.1-0.2-0.3-0.2-0.4,0c-0.1,0.2,0,0.3,0.1,0.4c0.1,0.1,0.2,0.1,0.3,0.1
		c0.6,0.1,1.3-0.3,1.5-0.9c0.1-0.5,0-0.7-0.4-0.9c-0.2-0.1-0.4,0-0.6,0c-0.1,0-0.2,0-0.1-0.2c0-0.1,0.2-0.1,0.1-0.2
		c-0.1-0.1-0.2,0-0.3,0c0-0.3,0-0.7,0.3-0.9c0,0.1,0,0.2,0.1,0.2c0.1,0,0.2,0,0.2-0.1c0.2-0.4,0.5-0.2,0.7-0.2c0.1,0,0.3,0,0.3,0.2
		c0,0.2-0.1,0.3-0.3,0.3c-0.3,0.1-0.5,0.1-0.8,0.2c0,0-0.1,0-0.1,0.1c0,0.1,0.1,0.1,0.1,0.1c0.5-0.1,0.9-0.2,1.4-0.5
		c0.3-0.1,0.6-0.4,0.9-0.6c0.3-0.2,0.5-0.1,0.6,0.3c0,0.1,0,0.2-0.1,0.3c-0.1,0.4-0.2,0.4-0.5,0.1c-0.2-0.2-0.4-0.1-0.5,0.2
		c0,0.2-0.1,0.3,0,0.5c0.1,0.3,0.1,0.7,0,1c0,0.1,0,0.1,0.1,0.2c0.1,0,0.1,0,0.2-0.1c0.1-0.3,0.3-0.5,0.4-0.8
		c0.1-0.2,0.1-0.5,0.5-0.5c0.2,0,0.3-0.1,0.3-0.3c0-0.2,0.1-0.4,0-0.6c-0.1-0.1,0-0.2,0.1-0.1c0.1,0.1,0.2,0.1,0.3-0.1
		c0-0.2-0.1-0.2-0.2-0.3c-0.4-0.2-0.5-0.3-0.3-0.8c0.3-0.8,0.1-1.8-0.6-2.4c-0.4-0.4-0.4-0.4,0.1-0.6c0.4-0.1,0.5-0.5,0.3-0.8
		c-0.1-0.2-0.3-0.2-0.4-0.2c-0.2,0-0.1,0.2,0,0.3c0.1,0.4,0,0.7-0.5,0.7c-0.2,0-0.5,0-0.7-0.1c-0.6-0.1-1.1-0.2-1.7-0.4
		c-0.3-0.1-0.5-0.1-0.7,0c-0.2,0.1-0.3,0.3-0.5,0.2c-0.4-0.1-0.7,0.1-1.1,0c-0.2,0-0.5,0-0.7,0.1c-0.5,0.2-0.9,0.2-1.4,0.2
		c-0.3,0-0.7,0-1,0c-0.3,0-0.6,0.1-1,0.2c-1,0.2-1.7-0.1-2.4-0.8c-0.4-0.4-0.8-0.6-1.2-0.9c-0.3-0.2-0.8-0.4-1.1-0.7
		c-0.1-0.1-0.2-0.1-0.3-0.1c-0.4,0-0.9,0-1.3,0c-0.3,0-0.6-0.1-0.8,0c-0.3,0.1-0.5,0-0.6-0.2c-0.1-0.1-0.2-0.2-0.3-0.2
		c-0.2-0.1-0.4-0.2-0.5,0.1c-0.1,0.2,0.1,0.4,0.2,0.5c0,0,0.2,0,0.2,0.1c0,0.1-0.1,0.1-0.2,0.1c-0.1,0-0.2,0.1-0.3,0.1
		c-0.3,0.2-0.7,0.5-0.9,0.8c-0.1,0.1-0.2,0.3,0,0.4c0.2,0.1,0.3,0,0.4-0.1c0.1-0.1,0.2-0.3,0.3-0.5c0.2-0.5,0.9-0.8,1.5-0.8
		c-0.1,0.1-0.1,0.2-0.2,0.3c-0.2,0.4-0.1,0.7,0.1,1c0.3,0.2,0.7,0.3,1,0c0.2-0.1,0.3-0.5,0.2-0.7c-0.1-0.1-0.2-0.2-0.4-0.2
		c-0.1,0-0.2,0-0.2,0.2c0,0.1,0,0.2,0.2,0.3c0,0,0.1,0.1,0.1,0.1c-0.4,0.2-0.6,0.2-0.8,0c-0.2-0.2-0.1-0.6,0.2-0.8
		c0.2-0.2,0.5-0.3,0.8-0.3c0.8-0.1,1.5,0.1,2.2,0.4c0.1,0,0.3,0,0.2,0.2c0,0.2-0.2,0.1-0.3,0.1c-0.4,0-0.7,0.1-1,0.3
		c-0.1,0.1-0.1,0.3,0.1,0.4c0.3,0.1,0.5,0,0.7-0.1c0.1-0.1,0.2-0.2,0.3,0c0.2,0.2,0.4,0.2,0.7,0c0.3-0.2,0.6-0.1,0.9,0
		c0.2,0.2,0.4,0.4,0.7,0.6c-0.3,0-0.6-0.1-0.7,0.3c-0.2,0.2-0.3,0-0.5,0c-0.2-0.5-0.4-0.7-0.8-0.5c-0.2,0.1-0.4,0.1-0.6,0.2
		c-0.2,0-0.8,0.5-0.9,0.7c0,0.1,0,0.2,0.1,0.3c-0.1,0.3-0.3,0.7-0.6,0.8c-0.1-0.6-0.4-1.1-0.3-1.7c0-0.1-0.1-0.2-0.2-0.2
		c-0.1,0-0.2,0-0.3,0.1c-0.1,0.1-0.1,0.2-0.1,0.3c-0.4,0-0.7-0.3-1.1-0.4c-0.8-0.2-1.5,0-2.2,0.4c-0.4,0.2-0.6,0.5-1.1,0.5
		c-0.2,0-0.2,0.1-0.1,0.3c0.1,0.2,0.3,0.1,0.5,0.2c-0.2,0.3-0.3,0.7-0.2,1c0.1,0.3,0,0.6-0.1,0.9c-0.1,0.2-0.2,0.4,0,0.6
		c0.2,0.2,0.4,0,0.5-0.1c0.1-0.1,0.2-0.1,0.3,0c0.4,0.3,0.9,0.4,1.3,0.4c0.6,0,1.3-0.3,1.4-1.3c0-0.3,0.1-0.7-0.1-1.1
		c0,0.2-0.1,0.4-0.1,0.6c0,0.4,0,0.9-0.4,1.2c-0.1,0.1-0.2,0.2-0.3,0.1c-0.2-0.5-0.4-0.1-0.6,0c-0.2,0.2-0.4,0.2-0.6,0.2
		c-0.5-0.1-1.3-1.1-1.2-1.7c0-0.3,0-0.5,0.2-0.8c0.3-0.5,0.8-0.8,1.3-1c0.7-0.3,1.9-0.1,2.5,0.5c0.1,0.1,0.3,0.2,0,0.3
		c-0.2,0-0.3,0.2-0.3,0.4c0.1,0.2,0.2,0.3,0.4,0.3c0.2,0,0.5,0,0.7,0.1c0,0.3-0.4,0.5-0.5,0.7c-0.2,0.4-0.5,0.7-0.8,1.1
		c-0.2,0.2-0.3,0.5-0.5,0.7C460.4,462,460.3,462.3,460.1,462.5L460.1,462.5z M471.6,476.4c-0.2,0-0.4,0.1-0.4,0.3
		c0,0.2-0.1,0.5,0,0.7c0.1,0.2,0.2,0.3,0.4,0.3c0.2,0,0.4,0,0.5-0.3c0.1-0.3,0-0.6-0.3-0.6C471.6,476.8,471.5,476.6,471.6,476.4
		C471.5,476.5,471.6,476.5,471.6,476.4c0.2-0.2,0.4-0.2,0.6-0.2c0.1,0,0.2-0.1,0.3-0.1c-0.2-0.3,0.2-0.3,0.2-0.4
		c-0.3-0.1-1.1,0.3-1.2,0.5C471.5,476.3,471.6,476.4,471.6,476.4z M470.7,453.9c0.3,0.1,0.5,0.1,0.7,0.3c0.2,0.1,0.2,0,0.3-0.1
		c0.1-0.1,0.2-0.2,0.1-0.3c0-0.1-0.2-0.1-0.3-0.1c-1,0-2,0-3,0c-0.1,0-0.2,0-0.2,0.1c0,0.1,0,0.2,0.1,0.2c0.1,0.1,0.2,0.1,0.3,0
		c0.1,0,0.1-0.1,0.2-0.1c0.1-0.1,0.3-0.1,0.3,0.1c0.1,0.5,0,0.9-0.2,1.4c-0.2,0.3-0.5,0.5-0.9,0.5c-0.4,0-0.9,0.2-1.2-0.3
		c-0.1-0.2-0.2-0.4-0.1-0.6c0-0.2,0.2-0.2,0.4-0.2s0.3-0.1,0.5-0.2c0.3-0.1,0.3-0.3,0.1-0.6c-0.2-0.2-0.9-0.1-1,0.1
		c0,0.2-0.2,0.3-0.3,0.5c-0.3,0.4-0.2,1.1,0.2,1.3c0.3,0.2,0.5,0.3,0.3,0.7c0,0.1,0,0.2,0.1,0.3c0.1,0,0.2,0,0.3-0.1
		c0.1-0.2,0.3-0.4,0.5-0.5c0.6-0.3,1.2-0.6,1.4-1.3c0-0.2,0.1-0.2,0.2,0c0.4,0.5,0.4,0.8-0.1,1.2c-0.1,0.1-0.2,0.2-0.1,0.4
		c0.1,0.1,0.2,0.2,0.4,0.1c0.4-0.2,0.5-0.5,0.5-0.8c0.2,0.1,0.4,0.2,0.6,0.3c0.6,0.3,1.1,0.3,1.7,0.2c0.1,0,0.2,0,0.2-0.1
		c0-0.1-0.1-0.1-0.2-0.1c-0.7,0.2-1.3,0-1.9-0.3c-0.7-0.3-1.2-1.1-1.2-1.8c0-0.1,0-0.1,0-0.2c0.2-0.2,0.7,0,0.8,0.2
		c0,0.2,0.2,0.5,0.3,0.7c0.3,0.5,1.4,0.6,1.8,0.1c0.3-0.3,0.2-0.7,0.4-1.1c0-0.1-0.1-0.1-0.1-0.1c-0.1,0-0.1,0-0.1,0.1
		c-0.1,0.2-0.2,0.4-0.3,0.6c-0.1,0.1-0.2,0.3-0.4,0.3C471.5,454.7,470.9,454.3,470.7,453.9z M469.3,464.4c0.1-0.3,0.3-0.4,0.3-0.7
		c0-0.1-0.1-0.2-0.2-0.2c-0.1,0-0.2,0-0.3,0.1c-0.1,0.1-0.1,0.2,0,0.3c0.1,0.4,0,0.6-0.3,0.8c-0.2,0.1-0.4,0.2-0.6,0.3
		c-0.1,0-0.2,0.1-0.1,0.2c0.1,0.1,0.2,0,0.2,0c0.4-0.2,0.9-0.4,1.4-0.4c0.5,0,0.7,0.2,0.6,0.7c0,0.2,0,0.3,0.1,0.4
		c0.2,0.1,0.3,0,0.4-0.1c0.1-0.1,0.2-0.2,0.2-0.3c0-0.1,0.1-0.1,0.2-0.1c0.6,0.3,0.8,1.1,0.6,1.7c-0.1,0.2-0.2,0.3-0.3,0.4
		c-0.4,0.4-0.8,0.3-1.2,0.1c-0.3-0.1-0.4-0.4-0.4-0.7c0-0.3-0.2-0.5-0.4-0.7c-0.3-0.3-0.8-0.2-1,0.2c-0.1,0.2-0.1,0.4,0,0.6
		c0.1,0.1,0.2,0.1,0.2,0c0.2-0.1,0.2-0.3,0.2-0.5c0-0.2,0-0.2,0.2-0.2c0.4,0.1,0.5,0.3,0.3,0.7c-0.1,0.4-0.2,0.8,0,1.2
		c0.2,0.2,0.3,0.3,0,0.5c-0.1,0.1-0.2,0.3-0.1,0.5c0.1,0.1,0.3,0.2,0.4,0.1c0.2,0,0.2-0.2,0.3-0.3c0.1-0.1,0.2-0.4,0.3-0.4
		c0.2,0,0.4,0,0.6-0.1c0.6-0.1,1.1-0.4,1.2-1c0.2-0.9,0-1.8-0.8-2.4C470.7,464.5,470,464.3,469.3,464.4z M475.6,475.8
		c-0.1,0-0.2,0.1-0.3,0.1c-0.3,0-0.3,0.2-0.2,0.4c0.1,0.2,0.2,0.3,0.4,0.2c0.4-0.1,0.5-0.6,0.3-0.9c-0.5-0.6-1.5-0.5-1.9,0.2
		c-0.1,0.2-0.1,0.5-0.3,0.6c-0.2,0-0.4-0.2-0.6-0.2c-0.1,0-0.2-0.2-0.3,0c0,0-0.1,0.1,0,0.2c0,0.1,0.2,0.1,0.3,0.1
		c0.3,0,0.4,0.3,0.7,0.4c0.1,0,0.1,0.2,0,0.3c0,0.1-0.1,0.1-0.2,0.1c-0.1,0-0.2,0-0.3,0c-0.3,0-0.5,0.2-0.6,0.5c0,0.1-0.1,0.2,0,0.3
		c0.1,0.1,0.2,0,0.3-0.1c0.1-0.2,0.2-0.3,0.3-0.1c0.2,0.2,0.4,0.1,0.6-0.1c0.1-0.2,0.2-0.1,0.3,0.1c0.1,0.3,1,0.5,1.3,0.4
		c0.3-0.1,0.7-0.2,1-0.2c0.3,0,0.5,0,0.8,0c0.5,0,1.1-0.4,1.3-0.9c0.2-0.6,0-1-0.6-1c-0.3,0-0.4,0.3-0.6,0.5
		c-0.1,0.1,0.1,0.3,0.2,0.4c0.1,0.1,0.2,0,0.2-0.1c0.1-0.2,0.2-0.1,0.4,0c0.2,0.1,0.1,0.3,0,0.4c-0.3,0.4-1,0.6-1.5,0.4
		c-0.1,0-0.2-0.1,0-0.2c0.3-0.2,0.4-0.6,0.5-0.9c0.1-0.2,0.1-0.5-0.2-0.6c0.1,0.5-0.1,0.7-0.5,0.6c-0.2,0-0.2,0.2-0.3,0.3
		c-0.1,0.1,0,0.2,0.1,0.2c0.1,0,0.2,0.1,0.2,0.2c-0.1,0.1-0.2,0.1-0.3,0.1c-0.1,0-0.3-0.1-0.4,0c0,0.1,0.2,0.1,0.1,0.2
		c0,0-0.1,0-0.2,0c-0.1-0.1-0.2,0-0.2,0c-0.2,0.1-0.4,0.1-0.5,0c-0.2-0.1-0.4-0.3-0.6-0.4c-0.1,0-0.1-0.2-0.1-0.3
		c0.1-0.1,0.2-0.1,0.3,0c0.2,0.1,0.4,0.2,0.6,0.3c0.1,0,0.1,0.1,0.2,0c0.1-0.1,0-0.1-0.1-0.1c-0.3-0.1-0.5-0.3-0.8-0.4
		c-0.2-0.1-0.2-0.2-0.2-0.4c0.1-0.6,0.4-0.8,1.1-0.8C475.2,475.5,475.5,475.5,475.6,475.8z M480.8,459.8c-0.3-0.2-0.4-0.4-0.7-0.5
		c-0.5-0.2-1,0-1.1,0.4c-0.1,0.4,0,0.7,0.4,1c0.1,0.1,0.2,0.1,0.4,0.2c0.1,0.1,0.3,0.2,0,0.4c-0.1,0.1-0.2,0.3-0.1,0.4
		c0,0.1,0.2,0.1,0.2,0.1c0.2,0,0.3-0.1,0.3-0.3c0,0,0-0.1,0-0.1c0-0.4-0.3-0.6-0.6-0.8c-0.2-0.1-0.4-0.4-0.3-0.6
		c0.1-0.3,0.3-0.4,0.6-0.3c0.3,0,0.5,0.2,0.6,0.5c0.3,0.5,0.2,1.1,0.1,1.6c-0.1,0.5-0.3,1.1-0.6,1.6c-0.1,0.1-0.1,0.4-0.3,0.4
		c-0.1-0.1,0-0.3,0-0.5c0.1-0.3-0.1-0.5-0.2-0.8c-0.1-0.1-0.3-0.2-0.5-0.2c-0.1,0-0.2,0.2-0.1,0.4c0.1,0.3,0.2,0.6,0,1
		c0,0,0,0.1,0.1,0.2c0.2,0.5,0.1,0.8-0.3,1.2c-0.2,0.2-0.5,0.4-0.8,0.6c-0.1,0-0.2,0.1-0.1,0.2c0,0.1,0.1,0.1,0.3,0
		c0.5-0.3,0.9-0.7,1.3-1.1c0.5-0.5,0.8-1.2,1.4-1.8c0.2-0.2,0.3-0.5,0.1-0.8c0-0.1-0.1-0.2,0-0.3c0.2-0.3,0.1-0.7,0.2-1.1
		c0.1-0.2-0.1-0.3,0-0.5c0.1-0.2,0.2-0.4,0.5-0.5c0.2-0.1,0.2-0.5,0.1-0.7s-0.4-0.1-0.5,0c-0.2,0.4-0.3,0.1-0.4-0.1
		C480.6,459.2,480.7,459.4,480.8,459.8z M481.8,454.8c-0.3,0.2-0.3,0.5-0.4,0.7c-0.1,0.5-0.4,0.8-0.8,0.9c-0.4,0.1-0.9-0.2-1.1-0.5
		c-0.3-0.5-0.2-1,0.2-1.6c0.3-0.3,0.3-0.3,0.5,0c0.1,0.2,0.2,0.3,0.4,0.2c0.1,0,0.2-0.1,0.2-0.3c0-0.2,0-0.6-0.1-0.6
		c-0.2-0.1-0.5-0.1-0.7,0.1c-0.5,0.3-0.8,0.8-0.9,1.4c-0.2,1.2,0.2,1.9,1.4,2.1c0.4,0.1,0.7,0,0.8,0.5c0,0.1,0.1,0.2,0.2,0.3
		c0.1,0.1,0.1,0.1,0.2,0.1c0.1,0,0.1-0.1,0.1-0.2c0-0.2,0.1-0.5-0.1-0.7c-0.1-0.1,0-0.1,0-0.2c0.1-0.1,0.1-0.1,0.1-0.2
		C481.8,456.1,481.8,455.5,481.8,454.8z M467.4,463.7c-0.1,0.1-0.2,0.1-0.2,0.1c-0.3,0.2-0.5,0.5-0.8,0.8c-0.1,0.1-0.2,0.2-0.2,0
		c0-0.1,0-0.2-0.1-0.2c-0.1,0-0.1,0.1-0.1,0.2c0.1,0.3,0,0.7,0,1c0,0.2,0.1,0.4-0.3,0.3c-0.1,0-0.4-0.1-0.5,0.1
		c-0.1,0.3,0.1,0.5,0.4,0.4c0.2,0,0.4,0,0.4,0.2c0,0.1,0.1,0.3,0.1,0.4c0.2,0.8,0.5,1.5,0.8,2.2c0.1,0.3,0.4,0.6,0.2,1
		c-0.1,0.1,0.1,0.3,0.2,0.3c0.5,0.1,0.6,0.6,1,0.8c0.1,0,0.2,0.1,0.2,0.1c0,0.3,0.2,0.5,0.4,0.6c0.4,0.4,0.8,0.8,1.3,1
		c0.4,0.2,0.9,0.1,1.3-0.1c-0.3-0.1-0.6,0-0.9,0c-0.3,0-0.9-0.2-1-0.6c-0.1-0.3-0.3-0.4-0.5-0.6c-0.3-0.1-0.5-0.4-0.8-0.6
		c-0.6-0.7-1.1-1.5-1.5-2.4c-0.4-0.7-0.5-1.4-0.7-2.1c-0.2-0.7-0.2-1.5,0.6-2c0.1,0,0.1-0.1,0.1-0.2c-0.2-0.3,0-0.4,0.2-0.5
		C467.2,464,467.3,463.9,467.4,463.7z M468.7,479.4c0.1-0.1,0.1,0,0.2,0c0.1,0,0.3,0,0.4-0.2c0-0.2-0.1-0.4-0.3-0.4
		c-0.2-0.1-0.4,0.1-0.5,0.3c-0.1,0.2,0,0.3,0.1,0.4c0.4,0.4,1.4,0.4,1.6-0.1c0.2-0.4,0.4-0.8,0.8-1c0.1-0.1,0.2-0.3,0-0.5
		c-0.1-0.1-0.3,0-0.4,0.1c-0.1,0.1-0.2,0.2-0.4,0.3c-0.1,0.1-0.2,0.1-0.3,0c-0.2-0.2-0.6-0.3-0.9-0.3c-0.5-0.1-0.9,0-1.3,0.4
		c-0.2,0.2-0.3,0.2-0.5,0c-0.1-0.2-0.2-0.3-0.4-0.1c-0.2,0.2,0,0.4,0.1,0.4c0.3,0.2,0.4,0.4,0.4,0.7c0.1,0.5,0.4,0.8,0.9,0.9
		c0.1,0,0.2,0,0.2,0.2c-0.1,0-0.1,0-0.2,0.1c-0.1,0.1-0.3,0.2-0.2,0.4c0,0.1,0.1,0.3,0.3,0.3c0.2,0,0.2-0.2,0.4-0.3
		c0.2-0.2,0.4-0.6,0.8-0.5c0.1,0,0.2-0.1,0.2-0.2c0-0.1-0.1,0-0.2,0c-0.4-0.1-0.8-0.1-1.2-0.2c-0.4-0.1-0.7-0.3-0.8-0.7
		c-0.1-0.4,0-0.8,0.4-1c0.5-0.3,1.2-0.4,1.7,0.2c0.2,0.2,0.4,0.4,0.2,0.7C469.7,479.6,469,479.8,468.7,479.4z M481.5,466.6
		c0-0.4-0.3-0.8-0.7-1c-0.8-0.4-1.3-0.1-1.5,0.5c0,0,0,0.1-0.1,0.1c-0.1,0-0.1,0-0.1-0.1c-0.1-0.3-0.4-0.3-0.5-0.2
		c-0.2,0.2,0,0.3,0.2,0.5c0.2,0.2,0.4,0.3,0.4,0.5c0,0.6,0.4,0.9,0.8,1.2c0.1,0.1,0.3,0.2,0.2,0.3c0,0.1-0.2,0.2-0.4,0.2
		c-0.2,0-0.3,0-0.5-0.1c-0.1-0.1-0.3-0.2-0.4-0.3c-0.1-0.1-0.2-0.2-0.3-0.1s-0.1,0.2-0.1,0.3c0,0.3,0.3,0.7,0.5,0.6
		c0.2,0,0.2,0.3,0.4,0.1c0.5-0.5,1.1-0.8,1.9-0.8c0.1,0,0.2,0,0.2-0.1c0.1,0,0.2-0.1,0.2-0.2c0-0.2-0.2-0.1-0.2-0.1
		c-0.2,0.1-0.5,0.1-0.7,0c-0.6-0.1-1.1-0.2-1.3-0.9c-0.1-0.4-0.1-0.9,0.1-1.3c0.1-0.3,0.6-0.4,0.9-0.3c0.2,0.1,0.3,0.2,0.2,0.3
		c-0.1,0.3,0,0.5,0.2,0.7c0.1,0.1,0.2,0.2,0.4,0.2C481.5,466.9,481.4,466.7,481.5,466.6z M454.7,478.2c0.4,0.1,0.8,0.1,1.2-0.1
		c0.1,0,0.3-0.1,0.2,0.1c-0.1,0.6,0.4,1.1,0.1,1.7c0,0,0,0.1,0,0.1c0,0.2,0.1,0.2,0.2,0.1c0.2-0.2,0.6-0.3,0.9-0.4
		c0.3-0.1,0.7-0.2,1-0.5c0,0,0.1-0.1,0-0.1c0-0.1-0.2-0.1-0.2,0c-0.2,0.3-0.6,0.3-0.9,0.4c-0.1,0-0.1,0.1-0.2,0
		c-0.7-0.4-1-0.9-0.5-1.7c0.2-0.4,0.4-0.7,0.5-1.2c0.1-0.7,0.2-1.4-0.3-2c-0.2-0.2-0.3-0.5-0.4-0.7c0.6-0.1,0.8-0.3,0.8-0.8
		c0-0.2-0.1-0.2-0.2-0.3c-0.1,0-0.2,0.1-0.2,0.2c-0.1,0.3-0.3,0.5-0.7,0.4c-0.1,0-0.3-0.1-0.4,0c-0.1,0.2,0.2,0.2,0.3,0.3
		c0.4,0.3,0.5,0.8,0.8,1.1c0.4,0.5,0.4,1.6-0.1,2.1c-0.2,0.2-0.3,0.4-0.4,0.6c-0.1,0.2-0.3,0.5-0.5,0.5
		C455.3,478,455,478.1,454.7,478.2z M478.7,470.6C478.6,470.6,478.6,470.6,478.7,470.6c-0.1,0.1-0.1,0.1-0.1,0.2
		c-0.1,0.9,0,1.7,0.5,2.5c0.1,0.2,0.2,0.4,0.2,0.6c0,0.5-0.3,1-0.7,1c-0.6,0.1-1.2-0.1-1.3-0.7c-0.1-0.3,0-0.6,0.3-0.7
		c0.2-0.2,0.4,0,0.5,0.2c0.1,0.2,0.3,0.2,0.5,0.1c0.1-0.1,0-0.3-0.1-0.5c-0.3-0.4-1.2-0.2-1.4,0.3c-0.3,0.9,0.2,1.5,1.2,1.6
		c0.2,0,0.5,0,0.7,0.2c0.1,0.1,0.2,0.1,0.3,0.1c0.1-0.1,0.1-0.2,0.1-0.3c0-0.2-0.1-0.4,0-0.6c0.2-0.3,0.3-0.6,0.2-0.9
		c0-0.1,0-0.2,0.1-0.2c0.2,0.1,0.3,0,0.5,0c0.5,0.1,1,0.2,1.5,0c0.1,0,0.3,0,0.2-0.1c0-0.2-0.2-0.1-0.3,0c-0.3,0.1-0.6,0.1-0.9,0.1
		c-0.3,0-0.5-0.1-0.8-0.2c-0.4-0.2-0.5-0.7-0.8-1c-0.2-0.1-0.3-0.4-0.3-0.7C478.7,471.3,478.8,470.9,478.7,470.6z M481.2,469.7
		c-0.2,0.2-0.2,0.3-0.3,0.4c-0.2,0.2-0.2,0.7,0,0.7c0.2,0,0.3,0.2,0.3,0.3c0.1,0.2,0.3,0.3,0.5,0.2c0.1-0.1,0.1-0.3,0-0.4
		c0,0,0-0.1-0.1-0.2c-0.2-0.4-0.3-0.7,0.1-1.1c0,0,0.1-0.1,0-0.2c0-0.1-0.1,0-0.2,0c-0.2,0-0.5,0.1-0.7,0c-0.7-0.1-1.3,0.7-1.2,1.4
		c0.1,0.5,0.5,0.6,0.9,0.7c0.3,0.1,0.5,0.2,0.6,0.5c-0.1,0-0.2,0-0.3,0c-0.1,0-0.3,0.1-0.3,0.3c0,0.1,0,0.3,0.2,0.4
		c0.2,0.1,0.3,0,0.4-0.1c0.3-0.5,0.3-0.7-0.1-1c-0.1-0.1-0.3-0.2-0.4-0.3c-0.4-0.2-0.6-0.6-0.4-0.9
		C480.5,470.2,480.7,469.8,481.2,469.7z M479,480.7c-0.1,0.3,0,0.5,0.1,0.8c0,0.1,0,0.2,0.1,0.2c0.1,0,0.1-0.1,0.1-0.2
		c0-0.3,0.1-0.4,0.3-0.5c0.4-0.1,0.7,0,0.9,0.3c0.1,0.1,0.2,0.1,0.4,0c0.1-0.1,0.1-0.2,0-0.3c-0.2-0.3-0.5-0.3-0.7-0.6
		c-0.1-0.1-0.4-0.1-0.5,0.1c-0.1,0.1-0.2,0-0.3,0c-0.1,0-0.1-0.1,0-0.1c0.2-0.2,0.3-0.5,0.6-0.5c0.3-0.1,0.7,0,0.9,0.3
		c0.1,0.2,0.3,0.4,0.4,0.6c0,0.1,0.2,0.2,0.3,0.1c0.1-0.1,0-0.2-0.1-0.2c-0.1-0.1-0.3-0.2-0.3-0.4c0-0.4-0.2-0.6-0.4-0.8
		c-0.1-0.1-0.4-0.3-0.7-0.2C479.5,479.6,478.8,479.8,479,480.7z M465.8,453.6c-0.4,0-0.7,0-1.1,0.2c-0.4,0.2-0.8,0.2-1.2,0.2
		c-0.6,0.1-1.1,0-1.7-0.3c-0.2-0.1-0.5-0.2-0.6,0c-0.1,0.1-0.2,0.1-0.3,0c-0.2-0.1-0.5-0.2-0.8-0.1c0.3,0.2,0.6,0.2,0.9,0.3
		c0.5,0.1,1.1,0.2,1.7,0.3c0.6,0,1.2,0.1,1.7,0c0.3-0.1,0.6-0.2,1-0.2c0.3,0,0.7,0.4,0.7,0.6c0,0.2-0.5,0.4-0.7,0.4
		c-0.1,0-0.2,0-0.2-0.1s0.1-0.1,0.2-0.1c0.1,0,0.2-0.1,0.2-0.2c0-0.1-0.1-0.2-0.3-0.2c-0.2,0-0.4,0.1-0.4,0.4c0,0.2,0,0.4,0.2,0.5
		c0.5,0.3,1.2,0,1.3-0.6c0-0.4-0.2-0.7-0.6-0.8C465.6,453.8,465.8,453.8,465.8,453.6z M473.2,479.3c-0.9,0.7-1.9,1-3,1.1
		c-0.1,0-0.2-0.1-0.2,0.1c0,0.1,0.2,0.1,0.3,0.1c0.6,0,1.1-0.2,1.7-0.1c0.1,0,0.2,0,0.3-0.1c0.3-0.3,0.8-0.6,1.2-0.9
		c0.3-0.2,0.7-0.4,0.9-0.8c0-0.1,0.2-0.1,0.1-0.2c-0.1-0.1-0.2,0-0.2,0.1c-0.2,0.2-0.5,0.3-0.8,0.2c-0.2-0.1-0.5-0.2-0.6-0.1
		c-0.2,0.2-0.4,0.1-0.5,0c-0.2-0.1-0.4,0-0.6,0.1c-0.1,0-0.2,0.2-0.1,0.3c0.2,0.1,0.2,0.3,0.5,0.3
		C472.4,479.4,472.8,479.4,473.2,479.3z M471.4,475.9c-0.1-0.1-0.2,0-0.3,0.1c-0.5,0.5-1,0.9-1.5,1.4c-0.2,0.2-0.3,0.2-0.5,0
		c-0.1-0.1-0.3-0.2-0.5-0.2c-0.3,0-0.7,0.1-0.9,0.3c-0.7,0.4-0.9,0.1-1.2-0.4c-0.2-0.3-0.4-0.6-0.8-0.8c-0.5-0.2-1,0-1.3,0.3
		c-0.1,0.1-0.1,0.2,0,0.3c0.1,0.1,0.1-0.1,0.2-0.1c0.2-0.2,0.5-0.5,0.9-0.3c0.3,0.1,0.6,0.3,0.8,0.7c0.1,0.2,0.2,0.5,0.5,0.6
		c0.5,0.2,0.9,0.1,1.4,0c0.2,0,0.5-0.1,0.6,0c0.3,0.3,0.5,0,0.8-0.1C470.3,477.2,470.7,476.4,471.4,475.9z M479.6,476.4
		c0,0.5,0,0.9,0,1.3c0,0.1,0,0.2,0.1,0.2c0.2,0.1,0.5,0,0.6-0.2c0.1-0.2,0-0.3-0.1-0.4c-0.2-0.2-0.5-0.5-0.3-0.9
		c0.3-0.7,0.8-1.2,1.6-1.5c0.1,0,0.2,0,0.3-0.2c-0.4-0.2-0.9-0.3-1.2-0.7c-0.1-0.1-0.3-0.2-0.4-0.1c-0.1,0.1,0,0.3,0.1,0.4
		c0.1,0.1,0.2,0.1,0.2,0.2c0.2,0.1,0.4,0.1,0.6,0.2c-0.2,0.2-0.4,0.2-0.6,0.4c-0.3,0.4-0.6,0.6-1.1,0.8c-0.2,0.1-0.3,0.2-0.3,0.5
		c0,0.1,0,0.1,0.1,0.1C479.3,476.8,479.4,476.7,479.6,476.4z M454.3,471.3c0,0.1-0.1,0.2,0.1,0.3c0.2,0.1,0.3,0,0.4-0.1
		c0.2-0.2,0.4-0.4,0.3-0.7c-0.1-0.2,0-0.4,0.3-0.4c0.6,0,0.8,0.2,0.9,0.7c0.1,0.4,0.2,0.8-0.1,1.2c-0.1,0.1-0.3,0.2-0.2,0.3
		c0.2,0.1,0.2-0.1,0.4-0.2c0.1,0,0.1-0.1,0.1-0.2c0-0.5,0.2-0.9,0.6-1.3c0.1-0.1,0.2-0.3,0-0.4c-0.1-0.1-0.3,0-0.3,0.1
		c-0.2,0.3-0.2,0.1-0.3-0.1c-0.1-0.3-0.4-0.5-0.7-0.6C455.1,469.8,454.3,470.6,454.3,471.3z M474.6,453.6c-0.2,0.2-0.1,0.3-0.1,0.5
		c0,0.4-0.1,0.9-0.4,1.1c-0.5,0.2-0.4,0.7-0.8,1c0.4,0,0.7-0.1,0.9-0.4c0.3-0.4,0.7-0.5,1.1-0.5c0.5,0,0.9,0.5,0.8,1
		c0,0.1,0,0.3,0.1,0.3c0.1,0,0.3,0,0.3-0.2c0-0.1,0-0.3-0.1-0.4c-0.1-0.1-0.2-0.3,0.1-0.4c0.2,0,0.3-0.2,0.3-0.3
		c0-0.2-0.2-0.2-0.3-0.2c-0.2,0-0.3,0.2-0.5,0.1c-0.3-0.1-0.6-0.1-0.9-0.1c-0.2,0-0.4,0-0.3-0.3C474.7,454.4,474.7,454,474.6,453.6z
		 M460.4,475.7c0-0.2-0.1-0.4-0.1-0.5c0-0.2,0.3-0.2,0.4-0.4c0-0.1,0.1-0.1,0.1-0.2c0.1-0.2,0-0.3-0.1-0.4c-0.1-0.1-0.2-0.1-0.4,0
		c-0.1,0.1-0.1,0.3-0.1,0.4c0,0.1,0.2,0.1,0,0.3c-0.1,0.1-0.3,0.1-0.5,0c-0.2-0.1-0.6-0.2-0.7-0.5c0-0.1-0.1-0.1-0.2-0.1
		c-0.1,0.1,0,0.1,0,0.2c0.1,0.3,0.4,0.4,0.6,0.5c0.2,0.1,0.4,0.3,0.6,0.5c0.1,0.1,0.1,0.3,0,0.4s-0.2,0.2-0.4,0.2
		c-0.1,0-0.2,0-0.1-0.2c0.1-0.3-0.1-0.3-0.3-0.2c-0.2,0.1-0.3,0.5-0.2,0.8c0.1,0.2,0.4,0.4,0.7,0.3
		C460.2,476.5,460.4,476.2,460.4,475.7z M480.7,464c0,0.1,0,0.2,0,0.2c0,0.1,0.1,0.2,0.2,0.2c0.1,0,0.2-0.1,0.3-0.2
		c0.1-0.2,0-0.3-0.1-0.4c-0.2-0.1-0.4-0.2-0.6-0.1c-0.4,0.3-0.2,1.1,0.2,1.4c0.1,0.1,0.2,0.2,0.5,0.2c0.4-0.1,0.7-0.5,0.7-0.9
		c0-0.9-0.1-1.9,0-2.8c0-0.1,0-0.2,0-0.2c-0.2,0.7-0.4,1.4-0.3,2.1c0.1,0.3,0.1,0.6,0.1,0.9c0,0.2-0.5,0.7-0.6,0.7
		c-0.3,0-0.4-0.2-0.5-0.4C480.5,464.4,480.4,464.2,480.7,464z M457,464.2c0,0.2-0.4,0.8-0.6,0.9c-0.2,0.1-0.3,0-0.5-0.1
		c-0.2-0.3-0.2-0.6-0.2-0.9c0-0.1,0-0.2,0.1-0.2c0.1,0,0.1,0.1,0.1,0.2c-0.1,0.2,0,0.2,0.1,0.3c0.1,0,0.2,0,0.3-0.1
		c0.2-0.2,0.2-0.4,0-0.6c-0.2-0.2-0.5-0.2-0.6,0c-0.2,0.2-0.4,0.5-0.3,0.9c0.1,0.5,0.4,0.8,0.8,0.9c0.3,0.1,0.5-0.2,0.7-0.4
		c0.5-0.5,0.4-1.6,0-2.1c-0.1-0.1-0.1-0.2-0.2-0.1c-0.1,0.1,0,0.1,0,0.2C456.8,463.5,457,463.8,457,464.2z M458.8,459.4
		c-0.1,0.3,0.2,0.4,0.3,0.6c0.2,0.2,0.7,0.1,0.9-0.2c0.2-0.3-0.1-0.3-0.2-0.4c-0.2-0.2-0.2-0.5-0.1-0.7c0.1-0.2,0.3,0,0.4,0
		c0.2,0,0.3,0,0.5,0.1c0.1,0.1,0.2,0.1,0.2,0c0-0.1,0-0.2-0.1-0.2c-0.2-0.1-0.4-0.1-0.6-0.2C459.5,458.1,458.7,458.8,458.8,459.4z
		 M461.9,475.9c0.1-0.2,0-0.4,0-0.5c0-0.2-0.3-0.3-0.4-0.3c-0.2,0-0.3,0.1-0.4,0.3c0,0.1,0,0.3,0.1,0.4c0.1,0.1,0.3,0.2,0.3,0.4
		c0,0.3-0.6,1-0.9,1.1c-0.4,0.1-0.9,0.2-1.3,0.1c-0.1,0-0.2-0.1-0.2,0.1c0,0.1,0.1,0.1,0.2,0.1c0.5,0.2,1,0,1.5-0.2
		C461.4,477,462,476.6,461.9,475.9z M479.1,454.3c-0.2,0.1-0.4,0.1-0.5-0.1c-0.1-0.2-0.2-0.1-0.3,0c-0.2,0.4-0.6,0.4-0.9,0.3
		c-0.4-0.1-0.8-0.3-1.1-0.7c-0.1-0.1-0.1-0.1-0.2-0.1c-0.1,0.1,0,0.1,0,0.2c0.4,0.4,0.9,0.8,1.2,1.2c0.1,0.1,0.2,0.4,0.5,0.2
		c0.3-0.2,0-0.4,0-0.5c0,0,0,0,0,0C478.2,454.6,478.8,454.8,479.1,454.3z M479.8,458.1c-0.1,0.2-0.4,0-0.4,0.3
		c0,0.3,0.3,0.2,0.5,0.2c0.1,0,0.3-0.1,0.4,0.1c0,0.1,0.1,0.2,0.3,0.1c0.1-0.1,0-0.2,0-0.3c-0.3-0.5-0.8-0.8-1.3-1.1
		c-0.1-0.1-0.2,0-0.3,0c-0.2,0-0.4,0-0.4,0.2c0,0.2,0.1,0.2,0.3,0.3C479.1,457.9,479.5,457.9,479.8,458.1z M476.1,470.7
		c0,0.1,0,0.1,0,0.2c0,0.2,0.2,0.4,0.4,0.4c0.3,0,0.4-0.2,0.4-0.4c0.1-0.2,0.1-0.4-0.2-0.4c0,0-0.2,0-0.1-0.1c0-0.1,0.1-0.2,0.3-0.2
		c0.3,0,0.6,0,0.8,0.3c0,0.1,0.1,0.2,0.2,0.1c0.1-0.1,0-0.2,0-0.3c-0.1-0.3-0.4-0.3-0.7-0.3C476.6,469.7,476.1,470.1,476.1,470.7z
		 M481.8,476c0-0.2,0-0.3,0-0.4c0-0.1,0.1-0.3-0.1-0.3c-0.2,0-0.3,0-0.5,0.1c-0.4,0.3-0.4,0.8-0.4,1.2c0,0.4,0.5,0.7,0.9,0.5
		c0,0,0.1,0,0.1-0.1c0-0.1,0-0.1-0.1-0.1c-0.1,0-0.1,0-0.2,0c-0.3,0-0.4-0.2-0.5-0.4c0-0.1,0.2-0.8,0.3-0.8
		C481.5,475.7,481.6,475.9,481.8,476C481.7,476,481.7,476,481.8,476z M471.8,472.9c0.3-0.2,0.3-0.5,0.2-0.8
		c-0.1-0.5-0.7-0.9-1.3-0.6c-0.2,0.1-0.3,0.5-0.2,0.6c0.1,0.1,0.2,0.2,0.4,0.1c0.1,0,0.2-0.1,0.1-0.3c-0.1-0.4,0.1-0.3,0.3-0.3
		c0.4,0.1,0.6,0.5,0.5,0.9C471.8,472.7,471.7,472.7,471.8,472.9z M465.3,477.4c-0.3,0.2-0.5,0.2-0.8-0.1c0-0.1-0.1-0.1-0.1-0.1
		c-0.1,0,0,0.1,0,0.2c0.2,0.2,0.4,0.4,0.7,0.4c0.4,0,0.7-0.5,0.5-0.8c-0.1-0.2-0.3-0.2-0.5-0.2c-0.2,0.1-0.3,0.2-0.3,0.4
		C464.8,477.4,465,477.4,465.3,477.4C465.2,477.4,465.2,477.4,465.3,477.4z M457.8,477.6c-0.2-0.1-0.3,0.1-0.5,0.2
		c-0.2,0.1-0.4,0.3-0.2,0.5c0.2,0.2,0.3,0,0.5-0.2c0,0,0,0,0,0c0.2-0.2,0.6-0.2,0.7,0.1c0,0.1,0,0.2,0,0.3c0,0.1,0,0.2,0.1,0.2
		c0.1,0,0.1-0.1,0.1-0.2C458.8,478.1,458.4,477.6,457.8,477.6z M473.5,480.3c0.4-0.3,0.7-0.2,0.9,0.2c0,0.1,0,0.2,0.2,0.2
		c0.1,0,0.1-0.1,0.1-0.3c-0.1-0.3-0.6-0.6-0.9-0.6c-0.3,0-0.5,0.2-0.6,0.4c0,0.2,0,0.4,0.3,0.5c0.1,0.1,0.3,0.1,0.4,0
		c0.1,0,0.1-0.1,0.1-0.2C473.9,480.4,473.8,480.3,473.5,480.3C473.6,480.3,473.6,480.3,473.5,480.3z M467.6,463.5
		c0.1,0.2,0.2,0.1,0.3,0.1c0.1,0,0.3,0,0.3,0.1c0,0.1-0.1,0.3-0.3,0.3s-0.3,0.1-0.4,0.3c-0.1,0.1,0,0.2,0,0.3c0.1,0.2,0.2,0,0.3,0
		c0.3-0.1,0.5-0.4,0.6-0.7s0-0.4-0.3-0.5C467.9,463.3,467.7,463.4,467.6,463.5z M478.1,464.5c0-0.1,0-0.1,0-0.2
		c0-0.2-0.2-0.2-0.3-0.3c0,0-0.1,0-0.2,0c-0.1,0.2,0.1,0.2,0.2,0.3c0.1,0,0,0.1,0,0.2c0,0.1-0.1,0-0.1,0c-0.2-0.1-0.3,0-0.4,0.1
		c-0.1,0.1-0.1,0.2,0,0.3c0.1,0.1,0.2,0.1,0.3,0.1C477.9,465,478.1,464.8,478.1,464.5z M475.7,453.6c-0.3,0.1-0.4,0.3-0.6,0.5
		c-0.1,0.1-0.3,0.2-0.1,0.4c0.2,0.1,0.4,0.1,0.5-0.1C475.6,454.2,475.8,454,475.7,453.6z M481.5,468c0.2,0,0.3,0,0.3-0.2
		c0-0.2-0.2-0.3-0.3-0.3c-0.1,0-0.4,0-0.4,0.2C481.1,467.9,481.4,467.9,481.5,468z M473.5,453.6c-0.1,0.1-0.3-0.1-0.3,0.1
		c0,0.2,0.1,0.3,0.3,0.3c0.2,0,0.3-0.1,0.3-0.3C473.8,453.5,473.6,453.7,473.5,453.6z M478.8,470c0,0.1-0.1,0.2,0.1,0.2
		c0.2-0.1,0.2-0.3,0.3-0.5c0,0,0-0.1-0.1-0.1C478.9,469.6,478.9,469.8,478.8,470z M477.4,464.1C477.5,464.1,477.5,464.2,477.4,464.1
		C477.5,464.2,477.5,464.1,477.4,464.1C477.6,464.1,477.5,464.1,477.4,464.1C477.5,464.1,477.5,464.1,477.4,464.1z"/>
	<path class="st4" d="M457.2,481.9c-0.2-0.4,0.1-0.7,0.3-1.1c0.2-0.5,0.7-0.8,1.2-1c0.3-0.1,0.6-0.1,0.9-0.3
		c0.2-0.1,0.3-0.2,0.4-0.4c0-0.2-0.2-0.2-0.3-0.3c-0.1-0.1-0.2-0.2-0.2-0.4c0.1-0.2,0.3-0.2,0.4-0.2c0.3,0.1,0.5,0.3,0.4,0.6
		c0,0.1-0.1,0.3,0.1,0.3c0.1,0,0.2-0.1,0.2-0.2c0.1-0.2,0.3-0.5,0.2-0.8c0,0,0,0,0,0c0-0.2,0-0.5,0.2-0.5c0.3,0,0.3,0.3,0.3,0.5
		c0,0,0,0.1,0,0.1c0,0,0,0,0,0c0,0,0.1,0,0.1,0c0.3,0,0.3,0.2,0.2,0.5c-0.1,0.2-0.3,0.3-0.4,0.5c0,0.1,0.1,0,0.1,0
		c0.9-0.3,1.7-0.6,2.1-1.5c0.2-0.4,0.3-0.9,0.2-1.3c0-0.1-0.1-0.2-0.2-0.2c-0.2-0.1-0.4,0-0.5,0.2c-0.1,0.1-0.1,0.2,0,0.3
		c0.1,0.2,0.2,0.3,0,0.5c-0.2,0.1-0.3,0.1-0.5,0c-0.2-0.1-0.2-0.3-0.1-0.5c0.1-0.5,0.7-0.9,1.2-0.8c0.2,0,0.3,0,0.2-0.2
		c-0.1-0.4-0.2-0.8-0.5-1.2c-0.1-0.2-0.3-0.2-0.5-0.2c-0.5,0.1-0.5,0.1-0.5-0.4c-0.2,0-0.3,0.2-0.4,0.3c0,0.1-0.1,0.2-0.3,0.2
		c-0.1,0-0.1-0.1-0.1-0.1c0-0.1,0-0.3,0.1-0.4c0.2-0.1,0.3-0.2,0.5-0.2c0.1,0,0.2,0,0.2,0c0-0.1-0.1-0.2-0.1-0.2
		c-0.9-0.4-1.8-0.6-2.8-0.1c-0.3,0.1-0.5,0.3-0.4,0.7c0,0.1,0,0.1,0,0.2c-0.1,0-0.1,0-0.1,0c-0.1-0.1,0-0.3-0.1-0.3
		c-0.2,0-0.2,0.2-0.3,0.3c-0.7,0.8-0.6,1.7-0.1,2.5c0.2,0.3,0.5,0.4,0.8,0.7c-0.3,0.1-0.5,0-0.6-0.2c-0.4-0.5-0.6-1-0.7-1.6
		c0-0.2,0.1-0.4,0.1-0.7c0-0.1,0-0.2-0.1-0.3c-0.3-0.1-0.2-0.4-0.1-0.6c0.1-0.2,0.3-0.2,0.4,0c0.1,0.1,0.2,0.1,0.3,0
		c0.2-0.2,0.5-0.4,0.6-0.8c0.1-0.2,0.2-0.5,0.3-0.7c0.2-0.4,0.5-0.5,0.8-0.6c0.1,0,0.1,0,0.1-0.1c-0.3-0.1-0.5-0.2-0.8-0.2
		c-0.4,0-0.5,0.1-0.6,0.5c0,0.2-0.1,0.5-0.3,0.4c-0.2,0-0.3-0.3-0.2-0.5c0-0.1,0.1-0.1,0-0.3c-0.2,0.1-0.4,0.4-0.5,0.6
		c-0.1,0.2-0.2,0.3-0.3,0.2c-0.2-0.1-0.1-0.2-0.1-0.4c0.1-0.3,0.4-0.5,0.7-0.7c0,0,0.1,0,0.1,0c0.1-0.1,0.3-0.1,0.3-0.3
		c0-0.2-0.2-0.2-0.3-0.2c-0.6-0.4-1.2-0.8-1.7-1.3c-0.3-0.3-0.5-0.7-0.8-1c-0.2-0.3-0.5-0.7-0.8-1c-0.2-0.2-0.2-0.4-0.2-0.6
		c0.1-0.5-0.1-0.9-0.1-1.3c0-0.1,0-0.2,0-0.3c0-0.4-0.1-0.7-0.4-0.9c0,0-0.1-0.1-0.1-0.1c-0.1-0.2-0.2-0.4,0-0.5
		c0.2-0.2,0.4-0.1,0.6,0.1c0.2,0.3,0.3,0.1,0.3-0.1c0.2-0.7,0.6-0.9,1.3-0.8c0.1,0,0.2,0,0.2,0.2c0,0.1-0.1,0.1-0.2,0.1
		c-0.3,0-0.6,0-0.8,0.3c-0.3,0.4-0.5,0.7-0.6,1.2c-0.1,0.7,0,1.5,0.2,2.2c0.1,0.6,0.4,1.1,0.7,1.6c0,0,0.1,0.1,0.1,0.1
		c0.1,0,0.1-0.1,0-0.2c-0.1-0.3-0.1-0.7,0-1c0.1-0.2,0.2-0.4,0.4-0.3c0.2,0.1,0.3,0.3,0.3,0.5c0,0.1-0.1,0.2-0.1,0.4
		c-0.1,0.1-0.2,0.2,0.1,0.3c0.2,0.1,0.1,0.3,0,0.5c-0.2,0.4-0.2,0.7,0.2,1c0.6,0.5,1.3,1,1.9,1.5c0.1,0,0.1,0.1,0.2,0
		c0,0,0-0.1,0-0.1c-0.5-0.5-0.8-1.3-1-2c-0.2-0.6-0.1-1.2,0-1.8c0.1-0.3,0.1-0.6,0-0.9c-0.1-0.2-0.1-0.5,0-0.7
		c0-0.2,0.2-0.3,0.3-0.1c0.2,0.2,0.2,0,0.2-0.1c0-0.4-0.1-0.8-0.3-1.1c-0.3-0.6-0.3-1.1-0.2-1.7c0.1-0.3,0.5-0.7,0.8-0.6
		c0.4,0,0.6,0.4,0.6,0.8c0,0.5-0.1,0.6-0.5,0.6c-0.3,0-0.3-0.2-0.3-0.4c0-0.2,0.1-0.2,0.3-0.3c0.1,0,0.2,0.1,0.2-0.1
		c0-0.1-0.1-0.2-0.2-0.2c-0.3-0.1-0.7,0.1-0.8,0.5c-0.1,0.5-0.1,1,0.2,1.5c0,0,0.1,0.1,0.1,0.2c0.2,0.8,0.2,1.6-0.1,2.4
		c-0.2,0.5-0.4,1.1-0.2,1.6c0.2,0.5,0.2,1.1,0.6,1.6c0.1-0.1,0-0.2,0-0.3c-0.1-0.8,0.4-1.3,1.1-1.2c0.3,0,0.6,0.4,0.6,0.7
		c0,0.2,0,0.4-0.1,0.7c-0.1,0.2-0.2,0.2-0.3,0.2c-0.2,0-0.5-0.1-0.6-0.3c-0.1-0.1-0.1-0.3,0-0.5c0.1-0.1,0.2-0.1,0.3-0.1
		c0.2,0,0.1,0.2,0.2,0.3c0,0.1,0,0.2,0.1,0.2c0.1,0,0.2-0.2,0.2-0.3c0.1-0.5-0.1-0.8-0.7-0.9c-0.3,0-0.7,0.3-0.7,0.6
		c0,0.5,0,0.9,0.3,1.3c0.3,0.5,0.7,0.9,1.3,1.2c0.1,0,0.1,0.1,0.2,0c0.1-0.1,0-0.1,0-0.2c-0.3-0.4-0.3-0.8-0.2-1.3
		c0.1-0.2,0.3-0.2,0.4-0.3c0.1,0,0.2,0.1,0.2,0.2c0.1,0.1,0,0.2-0.2,0.3c-0.1,0.1-0.2,0.2-0.2,0.3c-0.1,0.2,0,0.3,0.2,0.2
		c0.3-0.1,0.3,0.1,0.3,0.3c0,0.1,0,0.2-0.1,0.3c-0.1,0.2,0,0.5,0.2,0.6c0.5,0.2,0.9,0.6,1.3,0.9c0.1,0,0.1,0.1,0.2,0.2
		c0,0,0.1,0.1,0.1,0.2c-0.1,0.1-0.1,0-0.2,0c-0.4-0.3-0.8-0.7-1.2-1c-0.9-0.6-1.8-0.2-2.2,0.8c0,0,0,0.1,0,0.1c0,0,0.1,0,0.2,0
		c1.1-0.5,2.1-0.2,3.2,0.2c0.2,0.1,0.3,0.3,0.5,0.3c0.1-0.1-0.1-0.2,0-0.3c0.1,0,0.1,0.1,0.2,0.1c0.4,0.4,0.7,0.9,1.1,1.4
		c0.1,0.1,0.1,0.2,0,0.3c-0.2-0.3-0.4-0.6-0.6-0.9c0-0.1-0.1-0.1-0.1-0.2c-0.1-0.1-0.1-0.1-0.2,0c0,0.1,0,0.1,0,0.1
		c0.3,0.3,0.4,0.6,0.6,1c0.2,0.6,0.1,1.2,0,1.8c-0.1,0.7-0.6,1.3-1.2,1.7c-0.3,0.2-0.7,0.4-0.8,0.8c-0.1,0.1-0.1,0.3,0.1,0.2
		c0.2-0.1,0.3-0.1,0.4,0.1c0.1,0.2,0,0.4-0.1,0.5c-0.1,0.1-0.3,0.1-0.5,0c-0.2-0.2-0.3-0.5-0.1-0.8c0-0.1,0-0.2,0-0.2
		c-0.1-0.1-0.2-0.1-0.3,0c-0.5,0.2-1.1,0.2-1.6,0.4c-0.8,0.3-1.4,0.6-1.9,1.4c-0.1,0.2-0.1,0.5-0.2,0.8
		C457.4,481.9,457.3,481.9,457.2,481.9z M455.9,468.3L455.9,468.3L455.9,468.3L455.9,468.3z"/>
	<path class="st4" d="M462.7,481.9c-0.2-0.2-0.4-0.5-0.8-0.2c-0.2,0.1-0.3,0-0.4-0.1c-0.1-0.2,0.1-0.3,0.3-0.3
		c0.2-0.1,0.3,0,0.5,0.1c0.2,0.1,0.3,0.1,0.3-0.1c-0.1-0.9,0.4-1.5,1-2c0.2-0.2,0.3-0.4,0.2-0.7c-0.1-0.1,0-0.3,0.1-0.4
		c0.1-0.1,0.2-0.1,0.2,0c0.1,0.1,0.2,0.2,0.1,0.4c-0.1,0.4,0.1,0.4,0.4,0.4c0.5-0.1,0.9-0.1,1.3,0.2c0.5,0.4,0.7,0.9,0.7,1.4
		c0,0.2,0,0.3,0.2,0.4c0.2,0.1,0.3,0.2,0.4,0.3c0.1,0.1,0.2,0.2,0,0.4c-0.1,0.1-0.2,0.2-0.4,0.1c-0.1-0.1-0.3-0.1-0.4-0.3
		c-0.1-0.1-0.2,0-0.2,0c-0.4,0.5-0.8,0.3-1.3,0.2c-0.1,0-0.3-0.1-0.4-0.1c-0.3,0-0.4,0.2-0.4,0.5c-0.1,0-0.1,0-0.2,0
		c-0.1-0.4,0.3-0.6,0.7-0.8c0.2-0.1,0.5-0.1,0.7-0.2c0.4-0.3,0.4-0.7,0.2-1.3c-0.2-0.4-0.5-0.7-0.9-0.7c-0.5,0-1,0.2-1.3,0.7
		c-0.1,0.1-0.1,0.2,0.1,0.2c0.3,0,0.6,0.2,0.5,0.5c-0.1,0.3-0.4,0.2-0.7,0.2c0,0,0,0-0.1,0c-0.3,0-0.5,0.2-0.5,0.4
		c0,0.3,0.1,0.7,0,1C462.8,481.9,462.8,481.9,462.7,481.9z"/>
	<path class="st4" d="M453.6,455c0.3-0.1,0.6-0.3,0.7-0.7c0,0,0.1,0,0.1,0c0,0.4,0,0.8,0,1.2c0,0.4,0.2,0.6,0.6,0.5
		c0.1,0,0.1,0,0.2,0c0.1,0,0.3-0.1,0.3,0c0.1,0.1,0,0.2-0.1,0.4c0,0-0.1,0.1-0.1,0.1c0,0.1-0.3,0.1-0.3,0.3c0.1,0.1,0.2,0.2,0.4,0.3
		c0.4,0.3,1.1,0.4,1.6-0.1c0.2-0.2,0.5-0.8,0.4-1.1c-0.2-0.3-0.5-0.7-1-0.7c-0.5,0-1.1-0.5-1-1c0-0.2,0.2-0.2,0.2-0.4
		c-0.2,0-0.4,0-0.6,0c0.1-0.1,0.2-0.1,0.3-0.1c0.2,0,0.4,0,0.6,0c0.2,0,0.3,0,0.4,0.2c0,0.2-0.1,0.2-0.2,0.3
		c-0.1,0.1-0.4-0.1-0.3,0.2c0,0.3,0.2,0.3,0.4,0.3c0.4,0,0.7-0.2,1.1-0.2c0.1,0,0.3,0,0.4,0.1c0.1,0,0.5,0,0.6,0
		c0.1-0.1,0.2-0.1,0.3-0.1c0.1,0,0.2,0.1,0.3,0.2c0.1,0.1,0,0.2-0.1,0.3c-0.1,0.1-0.1,0.1-0.2,0.2c-0.2,0.2-0.4,0.4-0.4,0.8
		c0.1,0.8-0.5,1.6-1.3,1.7c-0.9,0.1-1.7-0.2-2.4-0.9c-0.4-0.4-0.6-0.9-0.5-1.6c-0.2,0.2-0.4,0.3-0.6,0.4
		C453.6,455.3,453.6,455.1,453.6,455z"/>
	<path class="st4" d="M453.6,457.6c0.1,0,0.2-0.2,0.1-0.3c-0.1-0.1-0.1-0.2,0-0.3c0.1-0.1,0.2-0.1,0.3,0c0.1,0.1,0.2,0.2,0.1,0.4
		c-0.1,0.2-0.1,0.4-0.3,0.5c0.1,0.1,0.2,0.1,0.3,0c0.5-0.2,0.8,0.1,1.2,0.3c0.4,0.2,0.7,0.5,1,0.9c0.2,0.4,0.3,0.8,0.4,1.3
		c0.1,0.6-0.3,1.2-0.9,1.3c-0.3,0.1-0.7,0.2-1,0.3c-0.1,0-0.2,0.3-0.4,0.4c-0.1,0.2-0.3,0.4-0.5,0.2c-0.2-0.2-0.1-0.5,0-0.7
		c0.2-0.2,0.1-0.3,0-0.4c-0.2-0.3-0.2-0.7-0.2-1c0-0.2,0.1-0.4,0.1-0.5c0-0.1,0-0.2,0.1-0.2c0.1,0,0.1,0.1,0.2,0.1
		c0.1,0.1,0.1,0.2,0.1,0.3c0.1,0.6,0.5,1,1.3,0.8c1-0.3,1.1-1.4,0.4-2.1c0,0-0.1-0.1-0.1-0.1c-0.1-0.2-0.2-0.1-0.2,0.1
		c0,0.2-0.2,0.3-0.3,0.4c-0.1,0.1-0.2,0-0.3-0.1c-0.1-0.1-0.2-0.1-0.1-0.3c0.1-0.2,0.2-0.4,0-0.6c-0.2-0.2-0.4-0.1-0.6,0
		c-0.2,0.1-0.4,0-0.5,0C453.6,458,453.6,457.8,453.6,457.6z"/>
	<path class="st3" d="M462.9,481.9c0-0.3,0-0.7,0-1c0-0.3,0.2-0.5,0.5-0.4c0,0,0,0,0.1,0c0.2,0,0.6,0.1,0.7-0.2
		c0.1-0.3-0.2-0.4-0.5-0.5c-0.2,0-0.2-0.1-0.1-0.2c0.3-0.4,0.8-0.7,1.3-0.7c0.4,0,0.7,0.3,0.9,0.7c0.2,0.5,0.2,0.9-0.2,1.3
		c-0.2,0.1-0.5,0.1-0.7,0.2c-0.4,0.2-0.8,0.3-0.7,0.8C463.7,481.9,463.3,481.9,462.9,481.9z"/>
	<path class="st4" d="M453.6,474.1c0.6,0,1.2-0.1,1.8,0.2c0.4,0.2,0.6,0.6,0.6,1c0,0.4-0.1,0.6-0.5,0.8c-0.3,0.1-0.6,0.1-0.9,0.4
		c0,0-0.1,0.1-0.1,0.2c0,0.1,0.1,0.1,0.2,0.1c0.2,0,0.3,0.1,0.3,0.3c0,0.2,0,0.4-0.2,0.4c-0.2,0-0.4-0.1-0.5-0.3
		c-0.2-0.4-0.1-0.8,0.4-1c0.3-0.2,0.7-0.3,0.7-0.7c0-0.5-0.3-0.9-0.8-1.1c0.1,0.3,0.4,0.5,0.3,0.9c0,0,0,0.2,0,0.2
		c-0.3,0.1-0.5,0.5-0.7,0.7c-0.1,0-0.2,0-0.2-0.1c-0.1-0.1-0.1-0.2,0-0.3c0.1-0.1,0.2-0.2,0.2-0.4c0.2-0.5,0.1-0.8-0.5-1
		c0,0,0,0-0.1-0.1C453.6,474.2,453.6,474.2,453.6,474.1z"/>
	<path class="st4" d="M453.6,465.6c0.1,0,0.2-0.1,0.3,0.1c0.2,0.5,0.2,1,0.3,1.4c0.1,0.4,0,0.9,0,1.3c0,0.2-0.1,0.4,0,0.6
		c0,0.3,0.2,0.6,0.5,0.6c0.3,0,0.4-0.3,0.5-0.5c0,0,0.1-0.2,0-0.3c0-0.1-0.1-0.2-0.2-0.2c-0.1,0-0.1,0.1-0.1,0.2
		c-0.1,0.1-0.1,0.3-0.3,0.2c-0.2-0.1-0.2-0.2-0.1-0.4c0.1-0.2,0.3-0.4,0.5-0.3c0.3,0,0.4,0.3,0.4,0.5c0.1,0.5-0.2,0.8-0.7,1
		c-0.3,0.1-0.5,0-0.7-0.2c-0.2-0.2-0.2-0.1-0.3,0.1c0,0.1-0.1,0.3-0.3,0.3c0-0.2,0-0.3,0-0.5c0.1,0,0.1-0.1,0-0.1c0,0,0-0.1,0-0.1
		c0.3,0,0.1-0.2,0.1-0.4c0.3-0.6,0.2-1.3,0.2-1.9c0-0.3-0.1-0.7-0.3-0.9C453.6,465.8,453.6,465.7,453.6,465.6z"/>
	<path class="st4" d="M470.2,481.9c-0.2-0.2-0.5,0-0.8-0.1c0.2-0.1,0.4-0.2,0.5-0.2c0.4,0,0.7-0.3,1.1-0.3c0.3,0,0.6-0.1,0.9-0.2
		c0.5-0.1,1,0,1.5,0c0.3,0,0.6,0.1,0.9-0.1c0.1,0,0.2-0.1,0.2,0c0.1,0.1-0.1,0.1-0.1,0.2c0,0-0.1,0-0.1,0.1c0.3,0.1,0.5,0.2,0.8,0.3
		c0.1,0,0.2,0,0.2,0.2c-0.3,0-0.5,0-0.8,0c0-0.1,0-0.2-0.2-0.2c-0.2,0-0.4-0.1-0.5-0.1c-1.2-0.3-2.3-0.4-3.4,0.3
		C470.3,481.9,470.2,481.9,470.2,481.9z"/>
	<path class="st3" d="M470.4,481.9c1.1-0.7,2.2-0.6,3.4-0.3c0.2,0,0.4,0.1,0.5,0.1c0.1,0,0.2,0.1,0.2,0.2
		C473.1,481.9,471.7,481.9,470.4,481.9z"/>
	<path class="st4" d="M458.4,481.9c0-1,0.9-1.5,1.8-1.4c0.7,0.1,0.8,0.4,0.9,0.8c0.1,0.4,0,0.5-0.4,0.5c-0.2,0-0.4,0-0.7,0
		c-0.2,0-0.3-0.1-0.3-0.2c0-0.1,0.1-0.3,0.3-0.3c0.2,0,0.4-0.1,0.6,0.1c0,0,0.1,0.1,0.2,0c0.1-0.1,0-0.2,0-0.2
		c-0.2-0.3-0.8-0.5-1.3-0.3c-0.4,0.1-0.7,0.5-0.7,0.9c0,0.1-0.1,0.1-0.1,0.2C458.5,481.9,458.4,481.9,458.4,481.9z"/>
	<path class="st4" d="M453.6,472.1c0.2,0,0.4,0.1,0.6,0c0.2-0.1,0.4,0,0.4,0.2c0,0.2-0.1,0.3-0.3,0.3c-0.1,0-0.2,0-0.3,0
		c0,0-0.1,0-0.1,0c0,0,0,0,0,0.1c0.2,0.3,0.5,0.3,0.8,0.3c0.3,0,0.7-0.1,0.9-0.3c0.1,0,0.2-0.1,0.3,0s0,0.2-0.1,0.2
		c-0.1,0-0.2,0.1-0.3,0.1c0,0.1,0.2,0.1,0.1,0.3c-0.5-0.2-1-0.1-1.4-0.2c-0.2,0-0.3-0.3-0.5-0.2
		C453.6,472.7,453.6,472.4,453.6,472.1z"/>
	<path class="st4" d="M453.6,479.8c0.5-0.1,0.9,0,1.1,0.6c0.1,0.2,0.2,0.4,0.2,0.6c0,0.4-0.1,0.7-0.5,0.8c-0.1,0-0.1,0.1-0.1,0.1
		c-0.1,0-0.1,0-0.2,0c-0.5,0-0.5,0-0.5-0.5c0.2,0,0.3,0,0.4,0.1c0.2,0.1,0.4,0,0.5-0.2c0.1-0.1,0.1-0.8,0-0.9c-0.1,0-0.2-0.3-0.3,0
		c-0.1,0.3-0.4,0.2-0.6,0.2C453.6,480.3,453.6,480.1,453.6,479.8z M453.8,481.6C453.8,481.6,453.8,481.5,453.8,481.6
		c-0.1-0.1-0.1-0.1-0.1-0.1C453.7,481.6,453.8,481.6,453.8,481.6C453.8,481.7,453.8,481.6,453.8,481.6z"/>
	<path class="st4" d="M455.7,481.9C455.7,481.8,455.7,481.8,455.7,481.9c0.5-0.5,0.2-0.9,0-1.2c-0.2-0.3-0.4-0.6-0.7-0.8
		c0,0-0.1-0.1-0.1-0.1c0-0.1,0.1,0,0.1,0c0.1,0,0.2,0.1,0.3,0.2c0.3,0.4,0.7,0.6,1.1,0.9c0.2,0.1,0.4,0.2,0.3,0.5
		c0,0.2-0.2,0.2-0.6,0c0,0.2,0,0.4,0,0.6c0,0-0.1,0-0.1,0c-0.1-0.1-0.1,0-0.2,0C455.8,481.9,455.7,481.9,455.7,481.9z"/>
	<path class="st3" d="M453.6,480.6c0.2,0,0.5,0.1,0.6-0.2c0.1-0.2,0.2,0,0.3,0c0.1,0.1,0.1,0.7,0,0.9c-0.1,0.2-0.3,0.3-0.5,0.2
		c-0.1-0.1-0.3-0.1-0.4-0.1C453.6,481.1,453.6,480.9,453.6,480.6z"/>
	<path class="st3" d="M453.6,466c0.2,0.3,0.3,0.6,0.3,0.9c0,0.6,0.1,1.3-0.2,1.9c0,0.1,0.2,0.4-0.1,0.4
		C453.6,468.1,453.6,467.1,453.6,466z"/>
	<path class="st4" d="M453.6,479.2c0.4,0.2,0.8-0.1,1.2-0.1c0.1,0,0.2-0.2,0.3-0.3c0.1-0.1,0.2-0.2,0.4-0.2c0.1,0,0.1,0.1,0.1,0.2
		c0,0.2-0.1,0.4-0.2,0.5c-0.3,0.1-0.6,0.2-0.8,0.4c-0.1,0.1-0.4,0-0.6-0.1c-0.2-0.1-0.3-0.1-0.5-0.1
		C453.6,479.3,453.6,479.3,453.6,479.2z"/>
	<path class="st4" d="M477,481.9c0-0.3,0-0.6,0-0.8c-0.1-0.2,0.2-0.2,0.3-0.2c0.1,0,0.2,0,0.2,0.2c0,0.2,0,0.3,0,0.5
		c0.3,0,0.2-0.4,0.5-0.4c0,0,0,0,0,0c0.1,0.5-0.3,0.6-0.6,0.8C477.2,481.9,477.1,481.9,477,481.9z"/>
	<path class="st4" d="M453.6,477.9c0.3,0,0.5,0.2,0.8,0.2c0.1,0,0.1,0,0.1,0.1c0,0.1-0.1,0.1-0.2,0.1c-0.2-0.1-0.5-0.1-0.7-0.1
		C453.6,478.1,453.6,478,453.6,477.9z"/>
	<path class="st4" d="M453.6,453.6c0.2,0,0.4,0,0.6,0c0.1,0,0.1,0,0.1,0.1c0,0.1-0.1,0.1-0.1,0c-0.2-0.1-0.4,0.2-0.6,0
		C453.6,453.8,453.6,453.7,453.6,453.6z"/>
	<path class="st3" d="M453.6,469.4c0.1,0,0.1,0.1,0,0.1C453.6,469.5,453.6,469.4,453.6,469.4z"/>
	<path class="st3" d="M455.8,481.9c0.1,0,0.1-0.1,0.2,0C456,481.9,455.9,481.9,455.8,481.9z"/>
	<path class="st4" d="M463.3,463.1c0-0.2-0.1-0.5-0.1-0.8c0-0.3-0.1-0.5-0.2-0.7c-0.1-0.3,0-0.4,0.3-0.4c0.9,0,1.8,0,2.7,0
		c2.4,0,4.8,0,7.3,0c0.2,0,0.5-0.1,0.6,0.1c0.1,0.2,0.1,1-0.1,1.1c-0.2,0.1-0.2,0.4-0.5,0.4c-0.2-0.2,0-0.4,0-0.6
		c0-0.2-0.1-0.3-0.3-0.3c-0.7,0-1.4-0.1-2-0.1c-0.4,0-0.7-0.2-1.1,0c-0.1,0-0.3-0.1-0.4-0.1c-0.7,0-1.3,0-2,0
		c-0.4,0-0.5,0.4-0.7,0.6c-0.1,0.1,0,0.1,0.1,0.1c0.7-0.1,1.3,0.1,2,0.2c0.4,0,0.9,0.1,1.3,0.2c0.4,0.1,0.6-0.2,1-0.3
		c0.2,0,0.4-0.2,0.4,0.1c0,0.2,0.2,0.1,0.4,0.1c0.1,0,0.2,0,0.2-0.2c0-0.1,0.1-0.2,0.1-0.4c0.1-0.1,0.2-0.2,0.3-0.2
		c0.1,0.1,0.2,0.2,0.1,0.4c0,0.1-0.1,0.2-0.2,0.3c-0.6,0.3-1.2,0.6-1.9,0.4c-0.1,0-0.1,0-0.4,0c0.3,0.3,0.7,0.3,1.1,0.5
		c0.6,0.4,1,0.9,1.6,1.3c0.5,0.2,1,0.3,1.5,0.3c0.2,0,0.3-0.2,0.4-0.3c0.1-0.2,0.2-0.3,0.5-0.1c0.3,0.2,0.6-0.1,0.8-0.3
		c0.3-0.1,0.5-0.4,0.7-0.6c0.1-0.1,0.2-0.2,0.2,0c0.1,0.1,0.2,0.3,0,0.4c-0.9,0.4-1.7,1.1-2.7,1.3c-0.2,0-0.2,0.1-0.1,0.3
		c0.1,0.3,0,0.9-0.3,1.1c-0.1,0.1-0.2,0.1-0.4,0c-0.1-0.1-0.2-0.3,0-0.4c0-0.1,0.1-0.1,0.1-0.1c0.5-0.4,0.5-0.6-0.1-1
		c-0.3-0.2-0.6-0.3-0.9-0.4c0,0,0,0-0.1,0c0.1,0.1,0.1,0.3,0.2,0.4c0.3,0.3,0.2,0.6,0.3,0.9c0.1,0.5-0.2,1,0.1,1.5
		c0.1,0.1,0,0.4-0.3,0.3c-0.1,0-0.2,0-0.2,0.1c-0.3,0.5-0.6,0.9-0.7,1.4c-0.1,0.4-0.1,0.7-0.1,1.1c-0.1,0.1-0.1-0.1-0.2,0
		c-0.1,0.1-0.3,0.2-0.4,0c-0.1-0.2-0.1-0.4,0.1-0.5c0.3-0.2,0.3-0.6,0.5-1c0,0,0-0.1,0-0.1c0,0,0,0-0.1,0c-0.5,0.2-1,0.5-1.5,0.6
		c-0.3,0.1-0.5,0.3-0.7,0.6c-0.1,0.2,0.1,0.4,0.3,0.4c0.2,0,0.4-0.1,0.5,0.1c0,0.3-0.2,0.4-0.4,0.5c-0.2,0.1-0.3,0-0.4-0.2
		c-0.1-0.2-0.2-0.4-0.1-0.6c0.1-0.2-0.1-0.2-0.2-0.2c-0.1,0-0.2,0-0.2,0c-0.1,0-0.2-0.1-0.3-0.2c0-0.1,0-0.2,0.1-0.3
		c0.1-0.1,0.2,0,0.3,0.1c0.1,0.1,0.3,0.1,0.4,0.1s0.3-0.1,0.3-0.3c0-0.2-0.1-0.1-0.2-0.1c-0.4-0.1-0.9-0.2-1.3-0.3
		c-0.3-0.1-0.5-0.4-0.7-0.7c-0.3-0.5-0.4-1.1-0.5-1.6c0-0.1,0-0.3,0.1-0.4c0.2-0.5,0.2-1.1,0.7-1.4c0.1,0,0.1,0.1,0,0.2
		c-0.4,0.3-0.3,0.8-0.5,1.2c-0.2,0.3,0,0.8,0.2,1c0.1,0.1,0.3,0.3,0.2,0.6c-0.1,0.4,0.3,0.9,0.8,1.1c0.7,0.3,1.4,0.4,2.1,0.3
		c0.8-0.1,1.5-0.6,1.8-1.3c0.6-1.3,0.3-2.7-0.6-3.7c-0.6-0.6-1.3-0.9-2.1-1.3c-0.4-0.2-0.8-0.3-1.2-0.3c-0.2,0-0.4-0.1-0.6-0.2
		c-0.3,0-0.6,0-0.9-0.1c-0.4-0.1-0.5,0.2-0.6,0.5c-0.1,0.3-0.2,0.6-0.3,0.9c-0.1-0.5,0.2-0.8,0.3-1.3c-0.4-0.1-0.5-0.1-0.5,0.3
		c0,0.2-0.1,0.3-0.1,0.4c-0.1,0.1-0.2,0.2-0.3,0.1c-0.2-0.1-0.2-0.3-0.1-0.5c0-0.1,0.1,0,0.2,0c0.1,0,0.2-0.1,0.2-0.2
		c0-0.1,0-0.2-0.1-0.2c-0.1-0.1-0.1-0.1-0.2,0c-0.1,0.1-0.2,0.1-0.4,0.1c-0.3,0-0.4,0.3-0.5,0.4c0,0-0.1,0-0.1,0
		c0-0.4-0.3-0.3-0.5-0.2c-0.3,0.1-0.4,0.2-0.2,0.5c0.1,0.2,0,0.3,0,0.5c-0.1,0-0.1-0.1-0.1-0.1C463.5,463.6,463.6,463.3,463.3,463.1
		z M463.8,461.8c-0.5,0-0.5,0-0.3,0.4c0,0.1,0.1,0.3,0.1,0.4c0,0.1,0,0.2,0.2,0.1c0.2-0.1,0.4-0.2,0.7-0.2c0.1,0,0.2-0.1,0.3-0.2
		c0.3-0.5,0.6-0.5,1.1-0.1c0.2,0.2,0.6,0.2,0.8,0c0.1-0.1,0.3-0.3,0.3-0.5c0-0.1-0.3-0.1-0.5-0.1
		C465.5,461.8,464.6,461.8,463.8,461.8z M465.6,462.6c-0.2-0.4-0.4-0.4-0.7,0C465.1,462.6,465.3,462.6,465.6,462.6z"/>
	<path class="st5" d="M460.3,462.5c-0.2,3,2.2,7.1,3.6,9.6c2.9,4.3,4.6,5.1,8.4,2.6c-6.1,6.5-10.5-4.1-12.8-8.8
		c-0.3-0.3-0.8,0.6-0.9,0.8c0.1,0.1,0.2,0,0.3,0c0.5-0.1,0.4,0.4,0.1,0.6c-1.8,1.9-0.5-1.3,0.4-1.8
		C459.2,464.7,458.9,463.7,460.3,462.5z"/>
	<path class="st4" d="M470.7,457.5C470.6,457.5,470.6,457.5,470.7,457.5c0-0.1,0-0.2-0.2-0.2c-0.4-0.1-0.7-0.1-1.1,0
		c-0.2,0-0.2,0.1-0.2,0.3c-0.5,0.1-0.9,0.1-1.4,0c-0.3-0.2-0.6-0.1-0.9-0.1c-0.3,0.3-0.7,0.3-0.9,0c0-0.4,0.3-0.3,0.7-0.3
		c-0.3-0.2-0.5-0.5-0.7-0.6c-0.3-0.2-0.5-0.3-0.9,0c-0.2,0.2-0.4,0.2-0.7,0c-0.1-0.1-0.2,0-0.3,0c-0.2,0.1-0.4,0.2-0.7,0.1
		c-0.2-0.1-0.2-0.3-0.1-0.4c0.3-0.3,0.6-0.3,1-0.3c0.1,0,0.3,0.1,0.3-0.1c0-0.2-0.1-0.2-0.2-0.2c-0.7-0.3-1.4-0.4-2.2-0.4
		c-0.3,0-0.6,0.1-0.8,0.3c-0.3,0.2-0.4,0.6-0.2,0.8c0.2,0.3,0.4,0.3,0.8,0c0,0-0.1-0.1-0.1-0.1c-0.1-0.1-0.2-0.2-0.2-0.3
		c0-0.1,0.1-0.2,0.2-0.2c0.2,0,0.3,0,0.4,0.2c0.1,0.2,0,0.6-0.2,0.7c-0.3,0.2-0.8,0.2-1,0c-0.3-0.2-0.3-0.6-0.1-1
		c0-0.1,0.1-0.2,0.2-0.3c-0.6-0.1-1.2,0.3-1.5,0.8c-0.1,0.2-0.2,0.3-0.3,0.5c-0.1,0.1-0.2,0.3-0.4,0.1c-0.2-0.1-0.1-0.3,0-0.4
		c0.2-0.4,0.5-0.6,0.9-0.8c0.1-0.1,0.2-0.1,0.3-0.1c0.1,0,0.2,0,0.2-0.1c0-0.1-0.1,0-0.2-0.1c-0.1-0.1-0.3-0.3-0.2-0.5
		c0.1-0.2,0.3-0.1,0.5-0.1c0.1,0,0.2,0.1,0.3,0.2c0.2,0.2,0.3,0.3,0.6,0.2c0.2-0.1,0.5,0,0.8,0c0.4,0,0.9,0,1.3,0
		c0.1,0,0.2,0,0.3,0.1c0.3,0.3,0.8,0.4,1.1,0.7c0.4,0.3,0.9,0.5,1.2,0.9c0.6,0.7,1.4,1,2.4,0.8c0.3-0.1,0.6-0.2,1-0.2
		c0.3,0,0.7,0,1,0c0.5,0.1,1,0,1.4-0.2c0.2-0.1,0.5-0.2,0.7-0.1c0.4,0.1,0.7-0.1,1.1,0c0.2,0,0.3-0.2,0.5-0.2c0.3-0.1,0.5-0.1,0.7,0
		c0.5,0.2,1.1,0.4,1.7,0.4c0.2,0,0.5,0.1,0.7,0.1c0.4,0,0.6-0.3,0.5-0.7c0-0.1-0.1-0.3,0-0.3c0.1,0,0.3,0,0.4,0.2
		c0.2,0.3,0,0.7-0.3,0.8c-0.5,0.2-0.5,0.2-0.1,0.6c0.7,0.6,0.9,1.5,0.6,2.4c-0.2,0.5-0.1,0.6,0.3,0.8c0.1,0,0.3,0.1,0.2,0.3
		c0,0.1-0.1,0.1-0.3,0.1c-0.1-0.1-0.2,0-0.1,0.1c0.2,0.2,0,0.4,0,0.6c0,0.1-0.1,0.3-0.3,0.3c-0.4,0-0.4,0.3-0.5,0.5
		c-0.1,0.3-0.3,0.5-0.4,0.8c0,0.1-0.1,0.1-0.2,0.1c-0.1,0-0.1-0.1-0.1-0.2c0.1-0.3,0.1-0.7,0-1c-0.1-0.2,0-0.3,0-0.5
		c0.1-0.3,0.3-0.3,0.5-0.2c0.3,0.3,0.4,0.3,0.5-0.1c0-0.1,0.1-0.2,0.1-0.3c0-0.4-0.2-0.5-0.6-0.3c-0.3,0.2-0.6,0.4-0.9,0.6
		c-0.4,0.2-0.9,0.4-1.4,0.5c-0.1,0-0.1,0-0.1-0.1c0-0.1,0-0.1,0.1-0.1c0.2-0.1,0.5-0.2,0.8-0.2c0.2,0,0.3-0.1,0.3-0.3
		c0-0.2-0.2-0.2-0.3-0.2c-0.3,0-0.6-0.1-0.7,0.2c0,0.1-0.1,0.1-0.2,0.1c-0.1,0-0.1-0.1-0.1-0.2c0.1-0.2,0.2-0.5,0.3-0.7
		c0.1,0.1,0.3,0.1,0.4,0.2c0.8,0.6,1.8,0.4,2.1-0.5c0.4-1,0.6-1.5-0.2-2.4c-0.5-0.5-1.1-0.7-1.8-0.9c-0.8-0.2-1.7-0.2-2.5-0.1
		c-0.1,0-0.2,0-0.2,0.1c0,0.1,0,0.2,0.1,0.2c0.1,0.1,0.1,0.3,0.2,0.4c-0.3,0-0.5,0.2-0.8,0c0.1-0.1,0.3-0.3,0.2-0.4
		c-0.1-0.1-0.4-0.3-0.6-0.2C471.8,457.2,471.2,457.4,470.7,457.5z"/>
	<path class="st4" d="M474.3,471.8c-0.2-0.1-0.3-0.2-0.3-0.4c0,0,0.1-0.1,0.1-0.1c0.4,0.1,0.5-0.2,0.5-0.5c0-0.2,0.1-0.4,0.2-0.6
		c0.2-0.6,0.6-1,1.1-1.3c0.3-0.2,0.5-0.4,0.8-0.6c0.3-0.2,0.5-0.4,0.7-0.7c0.4-0.6,0.1-1.1-0.5-1.3c0,0-0.1,0-0.1,0
		c-0.2-0.6-0.7-0.3-1-0.3c-0.4,0-0.6,0.3-0.8,0.6c-0.2,0.3-0.1,0.5,0,0.8c0.1,0.3,0.4,0.4,0.6,0.4c0.2,0,0.3-0.1,0.2-0.3
		c-0.1-0.2,0-0.4,0.1-0.5c0.1-0.1,0.4-0.1,0.5,0c0.1,0.1,0.2,0.2,0.1,0.4c0,0.3-0.4,0.6-0.8,0.6c-0.3,0-0.7,0-0.9-0.4
		c0,0.4,0.2,0.7,0,1c-0.2,0.4-0.5,0.7-1,0.7c-0.2,0-0.4-0.3-0.5-0.6c0-0.3,0.2-0.4,0.4-0.5c0.1,0,0.2,0.1,0.2,0.1
		c0,0.1,0.2,0.1,0.1,0.2c0,0-0.1,0.1-0.1,0.2c-0.1,0.1-0.3,0.1-0.1,0.3c0.1,0.1,0.3,0.2,0.4,0.1c0.4-0.2,0.5-0.7,0.4-1.3
		c-0.2-1,0.1-2,1.2-2.2c1.1-0.2,1.8,0.3,1.8,1.3c0,0.5-0.2,1-0.5,1.4c-0.1,0.2-0.2,0.3-0.3,0.5c-0.1,0.3,0.1,0.4,0.3,0.5
		c0.1,0,0.2,0,0.2-0.1c0.1-0.1-0.1-0.1-0.1-0.2c-0.1-0.1-0.2-0.3-0.1-0.5c0.1-0.2,0.2-0.1,0.4-0.1c0.2,0,0.3,0.2,0.3,0.3
		c0,0.3-0.2,0.5-0.4,0.7c-0.2,0.1-0.4,0.1-0.6,0c-0.3-0.2-0.4-0.5-0.2-0.9c-0.1-0.1-0.2-0.1-0.3,0c-0.4,0.4-0.8,0.8-0.6,1.5
		c0,0.2,0,0.3-0.2,0.4c-0.2,0-0.2-0.2-0.3-0.3c-0.1-0.1,0.1-0.3-0.1-0.3c-0.2,0-0.1,0.2-0.2,0.3c-0.4,1.2,0.8,2.2,1.8,2.1
		c0.4,0,0.6-0.2,0.5-0.6c-0.1-0.4,0-0.5,0.4-0.4c0.2,0,0.2,0,0.2-0.2c0-0.2-0.1-0.5,0.1-0.7c0.1,0.4,0.1,0.8,0,1.2
		c-0.1,0.2-0.2,0.4-0.4,0.7c-0.2,0.3-0.5,0.3-0.9,0.3c-0.3,0-0.3,0-0.2,0.3c0.1,0.3,0.2,0.5,0.1,0.8c0,0.1-0.1,0.3-0.3,0.3
		c-0.2,0-0.3-0.1-0.3-0.4c-0.1-0.4,0-0.6,0.1-0.8c0.1-0.2-0.2-0.4-0.4-0.5c-0.3-0.2-0.6-0.5-0.8-0.8c-0.1-0.2-0.2-0.1-0.3,0
		C474.6,471.6,474.4,471.7,474.3,471.8z"/>
	<path class="st4" d="M470.7,453.9c0.2,0.4,0.8,0.7,1.1,0.7c0.2,0,0.3-0.1,0.4-0.3c0.1-0.2,0.2-0.4,0.3-0.6c0-0.1,0.1-0.1,0.1-0.1
		c0.1,0,0.2,0.1,0.1,0.1c-0.2,0.3-0.1,0.8-0.4,1.1c-0.4,0.5-1.5,0.4-1.8-0.1c-0.1-0.2-0.2-0.4-0.3-0.7c0-0.2-0.6-0.4-0.8-0.2
		c-0.1,0.1,0,0.1,0,0.2c0,0.7,0.5,1.5,1.2,1.8c0.6,0.3,1.2,0.5,1.9,0.3c0.1,0,0.2-0.1,0.2,0.1s-0.1,0.1-0.2,0.1
		c-0.6,0.1-1.2,0.1-1.7-0.2c-0.2-0.1-0.4-0.2-0.6-0.3c0,0.4-0.1,0.7-0.5,0.8c-0.2,0.1-0.3,0.1-0.4-0.1c-0.1-0.2,0-0.3,0.1-0.4
		c0.4-0.5,0.5-0.7,0.1-1.2c-0.1-0.1-0.2-0.2-0.2,0c-0.2,0.7-0.8,1-1.4,1.3c-0.2,0.1-0.4,0.3-0.5,0.5c-0.1,0.2-0.2,0.1-0.3,0.1
		c-0.1,0-0.1-0.2-0.1-0.3c0.1-0.3,0-0.5-0.3-0.7c-0.4-0.2-0.5-0.9-0.2-1.3c0.1-0.1,0.2-0.3,0.3-0.5c0.1-0.2,0.8-0.3,1-0.1
		c0.2,0.2,0.1,0.4-0.1,0.6c-0.2,0.1-0.3,0.2-0.5,0.2c-0.2,0-0.4,0-0.4,0.2c0,0.2,0,0.4,0.1,0.6c0.3,0.5,0.8,0.3,1.2,0.3
		c0.4,0,0.7-0.1,0.9-0.5c0.2-0.4,0.3-0.9,0.2-1.4c0-0.2-0.2-0.2-0.3-0.1c-0.1,0.1-0.1,0.1-0.2,0.1c-0.1,0-0.2,0-0.3,0
		c-0.1-0.1-0.1-0.2-0.1-0.2c0-0.1,0.1-0.1,0.2-0.1c1,0,2,0,3,0c0.1,0,0.3,0,0.3,0.1c0,0.1-0.1,0.2-0.1,0.3c-0.1,0.1-0.1,0.2-0.3,0.1
		C471.2,454.1,471,454,470.7,453.9z"/>
	<path class="st4" d="M469.3,464.4c0.7-0.1,1.3,0.1,1.9,0.5c0.8,0.6,1.1,1.5,0.8,2.4c-0.1,0.5-0.6,0.9-1.2,1c-0.2,0-0.3,0.1-0.6,0.1
		c-0.2,0-0.2,0.2-0.3,0.4c-0.1,0.1-0.1,0.3-0.3,0.3c-0.2,0-0.3,0-0.4-0.1c-0.1-0.2,0-0.4,0.1-0.5c0.2-0.2,0.2-0.3,0-0.5
		c-0.3-0.4-0.1-0.8,0-1.2c0.1-0.5,0.1-0.6-0.3-0.7c-0.1,0-0.2,0-0.2,0.2c0.1,0.2,0,0.4-0.2,0.5c-0.1,0-0.1,0-0.2,0
		c-0.2-0.2-0.1-0.4,0-0.6c0.2-0.4,0.7-0.5,1-0.2c0.2,0.2,0.4,0.4,0.4,0.7c0,0.3,0.2,0.6,0.4,0.7c0.4,0.2,0.8,0.3,1.2-0.1
		c0.1-0.1,0.3-0.2,0.3-0.4c0.3-0.6,0-1.4-0.6-1.7c-0.1-0.1-0.2-0.1-0.2,0.1c0,0.1-0.1,0.2-0.2,0.3c-0.1,0.1-0.2,0.2-0.4,0.1
		c-0.1-0.1-0.2-0.2-0.1-0.4c0.1-0.5,0-0.7-0.6-0.7c-0.5,0-1,0.2-1.4,0.4c-0.1,0-0.2,0.1-0.2,0c-0.1-0.1,0.1-0.1,0.1-0.2
		c0.2-0.1,0.4-0.2,0.6-0.3c0.4-0.1,0.5-0.4,0.3-0.8c0-0.1,0-0.2,0-0.3c0.1-0.1,0.2-0.1,0.3-0.1c0.1,0,0.1,0.1,0.2,0.2
		C469.6,463.9,469.4,464.1,469.3,464.4z"/>
	<path class="st4" d="M475.6,475.8c-0.1-0.3-0.3-0.3-0.6-0.3c-0.7,0-1,0.2-1.1,0.8c0,0.2,0,0.3,0.2,0.4c0.3,0.1,0.5,0.3,0.8,0.4
		c0.1,0,0.2,0,0.1,0.1c-0.1,0.1-0.1,0-0.2,0c-0.2-0.1-0.4-0.2-0.6-0.3c-0.1,0-0.2-0.1-0.3,0c-0.1,0.1,0,0.2,0.1,0.3
		c0.2,0.1,0.4,0.3,0.6,0.4c0.1,0.1,0.3,0.1,0.5,0c0.1,0,0.1-0.1,0.2,0c0,0,0.2,0,0.2,0c0-0.1-0.1-0.1-0.1-0.2c0.2-0.1,0.3,0,0.4,0
		c0.1,0,0.3,0,0.3-0.1c0.1-0.1,0-0.2-0.2-0.2c0,0-0.1-0.1-0.1-0.2c0.1-0.1,0.1-0.4,0.3-0.3c0.5,0,0.6-0.2,0.5-0.6
		c0.2,0.1,0.3,0.4,0.2,0.6c-0.2,0.3-0.2,0.7-0.5,0.9c-0.1,0.1,0,0.1,0,0.2c0.5,0.2,1.2,0,1.5-0.4c0.1-0.1,0.2-0.2,0-0.4
		c-0.1-0.1-0.2-0.2-0.4,0c0,0.1-0.1,0.2-0.2,0.1c-0.1-0.1-0.2-0.3-0.2-0.4c0.1-0.2,0.3-0.5,0.6-0.5c0.6-0.1,0.9,0.3,0.6,1
		c-0.2,0.5-0.7,0.9-1.3,0.9c-0.3,0-0.5,0-0.8,0c-0.3,0-0.7,0-1,0.2c-0.3,0.1-1.1,0-1.3-0.4c-0.1-0.2-0.1-0.2-0.3-0.1
		c-0.2,0.2-0.3,0.3-0.6,0.1c-0.2-0.1-0.3-0.1-0.3,0.1c0,0.1-0.1,0.2-0.3,0.1c-0.1-0.1-0.1-0.2,0-0.3c0.1-0.3,0.3-0.4,0.6-0.5
		c0.1,0,0.2,0,0.3,0c0.1,0,0.2,0,0.2-0.1c0-0.1,0-0.3,0-0.3c-0.2-0.1-0.4-0.4-0.7-0.4c-0.1,0-0.2,0-0.3-0.1c0,0,0-0.1,0-0.2
		c0.1-0.1,0.2,0,0.3,0c0.2,0.1,0.4,0.3,0.6,0.2c0.2,0,0.2-0.4,0.3-0.6c0.4-0.7,1.4-0.8,1.9-0.2c0.3,0.3,0.1,0.8-0.3,0.9
		c-0.2,0-0.4,0-0.4-0.2c0-0.2,0-0.4,0.2-0.4C475.4,475.8,475.5,475.8,475.6,475.8z"/>
	<path class="st4" d="M480.8,459.8c-0.1-0.4-0.2-0.6-0.1-0.9c0.1,0.2,0.2,0.5,0.4,0.1c0.1-0.2,0.3-0.2,0.5,0
		c0.2,0.1,0.1,0.5-0.1,0.7c-0.2,0.1-0.4,0.3-0.5,0.5c-0.1,0.2,0.1,0.4,0,0.5c-0.1,0.3,0,0.7-0.2,1.1c-0.1,0.1,0,0.2,0,0.3
		c0.1,0.3,0.1,0.5-0.1,0.8c-0.6,0.5-0.9,1.2-1.4,1.8c-0.4,0.4-0.8,0.8-1.3,1.1c-0.1,0.1-0.2,0-0.3,0s0-0.2,0.1-0.2
		c0.3-0.1,0.6-0.3,0.8-0.6c0.4-0.4,0.5-0.7,0.3-1.2c0-0.1-0.1-0.2-0.1-0.2c0.3-0.3,0.1-0.6,0-1c0-0.1,0-0.3,0.1-0.4
		c0.2,0,0.4,0,0.5,0.2c0.1,0.2,0.3,0.5,0.2,0.8c0,0.2-0.2,0.4,0,0.5c0.2,0.1,0.2-0.2,0.3-0.4c0.3-0.5,0.5-1,0.6-1.6
		c0.1-0.5,0.2-1.1-0.1-1.6c-0.1-0.2-0.3-0.4-0.6-0.5c-0.3,0-0.6,0.1-0.6,0.3c-0.1,0.2,0.1,0.5,0.3,0.6c0.3,0.2,0.6,0.4,0.6,0.8
		c0,0,0,0.1,0,0.1c0,0.2-0.1,0.3-0.3,0.3c-0.1,0-0.2,0-0.2-0.1c-0.1-0.2,0-0.4,0.1-0.4c0.3-0.2,0.1-0.3,0-0.4
		c-0.1-0.1-0.2-0.1-0.4-0.2c-0.4-0.3-0.5-0.6-0.4-1c0.1-0.4,0.6-0.6,1.1-0.4C480.4,459.3,480.5,459.5,480.8,459.8z"/>
	<path class="st4" d="M462.6,459c0,0,0,0.1-0.1,0.1c-0.2-0.1-0.4-0.2-0.7-0.1c-0.2,0-0.4-0.1-0.4-0.3c-0.1-0.2,0.1-0.4,0.3-0.4
		c0.3-0.1,0.2-0.2,0-0.3c-0.5-0.6-1.7-0.8-2.5-0.5c-0.5,0.2-1,0.5-1.3,1c-0.2,0.3-0.2,0.5-0.2,0.8c0,0.6,0.7,1.6,1.4,1.7
		c0.3,0,0.4,0,0.6-0.2c0.2-0.2,0.3-0.5,0.6,0c0,0.1,0.2,0,0.3-0.1c0.3-0.3,0.3-0.8,0.4-1.2c0-0.2,0-0.3,0.1-0.6
		c0.2,0.4,0.2,0.7,0.1,1.1c-0.1,1-0.8,1.3-1.4,1.3c-0.5,0-0.9-0.1-1.3-0.4c-0.1-0.1-0.2-0.1-0.3,0c-0.1,0.1-0.3,0.3-0.5,0.1
		c-0.2-0.2-0.1-0.4,0-0.6c0.1-0.3,0.2-0.5,0.1-0.9c-0.1-0.3,0-0.7,0.2-1c-0.2-0.1-0.4,0-0.5-0.2c-0.1-0.2-0.1-0.3,0.1-0.3
		c0.5,0.1,0.8-0.3,1.1-0.5c0.7-0.4,1.4-0.6,2.2-0.4c0.4,0.1,0.6,0.4,1.1,0.4c0-0.1,0-0.2,0.1-0.3s0.2-0.1,0.3-0.1
		c0.1,0,0.2,0.1,0.2,0.2C462.2,457.9,462.4,458.5,462.6,459z"/>
	<path class="st4" d="M481.8,454.8c0,0.7,0,1.3,0,2c0,0.1,0,0.2-0.1,0.2c-0.1,0-0.1,0.1,0,0.2c0.2,0.2,0.1,0.4,0.1,0.7
		c0,0.1,0,0.2-0.1,0.2c-0.1,0-0.2,0-0.2-0.1c-0.1-0.1-0.2-0.2-0.2-0.3c-0.1-0.4-0.4-0.4-0.8-0.5c-1.2-0.2-1.6-0.9-1.4-2.1
		c0.1-0.6,0.4-1.1,0.9-1.4c0.2-0.2,0.5-0.1,0.7-0.1c0.2,0.1,0.1,0.4,0.1,0.6c0,0.1-0.1,0.2-0.2,0.3c-0.2,0-0.3-0.1-0.4-0.2
		c-0.2-0.4-0.3-0.4-0.5,0c-0.4,0.5-0.6,1.1-0.2,1.6c0.2,0.4,0.7,0.6,1.1,0.5c0.4-0.1,0.7-0.4,0.8-0.9
		C481.5,455.3,481.5,455,481.8,454.8z"/>
	<path class="st4" d="M477.9,481.1c-0.1-0.4,0-0.9-0.3-1.3c-0.2-0.2-0.3-0.6-0.6-0.7c-0.6-0.2-1.1-0.1-1.6,0.2
		c-0.2,0.2-0.2,0.7,0,0.9c0.1,0.1,0.1,0.1,0.3,0c0.5-0.2,0.7,0.1,0.8,0.6c0,0.2-0.2,0.2-0.3,0.2c-0.6-0.1-1.3-0.7-1.2-1.4
		c0-0.2,0.3-0.6,0.6-0.7c0.2,0,0.3-0.1,0.1-0.3c0,0,0-0.1,0-0.2c-0.1-0.1-0.2-0.3,0-0.4c0.2-0.1,0.3,0,0.5,0.2
		c0.2,0.3,0.5,0.4,0.8,0.5c0.5,0.1,0.8,0.5,1.1,0.9c0.1,0.2,0.2,0.2,0.3,0c0.3-0.5,0.2-0.9-0.2-1.1c-0.2-0.1-0.3-0.2-0.2-0.4
		c0.1-0.1,0.5-0.2,0.6-0.1c0.1,0.2,0.3,0.3,0.4,0.5c0,0.2,0.1,0.2,0.3,0.1c0.2-0.1,0.4-0.2,0.7-0.4c0.6-0.3,1.2-0.3,1.9-0.1
		c0.1,0,0.2,0,0.2,0.2c0,0.1-0.1,0-0.2,0c-1.2-0.3-2.1,0.1-2.9,0.9c-0.3,0.3-0.5,0.7-0.5,1.2C478.2,480.7,478.3,481.1,477.9,481.1
		C477.9,481.1,477.9,481.1,477.9,481.1z"/>
	<path class="st4" d="M467.4,463.7c0,0.2-0.1,0.3-0.2,0.4c-0.2,0.1-0.4,0.2-0.2,0.5c0,0.1,0,0.1-0.1,0.2c-0.8,0.5-0.8,1.2-0.6,2
		c0.2,0.7,0.4,1.5,0.7,2.1c0.4,0.8,0.9,1.7,1.5,2.4c0.2,0.3,0.5,0.5,0.8,0.6c0.2,0.1,0.4,0.3,0.5,0.6c0.1,0.3,0.7,0.5,1,0.6
		c0.3,0,0.6-0.1,0.9,0c-0.4,0.2-0.9,0.3-1.3,0.1c-0.5-0.2-0.9-0.6-1.3-1c-0.2-0.2-0.4-0.3-0.4-0.6c0,0-0.1-0.1-0.2-0.1
		c-0.4-0.2-0.5-0.7-1-0.8c-0.1,0-0.2-0.1-0.2-0.3c0.2-0.4,0-0.7-0.2-1c-0.3-0.7-0.7-1.4-0.8-2.2c0-0.1-0.1-0.3-0.1-0.4
		c-0.1-0.2-0.2-0.3-0.4-0.2c-0.3,0.1-0.5-0.1-0.4-0.4c0.1-0.3,0.3-0.2,0.5-0.1c0.3,0.1,0.3-0.1,0.3-0.3c0-0.3,0-0.7,0-1
		c0-0.1,0-0.2,0.1-0.2c0.1,0,0.1,0.1,0.1,0.2c0,0.3,0.1,0.1,0.2,0c0.2-0.3,0.4-0.6,0.8-0.8C467.2,463.8,467.2,463.7,467.4,463.7z"/>
	<path class="st4" d="M468.7,479.4c0.3,0.4,1,0.2,1.3-0.1c0.2-0.3,0-0.5-0.2-0.7c-0.5-0.5-1.2-0.5-1.7-0.2c-0.4,0.2-0.5,0.6-0.4,1
		c0.1,0.4,0.4,0.6,0.8,0.7c0.4,0.1,0.8,0.1,1.2,0.2c0.1,0,0.2-0.1,0.2,0c0,0.1,0,0.2-0.2,0.2c-0.4-0.1-0.5,0.3-0.8,0.5
		c-0.1,0.1-0.2,0.3-0.4,0.3c-0.1,0-0.2-0.2-0.3-0.3c0-0.2,0.1-0.3,0.2-0.4c0,0,0.1-0.1,0.2-0.1c0-0.1-0.1-0.1-0.2-0.2
		c-0.5-0.1-0.8-0.4-0.9-0.9c-0.1-0.3-0.1-0.5-0.4-0.7c-0.1-0.1-0.3-0.3-0.1-0.4c0.2-0.2,0.3-0.1,0.4,0.1c0.1,0.2,0.3,0.2,0.5,0
		c0.3-0.3,0.8-0.5,1.3-0.4c0.3,0.1,0.6,0.1,0.9,0.3c0.1,0.1,0.2,0,0.3,0c0.1-0.1,0.2-0.2,0.4-0.3c0.1-0.1,0.2-0.2,0.4-0.1
		c0.2,0.1,0.1,0.4,0,0.5c-0.5,0.2-0.6,0.6-0.8,1c-0.2,0.5-1.2,0.5-1.6,0.1c-0.1-0.1-0.2-0.3-0.1-0.4c0.1-0.2,0.3-0.4,0.5-0.3
		c0.2,0,0.3,0.2,0.3,0.4c0,0.2-0.2,0.2-0.4,0.2C468.8,479.4,468.8,479.3,468.7,479.4z"/>
	<path class="st4" d="M481.5,466.6c0,0.1,0.1,0.3-0.2,0.3c-0.2,0.1-0.3,0-0.4-0.2c-0.2-0.2-0.3-0.4-0.2-0.7c0.1-0.2,0-0.3-0.2-0.3
		c-0.3-0.1-0.7,0-0.9,0.3c-0.2,0.4-0.2,0.9-0.1,1.3c0.2,0.6,0.8,0.8,1.3,0.9c0.2,0,0.5,0,0.7,0c0.1,0,0.2-0.1,0.2,0.1
		c0,0.1-0.1,0.2-0.2,0.2c-0.1,0-0.2,0.1-0.2,0.1c-0.8-0.1-1.4,0.3-1.9,0.8c-0.2,0.2-0.2-0.1-0.4-0.1c-0.2,0-0.5-0.4-0.5-0.6
		c0-0.1-0.1-0.2,0.1-0.3c0.1-0.1,0.2,0,0.3,0.1c0.1,0.1,0.2,0.2,0.4,0.3c0.2,0.1,0.3,0.1,0.5,0.1c0.1,0,0.3-0.1,0.4-0.2
		c0-0.1-0.1-0.2-0.2-0.3c-0.4-0.3-0.7-0.7-0.8-1.2c0-0.3-0.2-0.4-0.4-0.5c-0.1-0.1-0.4-0.3-0.2-0.5c0.1-0.1,0.4-0.1,0.5,0.2
		c0,0.1,0.1,0.1,0.1,0.1c0,0,0.1-0.1,0.1-0.1c0.1-0.7,0.7-0.9,1.5-0.5C481.2,465.8,481.5,466.3,481.5,466.6z"/>
	<path class="st4" d="M454.7,478.2c0.3-0.1,0.6-0.2,0.9-0.2c0.3,0,0.4-0.3,0.5-0.5c0.1-0.2,0.3-0.4,0.4-0.6c0.5-0.5,0.5-1.6,0.1-2.1
		c-0.3-0.4-0.4-0.9-0.8-1.1c-0.1-0.1-0.3-0.1-0.3-0.3c0-0.1,0.3-0.1,0.4,0c0.4,0,0.5-0.2,0.7-0.4c0-0.1,0.1-0.2,0.2-0.2
		c0.1,0,0.2,0.1,0.2,0.3c0,0.5-0.2,0.7-0.8,0.8c0.1,0.3,0.2,0.5,0.4,0.7c0.5,0.6,0.4,1.3,0.3,2c-0.1,0.4-0.3,0.8-0.5,1.2
		c-0.5,0.8-0.2,1.3,0.5,1.7c0.1,0.1,0.1,0,0.2,0c0.3-0.1,0.7-0.1,0.9-0.4c0,0,0.1,0,0.2,0c0,0,0,0.1,0,0.1c-0.2,0.3-0.6,0.4-1,0.5
		c-0.3,0.1-0.6,0.1-0.9,0.4c-0.1,0.1-0.2,0.1-0.2-0.1c0,0,0-0.1,0-0.1c0.3-0.6-0.3-1.1-0.1-1.7c0.1-0.2-0.1-0.1-0.2-0.1
		C455.6,478.3,455.1,478.3,454.7,478.2z"/>
	<path class="st4" d="M478.7,470.6c0.1,0.4,0,0.7,0,1c0,0.3,0.1,0.5,0.3,0.7c0.3,0.3,0.4,0.8,0.8,1c0.3,0.1,0.5,0.2,0.8,0.2
		c0.3,0,0.6,0,0.9-0.1c0.1,0,0.3-0.1,0.3,0c0,0.2-0.1,0.1-0.2,0.1c-0.5,0.1-1,0.1-1.5,0c-0.1,0-0.3,0-0.5,0
		c-0.1-0.1-0.1,0.1-0.1,0.2c0.1,0.3,0,0.6-0.2,0.9c-0.1,0.2,0,0.4,0,0.6c0,0.1,0,0.2-0.1,0.3c-0.1,0.1-0.2,0-0.3-0.1
		c-0.1-0.3-0.4-0.2-0.7-0.2c-1-0.1-1.5-0.7-1.2-1.6c0.1-0.5,1.1-0.6,1.4-0.3c0.1,0.1,0.2,0.3,0.1,0.5c-0.1,0.2-0.3,0.1-0.5-0.1
		c-0.1-0.2-0.3-0.4-0.5-0.2c-0.2,0.2-0.3,0.4-0.3,0.7c0.1,0.6,0.7,0.7,1.3,0.7c0.4,0,0.7-0.5,0.7-1c0-0.2-0.1-0.4-0.2-0.6
		c-0.5-0.8-0.6-1.6-0.5-2.5C478.6,470.7,478.6,470.6,478.7,470.6C478.6,470.6,478.6,470.6,478.7,470.6z"/>
	<path class="st4" d="M481.2,469.7c-0.6,0.1-0.8,0.5-1,0.8c-0.2,0.3,0.1,0.7,0.4,0.9c0.1,0.1,0.3,0.2,0.4,0.3c0.4,0.3,0.4,0.5,0.1,1
		c-0.1,0.1-0.2,0.2-0.4,0.1c-0.1-0.1-0.2-0.2-0.2-0.4c0-0.2,0.1-0.2,0.3-0.3c0.1,0,0.1,0,0.3,0c-0.1-0.3-0.3-0.4-0.6-0.5
		c-0.4-0.1-0.7-0.2-0.9-0.7c-0.2-0.7,0.5-1.4,1.2-1.4c0.2,0,0.5,0,0.7,0c0.1,0,0.1,0,0.2,0c0,0.1,0,0.2,0,0.2
		c-0.4,0.3-0.3,0.7-0.1,1.1c0,0,0,0.1,0.1,0.2c0.1,0.1,0.1,0.3,0,0.4c-0.2,0.1-0.4,0-0.5-0.2c-0.1-0.2-0.1-0.3-0.3-0.3
		c-0.2,0-0.2-0.5,0-0.7C481,470,481.1,469.9,481.2,469.7z"/>
	<path class="st4" d="M479,480.7c-0.2-0.9,0.5-1.1,1.1-1.5c0.3-0.2,0.5,0,0.7,0.2c0.2,0.2,0.5,0.4,0.4,0.8c0,0.2,0.2,0.3,0.3,0.4
		c0,0.1,0.2,0.1,0.1,0.2c-0.1,0.1-0.2,0-0.3-0.1c-0.1-0.2-0.3-0.4-0.4-0.6c-0.2-0.4-0.5-0.4-0.9-0.3c-0.3,0-0.4,0.3-0.6,0.5
		c0,0,0,0.1,0,0.1c0.1,0,0.2,0,0.3,0c0.1-0.1,0.4-0.2,0.5-0.1c0.2,0.3,0.5,0.4,0.7,0.6c0.1,0.1,0.1,0.2,0,0.3
		c-0.1,0.1-0.2,0.1-0.4,0c-0.2-0.3-0.5-0.4-0.9-0.3c-0.2,0.1-0.4,0.2-0.3,0.5c0,0.1,0,0.2-0.1,0.2c-0.1,0-0.1-0.1-0.1-0.2
		C479.1,481.3,478.9,481,479,480.7z"/>
	<path class="st4" d="M465.8,453.6c0,0.2-0.1,0.2-0.2,0.3c0.4,0.1,0.6,0.3,0.6,0.8c-0.1,0.6-0.8,0.9-1.3,0.6
		c-0.2-0.1-0.2-0.3-0.2-0.5c0-0.2,0.2-0.3,0.4-0.4c0.1,0,0.2,0,0.3,0.2c0.1,0.2-0.1,0.2-0.2,0.2c-0.1,0-0.2,0-0.2,0.1
		c0,0.1,0.1,0.1,0.2,0.1c0.2,0,0.7-0.2,0.7-0.4c0-0.3-0.3-0.6-0.7-0.6c-0.3,0-0.6,0.1-1,0.2c-0.6,0.2-1.2,0.1-1.7,0
		c-0.6,0-1.1-0.1-1.7-0.2c-0.3-0.1-0.6-0.1-0.9-0.3c0.3-0.1,0.6,0,0.8,0.1c0.1,0,0.2,0.1,0.3,0c0.2-0.2,0.4-0.2,0.6,0
		c0.5,0.3,1.1,0.4,1.7,0.3c0.4,0,0.9,0,1.2-0.2C465.1,453.6,465.4,453.7,465.8,453.6z"/>
	<path class="st4" d="M473.2,479.3c-0.4,0-0.7,0.1-1.1,0.1c-0.3,0-0.3-0.2-0.5-0.3c-0.1,0,0-0.2,0.1-0.3c0.2-0.1,0.3-0.2,0.6-0.1
		c0.2,0.1,0.3,0.2,0.5,0c0.1-0.1,0.4,0,0.6,0.1c0.3,0.1,0.6,0,0.8-0.2c0.1,0,0.1-0.2,0.2-0.1c0.1,0.1,0,0.1-0.1,0.2
		c-0.2,0.3-0.6,0.5-0.9,0.8c-0.4,0.3-0.8,0.5-1.2,0.9c-0.1,0.1-0.2,0.1-0.3,0.1c-0.6-0.1-1.1,0.2-1.7,0.1c-0.1,0-0.2,0-0.3-0.1
		c0-0.1,0.1-0.1,0.2-0.1C471.3,480.4,472.3,480,473.2,479.3z"/>
	<path class="st4" d="M471.4,475.9c-0.7,0.5-1.1,1.3-1.8,1.7c-0.3,0.1-0.5,0.4-0.8,0.1c-0.1-0.1-0.4,0-0.6,0c-0.5,0.1-0.9,0.2-1.4,0
		c-0.3-0.1-0.4-0.4-0.5-0.6c-0.2-0.4-0.5-0.6-0.8-0.7c-0.4-0.1-0.6,0.1-0.9,0.3c0,0,0,0.2-0.2,0.1c-0.1-0.1-0.1-0.2,0-0.3
		c0.3-0.3,0.8-0.5,1.3-0.3c0.3,0.2,0.6,0.4,0.8,0.8c0.3,0.5,0.5,0.7,1.2,0.4c0.3-0.1,0.6-0.3,0.9-0.3c0.2,0,0.4,0,0.5,0.2
		c0.2,0.2,0.3,0.1,0.5,0c0.5-0.4,1-0.9,1.5-1.4C471.1,475.9,471.2,475.8,471.4,475.9z"/>
	<path class="st4" d="M473.9,473c0-0.1,0.2-0.2,0.3-0.3c0.3-0.1,0.6-0.2,0.9,0c0.3,0.3,0.4,0.8,0.3,1.2c-0.1,0.4-0.1,0.4,0.3,0.5
		c0.2,0,0.5,0.1,0.6,0.4h0c-0.2,0-0.5-0.1-0.7-0.2c-0.2-0.1-0.4-0.2-0.6,0.1c-0.5,0.5-1.1,0.8-1.8,1c0,0-0.1,0-0.2,0
		c0-0.1,0-0.1,0.1-0.2c0.4-0.1,0.7-0.3,1.1-0.5c0.3-0.1,0.5-0.3,0.8-0.6c-0.4,0.1-0.7,0.2-1.1,0.1l0,0c0.2-0.2,0.5-0.2,0.7-0.2
		c0.7,0,0.7-0.5,0.5-1c-0.1-0.2-0.1-0.3-0.3-0.4c-0.1,0-0.1,0-0.1,0c0,0,0,0.1,0,0.1c0.2,0.1,0.2,0.2,0.1,0.3
		c-0.1,0.1-0.1,0.3-0.3,0.2c-0.1,0-0.3,0-0.4-0.2C473.9,473.1,473.9,473,473.9,473z"/>
	<path class="st4" d="M479.6,476.4c-0.2,0.2-0.3,0.4-0.5,0.3c-0.1,0-0.1-0.1-0.1-0.1c0-0.2,0.1-0.4,0.3-0.5c0.4-0.2,0.8-0.5,1.1-0.8
		c0.1-0.2,0.4-0.2,0.6-0.4c-0.2-0.1-0.4-0.1-0.6-0.2c-0.1,0-0.2-0.1-0.2-0.2c-0.1-0.1-0.2-0.3-0.1-0.4c0.1-0.1,0.3,0,0.4,0.1
		c0.3,0.4,0.8,0.5,1.2,0.7c0,0.2-0.2,0.1-0.3,0.2c-0.8,0.2-1.2,0.8-1.6,1.5c-0.2,0.4,0.1,0.6,0.3,0.9c0.1,0.1,0.3,0.3,0.1,0.4
		c-0.1,0.2-0.4,0.2-0.6,0.2c-0.1,0-0.1-0.1-0.1-0.2C479.6,477.3,479.6,476.9,479.6,476.4z"/>
	<path class="st4" d="M454.3,471.3c0-0.7,0.8-1.4,1.4-1.3c0.3,0.1,0.6,0.3,0.7,0.6c0.1,0.2,0.1,0.3,0.3,0.1c0.1-0.1,0.2-0.2,0.3-0.1
		c0.1,0.1,0.1,0.3,0,0.4c-0.4,0.3-0.6,0.8-0.6,1.3c0,0.1,0,0.1-0.1,0.2c-0.1,0.1-0.2,0.3-0.4,0.2c-0.2-0.1,0.1-0.2,0.2-0.3
		c0.2-0.4,0.1-0.8,0.1-1.2c-0.1-0.4-0.2-0.6-0.9-0.7c-0.3,0-0.3,0.2-0.3,0.4c0.1,0.3-0.1,0.5-0.3,0.7c-0.1,0.1-0.2,0.1-0.4,0.1
		C454.1,471.5,454.2,471.3,454.3,471.3z"/>
	<path class="st4" d="M474.6,453.6c0.1,0.4,0.1,0.8,0,1.2c0,0.3,0.1,0.4,0.3,0.3c0.3,0,0.6,0,0.9,0.1c0.2,0.1,0.3-0.1,0.5-0.1
		c0.1,0,0.3,0,0.3,0.2c0,0.1,0,0.3-0.3,0.3c-0.3,0-0.1,0.3-0.1,0.4c0.1,0.1,0.1,0.2,0.1,0.4c0,0.2-0.1,0.2-0.3,0.2
		c-0.2,0-0.2-0.1-0.1-0.3c0.1-0.5-0.2-1-0.8-1c-0.4,0-0.8,0.1-1.1,0.5c-0.2,0.2-0.6,0.3-0.9,0.4c0.4-0.2,0.4-0.8,0.8-1
		c0.4-0.2,0.4-0.6,0.4-1.1C474.5,453.9,474.4,453.8,474.6,453.6z"/>
	<path class="st4" d="M460.4,475.7c0,0.5-0.2,0.9-0.6,1.1c-0.2,0.1-0.6,0-0.7-0.3c-0.1-0.3,0-0.7,0.2-0.8c0.2-0.1,0.4-0.1,0.3,0.2
		c0,0.1,0,0.2,0.1,0.2c0.2,0,0.3,0,0.4-0.2c0.1-0.1,0.1-0.3,0-0.4c-0.2-0.2-0.3-0.3-0.6-0.5s-0.5-0.2-0.6-0.5c0-0.1-0.1-0.1,0-0.2
		c0.1,0,0.1,0,0.2,0.1c0.1,0.3,0.4,0.3,0.7,0.5c0.1,0.1,0.3,0.1,0.5,0c0.2-0.1,0-0.2,0-0.3c0-0.2,0-0.3,0.1-0.4
		c0.1-0.1,0.3-0.1,0.4,0c0.1,0.1,0.2,0.3,0.1,0.4c0,0.1-0.1,0.1-0.1,0.2c-0.1,0.2-0.4,0.2-0.4,0.4
		C460.2,475.3,460.3,475.5,460.4,475.7z"/>
	<path class="st4" d="M480.7,464c-0.3,0.2-0.3,0.4-0.2,0.6c0.1,0.2,0.2,0.4,0.5,0.4c0.1,0,0.5-0.5,0.6-0.7c0-0.3,0-0.6-0.1-0.9
		c-0.1-0.7,0.1-1.4,0.3-2.1c0,0.1,0,0.2,0,0.2c-0.1,0.9,0,1.9,0,2.8c0,0.4-0.3,0.8-0.7,0.9c-0.2,0.1-0.3-0.1-0.5-0.2
		c-0.4-0.2-0.6-1.1-0.2-1.4c0.2-0.1,0.4-0.1,0.6,0.1c0.2,0.1,0.2,0.3,0.1,0.4c0,0.1-0.1,0.2-0.3,0.2c-0.1,0-0.2-0.1-0.2-0.2
		C480.7,464.2,480.7,464.1,480.7,464z"/>
	<path class="st4" d="M457,464.2c0-0.4-0.2-0.7-0.4-1.1c0-0.1-0.1-0.2,0-0.2c0.1-0.1,0.2,0,0.2,0.1c0.5,0.5,0.5,1.6,0,2.1
		c-0.2,0.2-0.4,0.5-0.7,0.4c-0.4-0.1-0.7-0.4-0.8-0.9c0-0.3,0.1-0.6,0.3-0.9c0.2-0.2,0.4-0.2,0.6,0c0.2,0.2,0.2,0.4,0,0.6
		c-0.1,0.1-0.2,0.1-0.3,0.1c-0.1,0-0.2-0.1-0.1-0.3c0-0.1,0-0.2-0.1-0.2c-0.1,0-0.1,0.1-0.1,0.2c0,0.3-0.1,0.6,0.2,0.9
		c0.1,0.1,0.3,0.2,0.5,0.1C456.6,465.1,457,464.5,457,464.2z"/>
	<path class="st4" d="M458.8,459.4c0-0.6,0.7-1.3,1.4-1.1c0.2,0.1,0.4,0.1,0.6,0.2c0.1,0,0.1,0.2,0.1,0.2c0,0.1-0.1,0-0.2,0
		c-0.1-0.1-0.3-0.1-0.5-0.1c-0.1,0-0.3-0.2-0.4,0s-0.1,0.6,0.1,0.7c0.1,0.1,0.5,0.1,0.2,0.4c-0.2,0.3-0.8,0.4-0.9,0.2
		C458.9,459.8,458.7,459.7,458.8,459.4z"/>
	<path class="st4" d="M461.9,475.9c0.1,0.8-0.5,1.1-1.1,1.5c-0.5,0.3-1,0.4-1.5,0.2c-0.1,0-0.2,0-0.2-0.1c0-0.1,0.1-0.1,0.2-0.1
		c0.5,0.1,0.9,0,1.3-0.1c0.3-0.1,0.9-0.8,0.9-1.1c0-0.2-0.2-0.3-0.3-0.4c-0.2-0.1-0.2-0.3-0.1-0.4c0-0.1,0.2-0.3,0.4-0.3
		c0.2,0,0.4,0.1,0.4,0.3C461.9,475.5,462,475.7,461.9,475.9z"/>
	<path class="st4" d="M474.7,462.6c0-0.1,0.1-0.2,0.1-0.3c0.1,0,0.2-0.2,0.3,0c0.1,0.1-0.1,0.1-0.1,0.2c-0.1,0.1,0,0.2,0.1,0.2
		c0.2,0,0.4-0.1,0.6,0c0.5,0.2,0.6,0.4,0.4,0.9c-0.2,0.6-0.9,1-1.5,0.9c-0.1,0-0.2,0-0.3-0.1c-0.2-0.1-0.3-0.3-0.1-0.4
		c0.1-0.2,0.3-0.1,0.4,0c0.2,0.3,0.5,0.3,0.8,0.2c0.3-0.1,0.4-0.4,0.4-0.7c0-0.3-0.3-0.5-0.6-0.5C475,462.9,474.8,462.9,474.7,462.6
		z"/>
	<path class="st4" d="M479.1,454.3c-0.3,0.5-0.9,0.4-1.4,0.5c0,0,0,0,0,0c0.1,0.2,0.3,0.3,0,0.5c-0.3,0.2-0.4,0-0.5-0.2
		c-0.3-0.5-0.8-0.8-1.2-1.2c-0.1,0-0.1-0.1,0-0.2c0.1-0.1,0.1,0,0.2,0.1c0.3,0.4,0.7,0.6,1.1,0.7c0.4,0.1,0.7,0.1,0.9-0.3
		c0.1-0.1,0.2-0.2,0.3,0C478.8,454.3,478.9,454.4,479.1,454.3z"/>
	<path class="st4" d="M473.8,471.3c0,0-0.1,0-0.1,0.1c-0.3,0.2-0.6,0.4-1,0.2c-0.1,0-0.2,0-0.2-0.1c-0.1-0.1-0.4-0.2-0.3-0.3
		c0.1-0.2,0.2,0.1,0.3,0.2c0.3,0.1,0.6,0.1,0.8,0c0.3-0.1,0.5-0.3,0.5-0.7c0-0.3,0-0.6-0.4-0.7c-0.2-0.1-0.4-0.1-0.4,0.2
		c0,0.2-0.1,0.3-0.3,0.3c-0.1,0-0.2,0-0.3-0.1c-0.1-0.2,0-0.3,0.1-0.4c0.2-0.3,0.5-0.4,0.9-0.3c0.3,0.1,0.5,0.3,0.5,0.7
		C474,470.7,473.9,471,473.8,471.3z"/>
	<path class="st4" d="M479.8,458.1c-0.3-0.2-0.7-0.1-0.9-0.3c-0.1-0.1-0.3-0.1-0.3-0.3c0-0.2,0.2-0.2,0.4-0.2c0.1,0,0.2,0,0.3,0
		c0.5,0.3,1,0.6,1.3,1.1c0,0.1,0.1,0.2,0,0.3c-0.1,0.1-0.2,0-0.3-0.1c-0.1-0.2-0.2-0.1-0.4-0.1c-0.2,0-0.4,0.1-0.5-0.2
		C479.4,458.1,479.7,458.3,479.8,458.1z"/>
	<path class="st4" d="M476.1,470.7c0-0.6,0.5-1,1.1-0.9c0.2,0,0.5,0,0.7,0.3c0,0.1,0.1,0.2,0,0.3c-0.1,0.1-0.2,0-0.2-0.1
		c-0.2-0.3-0.5-0.3-0.8-0.3c-0.1,0-0.2,0.1-0.3,0.2c0,0.1,0.1,0.1,0.1,0.1c0.3,0.1,0.2,0.3,0.2,0.4c-0.1,0.2-0.2,0.4-0.4,0.4
		c-0.2,0-0.4-0.2-0.4-0.4C476.1,470.8,476.1,470.8,476.1,470.7z"/>
	<path class="st4" d="M465.3,457.5c0,0-0.1,0.1-0.1,0.1c-0.3-0.2-0.6-0.3-1-0.3c-0.3,0-0.5,0.2-0.4,0.5c-0.2,0.1-0.5,0.3-0.7,0.4
		c-0.1-0.1-0.1-0.2-0.1-0.3c0-0.2,0.6-0.7,0.9-0.7c0.2,0,0.4,0,0.6-0.2C464.9,456.8,465.2,457,465.3,457.5z"/>
	<path class="st4" d="M464.7,466.4c-0.1,0-0.2,0-0.2-0.1c-0.1-0.5-0.4-0.9-0.5-1.3c0.2,0,0.2-0.1,0.2-0.2c0-0.4,0.1-0.8,0.1-1.2
		c0,0,0.1-0.1,0.1-0.1c0.1,0.3,0.2,0.6,0.3,0.8c0.1,0.2,0,0.4-0.2,0.6c-0.3,0.2-0.3,0.5-0.2,0.8
		C464.6,465.8,464.6,466.1,464.7,466.4z"/>
	<path class="st4" d="M481.8,476C481.7,476,481.7,476,481.8,476c-0.2-0.1-0.2-0.3-0.4-0.3c-0.1,0-0.4,0.7-0.3,0.8
		c0.1,0.2,0.2,0.4,0.5,0.4c0.1,0,0.1,0,0.2,0c0,0,0.1,0,0.1,0.1c0,0,0,0.1-0.1,0.1c-0.4,0.2-0.9-0.1-0.9-0.5c0-0.5,0-0.9,0.4-1.2
		c0.1-0.1,0.3-0.2,0.5-0.1c0.2,0,0.1,0.2,0.1,0.3C481.8,475.7,481.8,475.8,481.8,476z"/>
	<path class="st4" d="M471.8,472.9c-0.1-0.1,0-0.2,0-0.3c0.1-0.4-0.1-0.8-0.5-0.9c-0.2,0-0.5-0.1-0.3,0.3c0,0.1,0,0.2-0.1,0.3
		c-0.1,0-0.3,0-0.4-0.1c-0.1-0.2,0-0.5,0.2-0.6c0.6-0.3,1.2,0.1,1.3,0.6C472.1,472.4,472.1,472.7,471.8,472.9z"/>
	<path class="st4" d="M465.3,477.4C465.2,477.4,465.2,477.4,465.3,477.4c-0.3,0-0.5,0-0.5-0.3c0-0.2,0.1-0.3,0.3-0.4
		c0.2-0.1,0.4,0,0.5,0.2c0.2,0.3,0,0.8-0.5,0.8c-0.3,0-0.6-0.1-0.7-0.4c0,0-0.1-0.1,0-0.2c0.1,0,0.1,0,0.1,0.1
		C464.7,477.7,464.9,477.7,465.3,477.4z"/>
	<path class="st4" d="M457.8,477.6c0.6,0,1,0.5,0.8,1c0,0.1-0.1,0.2-0.1,0.2c-0.1,0-0.1-0.1-0.1-0.2c0-0.1,0-0.2,0-0.3
		c-0.1-0.3-0.4-0.4-0.7-0.1c0,0,0,0,0,0c-0.1,0.1-0.3,0.3-0.5,0.2c-0.2-0.2,0-0.4,0.2-0.5C457.5,477.7,457.7,477.5,457.8,477.6z"/>
	<path class="st4" d="M473.5,480.3C473.6,480.3,473.6,480.3,473.5,480.3c0.2,0,0.3,0.1,0.4,0.2c0,0.1,0,0.2-0.1,0.2
		c-0.1,0.1-0.3,0.1-0.4,0c-0.2-0.1-0.3-0.3-0.3-0.5c0.1-0.3,0.3-0.4,0.6-0.4c0.3,0,0.8,0.3,0.9,0.6c0.1,0.1,0,0.3-0.1,0.3
		c-0.1,0-0.1-0.1-0.2-0.2C474.3,480,473.9,480,473.5,480.3z"/>
	<path class="st4" d="M471.6,476.4C471.6,476.5,471.5,476.5,471.6,476.4c-0.1,0.2,0.1,0.4,0.2,0.4c0.3,0,0.4,0.3,0.3,0.6
		c-0.1,0.2-0.3,0.2-0.5,0.3c-0.2,0-0.3-0.1-0.4-0.3c-0.1-0.2,0-0.5,0-0.7C471.2,476.5,471.3,476.4,471.6,476.4
		C471.6,476.4,471.6,476.4,471.6,476.4z"/>
	<path class="st4" d="M473.1,463.3c0.2,0.1,0.3,0.4,0.6,0.3c0,0.3-0.2,0.5-0.5,0.7c-0.3,0.1-0.6,0-0.7-0.3
		C472.8,463.7,473,463.6,473.1,463.3z"/>
	<path class="st4" d="M467.6,463.5c0.2-0.1,0.3-0.2,0.6-0.1c0.3,0.1,0.4,0.2,0.3,0.5c-0.1,0.3-0.3,0.5-0.6,0.7c-0.1,0-0.2,0.2-0.3,0
		c-0.1-0.1-0.1-0.2,0-0.3c0.1-0.1,0.2-0.3,0.4-0.3c0.2,0,0.3-0.1,0.3-0.3c0-0.2-0.2-0.1-0.3-0.1
		C467.8,463.6,467.6,463.7,467.6,463.5z"/>
	<path class="st4" d="M478.1,464.5c0,0.3-0.2,0.5-0.5,0.5c-0.1,0-0.3,0-0.3-0.1c0-0.1-0.1-0.2,0-0.3c0.1-0.1,0.2-0.2,0.4-0.1
		c0,0,0.1,0.1,0.1,0c0-0.1,0-0.1,0-0.2c-0.1-0.1-0.2-0.1-0.2-0.3c0,0,0.1,0,0.2,0c0.1,0.1,0.3,0.1,0.3,0.3
		C478.1,464.4,478.1,464.5,478.1,464.5z"/>
	<path class="st4" d="M475.7,453.6c0.1,0.3-0.1,0.6-0.2,0.8c-0.1,0.1-0.3,0.2-0.5,0.1c-0.2-0.2,0-0.3,0.1-0.4
		C475.3,453.9,475.4,453.7,475.7,453.6z"/>
	<path class="st4" d="M471.6,476.4c0-0.1-0.1-0.1,0-0.2c0.1-0.2,0.9-0.6,1.2-0.5c-0.1,0.1-0.4,0.1-0.2,0.4c-0.1,0-0.2,0.1-0.3,0.1
		C471.9,476.2,471.7,476.3,471.6,476.4C471.6,476.4,471.6,476.4,471.6,476.4z"/>
	<path class="st4" d="M476.2,474.7c0.1,0.1,0.1,0.1,0.3,0.2c0.3,0.1,0.5,0.5,0.5,0.8c0,0.1,0,0.1-0.1,0.1c-0.1,0-0.2-0.1-0.2-0.2
		C476.5,475.3,476.3,475.1,476.2,474.7C476.2,474.7,476.2,474.7,476.2,474.7z"/>
	<path class="st4" d="M481.5,468c-0.2,0-0.4,0-0.4-0.3c0-0.2,0.2-0.2,0.4-0.2c0.1,0,0.3,0,0.3,0.3C481.8,467.9,481.7,468,481.5,468z
		"/>
	<path class="st4" d="M473.5,453.6c0.1,0.1,0.3-0.1,0.3,0.1c0,0.2-0.2,0.3-0.3,0.3c-0.2,0-0.3-0.1-0.3-0.3
		C473.2,453.5,473.4,453.7,473.5,453.6z"/>
	<path class="st4" d="M473.7,474.5c-0.3,0.3-0.6,0.4-1.1,0.4C472.9,474.6,473.3,474.5,473.7,474.5L473.7,474.5z"/>
	<path class="st4" d="M465.5,468.2c-0.2-0.3-0.3-0.6-0.3-0.9C465.6,467.5,465.7,467.9,465.5,468.2z"/>
	<path class="st4" d="M478.8,470c0.1-0.1,0-0.4,0.3-0.4c0.1,0,0.1,0,0.1,0.1c-0.1,0.2-0.1,0.4-0.3,0.5
		C478.8,470.2,478.8,470.1,478.8,470z"/>
	<path class="st4" d="M460.7,461.8c-0.1,0.3-0.2,0.7-0.6,0.8C460.3,462.3,460.4,462,460.7,461.8z"/>
	<path class="st4" d="M476.9,464.1c0.1,0,0-0.2,0.2-0.3c0.3,0,1.2,0.3,0.9,0.4c-0.3,0.1-0.5-0.1-0.8,0
		C477.1,464.3,477,464.1,476.9,464.1z"/>
	<path class="st4" d="M460.1,462.5C460,462.5,460,462.6,460.1,462.5C460,462.6,460,462.5,460.1,462.5z"/>
	<path class="st3" d="M461.4,478.2C461.3,478.2,461.3,478.2,461.4,478.2C461.3,478.2,461.3,478.1,461.4,478.2
		C461.3,478.1,461.3,478.1,461.4,478.2z"/>
	<polygon class="st3" points="455.9,468.3 455.9,468.3 455.9,468.3 	"/>
	<path class="st3" d="M453.8,472.6C453.8,472.6,453.8,472.6,453.8,472.6C453.8,472.6,453.9,472.6,453.8,472.6
		C453.9,472.6,453.8,472.6,453.8,472.6z"/>
	<path class="st3" d="M453.8,481.6C453.8,481.7,453.8,481.7,453.8,481.6c-0.1,0-0.1,0-0.1,0C453.7,481.6,453.7,481.5,453.8,481.6
		C453.8,481.5,453.8,481.6,453.8,481.6z"/>
	<path class="st3" d="M473.5,457.7c-0.1-0.1-0.1-0.3-0.2-0.4c-0.1,0-0.1-0.1-0.1-0.2c0-0.1,0.1,0,0.2-0.1c0.8-0.1,1.7-0.1,2.5,0.1
		c0.7,0.2,1.3,0.4,1.8,0.9c0.9,0.9,0.7,1.4,0.2,2.4c-0.3,0.9-1.3,1-2.1,0.5c-0.1-0.1-0.3-0.1-0.4-0.2c-0.1-0.3,0.2-0.6,0.2-1
		c0-0.1,0.1,0,0.1,0.1c0.2,0.3,0.5,0.5,0.8,0.6c0.3,0.1,0.6-0.1,0.6-0.3c-0.1,0-0.2,0-0.2,0.1c-0.2,0.1-0.4,0.1-0.5-0.1
		c-0.1-0.1-0.2-0.3,0-0.5c0.1-0.1,0.1-0.3,0-0.4c-0.1-0.1-0.3-0.1-0.4,0c0-0.4,0.1-0.7,0.2-1.1c0.1,0.1,0.2,0.1,0.3,0
		c0.3-0.1,0.5,0.1,0.6,0.3c0.1,0.2,0,0.3-0.1,0.5c0,0.1-0.1,0.2-0.2,0.2c-0.1,0.1-0.2,0.2-0.1,0.4c0.1,0.1,0.3,0.2,0.5,0
		c0.1-0.1,0.2-0.3,0.2,0c0,0,0,0.1,0.1,0.1c0,0,0.1,0,0.1-0.1c0-0.4,0.1-0.7-0.2-1c-0.3-0.5-0.8-0.8-1.4-0.7
		c-0.3,0.1-0.5-0.2-0.7-0.2c0,0,0-0.1,0-0.1c0,0-0.1,0-0.1,0.1l0,0c-0.1,0-0.1,0-0.2,0.1c-0.3,0.3-0.4,0.3-0.7,0.1
		c0.1-0.1,0.1-0.2,0.3-0.2c0.1,0,0.1-0.1,0.1-0.1c0-0.1-0.1-0.1-0.2-0.1c-0.2,0.1-0.5,0.3-0.7,0.4
		C473.7,457.7,473.6,457.7,473.5,457.7z"/>
	<path class="st4" d="M476,457.7c0.6-0.1,1.1,0.2,1.4,0.7c0.2,0.3,0.2,0.7,0.2,1c0,0,0,0.1-0.1,0.1c-0.1,0-0.1,0-0.1-0.1
		c0-0.3-0.1-0.1-0.2,0c-0.2,0.1-0.3,0.1-0.5,0c-0.1-0.1-0.1-0.3,0.1-0.4c0.1,0,0.1-0.1,0.2-0.2c0.1-0.2,0.2-0.3,0.1-0.5
		c-0.2-0.2-0.4-0.3-0.6-0.3c-0.1,0-0.2,0.1-0.3,0C476.2,457.9,475.8,457.9,476,457.7z"/>
	<path class="st3" d="M470.7,457.5c0.6-0.2,1.1-0.4,1.7-0.5c0.2-0.1,0.5,0,0.6,0.2c0.1,0.1-0.1,0.3-0.2,0.4c-0.7,0-1.3-0.1-2,0
		C470.7,457.7,470.7,457.6,470.7,457.5z"/>
	<path class="st4" d="M475.9,459.1c0.2-0.1,0.3-0.1,0.4,0c0.1,0.1,0.1,0.3,0,0.4c-0.2,0.2-0.1,0.4,0,0.5c0.1,0.2,0.3,0.2,0.5,0.1
		c0.1,0,0.1,0,0.2-0.1c0,0.2-0.3,0.4-0.6,0.3c-0.3-0.1-0.6-0.3-0.8-0.6C475.7,459.5,475.8,459.3,475.9,459.1z"/>
	<path class="st3" d="M469.1,457.6c0-0.2,0.1-0.3,0.2-0.3c0.4-0.1,0.7-0.1,1.1,0c0.1,0,0.1,0.1,0.1,0.2
		C470.1,457.7,469.6,457.7,469.1,457.6z"/>
	<path class="st3" d="M463.9,457.8c-0.1-0.3,0-0.5,0.4-0.5c0.3,0,0.7,0.1,1,0.3c-0.1,0.1-0.3,0.1-0.5,0.1
		C464.5,457.8,464.2,457.8,463.9,457.8z"/>
	<path class="st4" d="M473.8,457.7c0.2-0.1,0.5-0.3,0.7-0.4c0.1,0,0.1,0,0.2,0.1c0,0.1,0,0.1-0.1,0.1c-0.1,0-0.2,0.1-0.3,0.2
		C474.1,457.8,474,457.8,473.8,457.7z"/>
	<path class="st3" d="M463,461.6c0.1,0.2,0.3,0.5,0.2,0.7C462.9,462.2,462.9,462.1,463,461.6z"/>
	<path class="st3" d="M466.8,457.5c0.3,0,0.6-0.1,0.9,0.1c-0.2,0-0.5,0.1-0.8,0.1C466.8,457.7,466.8,457.7,466.8,457.5z"/>
	<path class="st3" d="M463.3,463.1c0.3,0.1,0.1,0.5,0.3,0.7C463.4,463.6,463.3,463.4,463.3,463.1z"/>
	<path class="st4" d="M475.2,457.5c0-0.1,0.1-0.1,0.1-0.1c0,0,0,0.1,0,0.1C475.3,457.5,475.2,457.5,475.2,457.5z"/>
	<path class="st4" d="M475,457.6c0-0.1,0.1-0.1,0.2-0.1C475.1,457.6,475.1,457.6,475,457.6z"/>
	<path class="st3" d="M463.8,461.8c0.8,0,1.7,0,2.6,0c0.2,0,0.4,0,0.5,0.1c0.1,0.2-0.1,0.4-0.3,0.5c-0.2,0.2-0.6,0.1-0.8,0
		c-0.4-0.4-0.7-0.4-1.1,0.1c-0.1,0.1-0.2,0.2-0.3,0.2c-0.2,0-0.4,0.1-0.7,0.2c-0.1,0-0.2,0-0.2-0.1c0-0.1-0.1-0.3-0.1-0.4
		C463.3,461.8,463.3,461.8,463.8,461.8z"/>
	<path class="st3" d="M465.6,462.6c-0.2,0.1-0.4,0-0.7,0C465.2,462.2,465.4,462.2,465.6,462.6z"/>
	<path class="st3" d="M471.8,469.3C471.8,469.3,471.9,469.3,471.8,469.3C471.9,469.3,471.9,469.3,471.8,469.3
		C471.9,469.3,471.8,469.3,471.8,469.3z"/>
	<path class="st6" d="M474.3,471.8c-5.3,11-13-1.6-14.5-8.3c3.7-7,3.8-5.6,10.8-6c6.1,0.8,6.7-1.9,3.8,5.4c-0.3,0.5-0.8,0.8-1.2,0.3
		c0.4-0.6,1.1-1.1,0.8-1.9c-3.2,0-8.3-0.8-10.9,0.3c1,3.9,3.5,10.4,7.5,12.5C472.3,474.5,473.2,470.5,474.3,471.8z"/>
</g>
</svg>
